<svg width="100%" height="1360" viewBox="0 0 1272 1360" fill="none" xmlns="http://www.w3.org/2000/svg">
<path d="M1265.24 575.682C1270.88 518.81 1185.31 498.377 1181.28 446.96C1176.95 391.872 1258.97 358.16 1259.14 304.829C1259.3 256.039 1161.25 212.075 1185.87 150.576C1196.91 122.961 1307.19 45.8131 1239.4 16.7559C1163.86 -15.6139 1115.2 91.8763 1046.45 82.0668C1000.05 75.4558 999.375 24.6806 940.466 33.8903C883.514 42.8003 872.676 115.922 793.031 96.2741C723.898 79.2253 698.616 -4.19095 611.777 8.93113C554.192 17.6269 527.03 111.595 451.989 76.4125C408.272 55.9225 381.647 -13.5578 316.178 16.9844C284.124 31.9342 282.187 60.763 236.705 61.6197C172.943 62.8192 133.504 -11.7158 67.1912 1.59192C-44.3349 23.981 78.7006 94.218 78.7965 126.502C78.8732 156.502 -6.60322 182.96 45.5151 217.672C71.1235 234.735 119.31 234.521 123.28 267.919C129.534 320.265 43.5202 341.326 39.1466 388.388C33.3344 450.929 132.545 478.758 117.104 550.538C107.8 593.859 22.8417 642.45 22.6307 692.197C22.458 736.789 111.253 766.389 116.24 805.456C121.247 844.722 41.0649 866.797 39.2234 908.634C36.7489 965.235 151.248 1003.64 105.479 1061.79C88.8864 1082.86 40.4894 1096.43 39.0124 1124.93C37.2668 1158.61 117.794 1164.68 104.002 1210.31C90.4977 1255.24 -24.577 1279.32 4.77194 1333.83C31.7807 1383.99 109.085 1328.04 136.305 1311.54C163.889 1294.82 185.009 1281.17 224.985 1289.99C240.465 1293.42 277.18 1332.05 295.998 1340.92C359.069 1370.65 391.66 1287.93 453.984 1293.39C498.026 1297.24 537.542 1359.68 588.126 1360C638.901 1360.31 666.869 1312.35 702.682 1295.54C790.902 1254.14 860.361 1397.32 942.231 1341.31C984.528 1312.38 975.532 1258.69 1060.26 1281.91C1101.85 1293.3 1176.06 1363.01 1219.8 1315.63C1259.78 1272.31 1186.13 1229.86 1163.81 1196.29C1119.4 1129.53 1203.88 1120.02 1233.9 1072.44C1282.58 995.305 1176.66 977.557 1181.72 925.668C1184.58 896.468 1239.58 870.124 1258.59 845.45C1300.04 791.662 1234.7 765.361 1207.12 723.024C1162.87 655.115 1259.72 631.112 1265.22 575.682L1265.24 575.682Z" fill="#FFC619"/>
</svg>
