<svg xmlns="http://www.w3.org/2000/svg">
<defs>
<font id="OhnoFatfaceDemo-24PtCompressed" horiz-adv-x="729" >
  <font-face 
    font-family="Ohno Fatface Demo 24 Pt Compressed"
    font-weight="350"
    font-stretch="extra-condensed"
    units-per-em="2048"
    panose-1="2 15 10 4 5 2 5 9 4 4"
    ascent="1518"
    descent="-530"
    x-height="1116"
    cap-height="1290"
    bbox="-47 -436 1399 1735"
    underline-thickness="102"
    underline-position="-204"
    unicode-range="U+0020-00A0"
  />
<missing-glyph horiz-adv-x="1427" 
d="M987 272q0 -140 -6 -213.5t-17.5 -99t-33.5 -25.5q-21 0 -32 25.5t-17 98.5t-7 214q0 138 6 211.5t17.5 98t32.5 24.5q22 0 33.5 -24.5t17.5 -97.5t6 -212zM1145 270q0 186 -50.5 278.5t-164.5 92.5q-113 0 -163 -91t-50 -280q0 -190 50 -280t163 -90q114 0 164.5 91.5
t50.5 278.5zM532 1032q0 -140 -5.5 -212t-16 -97t-31.5 -25t-31.5 25.5t-16.5 97.5t-7 211q0 137 6 210t17 98.5t32 25.5t31.5 -26t16 -98t5.5 -210zM686 1030q0 185 -48.5 277t-158.5 92q-111 0 -159 -90t-48 -279t48 -278.5t159 -89.5q110 0 158.5 91.5t48.5 276.5z
M1321 647q0 -185 -12 -324.5t-40.5 -254t-74 -191.5t-113.5 -129.5t-158.5 -76t-209.5 -23.5q-120 0 -209.5 22t-158 73t-113.5 127t-73.5 190.5t-40.5 255.5t-12 331q0 229 18 390t59 282t112.5 191.5t172.5 104.5t245 34q143 0 245 -36t173 -108.5t112.5 -195t59.5 -281.5
t18 -381zM1364 649q0 234 -19.5 400.5t-64 294.5t-120 203.5t-185 113t-262.5 37.5q-110 0 -196 -18t-155 -54t-118.5 -97t-84.5 -141t-56 -192t-30.5 -244t-9.5 -303q0 -198 12.5 -346t43 -268.5t79 -200t121.5 -133t169 -77t225 -23.5q153 0 262.5 37.5t185 113.5
t120 203.5t64 294t19.5 399.5zM1399 649q0 -238 -21 -410.5t-68.5 -304.5t-128 -211.5t-195 -119t-273.5 -39.5q-160 0 -273.5 37.5t-194 115t-127.5 209t-68 305.5t-21 418t21 418.5t68 305.5t127.5 209t194 115.5t273.5 37.5q132 0 233.5 -26t178 -84t128.5 -142.5
t85 -208.5t47 -275.5t14 -349.5zM739 856q0 -105 -7 -125t-48 -20v-37h225v37q-27 0 -31 19t-4 126v160q16 2 52 2q35 0 51 -2v-160q0 -107 -4 -126t-31 -19v-37h213v37q-32 0 -37.5 20t-5.5 125v315q0 126 5.5 150.5t37.5 24.5v36h-213v-36q27 0 31 -23t4 -152v-116

<glyph glyph-name=".notdef" horiz-adv-x="1427" 
d="M987 272q0 -140 -6 -213.5t-17.5 -99t-33.5 -25.5q-21 0 -32 25.5t-17 98.5t-7 214q0 138 6 211.5t17.5 98t32.5 24.5q22 0 33.5 -24.5t17.5 -97.5t6 -212zM1145 270q0 186 -50.5 278.5t-164.5 92.5q-113 0 -163 -91t-50 -280q0 -190 50 -280t163 -90q114 0 164.5 91.5
t50.5 278.5zM532 1032q0 -140 -5.5 -212t-16 -97t-31.5 -25t-31.5 25.5t-16.5 97.5t-7 211q0 137 6 210t17 98.5t32 25.5t31.5 -26t16 -98t5.5 -210zM686 1030q0 185 -48.5 277t-158.5 92q-111 0 -159 -90t-48 -279t48 -278.5t159 -89.5q110 0 158.5 91.5t48.5 276.5z
M1321 647q0 -185 -12 -324.5t-40.5 -254t-74 -191.5t-113.5 -129.5t-158.5 -76t-209.5 -23.5q-120 0 -209.5 22t-158 73t-113.5 127t-73.5 190.5t-40.5 255.5t-12 331q0 229 18 390t59 282t112.5 191.5t172.5 104.5t245 34q143 0 245 -36t173 -108.5t112.5 -195t59.5 -281.5
t18 -381zM1364 649q0 234 -19.5 400.5t-64 294.5t-120 203.5t-185 113t-262.5 37.5q-110 0 -196 -18t-155 -54t-118.5 -97t-84.5 -141t-56 -192t-30.5 -244t-9.5 -303q0 -198 12.5 -346t43 -268.5t79 -200t121.5 -133t169 -77t225 -23.5q153 0 262.5 37.5t185 113.5
t120 203.5t64 294t19.5 399.5zM1399 649q0 -238 -21 -410.5t-68.5 -304.5t-128 -211.5t-195 -119t-273.5 -39.5q-160 0 -273.5 37.5t-194 115t-127.5 209t-68 305.5t-21 418t21 418.5t68 305.5t127.5 209t194 115.5t273.5 37.5q132 0 233.5 -26t178 -84t128.5 -142.5
t85 -208.5t47 -275.5t14 -349.5zM739 856q0 -105 -7 -125t-48 -20v-37h225v37q-27 0 -31 19t-4 126v160q16 2 52 2q35 0 51 -2v-160q0 -107 -4 -126t-31 -19v-37h213v37q-32 0 -37.5 20t-5.5 125v315q0 126 5.5 150.5t37.5 24.5v36h-213v-36q27 0 31 -23t4 -152v-116
q-16 -2 -51 -2q-36 0 -52 2v116q0 129 4 152t31 23v36h-225v-36q40 0 47.5 -24.5t7.5 -150.5v-315zM483 -88v37q-65 14 -99 153t-34 310v37l6 2q8 -24 23 -70t27 -82t24 -66l119 -321h127q-10 133 -10 330q0 184 11.5 262.5t41.5 85.5v37h-182v-37q102 -41 102 -416v-35
l-4 -4q-15 32 -41 109.5t-31 89.5q-86 210 -86 293h-192v-37q29 0 34 -19.5t5 -130.5v-22v-129q0 -327 -39 -340v-37h198z" />
    <glyph glyph-name=".null" horiz-adv-x="0" 
 />
    <glyph glyph-name="nonmarkingreturn" horiz-adv-x="682" 
 />
    <glyph glyph-name="space" unicode=" " horiz-adv-x="260" 
 />
    <glyph glyph-name="comma" unicode="," horiz-adv-x="337" 
d="M16 -209v53q64 3 114.5 21t78.5 44.5t42.5 53t14.5 51.5t-18 25q-10 0 -43.5 -15.5t-65.5 -15.5q-60 0 -96.5 42t-36.5 122q0 82 41 134t121 52q164 0 164 -231q0 -150 -79 -240t-237 -96z" />
    <glyph glyph-name="period" unicode="." horiz-adv-x="339" 
d="M170 358q74 0 118 -49t44 -135t-44 -136t-118 -50q-75 0 -118.5 49.5t-43.5 136.5t43 135.5t119 48.5z" />
    <glyph glyph-name="zero" unicode="0" horiz-adv-x="710" 
d="M686 647q0 -253 -33 -396t-103 -204t-194 -61t-194 59.5t-102.5 202t-32.5 399.5q-1 255 31.5 398t103 202.5t194.5 59.5t194.5 -61.5t103.5 -204.5t32 -394zM416 649q0 203 -3 323.5t-11 183t-18 81t-28 18.5t-28 -18.5t-18.5 -80.5t-11.5 -183.5t-3 -323.5
q0 -201 3 -322.5t11.5 -185t18.5 -83t28 -19.5q24 0 36 38.5t18.5 172.5t5.5 399z" />
    <glyph glyph-name="one" unicode="1" horiz-adv-x="407" 
d="M408 0h-406v49q44 0 60 19t16 79v867q0 45 -11.5 66.5t-41.5 21.5h-23v49q289 23 291 180h47v-1184q0 -61 15 -79.5t53 -18.5v-49z" />
    <glyph glyph-name="two" unicode="2" horiz-adv-x="651" 
d="M158 250q54 0 86 -34t32 -97q0 -60 -35 -95.5t-94 -35.5q-68 0 -103.5 44t-35.5 126q0 83 37 164.5t89.5 152t105.5 144.5t90 170t37 200q0 117 -37.5 171t-114.5 54q-103 0 -152 -88l15 -10q35 41 96 41q58 0 91.5 -40t33.5 -111q2 -65 -35 -107.5t-106 -42.5
q-68 0 -105 47.5t-37 132.5q0 123 74 195t229 72q157 0 234.5 -77.5t77.5 -248.5q0 -87 -17.5 -159t-47 -122.5t-70 -94.5t-84 -73.5t-93 -59.5t-92.5 -53.5t-86 -55t-71 -64.5l8 -12q56 45 155 45q60 0 138.5 -11.5t115.5 -11.5q38 0 60 21t32 82t5 170h32q11 -107 11 -281
q0 -161 -29 -235t-94 -74q-42 0 -73 21.5t-47.5 54.5t-35.5 70.5t-37 70.5t-52.5 54.5t-80.5 21.5q-83 0 -123 -58l15 -10q37 37 88 37z" />
    <glyph glyph-name="three" unicode="3" horiz-adv-x="661" 
d="M221 70q76 0 111 65t35 230q0 81 -8 133t-25 76.5t-35.5 33t-46.5 8.5q-32 0 -98 -4v58q49 -6 100 -6q44 0 66 18t33.5 73t11.5 165q0 168 -34.5 233.5t-111.5 65.5q-98 0 -147 -76l14 -13q36 31 88 31q57 0 90 -39.5t33 -109.5q0 -62 -35 -103t-100 -41q-70 0 -106 46
t-36 130q0 120 74.5 190.5t229.5 70.5q154 0 229.5 -79t75.5 -261q0 -89 -19 -150t-57 -95.5t-87 -50t-118 -18.5v-22q73 -3 121.5 -16t89.5 -44t60.5 -89t19.5 -146q0 -181 -80 -264.5t-235 -83.5q-159 0 -234.5 70t-75.5 190q0 84 36.5 130t107.5 46q64 0 98.5 -42
t34.5 -104q0 -71 -32 -109.5t-89 -37.5q-50 0 -90 29l-14 -15q54 -73 155 -73z" />
    <glyph glyph-name="four" unicode="4" horiz-adv-x="696" 
d="M309 324v30h-305v45q175 223 135 891h318q-102 -711 -387 -870v-19h239v191q149 162 240 698h33v-882q28 16 44 70t27 155h27v-486h-27q-20 186 -71 209v-24q0 -204 8 -241q8 -34 34 -40q9 -2 29 -2v-49h-501v49q24 0 42.5 1t34 6.5t26.5 9.5t20 16.5t14.5 20t9.5 28.5
t6 34t3 44t1 50v61v4z" />
    <glyph glyph-name="five" unicode="5" horiz-adv-x="655" 
d="M322 -14q-157 0 -232.5 69.5t-75.5 186.5q0 83 37 127.5t109 44.5q64 0 99.5 -41t35.5 -101q0 -69 -32 -107t-91 -38q-56 0 -94 35l-15 -15q49 -79 152 -79q54 0 85.5 30t48 109t16.5 221q0 164 -32.5 227.5t-103.5 63.5q-104 0 -155 -119h-35q3 131 -1 372t-11 318h71
q-1 -14 -8.5 -124.5t-11.5 -215.5h20q10 142 26 220t38 105.5t57 27.5q36 0 56 -36.5t40 -115.5q23 -82 56 -127t98 -45q67 0 104 43l-14 14q-37 -26 -84 -26q-49 0 -78.5 36.5t-29.5 102.5q0 75 35 114.5t92 39.5q66 0 101.5 -45.5t35.5 -122.5q0 -93 -46 -145t-128 -52
q-72 0 -159.5 11.5t-107.5 11.5q-37 0 -58 -18.5t-36 -84.5t-18 -190q73 149 272 149q68 1 118 -17t89.5 -60t59.5 -119t20 -189q0 -233 -75.5 -339.5t-239.5 -106.5z" />
    <glyph glyph-name="six" unicode="6" horiz-adv-x="692" 
d="M297 330q0 -173 11.5 -230t43.5 -57q22 0 34 24t18 90t6 187q0 95 -7 146t-18 65t-29 14q-20 0 -31.5 -15.5t-19.5 -70t-8 -153.5zM461 1223q-70 0 -107 -44t-54 -157.5t-17 -329.5q0 -25 -4 -157h16q12 97 56 141.5t122 44.5q203 0 203 -338q0 -86 -15 -154t-50 -125.5
t-100.5 -88.5t-158.5 -31q-186 0 -259 157.5t-73 520.5q0 237 40.5 380.5t116 203t194.5 59.5q138 0 212 -70.5t74 -183.5q0 -172 -147 -172q-64 0 -101.5 38t-37.5 105q0 68 33.5 107.5t93.5 39.5q48 0 77 -20l13 14q-48 60 -127 60z" />
    <glyph glyph-name="seven" unicode="7" horiz-adv-x="638" 
d="M465 156q0 -83 -43 -126.5t-115 -43.5q-88 0 -131 49t-43 133q0 176 92 350q-109 -4 -147 -8v63q95 -8 174 -10q46 76 111 153.5t117.5 134.5t68.5 85l-10 10q-57 -47 -154 -47q-49 0 -128 11.5t-105 11.5q-22 0 -35.5 -5t-28 -24t-21 -62.5t-6.5 -113.5h-43
q3 109 -1 295.5t-9 277.5h68q-11 -182 -15 -332h19q13 146 30 222t36 99.5t51 23.5q41 0 63.5 -38t44.5 -118q10 -37 17 -59t21.5 -51t30 -45t40.5 -28t57 -12q36 0 60.5 16t48.5 52l-13 8q-37 -43 -86 -43q-54 0 -86.5 41t-32.5 117q0 75 37.5 118.5t92.5 43.5
q67 0 102 -49t37 -136q0 -61 -24.5 -134t-55 -132t-63 -139.5t-44.5 -149.5q77 4 117 10v-65l-123 6q-2 -14 -2 -43q0 -61 14.5 -168.5t14.5 -148.5z" />
    <glyph glyph-name="eight" unicode="8" horiz-adv-x="688" 
d="M344 662q-20 0 -30.5 -10t-18 -43.5t-10 -90.5t-2.5 -158q0 -99 2.5 -157.5t9.5 -94.5t18.5 -48.5t30.5 -12.5q26 0 39 25t18.5 92t4.5 196q0 101 -2.5 158.5t-10.5 90.5t-18.5 43t-30.5 10zM344 725q25 0 38.5 22t19.5 78t6 164q0 109 -6 164t-19 74.5t-39 19.5
q-25 0 -37.5 -19.5t-18.5 -74t-7 -164.5q0 -107 6 -163.5t19.5 -78.5t37.5 -22zM344 -12q-175 0 -250.5 92t-75.5 278q0 165 53.5 241.5t161.5 84.5v18q-106 10 -152 77t-46 206q0 156 72.5 237t236.5 81q165 0 238 -81t73 -237q0 -140 -46.5 -207t-153.5 -76v-20
q110 -9 162.5 -84.5t52.5 -239.5q0 -186 -75.5 -278t-250.5 -92z" />
    <glyph glyph-name="nine" unicode="9" horiz-adv-x="692" 
d="M397 952q0 178 -11 235.5t-44 57.5q-21 0 -32 -26t-17 -97t-6 -202q0 -105 6.5 -159.5t17.5 -70.5t31 -16q19 0 30 18t18 80.5t7 179.5zM242 68q67 0 102.5 42t52.5 150.5t17 312.5q0 24 4 134h-17q-13 -97 -57 -141t-123 -44q-201 0 -201 342q0 76 8.5 138.5t30.5 120
t58 96.5t93 62.5t132 23.5q186 0 260 -157.5t74 -516.5q0 -240 -40.5 -384t-115 -203.5t-192.5 -59.5q-141 0 -214 68.5t-73 183.5q0 172 149 172q62 0 100 -38t38 -102q0 -67 -33 -104t-90 -37q-49 0 -90 23l-13 -17q56 -65 140 -65z" />
    <glyph glyph-name="A" unicode="A" horiz-adv-x="737" 
d="M-25 51q56 48 131.5 488.5t75.5 619.5q0 47 -22.5 64.5t-83.5 17.5v49h454q-6 -111 138 -954q26 -149 46 -209.5t48 -77.5v-49h-451v49q107 0 66 289l-21 154h-88h-73q-2 -74 -2 -181q0 -130 22 -189.5t64 -72.5v-49h-304v51zM268 539h82l-86 655h-14q-40 -317 -53 -655
h71z" />
    <glyph glyph-name="B" unicode="B" horiz-adv-x="772" 
d="M442 0h-440v49q56 0 66 36.5t10 225.5v19v631v19q0 188 -10 224.5t-66 36.5v49h432q173 0 239 -68t66 -249q0 -77 -12.5 -131.5t-33.5 -87t-58 -51.5t-76 -25.5t-98 -7.5v-25q51 -1 86.5 -6t71 -17t58 -34.5t41 -57t26.5 -85.5t8 -119q0 -186 -67.5 -256t-242.5 -70z
M365 631h-17v-582h8q48 0 75 21.5t42.5 87t15.5 186.5q0 119 -14.5 182.5t-39.5 84t-70 20.5zM354 1241h-6v-563h14q45 0 68.5 19.5t36 78t12.5 170.5q0 124 -13.5 188t-38.5 85.5t-73 21.5z" />
    <glyph glyph-name="C" unicode="C" horiz-adv-x="679" 
d="M596 1311h49q-4 -88 -5 -303.5t1 -305.5h-49q-68 303 -109 426t-94 123q-30 0 -46 -38.5t-24 -152t-8 -333.5q0 -179 9.5 -294.5t30 -177.5t47 -85t67.5 -23q46 0 73.5 41t41.5 135t16 257h49q0 -128 -6.5 -217.5t-24 -165.5t-48.5 -120.5t-79.5 -68.5t-117.5 -24
q-65 0 -115 16.5t-95 60.5t-73.5 117.5t-45.5 191.5t-17 279q0 157 13 269.5t37.5 187.5t66 119t93 62t123.5 18q46 0 86 -13.5t68 -27t45 -13.5q19 0 28.5 14t12.5 46z" />
    <glyph glyph-name="D" unicode="D" horiz-adv-x="796" 
d="M385 1241h-37v-1190h35q19 0 34 11t30.5 47t25.5 97.5t16.5 168.5t6.5 254q0 196 -5 313t-18.5 185.5t-33.5 91t-54 22.5zM414 0h-412v49q56 0 66 32.5t10 202.5v17v688v17q0 170 -10 202.5t-66 32.5v49h389q144 0 226 -60.5t120.5 -200.5t38.5 -386q0 -249 -36.5 -388.5
t-113 -197t-212.5 -57.5z" />
    <glyph glyph-name="E" unicode="E" horiz-adv-x="733" 
d="M684 0h-676v49q56 0 66 36.5t10 225.5v19v631v19q0 188 -10 224.5t-66 36.5v49h664q-2 -68 -1.5 -251t3.5 -265h-43q-30 154 -69 249t-87.5 144t-120.5 76v-557q100 70 131 268h39q-2 -102 -2 -292q0 -191 2 -293h-39q-32 225 -131 272v-594q108 52 177.5 175t113.5 347
h41q-3 -88 -3.5 -290.5t1.5 -278.5z" />
    <glyph glyph-name="F" unicode="F" horiz-adv-x="679" 
d="M479 0h-477v49q56 0 66 37t10 228v20v622v19q0 190 -10 228t-66 38v49h660q-2 -66 -2 -266.5t2 -280.5h-41q-49 236 -111 347.5t-162 148.5v-647q121 80 160 293h35q-2 -113 -2 -320q0 -206 2 -317h-35q-43 243 -160 295v-209q0 -73 1 -115t7 -77.5t12.5 -51t24 -26.5
t35.5 -13t51 -2v-49z" />
    <glyph glyph-name="G" unicode="G" horiz-adv-x="786" 
d="M367 1305q57 0 105.5 -15t82.5 -30t57 -15q40 0 45 66h50q-4 -82 -5.5 -284t0.5 -284h-47q-61 240 -130 374t-136 134q-30 0 -47 -45t-26 -173.5t-9 -366.5q0 -252 9 -389t25 -183.5t44 -46.5q24 0 37.5 25.5t20.5 99.5t6 209q0 161 -7 191q-9 34 -38 41q-14 3 -42 3v50
h426v-50q-54 0 -63.5 -33t-9.5 -205v-28q0 -276 4 -350h-45q-6 66 -20 92.5t-38 26.5q-19 0 -48 -21t-57.5 -46.5t-77 -46.5t-101.5 -21q-47 0 -88 16t-83 61.5t-71.5 117.5t-48 192.5t-18.5 277.5t13.5 269.5t39 187.5t68.5 119t96 62t127 18z" />
    <glyph glyph-name="H" unicode="H" horiz-adv-x="854" 
d="M506 242v399h-80h-78v-399q0 -144 7 -167t33 -26h15v-49h-401v49q56 0 66 25t10 155v13v807v13q0 130 -10 154.5t-66 24.5v49h401v-49q-41 0 -48 -24t-7 -150v-18v-361h78h80v361q0 139 -7 165.5t-48 26.5v49h401v-49q-56 0 -66 -24.5t-10 -154.5v-13v-807v-13
q0 -130 10 -155t66 -25v-49h-401v49q41 0 48 27t7 166z" />
    <glyph glyph-name="I" unicode="I" horiz-adv-x="425" 
d="M78 297v696q0 177 -10 212.5t-66 35.5v49h422v-49q-56 0 -66 -33t-10 -198v-17v-696v-17q0 -166 10 -198.5t66 -32.5v-49h-422v49q56 0 66 34.5t10 213.5z" />
    <glyph glyph-name="J" unicode="J" horiz-adv-x="419" 
d="M78 967v19q0 185 -10 220t-66 35v49h416v-49q-52 0 -61 -35.5t-9 -216.5v-20v-914q0 -231 -196 -231q-94 0 -142.5 44t-48.5 122q0 65 33 100t90 35q62 0 91.5 -34.5t29.5 -88.5q0 -58 -28 -87.5t-62 -31.5q-13 -3 -13 -12q0 -10 15 -10q47 0 86 38t39 111
q0 150 -164 156v801z" />
    <glyph glyph-name="K" unicode="K" horiz-adv-x="792" 
d="M547 739q79 2 118.5 -53t39.5 -186v-287q0 -40 4.5 -55t19.5 -15q10 0 15.5 10t8.5 43t3 95q0 26 -1 92t-1 109h32q2 -72 2 -187q0 -133 -14 -198.5t-47.5 -91t-101.5 -25.5q-92 0 -134 52t-42 163v377q0 41 -16.5 57t-53.5 16h-31v-325q0 -204 7 -239q8 -34 32 -40
q10 -2 27 -2v-49h-412v49q56 0 66 36.5t10 225.5v19v631v19q0 188 -10 224.5t-66 36.5v49h391v-51q-33 0 -39 -34t-6 -213v-31v-222q53 82 86.5 200t32.5 216q0 40 -7.5 59t-29.5 25v51h358v-51q-88 -104 -401 -520l6 -17q90 37 154 37z" />
    <glyph glyph-name="L" unicode="L" horiz-adv-x="628" 
d="M604 0h-602v49q56 0 66 37t10 228v20v655v17q0 170 -10 202.5t-66 32.5v49h471v-49q-32 0 -49.5 -1.5t-34 -11.5t-22.5 -23t-11.5 -45t-6.5 -69t-1 -102v-940q75 71 126 237.5t91 465.5h41q-2 -174 -2 -752z" />
    <glyph glyph-name="M" unicode="M" horiz-adv-x="1005" 
d="M561 573l-139 -583h-31l-158 579q-43 154 -100 418h-6v-209q0 -260 19 -416t55 -225.5t96 -87.5v-49h-295v49q40 48 60 204.5t20 524.5v219q0 175 -10.5 209.5t-69.5 34.5v49h383q-1 -113 37 -316.5t92 -412.5q114 465 109 729h381v-49q-56 0 -67 -34.5t-11 -209.5v-698
q0 -179 11 -214.5t67 -35.5v-49h-478v49q72 0 101.5 61.5t29.5 190.5v680l-6 2q-20 -101 -90 -410z" />
    <glyph glyph-name="N" unicode="N" horiz-adv-x="770" 
d="M385 49v-49h-377v49q40 49 57 187t17 407v322q0 200 -10.5 238t-69.5 38v49h350q2 -76 33 -190t121 -338q23 -59 68 -183t65 -176l14 3q-6 65 -6 126q0 325 -53 509.5t-158 199.5v49h326v-49q-32 -37 -49.5 -189.5t-20.5 -353.5q0 -446 21 -698h-224l-221 580
q-56 151 -137 424l-10 -3q4 -94 4 -149q0 -150 14.5 -283.5t44 -249t81.5 -188t120 -82.5z" />
    <glyph glyph-name="O" unicode="O" horiz-adv-x="776" 
d="M754 643q0 -248 -36.5 -390.5t-115 -205.5t-213.5 -63q-136 0 -213.5 60.5t-114 203t-36.5 395.5t36.5 396.5t114 205.5t213.5 62q135 0 213.5 -64t115 -208t36.5 -392zM469 645q1 262 -8 396t-25 173t-47 39q-32 0 -48 -40.5t-25 -172.5t-9 -395t9 -395t25 -172.5
t48 -40.5q31 0 46.5 39.5t24.5 172t9 396.5z" />
    <glyph glyph-name="P" unicode="P" horiz-adv-x="749" 
d="M481 49v-49h-479v49q56 0 66 26.5t10 164.5v804q0 142 -10 169.5t-66 27.5v49h406q180 0 255.5 -101.5t75.5 -336.5q1 -239 -72 -345t-229 -106q-27 0 -90 5v-166q0 -50 1 -77.5t6.5 -51.5t12.5 -34t24.5 -18t35.5 -9t53 -1zM379 461q38 0 57.5 23t32 107.5t12.5 248.5
q0 179 -9.5 263t-29.5 110t-63 26h-31v-776q12 -2 31 -2z" />
    <glyph glyph-name="Q" unicode="Q" horiz-adv-x="778" 
d="M438 201q0 58 -11.5 80t-33.5 22q-23 0 -34 -22.5t-11 -79.5q0 -60 8.5 -88.5t32.5 -28.5q49 0 49 117zM311 250h17q0 27 5 53.5t20 49t38 22.5q50 0 62 -107h14q4 109 4 377q0 133 -1.5 223.5t-5 162t-9 112t-15 67.5t-21.5 36t-30 9q-25 0 -39.5 -22.5t-24 -91
t-13 -184t-3.5 -312.5q0 -313 2 -395zM612 -109q-72 0 -103.5 60.5t-37.5 214.5h-14q-1 -33 -7.5 -61.5t-22 -57t-45 -45t-71.5 -16.5q-156 0 -222 153.5t-66 503.5q0 360 82 512t284 152q201 0 284 -148.5t83 -472.5q0 -225 -67.5 -334.5t-219.5 -124.5v-18q60 -25 141 -25
q70 0 90.5 33.5t20.5 106.5h33q6 -242 -25 -337.5t-117 -95.5z" />
    <glyph glyph-name="R" unicode="R" horiz-adv-x="808" 
d="M358 1243h-10v-565h14q66 0 94.5 60.5t28.5 224.5q0 124 -12 183t-37 78t-78 19zM633 -12q-91 0 -133 46.5t-43 153.5v328q0 72 -23 94.5t-84 20.5h-2v-301q0 -189 9 -228q9 -41 42 -49q16 -4 50 -4v-49h-447v49q56 0 66 38t10 235v20v600q0 213 -8 251q-8 39 -34 45
q-11 3 -34 3v49h483q149 0 206 -66.5t57 -242.5q0 -80 -13.5 -135.5t-36 -88t-62 -51t-79.5 -25t-102 -7.5v-25q149 0 206.5 -51.5t57.5 -177.5v-193q0 -47 4.5 -65.5t17.5 -18.5q9 0 14.5 10.5t9 52t3.5 118.5q0 111 -6 174h37q2 -61 2 -162q0 -89 -4.5 -146.5t-15 -99.5
t-30.5 -63t-47.5 -30t-70.5 -9z" />
    <glyph glyph-name="S" unicode="S" horiz-adv-x="661" 
d="M416 147q0 83 -36 157.5t-112 162.5q-116 131 -179.5 254.5t-63.5 269.5q0 148 68.5 232t205.5 84q46 0 89.5 -19.5t76.5 -39t53 -19.5q22 0 33.5 14t15.5 47h45q-4 -95 -4 -288t4 -287h-43q-67 280 -125 408t-127 128q-71 0 -71 -106q0 -146 133 -293q60 -65 102.5 -120
t82 -123t59.5 -143.5t20 -156.5q0 -168 -71 -246.5t-197 -78.5q-62 0 -117.5 21t-92.5 42t-54 21q-38 0 -41 -68h-41q3 100 3 305.5t-3 306.5h41q59 -268 132 -420.5t146 -152.5q68 0 68 108z" />
    <glyph glyph-name="T" unicode="T" horiz-adv-x="735" 
d="M621 49v-49h-504v49q86 0 101 30.5t15 191.5v5v963q-61 -41 -107 -196t-67 -377h-43q3 103 3 320.5t-3 303.5h701q-3 -86 -3 -303.5t3 -320.5h-43q-20 216 -67 374.5t-103 198.5v-963v-10v-69.5t2 -50.5t4 -39.5t9 -25t13.5 -18.5t21 -8.5t28.5 -5.5h39z" />
    <glyph glyph-name="U" unicode="U" horiz-adv-x="700" 
d="M584 338q0 749 -170 901v51h288v-51q-40 -28 -56.5 -131t-16.5 -320v-454q0 -180 -58.5 -266t-201.5 -86q-168 0 -235.5 75.5t-67.5 249.5v766q0 119 -8 141q-8 23 -42 26q-9 1 -26 1v49h383v-49q-14 -1 -20 -4.5t-10.5 -22t-5.5 -48.5t-1 -93v-735q0 -93 31 -135.5
t96 -42.5q64 0 92.5 44.5t28.5 133.5z" />
    <glyph glyph-name="V" unicode="V" horiz-adv-x="735" 
d="M530 0h-323q5 97 -137 930q-28 164 -48 228t-49 83v49h443v-49q-57 -1 -68 -78.5t12 -234.5l111 -805h18q56 489 56 848q0 137 -21.5 197.5t-68.5 72.5v49h307v-51q-56 -54 -119.5 -393t-112.5 -846z" />
    <glyph glyph-name="W" unicode="W" horiz-adv-x="1161" 
d="M549 313q-24 -170 -27 -313h-325q4 56 -37.5 357.5t-93.5 607.5q-26 146 -45.5 203.5t-47.5 72.5v49h879v-49q-46 -7 -55.5 -77t10.5 -206l106 -870h15q41 373 48 631t-14.5 379t-66.5 141v51h293v-51q-85 -72 -187 -926q-21 -175 -24 -313h-332q5 74 -65 532
q-23 -155 -31 -219zM356 963l109 -867h16q67 555 37 815q-12 111 -39.5 209.5t-64.5 128.5q-89 -38 -58 -286z" />
    <glyph glyph-name="X" unicode="X" horiz-adv-x="667" 
d="M250 49v-49h-264v49q58 89 198 586q-99 338 -136.5 454.5t-59.5 151.5v49h383v-47q-31 -10 -36 -58t17 -114l107 -393q32 202 17.5 370.5t-66.5 194.5v47h270v-49q-31 -39 -74.5 -181t-120.5 -431q100 -331 136 -438t61 -142v-49h-395v49q68 21 18 189l-92 352
q-33 -186 -24.5 -334t61.5 -207z" />
    <glyph glyph-name="Y" unicode="Y" horiz-adv-x="714" 
d="M602 0h-471v49q74 0 87 46.5t13 295.5l-157 592q-32 136 -52.5 190t-48.5 68v49h433v-49q-46 -3 -56.5 -72.5t15.5 -187.5l102 -496h10q110 703 -35 756v49h299v-51q-45 -45 -108 -273t-131 -579q0 -245 13 -291.5t87 -46.5v-49z" />
    <glyph glyph-name="Z" unicode="Z" 
d="M49 608q4 339 0 682h641v-57q-108 -290 -235 -719l-144 -465h27q36 0 67.5 22t58.5 66.5t50.5 100t46.5 136t41.5 160t40.5 185.5h41q-3 -123 -3 -359.5t3 -359.5h-670v57q67 151 213 613l176 571h-45q-43 0 -81 -47t-71 -140t-59.5 -196.5t-56.5 -249.5h-41z" />
    <glyph glyph-name="a" unicode="a" horiz-adv-x="708" 
d="M39 899q0 231 283 231q175 0 243 -63t68 -217q0 -74 -1 -317.5t-1 -313.5q0 -56 3 -72t13 -16q11 0 16 18t9.5 97t-0.5 241h28q9 -208 -2 -314.5t-43 -145.5t-98 -39q-84 0 -115.5 47.5t-33.5 157.5h-17q-24 -205 -180 -205q-112 0 -155.5 80.5t-43.5 269.5q0 188 50 268
t161 88q43 2 70 9t43.5 17t24.5 31t10 42.5t2 60.5v55q0 80 -36 114t-106 34q-59 0 -106 -23l4 -14q31 8 57 8q57 0 88 -33.5t31 -99.5q0 -145 -133 -145q-63 0 -98 38.5t-35 110.5zM317 147q28 0 42 28.5t14 105.5v434q-5 -8 -31 -42.5t-38 -59t-25 -89.5t-13 -153
q0 -93 6 -142.5t16 -65.5t29 -16z" />
    <glyph glyph-name="b" unicode="b" horiz-adv-x="698" 
d="M379 -8q-45 0 -83 13t-58.5 29t-44 29t-43.5 13q-23 0 -37.5 -21t-14.5 -55h-45v1221q0 55 -13.5 74.5t-55.5 19.5v53q242 13 325 31q-2 -98 -9.5 -260t-8.5 -234h12q12 119 52.5 173.5t119.5 54.5q116 0 159.5 -124t41.5 -440q1 -312 -68.5 -444.5t-228.5 -132.5z
M309 197q0 -86 10.5 -120t42.5 -34q18 0 27.5 14t17 68t10 156t3.5 282q0 177 -6 265.5t-17 113.5t-32 25q-18 0 -29.5 -16.5t-19 -74.5t-7.5 -163v-516z" />
    <glyph glyph-name="c" unicode="c" horiz-adv-x="643" 
d="M293 612q0 -190 17 -289t46 -129t84 -30q40 0 66 26t44 103t21 209h45q0 -114 -7 -193.5t-25 -144t-48.5 -102t-77 -57t-112.5 -19.5q-67 0 -114.5 14t-88.5 50.5t-65.5 101t-38.5 166t-14 243.5q-1 139 11 237.5t35.5 164t64.5 103t92 52.5t124 15q141 0 206 -72
t65 -197q0 -213 -131 -213q-71 0 -101.5 47t-30.5 119q0 77 31.5 129.5t89.5 52.5q35 0 58 -14l10 14q-47 50 -109 50q-28 0 -47.5 -7.5t-40 -33.5t-32.5 -72.5t-19.5 -127.5t-7.5 -196z" />
    <glyph glyph-name="d" unicode="d" horiz-adv-x="698" 
d="M338 143q49 0 49 150v766q-15 6 -31 6q-25 0 -36.5 -11t-22 -61t-13.5 -152t-3 -286q0 -172 6.5 -263t18 -120t32.5 -29zM416 0q4 47 4 205h-14q-12 -111 -56 -164t-125 -53q-114 0 -158 123.5t-44 439.5q0 213 29 340.5t83 180t141 52.5q69 0 111 -22v110
q0 68 -18.5 89.5t-79.5 21.5v47q82 2 193 10t161 19v-1254q0 -56 13.5 -76t52.5 -20v-49h-293z" />
    <glyph glyph-name="e" unicode="e" horiz-adv-x="667" 
d="M287 635v-37h119q0 129 -3 218t-7.5 141t-13 80.5t-17 37t-21.5 8.5q-12 0 -20 -7.5t-16 -33t-12 -73.5t-6.5 -130.5t-2.5 -203.5zM639 483q0 -98 -6 -168.5t-23.5 -136t-48 -105.5t-80.5 -63.5t-119 -23.5q-70 0 -120 14.5t-93 52t-69 103t-40.5 167.5t-14.5 244
q0 220 32 342.5t99.5 173t187.5 50.5q72 0 123.5 -20t84.5 -56t52.5 -95t27 -127.5t7.5 -162.5v-119h-352q3 -158 20.5 -241.5t50 -113.5t91.5 -30q49 0 79.5 27t48 97.5t17.5 190.5h45z" />
    <glyph glyph-name="f" unicode="f" horiz-adv-x="399" 
d="M160 1257q0 -92 40 -141t119 -49h72v-47h-72v-862q0 -60 16.5 -84.5t65.5 -24.5v-49h-413v49q45 0 60 24.5t15 84.5v862h-63v47h174v14q-93 15 -136.5 59t-43.5 130q0 196 219 196q106 0 151.5 -48.5t45.5 -149.5q0 -150 -97 -150q-104 0 -104 146q0 66 28 99.5t70 33.5
q19 0 27 -2l4 12q-20 10 -53 10q-125 0 -125 -160z" />
    <glyph glyph-name="g" unicode="g" horiz-adv-x="673" 
d="M391 670q0 141 -2.5 221t-9.5 123.5t-16 55t-27 11.5q-17 0 -25.5 -11.5t-15 -56t-8.5 -123t-2 -220.5q0 -131 2 -203t8.5 -113.5t16 -53t26.5 -11.5t26 11.5t15.5 52t9 114.5t2.5 203zM547 -129q0 53 -66 53q-55 0 -175 -3t-144 -3h-27q0 -28 6 -46t25.5 -36.5t64 -27.5
t113.5 -9q67 0 110.5 5.5t62 17t24.5 22t6 27.5zM342 -244q-128 0 -199 13t-91.5 31.5t-20.5 49.5q0 32 23 53.5t55 26.5l2 17q-55 19 -81 52.5t-26 102.5q0 73 43.5 119.5t120.5 46.5q57 0 96 -2v21q-129 10 -181 100.5t-52 296.5q0 168 30.5 264t95 137t177.5 41
q28 0 79.5 -4t69.5 -4q8 0 12.5 5t4.5 10q0 13 -33 24q-64 22 -64 88q0 45 31.5 73t89.5 28q127 0 127 -125q0 -60 -33.5 -95.5t-91.5 -35.5q-14 0 -52 3t-64 3v-21q135 -9 184 -106t49 -312q1 -227 -68.5 -322t-238.5 -95q-83 0 -126.5 -6t-57 -16.5t-13.5 -29.5
q0 -38 47 -38q9 0 127 4t170 4q187 0 187 -185q0 -77 -26 -122t-99 -70t-203 -25z" />
    <glyph glyph-name="h" unicode="h" 
d="M350 47v-47h-358v47q37 0 49 19.5t12 70.5v1090q0 55 -12 74.5t-49 19.5v47q239 14 317 31q-2 -76 -11.5 -242.5t-10.5 -257.5h10q17 131 61.5 182.5t133.5 51.5q100 0 143 -64t43 -203v-729q0 -51 11.5 -70.5t47.5 -19.5v-47h-356v47q24 0 31.5 19t7.5 65v735
q0 59 -11 81t-38 22q-62 0 -62 -129v-709q0 -46 8 -65t33 -19z" />
    <glyph glyph-name="i" unicode="i" horiz-adv-x="364" 
d="M174 1405q77 0 118.5 -31t41.5 -90q0 -119 -160 -119t-160 119q0 121 160 121zM373 0h-383v49q38 0 50.5 22t12.5 79v813q0 59 -13.5 81.5t-57.5 22.5v49h327v-966q0 -56 13 -78.5t51 -22.5v-49z" />
    <glyph glyph-name="j" unicode="j" horiz-adv-x="368" 
d="M182 1405q77 0 118.5 -31t41.5 -90q0 -119 -160 -119q-159 0 -159 119q0 121 159 121zM322 -14q0 -110 -48 -171t-137 -61q-94 0 -139 43t-45 119q0 64 31 99.5t84 35.5q56 0 83 -32.5t27 -84.5q0 -59 -32.5 -88.5t-73.5 -29.5q-15 0 -25 2l-2 -19q16 -4 39 -4
q57 0 97 38t40 112q0 145 -155 151v860q0 61 -15.5 86t-60.5 25v49h332v-1130z" />
    <glyph glyph-name="k" unicode="k" horiz-adv-x="747" 
d="M311 1399v-740q50 59 81.5 149.5t29.5 164.5q0 43 -13.5 64.5t-48.5 31.5v47h361v-47q-53 -56 -183 -205.5t-198 -224.5l6 -12q105 41 164 41q68 0 106.5 -39t38.5 -140v-266q0 -44 5 -60t18 -16q10 0 16 22t10 103.5t3 231.5h34q4 -219 -11 -328.5t-50.5 -148.5
t-108.5 -39q-91 0 -131.5 45.5t-40.5 154.5q0 46 1 157t1 173q0 72 -55 72h-35v-438q0 -56 16 -79.5t60 -23.5v-49h-405v49q42 0 56.5 23t14.5 80v1062q0 62 -14 84.5t-57 22.5v47q242 13 329 31z" />
    <glyph glyph-name="l" unicode="l" horiz-adv-x="362" 
d="M311 1399v-1247q0 -57 14.5 -80t55.5 -23v-49h-399v49q42 0 56.5 23t14.5 80v1062q0 62 -14 84.5t-57 22.5v47q242 13 329 31z" />
    <glyph glyph-name="m" unicode="m" horiz-adv-x="1095" 
d="M678 848v-698q0 -57 7.5 -79t29.5 -22v-49h-334v49q24 0 31.5 22t7.5 79v714q0 60 -11 82.5t-38 22.5q-31 0 -46.5 -28t-15.5 -95v-696q0 -57 8 -79t33 -22v-49h-360v49q38 0 50.5 22t12.5 79v811q0 63 -13.5 84.5t-55.5 21.5v49h301q-2 -78 -2 -225h14q7 73 23 121.5
t42 74.5t56.5 36t73.5 10q86 0 120 -52t39 -190h15q11 136 58.5 189t137.5 53q96 0 139 -57.5t43 -180.5v-745q0 -55 13 -78t47 -23v-49h-354v49q22 0 29 22t7 79v714q0 59 -11 82t-38 23q-30 0 -44.5 -26.5t-14.5 -94.5z" />
    <glyph glyph-name="n" unicode="n" 
d="M350 49v-49h-358v49q39 0 50 19t11 69v842q0 56 -12 72t-53 16v49h295q-2 -68 -2 -223h14q17 136 62 188t135 52q100 0 143 -64t43 -203v-729q0 -49 11.5 -68.5t47.5 -19.5v-49h-356v49q24 0 31.5 18.5t7.5 63.5v735q0 59 -11 81t-38 22q-62 0 -62 -129v-709q0 -46 8 -64
t33 -18z" />
    <glyph glyph-name="o" unicode="o" horiz-adv-x="681" 
d="M657 567q0 -224 -32 -350t-98.5 -178.5t-184.5 -52.5q-119 0 -186.5 51.5t-99.5 177.5t-31 352q0 170 16.5 278t56 172t97 88.5t147.5 24.5q119 0 185.5 -48.5t98.5 -171t31 -343.5zM397 569q0 139 -2.5 233t-6 149t-11 83.5t-15 36.5t-20.5 8q-17 0 -26.5 -14t-17 -65
t-10.5 -153.5t-3 -277.5q0 -176 3 -281t10.5 -161t17 -73t26.5 -17q21 0 32 34t17.5 153t5.5 345z" />
    <glyph glyph-name="p" unicode="p" horiz-adv-x="700" 
d="M420 569q0 138 -2.5 215.5t-9 119.5t-15.5 53.5t-26 11.5q-20 0 -31 -20.5t-19 -96.5t-8 -217v-565q18 -15 43 -15q21 0 33 16t20.5 71.5t11.5 154.5t3 272zM408 -182v-49h-426v49q42 0 56.5 20t14.5 70v1069q0 53 -11 71.5t-46 18.5v49h293q-4 -70 -4 -213h8
q18 126 61 178t123 52q78 0 120.5 -51t61 -172t17.5 -343q1 -215 -28.5 -342.5t-85.5 -180t-148 -52.5q-67 0 -105 35v-119q0 -50 20 -70t79 -20z" />
    <glyph glyph-name="q" unicode="q" horiz-adv-x="702" 
d="M338 1077q-18 0 -27.5 -14.5t-17 -68.5t-10 -157t-2.5 -282q0 -137 3 -219.5t11 -123.5t17.5 -53t25.5 -12q47 0 47 156v649q0 69 -9.5 97t-37.5 28zM401 -68q7 58 13 293h-11q-15 -128 -58 -182.5t-122 -54.5q-114 0 -157.5 130t-40.5 441q-1 307 68 438t226 131
q46 0 85 -11.5t61 -25t47 -25t45 -11.5q23 0 37 18t14 47h35v-1202q0 -57 14 -78.5t58 -21.5v-49h-414v49q59 0 77 23t23 91z" />
    <glyph glyph-name="r" unicode="r" horiz-adv-x="550" 
d="M428 49v-49h-440v49q39 0 52 22t13 70v838q0 50 -12.5 69t-52.5 19v49h297q-2 -94 -2 -313h12q8 178 45.5 250.5t97.5 72.5q103 0 103 -180q0 -95 -23 -153t-74 -58q-26 0 -45 14t-27 31t-18.5 31t-21.5 14q-21 0 -21 -57v-586q0 -81 22 -107t95 -26z" />
    <glyph glyph-name="s" unicode="s" horiz-adv-x="593" 
d="M350 109q0 131 -129 286q-91 120 -143.5 230.5t-52.5 236.5q0 129 60 200t183 71q51 0 112 -25t75 -25q19 0 29 11t14 39h45q-3 -79 -3 -241t3 -239h-43q-54 225 -105.5 328.5t-109.5 103.5q-56 0 -56 -73q0 -110 127 -267q63 -78 104.5 -141t75 -156t33.5 -184
q0 -278 -247 -278q-50 0 -96 15t-77.5 29.5t-46.5 14.5q-18 0 -26 -11.5t-8 -39.5h-43q8 151 2 508h41q24 -90 49.5 -168.5t55.5 -148.5t61.5 -111t60.5 -41q55 0 55 76z" />
    <glyph glyph-name="t" unicode="t" horiz-adv-x="434" 
d="M309 1370v-254h113v-49h-113v-840q0 -51 6 -68.5t21 -17.5q12 0 18.5 14.5t11.5 72.5t5 167q0 133 -4 199h49q0 -31 1 -103t1 -100q-1 -168 -16 -251.5t-51.5 -117.5t-110.5 -34q-47 0 -79 10.5t-57.5 36.5t-38 75t-12.5 123v834h-53v49q121 0 188.5 60.5t79.5 193.5h41z
" />
    <glyph glyph-name="u" unicode="u" 
d="M446 0q3 94 3 223h-15q-17 -133 -60.5 -185t-133.5 -52q-101 0 -144 63t-43 201v745q0 44 -12 58t-51 14v49h327q-8 -92 -8 -252v-620q0 -56 11 -76.5t38 -20.5q31 0 46.5 36t15.5 134v662q0 56 -11 72t-53 16v49h326q-4 -58 -4 -256v-727q0 -49 12 -66.5t51 -17.5v-49
h-295z" />
    <glyph glyph-name="v" unicode="v" horiz-adv-x="606" 
d="M449 0h-297q1 20 -19.5 177t-48 363t-37.5 298q-19 125 -33.5 172.5t-36.5 56.5v49h375v-49q-36 0 -41.5 -55.5t11.5 -175.5l79 -689h19q31 432 31 596q0 155 -12 224t-46 100v49h228v-51q-31 -36 -83.5 -357.5t-88.5 -707.5z" />
    <glyph glyph-name="w" unicode="w" horiz-adv-x="997" 
d="M438 0h-293q1 20 -18 169.5t-45.5 348.5t-36.5 289q-20 147 -32.5 197t-37.5 63v49h754v-49q-37 -29 -12 -260l82 -739h14q39 399 39 622q0 329 -88 377v49h252v-49q-30 -30 -83.5 -361t-82.5 -706h-297q0 14 -9.5 93t-24.5 200.5t-23 189.5q-47 -333 -58 -483zM313 807
l82 -733h17q30 267 40 417t-1 248l-11 84q-28 205 -82 254q-69 -43 -45 -270z" />
    <glyph glyph-name="x" unicode="x" horiz-adv-x="641" 
d="M225 49v-49h-241v49q26 39 74.5 179t103.5 339q-89 294 -120 383t-56 117v49h364v-47q-44 -21 -6 -145l92 -340h2q29 180 15 317.5t-60 165.5v49h250v-49q-47 -58 -172 -518q84 -285 116 -375.5t58 -124.5v-49h-375v49q50 21 11 156l-86 323q-33 -178 -24.5 -304.5
t54.5 -174.5z" />
    <glyph glyph-name="y" unicode="y" horiz-adv-x="589" 
d="M209 -244q-195 0 -195 140q0 60 39 94.5t113 34.5q147 0 147 -107q0 -40 -27 -66.5t-73 -35.5l2 -21q76 12 117 62t41 127q0 44 -19 60.5t-61 16.5h-164l-100 902q-7 58 -19 80t-33 24v49h363v-49q-21 -5 -26.5 -30t1.5 -99l82 -840h23q35 436 21.5 687t-60.5 282v49h229
v-49q-15 -11 -27.5 -58t-26 -146.5t-25.5 -206.5t-34 -294t-44 -352q-20 -130 -79.5 -192t-164.5 -62z" />
    <glyph glyph-name="z" unicode="z" horiz-adv-x="655" 
d="M39 496q5 110 5 310t-5 310h584v-55q-2 -5 -11 -29t-15.5 -41.5t-19 -52t-26 -75t-31 -95t-39.5 -127t-47 -156.5l-127 -436h10q88 0 141 138t107 450h43q-4 -110 -4 -318.5t4 -318.5h-592v53q81 202 193 578l129 438h-21q-76 0 -132 -146t-103 -427h-43z" />
    <glyph glyph-name="uni00A0" unicode="&#xa0;" horiz-adv-x="260" 
 />
  </font>
</defs>
</svg>
