<svg xmlns="http://www.w3.org/2000/svg">
<defs>
<font id="OhnoFatfaceDemo-12Pt" horiz-adv-x="1413" >
  <font-face 
    font-family="Ohno Fatface Demo 12 Pt"
    font-weight="610"
    font-stretch="normal"
    units-per-em="2048"
    panose-1="2 15 10 7 1 2 5 9 4 4"
    ascent="1518"
    descent="-530"
    x-height="1116"
    cap-height="1290"
    bbox="-47 -655 2687 1954"
    underline-thickness="102"
    underline-position="-204"
    unicode-range="U+0020-00A0"
  />
<missing-glyph horiz-adv-x="2727" 
d="M1886 246q0 -113 -14.5 -174t-40.5 -81t-72 -20q-69 0 -98 56t-29 219q0 114 14.5 175.5t40.5 82t72 20.5t72 -20.5t40.5 -82t14.5 -175.5zM2122 246q0 179 -87 269.5t-276 90.5q-190 0 -276 -88.5t-86 -271.5q0 -184 85.5 -272.5t276.5 -88.5q190 0 276.5 90t86.5 271z
M1047 1047q0 -113 -14.5 -174t-40 -81t-70.5 -20t-70.5 21t-40 82t-14.5 172q0 114 14.5 175.5t40 82t70.5 20.5t70.5 -20.5t40 -82t14.5 -175.5zM1276 1047q0 179 -84.5 269.5t-269.5 90.5q-186 0 -270.5 -88.5t-84.5 -271.5q0 -184 84.5 -272.5t270.5 -88.5
q185 0 269.5 90t84.5 271zM2464 647q0 -200 -22 -351t-73.5 -274.5t-134 -207t-206 -140.5t-287 -82.5t-379.5 -25.5q-217 0 -379.5 24t-286.5 79t-206 137t-133.5 206t-73 277t-21.5 358q0 206 21.5 359t73 277.5t133.5 206.5t206 137.5t286.5 79.5t379.5 24
q216 0 379.5 -25.5t287 -83t206 -141t134 -208t73.5 -275.5t22 -351zM2585 649q0 223 -24.5 390.5t-81.5 305.5t-148.5 230.5t-228.5 155.5t-318.5 91.5t-421.5 28.5q-206 0 -367 -20.5t-290 -62t-222 -110.5t-159 -161t-105.5 -220.5t-57.5 -280t-18 -347.5q0 -227 24 -397
t81 -307.5t148 -229t228 -153t317.5 -88.5t420.5 -27t421.5 28.5t318.5 92t228.5 156t148.5 230.5t81.5 305.5t24.5 389.5zM2687 649q0 -235 -28.5 -416.5t-92.5 -330t-166 -251t-250 -172.5t-342 -102t-446 -32t-445.5 31t-341.5 99t-249 169t-165 249.5t-92 332t-28 423.5
t28 423.5t92 332t165 250t249 169.5t341.5 99t445.5 31q251 0 445.5 -32.5t342.5 -102t250 -172.5t166 -251.5t92.5 -330t28.5 -416.5zM1405 895q0 -82 -11 -98.5t-71 -16.5v-75h371v75q-57 0 -66.5 16t-9.5 99v115q18 0 55 1t56 1q75 0 110 -2v-115q0 -83 -10 -99t-68 -16

<glyph glyph-name=".notdef" horiz-adv-x="2727" 
d="M1886 246q0 -113 -14.5 -174t-40.5 -81t-72 -20q-69 0 -98 56t-29 219q0 114 14.5 175.5t40.5 82t72 20.5t72 -20.5t40.5 -82t14.5 -175.5zM2122 246q0 179 -87 269.5t-276 90.5q-190 0 -276 -88.5t-86 -271.5q0 -184 85.5 -272.5t276.5 -88.5q190 0 276.5 90t86.5 271z
M1047 1047q0 -113 -14.5 -174t-40 -81t-70.5 -20t-70.5 21t-40 82t-14.5 172q0 114 14.5 175.5t40 82t70.5 20.5t70.5 -20.5t40 -82t14.5 -175.5zM1276 1047q0 179 -84.5 269.5t-269.5 90.5q-186 0 -270.5 -88.5t-84.5 -271.5q0 -184 84.5 -272.5t270.5 -88.5
q185 0 269.5 90t84.5 271zM2464 647q0 -200 -22 -351t-73.5 -274.5t-134 -207t-206 -140.5t-287 -82.5t-379.5 -25.5q-217 0 -379.5 24t-286.5 79t-206 137t-133.5 206t-73 277t-21.5 358q0 206 21.5 359t73 277.5t133.5 206.5t206 137.5t286.5 79.5t379.5 24
q216 0 379.5 -25.5t287 -83t206 -141t134 -208t73.5 -275.5t22 -351zM2585 649q0 223 -24.5 390.5t-81.5 305.5t-148.5 230.5t-228.5 155.5t-318.5 91.5t-421.5 28.5q-206 0 -367 -20.5t-290 -62t-222 -110.5t-159 -161t-105.5 -220.5t-57.5 -280t-18 -347.5q0 -227 24 -397
t81 -307.5t148 -229t228 -153t317.5 -88.5t420.5 -27t421.5 28.5t318.5 92t228.5 156t148.5 230.5t81.5 305.5t24.5 389.5zM2687 649q0 -235 -28.5 -416.5t-92.5 -330t-166 -251t-250 -172.5t-342 -102t-446 -32t-445.5 31t-341.5 99t-249 169t-165 249.5t-92 332t-28 423.5
t28 423.5t92 332t165 250t249 169.5t341.5 99t445.5 31q251 0 445.5 -32.5t342.5 -102t250 -172.5t166 -251.5t92.5 -330t28.5 -416.5zM1405 895q0 -82 -11 -98.5t-71 -16.5v-75h371v75q-57 0 -66.5 16t-9.5 99v115q18 0 55 1t56 1q75 0 110 -2v-115q0 -83 -10 -99t-68 -16
v-75h373v75q-60 0 -71 16.5t-11 98.5v287q0 83 10.5 98.5t71.5 15.5v78h-373v-78q59 0 68.5 -15t9.5 -99v-111h-221v111q0 84 9.5 99t66.5 15v78h-371v-78q61 0 71.5 -15.5t10.5 -98.5v-287zM938 -86v76q-46 0 -79.5 32t-51.5 87t-26.5 119.5t-8.5 140.5q0 46 -4 73l14 4
q9 -17 26 -51l27.5 -55t25.5 -48t28 -46l215 -332h199q-21 111 -21 307q0 151 18.5 218t71.5 67v76h-309v-76q78 0 108.5 -86t30.5 -248q0 -8 1 -31t1 -35l-8 -4q-15 24 -52.5 89.5t-58.5 97.5q-54 79 -84.5 140.5t-38.5 90.5t-12 62h-352v-76q64 0 75 -16.5t11 -104.5v-68
q0 -176 -17 -251.5t-69 -75.5v-76h340z" />
    <glyph glyph-name=".null" horiz-adv-x="0" 
 />
    <glyph glyph-name="nonmarkingreturn" horiz-adv-x="682" 
 />
    <glyph glyph-name="space" unicode=" " horiz-adv-x="532" 
 />
    <glyph glyph-name="comma" unicode="," horiz-adv-x="552" 
d="M35 -311v129q173 0 254.5 60.5t81.5 152.5q0 12 -8 20t-21 8q-21 0 -60 -13t-77 -13q-81 0 -133 52.5t-52 150.5q0 111 65 182t187 71q126 0 193 -77t67 -232q0 -108 -29 -196.5t-87 -156t-155.5 -104t-225.5 -34.5z" />
    <glyph glyph-name="period" unicode="." horiz-adv-x="555" 
d="M279 489q118 0 187 -67.5t69 -183.5q0 -115 -69.5 -182.5t-186.5 -67.5q-118 0 -188.5 67t-70.5 183q0 117 70.5 184t188.5 67z" />
    <glyph glyph-name="zero" unicode="0" horiz-adv-x="1361" 
d="M1280 653q0 -336 -144 -510t-454 -174q-312 0 -456 171.5t-144 512.5q0 335 144 501.5t456 166.5t455 -165.5t143 -502.5zM850 655q0 141 -7.5 240.5t-20.5 158.5t-35.5 92t-46 43.5t-58.5 10.5q-36 0 -60 -10.5t-46.5 -43t-35.5 -92t-20.5 -158.5t-7.5 -241
q0 -175 10.5 -288t34 -172.5t52.5 -81t73 -21.5q43 0 71.5 22t51.5 81.5t34 172.5t11 287z" />
    <glyph glyph-name="one" unicode="1" horiz-adv-x="811" 
d="M770 0h-719v123q101 0 136.5 21t35.5 87v635q0 66 -30 96.5t-111 30.5h-41v121q111 3 193.5 16t146 38.5t96 67.5t33.5 101h123v-1106q0 -68 30 -88t107 -20v-123z" />
    <glyph glyph-name="two" unicode="2" horiz-adv-x="1208" 
d="M311 315q65 0 106.5 -41.5t41.5 -115.5q0 -81 -56 -129.5t-149 -48.5q-108 0 -167.5 61t-59.5 166q0 93 39 165t101.5 117.5t138 83.5t151 72.5t138 73.5t101.5 98.5t39 136.5q0 115 -66.5 166t-205.5 51q-204 0 -287 -118l33 -19q53 51 125 51t116 -46t44 -126
q2 -76 -54 -131t-170 -55q-110 0 -170.5 64.5t-60.5 171.5q0 60 18 111t59.5 95.5t104.5 75.5t157 48.5t214 17.5q273 0 410 -82.5t137 -270.5q0 -91 -25 -158.5t-67 -107.5t-103 -67.5t-127 -40t-145.5 -23.5t-151.5 -18t-152 -24.5t-141 -43.5l9 -37q97 33 157 33
q92 0 178 -21t161.5 -42t141.5 -21q73 0 104.5 36t29.5 118h122q13 -76 13 -123q0 -229 -53.5 -333.5t-174.5 -104.5q-61 0 -110 23t-82 59t-61 80t-55.5 88.5t-58 80.5t-76 59t-101.5 23q-170 0 -215 -119l28 -12q53 53 127 53z" />
    <glyph glyph-name="three" unicode="3" horiz-adv-x="1222" 
d="M420 102q162 0 237.5 61t75.5 214q0 68 -18.5 110.5t-58 63t-82 27t-109.5 6.5q-83 0 -172 -13v140q102 -13 174 -13q77 0 122 8t77 32t43.5 66.5t11.5 113.5q0 150 -63.5 207t-192.5 57q-141 0 -229 -58l22 -39q42 23 88 23q68 0 110 -43t42 -117q2 -71 -51 -122.5
t-162 -51.5q-105 0 -163.5 60.5t-58.5 160.5q0 145 132 233.5t409 88.5q270 0 401.5 -83.5t131.5 -281.5q0 -81 -29 -136t-88 -86t-132.5 -44.5t-178.5 -15.5v-66q86 -1 150 -8.5t122.5 -25.5t95.5 -48t58.5 -77.5t21.5 -112.5q0 -181 -145.5 -271t-413.5 -90
q-288 0 -429.5 86t-141.5 228q0 100 58 160.5t163 60.5q109 0 162 -51.5t51 -122.5q0 -74 -42 -117t-110 -43q-46 0 -88 23l-22 -39q83 -54 221 -54z" />
    <glyph glyph-name="four" unicode="4" horiz-adv-x="1380" 
d="M1235 121v-121h-801v121q61 0 101.5 3.5t70.5 14.5t45.5 25t25 42.5t12 58.5t3.5 81h-672v123q166 76 236.5 267.5t50.5 553.5h410q0 -152 -41 -289.5t-108.5 -235t-153.5 -161t-176 -78.5v-57h454v311q147 30 217.5 151.5t91.5 358.5h103v-819q61 3 90.5 42t38.5 116
h104v-439h-104q-11 80 -41 117t-88 43q1 -58 2.5 -92t7.5 -62.5t13 -41t24 -21.5t34.5 -10.5t49.5 -1.5z" />
    <glyph glyph-name="five" unicode="5" horiz-adv-x="1208" 
d="M598 -29q-285 0 -428 81.5t-143 203.5q0 85 61 135.5t174 50.5q116 0 171.5 -43t53.5 -104q0 -62 -43.5 -97.5t-115.5 -35.5q-50 0 -95 18l-28 -37q73 -49 201 -49q171 0 249 54.5t78 195.5q0 123 -54.5 182.5t-182.5 59.5q-179 0 -291 -78h-125q4 127 -3.5 390
t-17.5 392h142q-12 -176 -19 -360h56q41 377 202 377q32 0 56 -12t43 -39.5t30.5 -52t28.5 -68.5q43 -116 102.5 -176t163.5 -60q55 0 91 11t65 42l-35 41q-52 -24 -111 -24q-72 0 -115.5 42t-43.5 122q0 85 54 131.5t140 46.5q114 0 174 -69.5t60 -186.5q0 -116 -74 -189
t-207 -73q-102 0 -262 22.5t-219 22.5q-176 0 -188 -254q64 52 176.5 87.5t275.5 35.5q264 0 386 -83t122 -276q0 -377 -555 -377z" />
    <glyph glyph-name="six" unicode="6" horiz-adv-x="1329" 
d="M512 395q0 -153 40 -227t126 -74q81 0 123.5 71.5t42.5 207.5q0 82 -43.5 116.5t-124.5 34.5q-164 0 -164 -129zM842 1194q-59 0 -109.5 -15t-97.5 -52.5t-80.5 -95t-53.5 -149t-20 -208.5v-146h35q78 189 346 189q215 0 308.5 -84.5t93.5 -263.5q0 -43 -7.5 -82
t-26.5 -79.5t-48.5 -75t-76 -64.5t-106 -51.5t-141.5 -33.5t-180 -12q-134 0 -236.5 31.5t-170 88.5t-110.5 143t-61 187.5t-18 229.5q0 660 653 660q228 0 357 -82.5t129 -218.5q0 -98 -54 -157.5t-168 -59.5q-104 0 -166.5 46.5t-62.5 135.5q0 73 41.5 116.5t126.5 43.5
q24 0 39 -5l14 35q-66 29 -149 29z" />
    <glyph glyph-name="seven" unicode="7" horiz-adv-x="1218" 
d="M801 203q0 -115 -60.5 -173.5t-165.5 -58.5q-119 0 -180 65.5t-61 166.5q0 138 88 243q-166 -4 -264 -14v135q3 0 54 -3.5t140.5 -8t179.5 -6.5q71 51 181 104t198 97t129 86l-20 26q-111 -63 -272 -63q-96 0 -238 20.5t-191 20.5q-29 0 -45 -1.5t-40.5 -9.5t-37.5 -23.5
t-22.5 -46.5t-7.5 -75h-105q3 111 -4.5 303t-15.5 303h141q0 -11 -2.5 -35.5t-7.5 -107.5t-10 -217h59q17 199 64 288t131 89q66 0 103.5 -47.5t78.5 -153.5q18 -48 37.5 -81t52.5 -64t84 -46.5t121 -15.5q74 0 122 27.5t83 83.5l-23 20q-40 -32 -72.5 -46.5t-72.5 -14.5
q-91 0 -142 41.5t-51 122.5q0 84 53.5 131t135.5 47q128 0 193 -76t65 -213q0 -70 -26 -130t-69.5 -106t-88.5 -82t-97 -78t-80 -75q112 3 226 20v-141q-46 2 -142 7t-137 7q-2 -8 -2 -26q0 -35 16.5 -110t16.5 -105z" />
    <glyph glyph-name="eight" unicode="8" horiz-adv-x="1339" 
d="M670 625q-111 0 -150 -53t-39 -205q0 -139 41 -198.5t148 -59.5q108 0 149 59.5t39 198.5q-2 153 -40 205.5t-148 52.5zM670 754q104 0 145 51.5t41 167.5q0 117 -40.5 167t-145.5 50t-146 -50t-41 -167q0 -116 41.5 -167.5t145.5 -51.5zM670 -20q-166 0 -284 25t-189 75
t-103.5 120t-32.5 165q0 138 92 212.5t285 86.5v55q-190 13 -267 77t-77 183q0 164 135 248t441 84q156 0 267.5 -22t178.5 -65.5t98 -103t31 -139.5q0 -122 -78.5 -188t-265.5 -76v-55q377 -20 377 -297q0 -95 -32 -165t-103 -120t-189 -75t-284 -25z" />
    <glyph glyph-name="nine" unicode="9" horiz-adv-x="1329" 
d="M834 913q0 275 -166 275q-82 0 -124 -69.5t-42 -194.5q0 -118 43 -165.5t125 -47.5q80 0 122 44.5t42 157.5zM504 88q57 0 107 15t97.5 52.5t81 95t54 149t20.5 208.5v99h-35q-78 -189 -346 -189q-212 0 -306.5 86.5t-94.5 253.5q0 76 15.5 139t56 123t105 101t169 65.5
t240.5 24.5q134 0 236.5 -31t170 -86.5t110.5 -139t61 -182t18 -221.5q0 -680 -654 -680q-226 0 -355.5 80t-129.5 205q0 89 53.5 143t167.5 54q104 0 166.5 -42t62.5 -122q0 -67 -41 -106.5t-126 -39.5q-13 0 -41 4l-13 -30q66 -29 150 -29z" />
    <glyph glyph-name="A" unicode="A" 
d="M0 123q54 17 125.5 138.5t129.5 272.5t99 298.5t41 216.5q0 67 -44.5 92.5t-153.5 25.5v123h757l283 -960q31 -106 66 -150t110 -57v-123h-760v123q97 0 144 55.5t20 155.5l-39 147q-28 1 -59.5 1t-70.5 -0.5t-60 -0.5q-115 0 -172 -2q-25 -137 -25 -194
q0 -67 27.5 -98.5t99.5 -63.5v-123h-518v123zM590 596h158l-150 553h-33q-119 -525 -125 -553h150z" />
    <glyph glyph-name="B" unicode="B" 
d="M825 0h-805v123q115 0 135.5 34.5t20.5 213.5v18v512q0 165 -8 201q-11 46 -50 57q-26 8 -98 8v123h789q152 0 250 -15t160.5 -53t88 -97t25.5 -152q0 -69 -16.5 -118t-44.5 -79t-76.5 -48t-102 -25t-130.5 -9v-67q83 -2 140 -9t109.5 -25.5t83 -49.5t48.5 -81.5
t18 -121.5q0 -196 -116.5 -268t-420.5 -72zM655 586h-69v-463h45q170 0 245.5 50t75.5 185q0 72 -17 117.5t-56.5 69.5t-90.5 32.5t-133 8.5zM641 1167h-55v-462h65q161 0 219 46t58 181q0 75 -13.5 120t-49.5 71t-87 35t-137 9z" />
    <glyph glyph-name="C" unicode="C" horiz-adv-x="1335" 
d="M1112 1290h125l-10 -538h-123q-140 434 -354 434q-49 0 -84 -11t-67.5 -44t-52 -91t-31 -153.5t-11.5 -229.5q0 -279 72 -404.5t225 -125.5q161 0 235.5 89t71.5 298h125q0 -102 -14 -181t-49.5 -149.5t-94.5 -116t-152 -72t-218 -26.5q-105 0 -192 17.5t-171 64
t-141 121t-92 196t-35 281.5q0 177 41.5 308t120 210t183.5 116.5t240 37.5q84 0 161.5 -22t132.5 -44t85 -22q26 0 46.5 14t27.5 43z" />
    <glyph glyph-name="D" unicode="D" horiz-adv-x="1472" 
d="M696 1167h-108v-1044h121q33 0 61 4.5t58 18t53.5 35t45 58.5t36 86.5t23.5 120.5t9 158q1 146 -8.5 242.5t-29 161.5t-56.5 99t-84.5 47t-120.5 13zM764 0h-744v123q115 0 135.5 34.5t20.5 213.5v18v512q0 165 -8 201q-11 46 -50 57q-26 8 -98 8v123h701
q185 0 316 -41.5t211 -125t116.5 -201.5t36.5 -279q0 -167 -34 -285.5t-109.5 -199.5t-197 -119.5t-296.5 -38.5z" />
    <glyph glyph-name="E" unicode="E" horiz-adv-x="1366" 
d="M1257 0h-1237v123q115 0 135.5 34.5t20.5 213.5v18v512q0 165 -8 201q-11 46 -50 57q-26 8 -98 8v123h1221v-479h-102q-38 136 -101.5 212t-170 110t-281.5 34v-450q111 9 185 78t77 170h102q-2 -53 -2 -303q0 -251 2 -304h-102q-3 109 -74 178t-188 76v-489
q97 0 177 12.5t150 42t119.5 76t81.5 117t41 161.5h102v-532z" />
    <glyph glyph-name="F" unicode="F" horiz-adv-x="1269" 
d="M793 0h-773v123q115 0 135.5 34.5t20.5 213.5v18v512q0 165 -8 201q-11 46 -50 57q-26 8 -98 8v123h1201v-540h-103q-44 156 -103 242.5t-160.5 129t-268.5 45.5v-551q120 9 199.5 79t82.5 171h103q-2 -53 -2 -303t2 -303h-103q-3 109 -79.5 177.5t-202.5 76.5v-125
q0 -68 1.5 -107.5t11 -73t20 -47.5t38 -24.5t55.5 -12t81 -1.5v-123z" />
    <glyph glyph-name="G" unicode="G" horiz-adv-x="1495" 
d="M659 1321q94 0 180.5 -22t147.5 -44t94 -22q26 0 46.5 14t27.5 43h125v-497h-123q-71 151 -208 272t-249 121q-39 0 -66.5 -11t-53.5 -43.5t-41.5 -90t-25 -153.5t-9.5 -231q0 -280 57 -405t178 -125q81 0 118 44.5t36 156.5v9v56.5t-3.5 41t-7.5 32.5t-16.5 20.5t-25 15
t-39.5 7t-53 4.5h-72v121h760v-121q-37 0 -56.5 -0.5t-37 -9t-23.5 -15.5t-11 -33.5t-5 -47.5v-72v-8v-328h-123q-13 55 -39.5 83t-61.5 28q-28 0 -62.5 -14.5t-73 -35.5t-85 -42t-116 -35.5t-148.5 -14.5q-71 0 -138 17t-138.5 64.5t-123.5 120.5t-86 196.5t-34 281.5
q0 177 41.5 308t120 210t183.5 116.5t240 37.5z" />
    <glyph glyph-name="H" unicode="H" horiz-adv-x="1601" 
d="M1014 369v221q-70 2 -211 2q-36 0 -108.5 -1t-108.5 -1v-221q0 -153 9 -187q11 -42 50 -52q25 -7 92 -7v-123h-717v123q115 0 135.5 33.5t20.5 203.5v9v553q0 151 -9 186q-12 41 -51 52q-26 7 -96 7v123h717v-123q-111 0 -131 -32.5t-20 -199.5v-13v-213q72 -2 215 -2
q141 0 213 2v213q0 152 -9 187q-12 41 -50 51q-25 7 -93 7v123h719v-123h-42.5t-33.5 -3.5t-26.5 -5t-19.5 -11t-14.5 -14.5t-9.5 -23.5t-6 -29t-2.5 -40t-1.5 -48.5v-61v-9v-553q0 -152 10 -187q11 -41 50 -52q27 -7 96 -7v-123h-719v123h41t33 3.5t26 5t19 11.5l14.5 14.5
t9 23.5t5.5 29.5t2.5 40t1.5 48.5v61v9z" />
    <glyph glyph-name="I" unicode="I" horiz-adv-x="761" 
d="M176 369v553v63.5t-1.5 50.5t-3 41.5t-6.5 30.5t-10 23.5t-15 15.5t-19.5 11t-26 5t-33 3.5t-41.5 0.5v123h721v-123h-42t-33 -3.5t-26.5 -5t-19.5 -11.5t-14.5 -15.5t-9 -24t-6 -30.5t-3 -41.5t-1.5 -50v-63.5v-553v-63.5t1.5 -50.5t3 -41.5t6 -30.5t9 -24.5t14.5 -15
t19.5 -11.5t26.5 -5.5t33 -3.5h42v-123h-721v123q32 0 50.5 0.5t37.5 6t28.5 10t18.5 20.5t12 29t6 44.5t3 58v77.5z" />
    <glyph glyph-name="J" unicode="J" horiz-adv-x="731" 
d="M176 922q0 151 -9 186q-12 41 -51 52q-26 7 -96 7v123h691v-123h-34t-26.5 -3.5t-21.5 -4.5t-16 -10t-11.5 -13.5t-7.5 -21.5t-5 -27t-2 -37t-1 -44v-56v-860q0 -183 -79.5 -279t-223.5 -96q-153 0 -241.5 68t-88.5 190q0 97 50.5 154t141.5 57q93 0 136 -50.5t43 -125.5
q0 -113 -66 -131q-17 -5 -24 -11t-7 -18q0 -26 39 -26q70 0 116 51.5t46 159.5q0 212 -252 221v668z" />
    <glyph glyph-name="K" unicode="K" horiz-adv-x="1476" 
d="M969 705q116 0 186 -74.5t70 -241.5v-49q0 -98 11 -136t48 -38q49 0 49 115q0 21 -2.5 66t-3.5 59h125q2 -37 2 -103q0 -190 -55 -256.5t-217 -66.5q-194 0 -268 69t-74 240v166q0 120 -127 120q-57 0 -127 -4v-202v-17q0 -165 14.5 -197t95.5 -32v-123h-676v123
q115 0 135.5 33.5t20.5 203.5v9v553q0 151 -9 186q-12 41 -51 52q-26 7 -96 7v123h676v-123q-81 0 -95.5 -32t-14.5 -196v-17v-199q78 57 125.5 94.5t99 86t76 92.5t24.5 85q0 39 -18.5 59.5t-69.5 26.5v123h584v-123q-92 -61 -666 -456l17 -35q138 29 211 29z" />
    <glyph glyph-name="L" unicode="L" horiz-adv-x="1095" 
d="M1053 0h-1033v123q115 0 135.5 35.5t20.5 221.5v9v512v9q0 186 -20.5 221.5t-135.5 35.5v123h773v-123q-53 0 -81 -1.5t-55.5 -12t-38 -24.5t-20 -47.5t-11 -73t-1.5 -107.5v-778q151 1 236.5 127.5t129.5 394.5h101v-645z" />
    <glyph glyph-name="M" unicode="M" horiz-adv-x="1923" 
d="M1167 633l-266 -635h-82l-297 618q-122 254 -194 457h-4v-295q0 -234 29 -374.5t83.5 -203t145.5 -77.5v-123h-562v123q41 27 69.5 64t55 107.5t39.5 191t13 292.5v131v4v66t-1.5 52t-3 43.5t-7 31.5t-10.5 25t-16.5 15.5t-22 11.5t-30 5t-38 4h-48.5v123h691
q7 -109 90 -317t194 -434q100 221 167 427t73 324h668v-121q-25 0 -41 -0.5t-33 -3.5t-26.5 -5.5t-20 -11.5t-15 -16t-9.5 -25.5t-6.5 -32.5t-3 -43.5t-1.5 -54v-67.5v-520q0 -71 1 -108t7.5 -72t14 -48t28 -24t42.5 -12.5t63 -1.5v-123h-738v123q96 0 134 65t38 201v678h-2
q-15 -45 -30 -87.5t-34 -91t-31 -78t-37.5 -91t-35.5 -86.5z" />
    <glyph glyph-name="N" unicode="N" horiz-adv-x="1431" 
d="M635 123v-123h-615v123q95 0 126.5 152.5t31.5 502.5v131q0 159 -9 196q-12 44 -51 55q-27 7 -98 7v123h615q5 -50 13 -87t32 -104.5t77.5 -161t135.5 -212.5q109 -162 219 -363l25 9q-7 79 -7 127q0 158 -12 273t-41 208t-83 140.5t-132 47.5v123h559v-123
q-97 0 -132.5 -136t-35.5 -437q0 -371 39 -594h-338l-426 639q-92 141 -209 389l-24 -6q6 -83 6 -143q0 -120 10 -225.5t34.5 -204.5t62 -170t95.5 -113.5t132 -42.5z" />
    <glyph glyph-name="O" unicode="O" horiz-adv-x="1472" 
d="M1401 643q0 -336 -159.5 -505t-506.5 -169q-348 0 -505.5 165t-157.5 509t157.5 510t505.5 166q347 0 506.5 -169.5t159.5 -506.5zM971 645q0 172 -13.5 281.5t-45 169t-72.5 81t-105 21.5q-63 0 -103.5 -21.5t-71.5 -81t-44.5 -169t-13.5 -281.5q0 -225 26.5 -347.5
t74.5 -164t132 -41.5q64 0 105 21.5t72.5 80.5t45 168.5t13.5 282.5z" />
    <glyph glyph-name="P" unicode="P" horiz-adv-x="1388" 
d="M696 1167h-108v-635h123q56 0 98.5 10.5t82.5 39t61.5 87t21.5 146.5q1 114 -11.5 181.5t-47.5 106.5t-84.5 51.5t-135.5 12.5zM801 123v-123h-781v123q32 0 50.5 0.5t37.5 6t28 10.5t18.5 22t12.5 31.5t6 48.5t3 62.5v84.5v512q0 72 -0.5 108t-7 72t-14 48.5t-28 23.5
t-42.5 12.5t-64 1.5v123h701q353 0 506 -107.5t153 -328.5q0 -116 -32.5 -197.5t-105 -137.5t-189.5 -82.5t-287 -26.5q-131 0 -178 2v-23q0 -54 0.5 -84t4.5 -63t8 -48t17 -32t25.5 -22t38.5 -10.5t51 -6t68 -0.5z" />
    <glyph glyph-name="Q" unicode="Q" horiz-adv-x="1462" 
d="M850 301q0 98 -24 134t-74 36q-53 0 -78 -35.5t-25 -126.5t19.5 -137.5t74.5 -46.5t81 47.5t26 128.5zM508 309h59q0 47 8 95.5t25.5 98t53 80.5t83.5 31q64 0 103.5 -38.5t58.5 -120.5h55q7 103 7 190q0 133 -6 220.5t-20 155.5t-40.5 104.5t-65.5 54.5t-96 18
t-95.5 -17.5t-65.5 -55t-42 -104.5t-21 -156t-5 -220q0 -197 4 -336zM1161 -233q-66 0 -107 42t-66 137.5t-38 260.5h-43q-26 -234 -311 -234q-106 0 -187 18t-139 56t-97 91t-61.5 131t-32 167t-9.5 207q0 173 35.5 296.5t114 210t205.5 128t308 41.5q177 0 306 -41.5
t205 -118.5t111.5 -177.5t35.5 -227.5q0 -71 -10.5 -124t-37.5 -101.5t-73 -82.5t-118.5 -61t-172.5 -43v-51q64 -35 176 -35q64 0 87.5 23.5t23.5 74.5h123q15 -323 -36 -455t-192 -132z" />
    <glyph glyph-name="R" unicode="R" horiz-adv-x="1490" 
d="M670 1167h-84v-465h84q140 0 205 57t65 195q0 59 -7 94t-21.5 60.5t-48 37.5t-77 16.5t-116.5 4.5zM1190 -20q-170 0 -246.5 59t-83.5 199q-1 24 -4 80t-4 94q-2 74 -21 109t-67.5 49.5t-147.5 13.5h-30v-195v-16q0 -181 22.5 -215.5t149.5 -34.5v-123h-738v123
q115 0 135.5 49.5t20.5 306.5v13v307q0 227 -9 280q-12 62 -51 78q-26 10 -96 10v123h848q269 0 374.5 -68.5t105.5 -248.5q0 -56 -10.5 -99t-28 -74t-47.5 -53.5t-63.5 -36t-81.5 -21.5t-95 -11t-111 -4v-56q185 -1 259.5 -53.5t74.5 -175.5v-49q0 -99 8.5 -136.5
t38.5 -37.5q28 0 38.5 33t10.5 96q0 77 -6 176h125q2 -34 2 -180q0 -181 -56.5 -246t-215.5 -65z" />
    <glyph glyph-name="S" unicode="S" horiz-adv-x="1323" 
d="M899 246q0 77 -60.5 119t-232.5 90q-200 55 -314 121t-161 148.5t-47 201.5q0 176 132 285.5t362 109.5q76 0 147.5 -16.5t115 -37t88 -37t72.5 -16.5q33 0 50.5 17t31.5 59h103v-477h-107q-176 373 -487 373q-83 0 -131.5 -39t-48.5 -107q0 -66 60 -109.5t214 -82.5
q155 -40 257.5 -82.5t173.5 -100t102.5 -132t31.5 -175.5q0 -99 -36.5 -175t-101 -122t-148 -69t-183.5 -23q-99 0 -192.5 22t-149.5 49t-106 49t-72 22q-31 0 -48 -25.5t-24 -85.5h-108v524h102q216 -415 533 -415q182 0 182 137z" />
    <glyph glyph-name="T" unicode="T" horiz-adv-x="1417" 
d="M498 1167q-49 0 -95 -30t-81.5 -80t-64.5 -113.5t-46.5 -130.5t-24.5 -131h-114v608h1274v-608h-115q-11 82 -37.5 165.5t-65 156t-91 118t-109.5 45.5h-10v-673v-9v-94t2 -74t4 -61.5t8.5 -45t13 -35.5t21 -22t28 -17t38 -7.5t48 -5.5h60.5v-123h-858v123h61t48.5 5.5
t38.5 7.5t28.5 17t21 22t13 35.5t8.5 45t4 61.5t2 74v94v9v673h-10z" />
    <glyph glyph-name="U" unicode="U" horiz-adv-x="1394" 
d="M1087 485q0 136 -13 238.5t-32 168t-56 119.5t-70 84.5t-89 71.5v123h547v-123q-86 -38 -123 -146.5t-37 -313.5v-232q0 -131 -22.5 -220t-78 -152.5t-150 -93t-236.5 -29.5q-308 0 -430.5 115.5t-120.5 383.5v422v9q0 188 -20.5 223.5t-135.5 35.5v121h650v-121
q-62 0 -73 -37t-11 -231v-377q0 -141 71 -217t189 -76q126 0 183.5 61t57.5 193z" />
    <glyph glyph-name="V" unicode="V" 
d="M975 0h-516l-289 961q-17 56 -29.5 86.5t-31.5 58.5t-44.5 41t-64.5 20v123h739v-123q-65 0 -100.5 -8t-53.5 -32.5t-15.5 -64t20.5 -106.5l203 -745h86q72 334 100.5 498.5t28.5 253.5q0 90 -32.5 137t-109.5 67v123h547v-127q-58 -18 -109 -80.5t-105.5 -192
t-110.5 -351.5t-113 -539z" />
    <glyph glyph-name="W" unicode="W" horiz-adv-x="2199" 
d="M1038 311q-19 -74 -55 -311h-559l-254 961q-29 107 -62 150t-108 56v123h1538v-123q-85 0 -116.5 -16t-34 -63t21.5 -132l193 -815h61q70 364 98.5 527t35 282t-10.5 150t-64 63v127h478v-127q-41 -12 -70.5 -39.5t-58.5 -79.5t-60.5 -152t-65.5 -233.5t-83 -347.5
q-21 -85 -56 -311h-563l-147 559q-38 -158 -58 -248zM590 956l192 -815h64q86 360 115.5 522.5t29.5 266.5q0 121 -49 183.5t-172 86.5q-47 -6 -80 -16t-60 -28t-37.5 -44.5t-14 -65t11.5 -90.5z" />
    <glyph glyph-name="X" unicode="X" horiz-adv-x="1318" 
d="M469 123v-123h-469v123q168 75 422 481q-262 414 -313 483t-83 79q-3 0 -6 1v123h682v-119q-22 -2 -41 -17t-31 -39.5t-5 -64t37 -85.5l139 -215q81 138 87.5 247.5t-71.5 169.5v123h481v-123q-25 -8 -48 -20t-47 -33t-42.5 -38t-43.5 -51t-40 -55t-43.5 -67t-42.5 -70
t-47 -80t-49 -83q145 -237 227.5 -353.5t117.5 -148t79 -45.5v-123h-731v123q75 10 93 62.5t-38 148.5l-125 198q-26 -46 -39.5 -71t-34 -67t-28.5 -68t-14.5 -60.5t-0.5 -57.5t22.5 -46t45.5 -39z" />
    <glyph glyph-name="Y" unicode="Y" horiz-adv-x="1372" 
d="M1120 0h-858v123h61t48 4.5t38 6t28 13t20.5 17t13 27.5t8.5 34t4 46.5t2 56v70.5v14l-288 549q-56 108 -81 139q-44 53 -116 65v125h711v-123q-85 0 -112.5 -56.5t13.5 -154.5l176 -405h21q62 137 92 243t30 178t-22 118.5t-65 76.5v123h528v-123q-49 -14 -95.5 -53.5
t-90 -99.5t-91.5 -153t-94 -199t-104 -252q0 -82 0.5 -115.5t8.5 -76.5t18.5 -53.5t39.5 -25t61.5 -15.5t94.5 -1v-123z" />
    <glyph glyph-name="Z" unicode="Z" horiz-adv-x="1468" 
d="M131 682v608h1208v-143q-15 -23 -63 -82t-148.5 -191.5t-228.5 -312.5l-307 -438h63q75 0 132.5 5t107 19t85.5 31.5t68 50.5t55 68.5t47 93t43 115t44 143.5h100v-649h-1253v139q2 3 86.5 100t172.5 210.5t206 279.5l311 438h-141q-76 0 -132 -11t-110 -41t-95.5 -84
t-79.5 -140t-71 -209h-100z" />
    <glyph glyph-name="a" unicode="a" horiz-adv-x="1372" 
d="M113 868q0 269 479 269q215 0 335.5 -44.5t172 -141.5t51.5 -269q0 -59 -5 -198t-5 -185q0 -66 9.5 -91.5t37.5 -25.5q21 0 34 24t19.5 94t1.5 187h105q13 -190 -11.5 -302t-84 -158.5t-162.5 -46.5q-129 0 -190 61t-66 192h-23q-49 -108 -148 -180.5t-247 -72.5
q-204 0 -289.5 76.5t-85.5 228.5q0 149 91 228.5t276 82.5q90 1 152 12.5t96 28t52 46.5t22.5 56.5t4.5 69.5v20q0 109 -62 157t-188 48q-81 0 -161 -30l10 -29q32 4 43 4q170 0 170 -133q0 -148 -209 -148q-105 0 -165 44t-60 126zM553 193q88 0 135 44t47 123v185
q-26 -11 -67 -21t-75.5 -16.5t-72.5 -20t-64.5 -30.5t-43.5 -49t-17 -76q0 -139 158 -139z" />
    <glyph glyph-name="b" unicode="b" horiz-adv-x="1378" 
d="M801 -18q-101 0 -180.5 18t-118 40t-76 40t-64.5 18q-38 0 -60.5 -27.5t-22.5 -70.5h-125v1169q0 73 -25.5 98t-108.5 25v121l555 31q0 -103 -7.5 -194t-17.5 -170t-13 -117h47q59 82 132.5 128t182.5 46q228 0 315 -129t82 -439q1 -158 -30.5 -271.5t-96.5 -182.5
t-155.5 -101t-212.5 -32zM565 338q0 -129 29.5 -179t122.5 -50q67 0 102.5 34.5t53.5 130t18 277.5q0 102 -9 167t-29.5 99.5t-47 47t-68.5 12.5q-70 0 -121 -62t-51 -166v-311z" />
    <glyph glyph-name="c" unicode="c" horiz-adv-x="1261" 
d="M512 580q0 -114 16.5 -190.5t52 -119.5t83.5 -60t118 -17q121 0 184 55t68 160h123q0 -82 -15 -147t-51 -121t-93 -93t-144.5 -57.5t-202.5 -20.5q-99 0 -182 18.5t-156 62.5t-123 111.5t-79 170.5t-29 235q0 152 43 265.5t120 181t176.5 100.5t221.5 33q260 0 381 -91
t121 -255q0 -107 -60.5 -171.5t-160.5 -64.5q-211 0 -211 185q0 91 46.5 144.5t121.5 53.5q20 0 47 -6l10 35q-71 35 -158 35q-47 0 -82 -8t-72 -35t-60.5 -73t-38.5 -126t-15 -190z" />
    <glyph glyph-name="d" unicode="d" horiz-adv-x="1357" 
d="M637 203q70 0 107.5 66t37.5 184v528q-44 14 -80 14q-33 0 -53.5 -1.5t-44 -7.5t-37 -17t-28 -31.5t-22 -50t-14 -72t-9 -98.5t-2.5 -129q0 -208 35 -296.5t110 -88.5zM881 0v231h-43q-21 -46 -53 -88t-75.5 -80t-101.5 -60.5t-121 -22.5q-216 0 -311.5 141t-95.5 428
q0 154 34 264.5t100.5 176.5t156.5 96t211 30q112 0 200 -20v84q0 68 -34.5 95.5t-137.5 27.5v120l582 21v-1198q0 -73 27.5 -98t117.5 -25v-123h-456z" />
    <glyph glyph-name="e" unicode="e" horiz-adv-x="1327" 
d="M678 1024q-57 0 -90.5 -29.5t-54 -117.5t-23.5 -248h344q-2 120 -14.5 199t-36.5 121t-53 58.5t-72 16.5zM1223 369q0 -95 -24.5 -165.5t-81.5 -124.5t-158 -82t-246 -28q-114 0 -202.5 14.5t-171.5 54.5t-137.5 105.5t-87 172.5t-32.5 251q0 580 598 580
q123 0 217.5 -25.5t156 -69.5t100.5 -109t55 -138.5t16 -163.5q0 -41 -4 -135h-709q10 -183 83.5 -256.5t240.5 -73.5q261 0 264 193h123z" />
    <glyph glyph-name="f" unicode="f" horiz-adv-x="794" 
d="M301 1212q0 -130 77 -198t208 -68h137v-121h-137v-581q0 -68 38 -95.5t150 -27.5v-121h-754v121q94 0 125 27.5t31 95.5v581h-123v121h170v41q-108 31 -163.5 85.5t-55.5 162.5q0 138 106 210.5t304 72.5q185 0 278.5 -73t93.5 -194q0 -97 -47.5 -146.5t-128.5 -49.5
q-96 0 -141 47t-45 121q0 72 46.5 112.5t109.5 40.5q35 0 55 -4l8 19q-58 34 -137 34q-90 0 -147.5 -53t-57.5 -160z" />
    <glyph glyph-name="g" unicode="g" horiz-adv-x="1320" 
d="M664 -184q152 0 232 14t101 34t21 56q0 35 -18 51.5t-62 16.5q-102 0 -330.5 -4t-277.5 -4q2 -34 9.5 -57.5t28.5 -45t57 -34t95.5 -20t143.5 -7.5zM817 780q0 148 -34 202t-126 54q-88 0 -119.5 -54t-31.5 -202q0 -118 33 -167.5t123 -49.5q88 0 121.5 49.5t33.5 167.5z
M1272 33q0 -65 -15.5 -112t-56 -87.5t-109 -65t-174.5 -38t-253 -13.5q-163 0 -273 12t-165 35.5t-76 50.5t-21 64q0 43 31.5 73t81.5 36v53q-94 16 -140.5 65t-46.5 156q0 102 76.5 168.5t202.5 65.5h31v51q-136 28 -193 89.5t-57 186.5q0 173 122.5 252.5t409.5 79.5
q62 0 174 -9t152 -9q33 0 33 26q0 17 -16 26.5t-52 20.5q-56 18 -85.5 47.5t-29.5 92.5q0 66 50.5 105.5t146.5 39.5q109 0 164 -53.5t55 -151.5q0 -104 -60 -160.5t-169 -56.5q-38 0 -115 10v-53q182 -17 247.5 -77.5t65.5 -200.5q0 -167 -126.5 -238.5t-430.5 -71.5
q-145 0 -224 -9t-106.5 -25.5t-27.5 -45.5q0 -63 100 -63q14 0 237 8t326 8q152 0 234 -78t82 -204z" />
    <glyph glyph-name="h" unicode="h" horiz-adv-x="1454" 
d="M674 121v-121h-654v121q81 0 107.5 27.5t26.5 95.5v925q0 73 -25.5 98t-108.5 25v121l555 31q0 -107 -11.5 -215.5t-28.5 -213.5t-21 -151h16q66 144 159.5 208.5t236.5 64.5q193 0 283.5 -104t90.5 -312v-477q0 -65 32 -94t102 -29v-121h-650v121q62 0 83.5 18.5
t21.5 63.5v479q0 102 -36.5 148.5t-117.5 46.5q-62 0 -116 -54t-54 -143v-477q0 -45 22.5 -63.5t86.5 -18.5z" />
    <glyph glyph-name="i" unicode="i" horiz-adv-x="718" 
d="M338 1516q129 0 193.5 -36t64.5 -116t-64 -115t-194 -35q-131 0 -195.5 35t-64.5 115q0 81 64.5 116.5t195.5 35.5zM698 0h-678v121q81 0 107.5 27.5t26.5 95.5v628q0 69 -25 95t-106 26v123h542v-872q0 -69 26 -96t107 -27v-121z" />
    <glyph glyph-name="j" unicode="j" horiz-adv-x="731" 
d="M385 1516q129 0 193.5 -36t64.5 -116t-64 -115t-194 -35q-131 0 -195.5 35t-64.5 115q0 81 64.5 116.5t195.5 35.5zM612 90q0 -178 -89.5 -276.5t-237.5 -98.5q-277 0 -277 232q0 81 44 129.5t124 48.5q148 0 148 -127q0 -56 -39.5 -89.5t-89.5 -33.5q-27 0 -54 6
l-10 -41q43 -10 98 -10q81 0 140 51.5t59 159.5q0 104 -55 156.5t-172 56.5v618q0 68 -32.5 95.5t-129.5 27.5v121h573v-1026z" />
    <glyph glyph-name="k" unicode="k" horiz-adv-x="1464" 
d="M575 1444v-764q261 131 261 231q0 37 -26.5 57t-98.5 29v119h626v-119q-237 -132 -700 -366l12 -39q129 26 186.5 34.5t120.5 8.5q244 0 244 -229v-62q0 -96 11 -132t44 -36q35 0 49 56.5t13 199.5h125q4 -119 -10 -202t-39.5 -131.5t-71 -75.5t-93 -35t-118.5 -8
q-176 0 -243.5 69t-67.5 240q0 19 3 64t3 71q0 90 -113 90q-25 0 -63.5 -1t-53.5 -1v-268q0 -67 27.5 -95t106.5 -28v-121h-689v121q81 0 107.5 27.5t26.5 95.5v925q0 73 -25.5 98t-108.5 25v121z" />
    <glyph glyph-name="l" unicode="l" horiz-adv-x="729" 
d="M575 1444v-1200q0 -67 27.5 -95t106.5 -28v-121h-689v121q81 0 107.5 27.5t26.5 95.5v925q0 73 -25.5 98t-108.5 25v121z" />
    <glyph glyph-name="m" unicode="m" horiz-adv-x="2189" 
d="M1300 676v-430q0 -66 22 -95.5t71 -29.5v-121h-609v121q62 0 83.5 27.5t21.5 95.5v432q0 104 -36 152.5t-114 48.5q-83 0 -128.5 -52t-45.5 -149v-432q0 -67 22.5 -95t86.5 -28v-121h-654v121q81 0 107.5 27.5t26.5 97.5v626q0 72 -26.5 97.5t-104.5 25.5v121h493
q0 -18 -2.5 -105t-3.5 -147h25q95 273 391 273q149 0 225 -69t90 -204h29q95 273 391 273q193 0 284 -104t91 -312v-475q0 -66 31.5 -95.5t101.5 -29.5v-121h-649v121q62 0 83 27.5t21 95.5v432q0 104 -35.5 152.5t-113.5 48.5q-84 0 -129.5 -51.5t-45.5 -149.5z" />
    <glyph glyph-name="n" unicode="n" horiz-adv-x="1454" 
d="M674 121v-121h-654v121q81 0 107.5 27.5t26.5 95.5v628q0 73 -25 98t-106 25v121h493q0 -18 -2.5 -105t-3.5 -147h20q66 144 159.5 208.5t236.5 64.5q193 0 283.5 -104t90.5 -312v-477q0 -65 32 -94t102 -29v-121h-650v121q62 0 83.5 18.5t21.5 63.5v479
q0 102 -36.5 148.5t-117.5 46.5q-62 0 -116 -54t-54 -143v-477q0 -45 22.5 -63.5t86.5 -18.5z" />
    <glyph glyph-name="o" unicode="o" horiz-adv-x="1359" 
d="M1278 567q0 -294 -144 -446t-454 -152q-312 0 -456 150t-142 448q1 198 62 324.5t193 191t343 64.5q313 0 455.5 -143.5t142.5 -436.5zM848 569q0 118 -7.5 201t-20.5 133t-35.5 77.5t-46 36.5t-58.5 9q-36 0 -60 -9t-46.5 -36t-35.5 -77t-20.5 -133t-7.5 -202
q0 -148 10.5 -244t34 -146t52.5 -68.5t73 -18.5q43 0 71.5 18.5t51.5 69t34 146.5t11 243z" />
    <glyph glyph-name="p" unicode="p" horiz-adv-x="1380" 
d="M889 569q0 179 -30.5 242t-119.5 63q-83 0 -129.5 -70t-46.5 -214v-397q61 -27 148 -27q71 0 108.5 35t53.5 120t16 248zM745 -141v-121h-725v121q81 0 107.5 27.5t26.5 95.5v888q0 74 -24.5 99.5t-104.5 25.5v121h483q-1 -26 -1 -56.5t0.5 -68t0.5 -57.5h41
q71 106 154.5 154.5t199.5 48.5q220 0 307.5 -130t87.5 -440q0 -305 -114.5 -437t-341.5 -130q-147 0 -279 70v-88q0 -68 36.5 -95.5t145.5 -27.5z" />
    <glyph glyph-name="q" unicode="q" horiz-adv-x="1386" 
d="M662 991q-49 0 -79 -17.5t-51.5 -67.5t-30.5 -138.5t-9 -230.5q0 -137 17.5 -211t48.5 -98.5t87 -24.5q21 0 38 4.5t37 20.5t33 43t22 77.5t9 118.5v311q0 115 -27 164t-95 49zM836 -41q21 136 24 272h-33q-50 -129 -139.5 -190t-204.5 -61q-228 0 -315 128.5t-82 438.5
q-1 158 30.5 272t96.5 183t156 101t213 32q93 0 166.5 -18.5t108.5 -40t70 -40t60 -18.5q38 0 61 27.5t23 70.5h125v-1190q0 -39 24.5 -53t104.5 -14v-121h-678v121q80 0 117.5 9t51 28.5t20.5 62.5z" />
    <glyph glyph-name="r" unicode="r" horiz-adv-x="1028" 
d="M770 123v-123h-750v123q80 0 107 28.5t27 92.5v628q0 68 -25.5 94.5t-103.5 26.5v123h491q-4 -136 -4 -225h41q91 246 252 246q86 0 140 -56.5t54 -187.5q0 -113 -45 -186.5t-133 -73.5q-37 0 -66 14.5t-46.5 35.5t-32 41.5t-30.5 35t-34 14.5q-26 0 -36.5 -26t-10.5 -93
v-403q0 -78 39 -103.5t166 -25.5z" />
    <glyph glyph-name="s" unicode="s" horiz-adv-x="1179" 
d="M756 201q0 66 -65 109.5t-242 92.5q-357 99 -357 367q0 176 112 276.5t320 100.5q84 0 150.5 -19.5t109.5 -39t70 -19.5t42 10.5t24 36.5h120v-381h-125q-65 137 -162.5 214t-220.5 77q-66 0 -100.5 -31t-34.5 -86q0 -58 57 -98.5t191 -73.5q227 -57 340 -158.5
t113 -259.5q0 -91 -32 -159t-90.5 -109.5t-135.5 -61.5t-172 -20q-94 0 -180.5 21t-143.5 42t-78 21q-54 0 -59 -53h-125v416h119q84 -161 195 -243.5t237 -82.5q123 0 123 111z" />
    <glyph glyph-name="t" unicode="t" horiz-adv-x="907" 
d="M569 1421v-305h283v-123h-283v-682q0 -85 14 -120t52 -35q25 0 41 20t26.5 81t10.5 167v63h125q2 -27 2 -79q0 -113 -14 -189.5t-49 -132t-96 -81t-153 -25.5q-97 0 -160.5 14t-113 53t-72 111t-22.5 184v651h-131v123q154 0 271 86t153 219h116z" />
    <glyph glyph-name="u" unicode="u" horiz-adv-x="1454" 
d="M938 0q0 18 2.5 105t3.5 147h-39q-56 -153 -145.5 -212.5t-231.5 -59.5q-193 0 -283.5 103.5t-90.5 311.5v477q0 80 -25 101.5t-109 21.5v121h558l-13 -299v-414q0 -84 36 -122.5t114 -38.5q84 0 129 55.5t45 159.5v342q0 39 -0.5 62.5t-4.5 47t-7.5 35.5t-15.5 23.5
t-23 15.5t-34.5 7.5t-45 4t-60.5 0.5v121h615l-13 -299v-573q0 -72 27 -97.5t107 -25.5v-121h-496z" />
    <glyph glyph-name="v" unicode="v" horiz-adv-x="1189" 
d="M860 0h-536l-203 817q-24 95 -46.5 131.5t-74.5 46.5v121h639v-121q-85 0 -101 -36.5t11 -145.5l151 -690h56q60 320 85 478t25 241q0 73 -19 105t-61 46v123h404v-123q-27 -9 -47.5 -26t-40.5 -44.5t-39.5 -81.5t-39 -119.5t-45.5 -177t-52.5 -234.5t-65.5 -310z" />
    <glyph glyph-name="w" unicode="w" horiz-adv-x="1947" 
d="M860 0h-536l-203 817q-24 95 -46.5 131.5t-74.5 46.5v121h1356v-121q-85 -27 -49 -182l151 -690h55q59 303 83 451.5t24 226.5q0 95 -34.5 135.5t-115.5 56.5v123h478v-123q-27 -9 -47.5 -26t-40.5 -44.5t-39.5 -81.5t-39 -119.5t-45.5 -177t-52.5 -234.5t-65.5 -310
h-508l-133 539q-35 -144 -117 -539zM549 813l151 -690h62q81 327 106.5 465t8.5 213l-13 55q-17 70 -57 111t-117 73q-101 -37 -132.5 -83.5t-8.5 -143.5z" />
    <glyph glyph-name="x" unicode="x" horiz-adv-x="1249" 
d="M424 123v-123h-424v123q89 40 188 143.5t185 255.5q-124 198 -194.5 298t-106.5 133t-70 40v123h660v-119q-43 -23 -44.5 -72.5t46.5 -125.5l104 -160q51 84 75.5 147.5t20 119t-48.5 87.5v123h432v-123q-95 -31 -177.5 -128t-195.5 -285q120 -192 191 -288.5
t105.5 -125.5t78.5 -43v-123h-669v123q25 21 34.5 41.5t-2 68t-55.5 119.5l-74 121q-46 -68 -71.5 -115t-38.5 -93t0 -80.5t51 -61.5z" />
    <glyph glyph-name="y" unicode="y" horiz-adv-x="1189" 
d="M416 -285q-176 0 -250 60.5t-74 171.5q0 89 59.5 141.5t167.5 52.5q205 0 205 -141q0 -87 -123 -119l7 -49q129 22 194.5 92t65.5 168q0 67 -31 93t-94 26h-217l-213 629q-34 100 -52.5 126t-60.5 29v121h594v-121q-22 -4 -35.5 -10.5t-24 -20.5t-9.5 -41t14 -67
l166 -532h57q37 160 53.5 276t16.5 186t-17.5 114t-41 62.5t-60.5 30.5v123h477v-123q-28 -12 -49.5 -28.5t-42 -42.5t-40.5 -73.5t-40 -105.5t-46 -154.5t-53 -204.5t-65 -271q-94 -398 -438 -398z" />
    <glyph glyph-name="z" unicode="z" horiz-adv-x="1339" 
d="M123 596v520h1077v-123q-12 -18 -54 -70.5t-127 -166t-194 -271.5l-250 -362h33q83 0 138.5 6.5t102 28t75.5 48.5t57.5 82.5t48.5 114t49 158.5h119v-561h-1116v121q13 16 59.5 70t83 98.5t106 137t146.5 204.5l256 366h-102q-84 0 -135.5 -13t-99.5 -55.5t-83.5 -121.5
t-70.5 -211h-119z" />
    <glyph glyph-name="uni00A0" unicode="&#xa0;" horiz-adv-x="532" 
 />
  </font>
</defs>
</svg>
