<svg xmlns="http://www.w3.org/2000/svg">
<defs>
<font id="OhnoFatfaceDemo-14PtSquished" horiz-adv-x="468" >
  <font-face 
    font-family="Ohno Fatface Demo 14 Pt Squished"
    font-weight="220"
    font-stretch="ultra-condensed"
    units-per-em="2048"
    panose-1="2 15 10 3 2 2 5 9 4 4"
    ascent="1518"
    descent="-530"
    x-height="1116"
    cap-height="1290"
    bbox="-35 -459 1022 1757"
    underline-thickness="102"
    underline-position="-204"
    unicode-range="U+0020-00A0"
  />
<missing-glyph horiz-adv-x="1058" 
d="M709 270q0 -128 -4.5 -195t-13 -89.5t-23.5 -22.5q-13 0 -21 23.5t-12.5 91t-5.5 192.5q0 126 5 196t12.5 93t21.5 23q15 0 23.5 -23.5t13 -91.5t4.5 -197zM793 270q0 182 -29.5 272.5t-95.5 90.5q-64 0 -92.5 -89t-28.5 -274q0 -184 28.5 -273t92.5 -89q66 0 95.5 90
t29.5 272zM418 1022q0 -127 -4.5 -194.5t-12.5 -90t-22 -22.5t-22 23.5t-12.5 91t-4.5 192.5q0 127 4.5 195.5t12.5 92t22 23.5t22 -23.5t12.5 -92t4.5 -195.5zM500 1022q0 181 -29 271.5t-92 90.5q-64 0 -92.5 -89t-28.5 -273t28.5 -272t92.5 -88q63 0 92 89.5t29 270.5z
M926 647q0 -183 -8 -320.5t-26.5 -250.5t-48.5 -189.5t-75 -128.5t-104.5 -75t-137.5 -23q-94 0 -160 33.5t-112.5 102.5t-73 188.5t-38 278t-11.5 384.5q0 227 11.5 385.5t38 278.5t73 189t112.5 102.5t160 33.5t161 -35.5t114 -107t74 -192t39 -277.5t12 -377zM975 649
q0 236 -13.5 403.5t-44 296t-82.5 204.5t-127.5 113.5t-181.5 37.5t-180.5 -35.5t-126.5 -109.5t-82.5 -202t-43.5 -297t-13 -411q0 -240 13 -409.5t43.5 -297.5t82.5 -203t126.5 -111t180.5 -36t181.5 38t127.5 114.5t82.5 205.5t44 296.5t13.5 402.5zM1022 649
q0 -241 -15.5 -417t-50.5 -311t-93 -216.5t-140.5 -122.5t-196.5 -41t-195.5 39t-139 119.5t-91.5 214.5t-49.5 311.5t-15.5 423.5t15.5 423.5t49.5 311.5t91.5 214.5t139 119.5t195.5 39t196.5 -41t140.5 -122.5t93 -216.5t50.5 -311t15.5 -417zM551 852q0 -90 -4 -107.5
t-25 -17.5v-63h127v63q-16 0 -19 13t-3 78v34v143q6 0 17.5 1t17.5 1q24 0 34 -2v-143q0 -91 -3 -108t-21 -17v-63h125v63q-20 0 -23.5 17.5t-3.5 107.5v332q0 92 3.5 109.5t23.5 17.5v65h-125v-65q18 0 21 -16.5t3 -110.5v-133q-12 -2 -34 -2q-23 0 -35 2v133q0 109 4 119

<glyph glyph-name=".notdef" horiz-adv-x="1058" 
d="M709 270q0 -128 -4.5 -195t-13 -89.5t-23.5 -22.5q-13 0 -21 23.5t-12.5 91t-5.5 192.5q0 126 5 196t12.5 93t21.5 23q15 0 23.5 -23.5t13 -91.5t4.5 -197zM793 270q0 182 -29.5 272.5t-95.5 90.5q-64 0 -92.5 -89t-28.5 -274q0 -184 28.5 -273t92.5 -89q66 0 95.5 90
t29.5 272zM418 1022q0 -127 -4.5 -194.5t-12.5 -90t-22 -22.5t-22 23.5t-12.5 91t-4.5 192.5q0 127 4.5 195.5t12.5 92t22 23.5t22 -23.5t12.5 -92t4.5 -195.5zM500 1022q0 181 -29 271.5t-92 90.5q-64 0 -92.5 -89t-28.5 -273t28.5 -272t92.5 -88q63 0 92 89.5t29 270.5z
M926 647q0 -183 -8 -320.5t-26.5 -250.5t-48.5 -189.5t-75 -128.5t-104.5 -75t-137.5 -23q-94 0 -160 33.5t-112.5 102.5t-73 188.5t-38 278t-11.5 384.5q0 227 11.5 385.5t38 278.5t73 189t112.5 102.5t160 33.5t161 -35.5t114 -107t74 -192t39 -277.5t12 -377zM975 649
q0 236 -13.5 403.5t-44 296t-82.5 204.5t-127.5 113.5t-181.5 37.5t-180.5 -35.5t-126.5 -109.5t-82.5 -202t-43.5 -297t-13 -411q0 -240 13 -409.5t43.5 -297.5t82.5 -203t126.5 -111t180.5 -36t181.5 38t127.5 114.5t82.5 205.5t44 296.5t13.5 402.5zM1022 649
q0 -241 -15.5 -417t-50.5 -311t-93 -216.5t-140.5 -122.5t-196.5 -41t-195.5 39t-139 119.5t-91.5 214.5t-49.5 311.5t-15.5 423.5t15.5 423.5t49.5 311.5t91.5 214.5t139 119.5t195.5 39t196.5 -41t140.5 -122.5t93 -216.5t50.5 -311t15.5 -417zM551 852q0 -90 -4 -107.5
t-25 -17.5v-63h127v63q-16 0 -19 13t-3 78v34v143q6 0 17.5 1t17.5 1q24 0 34 -2v-143q0 -91 -3 -108t-21 -17v-63h125v63q-20 0 -23.5 17.5t-3.5 107.5v332q0 92 3.5 109.5t23.5 17.5v65h-125v-65q18 0 21 -16.5t3 -110.5v-133q-12 -2 -34 -2q-23 0 -35 2v133q0 109 4 119
q3 8 18 8v65h-127v-65q21 0 25 -17.5t4 -109.5v-332zM379 -84v64q-33 3 -48.5 129.5t-15.5 304.5v63h11q28 -206 30 -217l74 -344h74q-6 117 -6 330q0 172 6.5 244t25.5 75v62h-112v-62q51 -13 51 -401v-58l-10 -2q-5 29 -14 102.5t-17 112.5q-47 199 -47 308h-117v-62
q17 0 20 -19t3 -118v-102q0 -343 -23 -346v-64h115z" />
    <glyph glyph-name=".null" horiz-adv-x="0" 
 />
    <glyph glyph-name="nonmarkingreturn" horiz-adv-x="682" 
 />
    <glyph glyph-name="space" unicode=" " horiz-adv-x="184" 
 />
    <glyph glyph-name="comma" unicode="," horiz-adv-x="210" 
d="M2 -180v67q63 1 102 38.5t39 76.5q0 14 -12 14q-7 0 -21.5 -5t-29.5 -5q-33 0 -53.5 24.5t-20.5 71.5q0 55 24.5 88t73.5 33q103 0 103 -145q0 -120 -51 -188.5t-154 -69.5z" />
    <glyph glyph-name="period" unicode="." horiz-adv-x="212" 
d="M104 223q47 0 75 -31.5t28 -85.5q0 -55 -27.5 -85.5t-75.5 -30.5q-46 0 -71 29.5t-25 86.5t25 87t71 30z" />
    <glyph glyph-name="zero" unicode="0" horiz-adv-x="448" 
d="M424 643q-1 -259 -21.5 -400.5t-63 -198t-118.5 -56.5q-75 0 -115.5 54t-60.5 196t-20 405t20 406t61 198.5t115 55.5q76 0 119 -57.5t63.5 -201t20.5 -401.5zM274 645q0 180 -3 291.5t-10 171.5t-16 80t-24 20q-18 0 -28 -39t-15.5 -164t-5.5 -360q0 -233 5.5 -357.5
t15.5 -164t28 -39.5q15 0 24 20t16 79.5t10 170.5t3 291z" />
    <glyph glyph-name="one" unicode="1" horiz-adv-x="268" 
d="M256 0h-244v84q32 0 44 20.5t12 83.5v785q0 80 -43 80h-13v84q121 14 121 161h78v-1110q0 -65 10 -84.5t35 -19.5v-84z" />
    <glyph glyph-name="two" unicode="2" horiz-adv-x="399" 
d="M98 164q26 0 43 -22t17 -60q0 -40 -20 -65t-52 -25q-38 0 -58 32.5t-20 88.5q0 70 23 150t55.5 157t64.5 159.5t55 185t23 206.5q0 119 -21.5 172t-70.5 53q-60 0 -90 -68l14 -14q17 14 41 14q36 0 58 -29t22 -83q0 -49 -23 -78t-61 -29q-86 0 -86 162q0 103 48 166
t133 63q99 0 142.5 -76.5t43.5 -256.5q0 -126 -27.5 -230.5t-70.5 -175.5t-87.5 -126t-87.5 -110.5t-61 -101.5l10 -6q30 27 72 27q27 0 73.5 -8.5t71.5 -8.5q27 0 41.5 21t22 89.5t2.5 194.5h35q6 -84 6 -307q0 -123 -18 -178t-60 -55q-29 0 -50 21t-34 51t-25.5 60.5
t-33 51.5t-49.5 21q-45 0 -72 -50l16 -8q16 25 45 25z" />
    <glyph glyph-name="three" unicode="3" horiz-adv-x="403" 
d="M143 92q50 0 71.5 61.5t21.5 206.5q0 102 -11.5 157t-27.5 69t-43 14q-24 0 -60 -4v90q40 -4 60 -4q32 0 47.5 17t23.5 73t8 170q0 139 -21 196.5t-71 57.5q-64 0 -94 -68l14 -14q17 14 41 14q35 0 56.5 -29t21.5 -83q0 -50 -22 -78.5t-60 -28.5q-86 0 -86 162
q0 103 48.5 166t134.5 63q93 0 137.5 -80t44.5 -264q0 -108 -19 -172.5t-49.5 -91t-81.5 -39.5v-24q52 -10 84 -34.5t52 -85.5t20 -163q0 -189 -45.5 -272.5t-142.5 -83.5q-86 0 -134.5 63t-48.5 166q0 162 90 162q35 0 56.5 -29t21.5 -78q0 -54 -21.5 -83t-56.5 -29
q-24 0 -41 14l-16 -14q33 -70 98 -70z" />
    <glyph glyph-name="four" unicode="4" horiz-adv-x="450" 
d="M209 217v127h-205v74q53 118 76 306.5t16 565.5h154q-3 -185 -20.5 -337.5t-45 -252t-57 -162.5t-61.5 -94v-22h143v215q49 46 72.5 202t31.5 451h41v-866q29 7 38.5 44.5t15.5 162.5h28v-453h-28q-3 66 -9.5 101t-16 48.5t-28.5 18.5v-145q0 -85 5.5 -101t37.5 -16v-84
h-280v84q20 0 34 2t24.5 4.5t16.5 12t9.5 16t5 25t2 31.5t0.5 42z" />
    <glyph glyph-name="five" unicode="5" horiz-adv-x="399" 
d="M195 -10q-86 0 -134.5 63t-48.5 166q0 162 90 162q35 0 56.5 -29t21.5 -78q0 -54 -21.5 -83t-56.5 -29q-24 0 -41 14l-16 -14q33 -70 90 -70t79 79.5t22 295.5q0 137 -19 202.5t-63 65.5q-31 0 -52.5 -31.5t-40.5 -101.5h-34q4 294 -9 688h70q-2 -90 -8 -233h18
q7 141 19.5 189t36.5 48q19 0 29 -24t20 -84q25 -133 82 -133q41 0 59 43l-16 10q-19 -16 -39 -16q-26 0 -42 25t-16 73q0 53 19.5 80.5t50.5 27.5q39 0 58.5 -35.5t19.5 -97.5q0 -69 -25.5 -109t-74.5 -40q-28 0 -69 6t-54 6q-30 0 -44.5 -18t-23.5 -85.5t-10 -205.5
q44 117 137 117q87 0 127.5 -83.5t40.5 -285.5q0 -249 -44.5 -362t-143.5 -113z" />
    <glyph glyph-name="six" unicode="6" horiz-adv-x="432" 
d="M174 360q0 -155 10 -207.5t37 -52.5q17 0 27.5 21t16 78.5t5.5 160.5q0 98 -6.5 153t-16.5 71t-26 16q-17 0 -26.5 -17t-15 -70.5t-5.5 -152.5zM276 1202q-44 0 -66 -33t-33 -140t-11 -324q0 -13 -1 -48t-1 -57h16q20 119 107 119q68 0 98.5 -83t30.5 -259
q0 -387 -195 -387q-78 0 -119.5 63t-60 211.5t-18.5 425.5q0 242 23.5 377t67.5 184t119 49q78 0 122 -61t44 -164q0 -162 -86 -162q-38 0 -61 29.5t-23 77.5q0 55 21.5 85t56.5 30q25 0 43 -15l15 13q-29 69 -89 69z" />
    <glyph glyph-name="seven" unicode="7" horiz-adv-x="401" 
d="M272 115q0 -127 -82 -127q-44 0 -66 36.5t-22 96.5q0 196 50 401q-37 0 -103 -4v92q66 -4 125 -4q24 86 55 168t62.5 154t38.5 90l-8 6q-35 -23 -66 -23q-20 0 -60 10.5t-55 10.5q-22 0 -32 -13.5t-15.5 -65.5t-5.5 -161h-70q2 135 -6 508h72q0 -6 -0.5 -28t-1.5 -67
t-2 -93h18q6 111 17 153.5t32 42.5q20 0 31 -27t23 -89q13 -60 32.5 -92.5t59.5 -32.5t67 53l-12 8q-20 -26 -47 -26q-63 0 -63 100q0 50 21 78t54 28q39 0 60.5 -37t23.5 -100q0 -69 -56.5 -258.5t-72.5 -294.5q30 0 76 4v-94q-14 1 -43 2t-43 2q-4 -54 -4 -78
q0 -57 9 -171.5t9 -157.5z" />
    <glyph glyph-name="eight" unicode="8" horiz-adv-x="436" 
d="M217 631q-17 0 -26.5 -10t-16 -40.5t-8.5 -79t-2 -132.5q0 -153 10.5 -210t42.5 -57q33 0 45 58t10 209q0 84 -2 132.5t-8.5 79t-16.5 40.5t-28 10zM217 748q32 0 43.5 50t11.5 175q0 127 -11.5 173t-43.5 46q-31 0 -42 -46.5t-11 -172.5q0 -125 11.5 -175t41.5 -50z
M217 -10q-106 0 -152.5 94.5t-46.5 284.5q0 152 32 226t97 83v22q-63 12 -90.5 79t-27.5 196q0 161 43.5 243t144.5 82t146 -82t45 -241q0 -131 -28.5 -200t-92.5 -79v-22q131 -18 131 -307q0 -191 -47 -285t-154 -94z" />
    <glyph glyph-name="nine" unicode="9" horiz-adv-x="432" 
d="M264 926q0 106 -5 164t-15 79t-27 21t-27.5 -24.5t-16 -92.5t-5.5 -190q0 -111 6.5 -173t16.5 -81t26 -19t25.5 23t15.5 94.5t6 198.5zM172 88q38 0 58 28t31 121.5t11 276.5q0 12 1 44t1 52h-14q-19 -116 -108 -116q-68 0 -98.5 89t-30.5 279q0 438 194 438
q78 0 120 -63t60.5 -212t18.5 -425q0 -242 -24 -377t-67 -184t-118 -49q-78 0 -120 62.5t-42 166.5q0 162 90 162q35 0 56.5 -29t21.5 -78q0 -54 -21.5 -83t-56.5 -29q-24 0 -41 14l-16 -14q30 -74 94 -74z" />
    <glyph glyph-name="A" unicode="A" horiz-adv-x="505" 
d="M-4 86q41 27 83 451t42 610q0 35 -13 47t-49 12v84h306q-1 -10 20 -240.5t46 -496.5t28 -303q9 -81 20.5 -116.5t30.5 -49.5v-84h-258v84q76 0 63 166l-18 213h-74h-55q-6 -147 -6 -223q0 -71 16 -106.5t51 -49.5v-84h-233v86zM223 541h68l-53 637h-21q-32 -385 -45 -637
h51z" />
    <glyph glyph-name="B" unicode="B" 
d="M260 0h-256v84q37 0 44 17t7 104v880q0 87 -7 104t-44 17v84h248q108 0 149 -68t41 -249q0 -95 -8.5 -155t-27.5 -90.5t-41.5 -42t-59.5 -13.5v-33q30 -1 50.5 -8t40 -25.5t31 -51.5t18 -87t6.5 -131q0 -193 -41.5 -264.5t-149.5 -71.5zM219 608h-20v-524h12
q35 0 55.5 21.5t31.5 81t11 167.5q0 106 -10.5 162.5t-28.5 74t-51 17.5zM213 1206h-14v-516h18q34 0 50.5 16t25 69t8.5 161q0 116 -9 173.5t-26.5 77t-52.5 19.5z" />
    <glyph glyph-name="C" unicode="C" horiz-adv-x="425" 
d="M315 1296h82q-1 -29 -1 -286.5t1 -288.5h-84q-33 297 -50 391t-40 94q-17 0 -26.5 -33.5t-15 -152.5t-5.5 -348q0 -148 4 -252.5t9.5 -164t16 -92.5t20 -42.5t24.5 -9.5q19 0 30.5 18t19 70.5t10.5 141.5t3 239h84q0 -118 -2 -193.5t-8 -148.5t-17 -114.5t-30.5 -74.5
t-46.5 -46t-66 -13q-79 0 -122 55t-63.5 197t-21.5 407q0 263 17 404.5t51 194t96 52.5q24 0 42 -11.5t26.5 -25t18 -25t18.5 -11.5q15 0 20.5 14.5t5.5 54.5z" />
    <glyph glyph-name="D" unicode="D" horiz-adv-x="485" 
d="M231 1206h-30v-1120h32q14 0 25.5 10t23.5 43t19.5 89t12.5 153.5t5 230.5q1 190 -3 304.5t-15 180t-27 87.5t-43 22zM252 0h-246l-2 84q37 0 44 17.5t7 105.5v876q0 88 -7 105.5t-44 17.5l2 84h232q86 0 133.5 -55.5t70.5 -195.5t23 -396t-21.5 -395t-66 -193.5
t-125.5 -54.5z" />
    <glyph glyph-name="E" unicode="E" horiz-adv-x="481" 
d="M453 0h-447v84q37 0 43 16.5t6 104.5v880q0 88 -6 104.5t-43 16.5v84h440q-2 -22 -2 -242.5t2 -248.5h-69q-3 108 -8.5 172.5t-16 113t-31 71t-47.5 34.5t-73 16v-506q38 12 51 59.5t18 176.5h58q-2 -94 -2 -274q0 -83 4 -271h-60q-5 137 -17 183t-52 55v-545
q45 6 72 20.5t48 41.5t32.5 81.5t18.5 126.5t13 191h68v-545z" />
    <glyph glyph-name="F" unicode="F" horiz-adv-x="454" 
d="M287 0h-283v84q38 0 44.5 19t6.5 118v848q0 98 -7 117.5t-44 19.5v84h434v-542h-65q-6 108 -11.5 173.5t-15 120.5t-19 81.5t-29.5 46.5t-41.5 26t-57.5 10v-604q26 13 39 33.5t22 76t12 160.5h52v-600h-52q-3 107 -10 157.5t-20.5 71.5t-42.5 27v-307q0 -52 2 -76.5
t12.5 -40t25.5 -18t48 -2.5v-84z" />
    <glyph glyph-name="G" unicode="G" horiz-adv-x="489" 
d="M197 1300q28 0 49.5 -12t31.5 -26.5t22 -26.5t22 -12q14 0 20.5 16t7.5 57h80v-563h-82q-17 183 -37 291.5t-39 145t-41 36.5q-20 0 -31 -35.5t-18.5 -161t-7.5 -356.5q0 -212 7.5 -334.5t22 -172.5t38.5 -50q26 0 36.5 52.5t10.5 195.5v16q0 139 -8.5 166t-57.5 27v84
h260v-84q-38 0 -44.5 -16.5t-6.5 -104.5v-432h-70q-3 48 -10 68t-22 20q-11 0 -25.5 -15.5t-27.5 -33.5t-35.5 -33.5t-48.5 -15.5q-39 0 -68 28.5t-53.5 98t-37.5 203t-14 329.5q0 260 20 403.5t56.5 195.5t100.5 52z" />
    <glyph glyph-name="H" unicode="H" horiz-adv-x="526" 
d="M326 182v432h-64h-63v-432q0 -70 6 -84t39 -14v-84h-240v84q38 0 44.5 14t6.5 84v926q0 70 -6.5 84t-44.5 14v84h240v-84q-33 0 -39 -14t-6 -84v-414h63h64v414q0 72 -5 85t-38 13v84h237v-84q-37 0 -43 -13t-6 -85v-926q0 -72 6 -85t43 -13v-84h-237v84q33 0 38 13t5 85
z" />
    <glyph glyph-name="I" unicode="I" horiz-adv-x="253" 
d="M55 207v876q0 88 -7 105.5t-44 17.5v84h244v-84q-36 0 -42.5 -17.5t-6.5 -105.5v-876q0 -88 6.5 -105.5t42.5 -17.5v-84h-244v84q37 0 44 17.5t7 105.5z" />
    <glyph glyph-name="J" unicode="J" horiz-adv-x="245" 
d="M55 1092q0 83 -6.5 98.5t-44.5 15.5v84h238v-84q-32 0 -37.5 -16t-5.5 -98v-1076q0 -72 -30 -111.5t-87 -39.5q-54 0 -85.5 30.5t-31.5 86.5q0 42 22 68t58 26q39 0 58.5 -23t19.5 -55q0 -35 -14.5 -52.5t-34.5 -19.5q-11 -4 -11 -12q0 -12 15 -12q27 0 48 26t21 70
q0 49 -24.5 78t-67.5 35v981z" />
    <glyph glyph-name="K" unicode="K" horiz-adv-x="485" 
d="M315 702q47 2 72 -36t25 -127v-375q0 -27 3.5 -37t14.5 -10q19 0 19 78q0 33 -1.5 111t-1.5 126h35v-199q0 -142 -20.5 -191.5t-79.5 -49.5t-83 40t-24 132v383q0 35 -11 50t-36 15q-20 0 -28 -2v-395q0 -94 5 -112.5t32 -18.5v-84h-232v84q38 0 44.5 18.5t6.5 112.5v862
q0 93 -6.5 111t-44.5 18v84h227v-86q-24 0 -28 -17t-4 -110v-360q41 102 69.5 222t28.5 189q0 65 -27 76v86h213v-86q-50 -83 -235 -504l6 -10q30 12 61 12z" />
    <glyph glyph-name="L" unicode="L" horiz-adv-x="419" 
d="M391 0h-387v84q38 0 44.5 19t6.5 118v862q0 88 -7 105.5t-44 17.5v84h266v-84q-50 0 -60.5 -18.5t-10.5 -104.5v-999q27 9 44.5 28.5t31 55.5t22 106t15 162.5t12.5 241.5h67v-678z" />
    <glyph glyph-name="M" unicode="M" horiz-adv-x="696" 
d="M434 614l-88 -618h-47l-102 606q-31 192 -62 510h-10v-334q0 -362 23 -515t73 -179v-84h-217v84q27 52 40 197t13 497v314q0 82 -7 98t-46 16v84h268q1 -133 26 -380.5t54 -428.5q81 517 84 809h256v-84q-37 0 -44 -16t-7 -98v-889q0 -83 8 -101t43 -18v-84h-266l2 84
q38 0 54 30t16 93v903h-9q-19 -236 -55 -496z" />
    <glyph glyph-name="N" unicode="N" horiz-adv-x="532" 
d="M283 84v-84h-277v84q29 26 40 88.5t11 194.5v710q0 93 -7 111t-46 18l2 84h234q8 -208 88 -555q46 -196 73 -401l21 2q-12 135 -12 291q0 312 -28 441t-93 138v84h239v-84q-51 -48 -51 -293q0 -692 12 -913h-149l-139 621q-40 174 -72 501l-20 -2q14 -224 14 -370
q0 -347 32.5 -496t127.5 -170z" />
    <glyph glyph-name="O" unicode="O" horiz-adv-x="481" 
d="M461 643q-1 -259 -23.5 -400.5t-68.5 -198t-129 -56.5t-128 54t-67.5 196.5t-21.5 404.5q1 264 23 406.5t67 198t127 55.5q83 0 129.5 -57.5t69 -201t22.5 -401.5zM309 645q0 238 -7.5 361t-21.5 162.5t-40 39.5q-25 0 -39 -39.5t-21.5 -163.5t-7.5 -360
q0 -234 7.5 -357.5t21.5 -163.5t39 -40q26 0 40 39t21.5 161.5t7.5 360.5z" />
    <glyph glyph-name="P" unicode="P" horiz-adv-x="466" 
d="M291 86v-86h-287v86q38 0 44.5 11t6.5 69v942q0 70 -7.5 84t-43.5 14v84h236q118 0 166.5 -100t48.5 -336q2 -238 -45 -342t-156 -104q-37 0 -53 2v-244q0 -58 12.5 -69t77.5 -11zM233 510q25 0 40.5 19.5t27.5 91.5t12 202q0 167 -8 247t-24.5 107t-51.5 27h-28v-694h32
z" />
    <glyph glyph-name="Q" unicode="Q" horiz-adv-x="481" 
d="M276 172q0 70 -30 70q-31 0 -31 -68q0 -38 6 -56t23 -18q32 0 32 72zM174 201h16q0 41 13 79.5t39 38.5q39 0 51 -86h12q4 180 4 412q0 338 -13 451.5t-54 113.5t-54.5 -114t-13.5 -451q0 -51 -0.5 -159.5t-0.5 -181.5t1 -103zM387 -49q-40 0 -56 40.5t-24 143.5h-12
q-2 -34 -11 -63t-34.5 -54.5t-63.5 -25.5q-94 0 -130 151.5t-36 499.5q0 179 9.5 296.5t34.5 202.5t68.5 123t109.5 38q52 0 90 -26t62.5 -72.5t39 -119.5t20 -157t5.5 -195q0 -496 -146 -540v-23q24 -16 66 -16q29 0 37 23.5t8 82.5h35q1 -179 -14 -244t-58 -65z" />
    <glyph glyph-name="R" unicode="R" horiz-adv-x="501" 
d="M215 1206h-16v-516h34q30 0 47.5 23.5t27 83t9.5 161.5q0 112 -8 162.5t-28.5 68t-65.5 17.5zM395 -8q-51 0 -74.5 32.5t-23.5 110.5v314q0 97 -15.5 128.5t-62.5 30.5h-20v-403q0 -87 8 -104t51 -17v-84h-254v84q37 0 44 17t7 104v864q0 99 -6.5 118t-44.5 19v84h279
q100 0 139 -67.5t39 -245.5q0 -80 -7.5 -135.5t-19.5 -87.5t-33.5 -49.5t-42.5 -22.5t-53 -6v-31q70 -1 98.5 -55t28.5 -184v-246q0 -41 14 -41q5 0 8 5.5t5 24.5t3 56t1 98q0 78 -4 129h37q2 -51 2 -133q0 -181 -21.5 -244t-81.5 -63z" />
    <glyph glyph-name="S" unicode="S" horiz-adv-x="425" 
d="M274 178q0 104 -28.5 193.5t-83.5 206.5q-46 98 -68 150t-45.5 145.5t-23.5 179.5q0 119 38 183t107 64q26 0 46 -12t30.5 -26.5t21.5 -26.5t21 -12q14 0 19.5 14t6.5 53h80v-526h-67q-37 257 -62.5 349.5t-60.5 92.5q-45 0 -45 -104q0 -79 25.5 -157.5t76.5 -188.5
q39 -85 55 -122.5t44 -114t39.5 -145t11.5 -141.5q0 -122 -38.5 -182.5t-99.5 -60.5q-31 0 -58.5 14t-44 31t-32 31t-24.5 14q-13 0 -18 -17.5t-5 -62.5h-67q1 31 1 285t-1 286h69q26 -252 58 -369.5t81 -117.5q41 0 41 94z" />
    <glyph glyph-name="T" unicode="T" horiz-adv-x="481" 
d="M387 84v-84h-291v84q54 0 64 17.5t10 105.5v999q-30 -8 -45.5 -43t-26 -144t-16.5 -329h-68v600h453v-600h-70q-5 219 -15.5 330t-25.5 145t-43 41v-999q0 -88 10 -105.5t64 -17.5z" />
    <glyph glyph-name="U" unicode="U" 
d="M348 242q0 371 -11 575.5t-29.5 279.5t-53.5 107v86h213v-86q-49 -62 -49 -338v-628q0 -130 -37.5 -190t-134.5 -60q-107 0 -151 57t-44 188v893q0 58 -6 69t-43 11v84h221v-84q-20 -1 -23 -12t-3 -68v-888q0 -62 17.5 -91.5t59.5 -29.5q41 0 57.5 30t16.5 95z" />
    <glyph glyph-name="V" unicode="V" horiz-adv-x="514" 
d="M375 0h-228q3 38 -92 967q-11 122 -23 172t-36 67v84h252v-84q-36 -6 -44.5 -55.5t3.5 -187.5l72 -824h18q55 724 55 881q0 101 -9 136.5t-50 49.5v84h227v-88q-77 -84 -145 -1202z" />
    <glyph glyph-name="W" unicode="W" horiz-adv-x="729" 
d="M340 311q-5 -54 -18 -311h-189q1 16 -40 493.5t-52 581.5q-6 67 -15.5 94.5t-29.5 36.5v84h510v-84q-28 -4 -35.5 -36.5t-1.5 -114.5l68 -944h10q27 434 33 667t-4 318t-37 106v88h194v-88q-29 -30 -51 -210t-59 -681q-7 -84 -19 -311h-198q0 6 -8.5 102.5t-20 234
t-17.5 216.5q-19 -232 -20 -242zM195 1071l71 -956h17q47 604 41 809q-3 251 -70 301q-72 -28 -59 -154z" />
    <glyph glyph-name="X" unicode="X" horiz-adv-x="428" 
d="M170 84v-84h-172v84q49 82 133 532q-73 382 -93.5 477t-35.5 113v84h215v-84q-22 -6 -24.5 -29.5t6.5 -68.5l61 -375q55 429 -8 473v84h172v-84q-7 -8 -14 -21.5t-14 -35.5t-13 -43t-13.5 -56t-13 -61.5t-14 -73t-14.5 -77.5t-16.5 -88.5t-16.5 -92.5q70 -356 93 -451.5
t42 -121.5v-84h-227v84q19 8 24 30t-2 72l-57 357q-31 -192 -30.5 -302t32.5 -157z" />
    <glyph glyph-name="Y" unicode="Y" horiz-adv-x="466" 
d="M387 0h-289v84q51 0 61.5 40.5t10.5 235.5l-111 623q-26 157 -39 188q-10 25 -24 33v86h240v-84q-56 -3 -27 -227l63 -449h17q23 274 26.5 420t-7 193.5t-36.5 62.5v84h201v-86q-37 -37 -70.5 -230.5t-87.5 -619.5q0 -191 10.5 -230.5t61.5 -39.5v-84z" />
    <glyph glyph-name="Z" unicode="Z" horiz-adv-x="473" 
d="M35 664v626h409v-102q-4 -19 -24 -89.5t-57 -214t-82 -337.5l-113 -463h45q70 0 97 114.5t61 469.5h69q-2 -35 -2 -334t2 -334h-426v102q50 136 162 609l117 495h-62q-55 0 -75 -91.5t-54 -450.5h-67z" />
    <glyph glyph-name="a" unicode="a" horiz-adv-x="446" 
d="M25 918q0 100 46.5 154t131.5 54q100 0 139 -50.5t39 -174.5q0 -51 -1 -364t-1 -385q0 -26 2.5 -34.5t11.5 -8.5q3 0 5.5 2t5 7.5t3.5 17t2.5 30.5t2 47t0.5 66.5t-0.5 90t-1.5 117.5h28q14 -204 5.5 -314t-28 -145.5t-61.5 -35.5q-85 0 -88 123h-18q-13 -56 -41.5 -89.5
t-71.5 -33.5q-68 0 -95.5 89.5t-27.5 278.5q0 179 33 257.5t107 99.5q59 18 72.5 42.5t13.5 92.5v74q0 106 -76 106q-36 0 -78 -20l6 -23q10 4 27 4q71 0 71 -98q0 -111 -79 -111q-84 0 -84 134zM197 113q41 0 41 94v520q-38 -48 -49 -73q-33 -75 -33 -277
q0 -157 7.5 -210.5t33.5 -53.5z" />
    <glyph glyph-name="b" unicode="b" horiz-adv-x="446" 
d="M254 -10q-25 0 -45 11.5t-30 25t-20.5 25t-19.5 11.5q-24 0 -24 -63h-70v1198q0 39 -8.5 53.5t-34.5 14.5v98q6 1 93.5 6t92.5 6q0 -81 -12 -375h12q28 125 107 125q74 0 101.5 -124.5t27.5 -432.5q0 -310 -41.5 -444.5t-128.5 -134.5zM186 293q0 -118 9 -166.5t36 -48.5
q15 0 23.5 17t15 68.5t9 144.5t2.5 247q0 147 -2 232t-8.5 133.5t-15 63.5t-24.5 15q-45 0 -45 -157v-549z" />
    <glyph glyph-name="c" unicode="c" horiz-adv-x="395" 
d="M172 586q0 -208 8 -313t22.5 -137t43.5 -32q35 0 47.5 79.5t17.5 316.5h68q0 -286 -32.5 -398t-133.5 -112q-73 0 -112.5 49t-58.5 172.5t-19 353.5q0 171 11.5 280.5t38 171.5t63 85.5t93.5 23.5q80 0 121 -61t41 -172q0 -164 -84 -164q-80 0 -80 117q0 52 18.5 86.5
t51.5 34.5q18 0 33 -9l8 5q-23 73 -70 73q-36 0 -54 -25t-30 -125.5t-12 -299.5z" />
    <glyph glyph-name="d" unicode="d" horiz-adv-x="448" 
d="M217 111q18 0 30.5 25.5t12.5 66.5v825q-20 10 -33 10q-26 0 -37.5 -23t-18.5 -127.5t-7 -328.5q0 -135 2.5 -220.5t9.5 -137t16.5 -71t24.5 -19.5zM287 0q2 8 2 115h-15q-11 -51 -44 -87t-76 -36q-50 0 -77.5 48t-40.5 169.5t-13 345.5q0 166 10.5 277t33 173.5
t52.5 87.5t74 25q40 0 67 -18v108q0 47 -13 60.5t-59 13.5v82q5 1 105 5.5t108 6.5v-1237q0 -32 9 -43.5t36 -11.5v-84h-159z" />
    <glyph glyph-name="e" unicode="e" horiz-adv-x="419" 
d="M219 1044q-18 0 -27.5 -26t-15.5 -122t-6 -284h100q-1 188 -7 283.5t-16 122t-28 26.5zM399 457q0 -94 -3.5 -159.5t-13.5 -128t-28 -99.5t-49 -59.5t-74 -22.5q-59 0 -96 23.5t-63.5 87.5t-37.5 176.5t-11 291.5q0 317 41 439t155 122q39 0 68 -15t48.5 -46t32.5 -70
t19.5 -97t9 -115.5t2.5 -135.5v-108h-229q2 -248 18.5 -334t65.5 -86q42 0 58 73.5t16 262.5h71z" />
    <glyph glyph-name="f" unicode="f" horiz-adv-x="274" 
d="M104 1276q0 -73 25 -116.5t66 -43.5h53v-84h-53v-870q0 -43 12 -60.5t47 -17.5v-84h-252v84q31 0 40 17t9 61v870h-45v84h94v12q-100 24 -100 158q0 158 147 158q127 0 127 -158q0 -115 -67 -115q-37 0 -54.5 29t-17.5 74q0 41 19.5 65.5t48.5 24.5q4 0 20 -4l4 20
q-21 9 -39 9q-84 0 -84 -113z" />
    <glyph glyph-name="g" unicode="g" horiz-adv-x="428" 
d="M260 680q0 117 -2 186t-7.5 110t-14 54.5t-23.5 13.5q-14 0 -21.5 -14t-13 -56t-7 -109.5t-1.5 -184.5q0 -200 9 -269t36 -69q26 0 35.5 70t9.5 268zM326 -70q0 74 -60 74q-23 0 -77.5 -3t-67.5 -3h-4q-5 -81 17 -119.5t89 -38.5q63 0 83 22.5t20 67.5zM416 -31
q0 -48 -8.5 -83t-30 -64.5t-62 -44.5t-100.5 -15q-58 0 -96.5 10.5t-57 30t-25.5 41.5t-7 52q0 44 20 77t43 43v21q-42 24 -60 51.5t-18 81.5q0 51 30 87t83 36h29v22q-73 21 -99 111.5t-26 288.5q0 230 40 316.5t140 86.5q20 0 54 -6t44 -6q15 0 15 14q0 15 -21 23
q-31 10 -46 26t-15 48q0 33 20.5 55t59.5 22q88 0 88 -112q0 -47 -22.5 -80t-59.5 -33q-11 0 -47 4v-24q68 -10 92 -99t24 -295q0 -218 -42 -309.5t-144 -91.5q-54 0 -75 -16t-21 -48q0 -59 45 -59q6 0 58 2t71 2q66 0 96.5 -41.5t30.5 -124.5z" />
    <glyph glyph-name="h" unicode="h" 
d="M221 82v-82h-219v82q27 0 35 14t8 51v1067q0 39 -8.5 53.5t-34.5 14.5v82q6 1 93.5 6t92.5 6q0 -62 -8 -185t-10 -173h12q17 57 46 81.5t75 24.5q64 0 92.5 -46.5t28.5 -143.5v-787q0 -36 9 -50.5t32 -14.5v-82h-215v82q19 0 25 14.5t6 50.5v787q0 40 -9 57t-32 17
q-24 0 -39 -20t-15 -58v-783q0 -36 7 -50.5t28 -14.5z" />
    <glyph glyph-name="i" unicode="i" horiz-adv-x="233" 
d="M109 1356q43 0 67.5 -26t24.5 -70t-24.5 -68.5t-67.5 -24.5q-42 0 -65.5 24t-23.5 69t23.5 70.5t65.5 25.5zM231 0h-229v84q25 0 34 12.5t9 42.5v822q0 41 -8.5 56t-36.5 15v84h186v-977q0 -31 8.5 -43t36.5 -12v-84z" />
    <glyph glyph-name="j" unicode="j" horiz-adv-x="237" 
d="M117 1356q43 0 67.5 -26t24.5 -70t-24.5 -68.5t-67.5 -24.5q-42 0 -65 24t-23 69q0 46 23.5 71t64.5 25zM201 -86q0 -73 -29.5 -112.5t-87.5 -39.5q-52 0 -84.5 30.5t-32.5 86.5q0 42 22 67t60 25q39 0 57.5 -22.5t18.5 -54.5q0 -35 -20 -52.5t-48 -17.5q-8 0 -14 2
l-2 -23q10 -2 27 -2q34 0 58 25t24 70q0 47 -24.5 76.5t-68.5 33.5v940q0 49 -9 67.5t-40 18.5v84h193v-1202z" />
    <glyph glyph-name="k" unicode="k" horiz-adv-x="475" 
d="M190 1374v-723q39 92 60.5 180.5t21.5 141.5q0 28 -8 41.5t-33 19.5v82h222v-82q-16 -15 -36 -44t-45 -75t-44.5 -84t-52.5 -105t-52 -103l6 -9q47 21 74 21q42 0 68 -33t26 -106v-346q0 -31 15 -31q7 0 10.5 11t6 46t3.5 101.5t0 177.5h35q6 -201 -4.5 -302.5t-33 -132
t-69.5 -30.5q-57 0 -79.5 33.5t-22.5 117.5q0 52 1 171.5t1 187.5q0 55 -37 55q-23 0 -33 -2v-406q0 -34 9 -48.5t34 -14.5v-84h-233v84q27 0 36 14.5t9 48.5v1061q0 42 -9 58t-36 16v82q7 1 95.5 5t94.5 5z" />
    <glyph glyph-name="l" unicode="l" horiz-adv-x="233" 
d="M190 1374v-1227q0 -34 9 -48.5t34 -14.5v-84h-233v84q27 0 36 14.5t9 48.5v1061q0 42 -9 58t-36 16v82q7 1 95.5 5t94.5 5z" />
    <glyph glyph-name="m" unicode="m" horiz-adv-x="706" 
d="M424 932v-791q0 -57 27 -57v-84h-201v84q19 0 25 12t6 43v793q0 41 -10 58.5t-33 17.5q-52 0 -52 -76v-793q0 -31 7 -43t28 -12v-84h-219v84q27 0 35 12t8 45v820q0 42 -8.5 56.5t-34.5 14.5v84h158q0 -37 -1 -72.5t-1 -52.5h20q23 133 125 133q47 0 72 -32t31 -101h12
q23 133 125 133q119 0 119 -180v-803q0 -31 8.5 -44t31.5 -13v-84h-215v84q19 0 25 12t6 43v793q0 41 -10 58.5t-33 17.5q-51 0 -51 -76z" />
    <glyph glyph-name="n" unicode="n" 
d="M221 84v-84h-219v84q27 0 35 13.5t8 49.5v820q0 40 -7.5 52.5t-33.5 12.5v84h156q0 -20 -1 -57t-1 -62h20q15 67 45.5 97t79.5 30q64 0 92.5 -47t28.5 -145v-785q0 -34 9 -48.5t32 -14.5v-84h-215v84q19 0 25 13.5t6 49.5v787q0 40 -9 57t-32 17q-24 0 -39 -20t-15 -58
v-783q0 -35 7 -49t28 -14z" />
    <glyph glyph-name="o" unicode="o" horiz-adv-x="438" 
d="M416 567q0 -223 -20.5 -349t-62 -178t-114.5 -52q-72 0 -113.5 50.5t-62.5 177.5t-20 351q1 225 21.5 347t61 168t113.5 46t114.5 -47t62 -169.5t20.5 -344.5zM268 569q0 202 -6 305.5t-15.5 131.5t-27.5 28t-27.5 -28t-15.5 -131t-6 -306t5.5 -311t15.5 -142t28 -34
t28 34t16 143t5 310z" />
    <glyph glyph-name="p" unicode="p" horiz-adv-x="446" 
d="M281 569q0 157 -1.5 241.5t-7 130.5t-12.5 56.5t-22 10.5q-17 0 -27.5 -25.5t-17.5 -117.5t-7 -261v-504q18 -18 43 -18q30 0 41 103t11 384zM260 -141v-84h-260v84q27 0 36 14.5t9 50.5v1043q0 39 -7.5 52t-33.5 13v84h162q0 -78 -2 -119h14q36 127 119 127
q50 0 75.5 -42.5t38.5 -162.5t13 -352q0 -225 -19 -353t-51 -172t-84 -44q-43 0 -84 45v-119q0 -36 15 -50.5t59 -14.5z" />
    <glyph glyph-name="q" unicode="q" horiz-adv-x="456" 
d="M215 1042q-15 0 -24 -17.5t-15.5 -71.5t-9 -151.5t-2.5 -258.5q0 -116 2.5 -195t6 -126t11 -71.5t15.5 -32t20 -7.5q39 0 39 79v756q0 52 -9.5 74t-33.5 22zM274 -37q1 10 4.5 67.5t4.5 88.5h-13q-13 -65 -45 -97t-73 -32q-72 0 -100.5 128.5t-26.5 432.5
q-1 306 40 439.5t128 133.5q30 0 54 -11t36 -23.5t26.5 -23.5t26.5 -11q31 0 31 61h34v-1179q0 -46 8 -62t35 -16v-84h-233v84q39 0 50 20t13 84z" />
    <glyph glyph-name="r" unicode="r" horiz-adv-x="337" 
d="M276 84v-84h-276v84q26 0 35.5 16t9.5 50v819q0 35 -8.5 49t-32.5 14v84h164v-153h10q25 161 92 161q27 0 44.5 -29.5t17.5 -95.5q0 -61 -15.5 -99t-46.5 -38q-19 0 -31.5 15t-20 30t-15.5 15q-17 0 -17 -58v-696q0 -50 17.5 -67t72.5 -17z" />
    <glyph glyph-name="s" unicode="s" horiz-adv-x="393" 
d="M242 160q0 88 -25.5 166t-73.5 172q-41 88 -59 130.5t-38.5 124t-20.5 156.5q0 105 33.5 160t95.5 55q29 0 49 -16t32.5 -31.5t22.5 -15.5q13 0 18 12.5t7 46.5h73v-448h-61q-34 224 -54.5 298t-54.5 74q-36 0 -36 -88q0 -67 23.5 -137t68.5 -164q41 -85 63 -136.5
t44 -139t22 -168.5q0 -111 -39 -165t-101 -54q-24 0 -46 12t-34.5 26t-25 26t-19.5 12q-12 0 -16 -15.5t-4 -54.5h-61q1 25 1 242t-1 243h61q45 -415 117 -415q39 0 39 92z" />
    <glyph glyph-name="t" unicode="t" horiz-adv-x="315" 
d="M188 1339v-223h119v-84h-119v-864q0 -57 21 -57q10 0 15.5 12.5t8.5 54.5t3 121q0 27 -5 217h72q0 -38 2 -111t2 -110q0 -172 -28 -239.5t-105 -67.5q-66 0 -96.5 41.5t-30.5 138.5v864h-41v84q23 0 38.5 4t30.5 17.5t24.5 37.5t15 65t6.5 99h67z" />
    <glyph glyph-name="u" unicode="u" 
d="M311 0q0 16 1 54.5t1 64.5h-20q-14 -70 -45.5 -99.5t-81.5 -29.5q-63 0 -92 51t-29 156v778q0 37 -8 47t-35 10v84h188q0 -1 -2 -101.5t-2 -115.5v-719q0 -39 10.5 -55t32.5 -16q52 0 52 104v741q0 55 -8 66.5t-46 11.5v84h201q0 -2 -2 -110t-2 -123v-746q0 -32 8 -42.5
t35 -10.5v-84h-156z" />
    <glyph glyph-name="v" unicode="v" horiz-adv-x="417" 
d="M309 0h-203q0 15 -34 432t-41 490q-10 94 -35 110v84h209v-84q-23 0 -28 -25t1 -85l62 -793h14q31 581 31 705q0 93 -10.5 131.5t-32.5 66.5v84h180v-86q-29 -33 -51.5 -241.5t-61.5 -788.5z" />
    <glyph glyph-name="w" unicode="w" horiz-adv-x="667" 
d="M281 0h-179q1 14 -27.5 376.5t-37.5 450.5q-16 157 -25 183q-6 16 -16 22v84h457v-84q-27 -27 -13 -209l52 -735h18q29 451 29 694q0 119 -13 177t-41 73v84h189v-84q-29 -33 -54 -256t-59 -776h-203q1 9 -41 524q-18 -204 -36 -524zM176 823l53 -731h17q41 483 43 597
q1 76 -4 122l-4 47q-17 140 -58 186q-31 -25 -42 -75.5t-5 -145.5z" />
    <glyph glyph-name="x" unicode="x" horiz-adv-x="423" 
d="M166 84v-84h-168v84q44 75 117 491q-61 316 -76.5 379.5t-40.5 77.5v84h215v-82q-20 -10 -6 -94l45 -324h12q29 207 23 297.5t-43 118.5v84h178v-84q-8 -10 -15 -26t-15 -44t-14 -52t-15.5 -70t-15 -76t-17.5 -92.5t-19 -98.5q29 -172 43.5 -252.5t27.5 -136.5t20 -71
t20 -29v-84h-225v84q17 6 20 28t-4 66l-43 322h-10q-33 -216 -30.5 -299.5t36.5 -116.5z" />
    <glyph glyph-name="y" unicode="y" horiz-adv-x="405" 
d="M141 -238q-71 0 -104 36t-33 93q0 49 23.5 78t68.5 29q80 0 80 -78q0 -30 -17 -51t-44 -27l2 -22q114 11 114 151q0 35 -12.5 48.5t-38.5 13.5h-80l-69 860q-7 84 -14 110t-21 29v84h203v-84q-19 -6 -23 -23.5t0 -80.5l53 -805h23q27 497 22 685.5t-41 223.5v84h177v-84
q-13 -16 -21 -51.5t-16.5 -125.5t-15.5 -184.5t-21.5 -297.5t-30.5 -396q-14 -215 -164 -215z" />
    <glyph glyph-name="z" unicode="z" horiz-adv-x="430" 
d="M37 565v551h354v-102q-3 -12 -19.5 -71.5t-45.5 -175.5t-66 -282l-90 -401h6q68 0 90.5 82.5t52.5 417.5h68v-584h-364v100q77 272 135 531l90 403h-17q-21 0 -35.5 -6.5t-27 -28.5t-20 -50.5t-16 -87t-14.5 -123.5t-14 -173h-67z" />
    <glyph glyph-name="uni00A0" unicode="&#xa0;" horiz-adv-x="184" 
 />
  </font>
</defs>
</svg>
