<svg xmlns="http://www.w3.org/2000/svg">
<defs>
<font id="OhnoFatfaceDemo-14PtCondensed" horiz-adv-x="880" >
  <font-face 
    font-family="Ohno Fatface Demo 14 Pt Condensed"
    font-weight="420"
    font-stretch="condensed"
    units-per-em="2048"
    panose-1="2 15 10 5 2 2 5 9 4 4"
    ascent="1518"
    descent="-530"
    x-height="1116"
    cap-height="1290"
    bbox="-43 -545 1864 1843"
    underline-thickness="102"
    underline-position="-204"
    unicode-range="U+0020-00A0"
  />
<missing-glyph horiz-adv-x="1900" 
d="M1307 260q0 -123 -9.5 -189.5t-26 -88t-46.5 -21.5q-29 0 -46 22.5t-26.5 89t-9.5 187.5q0 124 9.5 191.5t26 89.5t46.5 22t46.5 -22t26 -89.5t9.5 -191.5zM1479 260q0 181 -61 273t-193 92q-134 0 -194 -90t-60 -275q0 -186 60 -275t194 -89q132 0 193 91t61 273z
M729 1034q0 -123 -9 -189t-25.5 -88t-45.5 -22t-45.5 22.5t-25.5 88.5t-9 188q0 125 9 191.5t25.5 89t45.5 22.5t45.5 -22.5t25.5 -89t9 -191.5zM897 1034q0 181 -59.5 273t-188.5 92q-130 0 -189 -90t-59 -275q0 -186 59 -274t189 -88t189 90t59 272zM1716 647
q0 -191 -15 -335.5t-51 -263.5t-93.5 -199t-143.5 -134.5t-200 -79t-265 -24.5t-264 23t-199 76t-142.5 131.5t-92.5 197t-51 265t-15 343.5t15 344t51 266t92.5 198t142.5 132t199 76t264 23t265 -24.5t200 -79.5t143.5 -135.5t93 -199.5t51 -264t15.5 -336zM1794 649
q0 208 -17 365.5t-56 286.5t-102.5 215.5t-158.5 145.5t-220.5 85.5t-291.5 26.5t-290.5 -25t-219.5 -82t-157.5 -142t-102 -214t-56 -288.5t-16.5 -373.5q0 -212 16.5 -370.5t56 -287.5t102 -214.5t157.5 -143t219.5 -83t290.5 -25.5t291.5 26.5t220.5 85.5t158.5 146
t102.5 215.5t56 285.5t17 365zM1864 649q0 -260 -29 -450t-93.5 -335t-171.5 -233t-260 -132t-362 -44q-175 0 -308.5 28t-235.5 90t-171 154.5t-112.5 228.5t-62.5 304t-19 389t19 389t62.5 304t112.5 228.5t171 154.5t235.5 90t308.5 28q209 0 362 -44t260 -132
t171.5 -233t93.5 -335t29 -450zM983 872q0 -90 -8 -107t-51 -17v-64h262v64q-37 0 -43 16.5t-6 107.5v134q11 0 34.5 1t36.5 1q49 0 72 -2v-134q0 -91 -6 -107.5t-45 -16.5v-64h260v64q-41 0 -48 17t-7 107v304q0 99 7.5 118t47.5 19v65h-260v-65q39 0 45 -18.5t6 -118.5

<glyph glyph-name=".notdef" horiz-adv-x="1900" 
d="M1307 260q0 -123 -9.5 -189.5t-26 -88t-46.5 -21.5q-29 0 -46 22.5t-26.5 89t-9.5 187.5q0 124 9.5 191.5t26 89.5t46.5 22t46.5 -22t26 -89.5t9.5 -191.5zM1479 260q0 181 -61 273t-193 92q-134 0 -194 -90t-60 -275q0 -186 60 -275t194 -89q132 0 193 91t61 273z
M729 1034q0 -123 -9 -189t-25.5 -88t-45.5 -22t-45.5 22.5t-25.5 88.5t-9 188q0 125 9 191.5t25.5 89t45.5 22.5t45.5 -22.5t25.5 -89t9 -191.5zM897 1034q0 181 -59.5 273t-188.5 92q-130 0 -189 -90t-59 -275q0 -186 59 -274t189 -88t189 90t59 272zM1716 647
q0 -191 -15 -335.5t-51 -263.5t-93.5 -199t-143.5 -134.5t-200 -79t-265 -24.5t-264 23t-199 76t-142.5 131.5t-92.5 197t-51 265t-15 343.5t15 344t51 266t92.5 198t142.5 132t199 76t264 23t265 -24.5t200 -79.5t143.5 -135.5t93 -199.5t51 -264t15.5 -336zM1794 649
q0 208 -17 365.5t-56 286.5t-102.5 215.5t-158.5 145.5t-220.5 85.5t-291.5 26.5t-290.5 -25t-219.5 -82t-157.5 -142t-102 -214t-56 -288.5t-16.5 -373.5q0 -212 16.5 -370.5t56 -287.5t102 -214.5t157.5 -143t219.5 -83t290.5 -25.5t291.5 26.5t220.5 85.5t158.5 146
t102.5 215.5t56 285.5t17 365zM1864 649q0 -260 -29 -450t-93.5 -335t-171.5 -233t-260 -132t-362 -44q-175 0 -308.5 28t-235.5 90t-171 154.5t-112.5 228.5t-62.5 304t-19 389t19 389t62.5 304t112.5 228.5t171 154.5t235.5 90t308.5 28q209 0 362 -44t260 -132
t171.5 -233t93.5 -335t29 -450zM983 872q0 -90 -8 -107t-51 -17v-64h262v64q-37 0 -43 16.5t-6 107.5v134q11 0 34.5 1t36.5 1q49 0 72 -2v-134q0 -91 -6 -107.5t-45 -16.5v-64h260v64q-41 0 -48 17t-7 107v304q0 99 7.5 118t47.5 19v65h-260v-65q39 0 45 -18.5t6 -118.5
v-115h-143v115q0 100 6 118.5t43 18.5v65h-262v-65q43 0 51 -19t8 -118v-304zM655 -86v63q-65 6 -96 126.5t-31 291.5q0 42 -2 62l11 2q7 -20 23 -68t28 -82t24 -61l150 -334h143q-12 114 -12 319q0 165 13 237t50 73v65h-219v-65q57 -6 81 -102.5t24 -272.5v-57l-8 -2
q-10 25 -35 94.5t-41 105.5q-91 193 -99 299h-239v-65q40 0 46.5 -17.5t6.5 -117.5v-93q0 -178 -10.5 -256.5t-42.5 -81.5v-63h235z" />
    <glyph glyph-name=".null" horiz-adv-x="0" 
 />
    <glyph glyph-name="nonmarkingreturn" horiz-adv-x="682" 
 />
    <glyph glyph-name="space" unicode=" " horiz-adv-x="350" 
 />
    <glyph glyph-name="comma" unicode="," horiz-adv-x="399" 
d="M20 -244v90q67 1 119 17t82.5 42t46 55t15.5 60q0 9 -6.5 16t-16.5 7q-12 0 -44 -12.5t-62 -12.5q-63 0 -102.5 41t-39.5 119q0 87 47.5 142t137.5 55q190 0 190 -240q0 -173 -91.5 -276t-275.5 -103z" />
    <glyph glyph-name="period" unicode="." horiz-adv-x="401" 
d="M201 375q86 0 136 -52t50 -143q0 -89 -50 -140.5t-136 -51.5q-87 0 -138 51t-51 141q0 91 51 143t138 52z" />
    <glyph glyph-name="zero" unicode="0" horiz-adv-x="917" 
d="M868 649q0 -360 -94.5 -514.5t-314.5 -154.5q-221 0 -315.5 152t-94.5 517q-1 361 93.5 511.5t316.5 150.5q220 0 314.5 -152t94.5 -510zM561 651q0 182 -6 295t-20 171.5t-31 77.5t-45 19t-45.5 -19.5t-32 -77t-21 -171.5t-6.5 -295q0 -236 13 -364t34 -167.5t58 -39.5
t57.5 40t32.5 166.5t12 364.5z" />
    <glyph glyph-name="one" unicode="1" horiz-adv-x="536" 
d="M518 0h-493v94q64 0 87 21t23 86v729q0 55 -19 80.5t-69 25.5h-29v92q97 5 164 23.5t110 61.5t44 110h92v-1122q0 -66 20 -86.5t70 -20.5v-94z" />
    <glyph glyph-name="two" unicode="2" horiz-adv-x="821" 
d="M207 256q53 0 85 -34t32 -95q0 -65 -40.5 -103t-107.5 -38q-78 0 -120 47.5t-42 130.5q0 72 26 135t67.5 111.5t92 95t100.5 94t91.5 98.5t67.5 119t26 146q0 120 -46 173.5t-140 53.5q-133 0 -195 -96l23 -15q42 39 94 39q61 0 96 -41t35 -112q2 -65 -40 -109.5
t-122 -44.5q-82 0 -123.5 53t-41.5 150q0 134 92 213.5t284 79.5t285.5 -80.5t93.5 -263.5q0 -98 -24 -174.5t-66.5 -126t-95 -86t-116.5 -63t-122 -47.5t-121 -49.5t-106 -60.5l10 -20q67 31 135 31q74 0 174 -22.5t152 -22.5q60 0 83 47.5t17 179.5h72q8 -76 8 -217
q0 -182 -35.5 -264t-119.5 -82q-50 0 -88 24t-60 59.5t-46 77t-45.5 77t-59 59.5t-86.5 24q-105 0 -148 -78l23 -12q39 39 92 39z" />
    <glyph glyph-name="three" unicode="3" horiz-adv-x="831" 
d="M289 92q103 0 150.5 60.5t47.5 209.5q0 76 -12 124.5t-37 71.5t-52 30.5t-69 7.5q-69 0 -118 -8v106q70 -8 120 -8q65 0 97 16.5t48.5 70t16.5 161.5q0 145 -44 202.5t-136 57.5q-112 0 -170 -64l19 -26q37 22 77 22q59 2 93 -37t34 -108q0 -64 -39 -105.5t-118 -41.5
t-120.5 51.5t-41.5 144.5q0 127 93 203t282 76q186 0 277 -82t91 -271q0 -83 -21 -140t-63.5 -89t-95.5 -46.5t-129 -18.5v-46q78 -3 133 -16.5t100.5 -43.5t68 -84.5t22.5 -135.5q0 -356 -385 -356q-195 0 -292.5 75t-97.5 201q0 94 42 145.5t124 51.5q75 0 115.5 -43.5
t38.5 -106.5q0 -68 -33.5 -106.5t-93.5 -38.5q-42 0 -78 24l-18 -26q61 -64 174 -64z" />
    <glyph glyph-name="four" unicode="4" horiz-adv-x="917" 
d="M442 313v33h-430v90q110 96 156 291.5t31 562.5h313q-12 -180 -47.5 -326.5t-87 -244.5t-111 -159t-125.5 -85v-37h301v250q99 45 154 191t80 411h65v-850q42 9 61.5 50.5t28.5 140.5h60v-453h-60q-9 88 -29.5 125.5t-60.5 46.5v-16v-14q0 -164 11.5 -196t76.5 -32v-92
h-567v92q69 0 104.5 7t53 37.5t20 61t2.5 109.5v6z" />
    <glyph glyph-name="five" unicode="5" horiz-adv-x="823" 
d="M408 -20q-193 0 -291.5 73.5t-98.5 190.5q0 88 42.5 135t127.5 47q80 0 121 -39t41 -98q0 -63 -35 -99t-96 -36q-47 0 -86 24l-20 -26q61 -64 163 -64q112 0 161.5 68.5t49.5 246.5q0 134 -38.5 197.5t-126.5 63.5q-134 0 -197 -107h-72q3 122 -2.5 371t-11.5 362h102
q-2 -62 -7.5 -160t-8.5 -159h35q17 184 48.5 258t86.5 74q42 0 65 -35t46 -113q28 -94 68.5 -143t113.5 -49q79 0 117 49l-23 24q-38 -24 -86 -24q-53 0 -85 36t-32 103q0 74 39.5 114t102.5 40q77 0 119 -54t42 -143q0 -98 -52 -156.5t-148 -58.5q-75 0 -180.5 14.5
t-139.5 14.5q-43 0 -70.5 -21.5t-45 -83.5t-19.5 -170q93 120 313 123q177 0 262.5 -83t85.5 -281q0 -219 -96 -322.5t-284 -103.5z" />
    <glyph glyph-name="six" unicode="6" horiz-adv-x="894" 
d="M356 369q0 -155 23 -218t78 -63q52 0 76 63.5t24 215.5q0 113 -25.5 154.5t-74.5 41.5t-75 -41t-26 -153zM573 1204q-46 0 -80 -12.5t-64.5 -46.5t-49.5 -91t-30 -148t-11 -216q0 -17 -1 -63.5t-1 -77.5h20q43 170 234 170q141 0 203.5 -84.5t62.5 -257.5
q0 -64 -10.5 -118.5t-38.5 -107t-71.5 -89.5t-114.5 -59.5t-164 -22.5q-117 0 -196.5 40t-127 127t-68 212t-20.5 307q0 344 108 492.5t332 148.5q162 0 253 -73.5t91 -193.5q0 -194 -163 -194q-76 0 -122 39.5t-46 111.5q0 68 34.5 107t100.5 39q34 0 55 -8l17 24
q-54 45 -132 45z" />
    <glyph glyph-name="seven" unicode="7" horiz-adv-x="823" 
d="M555 164q0 -91 -45 -137.5t-121 -46.5q-89 0 -134.5 51.5t-45.5 132.5q0 170 88 319q-138 -4 -193 -10v107q7 0 42 -2.5t93 -5t117 -3.5q51 66 123 133.5t132.5 120t84.5 86.5l-14 17q-70 -45 -176 -45q-61 0 -156.5 15t-128.5 15q-20 0 -32.5 -2.5t-28.5 -13.5
t-24.5 -31.5t-14 -59t-4.5 -93.5h-80q6 223 -14 579h102q0 -10 -1.5 -37.5t-5.5 -99t-7 -170.5h34q10 122 28 193t43 99t63 28q45 0 69.5 -38.5t54.5 -127.5q13 -42 26 -70t35.5 -56.5t57.5 -42.5t82 -14q48 0 79 19.5t58 62.5l-16 15q-50 -47 -100 -47q-63 0 -99.5 36.5
t-36.5 108.5q0 74 40 115t102 41q86 0 130 -58t44 -160q0 -68 -29.5 -139.5t-66.5 -124t-82.5 -124t-67.5 -128.5q68 0 154 13v-111q-29 1 -89 4t-87 4q-5 -45 -5 -53q0 -46 11.5 -137.5t11.5 -126.5z" />
    <glyph glyph-name="eight" unicode="8" horiz-adv-x="899" 
d="M449 635q-67 0 -90 -53.5t-23 -214.5q0 -153 24 -213t89 -60q66 0 90 60t22 213q0 162 -22 215t-90 53zM449 748q65 0 88.5 51t23.5 178t-23.5 175t-88.5 48q-64 0 -87.5 -48t-25.5 -175q0 -126 24.5 -177.5t88.5 -51.5zM449 -16q-220 0 -316 95t-96 286q0 149 63.5 224
t194.5 83v37q-129 13 -183.5 79t-54.5 191q0 161 92 244.5t300 83.5q209 0 301 -83t92 -243q0 -128 -55.5 -196t-184.5 -78v-35q134 -10 197 -86.5t63 -220.5q0 -192 -95.5 -286.5t-317.5 -94.5z" />
    <glyph glyph-name="nine" unicode="9" horiz-adv-x="894" 
d="M547 928q0 148 -22.5 209t-75.5 61q-52 0 -76.5 -68t-24.5 -227q0 -139 24.5 -189t76.5 -50q32 0 52 19.5t33 79.5t13 165zM338 84q43 0 76 12t62.5 44t49 84.5t30.5 138t11 200.5q0 14 1 51.5t1 61.5h-24q-43 -166 -232 -166q-139 0 -203.5 88.5t-64.5 263.5
q0 445 404 445q116 0 194.5 -39.5t125.5 -126t67 -209.5t20 -303q0 -179 -27.5 -304t-83.5 -201t-136 -110t-191 -34q-162 0 -251 71.5t-89 190.5q0 184 166 184q74 0 119 -37.5t45 -103.5q0 -64 -34.5 -101t-99.5 -37q-26 0 -59 11l-16 -23q54 -51 139 -51z" />
    <glyph glyph-name="A" unicode="A" horiz-adv-x="966" 
d="M-10 94q50 23 114.5 232.5t107 439.5t42.5 336q0 53 -29.5 73.5t-103.5 20.5v94h551q-1 -15 81 -445.5t107 -547.5q24 -104 48 -147t69 -56v-94h-535v94q70 0 100 54t11 151l-31 174q-41 2 -127 2h-110q-13 -146 -13 -203q0 -80 23 -117.5t76 -60.5v-94h-381v94zM395 563
h113l-105 606h-24q-59 -381 -84 -606h100z" />
    <glyph glyph-name="B" unicode="B" horiz-adv-x="964" 
d="M557 0h-547v94q76 0 89.5 27t13.5 164v16v688q0 138 -8 166q-9 32 -42 38q-17 3 -53 3v94h535q210 0 289 -68t79 -249q0 -92 -17.5 -150.5t-56.5 -89t-85.5 -42t-120.5 -13.5v-43q79 -2 128.5 -13.5t91 -42.5t60.5 -90.5t19 -152.5q0 -193 -81 -264.5t-294 -71.5z
M451 602h-41v-508h26q108 0 155.5 54.5t47.5 205.5q0 78 -11 127.5t-36 76t-57.5 35.5t-83.5 9zM438 1196h-28v-504h36q71 0 106.5 18t53 70t17.5 156q0 83 -9 133.5t-32.5 79t-56 38t-87.5 9.5z" />
    <glyph glyph-name="C" unicode="C" horiz-adv-x="897" 
d="M743 1296h95q-2 -33 -5 -285.5t-2 -279.5h-94q-54 246 -108.5 360.5t-132.5 114.5q-36 0 -59 -19t-42.5 -74t-28 -162t-8.5 -275q0 -214 23 -335.5t63.5 -166.5t108.5 -45q67 0 106 36.5t59.5 129.5t20.5 258h97q0 -120 -9 -205.5t-32 -158.5t-63.5 -117t-103.5 -68
t-151 -24q-79 0 -141 17.5t-118.5 62.5t-93.5 119t-59 193t-22 277q0 186 25.5 315.5t77.5 205t122.5 108.5t169.5 33q59 0 110 -19.5t86.5 -39t57.5 -19.5q43 0 51 63z" />
    <glyph glyph-name="D" unicode="D" horiz-adv-x="1003" 
d="M477 1196h-65v-1102h71q29 0 52.5 10t48 42.5t40.5 87.5t26.5 151t11.5 227q1 247 -17 372t-55.5 168.5t-112.5 43.5zM520 0h-510v94q76 0 89.5 28.5t13.5 174.5v6v684q0 140 -9 169q-10 32 -46 38q-15 2 -48 2v94h482q255 0 362 -149t107 -498q0 -355 -99 -499
t-342 -144z" />
    <glyph glyph-name="E" unicode="E" horiz-adv-x="940" 
d="M870 0h-858v94q76 0 89.5 27t13.5 164v16v688q0 138 -8 166q-9 32 -42 38q-17 3 -53 3v94h846v-491h-78q-26 155 -68.5 237.5t-110.5 117.5t-187 42v-491q73 16 117 77t51 168h73q-2 -100 -2 -288q0 -187 2 -287h-73q-15 232 -168 248v-529q86 8 147.5 32t110.5 74.5
t79 135.5t44 209h77q-2 -39 -2 -545z" />
    <glyph glyph-name="F" unicode="F" horiz-adv-x="876" 
d="M565 0h-555v94q76 0 89.5 29t13.5 180v6v672q0 145 -9 175q-10 32 -45 37q-15 3 -49 3v94h834v-542h-76q-23 132 -50 213t-69.5 132.5t-97.5 73t-141 27.5v-586q172 34 188 264h70v-309q0 -29 -0.5 -89t-0.5 -112.5t1 -99.5h-70q-9 130 -56.5 191.5t-131.5 70.5v-215
q0 -47 1.5 -76t4 -55t11 -39t18 -24t28.5 -14.5t38.5 -5t53.5 -1.5v-94z" />
    <glyph glyph-name="G" unicode="G" horiz-adv-x="1009" 
d="M444 1311q68 0 126 -19.5t98 -39t65 -19.5q46 0 51 63h95q-1 -26 -1 -268t1 -270h-95q-53 212 -138 330t-165 118q-32 0 -53 -20t-38.5 -76.5t-25.5 -168t-8 -284.5q0 -302 34 -429.5t108 -127.5q53 0 75.5 52t22.5 192v8v51t-1 40.5t-2.5 33.5t-5.5 24t-8 19l-12.5 12.5
t-17 9.5t-23.5 4t-29.5 3h-37.5v92h526v-92q-26 0 -40 -0.5t-26 -8.5t-16.5 -14t-8 -30.5t-3.5 -44v-66.5v-10q0 -363 2 -375h-88q-17 106 -70 106q-23 0 -56.5 -19.5t-65 -43.5t-87.5 -43.5t-120 -19.5q-54 0 -102 16.5t-97 62.5t-84.5 118.5t-57.5 193.5t-22 278
q0 187 26 316.5t79 205t124.5 108t171.5 32.5z" />
    <glyph glyph-name="H" unicode="H" horiz-adv-x="1085" 
d="M674 283v325q-43 2 -131 2q-21 0 -65.5 -1t-67.5 -1v-325q0 -136 12.5 -162.5t81.5 -26.5v-94h-494v94h28t22 3t17.5 4t13 8.5t9.5 11t6 18t4 23t2 31.5t1 37.5v47.5v5v725v5v47.5t-1 37.5t-2 31.5t-4 22.5t-6 17.5t-9.5 11.5t-12.5 9t-17.5 3.5t-22.5 2.5h-28v94h494
v-94q-69 0 -81.5 -26t-12.5 -162v-308q43 -2 133 -2q88 0 131 2v308q0 129 -8 154q-9 28 -44 32q-13 2 -40 2v94h493v-94h-33.5t-25 -4.5t-18.5 -7t-12 -15t-8 -20.5t-3.5 -33t-1.5 -41.5v-56.5v-10v-725q0 -126 8 -152q10 -30 46 -35q15 -2 48 -2v-94h-493v94q68 0 80 25
t12 153v11z" />
    <glyph glyph-name="I" unicode="I" horiz-adv-x="524" 
d="M113 293v704v62.5t-2 46.5t-4 36t-8 24t-12.5 16.5t-18.5 8t-24.5 5t-33.5 0.5v94h502v-94q-21 0 -33.5 -0.5t-24.5 -5t-18 -8t-12 -16.5t-8 -23.5t-4 -36.5t-2 -46.5v-62.5v-704v-62.5t2 -46.5t4 -36.5t8 -23.5t12 -16.5t18 -8t24.5 -5t33.5 -0.5v-94h-502v94
q21 0 33.5 0.5t24.5 5t18.5 8t12.5 16.5t8 24t4 36t2 46.5v62.5z" />
    <glyph glyph-name="J" unicode="J" horiz-adv-x="505" 
d="M113 1001v5v60t-1.5 44.5t-3.5 35t-8 22t-12 16t-18.5 7.5t-25 5h-34.5v94h488v-94q-65 0 -76.5 -26t-11.5 -158v-957q0 -130 -57.5 -199t-166.5 -69q-108 0 -168.5 50.5t-60.5 142.5q0 71 37.5 113t103.5 42q68 0 100.5 -38.5t32.5 -94.5q0 -101 -67 -113
q-19 -3 -19 -18q0 -18 25 -18q50 0 86.5 40.5t36.5 120.5q0 163 -180 172v815z" />
    <glyph glyph-name="K" unicode="K" horiz-adv-x="1003" 
d="M668 713q180 0 180 -242v-223q0 -59 7.5 -83t31.5 -24q18 0 25.5 24.5t7.5 82.5q0 9 -5 184h74v-156q0 -174 -38.5 -232t-153.5 -58q-127 0 -177.5 55t-50.5 188v287q0 88 -86 88q-53 0 -73 -2v-305v-7q0 -141 10 -168.5t67 -27.5v-94h-477v94q76 0 89.5 28t13.5 170v5
v696v5q0 142 -13.5 170t-89.5 28v94h471v-94q-52 0 -61.5 -27.5t-9.5 -167.5v-8v-268q88 99 144.5 206t55.5 183q0 36 -11.5 55.5t-43.5 26.5v94h416v-94q-117 -104 -469 -489l12 -25q100 29 154 31z" />
    <glyph glyph-name="L" unicode="L" horiz-adv-x="778" 
d="M743 0h-733v94q76 0 89.5 29t13.5 180v6v678q0 140 -9 169q-10 32 -46 38q-15 2 -48 2v94h547v-94q-37 0 -57.5 -1.5t-39.5 -9.5t-27 -19.5t-14.5 -37.5t-7.5 -57t-1 -84v-893q108 23 165.5 151.5t92.5 432.5h75v-678z" />
    <glyph glyph-name="M" unicode="M" horiz-adv-x="1320" 
d="M791 614l-179 -618h-61l-201 606q-81 248 -133 473h-4v-297q0 -245 21 -391t61 -211t106 -82v-94h-391v94q37 34 59.5 94t38 206.5t15.5 383.5v217v9v50t-1 39t-2 32.5t-4.5 23.5t-6.5 19t-10.5 12t-14.5 9t-19 4t-24 3h-31v94h488q4 -115 58.5 -333.5t123.5 -424.5
q152 497 158 758h473v-92q-21 0 -33.5 -0.5t-24.5 -5t-18.5 -8.5t-12.5 -17t-8 -24t-4 -36.5t-2 -47.5v-64v-694q0 -41 0.5 -65t2 -49t4 -37.5t8.5 -25t12 -17t18.5 -8.5t24.5 -4.5t33 -0.5v-94h-535v94q75 0 105 51t30 158v768h-2q-44 -204 -118 -457z" />
    <glyph glyph-name="N" unicode="N" horiz-adv-x="995" 
d="M469 94v-94h-457v94q60 19 81.5 131t21.5 357v407v5q0 146 -14 174t-91 28v94h436q4 -61 14 -115t51.5 -169.5t115.5 -270.5q78 -171 155 -377l23 4q-10 110 -10 197q0 318 -48 472.5t-163 164.5v94h403v-94q-56 -17 -80 -130t-26 -321q0 -485 26 -745h-256l-286 621
q-63 143 -156 442l-16 -4q10 -127 10 -240q0 -160 13 -283t42.5 -222t82.5 -155t128 -65z" />
    <glyph glyph-name="O" unicode="O" horiz-adv-x="995" 
d="M952 643q0 -357 -105.5 -511.5t-350.5 -154.5q-164 0 -262 65.5t-144.5 210.5t-46.5 390t46.5 390.5t144.5 211.5t262 66q245 0 350.5 -155.5t105.5 -512.5zM639 645q0 237 -16 361.5t-44.5 165t-82.5 40.5q-52 0 -80.5 -40.5t-45 -166.5t-16.5 -360q1 -234 17.5 -359
t44.5 -166.5t80 -41.5q54 0 82.5 40.5t44.5 165t16 361.5z" />
    <glyph glyph-name="P" unicode="P" horiz-adv-x="948" 
d="M569 94v-94h-559v94q21 0 33.5 0.5t25 4.5t18.5 7.5t12 15.5t8 22.5t4 34.5t2 44.5v59.5v716v62.5t-2 46.5t-4 35.5t-8 23t-12 16.5t-18.5 8t-25 4.5t-33.5 0.5v94h488q238 0 338 -103t100 -333q2 -236 -92.5 -341t-313.5 -105q-85 0 -118 2v-127q0 -51 1 -76.5t7 -51
t14 -34.5t28.5 -17t42.5 -9t64 -1zM481 512q30 0 52 6t44.5 25.5t36.5 52.5t23 90.5t8 136.5q1 162 -15 240.5t-50 104.5t-105 26h-63v-682h69z" />
    <glyph glyph-name="Q" unicode="Q" horiz-adv-x="991" 
d="M569 229q0 67 -15.5 92t-47.5 25q-33 0 -49.5 -25t-16.5 -88t13 -96t49 -33q67 0 67 125zM358 252h35q0 31 5 63t16.5 64.5t33.5 53t52 20.5q78 0 98 -123h31q6 132 6 315q0 140 -3.5 231.5t-12 161t-25 106t-40 53.5t-58.5 17q-58 0 -87.5 -51t-41 -169t-11.5 -349
q0 -293 2 -393zM786 -145q-75 0 -109 69t-46 246h-27q-3 -36 -14 -67t-33 -59.5t-62.5 -45t-95.5 -16.5q-84 0 -145 26.5t-102 76.5t-65.5 132t-35 184t-10.5 242q0 349 103 508.5t352 159.5q100 0 177.5 -27t129 -75.5t84.5 -121t47 -159.5t14 -195q0 -205 -68.5 -326
t-236.5 -149v-31q50 -26 137 -26q58 0 76 25t18 83h72q8 -256 -27 -355t-133 -99z" />
    <glyph glyph-name="R" unicode="R" horiz-adv-x="1019" 
d="M453 1196h-43v-506h51q91 0 132.5 58.5t41.5 207.5q0 55 -2.5 91.5t-11 64.5t-20 43.5t-34 25t-48 12.5t-66.5 3zM809 -14q-114 0 -166 47.5t-55 159.5q0 63 -4 247q0 98 -30.5 129t-123.5 31h-20v-299q0 -135 8 -163q10 -33 47 -40q20 -4 65 -4v-94h-520v94
q76 0 89.5 34t13.5 211v7v590q0 175 -9 211q-10 37 -41 45q-16 4 -53 4v94h586q187 0 260.5 -68t73.5 -247q0 -66 -9 -114.5t-29.5 -81.5t-45 -54t-64 -32t-78 -15.5t-94.5 -5.5v-39q145 -1 202.5 -56t57.5 -184v-139q0 -63 6 -88t25 -25t26 34t7 130q0 44 -4 154h71
q3 -86 3 -152q0 -190 -39.5 -255.5t-155.5 -65.5z" />
    <glyph glyph-name="S" unicode="S" 
d="M588 229q0 83 -49 144.5t-160 130.5q-171 105 -249.5 209t-78.5 250q0 162 88 255t250 93q49 0 95 -14.5t73.5 -31.5t56.5 -31.5t48 -14.5q23 0 35.5 15.5t19.5 55.5h82v-510h-78q-64 220 -136.5 324t-166.5 104q-57 0 -90 -38t-33 -107q0 -70 43.5 -129t144.5 -119
q90 -52 152 -99.5t111 -105.5t72.5 -126t23.5 -150q0 -179 -90.5 -266.5t-237.5 -87.5q-63 0 -122.5 17.5t-95 38.5t-68 38.5t-48.5 17.5q-23 0 -34.5 -20.5t-14.5 -71.5h-82q1 29 1 276.5t-1 278.5h80q66 -221 154 -345t186 -124q119 0 119 143z" />
    <glyph glyph-name="T" unicode="T" horiz-adv-x="960" 
d="M332 1196q-85 -15 -139.5 -149.5t-71.5 -376.5h-82v620h883q-2 -28 -2 -308t2 -312h-84q-19 242 -72.5 377t-132.5 149h-2v-850q0 -157 10 -193q11 -42 49 -52q26 -7 92 -7v-94h-600v94h41t33 4t26 5t19 11.5t14 15.5t9 25t6 31t2.5 43t1.5 52v65v850h-2z" />
    <glyph glyph-name="U" unicode="U" horiz-adv-x="937" 
d="M735 375q0 218 -12 366t-39 236.5t-57.5 134.5t-79.5 82v96h381v-96q-54 -32 -78.5 -128t-24.5 -278v-421q0 -100 -16 -168.5t-54.5 -118.5t-103.5 -73t-162 -23q-213 0 -297.5 87.5t-82.5 290.5v646v5v47.5t-1 37.5t-2 31.5t-4 22.5t-6 17.5t-9.5 11.5t-12.5 9
t-17.5 3.5t-22.5 2.5h-28v94h455v-94q-41 0 -48 -26t-7 -162v-619q0 -106 44 -159.5t125 -53.5q85 0 122.5 48t37.5 151z" />
    <glyph glyph-name="V" unicode="V" horiz-adv-x="970" 
d="M684 0h-385q0 15 -81 420.5t-109 537.5q-26 126 -49 175t-70 63v94h522v-94q-79 -3 -98 -53.5t6 -188.5l143 -792h41q90 605 90 827q0 98 -22.5 143t-81.5 64v94h391v-98q-163 -88 -297 -1192z" />
    <glyph glyph-name="W" unicode="W" horiz-adv-x="1488" 
d="M702 311q-18 -108 -36 -311h-390q1 17 -76.5 468t-97.5 542q-22 97 -44.5 135.5t-67.5 50.5v94h1067v-94q-74 -1 -89.5 -44t7.5 -155l135 -878h29q57 425 73 651t2 308.5t-59 113.5v98h344v-98q-42 -21 -75 -105.5t-69 -263t-87 -512.5q-19 -128 -35 -311h-397
q2 11 -95 555q-26 -158 -39 -244zM414 1006l137 -885h33q55 342 72.5 517t11.5 286q-6 245 -146 295q-74 -18 -100 -67.5t-8 -145.5z" />
    <glyph glyph-name="X" unicode="X" 
d="M322 94v-94h-328v94q101 78 276 520q-156 383 -197 474.5t-69 107.5v94h469v-92q-39 -7 -50 -45.5t19 -108.5l109 -313q53 174 52 300.5t-60 164.5v94h334v-94q-39 -22 -81 -94t-70.5 -142t-88.5 -227q-19 -50 -29 -76q95 -232 149.5 -352t78.5 -156t51 -55v-94h-496v94
q102 21 39 160l-100 291q-27 -94 -40.5 -153t-20.5 -123t6.5 -106.5t46.5 -68.5z" />
    <glyph glyph-name="Y" unicode="Y" horiz-adv-x="931" 
d="M766 0h-584v94q23 0 38 0.5t30 4t24 6t18 13.5t13 18.5t8.5 28t6 36t3 49t1.5 60v75.5l-203 588q-20 62 -31 91.5t-27 61.5t-33 46.5t-40 21.5v96h504v-94q-59 -2 -76 -61.5t12 -163.5l125 -441h14q55 227 68.5 370.5t-4 206.5t-62.5 89v94h371v-94
q-72 -38 -145.5 -233.5t-173.5 -579.5q0 -58 0.5 -91t3 -68.5t5.5 -52t11.5 -34.5t17 -24t25.5 -12t34 -6.5t46 -0.5v-94z" />
    <glyph glyph-name="Z" unicode="Z" horiz-adv-x="974" 
d="M80 657v633h821v-112q-9 -20 -44.5 -87.5t-104.5 -209t-156 -334.5l-207 -453h51q51 0 91 11t72 30.5t58.5 57t46.5 78.5t40.5 108t36 132.5t36.5 164.5h76v-676h-854v111q122 202 307 600l219 485h-92q-81 0 -136 -47.5t-99.5 -164t-85.5 -327.5h-76z" />
    <glyph glyph-name="a" unicode="a" horiz-adv-x="921" 
d="M66 891q0 242 337 242q216 0 300.5 -76.5t84.5 -265.5q0 -55 -4 -277.5t-4 -280.5q0 -53 6 -71.5t25 -18.5q15 0 22.5 21.5t12.5 98t0 224.5h61q11 -201 -5 -311t-56.5 -150t-116.5 -40q-93 0 -134.5 48t-43.5 154h-21q-27 -91 -90.5 -146.5t-163.5 -55.5
q-138 0 -194.5 81.5t-56.5 251.5q0 164 62.5 242.5t197.5 89.5q72 5 114 17t61.5 37t24 49t4.5 71v49q0 87 -41.5 125.5t-125.5 38.5q-71 0 -125 -22l8 -25q16 4 45 4q129 0 129 -123q0 -139 -152 -139q-76 0 -118.5 40.5t-42.5 117.5zM387 152q102 0 102 139v340
q-15 -13 -45.5 -31t-53 -34t-46 -42.5t-36.5 -70.5t-13 -103q0 -107 22 -152.5t70 -45.5z" />
    <glyph glyph-name="b" unicode="b" horiz-adv-x="921" 
d="M524 -12q-63 0 -113 14.5t-75 32.5t-50.5 32.5t-45.5 14.5q-26 0 -42 -23t-16 -59h-88v1190q0 57 -17.5 76.5t-72.5 19.5v100q7 1 102 6.5t184.5 11t100.5 7.5q-1 -124 -13.5 -287.5t-12.5 -171.5h24q61 181 219 181q153 0 210 -127t54 -437q3 -310 -83 -445.5
t-265 -135.5zM387 297q0 -120 17.5 -165.5t74.5 -45.5q41 0 61.5 33.5t31 134.5t10.5 301q0 164 -11 249.5t-30 112.5t-56 27q-42 0 -70 -50t-28 -153v-444z" />
    <glyph glyph-name="c" unicode="c" horiz-adv-x="839" 
d="M354 592q0 -137 10.5 -223.5t34.5 -133t54.5 -63t78.5 -16.5q81 0 120.5 68.5t43.5 234.5h88q0 -123 -15.5 -208t-54 -148t-106 -93t-168.5 -30q-94 0 -162.5 28t-122.5 93t-81 181t-27 283q0 161 26.5 273t80 177t124.5 93.5t168 28.5q338 0 338 -291q0 -97 -41 -152
t-116 -55q-152 0 -152 160q0 75 34.5 121.5t94.5 46.5q21 0 45 -9l13 27q-53 47 -121 47q-35 0 -60 -8t-50.5 -34.5t-41 -73.5t-25.5 -128.5t-10 -195.5z" />
    <glyph glyph-name="d" unicode="d" horiz-adv-x="913" 
d="M434 154q41 0 64.5 46t23.5 136v678q-24 12 -53 12q-41 0 -61 -10t-38 -54.5t-24 -137t-6 -255.5q0 -236 21.5 -325.5t72.5 -89.5zM580 0q2 16 2 195h-27q-25 -92 -87 -150.5t-151 -58.5q-149 0 -209.5 128t-60.5 439q0 160 22 270.5t67 174.5t105 92t144 28
q79 0 137 -20v102q0 57 -24.5 77.5t-100.5 20.5v95q31 0 214 7.5t202 10.5v-1227q0 -52 18.5 -71t75.5 -19v-94h-327z" />
    <glyph glyph-name="e" unicode="e" 
d="M455 1044q-37 0 -57.5 -28.5t-33 -124t-12.5 -275.5h209q-1 137 -8 224t-21.5 130.5t-32 58.5t-44.5 15zM825 422q0 -107 -15.5 -183.5t-53.5 -137t-107.5 -91t-171.5 -30.5q-68 0 -121.5 10t-103.5 34.5t-86.5 68t-64 107.5t-41 156t-13.5 211q0 305 100 438.5
t308 133.5q107 0 181.5 -35.5t114.5 -104t57 -152.5t17 -198q0 -82 -2 -121h-471q6 -213 51.5 -292.5t155.5 -79.5q90 0 133 61.5t43 204.5h90z" />
    <glyph glyph-name="f" unicode="f" horiz-adv-x="534" 
d="M205 1243q0 -102 52 -157.5t142 -55.5h97v-94h-97v-741q0 -57 24.5 -80t96.5 -23v-92h-516v92q62 0 82 23t20 80v741h-83v94h155v25q-89 20 -133.5 67.5t-44.5 137.5q0 109 72.5 166t210.5 57q128 0 191 -57.5t63 -159.5q0 -79 -33 -118.5t-92 -39.5q-69 0 -100 39
t-31 102q0 61 33.5 95t80.5 34q25 0 39 -4l6 19q-41 20 -84 20q-69 0 -110 -41.5t-41 -128.5z" />
    <glyph glyph-name="g" unicode="g" horiz-adv-x="884" 
d="M539 727q0 133 -9.5 201t-29.5 93.5t-60 25.5q-37 0 -56 -26t-27.5 -93.5t-8.5 -200.5q0 -169 19.5 -230t74.5 -61q56 0 76.5 61.5t20.5 229.5zM688 -88q0 72 -74 72q-65 0 -212.5 -4.5t-180.5 -4.5h-8q-1 -32 3.5 -53.5t18.5 -42.5t40 -33.5t69.5 -20t104.5 -7.5
q78 0 128 6.5t73 21t30.5 29t7.5 37.5zM858 0q0 -52 -10.5 -90.5t-38 -71.5t-73.5 -54t-118.5 -32.5t-171.5 -11.5q-93 0 -161 7t-108.5 19t-64.5 30.5t-32 37t-8 43.5q0 45 27 76.5t63 36.5l2 33q-70 20 -102.5 59t-32.5 119q0 79 53 131.5t145 52.5h56v35q-121 21 -169 99
t-48 243q0 204 83.5 288.5t284.5 84.5q41 0 113 -6.5t96 -6.5q25 0 25 19t-43 33q-45 16 -66.5 38t-21.5 70q0 52 36.5 83.5t106.5 31.5q80 0 119 -41t39 -117q0 -77 -42 -121.5t-116 -44.5q-30 0 -100 8v-37q139 -13 189 -89.5t50 -252.5q0 -196 -86.5 -278t-294.5 -82
q-97 0 -150 -8.5t-70 -23.5t-17 -40q0 -57 67 -57q10 0 154 5t209 5q113 0 170 -59.5t57 -163.5z" />
    <glyph glyph-name="h" unicode="h" horiz-adv-x="968" 
d="M453 92v-92h-447v92q53 0 70.5 21t17.5 75v1010q0 57 -17 76.5t-71 19.5v92q7 1 101.5 6.5t183.5 11t100 7.5q-1 -102 -18.5 -271.5t-20.5 -221.5h15q35 116 96.5 165.5t163.5 49.5q130 0 189.5 -76t57.5 -232v-637q0 -51 21 -73.5t68 -22.5v-92h-445v92q38 0 51 18
t13 60v639q0 74 -21 106.5t-69 32.5q-43 0 -74 -38.5t-31 -112.5v-627q0 -42 14 -60t52 -18z" />
    <glyph glyph-name="i" unicode="i" horiz-adv-x="479" 
d="M227 1438q183 0 183 -127q0 -125 -183 -125q-92 0 -138 30t-46 95q0 127 184 127zM473 0h-467v92q53 0 70.5 21t17.5 71v740q0 55 -17.5 76.5t-72.5 21.5v94h383v-932q0 -51 16.5 -71.5t69.5 -20.5v-92z" />
    <glyph glyph-name="j" unicode="j" horiz-adv-x="487" 
d="M250 1438q184 0 184 -127q0 -125 -184 -125t-184 125q0 127 184 127zM414 6q0 -127 -61 -197.5t-167 -70.5q-206 0 -206 180q0 65 33.5 103t92.5 38q60 0 88.5 -30t28.5 -80q0 -52 -31 -80.5t-73 -28.5q-21 0 -33 4l-4 -28q25 -6 59 -6q62 0 105 39t43 118
q0 161 -170 170v781q0 59 -21 82.5t-84 23.5v92h400v-1110z" />
    <glyph glyph-name="k" unicode="k" horiz-adv-x="980" 
d="M393 1411v-745q75 75 120.5 151t45.5 131q0 34 -17.5 51.5t-66.5 24.5v92h438v-92q-52 -34 -121 -91.5t-184 -158.5t-170 -147l11 -21q122 35 196 35q82 0 128 -43t46 -149v-197q0 -61 7 -83t28 -22q15 0 23.5 23t13 90t4.5 195h72q3 -123 -4.5 -207.5t-23 -136.5
t-45.5 -80t-63.5 -37.5t-85.5 -9.5q-118 0 -166.5 53.5t-48.5 181.5q0 36 2.5 120.5t2.5 131.5q0 74 -74 74q-50 0 -68 -2v-355q0 -52 18.5 -74t71.5 -22v-92h-481v92q55 0 73.5 22t18.5 74v1006q0 59 -18 79.5t-74 20.5v92q6 0 103 6t186.5 11.5t101.5 7.5z" />
    <glyph glyph-name="l" unicode="l" horiz-adv-x="483" 
d="M393 1411v-1223q0 -52 18 -74t70 -22v-92h-479v92q55 0 73.5 22t18.5 74v1006q0 59 -18 79.5t-74 20.5v92q6 0 103 6t186.5 11.5t101.5 7.5z" />
    <glyph glyph-name="m" unicode="m" horiz-adv-x="1458" 
d="M874 797v-611q0 -50 13.5 -72t44.5 -22v-92h-414v92q38 0 51 21t13 71v621q0 77 -21 110t-69 33q-105 0 -105 -153v-611q0 -50 14 -71t52 -21v-92h-447v92q53 0 70.5 21t17.5 73v738q0 58 -18 79t-72 21v92h344q0 -42 -1 -106t-1 -105h19q29 126 95 177t167 51
q104 0 153.5 -54.5t57.5 -173.5h16q29 125 95 176.5t167 51.5q129 0 188.5 -75t59.5 -227v-645q0 -50 19.5 -72t66.5 -22v-92h-442v92q37 0 50 21t13 71v621q0 76 -22 109.5t-68 33.5q-107 0 -107 -151z" />
    <glyph glyph-name="n" unicode="n" horiz-adv-x="968" 
d="M453 92v-92h-447v92q53 0 70.5 21t17.5 75v740q0 56 -17.5 76t-70.5 20v92h342q0 -33 -1 -98.5t-1 -110.5h19q34 123 96 174.5t166 51.5q130 0 189.5 -76t57.5 -232v-637q0 -51 21 -73.5t68 -22.5v-92h-445v92q38 0 51 18t13 60v639q0 74 -21 106.5t-69 32.5
q-43 0 -74 -38.5t-31 -112.5v-627q0 -42 14 -60t52 -18z" />
    <glyph glyph-name="o" unicode="o" horiz-adv-x="905" 
d="M858 567q0 -314 -94 -450.5t-311 -136.5q-218 0 -312.5 136t-93.5 451q1 314 94 442t312 128q218 0 311.5 -130t93.5 -440zM555 569q0 154 -6 249.5t-20.5 142.5t-31 62t-44.5 15t-44.5 -15t-31 -61.5t-21 -142.5t-6.5 -250q0 -203 13 -313.5t33.5 -144t56.5 -33.5
q27 0 44 18.5t31 70t20.5 150t6.5 252.5z" />
    <glyph glyph-name="p" unicode="p" horiz-adv-x="921" 
d="M582 569q0 165 -9 245t-27.5 106t-56.5 26q-33 0 -54.5 -26t-35.5 -104t-14 -212v-471q36 -20 86 -20q44 0 67.5 38.5t33.5 135t10 282.5zM514 -152v-94h-512v94q56 0 74 21.5t18 75.5v981q0 58 -16 78t-68 20v92h338v-178h21q39 103 97 149t144 46q102 0 158 -51.5
t81 -172.5t25 -342q0 -163 -20 -274.5t-62 -176t-99 -92t-138 -26.5q-94 0 -170 55v-108q0 -53 26 -75t103 -22z" />
    <glyph glyph-name="q" unicode="q" horiz-adv-x="929" 
d="M442 1028q-40 0 -60 -34t-31 -139.5t-11 -311.5q0 -165 11.5 -250.5t31 -111t55.5 -25.5q84 0 84 182v541q0 80 -17.5 114.5t-62.5 34.5zM551 -47q15 116 18 248h-20q-51 -217 -234 -217q-153 0 -210 128.5t-54 438.5q-2 208 38 337.5t116 185.5t194 56q61 0 110.5 -14.5
t74.5 -31.5t51.5 -31.5t48.5 -14.5q27 0 43 22t16 58h72v-1192q0 -45 17.5 -61.5t72.5 -16.5v-94h-481v94q76 0 98.5 20t28.5 85z" />
    <glyph glyph-name="r" unicode="r" horiz-adv-x="698" 
d="M530 94v-94h-524v94q52 0 70 22.5t18 71.5v740q0 53 -17.5 73.5t-70.5 20.5v94h346q0 -32 -1 -107t-1 -118h21q51 239 180 239q58 0 94.5 -44t36.5 -146q0 -92 -31 -150.5t-92 -58.5q-31 0 -54.5 16.5t-34.5 36t-24.5 36t-27.5 16.5q-17 0 -24 -18.5t-7 -65.5v-545
q0 -68 27 -90.5t116 -22.5z" />
    <glyph glyph-name="s" unicode="s" horiz-adv-x="790" 
d="M492 176q0 75 -46.5 135.5t-150.5 126.5q-242 164 -242 391q0 145 77 226.5t216 81.5q54 0 99.5 -17.5t76.5 -35t49 -17.5q21 0 31 11.5t16 41.5h89q-1 -23 -1 -212t1 -212h-86q-51 181 -110.5 266t-135.5 85q-45 0 -68.5 -28.5t-23.5 -76.5q0 -124 168 -231
q139 -87 214.5 -189.5t75.5 -238.5q0 -154 -80 -228.5t-217 -74.5q-62 0 -119.5 20t-96 39.5t-54.5 19.5q-21 0 -30 -13.5t-9 -47.5h-86q1 25 1 229.5t-1 229.5h82q53 -186 122.5 -286.5t147.5 -100.5q91 0 91 106z" />
    <glyph glyph-name="t" unicode="t" horiz-adv-x="606" 
d="M389 1384v-268h189v-94h-189v-776q0 -63 8.5 -87t32.5 -24q17 0 27.5 16t17 68.5t6.5 147.5q0 22 -1 75t-1 78h88q4 -98 4 -162q0 -207 -47.5 -290.5t-177.5 -83.5q-65 0 -109 12t-77 42t-48.5 85t-15.5 137v762h-84v94q122 0 198.5 65t94.5 203h84z" />
    <glyph glyph-name="u" unicode="u" horiz-adv-x="968" 
d="M621 0q0 33 4 209h-29q-31 -127 -91 -176t-163 -49q-130 0 -190 77.5t-58 235.5v635q0 58 -16.5 75t-71.5 17v92h389q-1 -6 -4.5 -121t-3.5 -143v-559q0 -67 21 -95t67 -28q107 0 107 172v547q0 94 -17 114.5t-98 20.5v92h416q0 -2 -4.5 -127.5t-4.5 -144.5v-662
q0 -52 18 -71t71 -19v-92h-342z" />
    <glyph glyph-name="v" unicode="v" horiz-adv-x="802" 
d="M588 0h-379q0 4 -33.5 210.5t-67.5 421t-36 234.5q-15 83 -31.5 116t-48.5 42v92h442v-92q-52 0 -62 -34t7 -126l106 -749h31q66 560 66 698q0 96 -15 142t-49 67v94h289v-94q-51 -29 -98 -252t-121 -770z" />
    <glyph glyph-name="w" unicode="w" horiz-adv-x="1314" 
d="M575 0h-368q1 4 -31 198.5t-66 399.5t-36 223q-19 110 -34 151t-48 52v92h934v-94q-56 -24 -29 -203l104 -723h29q66 510 66 678q0 112 -24.5 169.5t-78.5 78.5v94h328v-94q-50 -27 -99 -256t-120 -766h-365q0 3 -14.5 91.5t-37.5 229t-34 205.5q-36 -216 -76 -526z
M377 819l106 -721h31q51 307 69 461t5 236l-10 59q-12 73 -39 119t-74 74q-61 -28 -81 -79t-7 -149z" />
    <glyph glyph-name="x" unicode="x" horiz-adv-x="841" 
d="M293 94v-94h-299v94q50 40 115 161t129 294q-80 198 -124.5 296t-68.5 132t-49 45v94h455v-90q-61 -28 -9 -143l88 -265h5q33 113 44.5 191.5t1 133t-45.5 79.5v94h309v-94q-56 -32 -107 -134t-135 -317q79 -199 123.5 -296.5t67.5 -130.5t51 -50v-94h-463v94
q19 11 27 27t3 48.5t-28 80.5l-74 248q-39 -120 -54 -194.5t-6.5 -127.5t44.5 -82z" />
    <glyph glyph-name="y" unicode="y" horiz-adv-x="798" 
d="M279 -260q-236 0 -236 176q0 69 43.5 109.5t124.5 40.5q158 0 158 -113q0 -76 -103 -100l4 -35q96 15 144.5 70t48.5 141q0 50 -22.5 70t-69.5 20h-166l-142 764q-19 88 -31.5 113t-39.5 26v94h420v-94q-21 -5 -30.5 -14t-14.5 -35.5t6 -73.5l112 -692h35
q38 291 42.5 471t-15.5 251.5t-62 92.5v94h322v-94q-51 -30 -81.5 -163.5t-97.5 -562.5q-24 -155 -38 -245q-28 -157 -104 -234t-207 -77z" />
    <glyph glyph-name="z" unicode="z" horiz-adv-x="884" 
d="M74 565q2 34 2 275.5t-2 275.5h733v-102q-7 -17 -37 -73t-87 -173.5t-130 -282.5l-170 -391h18q51 0 87 8t66.5 32.5t50.5 56.5t40 92.5t35 127t35 173.5h86q-1 -34 -1 -292t1 -292h-756v100q4 8 30.5 55t43 78.5t46.5 91t66 136t78 170.5l174 393h-53q-73 0 -119 -38
t-82.5 -136t-70.5 -285h-84z" />
    <glyph glyph-name="uni00A0" unicode="&#xa0;" horiz-adv-x="350" 
 />
  </font>
</defs>
</svg>
