<svg xmlns="http://www.w3.org/2000/svg">
<defs>
<font id="OhnoFatfaceDemo-18PtCompressed" horiz-adv-x="700" >
  <font-face 
    font-family="Ohno Fatface Demo 18 Pt Compressed"
    font-weight="340"
    font-stretch="extra-condensed"
    units-per-em="2048"
    panose-1="2 15 10 4 4 2 5 9 4 4"
    ascent="1518"
    descent="-530"
    x-height="1116"
    cap-height="1290"
    bbox="-39 -471 1458 1769"
    underline-thickness="102"
    underline-position="-204"
    unicode-range="U+0020-00A0"
  />
<missing-glyph horiz-adv-x="1490" 
d="M1024 268q0 -134 -6 -203.5t-18 -93.5t-35 -24t-35 24t-18.5 94t-6.5 203q0 134 6.5 204t18.5 94t35 24t35 -24t18 -94t6 -204zM1174 268q0 183 -49.5 275t-159.5 92t-159.5 -90t-49.5 -277q0 -188 49 -278t160 -90q110 0 159.5 91.5t49.5 276.5zM567 1030
q-1 -133 -7.5 -202.5t-18 -93t-33.5 -23.5t-34 24.5t-18.5 94.5t-6.5 200q0 132 6.5 203t18.5 95t34 24t34 -24t18.5 -95t6.5 -203zM711 1030q0 183 -48.5 275t-154.5 92q-107 0 -155 -90t-48 -277q0 -188 48 -277t155 -89t155 91t48 275zM1358 647q0 -186 -12 -326.5
t-41 -256t-75 -193.5t-115 -131t-160 -76.5t-212 -23.5q-145 0 -247 34t-174 105t-113.5 193t-59.5 283.5t-18 391.5q0 192 12 335t41 259t74 192t114.5 127.5t159.5 74t211 22.5q145 0 248.5 -36.5t175 -109.5t113.5 -196.5t60 -283.5t18 -384zM1413 649q0 239 -20 409
t-65.5 300.5t-123.5 208t-190.5 115.5t-270.5 38q-131 0 -229 -23.5t-173.5 -78.5t-124.5 -136t-80.5 -203.5t-44.5 -274t-13 -355.5q0 -243 20 -415t65 -301.5t122.5 -205.5t189 -112.5t268.5 -36.5q158 0 270.5 38.5t190.5 116t123.5 208t65.5 300.5t20 408zM1458 649
q0 -245 -22 -422.5t-72 -314t-133.5 -219t-203 -123.5t-284.5 -41t-283.5 39.5t-201.5 120t-132 216t-71 315t-22 429.5q0 251 22 430.5t71 315t132 216t201.5 119.5t283.5 39t284.5 -41t203 -123t133.5 -218.5t72 -314.5t22 -423zM772 860q0 -99 -6.5 -118t-44.5 -19v-49
h217v49q-27 0 -32 19t-5 118v150q9 0 27.5 1t27.5 1q38 0 54 -2v-150q0 -101 -4.5 -119t-32.5 -18v-49h209v49q-32 0 -37.5 19t-5.5 118v316q0 111 5.5 132t37.5 21v51h-209v-51q27 0 32 -18.5t5 -114.5v-20v-121h-109v121q0 111 5 132t32 21v51h-217v-51q38 0 44.5 -21

<glyph glyph-name=".notdef" horiz-adv-x="1490" 
d="M1024 268q0 -134 -6 -203.5t-18 -93.5t-35 -24t-35 24t-18.5 94t-6.5 203q0 134 6.5 204t18.5 94t35 24t35 -24t18 -94t6 -204zM1174 268q0 183 -49.5 275t-159.5 92t-159.5 -90t-49.5 -277q0 -188 49 -278t160 -90q110 0 159.5 91.5t49.5 276.5zM567 1030
q-1 -133 -7.5 -202.5t-18 -93t-33.5 -23.5t-34 24.5t-18.5 94.5t-6.5 200q0 132 6.5 203t18.5 95t34 24t34 -24t18.5 -95t6.5 -203zM711 1030q0 183 -48.5 275t-154.5 92q-107 0 -155 -90t-48 -277q0 -188 48 -277t155 -89t155 91t48 275zM1358 647q0 -186 -12 -326.5
t-41 -256t-75 -193.5t-115 -131t-160 -76.5t-212 -23.5q-145 0 -247 34t-174 105t-113.5 193t-59.5 283.5t-18 391.5q0 192 12 335t41 259t74 192t114.5 127.5t159.5 74t211 22.5q145 0 248.5 -36.5t175 -109.5t113.5 -196.5t60 -283.5t18 -384zM1413 649q0 239 -20 409
t-65.5 300.5t-123.5 208t-190.5 115.5t-270.5 38q-131 0 -229 -23.5t-173.5 -78.5t-124.5 -136t-80.5 -203.5t-44.5 -274t-13 -355.5q0 -243 20 -415t65 -301.5t122.5 -205.5t189 -112.5t268.5 -36.5q158 0 270.5 38.5t190.5 116t123.5 208t65.5 300.5t20 408zM1458 649
q0 -245 -22 -422.5t-72 -314t-133.5 -219t-203 -123.5t-284.5 -41t-283.5 39.5t-201.5 120t-132 216t-71 315t-22 429.5q0 251 22 430.5t71 315t132 216t201.5 119.5t283.5 39t284.5 -41t203 -123t133.5 -218.5t72 -314.5t22 -423zM772 860q0 -99 -6.5 -118t-44.5 -19v-49
h217v49q-27 0 -32 19t-5 118v150q9 0 27.5 1t27.5 1q38 0 54 -2v-150q0 -101 -4.5 -119t-32.5 -18v-49h209v49q-32 0 -37.5 19t-5.5 118v316q0 111 5.5 132t37.5 21v51h-209v-51q27 0 32 -18.5t5 -114.5v-20v-121h-109v121q0 111 5 132t32 21v51h-217v-51q38 0 44.5 -21
t6.5 -132v-316zM512 -86v49q-41 6 -69 77t-39 165.5t-11 202.5v49l8 2q40 -149 66 -217l119 -328h123q-11 143 -11 326q0 176 11 251.5t41 79.5v50h-181v-50q95 -25 95 -401v-45l-7 -2q-6 18 -28.5 90.5t-36.5 110.5q-78 205 -82 297h-191v-50q29 0 34 -17.5t5 -115.5v-20
v-115q0 -332 -41 -340v-49h195z" />
    <glyph glyph-name=".null" horiz-adv-x="0" 
 />
    <glyph glyph-name="nonmarkingreturn" horiz-adv-x="682" 
 />
    <glyph glyph-name="space" unicode=" " horiz-adv-x="270" 
 />
    <glyph glyph-name="comma" unicode="," horiz-adv-x="331" 
d="M14 -213v66q114 4 174 54.5t60 106.5q0 21 -19 21q-9 0 -39 -12.5t-57 -12.5q-56 0 -90.5 39t-34.5 113q0 78 40 127t116 49q160 0 160 -217q0 -151 -77.5 -241t-232.5 -93z" />
    <glyph glyph-name="period" unicode="." horiz-adv-x="333" 
d="M166 338q74 0 116 -46t42 -128t-42.5 -129t-115.5 -47t-115.5 46.5t-42.5 129.5q0 82 42.5 128t115.5 46z" />
    <glyph glyph-name="zero" unicode="0" horiz-adv-x="720" 
d="M688 647q0 -251 -33 -394.5t-103.5 -206t-191.5 -62.5q-122 0 -192 60t-103 204t-32 399q-1 253 32 396.5t103 203.5t192 60t192.5 -62t103.5 -205.5t32 -392.5zM430 649q0 252 -8.5 382t-22 167t-39.5 37q-20 0 -32 -19.5t-21.5 -80t-13.5 -177.5t-4 -309q0 -191 4 -309
t13.5 -180t21.5 -82.5t32 -20.5q26 0 39.5 39t22 170t8.5 383z" />
    <glyph glyph-name="one" unicode="1" horiz-adv-x="417" 
d="M410 0h-400v70q47 0 64.5 19.5t17.5 80.5v813q0 47 -13.5 69.5t-47.5 22.5h-23v68q58 4 103 14.5t83.5 30.5t59.5 54t22 81h64v-1153q0 -63 15.5 -81.5t54.5 -18.5v-70z" />
    <glyph glyph-name="two" unicode="2" horiz-adv-x="651" 
d="M160 236q49 0 78.5 -31.5t29.5 -89.5t-34 -92.5t-91 -34.5q-65 0 -99 43t-34 121q0 62 20 122.5t52.5 111t71 101.5t77.5 105t71.5 110.5t52.5 128t20 148.5q0 118 -37 171.5t-113 53.5q-105 0 -153 -86l16 -12q35 35 86 35q56 0 87.5 -38.5t31.5 -105.5q0 -63 -35 -103
t-102 -40t-102.5 47t-35.5 135q0 123 74 195t227 72q156 0 232 -78t76 -254q0 -97 -21 -175.5t-58.5 -132.5t-83 -96.5t-99.5 -75.5t-103 -61t-98.5 -62t-81.5 -69l8 -12q55 37 135 37q59 0 137 -14.5t117 -14.5q37 0 57.5 20.5t30 79.5t4.5 166h45q9 -111 9 -268
q0 -160 -29 -232.5t-96 -72.5q-48 0 -82 29.5t-54 71t-40.5 83t-55.5 71t-86 29.5q-84 0 -121 -61l19 -10q35 35 80 35z" />
    <glyph glyph-name="three" unicode="3" horiz-adv-x="661" 
d="M225 80q79 0 115.5 64t36.5 221q0 63 -6.5 108.5t-16.5 71t-27 40t-34 19t-41 4.5q-50 0 -96 -6v76q62 -4 98 -4q48 0 71.5 17.5t35.5 71.5t12 165q0 155 -35.5 217.5t-110.5 62.5q-95 0 -145 -71l16 -17q36 25 78 25q54 1 84.5 -36t30.5 -105q0 -59 -34 -98.5t-97 -39.5
q-67 0 -102 46.5t-35 131.5q0 119 74.5 190t226.5 71t226.5 -80t74.5 -264q0 -85 -17.5 -144t-54 -92.5t-82.5 -49t-111 -20.5v-30q68 -4 114 -17.5t85 -44.5t57.5 -87t18.5 -140q0 -182 -79 -266t-232 -84q-155 0 -232.5 70t-77.5 188q0 87 36 132.5t106 45.5
q62 0 95.5 -38.5t33.5 -98.5q0 -67 -31.5 -105.5t-85.5 -36.5q-40 0 -76 25l-18 -18q54 -70 151 -70z" />
    <glyph glyph-name="four" unicode="4" horiz-adv-x="712" 
d="M328 301v49h-322v62q87 107 122.5 316t18.5 562h287q-39 -370 -132 -578.5t-214 -271.5v-24h240v211q151 130 213 663h43v-868q33 10 48.5 57t24.5 154h37v-471h-37q-14 172 -73 190v-43v-9q0 -168 9.5 -200t61.5 -32v-68h-479v68q29 0 50 1.5t37.5 9t27 13t18 23
t11.5 29t6 42t2 50.5v65z" />
    <glyph glyph-name="five" unicode="5" horiz-adv-x="655" 
d="M322 -14q-154 0 -231 69t-77 185q0 83 36.5 127.5t107.5 44.5q63 0 98 -38t33 -95q0 -66 -30.5 -102t-86.5 -36q-46 0 -82 29l-16 -18q50 -74 143 -74q57 0 90 29.5t50.5 106.5t17.5 214q0 151 -31.5 215t-101.5 64q-102 0 -156 -117h-45q2 131 -2 372.5t-10 327.5h80
q-2 -41 -8 -136.5t-9 -178.5h23q9 127 24.5 199.5t36 99t51.5 26.5q35 0 53.5 -33t38.5 -110q24 -83 56.5 -126.5t93.5 -43.5q67 0 98 45l-16 17q-36 -25 -76 -25q-46 0 -74 35t-28 98q0 70 34 108t87 38q64 0 98.5 -46.5t34.5 -123.5q0 -90 -44.5 -141.5t-123.5 -51.5
q-66 0 -149 11.5t-105 11.5q-28 0 -46 -10.5t-33.5 -40.5t-23.5 -88.5t-10 -151.5q73 135 258 135q142 2 212.5 -82.5t70.5 -294.5q0 -230 -76 -337t-235 -107z" />
    <glyph glyph-name="six" unicode="6" 
d="M291 346q0 -111 6.5 -172t20.5 -84.5t38 -23.5q37 0 52.5 61.5t15.5 226.5q0 89 -8.5 139t-21.5 65t-34 15q-24 0 -37.5 -15.5t-22.5 -66.5t-9 -145zM459 1214q-68 0 -105.5 -40.5t-57.5 -154t-20 -325.5q0 -18 -1 -64.5t-1 -78.5h17q27 168 180 168q107 0 157 -84
t50 -254q0 -397 -322 -397q-184 0 -255.5 157t-71.5 527q0 237 40 379t114.5 200t193.5 58q134 0 207 -69.5t73 -182.5q0 -179 -139 -179q-62 0 -100.5 38t-38.5 102q0 66 32.5 103.5t90.5 37.5q41 0 65 -16l15 18q-51 57 -123 57z" />
    <glyph glyph-name="seven" unicode="7" horiz-adv-x="647" 
d="M455 152q0 -82 -39.5 -125t-106.5 -43q-81 0 -120 47t-39 127q0 179 83 352q-113 -5 -153 -8v80q7 0 69 -4t119 -5q43 74 103.5 150t111 134t68.5 87l-12 10q-57 -41 -144 -41q-48 0 -124.5 12.5t-102.5 12.5q-21 0 -34 -5.5t-27 -25t-20 -64t-5 -116.5h-59
q3 105 -1.5 288t-9.5 275h78q0 -10 -1.5 -40t-4.5 -99.5t-6 -159.5h22q11 127 26.5 196t35 92.5t49.5 23.5q38 0 59 -37t43 -117q11 -40 22 -66.5t29 -54t46 -41.5t65 -14q38 0 62.5 15.5t46.5 51.5l-13 11q-38 -41 -82 -41q-53 0 -83.5 36.5t-30.5 106.5q0 71 35 110.5
t88 39.5q67 0 102 -48.5t37 -134.5q0 -60 -24 -131.5t-55 -130t-65 -138t-49 -145.5q27 0 119 9v-84q-23 1 -70 3t-61 3q-2 -16 -2 -49q0 -56 12.5 -161t12.5 -144z" />
    <glyph glyph-name="eight" unicode="8" 
d="M350 649q-31 0 -46 -22t-21.5 -82t-6.5 -183q0 -173 15 -232.5t59 -59.5q30 0 46 26t23 87.5t7 178.5q-1 124 -8 183.5t-22 81.5t-46 22zM350 735q43 0 59.5 52.5t16.5 195.5q-1 145 -17 193.5t-59 48.5t-59 -48.5t-17 -193.5q0 -143 16.5 -195.5t59.5 -52.5zM350 -12
q-176 0 -251.5 92t-75.5 282q0 158 53 234t160 84v25q-105 12 -151 78.5t-46 197.5q0 159 73 240.5t238 81.5q166 0 239 -81.5t73 -238.5q0 -136 -45.5 -203.5t-151.5 -77.5v-24q108 -9 160.5 -85t52.5 -231q0 -189 -76 -281.5t-252 -92.5z" />
    <glyph glyph-name="nine" unicode="9" 
d="M416 940q0 165 -15 224t-53 59q-35 0 -50 -67t-15 -247q0 -104 8 -160t21 -73t36 -17t36.5 19t22.5 83t9 179zM256 76q63 0 99.5 37.5t56.5 144.5t20 301v121h-16q-27 -166 -183 -166q-106 0 -155 86.5t-49 261.5q0 443 319 443q185 0 257.5 -156.5t72.5 -523.5
q0 -240 -40.5 -382.5t-114.5 -200.5t-193 -58q-134 0 -206.5 68.5t-72.5 180.5q0 175 144 175q61 0 98 -36t37 -100q0 -63 -31.5 -98t-87.5 -35q-40 0 -72 19l-16 -19q51 -63 133 -63z" />
    <glyph glyph-name="A" unicode="A" horiz-adv-x="759" 
d="M-16 70q57 40 131.5 466.5t74.5 604.5q0 47 -22.5 64.5t-83.5 17.5v67h455q-1 -36 50.5 -381.5t92.5 -599.5q23 -124 43 -175t51 -66v-68h-438v68q110 0 78 243l-23 170h-98h-80q-6 -123 -6 -194q0 -105 21.5 -154t64.5 -63v-70h-311v70zM297 545h88l-86 639h-18
q-49 -387 -62 -639h78z" />
    <glyph glyph-name="B" unicode="B" horiz-adv-x="770" 
d="M442 0h-438v68q59 0 69.5 30.5t10.5 185.5v15v692v15q0 156 -10.5 186.5t-69.5 30.5v67h428q171 0 236 -68t65 -249q0 -95 -16 -155t-51.5 -90.5t-77.5 -42t-109 -13.5v-31q71 -2 115 -13t82 -43t55 -94.5t17 -160.5q0 -189 -67 -259.5t-239 -70.5zM360 618h-22v-550h14
q51 0 81 21t47.5 83.5t17.5 175.5q0 112 -16.5 172t-44 79t-77.5 19zM352 1223h-14v-539h22q49 0 74 19t38 74.5t13 164.5q0 119 -13.5 179.5t-40.5 81t-79 20.5z" />
    <glyph glyph-name="C" unicode="C" horiz-adv-x="694" 
d="M586 1305h67q-3 -63 -4.5 -295t0.5 -297h-67q-56 280 -97.5 399t-97.5 119q-32 0 -49 -37t-27 -153.5t-10 -338.5q0 -175 9 -288.5t29.5 -173.5t46.5 -82.5t65 -22.5q48 0 75.5 38.5t42 134.5t15.5 265h69q0 -106 -4.5 -183.5t-16 -147t-31.5 -115t-50.5 -79.5t-74.5 -49
t-103 -15q-66 0 -116 17t-94.5 61.5t-72.5 118.5t-44.5 191.5t-16.5 276.5q0 194 18.5 322t60 202t98.5 104t142 30q47 0 86.5 -16t66.5 -32t44 -16q36 0 41 62z" />
    <glyph glyph-name="D" unicode="D" horiz-adv-x="796" 
d="M383 1223h-45v-1153h45q21 0 37.5 10.5t33.5 45t28.5 93t19 161t8.5 241.5q0 256 -12 383.5t-37.5 173t-77.5 45.5zM414 0h-410v68q59 0 69.5 28t10.5 175v14v721v14q0 147 -10.5 175t-69.5 28v67h387q141 0 222 -61t119 -201.5t38 -384.5q0 -248 -35 -386.5t-111 -197.5
t-210 -59z" />
    <glyph glyph-name="E" unicode="E" horiz-adv-x="745" 
d="M694 0h-686v68q59 0 69.5 30.5t10.5 185.5v15v692v15q0 156 -10.5 186.5t-69.5 30.5v67h674q0 -426 2 -504h-57q-26 159 -61.5 248.5t-87 131t-136.5 57.5v-529q109 48 131 256h51q-2 -100 -2 -288q0 -187 4 -287h-53q-12 119 -44 181t-87 77v-565q85 23 140.5 75
t94.5 152t62 262h55q-2 -63 -2 -282t2 -275z" />
    <glyph glyph-name="F" unicode="F" horiz-adv-x="694" 
d="M467 0h-463v68q59 0 69.5 31t10.5 192v16v676q0 167 -8 199t-36 38q-12 3 -36 3v67h668q-2 -44 -2 -267.5t2 -277.5h-56q-28 172 -62.5 268.5t-84 143.5t-131.5 66v-627q40 20 68 50t50.5 89t32.5 144h48v-623h-48q-14 131 -52 196t-99 83v-228q0 -61 1 -96.5t6.5 -65
t12.5 -42.5t24 -22.5t34.5 -11t50.5 -1.5v-68z" />
    <glyph glyph-name="G" unicode="G" horiz-adv-x="794" 
d="M356 1307q57 0 104 -17.5t79.5 -35t54.5 -17.5q38 0 43 68h68q-3 -56 -4 -279t1 -281h-67q-51 236 -118 361t-132 125q-23 0 -38 -22t-27 -82.5t-17.5 -174t-5.5 -290.5q0 -233 10 -362t30 -178.5t54 -49.5q25 0 39.5 22.5t22.5 86.5t8 181v6q0 156 -13 187t-86 31v67
h426v-67q-55 0 -65 -26.5t-10 -164.5v-22q0 -348 2 -373h-62q-11 111 -55 111q-19 0 -46.5 -20t-54 -43.5t-72.5 -43.5t-97 -20q-46 0 -86 16.5t-80.5 62t-69 117.5t-46 192t-17.5 277q0 193 19.5 322t62.5 202.5t101 103.5t144 30z" />
    <glyph glyph-name="H" unicode="H" horiz-adv-x="858" 
d="M518 242v385q-31 2 -90 2t-90 -2v-385q0 -126 8.5 -150t54.5 -24v-68h-397v68q59 0 69.5 24t10.5 150v807q0 125 -10.5 149.5t-69.5 24.5v67h397v-67q-46 0 -54.5 -24.5t-8.5 -149.5v-357h90h90v357q0 128 -7 149q-8 23 -37 25h-17v67h397v-67q-59 0 -69.5 -22.5
t-10.5 -140.5v-11v-807v-11q0 -118 10.5 -140.5t69.5 -22.5v-68h-397v68q45 0 53 22.5t8 136.5v15z" />
    <glyph glyph-name="I" unicode="I" horiz-adv-x="421" 
d="M84 281v729q0 151 -11 182t-69 31v67h412v-67q-57 0 -67.5 -30t-10.5 -183v-729q0 -153 10.5 -183t67.5 -30v-68h-412v68q58 0 69 31t11 182z" />
    <glyph glyph-name="J" unicode="J" horiz-adv-x="411" 
d="M84 997q0 163 -10.5 194.5t-69.5 31.5v67h404v-67q-51 0 -60.5 -31t-9.5 -188v-957q0 -110 -47.5 -167.5t-140.5 -57.5q-91 0 -140 43t-49 121q0 63 31.5 98t87.5 35q60 0 88.5 -33.5t28.5 -83.5q0 -53 -23 -78.5t-53 -29.5q-12 -2 -12 -15q0 -12 16 -12q44 0 78.5 36.5
t34.5 106.5q0 69 -38.5 108t-115.5 42v837z" />
    <glyph glyph-name="K" unicode="K" horiz-adv-x="794" 
d="M539 725q75 2 113 -50t38 -177v-283q0 -42 6 -59t23 -17q14 0 20 25.5t6 97.5q0 43 -4 203h45q2 -68 2 -180q0 -123 -14 -184.5t-47 -86.5t-100 -26q-94 0 -135 50.5t-41 164.5v354q0 42 -17 59t-53 17q-31 0 -43 -2v-330q0 -168 8.5 -200.5t54.5 -32.5v-68h-397v68
q59 0 69.5 32.5t10.5 200.5v690q0 167 -10.5 199.5t-69.5 32.5v67h385v-69q-38 0 -44.5 -32t-6.5 -198v-260q60 90 99 205t38 203q0 37 -8.5 56.5t-30.5 25.5v69h348v-69q-85 -96 -391 -508l10 -17q89 29 136 29z" />
    <glyph glyph-name="L" unicode="L" horiz-adv-x="630" 
d="M604 0h-600v68q59 0 69.5 33.5t10.5 205.5v699q0 157 -10.5 187t-69.5 30v67h455v-67q-31 0 -47.5 -1.5t-32.5 -10t-22.5 -20t-11.5 -39t-6 -59t-1 -87.5v-936q83 47 130 192.5t81 454.5h55v-717z" />
    <glyph glyph-name="M" unicode="M" horiz-adv-x="1036" 
d="M602 592l-141 -600h-43l-160 592q-36 135 -102 450h-6v-256q0 -191 9.5 -322.5t30.5 -212.5t50 -121t71 -54v-68h-307v68q42 49 63 199.5t21 510.5v236v13q0 141 -11 168.5t-73 27.5v67h391q1 -115 41.5 -327.5t93.5 -415.5q120 475 117 743h385v-67q-58 0 -69 -29.5
t-11 -179.5v-731q0 -154 11 -184.5t69 -30.5v-68h-454v68q68 0 94 52.5t26 164.5v745h-4q-40 -222 -92 -438z" />
    <glyph glyph-name="N" unicode="N" horiz-adv-x="790" 
d="M389 70v-70h-381v70q43 35 60.5 151t17.5 354v416q0 167 -11 199.5t-71 32.5v67h354q2 -81 32 -198t118 -342q68 -186 127 -373l18 4q-8 114 -8 176q0 641 -194 664v69h331v-69q-70 -53 -77 -471q0 -502 22 -750h-221l-223 598q-53 150 -131 444l-13 -4q6 -94 6 -215
q0 -717 244 -753z" />
    <glyph glyph-name="O" unicode="O" horiz-adv-x="784" 
d="M756 643q0 -248 -37 -391t-115 -205.5t-213 -62.5q-134 0 -211.5 60.5t-114 203.5t-36.5 395t36.5 396.5t114 206t211.5 61.5t212.5 -64t115.5 -208t37 -392zM487 645q0 251 -10.5 380t-29.5 169.5t-56 40.5t-56 -40.5t-29.5 -169.5t-10.5 -380q1 -251 11.5 -378.5
t29 -168.5t55.5 -41t56 40t29.5 168.5t10.5 379.5z" />
    <glyph glyph-name="P" unicode="P" horiz-adv-x="753" 
d="M471 70v-70h-467v70q22 0 33 0.5t22 8t14.5 15t6.5 30.5t3.5 45t0.5 69v806q0 49 -0.5 72t-3.5 48t-6.5 33t-14 16t-22 9t-33.5 1v67h397q184 0 262 -102t78 -334q1 -239 -73 -343.5t-238 -104.5q-67 0 -92 2v-170q0 -45 1 -68.5t6.5 -45.5t12 -30.5t24 -15t36 -7.5
t53.5 -1zM381 483q23 0 39 6.5t32 27.5t25 58.5t14.5 101.5t4.5 154q0 173 -11 255t-34 108.5t-72 26.5h-41v-736q18 -2 43 -2z" />
    <glyph glyph-name="Q" unicode="Q" horiz-adv-x="782" 
d="M444 203q0 58 -11.5 79t-35.5 21t-35.5 -21.5t-11.5 -76.5q0 -57 8.5 -85t34.5 -28q51 0 51 111zM299 242h23q0 23 3.5 45.5t10.5 46t22 38.5t35 15q58 0 70 -108h20q4 196 4 366q0 126 -1.5 211.5t-5.5 155t-10.5 109.5t-18 67t-25.5 37t-35 10q-30 0 -47 -23.5t-28 -92
t-15 -178t-4 -296.5q0 -319 2 -403zM618 -109q-66 0 -96 60.5t-37 210.5h-16q-14 -176 -156 -176q-158 0 -222 153.5t-64 503.5q0 356 81 510t283 154q199 0 281 -147t82 -451q0 -143 -24.5 -242t-84.5 -162t-156 -76v-22q52 -23 127 -23q58 0 75.5 29t17.5 94h45
q6 -233 -24 -324.5t-112 -91.5z" />
    <glyph glyph-name="R" unicode="R" horiz-adv-x="811" 
d="M358 1223h-20v-539h29q69 0 99 60t30 217q0 71 -4 115.5t-12.5 75t-25.5 45.5t-38.5 20.5t-57.5 5.5zM639 -12q-90 0 -131.5 44.5t-42.5 147.5q0 62 -1 157.5t-1 143.5q0 84 -23.5 110.5t-91.5 26.5h-10v-319q0 -156 8 -187q9 -34 41 -41q15 -3 49 -3v-68h-432v68
q59 0 69.5 34.5t10.5 214.5v648q0 187 -10.5 222.5t-69.5 35.5v67h475q150 0 208 -67t58 -244q0 -66 -8 -115t-25 -82t-38 -54t-55 -32.5t-67 -16t-81 -5.5v-31q134 -1 186 -53.5t52 -179.5v-189q0 -46 4.5 -64t17.5 -18q10 0 15.5 11.5t8.5 50.5t3 114q0 101 -4 160h45
q4 -118 4 -153q0 -138 -14 -207.5t-48.5 -98t-101.5 -28.5z" />
    <glyph glyph-name="S" unicode="S" horiz-adv-x="679" 
d="M438 176q0 88 -39 163.5t-120 158.5q-119 119 -182.5 236t-63.5 259q0 148 68 231t200 83q48 0 91 -20.5t74 -41t50 -20.5q21 0 32 14.5t15 50.5h62q-3 -64 -3 -274t3 -275h-58q-61 260 -116.5 375t-124.5 115q-40 0 -61 -30.5t-21 -86.5q0 -148 143 -291
q130 -124 200 -245.5t70 -274.5q0 -163 -70.5 -241t-191.5 -78q-49 0 -95.5 14.5t-74.5 32.5t-54 32.5t-40 14.5q-36 0 -41 -78h-57q3 68 3 294.5t-3 295.5h57q55 -251 125 -391t145 -140q78 0 78 117z" />
    <glyph glyph-name="T" unicode="T" horiz-adv-x="751" 
d="M623 68v-68h-492v68h39.5t29 5.5t21.5 8.5t14 18.5t9 25t4 39t2 50v68.5v940q-134 -61 -168 -551h-59q1 69 1 314.5t-1 303.5h706q-3 -58 -3 -303.5t3 -314.5h-61q-17 244 -60.5 384.5t-103.5 166.5v-940v-68.5t2 -50t4 -39t9 -25t14 -18.5t21.5 -8.5t29 -5.5h39.5z" />
    <glyph glyph-name="U" unicode="U" horiz-adv-x="724" 
d="M584 330q0 293 -21.5 482.5t-55 277t-85.5 131.5v69h299v-69q-40 -29 -58 -127.5t-18 -290.5v-477q0 -176 -59.5 -259t-206.5 -83q-169 0 -237 75t-66 250v756v10v47.5t-1.5 35t-2.5 27t-6 17t-9.5 12.5t-14.5 5.5t-19.5 3.5h-26.5v67h373v-67q-28 -2 -33.5 -24
t-5.5 -134v-731q0 -92 32.5 -135t98.5 -43q65 0 94 43t29 131z" />
    <glyph glyph-name="V" unicode="V" horiz-adv-x="759" 
d="M545 0h-324q3 35 -47.5 360t-95.5 584q-24 145 -43.5 203t-52.5 76v67h430v-67q-40 -2 -58 -31t-19 -90.5t13 -159.5l111 -805h28q64 569 64 848q0 119 -19.5 171t-68.5 65v69h315v-71q-58 -48 -119 -362t-114 -857z" />
    <glyph glyph-name="W" unicode="W" horiz-adv-x="1173" 
d="M553 313q-21 -143 -27 -313h-319q3 37 -48 408.5t-87 588.5q-22 120 -40 166.5t-50 59.5v67h864v-67q-50 -6 -61 -61t6 -175l108 -887h19q43 398 52 644t-9 349t-60 126v71h291v-71q-44 -32 -87.5 -242t-98.5 -664q-18 -142 -27 -313h-324q3 57 -71 543
q-22 -152 -31 -230zM342 995l111 -889h20q71 564 51 812q-8 115 -36 203.5t-74 115.5q-100 -36 -72 -242z" />
    <glyph glyph-name="X" unicode="X" horiz-adv-x="684" 
d="M254 70v-70h-264v70q65 73 209 557q-106 348 -144 458t-61 136v69h377v-65q-31 -9 -37.5 -50t16.5 -104l99 -364q37 193 29 341t-60 175v67h270v-69q-37 -33 -78 -155t-114 -381q-7 -27 -11 -40q103 -336 141 -440t66 -135v-70h-391v70q72 17 25 163l-88 334
q-81 -397 16 -497z" />
    <glyph glyph-name="Y" unicode="Y" horiz-adv-x="729" 
d="M608 0h-469v68q76 0 91.5 45t15.5 268l-162 598q-32 132 -51 180.5t-51 61.5v69h417v-67q-47 -3 -58.5 -68.5t13.5 -177.5l103 -471h10q32 195 44.5 332.5t5.5 215.5t-23.5 116t-44.5 51v69h299v-69q-97 -77 -246 -844q0 -223 14 -266t92 -43v-68z" />
    <glyph glyph-name="Z" unicode="Z" horiz-adv-x="749" 
d="M55 633v657h650v-80q-1 -2 -35.5 -89.5t-87 -233t-121.5 -357.5l-154 -460h37q40 0 73 17.5t60 56.5t48.5 87t42.5 125t37.5 154t37.5 188h55q-2 -85 -2 -349t2 -349h-675v80q83 181 229 608l176 535h-59q-88 0 -145 -140t-113 -450h-56z" />
    <glyph glyph-name="a" unicode="a" horiz-adv-x="720" 
d="M43 899q0 231 281 231q172 0 238.5 -64t66.5 -224q0 -64 -1 -314t-1 -317q0 -49 4 -64.5t16 -15.5t17 19t8.5 98t-0.5 239h39q10 -206 -2 -313.5t-44.5 -146.5t-97.5 -39q-80 0 -111.5 44.5t-33.5 145.5h-19q-32 -190 -188 -190q-111 0 -155 83t-44 267q0 179 50 258
t161 90q54 4 85 14t46.5 32t19 45t3.5 69v57q0 146 -137 146q-54 0 -109 -25l8 -18q27 6 47 6q115 0 115 -123q0 -137 -129 -137q-63 0 -98 37.5t-35 109.5zM315 141q66 0 66 129v424q-8 -12 -36.5 -43t-44.5 -55t-31 -84.5t-15 -144.5q0 -132 13.5 -179t47.5 -47z" />
    <glyph glyph-name="b" unicode="b" horiz-adv-x="714" 
d="M397 -10q-47 0 -85 13.5t-58.5 29.5t-42.5 29.5t-39 13.5q-22 0 -35.5 -21t-13.5 -55h-60v1208q0 54 -14 72t-57 18v74q7 1 87.5 6t145.5 11t86 10q-2 -102 -10.5 -252.5t-9.5 -210.5h12q20 99 60.5 146.5t115.5 47.5q119 0 163 -124t42 -437q1 -311 -67.5 -445
t-219.5 -134zM309 242q0 -101 12 -141t50 -40q21 0 32.5 15.5t20 68.5t11.5 150t3 264q0 135 -3 215t-11.5 123.5t-19.5 56.5t-31 13q-64 0 -64 -224v-501z" />
    <glyph glyph-name="c" unicode="c" horiz-adv-x="651" 
d="M289 602q0 -144 8 -234t27 -137t43 -63t63 -16q41 0 67 27.5t42.5 103t19.5 206.5h59q0 -109 -7 -186.5t-25 -140.5t-48.5 -100t-77 -56.5t-112.5 -19.5q-65 0 -112 15t-87.5 53t-65.5 103t-38.5 166t-13.5 240q-1 224 35.5 350t105 173t184.5 47q139 0 204 -71.5
t65 -197.5q0 -202 -129 -202q-68 0 -97.5 43.5t-29.5 111.5q0 73 29 120.5t83 47.5q29 0 51 -12l11 16q-45 51 -105 51q-30 0 -50 -7t-40.5 -33t-32 -72.5t-19 -128t-7.5 -197.5z" />
    <glyph glyph-name="d" unicode="d" horiz-adv-x="712" 
d="M342 141q59 0 59 148v751q-18 9 -36 9q-38 0 -54 -23.5t-25.5 -129t-9.5 -337.5q0 -171 7 -262t20.5 -123.5t38.5 -32.5zM438 0q2 33 2 186h-18q-14 -94 -61.5 -146t-122.5 -52q-78 0 -123 53.5t-65 175.5t-19 336q-1 214 29.5 340.5t86 176.5t144.5 50q69 0 110 -18v106
q0 61 -19 81t-81 20v67q54 0 182.5 7t163.5 14v-1241q0 -51 13.5 -69.5t56.5 -18.5v-68h-279z" />
    <glyph glyph-name="e" unicode="e" horiz-adv-x="681" 
d="M285 618v-12h139q-1 121 -4.5 204.5t-9 133.5t-14.5 77t-19 35.5t-25 8.5q-25 0 -38 -27t-21 -126t-8 -294zM647 461q0 -93 -6.5 -161.5t-24.5 -130.5t-48 -101t-79.5 -61.5t-117.5 -22.5q-69 0 -119 14.5t-94 53t-70.5 103.5t-41.5 167.5t-15 244.5q0 214 33.5 337.5
t102 176t185.5 52.5q71 0 123 -21.5t84.5 -60t52.5 -99t27.5 -129.5t7.5 -161v-117q-17 -1 -79.5 -1t-154.5 0.5t-128 0.5q3 -157 19 -240t48 -116t92 -33q74 0 107.5 68t32.5 237h63z" />
    <glyph glyph-name="f" unicode="f" horiz-adv-x="413" 
d="M162 1257q0 -92 41 -142t116 -50h74v-66h-74v-831q0 -55 18 -77.5t71 -22.5v-68h-414v68q49 0 64.5 22t15.5 78v831h-68v66h156v18q-84 14 -125 58.5t-41 128.5q0 97 57.5 146.5t167.5 49.5q199 0 199 -194q0 -74 -26 -111t-72 -37q-55 0 -81 38.5t-26 99.5q0 60 28.5 92
t69.5 32q9 0 29 -4l4 17q-24 12 -59 12q-125 0 -125 -154z" />
    <glyph glyph-name="g" unicode="g" horiz-adv-x="688" 
d="M408 688q0 125 -3 197.5t-11 113.5t-19.5 53.5t-32.5 12.5q-19 0 -29.5 -12.5t-18.5 -54t-10.5 -114t-2.5 -196.5q0 -112 3 -178.5t10.5 -105t19 -51.5t30.5 -13q20 0 31 12.5t19 51t11 105.5t3 179zM545 -106q0 61 -66 61q-51 0 -167.5 -3t-141.5 -3h-16q-1 -33 5 -55
t25 -42t60.5 -30t105.5 -10q65 0 106 6t59.5 18.5t24 25t5.5 32.5zM348 -248q-96 0 -159 8.5t-94 25t-42.5 35.5t-11.5 46q0 38 24.5 64.5t55.5 29.5l2 23q-58 20 -84.5 53.5t-26.5 103.5q0 71 44 117.5t120 46.5q45 0 74 -2v27q-117 13 -163 100t-46 281q0 233 66.5 324
t232.5 91q29 0 83 -4t73 -4q18 0 18 15t-33 26q-34 12 -51.5 32t-17.5 58q0 45 30 73t88 28q129 0 129 -131q0 -64 -33.5 -101t-93.5 -37q-16 0 -51.5 2.5t-46.5 3.5v-24q123 -12 168 -101.5t45 -291.5q0 -217 -69 -308.5t-236 -91.5q-115 0 -152.5 -13.5t-37.5 -45.5
q0 -47 53 -47q9 0 121.5 4t162.5 4q187 0 187 -192q0 -58 -14 -97.5t-50 -70.5t-101 -45.5t-163 -14.5z" />
    <glyph glyph-name="h" unicode="h" horiz-adv-x="747" 
d="M354 68v-68h-356v68q40 0 52.5 18.5t12.5 67.5v1063q0 53 -13 71.5t-52 18.5v65q8 1 86 6t142.5 11t84.5 10q-2 -82 -14 -239t-14 -234h12q21 113 67.5 158.5t133.5 45.5q101 0 145.5 -63.5t44.5 -198.5v-714q0 -48 14 -67t50 -19v-68h-355v68q27 0 35 16.5t8 60.5v717
q0 60 -13 84.5t-44 24.5t-51.5 -30t-20.5 -97v-699q0 -43 9 -60t36 -17z" />
    <glyph glyph-name="i" unicode="i" horiz-adv-x="372" 
d="M176 1405q74 0 114 -29.5t40 -87.5q0 -117 -154 -117q-153 0 -153 117t153 117zM375 0h-379v68q40 0 53.5 20t13.5 70v792q0 55 -13.5 76t-57.5 21v69h317v-958q0 -50 13 -70t53 -20v-68z" />
    <glyph glyph-name="j" unicode="j" horiz-adv-x="376" 
d="M188 1405q75 0 115.5 -29.5t40.5 -87.5q0 -117 -156 -117q-151 0 -151 117t151 117zM326 -20q0 -109 -48.5 -168.5t-136.5 -59.5q-90 0 -134 41t-44 117q0 60 30 94.5t83 34.5q54 0 80 -30.5t26 -78.5q0 -52 -30 -79t-68 -27q-17 0 -29 4l-2 -23q18 -6 43 -6
q55 2 93 37.5t38 106.5q0 140 -147 149v852q0 58 -16 81.5t-64 23.5v67h326v-1136z" />
    <glyph glyph-name="k" unicode="k" horiz-adv-x="761" 
d="M311 1397v-738q56 69 89.5 155t31.5 151q0 39 -13 58t-50 28v65h356v-65q-55 -51 -194.5 -209.5t-186.5 -208.5l8 -15q93 35 158 35q68 0 105.5 -38t37.5 -136v-262q0 -42 5.5 -59t19.5 -17q13 0 19 22.5t9.5 97t2.5 220.5h45q5 -211 -11.5 -317.5t-53 -141t-109.5 -34.5
q-92 0 -131 45.5t-39 154.5q0 45 2 150t2 164q0 69 -58 69q-33 0 -45 -2v-407q0 -51 15.5 -72.5t58.5 -21.5v-68h-395v68q44 0 58.5 21t14.5 73v1046q0 57 -14 78t-57 21v65q48 2 168 11t151 14z" />
    <glyph glyph-name="l" unicode="l" horiz-adv-x="372" 
d="M311 1397v-1235q0 -52 14.5 -73t55.5 -21v-68h-391v68q44 0 58.5 21t14.5 73v1046q0 57 -14 78t-57 21v65q48 2 168 11t151 14z" />
    <glyph glyph-name="m" unicode="m" horiz-adv-x="1124" 
d="M686 848v-690q0 -48 9 -69t32 -21v-68h-332v68q26 0 34.5 20t8.5 70v702q0 61 -13.5 86t-45.5 25q-70 0 -70 -123v-690q0 -50 9 -70t36 -20v-68h-356v68q38 0 51.5 20.5t13.5 69.5v792q0 58 -13.5 78.5t-55.5 20.5v67h285q0 -39 -1.5 -101t-1.5 -102h19q18 124 67 170.5
t132 46.5q85 0 122 -48.5t41 -168.5h15q18 121 67.5 169t134.5 48q99 0 144 -59.5t45 -183.5v-729q0 -48 14 -69t49 -21v-68h-354v68q27 0 36 20t9 70v702q0 61 -14 86t-45 25q-72 0 -72 -123z" />
    <glyph glyph-name="n" unicode="n" horiz-adv-x="747" 
d="M354 68v-68h-356v68q41 0 53 18.5t12 67.5v809q0 53 -12.5 69.5t-54.5 16.5v67h283q-3 -95 -3 -201h19q20 120 67 167.5t134 47.5q101 0 145.5 -64t44.5 -200v-712q0 -47 13.5 -66.5t50.5 -19.5v-68h-355v68q27 0 35 16.5t8 60.5v717q0 60 -13 84.5t-44 24.5t-51.5 -30
t-20.5 -97v-699q0 -43 9 -60t36 -17z" />
    <glyph glyph-name="o" unicode="o" 
d="M670 567q0 -220 -33 -347t-101.5 -181.5t-185.5 -54.5t-185.5 53.5t-101.5 181t-32 348.5q0 220 33 343t100.5 173t185.5 50t186 -50.5t101 -174t33 -341.5zM418 569q0 215 -8.5 324.5t-21.5 138.5t-38 29t-38.5 -28.5t-22 -138t-8.5 -325.5q0 -132 3 -224t8 -148
t14 -87.5t19 -42t25 -10.5t24.5 10.5t18.5 42t14 87.5t8 148t3 224z" />
    <glyph glyph-name="p" unicode="p" horiz-adv-x="714" 
d="M438 569q0 138 -2.5 215t-10 120.5t-18 55t-30.5 11.5q-13 0 -23 -7.5t-19.5 -29.5t-15 -60t-9 -101.5t-3.5 -151.5v-527q24 -18 55 -18q23 0 37 18.5t23 73.5t12.5 149t3.5 252zM410 -166v-67h-420v67q44 0 58.5 19.5t14.5 66.5v1041q0 52 -12 70t-49 18v67h281
q-2 -61 -2 -186h10q24 108 69.5 154t120.5 46q79 0 122 -49t62.5 -170t18.5 -344q1 -217 -28.5 -344.5t-84.5 -177.5t-145 -49q-73 0 -119 43v-119q0 -47 21.5 -66.5t81.5 -19.5z" />
    <glyph glyph-name="q" unicode="q" horiz-adv-x="720" 
d="M344 1057q-20 0 -31.5 -16t-21 -69t-13 -153.5t-4.5 -269.5q0 -176 9 -267t22.5 -115t38.5 -24q57 0 57 150v637q0 69 -12.5 98t-44.5 29zM420 -57q10 82 14 256h-14q-18 -112 -63.5 -161.5t-120.5 -49.5q-117 0 -161.5 129t-41.5 438q-3 308 66 440.5t220 132.5
q47 0 86 -12t60 -26.5t44 -26.5t42 -12q23 0 37 18.5t14 48.5h45v-1194q0 -52 13.5 -71t56.5 -19v-67h-398v67q59 0 77.5 22t23.5 87z" />
    <glyph glyph-name="r" unicode="r" horiz-adv-x="552" 
d="M430 70v-70h-436v70q40 0 54.5 21t14.5 67v807q0 46 -13.5 64t-53.5 18v69h287q-2 -78 -2 -260h12q25 272 145 272q103 0 103 -174q0 -86 -24 -141t-73 -55q-26 0 -44.5 14t-27 30t-19 30t-21.5 14q-23 0 -23 -66v-594q0 -71 23 -93.5t98 -22.5z" />
    <glyph glyph-name="s" unicode="s" horiz-adv-x="612" 
d="M371 137q0 76 -36 144t-108 145q-91 106 -142.5 210t-51.5 226q0 128 60 199.5t175 71.5q42 0 79 -14.5t63 -29t41 -14.5q19 0 28 11t13 40h61q-1 -54 -1 -229t1 -227h-57q-50 210 -97.5 303.5t-105.5 93.5q-64 0 -64 -86q0 -119 133 -262q100 -107 159 -218.5t59 -240.5
q0 -141 -64 -207.5t-176 -66.5q-50 0 -95.5 16.5t-76.5 33.5t-45 17q-18 0 -25.5 -12.5t-7.5 -44.5h-57q1 56 1 244t-1 245h55q45 -188 103 -312t116 -124q64 0 64 88z" />
    <glyph glyph-name="t" unicode="t" horiz-adv-x="460" 
d="M309 1368v-252h135v-69h-135v-824q0 -53 6 -70.5t25 -17.5q13 0 20 14.5t12 67t5 152.5q0 64 -4 190h63q4 -122 4 -194q-2 -222 -38.5 -300.5t-145.5 -78.5q-99 0 -146 51.5t-47 189.5v820h-59v69q110 0 173 59t73 193h59z" />
    <glyph glyph-name="u" unicode="u" horiz-adv-x="747" 
d="M471 0q0 26 1 90.5t1 110.5h-18q-21 -120 -67.5 -167.5t-133.5 -47.5q-101 0 -146 65.5t-45 202.5v721q0 46 -13 60t-54 14v67h319q-6 -42 -6 -248v-622q0 -56 13.5 -78.5t46.5 -22.5q34 0 51.5 36t17.5 124v645q0 68 -11 83.5t-62 15.5v67h327q-6 -60 -6 -256v-713
q0 -47 13 -63t55 -16v-68h-283z" />
    <glyph glyph-name="v" unicode="v" horiz-adv-x="626" 
d="M461 0h-301q0 13 -23.5 193.5t-51 391.5t-34.5 275q-15 102 -28.5 141t-36.5 48v67h362v-67q-38 0 -45 -44.5t8 -144.5l84 -725h21q41 484 41 643q0 127 -13 185t-43 84v69h236v-69q-76 -70 -176 -1047z" />
    <glyph glyph-name="w" unicode="w" horiz-adv-x="1026" 
d="M449 0h-293q1 13 -21.5 181.5t-49.5 369t-34 264.5q-16 126 -29 174t-38 60v67h749v-67q-38 -26 -16 -236l82 -733h20q43 461 43 651q0 275 -86 316v69h262v-69q-35 -29 -82.5 -313t-89.5 -734h-299q2 21 -61 500q-43 -328 -57 -500zM305 813l84 -729h21q36 280 48 436
t1 248l-10 70q-21 170 -87 225q-42 -24 -55 -83t-2 -167z" />
    <glyph glyph-name="x" unicode="x" horiz-adv-x="657" 
d="M233 70v-70h-245v70q33 39 83.5 172.5t102.5 320.5q-90 291 -122.5 376.5t-61.5 107.5v69h362v-65q-43 -21 -6 -136l84 -315h4q35 180 26.5 299t-54.5 150v67h251v-69q-18 -17 -37.5 -56t-45 -114.5t-44 -136.5t-53.5 -181q86 -285 119.5 -373t62.5 -116v-70h-372v68
q51 22 10 145l-74 303h-2q-82 -361 12 -446z" />
    <glyph glyph-name="y" unicode="y" horiz-adv-x="614" 
d="M215 -248q-195 0 -195 148q0 61 37.5 96t108.5 35q137 0 137 -103q0 -37 -25 -62t-67 -36l2 -25q78 12 118 62t40 127q0 44 -18.5 61t-57.5 17h-150l-106 856q-10 71 -21 95t-32 26v67h348v-67q-24 -6 -30 -28.5t1 -94.5l88 -793h23q39 454 28 668t-61 246v69h246v-69
q-17 -12 -30.5 -51t-28.5 -136t-26 -188.5t-35.5 -292t-45.5 -363.5q-20 -134 -80.5 -199t-167.5 -65z" />
    <glyph glyph-name="z" unicode="z" horiz-adv-x="677" 
d="M49 528q1 75 1 294t-1 294h582v-78q-4 -11 -28.5 -73t-68 -184t-98.5 -296l-133 -415h12q100 0 149 115.5t97 426.5h60q-3 -75 -3 -306t3 -306h-594v76q91 222 200 555l133 420h-26q-83 0 -133 -120.5t-92 -402.5h-60z" />
    <glyph glyph-name="uni00A0" unicode="&#xa0;" horiz-adv-x="270" 
 />
  </font>
</defs>
</svg>
