<svg xmlns="http://www.w3.org/2000/svg">
<defs>
<font id="OhnoFatfaceDemo-36PtSquished" horiz-adv-x="415" >
  <font-face 
    font-family="Ohno Fatface Demo 36 Pt Squished"
    font-weight="260"
    font-stretch="ultra-condensed"
    units-per-em="2048"
    panose-1="2 15 10 3 6 2 5 9 4 4"
    ascent="1518"
    descent="-530"
    x-height="1116"
    cap-height="1290"
    bbox="-49 -346 838 1642"
    underline-thickness="102"
    underline-position="-204"
    unicode-range="U+0020-00A0"
  />
<missing-glyph horiz-adv-x="854" 
d="M590 281q0 -115 -1 -181.5t-5 -107t-9.5 -53.5t-15.5 -13q-9 0 -14.5 13.5t-9 54t-5 107t-2.5 180.5q0 110 1.5 177.5t5.5 105.5t9.5 51.5t14.5 13.5q10 0 15.5 -13t9 -52.5t5 -104.5t1.5 -178zM694 281q0 184 -31.5 275t-103.5 91q-71 0 -102 -89.5t-31 -276.5
q0 -191 31 -282t102 -91q72 0 103.5 92.5t31.5 280.5zM315 1026q-1 -219 -7 -283.5t-23 -64.5q-9 0 -14.5 13t-9 52.5t-4.5 105t-1 177.5q0 110 1 175t4.5 104.5t9 53t14.5 13.5t14.5 -13.5t9 -53t5 -105t1.5 -174.5zM416 1024q0 185 -30.5 276t-100.5 91q-69 0 -99 -90.5
t-30 -276.5q0 -189 30 -278t99 -89q70 0 100.5 90.5t30.5 276.5zM799 647q0 -524 -80 -737t-293 -213q-88 0 -150 32.5t-105.5 99t-68.5 181.5t-36 267.5t-11 369.5q0 218 11 371t36 268t68.5 182t105.5 99t150 32q213 0 293 -214t80 -738zM819 649q0 217 -11.5 372
t-38.5 273.5t-73 189t-112 105.5t-158 35q-93 0 -158 -33t-111 -101t-72.5 -186t-38 -275t-11.5 -380q0 -222 11.5 -378.5t38 -275t72.5 -187.5t111 -102.5t158 -33.5q92 0 158 35t112 106t73 190t38.5 274t11.5 372zM838 649q0 -220 -12.5 -378t-41 -279t-76.5 -193.5
t-117 -108.5t-165 -36t-164 34.5t-115.5 105t-75.5 191t-40.5 280t-12.5 384.5t12.5 384t40.5 279.5t75.5 191t115.5 104.5t164 34t165 -35.5t117 -108t76.5 -193t41 -278.5t12.5 -378zM442 842q0 -114 -4 -135t-30 -21v-20h141v20q-15 0 -18 22.5t-3 133.5v174q10 2 31 2
t31 -2v-174q0 -112 -3 -134t-20 -22v-20h133v20q-20 0 -23 21t-3 135v352v16q0 108 3.5 129t22.5 21v20h-133v-20q17 0 20 -23t3 -143v-147h-62v147q0 118 3 142t18 24v20h-141v-20q26 0 30 -22.5t4 -143.5v-352zM293 -84v21q-47 14 -70.5 162.5t-23.5 324.5v25l4 2

<glyph glyph-name=".notdef" horiz-adv-x="854" 
d="M590 281q0 -115 -1 -181.5t-5 -107t-9.5 -53.5t-15.5 -13q-9 0 -14.5 13.5t-9 54t-5 107t-2.5 180.5q0 110 1.5 177.5t5.5 105.5t9.5 51.5t14.5 13.5q10 0 15.5 -13t9 -52.5t5 -104.5t1.5 -178zM694 281q0 184 -31.5 275t-103.5 91q-71 0 -102 -89.5t-31 -276.5
q0 -191 31 -282t102 -91q72 0 103.5 92.5t31.5 280.5zM315 1026q-1 -219 -7 -283.5t-23 -64.5q-9 0 -14.5 13t-9 52.5t-4.5 105t-1 177.5q0 110 1 175t4.5 104.5t9 53t14.5 13.5t14.5 -13.5t9 -53t5 -105t1.5 -174.5zM416 1024q0 185 -30.5 276t-100.5 91q-69 0 -99 -90.5
t-30 -276.5q0 -189 30 -278t99 -89q70 0 100.5 90.5t30.5 276.5zM799 647q0 -524 -80 -737t-293 -213q-88 0 -150 32.5t-105.5 99t-68.5 181.5t-36 267.5t-11 369.5q0 218 11 371t36 268t68.5 182t105.5 99t150 32q213 0 293 -214t80 -738zM819 649q0 217 -11.5 372
t-38.5 273.5t-73 189t-112 105.5t-158 35q-93 0 -158 -33t-111 -101t-72.5 -186t-38 -275t-11.5 -380q0 -222 11.5 -378.5t38 -275t72.5 -187.5t111 -102.5t158 -33.5q92 0 158 35t112 106t73 190t38.5 274t11.5 372zM838 649q0 -220 -12.5 -378t-41 -279t-76.5 -193.5
t-117 -108.5t-165 -36t-164 34.5t-115.5 105t-75.5 191t-40.5 280t-12.5 384.5t12.5 384t40.5 279.5t75.5 191t115.5 104.5t164 34t165 -35.5t117 -108t76.5 -193t41 -278.5t12.5 -378zM442 842q0 -114 -4 -135t-30 -21v-20h141v20q-15 0 -18 22.5t-3 133.5v174q10 2 31 2
t31 -2v-174q0 -112 -3 -134t-20 -22v-20h133v20q-20 0 -23 21t-3 135v352v16q0 108 3.5 129t22.5 21v20h-133v-20q17 0 20 -23t3 -143v-147h-62v147q0 118 3 142t18 24v20h-141v-20q26 0 30 -22.5t4 -143.5v-352zM293 -84v21q-47 14 -70.5 162.5t-23.5 324.5v25l4 2
q16 -84 47 -222l74 -313h79q-6 120 -6 332q0 195 7 277t26 91v21h-113v-21q68 -56 68 -434v-24l-4 -4q-20 74 -45 194q-55 215 -55 289h-117v-21q16 0 19 -21.5t3 -145.5v-23v-145q0 -322 -22 -344v-21h129z" />
    <glyph glyph-name=".null" horiz-adv-x="0" 
 />
    <glyph glyph-name="nonmarkingreturn" horiz-adv-x="682" 
 />
    <glyph glyph-name="space" unicode=" " horiz-adv-x="186" 
 />
    <glyph glyph-name="comma" unicode="," horiz-adv-x="212" 
d="M6 -170v33q81 4 121.5 47.5t40.5 87.5q0 20 -14 20q-6 0 -25 -11t-39 -11q-39 0 -63.5 35.5t-24.5 101.5q0 70 26 113t78 43q103 0 103 -191q0 -117 -51 -189.5t-152 -78.5z" />
    <glyph glyph-name="period" unicode="." horiz-adv-x="217" 
d="M109 289q47 0 74.5 -41.5t27.5 -110.5t-27.5 -109t-74.5 -40q-48 0 -76.5 39.5t-28.5 109.5q0 71 28.5 111.5t76.5 40.5z" />
    <glyph glyph-name="zero" unicode="0" horiz-adv-x="438" 
d="M424 643q0 -259 -20 -399t-63 -196t-122 -56t-121.5 53.5t-63 193.5t-20.5 404t20.5 405t63 195.5t121.5 54.5q78 0 121.5 -57t63.5 -198t20 -400zM252 645q0 216 -1.5 339t-6 188t-10 82.5t-15.5 17.5q-12 0 -18 -17.5t-11 -83.5t-6.5 -187.5t-1.5 -338.5t1.5 -338.5
t6.5 -187.5t11 -83.5t18 -17.5q10 0 15.5 17.5t10 82.5t6 188t1.5 339z" />
    <glyph glyph-name="one" unicode="1" horiz-adv-x="264" 
d="M264 0h-264v27q28 0 37.5 16.5t9.5 71.5v960q0 64 -29 64h-14v26q31 5 55.5 11t51.5 18.5t45 29t30 43t13 60.5h22v-1212q0 -55 9.5 -71.5t33.5 -16.5v-27z" />
    <glyph glyph-name="two" unicode="2" horiz-adv-x="395" 
d="M96 195q35 0 56.5 -27t21.5 -76q0 -46 -21.5 -73t-58.5 -27q-90 0 -90 145q0 70 22.5 154t55 166t64.5 169t54.5 191t22.5 203q0 106 -22 156.5t-76 50.5q-63 0 -92 -76l8 -6q23 26 63 26q37 0 63 -31.5t26 -92.5q0 -51 -24.5 -83t-66.5 -32t-66 35.5t-24 101.5
q0 106 44 167.5t139 61.5q96 0 144 -73.5t48 -231.5q0 -100 -16.5 -185.5t-44.5 -148t-62 -115t-71.5 -96t-70 -81.5t-60 -81t-39.5 -85l8 -6q37 59 116 59q30 0 71 -7t61 -7q33 0 51.5 25.5t27 99.5t2.5 204h15q10 -160 10 -348q0 -120 -18 -174.5t-58 -54.5
q-31 0 -51.5 23t-32.5 55.5t-24.5 64.5t-36.5 55t-60 23q-56 0 -77 -49l8 -4q24 35 61 35z" />
    <glyph glyph-name="three" unicode="3" horiz-adv-x="407" 
d="M127 63q50 0 70 68t20 250q0 103 -9 160t-21.5 72.5t-32.5 15.5q-37 0 -68 -2v28q31 -2 68 -2q26 0 38.5 17t18.5 66.5t6 150.5q0 198 -19 269t-73 71q-63 0 -92 -76l8 -6q23 26 63 26q34 0 57 -31.5t23 -92.5q0 -50 -23 -82.5t-59 -32.5q-42 0 -66 35.5t-24 101.5
q0 105 44.5 167t140.5 62q95 0 142.5 -77.5t47.5 -253.5q0 -179 -43 -248t-141 -72v-14q49 -1 81.5 -13t58.5 -43t38 -90t12 -149q0 -184 -49 -265t-147 -81q-96 0 -140.5 62t-44.5 167q0 67 24.5 102t67.5 35q36 0 58 -32t22 -82q0 -61 -23.5 -93t-56.5 -32q-40 0 -63 26
l-8 -6q29 -76 94 -76z" />
    <glyph glyph-name="four" unicode="4" horiz-adv-x="432" 
d="M182 332v26h-180v23q57 124 78.5 359t1.5 550h219q-30 -354 -107.5 -580t-168.5 -317v-10h157v168q95 201 162 739h16v-901q34 20 52 246h14v-502h-14q-13 205 -52 227v-26q0 -242 10 -279q17 -26 38 -28v-27h-336v27q77 0 93.5 54t16.5 251z" />
    <glyph glyph-name="five" unicode="5" horiz-adv-x="399" 
d="M197 -8q-96 0 -140.5 62t-44.5 167q0 67 24.5 102t67.5 35q36 0 58 -32t22 -82q0 -61 -23.5 -93t-56.5 -32q-40 0 -63 26l-8 -6q29 -76 92 -76q35 0 54 32t28.5 119t9.5 249q0 125 -10 194t-27 92t-47 23q-55 0 -96 -133h-14q2 125 -1.5 362t-7.5 289h43
q-1 -13 -3.5 -55.5t-5.5 -103t-5 -132.5h12q5 121 16 189t24.5 89t33.5 21q26 0 40 -33.5t26 -101.5q11 -55 31.5 -88t60.5 -33q43 0 65 37l-10 6q-20 -20 -51 -20q-32 0 -52 29.5t-20 83.5q0 59 23.5 90.5t60.5 31.5q40 0 62 -34.5t22 -94.5q0 -74 -29.5 -113.5
t-81.5 -39.5q-34 0 -86.5 9t-64.5 9q-33 0 -47.5 -19t-23.5 -91t-13 -232q57 185 176 185q59 0 95 -32.5t58.5 -126.5t22.5 -259q0 -259 -39.5 -364t-156.5 -105z" />
    <glyph glyph-name="six" unicode="6" 
d="M184 317q0 -97 1.5 -155t5 -89t8 -40.5t12.5 -9.5q11 0 16.5 21t9 85t3.5 186q0 112 -3.5 168.5t-8.5 71t-15 14.5t-15.5 -16t-9.5 -73t-4 -163zM285 1227q-24 0 -40.5 -9.5t-29.5 -35.5t-20 -62.5t-11.5 -100.5t-6 -138.5t-1.5 -186.5q0 -18 -1 -62.5t-1 -72.5h10
q24 162 107 162q59 0 87 -81t28 -257q0 -86 -9 -152.5t-30 -122.5t-60 -86t-96 -30q-114 0 -157.5 154t-43.5 528q0 240 24.5 377.5t70.5 192t124 54.5q86 0 126 -61.5t40 -165.5q0 -66 -24 -101.5t-66 -35.5q-36 0 -58 32t-22 83q0 59 23.5 90.5t56.5 31.5q38 0 62 -24l8 6
q-29 74 -90 74z" />
    <glyph glyph-name="seven" unicode="7" horiz-adv-x="382" 
d="M297 135q0 -145 -104 -145q-121 0 -121 172q0 197 69 397q-36 0 -94 -4v39q41 -4 103 -6q41 118 113 265t79 173l-8 4q-34 -47 -98 -47q-25 0 -75 7t-65 7q-23 0 -34.5 -10.5t-20.5 -56.5t-10 -137h-23q4 265 -6 497h37q0 -2 -6 -260h10q10 115 22 176.5t22.5 77.5
t27.5 16q26 0 40.5 -29t26.5 -89q8 -36 14 -57.5t18 -47.5t30 -38.5t43 -12.5q38 0 63 45l-10 6q-27 -30 -51 -30q-34 0 -55 33t-21 94q0 60 24 94.5t60 34.5q40 0 62 -36.5t22 -97.5q0 -55 -27 -154t-57.5 -217t-36.5 -210q9 1 25.5 1.5t30 1.5t26.5 3v-39q-54 4 -84 4v-20
q0 -82 19.5 -221.5t19.5 -182.5z" />
    <glyph glyph-name="eight" unicode="8" horiz-adv-x="411" 
d="M207 676q-10 0 -15.5 -9t-9.5 -43t-5 -95t-1 -171q0 -111 1 -173.5t5 -100t9.5 -48.5t15.5 -11q19 0 24 59t5 274q0 113 -1 171.5t-4.5 94t-8.5 44t-15 8.5zM207 717q9 0 14.5 9.5t9.5 39t5.5 84t1.5 145.5q-1 94 -2.5 146t-5.5 81.5t-9 37.5t-14 8q-10 0 -15.5 -8
t-9.5 -37.5t-5.5 -81.5t-2.5 -146q0 -92 1.5 -146t5.5 -84t10 -39t16 -9zM207 -8q-106 0 -152.5 91t-46.5 275q0 122 20.5 196.5t52 102.5t77.5 31v12q-70 8 -105 72.5t-35 212.5q0 154 44 233.5t145 79.5q100 0 144 -79t44 -232t-34.5 -217t-104.5 -70v-12q74 -6 110.5 -79
t36.5 -251q0 -185 -45.5 -275.5t-150.5 -90.5z" />
    <glyph glyph-name="nine" unicode="9" 
d="M231 956q0 205 -4.5 258.5t-21.5 53.5q-8 0 -12.5 -11.5t-8 -47t-5 -99.5t-1.5 -170q0 -92 1 -145.5t4.5 -80.5t7.5 -34.5t12 -7.5t13 9t8.5 38.5t5 86t1.5 150.5zM135 63q23 0 39 9.5t28.5 34.5t20 61t12 97t6 134.5t1.5 180.5q0 13 1 46.5t1 55.5h-13
q-18 -164 -106 -164q-115 0 -115 340q0 98 9 173t30 137.5t60 96t96 33.5q114 0 157.5 -154t43.5 -528q0 -239 -24 -377.5t-68.5 -192.5t-118.5 -54q-88 0 -130 62t-42 167q0 67 24.5 102t67.5 35q36 0 58 -32t22 -82q0 -61 -23.5 -93t-56.5 -32q-42 0 -62 26l-10 -6
q33 -76 92 -76z" />
    <glyph glyph-name="A" unicode="A" horiz-adv-x="448" 
d="M-16 29q34 55 80.5 545.5t46.5 639.5q0 29 -13.5 39.5t-50.5 10.5v26h281q-4 -115 80 -934q31 -293 57 -329v-27h-275v27q34 0 38 88.5t-11 240.5l-10 146h-90v-178q0 -290 61 -297v-27h-194v29zM205 526l-53 674h-13q-22 -332 -22 -674h88z" />
    <glyph glyph-name="B" unicode="B" horiz-adv-x="471" 
d="M270 0h-270v27q25 0 33 18q12 27 12 210v91v598q0 232 -6 276t-39 44v26h262q108 0 149.5 -68t41.5 -249q0 -78 -8.5 -132.5t-22 -87t-38.5 -51t-51 -25t-65 -7.5v-13q51 -2 83 -13.5t59 -45.5t39 -101.5t12 -174.5q0 -184 -41.5 -253t-149.5 -69zM223 649h-6v-622h4
q26 0 40.5 22t23 92t8.5 199q0 128 -8 196.5t-22.5 90.5t-39.5 22zM217 1264v-590h6q24 0 37 20.5t20 81t7 174.5q0 130 -7.5 199t-22 92t-40.5 23z" />
    <glyph glyph-name="C" unicode="C" horiz-adv-x="378" 
d="M338 1317h24q-6 -263 -2 -627h-24q-13 88 -27 190.5t-21.5 164t-16.5 118t-18 82t-20 25.5q-20 0 -24 -66.5t-4 -345.5v-108q0 -206 3.5 -329t13 -186t21 -81.5t31.5 -18.5q34 0 47.5 100t16.5 357h24q2 -341 -27.5 -471.5t-125.5 -130.5q-55 0 -89.5 25.5t-60.5 97
t-37 201t-12 335.5q0 271 21.5 412.5t62 188t117.5 46.5q31 0 60.5 -17t35.5 -17q15 0 21.5 12t9.5 43z" />
    <glyph glyph-name="D" unicode="D" horiz-adv-x="485" 
d="M236 1264h-19v-1235h16q18 0 30 36.5t21 178t9 393.5q0 201 -2.5 319.5t-9.5 189.5t-17 94.5t-28 23.5zM252 0h-252v27q33 0 39 36t6 222v721q0 186 -6 222t-39 36v26h238q91 0 140 -52t73 -192t24 -403t-22.5 -402t-68.5 -190t-132 -51z" />
    <glyph glyph-name="E" unicode="E" horiz-adv-x="442" 
d="M416 0h-412v27q25 0 33 18q12 27 12 210v91v598q0 232 -6 276t-39 44v26h406q-4 -241 0 -528h-23q-31 233 -69 344.5t-95 159.5v-590q57 86 78 282h21q-3 -156 -3 -296q0 -142 3 -295h-21q-22 222 -78 284v-628q58 65 98 200t74 359h23q-2 -168 -2 -582z" />
    <glyph glyph-name="F" unicode="F" horiz-adv-x="411" 
d="M301 0h-301v27q25 0 33 18q11 28 12 210v95v590q0 230 -6 277t-39 47v26h401v-549h-20q-35 234 -73.5 355.5t-90.5 167.5v-684q66 97 96 311h19q-2 -115 -2 -326q0 -210 2 -323h-19q-33 248 -96 311v-203q0 -82 1 -131t5 -88.5t8 -57.5t15.5 -30t22.5 -14t32 -2v-27z" />
    <glyph glyph-name="G" unicode="G" horiz-adv-x="473" 
d="M227 1296q44 0 87 -24.5t59 -24.5q32 0 35 70h26q-9 -221 -4 -582h-24q-91 535 -166 535q-13 0 -21 -25.5t-13.5 -93t-8 -182t-2.5 -297.5q0 -225 1.5 -353.5t6.5 -194t11 -82.5t17 -17q10 0 16 13t10.5 52.5t6.5 113t2 193.5v26q0 161 -6.5 193.5t-40.5 32.5v25h264v-25
q-33 0 -39 -39t-6 -239v-35q0 -287 2 -336h-22q-2 106 -35 106q-12 0 -30.5 -18t-36.5 -40t-48 -40t-63 -18q-193 0 -195 659q0 207 11.5 334.5t40 196.5t66 92.5t99.5 23.5z" />
    <glyph glyph-name="H" unicode="H" horiz-adv-x="516" 
d="M299 176v481h-41h-41v-481q0 -109 4 -129t25 -20v-27h-246v27q33 0 39 20t6 129v938q0 109 -6 129.5t-39 20.5v26h246v-26q-21 0 -25 -20.5t-4 -129.5v-430h41h41v430q0 109 -3.5 129.5t-23.5 20.5v26h246v-26q-33 0 -39 -20.5t-6 -129.5v-938q0 -109 6 -129t39 -20v-27
h-246v27q20 0 23.5 20t3.5 129z" />
    <glyph glyph-name="I" unicode="I" horiz-adv-x="262" 
d="M45 285v721q0 186 -6 222t-39 36v26h262v-26q-33 0 -39 -36t-6 -222v-721q0 -185 6 -221.5t39 -36.5v-27h-262v27q33 0 39 36.5t6 221.5z" />
    <glyph glyph-name="J" unicode="J" horiz-adv-x="260" 
d="M45 946q0 230 -6 274t-39 44v26h260v-26q-32 0 -37.5 -44t-5.5 -274v-899q0 -81 -31.5 -126.5t-93.5 -45.5q-58 0 -90.5 33t-32.5 86q0 51 24.5 77.5t67.5 26.5t64.5 -25t21.5 -65q0 -48 -27.5 -72t-56.5 -26q-8 0 -8 -6q0 -8 8 -8q39 2 71 31.5t32 86.5q0 52 -29.5 82.5
t-91.5 30.5v819z" />
    <glyph glyph-name="K" unicode="K" horiz-adv-x="481" 
d="M326 748q64 3 90 -50t26 -184v-330q0 -39 13 -39q5 0 7.5 4t5 20t3 48t0.5 88q0 27 -1 96.5t-1 116.5h14q2 -78 2 -203q0 -134 -10 -202t-31 -93.5t-63 -25.5q-109 0 -109 172v446q0 42 -12 54t-43 12v-330q0 -233 5.5 -277t37.5 -44v-27h-260v27q25 0 33 17
q11 28 12 209v95v594q0 233 -6 277.5t-39 44.5v26h242v-28q-18 0 -21.5 -44t-3.5 -276v-211q28 79 45.5 204.5t16.5 238.5q0 76 -19 88v28h238v-28q-22 -46 -119 -240t-150 -303l4 -4q47 33 93 33z" />
    <glyph glyph-name="L" unicode="L" horiz-adv-x="389" 
d="M373 0h-373v27q25 0 33 18q11 28 12 210v95v656q0 186 -6 222t-39 36v26h297v-26q-24 0 -36 -4t-22.5 -15.5t-14 -43t-5.5 -74t-2 -121.5v-979q80 175 137 759h21q-2 -231 -2 -786z" />
    <glyph glyph-name="M" unicode="M" horiz-adv-x="602" 
d="M326 555l-84 -569h-17l-94 567q-16 96 -57 383h-6v-158q0 -397 25 -559.5t83 -191.5v-27h-178l2 27q23 43 34 203t11 548v236q0 180 -6 215t-39 35l-2 26h235q-3 -223 74 -712q34 222 50 381t12 331h235l-2 -26q-32 0 -38.5 -35.5t-6.5 -214.5v-731q0 -182 6.5 -219
t38.5 -37l2 -27h-305v27q48 0 67 63t19 195v647h-6q-27 -215 -53 -377z" />
    <glyph glyph-name="N" unicode="N" horiz-adv-x="464" 
d="M260 27v-27h-256v27q23 61 33 212t10 443v266q0 247 -8 284q-6 28 -26 31q-5 1 -13 1v26h215q0 -69 20 -178t76 -340q16 -60 44 -180t40 -166l6 2q-2 31 -2 90q0 328 -43.5 536.5t-117.5 209.5v26h223v-26q-31 -88 -39 -596q0 -425 12 -668h-143l-133 561q-20 85 -84 414
l-8 -2q2 -35 2 -103q0 -148 10.5 -288.5t31.5 -268t60 -206t90 -80.5z" />
    <glyph glyph-name="O" unicode="O" horiz-adv-x="468" 
d="M457 643q0 -259 -22 -399t-68 -196t-131 -56q-86 0 -132 53.5t-68.5 193.5t-23.5 404q1 264 23.5 405t69 195.5t131.5 54.5t131.5 -57t68 -198t21.5 -400zM274 645q0 216 -1.5 339t-6.5 188t-11.5 82.5t-18.5 17.5q-14 0 -20.5 -17t-12 -84t-7 -187t-1.5 -339t1.5 -339
t7 -187t12 -84t20.5 -17q12 0 18.5 17.5t11.5 82.5t6.5 188t1.5 339z" />
    <glyph glyph-name="P" unicode="P" horiz-adv-x="460" 
d="M301 29v-29h-301v29q33 0 39 19.5t6 125.5v940q0 107 -6.5 128.5t-38.5 21.5v26h250q108 0 155.5 -102t47.5 -336q0 -242 -46.5 -347.5t-142.5 -105.5q-33 0 -47 2v-227q0 -73 6 -101t21 -36t57 -8zM231 432q16 0 25 12.5t16 55t9.5 125t1.5 221.5q0 144 -2 224.5
t-9 124.5t-15.5 55.5t-25.5 11.5h-14v-828q6 -2 14 -2z" />
    <glyph glyph-name="Q" unicode="Q" horiz-adv-x="475" 
d="M264 190q0 97 -26 97q-25 0 -25 -99q0 -106 25 -106q15 0 20.5 24t5.5 84zM199 254h8q0 30 8 53t25 23q29 0 32 -86h9q1 55 1 126t-0.5 155t-0.5 120q0 145 -0.5 238t-2.5 168t-4.5 114t-8 65.5t-11.5 34t-16 7.5q-13 0 -20.5 -20t-12.5 -89t-6.5 -187.5t-1.5 -330.5
q0 -313 2 -391zM371 -53q-45 0 -65 51.5t-23 167.5h-9q0 -31 -3.5 -58.5t-12.5 -55t-27.5 -44t-44.5 -16.5q-62 0 -99.5 63t-56 206t-18.5 382q0 253 22 393.5t70 201t134 60.5q127 0 176 -140t49 -494q0 -236 -45.5 -339.5t-141.5 -109.5v-14q38 -21 95 -21q21 0 35.5 7.5
t23 19.5t13 33t5.5 41t1 51h14q2 -217 -17.5 -301t-74.5 -84z" />
    <glyph glyph-name="R" unicode="R" horiz-adv-x="491" 
d="M217 1266v-586h2q39 0 55.5 61.5t16.5 229.5q0 127 -8 191.5t-22.5 84t-43.5 19.5zM379 -6q-52 0 -77.5 38.5t-25.5 127.5v409q0 55 -13 71.5t-46 16.5v-311q0 -230 8.5 -274.5t55.5 -44.5v-27h-281v27q25 0 33 18q12 27 12 210v91v594q0 234 -6 279t-39 45v26h301
q88 0 123 -65t35 -236q0 -69 -5.5 -119.5t-18 -83.5t-27.5 -54t-39 -31.5t-46 -14t-55 -4.5v-14q100 0 139 -45.5t39 -159.5v-281q0 -37 13 -37q6 0 9 9.5t5 51.5t2 124q0 108 -6 188h18q0 -38 1 -100.5t1 -87.5q0 -147 -10.5 -218t-32 -94.5t-67.5 -23.5z" />
    <glyph glyph-name="S" unicode="S" horiz-adv-x="391" 
d="M231 113q0 166 -67 346q-8 21 -34 89t-37.5 98t-31.5 91t-29 102t-16.5 95.5t-7.5 103.5q0 260 170 260q33 0 74.5 -28.5t52.5 -28.5q32 0 35 49h25q-11 -317 0 -626h-23q-72 420 -93 501q-28 106 -59 107q-32 0 -32 -78q0 -166 71 -340q8 -21 33.5 -86t37.5 -96.5
t32 -91.5t29.5 -102t17.5 -97t8 -105q0 -284 -168 -284q-36 0 -69 14t-55.5 28.5t-33.5 14.5q-26 0 -26 -49h-21q5 218 0 659h23q52 -351 89 -496t77 -145q28 0 28 95z" />
    <glyph glyph-name="T" unicode="T" horiz-adv-x="440" 
d="M379 27v-27h-316v27q52 0 61 24.5t9 153.5v1057q-35 -41 -63.5 -191.5t-40.5 -353.5h-23q5 215 0 573h428q-8 -260 0 -573h-22q-12 205 -42.5 361t-62.5 186v-1059q0 -129 9.5 -153.5t62.5 -24.5z" />
    <glyph glyph-name="U" unicode="U" horiz-adv-x="411" 
d="M354 262q0 394 -33.5 657t-76.5 343v28h174v-28q-24 -23 -32.5 -128.5t-8.5 -347.5v-528q0 -140 -36.5 -208t-121.5 -68q-104 0 -144 55.5t-40 185.5v942q0 72 -5.5 85.5t-39.5 13.5v26h235v-26q-6 -2 -9 -7t-5 -26.5t-2 -65.5v-907q0 -68 17.5 -96.5t58.5 -28.5
q69 0 69 129z" />
    <glyph glyph-name="V" unicode="V" horiz-adv-x="440" 
d="M322 0h-205q4 95 -68 818q-7 64 -10 97q-20 181 -33.5 255.5t-28.5 93.5v26h267v-26q-30 0 -31 -91.5t14 -257.5l64 -798h10q6 79 10 156t6.5 151t4 130.5t2 127t0.5 104v98.5v77q0 163 -14 231.5t-48 71.5v26h201v-28q-33 -58 -72.5 -422t-68.5 -840z" />
    <glyph glyph-name="W" unicode="W" horiz-adv-x="700" 
d="M330 315q-14 -180 -17 -315h-200q7 118 -78 942q-19 171 -31 238t-27 84v26h527v-26q-25 -25 -4 -328l65 -862h8q36 548 22.5 857.5t-77.5 332.5v26h205v-26q-23 -37 -54.5 -294.5t-60.5 -654.5q-13 -164 -16 -315h-203q3 119 -39 522q-13 -138 -20 -207zM225 940
l66 -850h8q33 605 12 817q-26 304 -61 363q-45 -37 -25 -330z" />
    <glyph glyph-name="X" unicode="X" horiz-adv-x="397" 
d="M160 27v-27h-172v27q32 101 116 624q-92 528 -116 613v26h221v-22q-24 -27 6 -187l70 -424q18 205 -2 396.5t-56 214.5v22h183v-26q-23 -68 -113 -648q91 -525 113 -589v-27h-232v27q28 25 -2 204l-61 390q-17 -203 -3 -364.5t48 -229.5z" />
    <glyph glyph-name="Y" unicode="Y" horiz-adv-x="430" 
d="M375 0h-307v27q48 0 56.5 44.5t8.5 291.5v45l-94 577q-34 251 -62 279v26h259v-26q-23 -4 -23.5 -78t16.5 -201l64 -522h6q14 193 18 337.5t1 230.5t-13 139t-23 72.5t-30 21.5v26h199v-28q-25 -49 -64.5 -292t-79.5 -587q0 -263 10 -311q8 -38 32 -43q9 -2 26 -2v-27z
" />
    <glyph glyph-name="Z" unicode="Z" horiz-adv-x="430" 
d="M25 606q3 339 0 684h389v-30q-65 -290 -144 -760l-80 -473h13q52 0 97 184.5t87 501.5h23q-7 -355 0 -713h-406v31q31 123 121 618l106 615h-18q-26 0 -49.5 -54t-45 -162.5t-36.5 -201.5t-35 -240h-22z" />
    <glyph glyph-name="a" unicode="a" horiz-adv-x="423" 
d="M16 915q0 101 47.5 155t143.5 54q100 0 140 -45.5t40 -158.5v-740q0 -53 8 -53q6 0 9 17t6 97t0 246h12q3 -151 3 -247.5t-11 -151.5t-30 -75.5t-52 -20.5q-51 0 -69 37.5t-21 115.5h-13q-17 -153 -104 -153q-68 0 -93.5 82.5t-25.5 296.5q0 146 14.5 231.5t41.5 121
t73 38.5q58 3 73 28.5t15 104.5v61q0 99 -86 99q-39 0 -71 -19l4 -8q14 6 36 6q42 0 60 -28.5t18 -87.5q0 -123 -84 -123q-39 0 -61.5 30.5t-22.5 89.5zM201 141q22 0 22 103v557q-2 -7 -11 -31.5t-14 -46.5t-12 -62.5t-10.5 -104.5t-3.5 -148q0 -118 4 -178.5t9.5 -74.5
t15.5 -14z" />
    <glyph glyph-name="b" unicode="b" 
d="M221 -6q-34 0 -59.5 18.5t-44.5 37t-35 18.5q-15 0 -24 -19t-9 -49h-22v1237q0 52 -7.5 69t-31.5 17v31q149 10 198 24q-8 -312 -8 -432h6q6 94 29.5 136t73.5 42q47 0 72.5 -51t36.5 -169.5t10 -334.5q1 -210 -18 -335.5t-59.5 -182.5t-107.5 -57zM190 141
q0 -69 4.5 -95t20.5 -26q10 0 14.5 13t8.5 69.5t5 162.5t1 300q0 152 -1 228t-4.5 120.5t-8.5 53t-15 8.5q-8 0 -12.5 -7.5t-7.5 -37t-4 -83.5t-1 -153v-553z" />
    <glyph glyph-name="c" unicode="c" horiz-adv-x="382" 
d="M182 608q0 -198 10.5 -298.5t27.5 -127t50 -26.5q14 0 25 7t22 30.5t17.5 63.5t11 109.5t4.5 165.5h23q0 -111 -2 -184t-8.5 -138.5t-17 -103t-29 -65.5t-44 -38.5t-61.5 -10.5q-42 0 -69.5 7t-52 29.5t-38 59.5t-23.5 102t-13.5 152.5t-4.5 214.5q-1 188 8 298t35 171
t61.5 79.5t98.5 18.5q87 0 127.5 -64.5t40.5 -170.5t-20.5 -154.5t-63.5 -48.5q-44 0 -63 43.5t-19 108.5q0 70 20 121t60 51q29 0 47 -21l6 6q-30 49 -72 49q-19 0 -30.5 -6t-25 -30.5t-21 -70t-12.5 -128.5t-5 -201z" />
    <glyph glyph-name="d" unicode="d" horiz-adv-x="417" 
d="M207 141q22 0 22 80v856q-6 4 -18 4q-8 0 -12.5 -3.5t-9.5 -21t-7.5 -49.5t-4.5 -93t-2.5 -148t-0.5 -217q0 -142 1.5 -223t6 -122.5t10 -52t15.5 -10.5zM242 0q2 41 2 145h-11q-9 -77 -33 -115t-69 -38q-69 0 -95 121.5t-26 437.5q0 217 15 340.5t47.5 177t89.5 53.5
q34 0 67 -20v106q0 77 -11 98t-50 21v27q149 4 223 24v-1253q0 -58 9 -78t36 -20v-27h-194z" />
    <glyph glyph-name="e" unicode="e" horiz-adv-x="395" 
d="M174 653v-65h59q0 220 -4 336t-10 146t-16 30q-4 0 -7 -2.5t-6 -9.5t-5 -20.5t-4 -36.5t-3 -55.5t-2 -78.5t-1.5 -106.5t-0.5 -137.5zM381 522q0 -263 -15 -353q-23 -142 -104 -170q-22 -7 -49 -7q-51 0 -83.5 15t-57 50t-37 103.5t-18.5 164t-7 242.5q0 237 16.5 352.5
t56 160t120.5 44.5q39 0 67.5 -10t48 -34.5t32 -56.5t19 -85.5t9 -112t2.5 -145.5v-115h-207q2 -175 12.5 -262t28.5 -114t55 -27q32 0 50 27t28 107t10 226h23z" />
    <glyph glyph-name="f" unicode="f" horiz-adv-x="237" 
d="M98 1272q0 -156 99 -156h43v-26h-43v-951q0 -63 9.5 -87.5t37.5 -24.5v-27h-254v27q27 0 36 24.5t9 87.5v951h-39v26h121v8q-62 12 -90.5 49.5t-28.5 108.5q0 84 32.5 122t98.5 38q67 0 93 -37t26 -127q0 -131 -60 -131q-32 0 -47.5 36.5t-15.5 94.5q0 59 18 88t47 29
q5 0 17 -4l4 8q-13 8 -33 8q-80 0 -80 -135z" />
    <glyph glyph-name="g" unicode="g" horiz-adv-x="403" 
d="M229 614q0 113 -0.5 193t-2.5 134t-3.5 85.5t-5 48t-7 21t-9.5 4.5q-8 0 -12.5 -12.5t-8.5 -61.5t-5 -146t-1 -266q0 -157 1 -245.5t5 -132t8 -53t13 -9.5q6 0 9 3.5t7 17t5.5 41t3.5 76.5t2.5 122.5t0.5 179.5zM332 -141q0 37 -41 37q-37 0 -105.5 -2.5t-83.5 -2.5h-22
q0 -19 3.5 -32.5t15.5 -27.5t38.5 -21t67.5 -7q56 0 86 9.5t35.5 19.5t5.5 27zM205 -221q-81 0 -125 8t-57 21t-13 36t17 39t41 21l2 2q-39 22 -56.5 48t-17.5 81q0 58 30.5 93.5t82.5 35.5q32 0 63 -2v12q-88 4 -124 106.5t-36 342.5q0 193 19 301.5t59 153t111 44.5
q15 0 44 -3t40 -3q10 0 10 8q0 3 -1 5t-3 4l-3.5 3.5t-5.5 3.5l-6 3q-38 19 -38 61q0 33 19.5 53.5t55.5 20.5q39 0 58.5 -23t19.5 -63q0 -41 -21 -66.5t-53 -25.5q-10 0 -36.5 3t-44.5 3v-10q89 -7 121 -121.5t32 -366.5q1 -252 -41.5 -356.5t-146.5 -104.5
q-72 0 -95.5 -7.5t-23.5 -26.5q0 -29 29 -29q6 0 74.5 3t99.5 3q62 0 91.5 -34.5t29.5 -110.5q0 -89 -41.5 -127.5t-159.5 -38.5z" />
    <glyph glyph-name="h" unicode="h" horiz-adv-x="432" 
d="M211 25v-25h-219v25q21 0 28 15.5t7 61.5v1139q0 52 -7.5 69t-31.5 17v27q149 10 198 24q-10 -347 -10 -428h6q9 94 35.5 134t81.5 40q59 0 84 -47.5t25 -154.5v-820q0 -49 5.5 -63t28.5 -14v-25h-219v25q21 0 21 77v828q0 47 -23 47q-31 0 -31 -62v-813q0 -44 4 -60.5
t17 -16.5z" />
    <glyph glyph-name="i" unicode="i" horiz-adv-x="217" 
d="M104 1358q46 0 73.5 -27t27.5 -74q0 -48 -27 -74t-74 -26t-74.5 26t-27.5 74q0 47 28 74t74 27zM227 0h-239v27q24 0 31.5 23t7.5 83v848q0 62 -8 85.5t-35 23.5v26h206v-983q0 -61 7 -83.5t30 -22.5v-27z" />
    <glyph glyph-name="j" unicode="j" horiz-adv-x="221" 
d="M106 1358q46 0 73.5 -27t27.5 -74q0 -48 -27 -74t-74 -26q-48 0 -75 25.5t-27 74.5q0 47 27.5 74t74.5 27zM199 -49q0 -82 -32 -127t-93 -45q-35 0 -54 8q-69 26 -69 109q0 51 24.5 78.5t65.5 27.5q44 0 66 -25.5t22 -64.5q0 -48 -30 -73t-60 -25q-8 0 -16 2v-15
q10 -4 22 -4q37 2 69.5 32.5t32.5 86.5q0 109 -112 115v946q0 63 -9 88t-36 25v26h209v-1165z" />
    <glyph glyph-name="k" unicode="k" horiz-adv-x="446" 
d="M190 1378v-716q28 54 45 147t15 176q0 49 -8 73t-29 34v24h225v-24q-27 -50 -107.5 -206.5t-131.5 -248.5l4 -4q52 39 104 39q92 0 92 -127v-369q0 -26 13 -26q7 0 10.5 22t5.5 105.5t2 248.5h14q2 -175 -1 -271.5t-15.5 -159.5t-32.5 -83t-57 -20q-51 0 -76.5 34
t-25.5 115q0 56 1 189.5t1 208.5q0 73 -31 73q-13 0 -17 -2v-475q0 -61 8 -84.5t33 -23.5v-27h-247v27q26 0 34.5 23.5t8.5 84.5v1082q0 65 -8 87.5t-35 22.5v27q128 4 206 24z" />
    <glyph glyph-name="l" unicode="l" horiz-adv-x="217" 
d="M190 1378v-1243q0 -61 8 -84.5t33 -23.5v-27h-247v27q26 0 34.5 23.5t8.5 84.5v1082q0 65 -8 87.5t-35 22.5v27q128 4 206 24z" />
    <glyph glyph-name="m" unicode="m" horiz-adv-x="649" 
d="M408 930v-797q0 -61 3.5 -83.5t16.5 -22.5v-27h-205v27q21 0 21 106v795q0 27 -5.5 38t-19.5 11q-29 0 -29 -47v-797q0 -60 4 -83t17 -23v-27h-219v27q21 0 28 23t7 83v846q0 66 -7.5 88.5t-33.5 22.5v26h188v-172h10q7 105 35 142.5t78 37.5q52 0 72.5 -37t23.5 -143h8
q7 102 36.5 141t84.5 39q103 0 103 -149v-842q0 -60 6.5 -83t25.5 -23v-27h-215v27q19 0 19 106v795q0 49 -25 49q-28 0 -28 -47z" />
    <glyph glyph-name="n" unicode="n" horiz-adv-x="432" 
d="M211 27v-27h-219v27q24 0 29.5 13.5t5.5 53.5v8v910q0 53 -5.5 65.5t-27.5 12.5v26h178v-170h10q9 97 35.5 137.5t81.5 40.5q59 0 84 -47.5t25 -154.5v-820v-11q0 -27 1 -37.5t8.5 -18.5t24.5 -8v-27h-219v27q21 0 21 75v828q0 47 -23 47q-31 0 -31 -62v-813
q0 -42 4 -58.5t17 -16.5z" />
    <glyph glyph-name="o" unicode="o" horiz-adv-x="405" 
d="M393 567q-1 -236 -20.5 -360t-58 -169.5t-111.5 -45.5q-74 0 -113.5 44.5t-59.5 169t-20 361.5q0 236 20 356.5t59 160.5t114 40q56 0 89.5 -21t58 -81t34 -169t8.5 -286zM231 569q0 93 -1 165.5t-2 127t-2 93.5t-3 65t-4 41.5t-4.5 23.5t-5 10.5t-6.5 2.5t-7 -2.5
t-6 -10.5t-5 -23.5t-4 -41.5t-3 -65t-2 -93.5t-1.5 -127t-0.5 -165.5t0.5 -166.5t1.5 -129.5t2 -97t3 -69.5t4 -45.5t5 -26.5t6 -13t7 -3.5q10 0 16 31t9.5 156.5t2.5 363.5z" />
    <glyph glyph-name="p" unicode="p" 
d="M244 569q0 152 -1 229t-4.5 120t-7.5 51t-14 8q-8 0 -12.5 -9t-8 -42.5t-5 -98.5t-1.5 -178v-612q9 -6 17 -6q12 0 18 14t11 69.5t6.5 160.5t1.5 294zM250 -186v-27h-266v27q27 0 35 16.5t8 60.5v1121q0 46 -6.5 62t-26.5 16v26h184q-4 -114 -4 -170h8q6 95 30.5 136.5
t74.5 41.5q47 0 72 -48t36 -166t11 -343q1 -215 -16 -341t-50.5 -179t-89.5 -53q-38 0 -60 22v-125q0 -44 11.5 -60.5t48.5 -16.5z" />
    <glyph glyph-name="q" unicode="q" horiz-adv-x="419" 
d="M201 1100q-8 0 -12.5 -13.5t-8.5 -68t-5 -162.5t-1 -297q0 -190 4 -284.5t9 -114t16 -19.5q24 0 24 95v747q0 66 -5 91.5t-21 25.5zM238 -68q0 116 4 238h-9q-9 -95 -32.5 -136.5t-71.5 -41.5q-68 0 -94.5 130t-24.5 439q0 306 43.5 434.5t143.5 128.5q44 0 86.5 -25.5
t58.5 -25.5q15 0 25 11.5t10 31.5h14v-1190q0 -64 8 -88t35 -24v-27h-260v27q36 0 49 25.5t15 92.5z" />
    <glyph glyph-name="r" unicode="r" horiz-adv-x="335" 
d="M285 27v-27h-301v27q25 0 34 21t9 65v901q0 43 -6.5 59.5t-26.5 16.5v26h176v-295h10q2 301 86 301q64 0 64 -147q0 -182 -60 -182q-16 0 -27.5 9t-16.5 20.5t-11 20.5t-12 9q-13 0 -13 -39v-647q0 -86 18 -112.5t77 -26.5z" />
    <glyph glyph-name="s" unicode="s" horiz-adv-x="354" 
d="M211 74q0 132 -70 313q-3 8 -25 67t-27.5 75t-23 67.5t-23.5 78t-15.5 70t-13 80.5t-3.5 74q0 106 36.5 165.5t113.5 59.5q30 0 66 -16t46 -16q32 0 35 43h23q-7 -259 0 -510h-21q-48 272 -76.5 373.5t-62.5 101.5q-29 0 -29 -56q0 -104 78 -296q38 -97 60.5 -162
t43.5 -163t21 -183q0 -248 -151 -248q-41 0 -85 19.5t-53 19.5q-22 0 -22 -43h-19q5 174 0 540h21q12 -78 28.5 -159.5t37 -165t43.5 -136.5t42 -53q25 0 25 60z" />
    <glyph glyph-name="t" unicode="t" horiz-adv-x="251" 
d="M188 1339v-223h62v-26h-62v-904q0 -41 15 -41q4 0 6.5 2.5t5 10.5t4 25t2.5 46t1.5 72.5t0.5 104.5q0 134 -2 210h25v-213q-1 -139 -5.5 -215.5t-17.5 -122.5t-32 -59.5t-54 -13.5q-57 0 -83.5 40.5t-26.5 155.5v902h-31v26q81 0 124 53t46 170h22z" />
    <glyph glyph-name="u" unicode="u" horiz-adv-x="432" 
d="M260 0q0 20 1 75t1 95h-10q-13 -98 -37 -139t-80 -41q-59 0 -83.5 46.5t-24.5 151.5v859q0 25 -7 34t-28 9v26h203q-5 -62 -5 -217v-717q0 -25 5 -34t18 -9q10 0 16 8.5t10.5 38.5t4.5 84v770q0 30 -5.5 40t-25.5 10v26h197q-2 -33 -2 -219v-797q0 -44 7.5 -58.5
t33.5 -14.5v-27h-189z" />
    <glyph glyph-name="v" unicode="v" horiz-adv-x="382" 
d="M274 0h-172q6 135 -69 811q-25 252 -49 279v26h239v-26q-27 0 -27.5 -75t13.5 -204l51 -596h8q15 360 15 524q0 180 -9 247.5t-34 103.5v26h159v-29q-28 -49 -62 -352.5t-63 -734.5z" />
    <glyph glyph-name="w" unicode="w" horiz-adv-x="608" 
d="M268 0h-176q6 125 -65 791q-17 160 -27.5 222t-22.5 77v26h457v-26q-16 -29 2 -302l56 -725h6q24 366 24 590q0 414 -73 437v26h180v-26q-26 -41 -62.5 -369t-50.5 -721h-180q0 67 -35 471q-27 -242 -33 -471zM195 788l53 -712h6q2 26 7 109t6.5 110.5t5 93t4 96.5
t1.5 78t0 80.5t-4 63.5l-8 90q-7 77 -22.5 174.5t-28.5 124.5q-40 -34 -20 -308z" />
    <glyph glyph-name="x" unicode="x" horiz-adv-x="397" 
d="M150 27v-27h-162v27q30 94 106 551q-87 460 -106 512v26h209v-24q-6 -6 -8 -20t0.5 -39t5 -45.5t8.5 -57.5l65 -367q18 182 -2 345.5t-53 183.5v24h174v-26q-22 -64 -104 -558q51 -282 70 -376.5t32 -128.5v-27h-219v27q24 21 -2 178l-55 338q-18 -186 -5.5 -323
t46.5 -193z" />
    <glyph glyph-name="y" unicode="y" horiz-adv-x="348" 
d="M123 -221q-121 0 -121 106q0 46 25 74.5t71 28.5q97 0 97 -92q0 -33 -18 -55.5t-48 -30.5l2 -13q47 7 73.5 45t26.5 97q0 40 -13 54.5t-48 14.5h-100l-58 993q-5 83 -30 89v26h223v-26q-13 -8 -8 -132l45 -935h10q22 405 13.5 722.5t-40.5 344.5v26h140v-26
q-14 -14 -25.5 -159.5t-31 -449.5t-40.5 -532q-15 -170 -145 -170z" />
    <glyph glyph-name="z" unicode="z" horiz-adv-x="385" 
d="M18 463q7 327 0 653h355v-31q-68 -346 -111 -600l-76 -458h7q46 0 79 159t68 476h22q-10 -331 0 -662h-358v29q40 162 113 602l78 461h-9q-77 0 -145 -629h-23z" />
    <glyph glyph-name="uni00A0" unicode="&#xa0;" horiz-adv-x="186" 
 />
  </font>
</defs>
</svg>
