<svg xmlns="http://www.w3.org/2000/svg">
<defs>
<font id="OhnoFatfaceDemo-18Pt" horiz-adv-x="1294" >
  <font-face 
    font-family="Ohno Fatface Demo 18 Pt"
    font-weight="640"
    font-stretch="normal"
    units-per-em="2048"
    panose-1="2 15 10 7 4 2 5 9 4 4"
    ascent="1518"
    descent="-530"
    x-height="1116"
    cap-height="1290"
    bbox="-51 -588 2552 1886"
    underline-thickness="102"
    underline-position="-204"
    unicode-range="U+0020-00A0"
  />
<missing-glyph horiz-adv-x="2592" 
d="M1800 256q0 -131 -11.5 -199.5t-33.5 -92t-63 -23.5t-63.5 24t-34.5 92.5t-13 198.5q0 130 12 199t34.5 92.5t64.5 23.5q41 0 63 -23.5t33.5 -92t11.5 -199.5zM2075 254q0 187 -90.5 280t-292.5 93q-205 0 -295 -91.5t-90 -281.5t90 -280.5t295 -90.5q202 0 292.5 92.5
t90.5 278.5zM969 1047q0 -131 -11.5 -199.5t-33 -91.5t-62.5 -23t-63 24t-33 91.5t-12 198.5q0 131 11.5 199.5t33.5 92t63 23.5t63 -23.5t33.5 -92.5t10.5 -199zM1235 1047q0 185 -88.5 277.5t-284.5 92.5q-199 0 -287 -91t-88 -279q0 -191 88 -282t287 -91q197 0 285 92.5
t88 280.5zM2396 647q0 -200 -22 -351t-73.5 -274.5t-134 -207t-206 -140.5t-287 -82.5t-379.5 -25.5q-217 0 -379.5 24t-286.5 79t-205.5 137t-133 206t-73 277t-21.5 358q0 206 21.5 359t73 277.5t133 206.5t205.5 137.5t286.5 79.5t379.5 24q216 0 379.5 -25.5t287 -83
t206 -141t134 -208t73.5 -275.5t22 -351zM2482 649q0 216 -23.5 379.5t-79 297t-144 223.5t-222 151.5t-310 89t-409.5 27.5q-234 0 -409 -26t-308.5 -85t-221.5 -147.5t-143.5 -222.5t-79 -299.5t-23.5 -387.5q0 -221 23.5 -385.5t79 -298.5t143.5 -222.5t221.5 -148.5
t308.5 -86t409 -26q233 0 409.5 27.5t310 89t222 151.5t144 224t79 296.5t23.5 378.5zM2552 649q0 -225 -26.5 -397.5t-86.5 -313.5t-155.5 -237.5t-236.5 -162.5t-326 -96t-427 -30q-243 0 -427 28.5t-325 93t-235.5 159.5t-154 236t-85.5 315.5t-26 404.5t26 404.5
t85.5 315.5t154 236t235.5 159.5t325 93t427 28.5q242 0 427 -30t326 -96t236.5 -162.5t155.5 -237.5t86.5 -313.5t26.5 -397.5zM1337 885v-55t-3.5 -36t-8 -25t-16.5 -11.5t-26 -7t-40 -0.5v-54h399v54q-51 0 -59 18t-8 117v139q16 0 49 1t51 1q68 0 101 -2v-139

<glyph glyph-name=".notdef" horiz-adv-x="2592" 
d="M1800 256q0 -131 -11.5 -199.5t-33.5 -92t-63 -23.5t-63.5 24t-34.5 92.5t-13 198.5q0 130 12 199t34.5 92.5t64.5 23.5q41 0 63 -23.5t33.5 -92t11.5 -199.5zM2075 254q0 187 -90.5 280t-292.5 93q-205 0 -295 -91.5t-90 -281.5t90 -280.5t295 -90.5q202 0 292.5 92.5
t90.5 278.5zM969 1047q0 -131 -11.5 -199.5t-33 -91.5t-62.5 -23t-63 24t-33 91.5t-12 198.5q0 131 11.5 199.5t33.5 92t63 23.5t63 -23.5t33.5 -92.5t10.5 -199zM1235 1047q0 185 -88.5 277.5t-284.5 92.5q-199 0 -287 -91t-88 -279q0 -191 88 -282t287 -91q197 0 285 92.5
t88 280.5zM2396 647q0 -200 -22 -351t-73.5 -274.5t-134 -207t-206 -140.5t-287 -82.5t-379.5 -25.5q-217 0 -379.5 24t-286.5 79t-205.5 137t-133 206t-73 277t-21.5 358q0 206 21.5 359t73 277.5t133 206.5t205.5 137.5t286.5 79.5t379.5 24q216 0 379.5 -25.5t287 -83
t206 -141t134 -208t73.5 -275.5t22 -351zM2482 649q0 216 -23.5 379.5t-79 297t-144 223.5t-222 151.5t-310 89t-409.5 27.5q-234 0 -409 -26t-308.5 -85t-221.5 -147.5t-143.5 -222.5t-79 -299.5t-23.5 -387.5q0 -221 23.5 -385.5t79 -298.5t143.5 -222.5t221.5 -148.5
t308.5 -86t409 -26q233 0 409.5 27.5t310 89t222 151.5t144 224t79 296.5t23.5 378.5zM2552 649q0 -225 -26.5 -397.5t-86.5 -313.5t-155.5 -237.5t-236.5 -162.5t-326 -96t-427 -30q-243 0 -427 28.5t-325 93t-235.5 159.5t-154 236t-85.5 315.5t-26 404.5t26 404.5
t85.5 315.5t154 236t235.5 159.5t325 93t427 28.5q242 0 427 -30t326 -96t236.5 -162.5t155.5 -237.5t86.5 -313.5t26.5 -397.5zM1337 885v-55t-3.5 -36t-8 -25t-16.5 -11.5t-26 -7t-40 -0.5v-54h399v54q-51 0 -59 18t-8 117v139q16 0 49 1t51 1q68 0 101 -2v-139
q0 -98 -8.5 -116.5t-61.5 -18.5v-54h387v54q-60 0 -70 18.5t-10 116.5v262v12q0 126 10.5 150t69.5 24v53h-387v-53q52 0 61 -24t9 -148v-14v-78h-201v78q0 135 7 157q7 25 35 28q9 1 25 1v53h-399v-53q69 0 81.5 -25.5t12.5 -160.5v-262zM868 -92v51q-55 8 -97.5 48.5
t-67 101.5t-36.5 130.5t-12 145.5q0 35 -2 49l9 4q11 -18 31.5 -53t33 -56.5t30.5 -50t34 -49.5l221 -321h219q-21 133 -21 317q0 168 21 243t74 79v53h-324v-53q174 -25 174 -375v-45l-6 -4q-22 29 -66.5 96t-60.5 90q-88 122 -119 185.5t-33 105.5h-352v-53q56 0 66 -19.5
t10 -121.5v-11v-106q0 -165 -17 -245.5t-59 -84.5v-51h350z" />
    <glyph glyph-name=".null" horiz-adv-x="0" 
 />
    <glyph glyph-name="nonmarkingreturn" horiz-adv-x="682" 
 />
    <glyph glyph-name="space" unicode=" " horiz-adv-x="456" 
 />
    <glyph glyph-name="comma" unicode="," horiz-adv-x="591" 
d="M39 -295v92q108 3 192 27t131.5 60.5t71 77t23.5 81.5q0 31 -31 31q-17 0 -75.5 -22.5t-112.5 -22.5q-100 0 -162 59.5t-62 173.5q0 120 72 197.5t207 77.5q136 0 209 -85t73 -257q0 -220 -133 -352t-403 -138z" />
    <glyph glyph-name="period" unicode="." horiz-adv-x="589" 
d="M295 537q128 0 204 -74t76 -201t-76 -200.5t-204 -73.5q-129 0 -205 73t-76 201t76 201.5t205 73.5z" />
    <glyph glyph-name="zero" unicode="0" horiz-adv-x="1318" 
d="M1264 657q2 -353 -140 -518.5t-462 -165.5q-322 0 -464.5 164t-140.5 520q-2 345 140.5 504.5t464.5 159.5q320 0 462 -160t140 -504zM786 659q0 192 -7 309t-24 176.5t-37.5 78t-55.5 18.5q-36 0 -57 -18t-38.5 -77.5t-24.5 -177t-7 -309.5q0 -254 15 -388t40 -175
t72 -41q34 0 55.5 22.5t38.5 86t24 184t6 311.5z" />
    <glyph glyph-name="one" unicode="1" horiz-adv-x="747" 
d="M737 0h-721v80q85 0 114.5 21t29.5 87v738q0 65 -24.5 96t-88.5 31h-41v77q115 5 205 18t164.5 38t115 67.5t41.5 100.5h80v-1166q0 -68 27.5 -88t97.5 -20v-80z" />
    <glyph glyph-name="two" unicode="2" horiz-adv-x="1202" 
d="M295 367q90 0 144.5 -49.5t54.5 -139.5t-63 -144t-165 -54q-120 0 -184 63.5t-64 173.5q0 67 23 122t62 94t89.5 72.5t106.5 61l112 55t106.5 59.5t89.5 69.5t62 90.5t23 117q0 128 -68 185t-202 57q-189 0 -275 -115l25 -12q63 60 156 60q95 0 145.5 -56.5t50.5 -150.5
q2 -87 -60 -150t-188 -63q-120 0 -182.5 69t-62.5 181q0 77 30 138t94.5 109.5t175 74.5t261.5 26q281 0 422 -82.5t141 -270.5q0 -91 -26 -157.5t-69.5 -105.5t-106.5 -66t-131.5 -38t-150 -22t-156.5 -18t-156.5 -25.5t-143.5 -46.5l8 -26q99 36 199 36q123 0 275.5 -27.5
t226.5 -27.5q78 0 108.5 35.5t26.5 124.5h82q12 -86 12 -152q0 -241 -53.5 -351.5t-173.5 -110.5q-51 0 -93 15t-71.5 41t-54 59t-45.5 70l-42 74t-46.5 70t-56 59t-74 41t-97.5 15q-140 0 -203 -86l25 -14q54 43 127 43z" />
    <glyph glyph-name="three" unicode="3" horiz-adv-x="1216" 
d="M416 74q143 0 210.5 62t67.5 220q0 64 -11.5 109.5t-30 72t-49.5 41t-62 19t-76 4.5q-106 0 -172 -10v96q82 -10 174 -10q54 0 88 5.5t61.5 21t41.5 46t21 76t7 115.5q0 150 -64 208t-194 58q-158 0 -246 -73l21 -27q55 41 133 41q94 0 142 -52.5t48 -140.5
q2 -82 -57.5 -140t-179.5 -58q-119 0 -180.5 63.5t-61.5 169.5q0 148 134.5 236t420.5 88q278 0 414.5 -81.5t136.5 -272.5q0 -69 -23 -121t-63.5 -85.5t-103 -54.5t-133.5 -30t-164 -11v-45q97 -1 168.5 -8t138.5 -26t109 -50.5t67 -83t25 -122.5q0 -176 -149.5 -262.5
t-426.5 -86.5q-151 0 -263.5 23.5t-179.5 67t-99.5 100.5t-32.5 129q0 106 61 170.5t180 64.5q122 0 183 -59t59 -141q0 -88 -50 -141t-145 -52q-79 0 -137 41l-18 -26q93 -78 260 -78z" />
    <glyph glyph-name="four" unicode="4" horiz-adv-x="1296" 
d="M1208 78v-78h-868v78q49 0 84.5 2t64 9.5t47 15.5t32.5 26.5t21 35t11 48t5 60t1 75.5h-592v80q310 176 254 860h527q-37 -160 -87.5 -288t-108.5 -218t-128 -154.5t-142.5 -101.5t-156.5 -55v-43h434v244q273 124 402 616h69v-852q90 34 117 195h66v-471h-66
q-29 166 -117 194q0 -72 1 -112t6.5 -75.5t12 -50t24 -26t35.5 -13t52 -1.5z" />
    <glyph glyph-name="five" unicode="5" horiz-adv-x="1208" 
d="M596 -27q-293 0 -433 84.5t-140 221.5q0 97 63 156t186 59q126 0 188 -54.5t60 -130.5q0 -81 -50.5 -130t-145.5 -48q-83 0 -142 39l-22 -29q90 -71 246 -71q149 0 217.5 61t68.5 219q0 146 -58.5 205t-187.5 59q-99 0 -173 -24t-115 -60h-82q3 143 -4 398.5t-19 361.5
h125q-1 -11 -13.5 -162t-19.5 -284h41q20 181 50.5 283t71 142t102.5 40q64 0 98.5 -46.5t71.5 -148.5q18 -48 33 -82t39.5 -70.5t52.5 -58.5t69 -36.5t92 -14.5q115 0 176 55l-24 31q-64 -33 -146 -33q-81 0 -132.5 50.5t-51.5 142.5q0 102 61.5 157.5t159.5 55.5
q119 0 183.5 -69.5t64.5 -184.5q0 -132 -80.5 -206.5t-224.5 -74.5q-141 0 -307 19.5t-209 19.5q-78 0 -128.5 -56.5t-57.5 -172.5q62 54 184 91.5t307 37.5q124 1 217.5 -16.5t164.5 -57.5t107.5 -110t36.5 -169q0 -389 -571 -389z" />
    <glyph glyph-name="six" unicode="6" 
d="M537 350q0 -160 29 -229.5t96 -69.5q64 0 93 74.5t29 247.5q0 94 -30 130t-90 36q-62 0 -94.5 -39.5t-32.5 -149.5zM848 1219q-69 0 -121 -16t-94.5 -53.5t-70 -99t-42 -154t-14.5 -216.5q0 -25 -1 -91.5t-1 -111.5h22q23 129 105.5 185.5t238.5 56.5q385 0 385 -338
q0 -410 -593 -410q-138 0 -243 31t-174 86t-113 138.5t-62.5 182t-18.5 222.5q0 680 645 680q245 0 385 -85t140 -222q0 -101 -62.5 -163.5t-193.5 -62.5q-115 0 -184.5 51.5t-69.5 149.5q0 85 53 137.5t158 52.5q42 0 69 -8l13 25q-71 33 -156 33z" />
    <glyph glyph-name="seven" unicode="7" horiz-adv-x="1191" 
d="M829 213q0 -117 -74 -177.5t-192 -60.5q-146 0 -217.5 63.5t-71.5 166.5q0 141 113 246q-134 -3 -237 -15v99q3 0 46.5 -3.5t121 -7.5t155.5 -6q77 50 196 98.5t214 87.5t133 74l-15 19q-49 -30 -131.5 -46t-158.5 -16q-99 0 -247 19.5t-198 19.5q-29 0 -45 -1.5
t-40 -10.5t-37 -26.5t-22 -52.5t-7 -85h-72q4 130 -3.5 353t-16.5 339h118q0 -10 -5 -57t-12 -154.5t-13 -267.5h39q21 203 51.5 312.5t69 147.5t100.5 38q76 0 118.5 -55t83.5 -173q12 -39 23.5 -68t29.5 -62t40 -56t51.5 -42.5t69 -29.5t87.5 -10q70 0 117.5 27t85.5 84
l-16 14q-42 -37 -76 -53.5t-80 -16.5q-98 0 -155.5 55.5t-57.5 161.5t62 166t157 60q125 0 189.5 -76.5t64.5 -212.5q0 -75 -25.5 -138t-67 -109.5t-84.5 -85.5t-87.5 -84t-66.5 -87q126 8 206 21v-105q-36 1 -114 5t-117 5q-4 -24 -4 -41q0 -35 12 -97.5t12 -92.5z" />
    <glyph glyph-name="eight" unicode="8" 
d="M647 651q-57 0 -85 -23t-40.5 -83.5t-13.5 -184.5q0 -171 29 -234t110 -63t110 63t27 234q-1 124 -13 184.5t-39.5 83.5t-84.5 23zM647 733q79 0 109 55.5t30 198.5q-2 143 -31 195.5t-108 52.5q-80 0 -109.5 -53t-29.5 -195q0 -143 30 -198.5t109 -55.5zM647 -20
q-165 0 -282 24.5t-187.5 73.5t-102.5 117.5t-32 162.5q0 147 91 225.5t284 90.5v39q-189 13 -266.5 81t-77.5 191q0 161 134 243.5t439 82.5q304 0 439 -82.5t135 -241.5q0 -127 -78.5 -195.5t-265.5 -78.5v-41q374 -20 374 -314q0 -190 -140.5 -284t-463.5 -94z" />
    <glyph glyph-name="nine" unicode="9" 
d="M768 948q0 151 -28 217t-95 66q-65 0 -94 -72.5t-29 -240.5q0 -115 29.5 -158t89.5 -43q31 0 52.5 8.5t39.5 32.5t26.5 71t8.5 119zM465 70q83 0 142 25.5t103.5 85.5t66.5 164.5t22 256.5q0 23 1 80t1 96h-23q-23 -129 -105 -185t-237 -56q-197 0 -291 87.5t-94 243.5
q0 78 15.5 140.5t56.5 120.5t106.5 97t171 62t244.5 23q170 0 290.5 -45t189.5 -132.5t99.5 -201.5t30.5 -266q0 -354 -162.5 -524.5t-482.5 -170.5q-254 0 -390 79.5t-136 213.5q0 100 62.5 159.5t195.5 59.5q115 0 184.5 -48t69.5 -140q0 -78 -51.5 -126t-151.5 -48
q-69 0 -127 20l-10 -22q85 -49 209 -49z" />
    <glyph glyph-name="A" unicode="A" horiz-adv-x="1351" 
d="M-35 80q69 30 162.5 221t159 417.5t65.5 356.5q0 78 -43.5 106.5t-158.5 28.5v80h798q-4 -35 87.5 -356t172.5 -580q43 -143 80 -201t98 -73v-80h-815v80q98 0 134 72.5t4 203.5l-35 136h-168h-152q-8 -93 -8 -168q0 -79 18 -129t44 -72.5t71 -42.5v-80h-514v80zM508 567
h147l-157 615h-21q-79 -344 -112 -615h143z" />
    <glyph glyph-name="B" unicode="B" horiz-adv-x="1421" 
d="M825 0h-817v80q108 0 127 39.5t19 247.5v22v512v22q0 208 -19 247.5t-127 39.5v80h801q158 0 259.5 -15t167 -53t92 -97t26.5 -152q0 -76 -21 -129t-56 -84.5t-97.5 -50t-128 -25t-164.5 -8.5v-43q104 -2 173 -9t134.5 -25.5t103 -51t60 -86.5t22.5 -131
q0 -97 -27.5 -159t-94.5 -101t-170 -54.5t-263 -15.5zM666 606h-41v-528h24q73 0 120 11t83 40t52 82.5t16 136.5q0 82 -14.5 133.5t-48.5 78.5t-77.5 36.5t-113.5 9.5zM651 1212h-26v-528h39q91 0 139 20t71 75.5t23 162.5q0 85 -12.5 137.5t-43.5 82t-75 40t-115 10.5z
" />
    <glyph glyph-name="C" unicode="C" horiz-adv-x="1312" 
d="M1153 1305h82q-5 -60 -8.5 -282.5t-1.5 -301.5h-80q-40 94 -70.5 158t-72.5 136.5t-80 116t-86.5 72.5t-98.5 29t-84 -22t-59.5 -79.5t-37 -161.5t-11.5 -263q0 -276 79 -405.5t240 -129.5q145 0 215.5 88.5t71.5 288.5h82q0 -109 -14 -193t-49.5 -159t-94.5 -123.5
t-152 -76.5t-218 -28q-109 0 -199.5 17.5t-177 64t-146 121t-95.5 196t-36 281.5q0 354 156.5 513t472.5 159q90 0 171 -18t139 -36t91 -18q58 0 72 56z" />
    <glyph glyph-name="D" unicode="D" horiz-adv-x="1472" 
d="M707 1210h-82v-1130h84q39 0 69 10.5t61.5 44.5t52.5 91.5t34 157.5t14 237q1 189 -9.5 302t-39.5 178t-71 87t-113 22zM764 0h-756v80q108 0 127 39.5t19 247.5v22v512v22q0 208 -19 247.5t-127 39.5v80h713q190 0 325 -41.5t217.5 -125t120 -201.5t37.5 -279
q0 -167 -35 -285.5t-113 -199.5t-203.5 -119.5t-305.5 -38.5z" />
    <glyph glyph-name="E" unicode="E" horiz-adv-x="1347" 
d="M1245 0h-1229v80q108 0 127 39.5t19 247.5v22v512v22q0 208 -19 247.5t-127 39.5v80h1211q-3 -49 -3 -247t3 -257h-68q-81 208 -201 303.5t-325 122.5v-510q93 24 163 94t93 169h67q-2 -53 -2 -303q0 -251 2 -304h-67q-23 107 -91.5 177.5t-164.5 91.5v-547
q204 35 345 152t202 325h67q-3 -58 -3.5 -282t1.5 -275z" />
    <glyph glyph-name="F" unicode="F" horiz-adv-x="1245" 
d="M848 0h-840v80q108 0 127 39.5t19 247.5v22v512v22q0 208 -19 247.5t-127 39.5v80h1198q-3 -44 -3 -267.5t3 -277.5h-67q-88 222 -204.5 330t-309.5 135v-608q108 29 192 102.5t111 174.5h65q-2 -56 -2 -316q0 -259 2 -315h-65q-27 111 -110 185t-193 95v-139
q0 -59 1 -97.5t5.5 -74t10 -55.5t19.5 -37.5t27 -24.5t40 -12.5t52 -6.5t68 -1v-80z" />
    <glyph glyph-name="G" unicode="G" horiz-adv-x="1464" 
d="M680 1321q103 0 196 -18t159.5 -36t105.5 -18q57 0 71 56h82q-4 -58 -5.5 -266.5t1.5 -268.5h-80q-107 196 -243 329.5t-254 133.5q-60 0 -93.5 -42t-53 -168t-19.5 -357q0 -318 41.5 -456t132.5 -138q70 0 100 63t29 227q0 131 -9 161q-11 41 -54 51q-31 8 -115 8v77
h774v-77q-96 0 -113.5 -35t-17.5 -217v-11q0 -269 4 -319h-82q-20 141 -102 141q-34 0 -87.5 -27t-106 -59t-143 -59t-190.5 -27q-65 0 -126.5 12.5t-126 41t-118 80.5t-96 124.5t-66.5 180.5t-24 241q0 354 156.5 513t472.5 159z" />
    <glyph glyph-name="H" unicode="H" horiz-adv-x="1583" 
d="M958 377v244q-55 2 -165 2q-113 0 -168 -2v-244v-20q0 -200 15 -238.5t101 -38.5v-80h-733v80q108 0 127 40.5t19 250.5v6v536q0 187 -10 229q-11 49 -49 60q-24 8 -87 8v80h733v-80q-86 0 -101 -38.5t-15 -238.5v-20v-213q55 -2 166 -2q112 0 167 2v213v20
q0 200 -15 238.5t-101 38.5v80h733v-80q-107 0 -126 -39.5t-19 -246.5v-11v-536v-11q0 -207 19 -246.5t126 -39.5v-80h-733v80q86 0 101 38.5t15 238.5v20z" />
    <glyph glyph-name="I" unicode="I" horiz-adv-x="778" 
d="M154 377v536v77t-1.5 61.5t-3 50t-6 37t-9 29t-13.5 18.5t-18 13.5t-25 6t-31 4t-39 0.5v80h762v-80q-107 0 -126 -41t-19 -256v-536q0 -215 19 -256t126 -41v-80h-762v80q24 0 39 0.5t31 4t25 6t18 13.5t13.5 18.5t9 29t6 37t3 50t1.5 61.5v77z" />
    <glyph glyph-name="J" unicode="J" horiz-adv-x="759" 
d="M154 913q0 187 -10 229q-11 49 -49 60q-24 8 -87 8v80h744v-80q-94 0 -110.5 -37.5t-16.5 -230.5v-12v-840q0 -184 -86 -279.5t-254 -95.5q-165 0 -250.5 70t-85.5 199q0 100 52 155.5t144 55.5q99 0 146 -55.5t47 -139.5q0 -80 -31.5 -120.5t-73.5 -45.5q-24 -5 -24 -20
q0 -21 29 -21q33 0 64 12.5t58 38t43.5 71.5t16.5 105q0 230 -266 236v657z" />
    <glyph glyph-name="K" unicode="K" horiz-adv-x="1466" 
d="M1014 737q258 0 258 -307v-123q0 -82 9.5 -113.5t41.5 -31.5q25 0 35 34.5t10 122.5q0 36 -4 146h84q2 -51 2 -137q0 -111 -11.5 -176t-46 -105t-87.5 -53.5t-144 -13.5q-178 0 -255 70.5t-77 238.5q0 34 2.5 112t2.5 123q0 103 -115 103q-67 0 -94 -2v-248
q0 -195 8 -235q10 -46 44 -56q19 -6 66 -6v-80h-735v80q108 0 127 40.5t19 250.5v6v536q0 187 -10 229q-11 49 -49 60q-24 8 -87 8v80h709v-80q-68 0 -80 -39t-12 -241v-17v-178q111 79 183 187t71 204q0 37 -16 57t-60 27v80h620v-80q-53 -37 -302.5 -211.5t-397.5 -275.5
l10 -27q96 19 126.5 24.5t73.5 11t81 5.5z" />
    <glyph glyph-name="L" unicode="L" horiz-adv-x="1116" 
d="M1079 0h-1071v80q108 0 127 42t19 261v6v512q0 195 -10 239q-11 50 -49 62q-24 8 -87 8v80h840v-80q-43 0 -68.5 -1t-52.5 -6.5t-40 -12.5t-27 -25t-19 -37.5t-9.5 -55t-5.5 -73.5t-1 -98v-819q135 48 229 205.5t162 429.5h65q-3 -81 -3.5 -369t1.5 -348z" />
    <glyph glyph-name="M" unicode="M" horiz-adv-x="1847" 
d="M1053 592l-260 -600h-58l-291 592q-125 261 -188 422h-6v-228q0 -189 18 -318.5t56.5 -209t91 -118.5t129.5 -52v-80h-537v80q50 32 82 93t54 212t22 393v131v10q0 211 -20.5 251t-137.5 40v80h686q3 -201 258 -725q212 464 207 725h678v-78h-39t-31 -4t-24.5 -6.5
t-18 -14t-13.5 -19t-9 -29.5t-6 -37.5t-2.5 -51.5t-1.5 -62.5v-78.5v-520v-80t1.5 -64t3 -52t6 -38.5t9 -30t14 -19.5t18 -14t24.5 -6.5t30.5 -4t38.5 -0.5v-80h-829v80q120 0 167.5 75.5t47.5 233.5v612h-2q-36 -99 -168 -409z" />
    <glyph glyph-name="N" unicode="N" horiz-adv-x="1398" 
d="M639 80v-80h-623v80q82 30 112 191.5t30 506.5v131q0 188 -9 231q-11 49 -49 62q-25 8 -92 8v80h623q5 -84 60 -200.5t216 -339.5q47 -66 129.5 -189t110.5 -164l20 9q-4 66 -4 88q0 668 -321 716v80h544v-80q-133 -42 -143 -616q0 -371 39 -594h-377l-411 598
q-76 108 -238 391l-20 -4q4 -74 4 -94q0 -144 22.5 -276.5t68 -249t125 -193.5t183.5 -92z" />
    <glyph glyph-name="O" unicode="O" horiz-adv-x="1447" 
d="M1397 643q0 -338 -159.5 -506t-514.5 -168q-356 0 -514 164.5t-158 509.5t158 510.5t514 165.5q355 0 514.5 -169t159.5 -507zM901 645q0 247 -19.5 377.5t-55.5 174.5t-103 44t-103 -44t-55 -174.5t-18 -377.5q0 -246 19 -376t55 -175t102 -45q67 0 103 44t55.5 174.5
t19.5 377.5z" />
    <glyph glyph-name="P" unicode="P" horiz-adv-x="1378" 
d="M852 80v-80h-844v80q40 0 61 1t40 15t26 27t12.5 56.5t6 83.5t0.5 126v512q0 86 -0.5 126t-6 83.5t-12.5 56.5t-26 27t-40 15t-61 1v80h733q228 0 366.5 -48.5t198.5 -142.5t60 -245q0 -237 -133.5 -342.5t-429.5 -105.5q-107 0 -178 6v-23q0 -61 0.5 -98t5.5 -73.5
t10 -55.5t19 -37t27.5 -25t40.5 -12.5t53 -6.5t71 -1zM702 489q43 0 72.5 6.5t58.5 27.5t45.5 57.5t27 99.5t9.5 151q1 127 -8 200t-36.5 114t-65.5 53t-107 12h-73v-718q52 -3 77 -3z" />
    <glyph glyph-name="Q" unicode="Q" horiz-adv-x="1441" 
d="M819 256q0 84 -21.5 114.5t-66.5 30.5q-44 0 -66 -31t-22 -110q0 -56 5.5 -90t24 -57t52.5 -23q94 0 94 166zM551 287h41q0 37 6 74t19.5 76t41.5 63t66 24q53 0 83.5 -37t43.5 -118h33q10 150 10 276q0 124 -3 210t-10.5 155.5t-19.5 111t-32.5 70t-46 39t-62.5 10.5
q-44 0 -73 -17t-49.5 -55t-31.5 -109.5t-16 -169.5t-4 -245q0 -243 4 -358zM1137 -233q-83 0 -132 36.5t-77 129.5t-37 262h-33q-3 -46 -16 -82t-41.5 -70t-83 -53t-131.5 -19q-150 0 -253.5 41t-166 127t-90 208t-27.5 296q0 173 36 296.5t115.5 210t208.5 128t312 41.5
q181 0 311.5 -42t208.5 -123.5t114 -191t36 -253.5q0 -204 -110 -298t-382 -120v-27q97 -37 236 -37q57 0 93 8.5t53 26.5t22.5 38.5t5.5 53.5h80q15 -323 -41.5 -455t-210.5 -132z" />
    <glyph glyph-name="R" unicode="R" horiz-adv-x="1490" 
d="M668 1212h-43v-534h39q128 0 184.5 59t56.5 217q0 86 -9.5 135.5t-39 77.5t-71 36.5t-117.5 8.5zM1180 -23q-175 0 -253.5 64.5t-82.5 216.5q-4 121 -6 203q-1 90 -42 115.5t-165 23.5h-6v-211v-18q0 -85 0.5 -119t7 -77.5t14.5 -54t32 -24.5t49.5 -15t76.5 -1v-80h-797
v80q108 0 127 50.5t19 311.5v7v393v7q0 261 -19 311t-127 50v80h883q266 0 369.5 -68.5t103.5 -248.5q0 -67 -14.5 -116.5t-47 -83t-72 -55t-101.5 -33t-123.5 -16t-149.5 -5.5v-39q168 -1 263.5 -27t136 -79t40.5 -144v-35q0 -102 8 -140t35 -38q25 0 37 34.5t13 122.5
q0 95 -9 181h84q2 -59 2 -158q0 -113 -11 -179t-43.5 -110t-86.5 -60t-145 -16z" />
    <glyph glyph-name="S" unicode="S" horiz-adv-x="1253" 
d="M817 178q0 76 -65 131t-220 111q-248 85 -360.5 197.5t-112.5 289.5q0 188 129.5 301t378.5 113q70 0 140 -16.5t116 -35.5t93.5 -35.5t78.5 -16.5q32 0 51 16.5t33 56.5h66q-3 -58 -3 -256.5t3 -255.5h-70q-233 455 -502 455q-66 0 -105.5 -33t-39.5 -92
q0 -65 56.5 -115.5t197.5 -99.5q136 -46 227.5 -92.5t161.5 -107.5t102.5 -139.5t32.5 -180.5q0 -106 -36 -184.5t-103 -126t-155.5 -70.5t-198.5 -23q-94 0 -183.5 20t-143 43.5t-104 43.5t-75.5 20q-32 0 -50.5 -22t-25.5 -74h-72q5 58 5 270.5t-3 286.5h68
q67 -126 153.5 -236t192 -186t197.5 -76q145 0 145 119z" />
    <glyph glyph-name="T" unicode="T" horiz-adv-x="1366" 
d="M449 1210q-55 -22 -110 -90.5t-97 -157.5t-73.5 -181t-47.5 -173h-74q3 86 3 348t-3 334h1274q-5 -77 -5.5 -334t5.5 -348h-76q-24 112 -70.5 235t-115.5 231.5t-135 135.5h-2v-759v-9v-94t2 -74t4 -61.5t8.5 -45t12.5 -35.5t20.5 -22t27.5 -17t37 -7.5t47.5 -5.5h59.5
v-80h-910v80h60t47.5 5.5t38 8t28 17t20.5 23t13 36.5t9 45.5t4 63t2 76v96.5v759h-4z" />
    <glyph glyph-name="U" unicode="U" horiz-adv-x="1320" 
d="M1087 506q0 157 -20 275.5t-60.5 200t-91.5 134.5t-122 94v80h520v-80q-77 -35 -110.5 -146t-33.5 -335v-231q0 -133 -23.5 -226.5t-78.5 -160.5t-148 -99t-229 -32q-308 0 -430.5 116t-120.5 387v418q0 196 -9 240q-11 51 -49 63q-24 8 -87 8v78h690v-78
q-55 0 -64.5 -43t-9.5 -268v-375q0 -299 244 -299q120 0 176.5 69.5t56.5 209.5z" />
    <glyph glyph-name="V" unicode="V" horiz-adv-x="1351" 
d="M954 0h-551q4 35 -86 344.5t-178 591.5q-44 145 -79 202t-95 72v80h805v-80q-114 0 -141.5 -65t12.5 -211l201 -784h51q111 511 111 804q0 120 -37 176t-111 80v80h530v-82q-109 -49 -222.5 -359.5t-209.5 -848.5z" />
    <glyph glyph-name="W" unicode="W" horiz-adv-x="2158" 
d="M1020 313q-39 -150 -45 -313h-592q4 37 -86.5 378.5t-157.5 557.5q-42 144 -78 201.5t-96 72.5v80h1618v-80q-112 0 -135 -65t16 -211l195 -825h39q61 290 88 498t20 329.5t-32.5 184t-71.5 87.5v82h489v-82q-84 -34 -163.5 -241t-180.5 -654q-40 -166 -45 -313h-594
q3 26 -41.5 206.5t-89.5 336.5q-30 -118 -57 -230zM641 934l193 -825h38q135 555 95 809q-11 109 -63.5 195.5t-137.5 115.5q-95 -21 -125.5 -89.5t0.5 -205.5z" />
    <glyph glyph-name="X" unicode="X" horiz-adv-x="1261" 
d="M446 80v-80h-464v80q65 42 167 186.5t220 360.5q-202 344 -270 450t-109 133v80h723v-76q-39 -6 -62.5 -32t-22 -71.5t33.5 -100.5l174 -308q68 168 58 317.5t-95 190.5v80h471v-80q-25 -13 -51 -37t-58 -69t-56 -81.5t-66 -112t-66.5 -121.5t-77.5 -146
q126 -219 203 -340t111 -160t69 -63v-80h-748v80q45 5 69.5 28.5t21.5 72t-41 116.5l-152 276q-147 -393 18 -493z" />
    <glyph glyph-name="Y" unicode="Y" horiz-adv-x="1327" 
d="M1096 0h-842v80q51 0 78 1t51 16.5t32.5 27t15 58t7 82.5t0.5 126v19l-282 561q-58 126 -95.5 175.5t-95.5 63.5v80h787v-80q-91 0 -117 -64t18 -177l185 -463h12q61 146 87 271t17.5 210.5t-36.5 141.5t-74 81v80h518v-80q-182 -81 -453 -807v-83.5t1.5 -66t3.5 -54.5
t7.5 -40t11 -32t17.5 -20t23.5 -15t32 -7t40 -5h50.5v-80z" />
    <glyph glyph-name="Z" unicode="Z" horiz-adv-x="1382" 
d="M106 610q2 85 2 339.5t-2 340.5h1184v-92q-8 -13 -48 -69t-80 -115.5t-122 -190t-178 -293.5l-270 -450h43q67 0 124.5 15t104.5 41t89 70t76 93.5t68 120t61.5 141t60.5 164.5h67q-4 -92 -4 -362.5t4 -362.5h-1237v88q64 82 94.5 122.5t121 174.5t194.5 303l311 524h-90
q-83 0 -157 -42.5t-136 -124t-114 -188t-101 -247.5h-66z" />
    <glyph glyph-name="a" unicode="a" horiz-adv-x="1329" 
d="M92 864q0 88 46 148t157 94.5t287 34.5q222 0 347.5 -44t178.5 -138t53 -259q0 -57 -3 -197t-3 -186q0 -95 7.5 -125t31.5 -30q19 0 28.5 21t16.5 93t0 211h70q9 -155 0 -253t-42 -155t-84 -78t-134 -21q-151 0 -210 69t-61 242h-18q-61 -311 -365 -311q-204 0 -286 71.5
t-82 224.5q0 307 374 310q84 1 140 10t89 23t49.5 43t21 58t4.5 79v30q0 126 -67 181t-198 55q-72 0 -145 -27l6 -22q33 8 61 8q90 0 144.5 -43t54.5 -127q0 -184 -233 -184q-109 0 -172.5 50t-63.5 144zM567 182q68 0 103 44.5t35 150.5v198q-21 -15 -59 -31t-68.5 -30.5
t-60.5 -37.5t-47 -63t-17 -96q0 -72 28.5 -103.5t85.5 -31.5z" />
    <glyph glyph-name="b" unicode="b" horiz-adv-x="1318" 
d="M733 -14q-92 0 -168 17.5t-116 38.5t-83 38.5t-77 17.5q-40 0 -65 -27.5t-25 -70.5h-84v1200q0 73 -25 98t-106 25v78q76 2 303 17.5t288 25.5q-3 -136 -19.5 -333t-18.5 -273h20q34 159 111 233t217 74q216 0 299 -131.5t78 -444.5q3 -312 -124.5 -447.5t-404.5 -135.5z
M569 254q0 -103 23 -144.5t92 -41.5q51 0 76 32t38.5 137.5t14.5 321.5q0 146 -14 224.5t-38 104t-67 25.5q-53 0 -89 -62t-36 -202v-395z" />
    <glyph glyph-name="c" unicode="c" horiz-adv-x="1216" 
d="M532 616q0 -121 17 -201t53.5 -125t85 -63t121.5 -18q113 0 180 57.5t74 173.5h80q0 -111 -24 -193t-80 -145.5t-155 -96t-241 -32.5q-104 0 -188.5 17t-160 58.5t-126.5 108t-81 170.5t-30 240q0 304 147.5 442t438.5 138q261 0 380.5 -91t119.5 -251q0 -116 -60.5 -185
t-171.5 -69q-229 0 -229 213q0 100 53 162.5t150 62.5q29 0 76 -12l8 27q-79 43 -172 43q-47 0 -83 -8.5t-71.5 -36t-58.5 -73.5t-37.5 -125t-14.5 -188z" />
    <glyph glyph-name="d" unicode="d" horiz-adv-x="1306" 
d="M623 180q78 0 100 137h-6l6 2q8 49 8 138v569q-27 12 -59 12q-26 0 -42 -1.5t-34 -8.5t-28.5 -20t-21.5 -36.5t-16.5 -57t-10.5 -82.5t-7 -113t-2 -148q0 -149 13 -236t36.5 -121t63.5 -34zM801 0q4 57 4 317h-29q-23 -171 -107 -254t-231 -83q-210 0 -297.5 134.5
t-85.5 434.5q-1 157 30.5 268.5t94 178.5t148.5 97.5t202 30.5q130 0 201 -24v106q0 68 -34.5 95.5t-137.5 27.5v80q87 -2 322 11.5t305 23.5v-1241q0 -73 23 -98t98 -25v-80h-506z" />
    <glyph glyph-name="e" unicode="e" horiz-adv-x="1267" 
d="M526 618v-6h260q-1 146 -9.5 239t-27.5 139t-40.5 61.5t-55.5 15.5t-55.5 -15.5t-39 -62t-25 -137t-7.5 -234.5zM1198 418q0 -105 -24.5 -183t-81.5 -139t-158 -92t-246 -31q-113 0 -202 14.5t-172 54.5t-137.5 105t-87 171.5t-32.5 248.5q0 306 147.5 443t450.5 137
q123 0 217.5 -24.5t156 -66.5t100.5 -104.5t55 -133t16 -156.5q0 -38 -4 -132h-668q12 -187 82.5 -258t233.5 -71q275 0 272 217h82z" />
    <glyph glyph-name="f" unicode="f" horiz-adv-x="745" 
d="M291 1219q0 -128 76.5 -195.5t218.5 -67.5h129v-77h-129v-678q0 -68 33 -95.5t129 -27.5v-78q-78 2 -378 2t-382 -2v78q88 0 116.5 27.5t28.5 95.5v678h-115v77h261v31q-147 23 -217 80t-70 172q0 135 103.5 207t297.5 72q363 0 363 -273q0 -100 -46.5 -151.5
t-125.5 -51.5q-97 0 -143 53t-46 136q0 88 48 133t116 45q33 0 51 -4l4 18q-47 23 -104 23q-99 0 -159 -55t-60 -172z" />
    <glyph glyph-name="g" unicode="g" horiz-adv-x="1269" 
d="M752 756q0 132 -11 198.5t-35.5 90.5t-72.5 24q-47 0 -70.5 -24.5t-34 -90.5t-10.5 -198q0 -118 10.5 -178.5t35 -84.5t71.5 -24q69 0 93 57.5t24 229.5zM1016 -127q0 32 -20.5 48t-71.5 16q-107 0 -344 -4.5t-287 -4.5h-33q1 -28 7.5 -47t29 -39.5t62.5 -32.5t111 -20
t171 -8t171 5t110 12.5t61 20.5t27.5 24.5t5.5 29.5zM641 -283q-173 0 -287 9t-171 27t-78 39t-21 52q0 38 33 63.5t88 31.5v34q-92 16 -138.5 65t-46.5 152q0 107 74 175t203 67q27 -1 71.5 -1t69.5 -1v39q-198 15 -280 84.5t-82 224.5q-2 195 124.5 281t426.5 86
q54 0 155 -6t138 -6q28 0 28 22q0 14 -14.5 22t-48.5 19q-50 18 -76.5 46.5t-26.5 88.5q0 70 52 112t155 42q223 0 223 -195q0 -101 -59 -155t-168 -54q-26 0 -87.5 6t-96.5 7v-39q117 -7 193.5 -27.5t120.5 -61t61.5 -94.5t17.5 -135q2 -188 -126 -267t-439 -79
q-159 0 -240.5 -7.5t-107 -21.5t-25.5 -40q0 -50 86 -50q14 0 246 9.5t338 9.5q157 0 239 -72.5t82 -195.5q0 -66 -15.5 -113t-55 -85.5t-108.5 -61t-174 -34.5t-253 -12z" />
    <glyph glyph-name="h" unicode="h" horiz-adv-x="1380" 
d="M653 78v-78h-657v78q72 0 95.5 27.5t23.5 95.5v999q0 73 -22 98t-93 25v78q74 2 295.5 17.5t279.5 25.5q-4 -128 -27 -344.5t-26 -319.5h17q36 208 120.5 286.5t251.5 78.5q189 0 272 -100.5t83 -311.5v-532q0 -66 26.5 -94.5t93.5 -28.5v-78h-657v78q49 0 65.5 22.5
t16.5 77.5v535q0 113 -25.5 156.5t-85.5 43.5q-54 0 -92.5 -56.5t-38.5 -188.5v-490q0 -55 17.5 -77.5t66.5 -22.5z" />
    <glyph glyph-name="i" unicode="i" horiz-adv-x="684" 
d="M328 1511q140 0 210 -38.5t70 -122.5q0 -85 -69.5 -122.5t-210.5 -37.5q-144 0 -214.5 37.5t-70.5 122.5q0 86 70.5 123.5t214.5 37.5zM690 0h-694v78q72 0 95.5 27.5t23.5 95.5v714q0 69 -25 95t-106 26v80h585v-915q0 -68 24 -95.5t97 -27.5v-78z" />
    <glyph glyph-name="j" unicode="j" horiz-adv-x="692" 
d="M354 1511q142 0 212.5 -38.5t70.5 -122.5q0 -85 -70 -122.5t-213 -37.5q-142 0 -212 37.5t-70 122.5q0 86 70 123.5t212 37.5zM598 90q0 -178 -86.5 -276.5t-237.5 -98.5q-166 0 -236.5 64t-70.5 186q0 92 45 143.5t127 51.5q84 0 123 -43.5t39 -118.5
q0 -81 -43.5 -122.5t-103.5 -41.5q-34 0 -52 4l-4 -28q45 -11 80 -11q95 0 155 55t60 173q0 112 -60.5 169t-189.5 60v659q0 68 -29 95.5t-116 27.5v78h600v-1026z" />
    <glyph glyph-name="k" unicode="k" horiz-adv-x="1406" 
d="M575 1444v-770q97 47 159.5 122t62.5 144q0 44 -25.5 67t-91.5 33v76h647v-76q-242 -152 -696 -397l8 -29q131 31 192.5 41.5t124.5 10.5q58 0 99.5 -10.5t77.5 -37t54.5 -80t18.5 -132.5v-62q0 -103 9.5 -139.5t37.5 -36.5q20 0 31.5 22.5t18.5 93t6 197.5h82
q4 -129 -6 -217.5t-31.5 -144.5t-62.5 -86.5t-90.5 -41.5t-125.5 -11q-171 0 -245 70.5t-74 238.5q0 26 3 89t3 99q0 84 -105 84q-59 0 -82 -2v-358q0 -68 29 -95.5t113 -27.5v-78h-733v78q80 0 105.5 27.5t25.5 95.5v999q0 73 -25 98t-106 25v78q76 2 303 17.5t288 25.5z
" />
    <glyph glyph-name="l" unicode="l" horiz-adv-x="688" 
d="M575 1444v-1243q0 -68 26.5 -95.5t103.5 -27.5v-78h-721v78q80 0 105.5 27.5t25.5 95.5v999q0 73 -25 98t-106 25v78q76 2 303 17.5t288 25.5z" />
    <glyph glyph-name="m" unicode="m" horiz-adv-x="2076" 
d="M1266 672v-469q0 -67 16.5 -96t58.5 -29v-78h-612v78q49 0 65.5 27.5t16.5 95.5v508q0 115 -25 159.5t-84 44.5q-66 0 -99.5 -54t-33.5 -193v-465q0 -67 17.5 -95t66.5 -28v-78h-659v78q73 0 97 27.5t24 97.5v712q0 72 -25 97.5t-102 25.5v78h538q-4 -204 -4 -336h19
q16 108 47.5 180.5t80 112.5t106 56t136.5 16q161 0 229.5 -82t76.5 -283h20q29 204 119 284.5t252 80.5q188 0 271 -100.5t83 -311.5v-530q0 -67 26.5 -96t94.5 -29v-78h-658v78q49 0 65.5 27.5t16.5 95.5v508q0 116 -24.5 160t-83.5 44q-66 0 -99.5 -53t-33.5 -188z" />
    <glyph glyph-name="n" unicode="n" horiz-adv-x="1380" 
d="M653 78v-78h-657v78q72 0 95.5 27.5t23.5 95.5v714q0 72 -24.5 97.5t-102.5 25.5v78h538q-4 -204 -4 -336h19q19 109 49 180t76.5 112t104 57t140.5 16q189 0 272 -100.5t83 -311.5v-532q0 -66 26.5 -94.5t93.5 -28.5v-78h-657v78q49 0 65.5 22.5t16.5 77.5v535
q0 113 -25.5 156.5t-85.5 43.5q-54 0 -92.5 -56.5t-38.5 -188.5v-490q0 -55 17.5 -77.5t66.5 -22.5z" />
    <glyph glyph-name="o" unicode="o" horiz-adv-x="1292" 
d="M1235 567q2 -305 -137 -449.5t-453 -144.5q-315 0 -453 142.5t-135 451.5q-2 303 135 439.5t453 136.5q314 0 453 -139t137 -437zM770 569q0 163 -7 263.5t-24.5 151t-38 66t-55.5 15.5q-47 0 -71 -30t-39 -140t-15 -326q0 -164 7.5 -267.5t24 -157.5t38 -72.5
t55.5 -18.5q46 0 71 35.5t40 150.5t14 330z" />
    <glyph glyph-name="p" unicode="p" horiz-adv-x="1320" 
d="M811 569q0 139 -11 213t-35 102.5t-69 28.5q-61 0 -95 -65.5t-34 -226.5v-494q48 -23 101 -23q60 0 88.5 32t41.5 129.5t13 303.5zM745 -184v-78h-761v78q80 0 105.5 27.5t25.5 95.5v974q0 74 -21.5 99.5t-91.5 25.5v78h524q-6 -144 -6 -291h15q46 179 128 249.5
t226 70.5q211 0 294 -132t81 -446q1 -311 -116.5 -444t-365.5 -131q-125 0 -215 51v-104q0 -68 36 -95.5t142 -27.5z" />
    <glyph glyph-name="q" unicode="q" horiz-adv-x="1323" 
d="M635 1042q-50 0 -74.5 -31.5t-38 -138t-14.5 -323.5q0 -147 14 -227t38 -107t67 -27q21 0 37 9.5t33 36.5t26.5 88t9.5 153v393q0 95 -21 134.5t-77 39.5zM762 -74q27 168 31 406h-23q-31 -192 -113.5 -272t-220.5 -80q-216 0 -299 130.5t-78 444.5q-3 311 124.5 445.5
t404.5 134.5q88 0 160.5 -17t111 -37.5t80 -37.5t74.5 -17q38 0 64 28t26 70h82v-1218q0 -52 25.5 -71t105.5 -19v-78h-735v78q75 0 111.5 11.5t48.5 32t20 66.5z" />
    <glyph glyph-name="r" unicode="r" horiz-adv-x="1021" 
d="M754 80v-80h-758v80q72 0 96.5 28.5t24.5 92.5v714q0 68 -25.5 94.5t-103.5 26.5v80h538q-2 -113 -2 -377h17q51 398 264 398q192 0 192 -263q0 -129 -43.5 -209.5t-134.5 -80.5q-39 0 -68 16t-46 38t-31 44.5t-29 38.5t-33 16q-21 0 -31 -21t-10 -73v-416
q0 -89 34.5 -118t148.5 -29z" />
    <glyph glyph-name="s" unicode="s" horiz-adv-x="1114" 
d="M670 145q0 61 -59.5 108.5t-198.5 102.5q-351 153 -351 422q0 176 113 274.5t340 98.5q73 0 143 -18t122 -36t79 -18q53 0 66 49h77q-3 -51 -3 -214.5t3 -213.5h-79q-80 169 -185.5 270t-218.5 101q-108 0 -108 -92q0 -56 56.5 -103t174.5 -94q196 -76 306 -188.5
t110 -274.5q0 -179 -119.5 -262.5t-333.5 -83.5q-92 0 -177.5 20t-144 40t-83.5 20q-57 0 -62 -53h-82q4 50 4.5 227.5t-2.5 229.5h78q95 -192 207 -299t223 -107q105 0 105 94z" />
    <glyph glyph-name="t" unicode="t" horiz-adv-x="823" 
d="M571 1430v-314h217v-80h-217v-710q0 -98 11.5 -133t42.5 -35q15 0 26 10.5t20.5 39t14.5 86t6 144.5q0 67 -4 133h86v-143q-1 -130 -14 -210.5t-47.5 -136.5t-93 -78.5t-152.5 -22.5q-71 0 -121.5 8.5t-95.5 31.5t-72.5 63.5t-43 104.5t-15.5 154v694h-111v80
q200 0 329.5 84t160.5 230h73z" />
    <glyph glyph-name="u" unicode="u" horiz-adv-x="1380" 
d="M854 0q4 113 4 336h-24q-17 -108 -46.5 -178t-76.5 -109t-103.5 -54t-138.5 -15q-188 0 -271 98t-83 305v532q0 74 -23.5 98.5t-99.5 24.5v78h592q-3 -16 -9 -135t-6 -180v-414q0 -103 25.5 -143.5t85.5 -40.5q65 0 98 57.5t33 200.5v411q0 60 -3 88t-18.5 48.5t-41 25
t-76.5 4.5v78h604q-3 -20 -6.5 -134t-3.5 -181v-600q0 -72 23.5 -97.5t96.5 -25.5v-78h-532z" />
    <glyph glyph-name="v" unicode="v" horiz-adv-x="1105" 
d="M819 0h-543l-184 817q-27 123 -51.5 169t-69.5 52v78h672v-78q-68 0 -82 -46t12 -179l146 -733h33q79 464 79 655q0 133 -17.5 205.5t-68.5 95.5v80h375v-80q-48 -16 -132 -320t-169 -716z" />
    <glyph glyph-name="w" unicode="w" horiz-adv-x="1847" 
d="M819 0h-543l-184 819q-25 116 -48 162t-73 57v78h1383v-80q-75 -18 -37 -217l147 -739h35q42 247 60 388.5t18 250.5q0 245 -141 317v80h428v-80q-48 -16 -130.5 -318t-168.5 -718h-525l-112 530q-16 -74 -55.5 -269.5t-53.5 -260.5zM571 817l148 -737h37
q66 297 86.5 440.5t1.5 235.5l-19 90q-18 91 -52 138t-99 79q-77 -31 -100.5 -85t-2.5 -161z" />
    <glyph glyph-name="x" unicode="x" horiz-adv-x="1183" 
d="M391 80v-80h-411v80q65 43 158.5 167.5t183.5 301.5q-158 270 -226.5 367t-111.5 120v80h682v-76q-42 -15 -47 -60t34 -110l142 -260q59 134 56.5 258.5t-71.5 167.5v80h418v-80q-67 -35 -147 -150.5t-189 -320.5q108 -187 172.5 -287.5t99 -139t70.5 -58.5v-80h-694v78
q29 14 41.5 34t5.5 59t-41 95l-127 242q-43 -94 -60 -177t-2 -150t64 -101z" />
    <glyph glyph-name="y" unicode="y" horiz-adv-x="1110" 
d="M391 -285q-334 0 -334 209q0 88 66.5 137.5t191.5 49.5q127 0 186.5 -36t59.5 -110q0 -52 -41.5 -86.5t-113.5 -48.5l4 -37q128 21 196 94t68 181q0 61 -30.5 84.5t-92.5 23.5h-285l-194 739q-22 73 -41.5 97t-59.5 26v78h654v-78q-29 -3 -44 -15t-21 -42t9 -82l158 -661
h41q134 730 -55 798v80h424v-80q-67 -26 -115 -173.5t-162 -629.5q-17 -72 -26 -110q-46 -203 -151.5 -305.5t-291.5 -102.5z" />
    <glyph glyph-name="z" unicode="z" horiz-adv-x="1251" 
d="M88 528q4 75 4 294t-4 294h1077v-80q-3 -5 -50.5 -72t-123 -185.5t-176.5 -293.5l-237 -405h26q77 0 137 22t105 61t85 108t70.5 147t67.5 194h76q-5 -75 -5 -306t5 -306h-1098v78q166 220 365 553l241 409h-65q-140 0 -241.5 -125.5t-180.5 -386.5h-78z" />
    <glyph glyph-name="uni00A0" unicode="&#xa0;" horiz-adv-x="456" 
 />
  </font>
</defs>
</svg>
