<svg xmlns="http://www.w3.org/2000/svg">
<defs>
<font id="OhnoFatfaceDemo-36PtNarrow" horiz-adv-x="1028" >
  <font-face 
    font-family="Ohno Fatface Demo 36 Pt Narrow"
    font-weight="560"
    font-stretch="semi-condensed"
    units-per-em="2048"
    panose-1="2 15 10 6 6 2 5 9 4 4"
    ascent="1518"
    descent="-530"
    x-height="1116"
    cap-height="1290"
    bbox="-63 -473 1985 1772"
    underline-thickness="102"
    underline-position="-204"
    unicode-range="U+0020-00A0"
  />
<missing-glyph horiz-adv-x="2019" 
d="M1409 268q0 -148 -7.5 -223.5t-23.5 -102t-47 -26.5q-30 0 -45 27t-22.5 101.5t-8.5 223.5q-1 147 6.5 222.5t23.5 101.5t46 26q31 0 47 -26t23.5 -101t7.5 -223zM1661 266q0 191 -77 286t-253 95t-251.5 -93.5t-75.5 -287.5t75.5 -286.5t251.5 -92.5t253 94t77 285z
M735 1040q-1 -148 -8 -222t-21.5 -101t-43.5 -27q-30 0 -45 27t-22 101t-7 222q-1 147 6 222t22.5 102t45.5 27q29 0 44 -26.5t22.5 -102.5t6.5 -222zM981 1038q0 191 -74.5 285t-244.5 94q-171 0 -245.5 -92.5t-74.5 -286.5q0 -193 74.5 -284.5t245.5 -91.5q170 0 244.5 93
t74.5 283zM1909 647q0 -193 -18 -339t-60 -265.5t-109.5 -200t-169 -135.5t-235 -79.5t-309.5 -24.5q-177 0 -309.5 23t-234 76.5t-168.5 132.5t-109 198.5t-60 267.5t-18 346q0 199 18 347t60 268t109 199.5t168 132.5t234 76.5t310 23.5q176 0 310 -25t235 -80t168.5 -136
t109.5 -201t60 -266t18 -339zM1954 649q0 202 -19 354.5t-63 277.5t-114.5 209.5t-176.5 141.5t-246.5 83t-326.5 26t-325 -24t-245.5 -79.5t-176.5 -138.5t-114 -208t-62.5 -279.5t-18.5 -362.5q0 -207 18.5 -361t62.5 -279t114 -208t176.5 -138.5t245.5 -80t325 -24.5
t326.5 26t246.5 83.5t176.5 141.5t114.5 209t63 277t19 354zM1985 649q0 -206 -19.5 -362.5t-65.5 -285t-119.5 -215.5t-183 -146t-254.5 -86t-335 -27q-191 0 -334.5 25.5t-253 83t-182 143t-118.5 214t-65.5 287t-19.5 369.5q0 212 19.5 370.5t65.5 287t118.5 214
t182.5 143t253 83t334 25.5q190 0 335 -27t254.5 -86t183 -146t119.5 -215.5t65.5 -285t19.5 -363.5zM1042 866q0 -108 -8 -128q-9 -23 -45 -26q-12 -1 -33 -1v-29h351v29q-38 0 -45 22t-7 133v164q25 2 74 2q51 0 76 -2v-164q0 -112 -6.5 -133.5t-44.5 -21.5v-29h327v29

<glyph glyph-name=".notdef" horiz-adv-x="2019" 
d="M1409 268q0 -148 -7.5 -223.5t-23.5 -102t-47 -26.5q-30 0 -45 27t-22.5 101.5t-8.5 223.5q-1 147 6.5 222.5t23.5 101.5t46 26q31 0 47 -26t23.5 -101t7.5 -223zM1661 266q0 191 -77 286t-253 95t-251.5 -93.5t-75.5 -287.5t75.5 -286.5t251.5 -92.5t253 94t77 285z
M735 1040q-1 -148 -8 -222t-21.5 -101t-43.5 -27q-30 0 -45 27t-22 101t-7 222q-1 147 6 222t22.5 102t45.5 27q29 0 44 -26.5t22.5 -102.5t6.5 -222zM981 1038q0 191 -74.5 285t-244.5 94q-171 0 -245.5 -92.5t-74.5 -286.5q0 -193 74.5 -284.5t245.5 -91.5q170 0 244.5 93
t74.5 283zM1909 647q0 -193 -18 -339t-60 -265.5t-109.5 -200t-169 -135.5t-235 -79.5t-309.5 -24.5q-177 0 -309.5 23t-234 76.5t-168.5 132.5t-109 198.5t-60 267.5t-18 346q0 199 18 347t60 268t109 199.5t168 132.5t234 76.5t310 23.5q176 0 310 -25t235 -80t168.5 -136
t109.5 -201t60 -266t18 -339zM1954 649q0 202 -19 354.5t-63 277.5t-114.5 209.5t-176.5 141.5t-246.5 83t-326.5 26t-325 -24t-245.5 -79.5t-176.5 -138.5t-114 -208t-62.5 -279.5t-18.5 -362.5q0 -207 18.5 -361t62.5 -279t114 -208t176.5 -138.5t245.5 -80t325 -24.5
t326.5 26t246.5 83.5t176.5 141.5t114.5 209t63 277t19 354zM1985 649q0 -206 -19.5 -362.5t-65.5 -285t-119.5 -215.5t-183 -146t-254.5 -86t-335 -27q-191 0 -334.5 25.5t-253 83t-182 143t-118.5 214t-65.5 287t-19.5 369.5q0 212 19.5 370.5t65.5 287t118.5 214
t182.5 143t253 83t334 25.5q190 0 335 -27t254.5 -86t183 -146t119.5 -215.5t65.5 -285t19.5 -363.5zM1042 866q0 -108 -8 -128q-9 -23 -45 -26q-12 -1 -33 -1v-29h351v29q-38 0 -45 22t-7 133v164q25 2 74 2q51 0 76 -2v-164q0 -112 -6.5 -133.5t-44.5 -21.5v-29h327v29
q-48 0 -56.5 20.5t-8.5 128.5v6v269q0 169 8 198q8 28 35 32q8 1 22 1v27h-327v-27q38 0 44.5 -32.5t6.5 -198.5v-72q-27 -2 -76 -2t-74 2v72q0 165 7 198t45 33v27h-351v-27q63 0 74.5 -30.5t11.5 -186.5v-14v-269zM662 -94v26q-71 17 -121 96.5t-71 177.5t-21 202v26l4 2
q11 -20 37 -69.5t45 -84t38 -65.5l185 -311h196q-18 144 -18 330q0 185 19.5 267t62.5 91v29h-277v-29q168 -55 168 -420v-24l-4 -5q-17 21 -35 50t-46 78l-36 63q-80 126 -108.5 187.5t-26.5 99.5h-288v-29q41 0 48 -21t7 -143v-18v-144q0 -319 -55 -336v-26h297z" />
    <glyph glyph-name=".null" horiz-adv-x="0" 
 />
    <glyph glyph-name="nonmarkingreturn" horiz-adv-x="682" 
 />
    <glyph glyph-name="space" unicode=" " horiz-adv-x="331" 
 />
    <glyph glyph-name="comma" unicode="," horiz-adv-x="514" 
d="M35 -248v49q103 5 184.5 31t127 62.5t68.5 73.5t23 71q0 31 -28 31q-15 0 -42.5 -13.5t-67 -27t-81.5 -13.5q-95 0 -153 58.5t-58 171.5q0 112 63.5 183t184.5 71q120 0 184 -79.5t64 -240.5q0 -190 -116.5 -303t-352.5 -125z" />
    <glyph glyph-name="period" unicode="." horiz-adv-x="509" 
d="M256 500q113 0 180.5 -69t67.5 -187t-67.5 -187t-180.5 -69q-115 0 -182.5 68.5t-67.5 187.5t67.5 187.5t182.5 68.5z" />
    <glyph glyph-name="zero" unicode="0" horiz-adv-x="1044" 
d="M1020 655q1 -250 -48.5 -396t-156.5 -211.5t-291 -65.5t-291 64t-156 210t-48 399q-1 246 48 388.5t156 206t291 63.5q272 0 384.5 -149.5t111.5 -508.5zM596 657q-1 212 -4.5 334t-13 186.5t-21 82.5t-33.5 18t-34 -18t-21 -82.5t-12.5 -187t-3.5 -333.5
q0 -212 3.5 -337.5t12.5 -193t21 -88t34 -20.5t34.5 21t22 88t13 193.5t2.5 336.5z" />
    <glyph glyph-name="one" unicode="1" horiz-adv-x="569" 
d="M584 0h-594v37q57 0 76.5 19.5t19.5 82.5v869q0 57 -15 83.5t-55 26.5h-32v35q98 6 175 18t147.5 34.5t110 61t40.5 91.5h35v-1219q0 -65 20 -83.5t72 -18.5v-37z" />
    <glyph glyph-name="two" unicode="2" horiz-adv-x="974" 
d="M229 354q91 0 145 -48.5t54 -137.5q0 -84 -55 -134t-148 -50q-107 0 -161 57t-54 160q0 70 29 130.5t75 105.5t101.5 88t111 88t101.5 95t75 119.5t29 151.5q0 130 -56 189t-163 59q-150 0 -223 -105l16 -10q54 64 156 64q96 0 143.5 -56t47.5 -149q2 -87 -54 -147
t-166 -60q-106 0 -159.5 61.5t-53.5 165.5q0 146 110 231t351 85q238 0 355.5 -79.5t117.5 -260.5q0 -101 -30 -175t-83.5 -119t-119 -75t-145.5 -50t-154 -37t-153.5 -43.5t-135.5 -61.5l8 -15q92 45 224 45q104 0 229.5 -11t183.5 -11q74 0 102.5 43.5t22.5 167.5h33
q10 -105 10 -226q0 -218 -43 -316.5t-141 -98.5q-56 0 -97.5 22.5t-67 58t-47 78.5t-44.5 86.5t-52 79t-77.5 58t-112.5 22.5q-105 0 -168 -57l15 -15q52 37 118 37z" />
    <glyph glyph-name="three" unicode="3" horiz-adv-x="987" 
d="M334 51q105 0 154 65.5t49 231.5q0 88 -11 144.5t-34 84t-48.5 37t-64.5 9.5q-64 0 -143 -7v48q79 -7 145 -7q63 0 93.5 19.5t45.5 80.5t15 185q0 162 -54 226.5t-164 64.5q-146 0 -215 -88l15 -12q52 49 145 49q96 1 143.5 -51.5t47.5 -143.5q0 -81 -54 -137.5
t-157 -56.5q-108 0 -161.5 58.5t-53.5 158.5q0 138 110.5 218.5t349.5 80.5q235 0 350 -79t115 -263q0 -91 -30.5 -153t-91.5 -96.5t-137.5 -49.5t-182.5 -17v-22q88 -1 152.5 -8.5t125 -27.5t98.5 -53.5t60.5 -88t22.5 -129.5q0 -340 -482 -340q-245 0 -359 80.5
t-114 220.5q0 99 54.5 158t162.5 59q107 0 162 -57t53 -138q0 -91 -47.5 -145.5t-142.5 -53.5q-91 0 -150 52l-14 -17q87 -90 242 -90z" />
    <glyph glyph-name="four" unicode="4" horiz-adv-x="999" 
d="M969 35v-35h-766v35q50 0 83.5 5t59 11t40.5 28t24 37t12.5 58t4.5 72.5t1 96.5v13h-422v35q123 105 169.5 342t14.5 557h521q-55 -182 -114 -320t-115.5 -230.5t-123 -158.5t-129.5 -103.5t-143 -65.5v-21h342v176q221 188 401 723h31v-887q63 63 92 232h25v-502h-25
q-14 90 -39 149.5t-53 79.5q0 -233 15.5 -280t93.5 -47z" />
    <glyph glyph-name="five" unicode="5" horiz-adv-x="985" 
d="M485 -20q-245 0 -358 79.5t-113 219.5q0 97 54.5 155t164.5 58q109 0 164.5 -56.5t53.5 -136.5q0 -89 -48 -141.5t-145 -51.5q-101 0 -154 56l-16 -17q84 -94 240 -94q108 0 156 71.5t48 262.5q0 90 -13 149t-41.5 90t-63.5 42.5t-88 11.5q-79 0 -141.5 -28.5
t-92.5 -74.5h-35q4 158 -1 396t-17 319h90q0 -4 -15.5 -155t-23.5 -308h25q21 201 46 304.5t59 140.5t91 37q56 0 86.5 -46.5t63.5 -148.5q15 -45 26 -72.5t32.5 -64t45 -56.5t61 -34.5t83.5 -14.5q96 0 159 52l-14 20q-64 -39 -143 -39q-74 0 -122 50.5t-48 138.5
q0 105 55 160t145 55q102 0 157.5 -59t55.5 -158q0 -129 -71 -195t-197 -66q-139 0 -277.5 14.5t-162.5 14.5q-154 0 -156 -246q99 149 430 152q78 1 141 -8.5t120.5 -35t96.5 -66t62 -106t23 -151.5q0 -419 -478 -419z" />
    <glyph glyph-name="six" unicode="6" 
d="M457 309q0 -175 13.5 -235t53.5 -60q39 0 53.5 71t14.5 273q0 83 -7.5 127.5t-19.5 58t-33 13.5q-18 0 -30 -8.5t-23 -33t-16.5 -76t-5.5 -130.5zM696 1239q-65 0 -109 -16.5t-75 -53t-48 -102.5t-24.5 -156t-7.5 -223q0 -33 -4 -225h18q9 147 74.5 202.5t194.5 55.5
q150 0 225.5 -87.5t75.5 -242.5q0 -74 -13 -133t-47 -113t-88.5 -90t-141.5 -57t-202 -21q-143 0 -242 42.5t-156.5 128.5t-82.5 202t-25 277q0 357 130.5 519.5t392.5 162.5q214 0 333 -81t119 -210q0 -94 -57.5 -150.5t-175.5 -56.5q-103 0 -164 48.5t-61 141.5
q0 87 53 141t153 54q56 0 105 -18l10 16q-70 45 -160 45z" />
    <glyph glyph-name="seven" unicode="7" horiz-adv-x="950" 
d="M702 197q0 -103 -70.5 -159t-178.5 -56q-141 0 -208 57t-67 156q0 160 135 288q-101 0 -196 -10v55q60 -9 229 -14q70 60 173 118.5t185 101.5t109 71l-8 12q-36 -26 -109.5 -41.5t-140.5 -15.5q-82 0 -207 14t-166 14q-24 0 -38 -1.5t-34 -12t-30.5 -30t-18 -57.5
t-6.5 -93h-35q4 133 -2 360t-14 336h82q0 -4 -4.5 -50t-8.5 -91t-9.5 -143.5t-10.5 -217.5h19q17 171 36 276t44.5 158.5t51 70t66.5 16.5q68 0 106.5 -54t69.5 -163q14 -50 25.5 -82.5t33 -73t46 -64.5t63 -40.5t86.5 -16.5q53 0 91.5 21t72.5 67l-10 10q-32 -35 -62.5 -50
t-74.5 -15q-85 0 -137 59.5t-52 169.5t58 171t145 61q101 0 154 -65t53 -181q0 -68 -21 -130t-53 -111.5t-66 -95.5t-64.5 -101.5t-43.5 -110.5q105 9 152 16v-59q-23 1 -76.5 4t-81.5 4q-4 -32 -4 -49q0 -47 11 -122.5t11 -110.5z" />
    <glyph glyph-name="eight" unicode="8" horiz-adv-x="1017" 
d="M510 676q-31 0 -46 -22.5t-21.5 -89t-6.5 -208.5q-1 -140 5.5 -211t22 -98t46.5 -27q30 0 45 27t22 98t7 211q-1 141 -8 208t-21.5 89.5t-44.5 22.5zM510 715q30 0 46 22.5t23.5 83.5t6.5 176q-1 118 -8.5 176.5t-22.5 79.5t-45 21q-31 0 -46.5 -21t-23 -79.5
t-8.5 -176.5q0 -116 7.5 -176.5t23.5 -83t47 -22.5zM510 -16q-262 0 -376 92t-114 278q0 163 77.5 243.5t234.5 86.5v21q-157 13 -223 82t-66 202q0 156 109 237t358 81q247 0 356 -80.5t109 -235.5q0 -138 -66 -207.5t-223 -78.5v-21q161 -9 236 -89t75 -241
q0 -187 -112.5 -278.5t-374.5 -91.5z" />
    <glyph glyph-name="nine" unicode="9" 
d="M575 975q0 175 -13.5 235t-53.5 60q-26 0 -40.5 -29t-21 -104t-6.5 -217q0 -89 7.5 -136t20 -61t34.5 -14q24 0 38.5 16t24.5 76.5t10 173.5zM346 55q102 0 155.5 48.5t76 161.5t22.5 327q0 37 4 209h-16q-11 -146 -76.5 -201t-194.5 -55q-150 0 -224.5 87t-74.5 242
q0 78 13 140t46.5 119t88 94.5t141 59.5t201.5 22q143 0 242.5 -42.5t157 -128t83 -201.5t25.5 -275q0 -359 -130.5 -522t-391.5 -163q-225 0 -339 74.5t-114 206.5q0 100 56.5 155.5t176.5 55.5q102 0 163 -47t61 -137q0 -81 -50 -131t-141 -50q-93 0 -168 33l-12 -16
q94 -66 219 -66z" />
    <glyph glyph-name="A" unicode="A" horiz-adv-x="1060" 
d="M-53 37q54 38 128.5 249.5t127.5 459t53 387.5q0 70 -35.5 96t-132.5 26v35h684q-6 -70 39 -273t156 -644q44 -174 76 -246t69 -92v-35h-702v35q81 0 101 91.5t-13 246.5l-25 129h-121h-100v-152q0 -154 31.5 -223.5t85.5 -89.5v-37h-422v37zM354 537h111l-131 671h-10
q-62 -331 -70 -671h100z" />
    <glyph glyph-name="B" unicode="B" horiz-adv-x="1165" 
d="M672 0h-674v35q82 0 96.5 45t14.5 280v17v536q0 227 -9 274q-9 51 -42 62q-18 6 -60 6v35h659q263 0 363 -68t100 -249q0 -67 -13 -116.5t-41 -83.5t-63.5 -55.5t-91 -33.5t-111.5 -16.5t-136 -5.5v-19q71 -1 122.5 -4.5t104.5 -12t88.5 -23t68 -38.5t51 -57.5
t29.5 -79.5t11 -106q0 -184 -101.5 -253t-365.5 -69zM551 633h-12v-600h4q66 0 102.5 22t57 89.5t20.5 195.5q0 75 -7 126.5t-19.5 84.5t-34.5 51t-47.5 24.5t-63.5 6.5zM709 950q0 127 -18.5 194.5t-53 90t-98.5 22.5v-591h12q60 0 92 21t49 83t17 180z" />
    <glyph glyph-name="C" unicode="C" horiz-adv-x="1038" 
d="M956 1317h37q-20 -281 -8 -625h-35q-117 296 -167 392q-89 173 -172 190q-11 2 -21 2q-44 0 -67 -44t-33.5 -156t-10.5 -324q0 -206 30 -330t86.5 -176.5t147.5 -52.5q106 0 156.5 91.5t54.5 299.5h39q0 -121 -11 -210.5t-39.5 -167.5t-76 -127t-122.5 -76.5t-177 -27.5
q-77 0 -141.5 12t-128 40t-111 78.5t-85 123.5t-57 179.5t-19.5 240.5q0 250 57.5 396.5t173 208t309.5 61.5q98 0 202 -25.5t130 -25.5q48 0 59 53z" />
    <glyph glyph-name="D" unicode="D" horiz-adv-x="1200" 
d="M582 1255h-43v-1218h39q25 0 44 11.5t39 49t33 101t21.5 175t9.5 263.5q1 260 -12.5 391.5t-43 179t-87.5 47.5zM623 0h-625v35q82 0 96.5 43t14.5 266v16v570q0 215 -9 259q-9 49 -42 60q-18 6 -60 6v35h590q318 0 453 -152.5t135 -494.5q0 -349 -125 -496t-428 -147z
" />
    <glyph glyph-name="E" unicode="E" horiz-adv-x="1085" 
d="M1008 0h-998v35q82 0 96.5 45t14.5 280v17v536q0 227 -9 274q-9 51 -42 62q-18 6 -60 6v35h979q-8 -265 2 -528h-33q-81 216 -177.5 328.5t-227.5 166.5v-571q146 95 203 277h30q-2 -53 -2 -301q0 -249 2 -302h-30q-31 105 -85 177.5t-118 105.5v-606q254 130 426 545h33
q-9 -244 -4 -582z" />
    <glyph glyph-name="F" unicode="F" horiz-adv-x="997" 
d="M735 0h-737v35q82 0 96.5 45.5t14.5 281.5v17v532q0 228 -9 275q-9 52 -43 63q-18 6 -59 6v35h975q-9 -280 2 -549h-33q-85 214 -183 337.5t-220 176.5v-669q188 114 260 305h28q-2 -57 -2 -326t2 -327h-28q-42 117 -113.5 197t-146.5 112v-168q0 -66 1 -109t5.5 -82
t9 -61.5t17 -41.5t24 -27.5t35 -14.5t45.5 -7t59 -1v-35z" />
    <glyph glyph-name="G" unicode="G" horiz-adv-x="1171" 
d="M569 1315q119 0 243 -27.5t157 -27.5q50 0 61 57h37q-19 -241 -6 -572h-37q-245 531 -432 531q-44 0 -67.5 -50t-34.5 -179.5t-11 -374.5q0 -254 10 -396.5t30 -199t54 -56.5q32 0 50 31t27 113t9 233q0 162 -8 196q-10 40 -45 49q-20 5 -63 5v35h645v-35q-79 0 -93 -44
t-14 -269v-17q0 -243 6 -317h-36q-7 84 -28.5 119t-57.5 35q-25 0 -58.5 -18.5t-72 -45t-84 -52.5t-109.5 -44.5t-133 -18.5q-59 0 -113 12t-110 40t-101.5 79.5t-82 123.5t-56.5 179t-20 240q0 189 31 316t99 205t168 111.5t246 33.5z" />
    <glyph glyph-name="H" unicode="H" horiz-adv-x="1275" 
d="M739 328v323q-35 2 -102 2q-65 0 -98 -2v-323q0 -211 7 -247q7 -37 32 -44q10 -2 30 -2v-35h-610v35q82 0 96.5 39t14.5 240v14v635v14q0 201 -14.5 239.5t-96.5 38.5v35h610v-35q-51 0 -60 -36t-9 -224v-32v-273q33 -2 98 -2q67 0 102 2v273v11q0 203 -9 242t-60 39v35
h610v-35q-82 0 -96.5 -38.5t-14.5 -239.5v-14v-635v-14q0 -201 14.5 -240t96.5 -39v-35h-610v35q51 0 60 39.5t9 242.5v11z" />
    <glyph glyph-name="I" unicode="I" horiz-adv-x="647" 
d="M109 356v578q0 232 -14.5 276.5t-96.5 44.5v35h651v-35q-81 0 -95.5 -41.5t-14.5 -256.5v-23v-578q0 -213 8 -256q10 -49 43 -59q17 -6 59 -6v-35h-651v35q82 0 96.5 44.5t14.5 276.5z" />
    <glyph glyph-name="J" unicode="J" horiz-adv-x="641" 
d="M109 915q0 226 -9 272q-9 51 -42 62q-18 6 -60 6v35h645v-35q-77 0 -90.5 -44t-13.5 -274v-17v-842q0 -318 -306 -318q-280 0 -280 234q0 89 45 135.5t123 46.5q88 0 131 -50t43 -128q0 -85 -40 -127.5t-87 -44.5q-12 0 -12 -12q0 -11 14 -11q29 0 58 11.5t56 34.5
t43.5 65t16.5 96q0 210 -235 213v692z" />
    <glyph glyph-name="K" unicode="K" horiz-adv-x="1187" 
d="M854 764q107 0 164 -63t57 -218v-233q0 -54 7 -74t28 -20q13 0 20 11.5t12 53.5t5 121q0 38 -4 178h35q4 -136 4 -178q0 -95 -7 -155.5t-22 -102.5t-46 -62.5t-70.5 -29t-104.5 -8.5q-133 0 -197.5 65t-64.5 207q0 63 2 175t2 167q0 80 -90 80h-45v-303q0 -229 8 -275
q10 -50 41 -60q16 -5 53 -5v-35h-643v35q82 0 96.5 45t14.5 278v17v540q0 226 -9 272q-9 51 -42 62q-18 6 -60 6v35h604v-37q-46 0 -54.5 -41.5t-8.5 -256.5v-40v-167q68 66 111.5 187.5t41.5 233.5q0 38 -11.5 57.5t-41.5 26.5v37h541v-37q-32 -28 -607 -522l7 -18
q117 30 168.5 40.5t105.5 10.5z" />
    <glyph glyph-name="L" unicode="L" horiz-adv-x="929" 
d="M903 0h-905v35q82 0 96.5 45.5t14.5 281.5v17v551q0 215 -9 259q-9 49 -42 60q-18 6 -60 6v35h735v-35q-50 0 -76.5 -2t-52 -14.5t-35.5 -30t-18.5 -58.5t-10 -88.5t-1.5 -131.5v-891q190 173 338 747h28q-3 -163 -3.5 -415t1.5 -371z" />
    <glyph glyph-name="M" unicode="M" horiz-adv-x="1449" 
d="M772 555l-207 -569h-26l-234 567q-76 189 -149 387h-6v-162q0 -265 30.5 -424t86.5 -229.5t149 -89.5v-35h-418v35q37 29 60 96t38 227t15 420v160v15q0 218 -15 260t-98 42v35h557q-4 -110 52 -304.5t138 -397.5q53 149 80.5 237.5t49.5 218t16 246.5h561v-35
q-82 0 -96.5 -44t-14.5 -273v-578q0 -235 14.5 -280t96.5 -45v-35h-747v35q115 0 160.5 78.5t45.5 246.5v578h-4q-45 -134 -135 -383z" />
    <glyph glyph-name="N" unicode="N" horiz-adv-x="1118" 
d="M539 37v-37h-529v37q56 59 80.5 225.5t24.5 489.5v168q0 242 -15.5 288.5t-101.5 46.5v35h516q0 -70 49 -179.5t189 -338.5q22 -36 69.5 -113.5t81.5 -132t62 -94.5l12 4q-2 25 -2 60q0 324 -80 522.5t-236 234.5v37h447v-37q-41 -42 -65 -225t-31 -414q-3 -371 30 -614
h-338l-327 561q-83 143 -217 397l-11 -4q3 -38 3 -61q0 -139 23.5 -276.5t68.5 -261t122 -210t175 -108.5z" />
    <glyph glyph-name="O" unicode="O" horiz-adv-x="1159" 
d="M1135 643q0 -350 -127.5 -509t-427.5 -159q-153 0 -258 37.5t-171 120.5t-95.5 206.5t-30.5 303.5q0 357 127 513.5t428 156.5q300 0 427.5 -160t127.5 -510zM680 645q1 205 -3.5 328t-17.5 191.5t-30.5 91t-48.5 22.5q-41 0 -61.5 -45t-30.5 -181.5t-9 -406.5
q1 -207 5.5 -328.5t17.5 -191t30.5 -91.5t47.5 -22t47.5 21.5t30 91t17 191t5.5 329.5z" />
    <glyph glyph-name="P" unicode="P" horiz-adv-x="1118" 
d="M737 35v-35h-739v35q82 0 96.5 41t14.5 254v631q0 213 -14.5 253.5t-96.5 40.5v35h623q263 0 374 -102t111 -336q0 -240 -105.5 -346.5t-320.5 -106.5q-86 0 -141 9v-78q0 -57 1 -93.5t5 -70t9 -52.5t17 -36t24 -24t35.5 -12t46 -6t60.5 -1zM567 444q55 0 81 25
t39.5 111.5t12.5 265.5q0 187 -11.5 271.5t-36.5 110t-81 25.5h-32v-809h28z" />
    <glyph glyph-name="Q" unicode="Q" horiz-adv-x="1159" 
d="M643 207q0 66 -15 90.5t-46 24.5t-46.5 -26t-15.5 -89q0 -72 12 -106.5t46 -34.5q36 0 50.5 32.5t14.5 108.5zM483 262h19q0 32 6.5 63t25.5 57t48 26q33 0 50.5 -31.5t26.5 -102.5h15q6 188 6 371q1 205 -3 323.5t-16 190.5t-30.5 95.5t-50.5 23.5t-50 -23.5t-30 -95
t-16 -191t-3 -323.5q0 -295 2 -383zM907 -184q-81 0 -126 29.5t-69 108t-28 224.5h-20q-1 -39 -8.5 -70t-26.5 -63.5t-59.5 -51t-100.5 -18.5q-232 0 -338 161t-106 507q0 354 126.5 512t428.5 158q153 0 259.5 -40t172 -123t94.5 -201.5t29 -284.5q0 -117 -27.5 -196.5
t-86.5 -128.5t-142 -72.5t-205 -30.5v-15q87 -26 235 -26q65 0 105.5 10t58 33t22.5 45.5t5 62.5l33 2q12 -292 -39 -412t-187 -120z" />
    <glyph glyph-name="R" unicode="R" horiz-adv-x="1214" 
d="M543 1257h-4v-598q62 0 97.5 24.5t55 90.5t19.5 184q0 98 -8.5 157t-30.5 90.5t-51 41.5t-78 10zM950 -18q-143 0 -208.5 61t-65.5 203q-2 102 -2 278q0 68 -29 86.5t-106 18.5v-252q0 -212 9 -259q11 -59 49 -73q26 -10 97 -10v-35h-696v35q82 0 96.5 47t14.5 292v17
v506v17q0 246 -14.5 293.5t-96.5 47.5v35h745q216 0 299.5 -67t83.5 -246q0 -59 -11 -105t-30 -78.5t-51.5 -55.5t-67.5 -37t-88 -22t-102.5 -11t-120.5 -4v-23q168 0 264.5 -26t137.5 -80t41 -146v-92q0 -84 6 -113.5t24 -29.5q11 0 18.5 9.5t14.5 53t8 121.5
q0 115 -10 186h39q2 -57 2 -149q0 -101 -6 -164t-21 -111t-44.5 -72t-71 -35t-107.5 -11z" />
    <glyph glyph-name="S" unicode="S" horiz-adv-x="968" 
d="M598 117q0 77 -53 147t-166 144q-79 51 -139 103.5t-109 116.5t-74.5 139.5t-25.5 160.5q0 180 103 283.5t319 103.5q67 0 136 -22.5t123.5 -45t86.5 -22.5q29 0 45.5 15t27.5 50h29q-12 -329 0 -569h-31q-102 260 -203.5 407.5t-207.5 147.5q-43 0 -67.5 -27.5
t-24.5 -79.5q0 -67 42 -128.5t144 -127.5q94 -60 158.5 -111.5t122 -119t86 -148t28.5 -176.5q0 -383 -420 -383q-72 0 -141.5 15.5t-111.5 34t-82.5 34t-63.5 15.5q-58 0 -63 -74h-33q15 247 2 608h33q51 -143 124 -275.5t161 -225.5t159 -93q86 0 86 103z" />
    <glyph glyph-name="T" unicode="T" horiz-adv-x="1075" 
d="M930 35v-35h-780v35q49 0 74.5 1t49 16t31.5 26.5t14 57t6.5 81.5t0.5 125v10v899q-79 -72 -156.5 -272t-118.5 -391h-33q13 331 0 702h1041q-8 -137 -8.5 -339t8.5 -363h-35q-42 187 -119.5 389.5t-148.5 271.5v-897q0 -191 10 -236q11 -56 52 -70q30 -11 112 -11z" />
    <glyph glyph-name="U" unicode="U" horiz-adv-x="1019" 
d="M885 453q0 320 -72.5 525.5t-194.5 274.5v37h404v-37q-56 -31 -79 -141t-23 -350v-313q0 -238 -88.5 -353.5t-296.5 -115.5q-252 0 -351.5 100.5t-97.5 333.5v561q0 186 -9 224q-9 42 -42 51q-17 5 -60 5v35h594v-35q-39 -1 -46 -39t-7 -241v-520q0 -137 44 -196.5
t142 -59.5q183 0 183 254z" />
    <glyph glyph-name="V" unicode="V" horiz-adv-x="1058" 
d="M764 0h-477q6 70 -38 267.5t-157 645.5q-46 178 -77.5 250.5t-67.5 91.5v35h698v-35q-84 0 -101.5 -89.5t17.5 -252.5l162 -815h16q76 418 76 852q0 150 -34 216.5t-95 86.5v37h426v-37q-81 -59 -180 -420.5t-168 -832.5z" />
    <glyph glyph-name="W" unicode="W" horiz-adv-x="1726" 
d="M817 315q-38 -191 -31 -315h-505q7 73 -39.5 290.5t-151.5 629.5q-45 174 -76 245t-67 90v35h1368v-35q-78 -4 -94.5 -90.5t16.5 -244.5l160 -842h12q49 257 65.5 478.5t3.5 364.5t-43.5 229.5t-72.5 102.5v37h420v-37q-59 -37 -138 -294t-147 -644q-37 -207 -33 -315
h-506q10 95 -94 524q-17 -69 -47 -209zM561 920l158 -838h14q36 180 50.5 342t9.5 280t-25 203q-20 101 -62.5 211t-84.5 142q-116 -43 -60 -340z" />
    <glyph glyph-name="X" unicode="X" horiz-adv-x="983" 
d="M352 37v-37h-381v37q34 46 113.5 214t171.5 398q-219 514 -287 604v37h613v-33q-54 -12 -65 -68t22 -128l170 -404q44 204 19.5 388.5t-99.5 209.5v35h385v-37q-71 -86 -283 -632q132 -306 189.5 -424t91.5 -160v-37h-619v37q32 4 49.5 26t15 70.5t-31.5 120.5l-145 360
q-27 -127 -30 -241t22.5 -204t78.5 -132z" />
    <glyph glyph-name="Y" unicode="Y" horiz-adv-x="1048" 
d="M879 0h-682v35q92 0 108.5 49t16.5 308v16l-226 575q-49 140 -81 198.5t-68 73.5v35h692v-35q-78 -1 -96 -74.5t22 -197.5l156 -520h6q40 143 58 268t15.5 213.5t-19.5 155.5t-43 104t-58 49v37h424v-37q-61 -52 -160.5 -291t-191.5 -563q0 -264 16.5 -314t110.5 -50v-35
z" />
    <glyph glyph-name="Z" unicode="Z" horiz-adv-x="1060" 
d="M66 559q7 362 0 731h950v-41q-125 -216 -342 -749l-193 -463h19q48 0 94.5 27t88.5 79t80 116t76 152t69.5 171.5t66.5 189.5h33q-14 -384 0 -772h-996v39q96 161 291 610l258 608h-37q-37 0 -74 -23.5t-67.5 -58t-65.5 -95t-60 -113t-57.5 -134t-52 -135t-49.5 -139.5
h-32z" />
    <glyph glyph-name="a" unicode="a" horiz-adv-x="1050" 
d="M55 874q0 130 96.5 198.5t317.5 68.5q186 0 291.5 -37.5t149.5 -115.5t44 -214q0 -68 -1 -246t-1 -235q0 -66 2.5 -99.5t7.5 -44t15 -10.5q14 0 20 17t11.5 94t-0.5 237h30q2 -108 3 -187t-10 -134.5t-24.5 -91t-42 -55.5t-60.5 -27.5t-81 -7.5q-139 0 -185 65t-46 242
h-17q-12 -160 -76.5 -233.5t-191.5 -73.5q-167 0 -232 72.5t-63 240.5q0 172 75.5 250t236.5 80q54 1 89.5 4t61.5 13t40 21.5t22 35.5t10 49t2 67v47q0 118 -55.5 168.5t-165.5 50.5q-76 0 -133 -24l4 -15q43 13 82 13q80 0 132 -45.5t52 -132.5q0 -195 -209 -195
q-92 0 -146.5 49.5t-54.5 140.5zM477 164q23 0 37.5 12.5t24.5 55.5t10 120v310q-10 -17 -38 -48t-46 -57t-33.5 -84.5t-15.5 -138.5q0 -102 14.5 -136t46.5 -34z" />
    <glyph glyph-name="b" unicode="b" 
d="M545 -10q-67 0 -126 15.5t-93 34.5t-73.5 34.5t-72.5 15.5t-56.5 -25.5t-23.5 -64.5h-37v1231q0 66 -20 89t-84 23v35q327 14 508 47q-3 -88 -15.5 -309t-13.5 -334h15q10 203 68.5 283t189.5 80q168 0 232 -129t61 -447q1 -314 -105 -446.5t-354 -132.5zM467 164
q0 -75 12.5 -106t50.5 -31q22 0 33.5 13t20.5 68t12.5 160.5t5.5 296.5q0 166 -8.5 252.5t-22 112.5t-39.5 26q-19 0 -32 -18t-23 -86.5t-10 -189.5v-498z" />
    <glyph glyph-name="c" unicode="c" horiz-adv-x="956" 
d="M449 641q0 -177 26.5 -273.5t74 -129.5t130.5 -33q194 0 207 282h35q0 -129 -19 -218.5t-64 -156t-124.5 -98.5t-196.5 -32q-93 0 -163 14t-134 52.5t-105 102.5t-65 168t-24 246q-1 165 26 275t88.5 178t153 96.5t229.5 28.5q213 0 310.5 -84.5t97.5 -227.5
q0 -120 -49.5 -185.5t-149.5 -65.5q-57 0 -98 17.5t-63 48.5t-31.5 67.5t-8.5 79.5q0 100 47.5 164.5t143.5 64.5q41 0 90 -16l8 14q-70 49 -157 49q-40 0 -69 -8.5t-58.5 -34.5t-47.5 -72t-29 -125t-11 -188z" />
    <glyph glyph-name="d" unicode="d" 
d="M498 154q18 0 30.5 17t21.5 73t9 151v678q-15 6 -35 6q-22 0 -33 -3.5t-24 -20.5t-18.5 -49t-11 -92t-7 -146t-2.5 -215q0 -124 4.5 -204.5t14 -122.5t21.5 -57t30 -15zM590 0q8 94 8 328h-16q-6 -135 -37 -211t-84 -104.5t-142 -28.5q-166 0 -230.5 126.5t-61.5 438.5
q-2 211 40.5 341t122.5 185t205 55q109 0 164 -22v119q0 70 -28 95.5t-113 25.5v34q272 -3 543 43v-1273q0 -69 16.5 -93t69.5 -24v-35h-457z" />
    <glyph glyph-name="e" unicode="e" horiz-adv-x="985" 
d="M442 653v-59h144q0 139 -3.5 234t-9 150t-16 83.5t-20.5 36.5t-27 8q-25 0 -38 -25.5t-21.5 -126t-8.5 -301.5zM954 479q0 -95 -11 -168t-39.5 -136.5t-75 -104.5t-119 -64.5t-170.5 -23.5q-96 0 -169.5 14.5t-140 53t-109.5 103.5t-68 169t-25 245q0 216 49.5 341.5
t153.5 180t282 54.5q128 0 216 -32t137 -95t70 -144t21 -192q0 -84 -2 -121q-52 -2 -136 -2t-200 1t-174 1q5 -142 31.5 -219t76 -106t138.5 -29q113 0 172 63.5t58 210.5h34z" />
    <glyph glyph-name="f" unicode="f" horiz-adv-x="573" 
d="M231 1239q0 -229 248 -229h101v-35h-101v-821q0 -66 22.5 -92.5t88.5 -26.5v-35q-308 4 -623 0v35q66 0 88.5 26.5t22.5 92.5v821h-90v35h284v14q-151 15 -219.5 68.5t-68.5 160.5q0 120 83 182t240 62q156 0 221.5 -62t65.5 -186q0 -93 -36 -139.5t-101 -46.5
q-80 0 -118 51.5t-38 134.5q0 90 41 134t100 44q25 0 39 -4l2 15q-25 10 -61 10q-191 0 -191 -209z" />
    <glyph glyph-name="g" unicode="g" horiz-adv-x="993" 
d="M563 698q0 139 -2.5 216t-11 120t-20 54.5t-33.5 11.5q-20 0 -31 -12t-19 -54.5t-11 -120.5t-3 -215q0 -128 3 -201t11.5 -112.5t19.5 -50t32 -10.5t32 10.5t19.5 50t11 112t2.5 201.5zM825 -166q0 55 -88 55q-89 0 -285 -4t-237 -4q-35 0 -53 2q1 -20 5.5 -34
t24.5 -31.5t55 -28t101 -18t158 -7.5q87 0 148.5 4.5t94 10.5t50.5 16.5t22 18.5t4 20zM999 -8q0 -98 -39.5 -151t-146.5 -80t-307 -27q-151 0 -247 5.5t-144.5 18t-65 27t-16.5 37.5q0 29 29 48t77 24l2 14q-75 16 -112 58.5t-37 131.5q0 97 59.5 156.5t169.5 58.5h195v21
q-211 4 -298 88.5t-87 282.5q-1 235 103.5 330t361.5 95q39 0 113 -3t100 -3q20 0 20 17q0 3 -1 6t-3.5 5.5t-5 4t-7.5 3.5t-8.5 3.5t-10.5 3.5t-11 4q-37 15 -58.5 39.5t-21.5 73.5q0 63 45.5 100t134.5 37q185 0 185 -159q0 -80 -48.5 -124t-136.5 -44q-24 0 -89 5t-111 5
v-21q114 -5 189 -30.5t117 -76.5t58.5 -118t16.5 -166q3 -221 -103 -312t-364 -91q-137 0 -205.5 -6t-87.5 -16.5t-19 -30.5q0 -35 58 -35q13 0 205.5 8t279.5 8q134 0 203 -58.5t69 -166.5z" />
    <glyph glyph-name="h" unicode="h" horiz-adv-x="1069" 
d="M516 35v-35h-541v35q55 0 71.5 23.5t16.5 86.5v1086q0 68 -14.5 90t-64.5 22v35q309 14 485 47q-4 -69 -13 -198t-14.5 -237t-7.5 -220h15q7 151 39 232.5t88.5 112t156.5 30.5q148 0 210.5 -82.5t62.5 -267.5v-650q0 -63 17 -86.5t69 -23.5v-35h-539v35q30 0 39.5 23
t9.5 81v654q0 97 -13.5 130t-45.5 33q-17 0 -29 -8.5t-23.5 -31t-17.5 -69.5t-6 -118v-590q0 -58 9.5 -81t39.5 -23z" />
    <glyph glyph-name="i" unicode="i" horiz-adv-x="532" 
d="M258 1464q248 0 248 -151q0 -78 -62 -114t-186 -36q-250 0 -250 150q0 151 250 151zM557 0h-582v35q54 0 71 26t17 93v809q0 67 -20 91.5t-86 24.5v37h510v-962q0 -67 17.5 -93t72.5 -26v-35z" />
    <glyph glyph-name="j" unicode="j" horiz-adv-x="534" 
d="M264 1464q250 0 250 -151q0 -150 -250 -150q-124 0 -186 36t-62 114q0 151 248 151zM477 51q0 -152 -69.5 -235.5t-196.5 -83.5q-148 0 -211 58t-63 169q0 89 39 134.5t110 45.5q79 0 115.5 -45.5t36.5 -120.5q0 -87 -44 -130.5t-102 -43.5q-9 0 -37 4l-4 -16
q23 -8 55 -8q89 0 143 49.5t54 157.5q0 208 -229 211v764q0 67 -21.5 93.5t-85.5 26.5v35h510v-1065z" />
    <glyph glyph-name="k" unicode="k" horiz-adv-x="1103" 
d="M469 1425v-761q66 45 108.5 135t40.5 174q0 50 -19.5 74t-70.5 36v33h547v-33q-269 -219 -569 -430l6 -18q97 31 153 43t111 12q51 0 85.5 -8.5t65.5 -33.5t46.5 -75.5t15.5 -128.5v-147q0 -85 6 -112t25 -27q14 0 22.5 21.5t14 106t4.5 240.5h33v-197t-12 -144
t-27.5 -99t-46 -61.5t-67.5 -31.5t-93 -9q-135 0 -199.5 61t-64.5 203q0 40 2 134.5t2 147.5q0 76 -80 76h-39v-452q0 -66 24.5 -92.5t96.5 -26.5v-35h-633v35q65 0 85.5 26t20.5 93v1071q0 71 -19.5 94.5t-84.5 23.5v35q115 3 263.5 16t246.5 31z" />
    <glyph glyph-name="l" unicode="l" horiz-adv-x="528" 
d="M469 1425v-1271q0 -66 20.5 -92.5t81.5 -26.5v-35h-614v35q65 0 85.5 26t20.5 93v1071q0 71 -19.5 94.5t-84.5 23.5v35q115 3 263.5 16t246.5 31z" />
    <glyph glyph-name="m" unicode="m" horiz-adv-x="1605" 
d="M1006 739v-585q0 -66 9.5 -92.5t39.5 -26.5v-35h-502v35q30 0 39.5 26.5t9.5 92.5v637q0 68 -6.5 104t-18.5 48.5t-34 12.5q-25 0 -40 -15t-25.5 -66.5t-10.5 -143.5v-577q0 -66 9.5 -92.5t39.5 -26.5v-35h-541v35q54 0 71 26t17 93v809q0 71 -19.5 94.5t-82.5 23.5v35
h475q-2 -102 -2 -348h17q5 116 24 190.5t56 115.5t84 56t118 15q93 0 141.5 -32.5t71 -111.5t25.5 -233h16q5 149 38 232t90.5 114t156.5 31q147 0 208.5 -79.5t61.5 -256.5v-655q0 -66 18 -92.5t70 -26.5v-35h-540v35q30 0 39.5 26.5t9.5 92.5v637q0 97 -14 131t-46 34
q-24 0 -38.5 -14t-24.5 -63.5t-10 -139.5z" />
    <glyph glyph-name="n" unicode="n" horiz-adv-x="1069" 
d="M516 35v-35h-541v35q55 0 71.5 23.5t16.5 86.5v826q0 67 -18.5 88.5t-81.5 21.5v35h473q-2 -50 -2 -348h17q4 117 22 191.5t54.5 115.5t84 55.5t121.5 14.5q148 0 210.5 -82.5t62.5 -267.5v-650q0 -62 17 -86t69 -24v-35h-539v35q30 0 39.5 23t9.5 81v654q0 97 -13.5 130
t-45.5 33q-17 0 -29 -8.5t-23.5 -31t-17.5 -69.5t-6 -118v-590q0 -58 9.5 -81t39.5 -23z" />
    <glyph glyph-name="o" unicode="o" horiz-adv-x="999" 
d="M973 567q1 -220 -46 -346.5t-149 -182.5t-278 -56t-278.5 55.5t-149.5 182.5t-45 347q-1 215 46 338.5t148.5 176.5t278.5 53q176 0 278.5 -54.5t149.5 -178t45 -335.5zM567 569q0 182 -3 288t-12 160.5t-20.5 69.5t-31.5 15t-31.5 -15t-20.5 -69.5t-12.5 -161
t-3.5 -287.5q0 -182 3.5 -291t12.5 -167.5t20.5 -76.5t31.5 -18t31.5 18.5t20.5 76.5t12.5 168t2.5 290z" />
    <glyph glyph-name="p" unicode="p" horiz-adv-x="1030" 
d="M602 569q0 164 -7.5 249t-21 111.5t-38.5 26.5q-21 0 -34.5 -18.5t-23.5 -89t-10 -199.5v-596q21 -12 45 -12q29 0 43.5 12.5t26.5 67.5t15.5 157.5t4.5 290.5zM610 -213v-35h-653v35q65 0 85.5 24.5t20.5 86.5v1073q0 66 -14.5 88t-62.5 22v35h456q-8 -109 -8 -332h12
q6 108 24 179t52 111t78.5 55.5t110.5 15.5q167 0 231 -128.5t62 -449.5q2 -214 -42 -342t-133 -183.5t-235 -55.5q-77 0 -127 26v-114q0 -62 28.5 -86.5t114.5 -24.5z" />
    <glyph glyph-name="q" unicode="q" horiz-adv-x="1030" 
d="M498 1094q-22 0 -33 -13t-20 -67t-12.5 -160.5t-4.5 -294.5q0 -126 4.5 -205.5t14 -120t21 -54t30.5 -13.5q16 0 27.5 14t21.5 72.5t10 161.5v547q0 74 -12 103.5t-47 29.5zM567 -96q22 137 27 452h-14q-8 -144 -39 -226t-84 -114t-140 -32q-166 0 -229.5 131.5
t-60.5 445.5q-1 311 104.5 441.5t353.5 130.5q85 0 153 -22.5t118 -44.5t90 -22q34 0 57 23.5t23 58.5h35v-1228q0 -62 21 -87.5t85 -25.5v-33h-645v33q59 1 89 14.5t39.5 35t16.5 69.5z" />
    <glyph glyph-name="r" unicode="r" horiz-adv-x="827" 
d="M612 37v-37h-639v37q57 0 76 26t19 84v824q0 61 -20.5 84.5t-84.5 23.5v37h473q-1 -60 -1 -134.5t0.5 -172t0.5 -152.5h10q2 115 15 201t32 137.5t46.5 83.5t55.5 43t62 11q154 0 154 -242q0 -283 -143 -283q-41 0 -69.5 21t-40 46.5t-26.5 46.5t-32 21q-31 0 -31 -61
v-489q0 -95 27.5 -125.5t115.5 -30.5z" />
    <glyph glyph-name="s" unicode="s" horiz-adv-x="860" 
d="M485 88q0 59 -43 115.5t-131 130.5q-48 43 -83.5 78t-76 84t-65.5 95.5t-42 105.5t-17 120q0 328 383 328q67 0 166.5 -27.5t121.5 -27.5q50 0 58 49h35q-14 -244 0 -484h-33q-80 216 -169.5 336.5t-176.5 120.5q-34 0 -51 -19t-17 -51q0 -55 43.5 -109t132.5 -128
q53 -44 91.5 -80t83 -87.5t72 -100t46 -110.5t18.5 -126q0 -167 -98.5 -243t-286.5 -76q-74 0 -143 16.5t-117.5 32.5t-70.5 16q-51 0 -54 -51h-34q13 234 2 508h32q42 -101 84.5 -186t88.5 -155t92.5 -109.5t87.5 -39.5q71 0 71 74z" />
    <glyph glyph-name="t" unicode="t" horiz-adv-x="608" 
d="M467 1411v-295h129v-37h-129v-784q0 -86 7 -112.5t28 -26.5q8 0 14 5t12.5 21.5t10 46.5t6 82.5t2.5 126.5q0 152 -4 203h41v-207q-1 -95 -5.5 -160.5t-16 -118t-28.5 -83.5t-46 -52t-65 -28.5t-89 -7.5q-67 0 -113 12.5t-84 45.5t-56 96.5t-18 160.5v780h-71v37
q198 0 311 74t133 221h31z" />
    <glyph glyph-name="u" unicode="u" horiz-adv-x="1069" 
d="M633 0q4 196 4 348h-16q-6 -112 -24 -183t-54 -112t-84 -56t-123 -15q-148 0 -210.5 79.5t-62.5 257.5v662q0 58 -17.5 79t-74.5 21v35h508q-12 -70 -12 -301v-496q0 -95 13 -127t46 -32q24 0 39 16t26 73.5t11 160.5v559q0 68 -14 90t-62 22v35h486q-6 -47 -6 -299v-674
q0 -64 17 -86t71 -22v-35h-461z" />
    <glyph glyph-name="v" unicode="v" horiz-adv-x="849" 
d="M641 0h-444q0 10 -32.5 187t-68 376.5t-41.5 251.5q-28 152 -48.5 206.5t-51.5 59.5v35h575v-35q-45 0 -54.5 -59.5t13.5 -208.5l113 -725h19q34 314 34 574q0 197 -13.5 291.5t-61.5 125.5v37h292v-37q-21 -19 -114 -452t-117 -627z" />
    <glyph glyph-name="w" unicode="w" horiz-adv-x="1435" 
d="M639 0h-446q1 10 -31 186t-67.5 375.5t-41.5 251.5q-25 148 -44 202.5t-56 65.5v35h1147v-35q-15 -5 -23.5 -31.5t-8.5 -87t13 -147.5l115 -768h16q43 350 43 598q0 160 -31.5 277t-84.5 157v37h325v-37q-20 -14 -112 -450.5t-113 -628.5h-442q0 17 -76 489
q-72 -383 -82 -489zM483 813l115 -764h18q28 173 41.5 282.5t17 213.5t-10.5 168l-19 110q-18 109 -43 172t-67 92q-43 -25 -56 -89.5t4 -184.5z" />
    <glyph glyph-name="x" unicode="x" horiz-adv-x="919" 
d="M303 37v-37h-336v37q34 45 107.5 195.5t146.5 340.5q-118 270 -168 371.5t-82 134.5v37h570v-33q-33 -9 -39 -50.5t18 -96.5l150 -356q34 164 13.5 315t-83.5 186v35h340v-37q-69 -81 -246 -532q117 -272 167.5 -373t86.5 -137v-37h-581v33q80 22 24 157l-143 351
q-36 -159 -21.5 -307t76.5 -197z" />
    <glyph glyph-name="y" unicode="y" horiz-adv-x="845" 
d="M301 -266q-283 0 -283 164q0 75 59 117t175 42q120 0 176.5 -32.5t56.5 -102.5q0 -102 -153 -133l2 -22q105 17 163 83t58 166q0 51 -24.5 69.5t-77.5 18.5h-283l-141 887q-9 49 -26.5 69.5t-47.5 20.5v35h573v-35q-32 -2 -41 -31t2 -106l121 -825h21q34 272 35 491
t-23.5 335t-64.5 134v37h309v-37q-19 -8 -36 -51.5t-37 -139t-37 -194t-49.5 -280t-61.5 -334.5q-38 -177 -123 -261.5t-242 -84.5z" />
    <glyph glyph-name="z" unicode="z" horiz-adv-x="950" 
d="M47 463q13 327 0 653h877v-37q-1 -3 -19 -35.5t-28 -52.5t-35 -72t-48.5 -105.5t-60.5 -140t-78 -188.5l-180 -448h10q60 0 113.5 45.5t99.5 133.5t84.5 195t77.5 251h33q-17 -331 0 -662h-881v35q95 172 273 596l186 452h-22q-53 0 -106 -48.5t-100 -136t-87.5 -195.5
t-77.5 -240h-31z" />
    <glyph glyph-name="uni00A0" unicode="&#xa0;" horiz-adv-x="331" 
 />
  </font>
</defs>
</svg>
