<svg xmlns="http://www.w3.org/2000/svg">
<defs>
<font id="OhnoFatfaceDemo-18PtNarrow" horiz-adv-x="1126" >
  <font-face 
    font-family="Ohno Fatface Demo 18 Pt Narrow"
    font-weight="540"
    font-stretch="semi-condensed"
    units-per-em="2048"
    panose-1="2 15 10 6 4 2 5 9 4 4"
    ascent="1518"
    descent="-530"
    x-height="1116"
    cap-height="1290"
    bbox="-45 -541 2109 1839"
    underline-thickness="102"
    underline-position="-204"
    unicode-range="U+0020-00A0"
  />
<missing-glyph horiz-adv-x="2148" 
d="M1487 260q0 -132 -9.5 -200.5t-27 -91.5t-51.5 -23q-35 0 -53 24t-27 91.5t-10 199.5q0 133 9 202t27.5 93.5t53.5 24.5q33 0 51 -24.5t27.5 -94t9.5 -201.5zM1710 260q0 186 -73.5 278.5t-237.5 92.5q-167 0 -240.5 -91t-73.5 -280q0 -190 73.5 -280.5t240.5 -90.5
q165 0 238 92t73 279zM807 1040q-1 -132 -10.5 -200.5t-27 -91.5t-50.5 -23t-50.5 23t-27.5 92.5t-10 199.5q0 131 10 201t27.5 93.5t50.5 23.5t50.5 -23.5t27.5 -93.5t10 -201zM1024 1040q0 185 -72.5 277t-232.5 92q-161 0 -233 -91t-72 -278q0 -189 71.5 -279.5
t233.5 -90.5q161 0 233 92t72 278zM1976 647q0 -195 -18 -342t-60 -267.5t-109.5 -201.5t-169 -136.5t-236 -80.5t-312.5 -25t-311.5 23.5t-235 77.5t-168.5 134t-109 201t-59.5 269t-17.5 348t17.5 349t59.5 270t109 201t168.5 134t235 77.5t311.5 23.5t312.5 -25
t236 -80.5t169 -137t109.5 -202.5t60 -268t18 -342zM2050 649q0 209 -19.5 366.5t-65 287t-118.5 216.5t-183 146.5t-255.5 86t-337.5 26.5t-336 -25t-254 -82.5t-182.5 -143t-118.5 -215t-65 -289t-19 -374.5q0 -213 19 -372.5t65 -289t118.5 -215t182.5 -143t254 -83
t336 -25.5t337.5 26.5t255.5 86t183 146.5t118.5 216.5t65 286.5t19.5 366zM2109 649q0 -216 -21.5 -381.5t-71 -301.5t-128.5 -229t-195 -156.5t-269 -92.5t-353 -29t-352 27.5t-268.5 89.5t-194.5 153.5t-127 227.5t-70.5 303.5t-21.5 388.5q0 222 21.5 389.5t70.5 303.5
t127 227.5t194.5 153t268.5 89t352 27.5t353 -29t269 -92t195 -156t128.5 -229t71 -301.5t21.5 -382.5zM1110 874v-55t-3 -36t-6.5 -25t-14 -11.5t-21.5 -7t-33 -0.5v-51h328v51q-43 0 -50 18t-7 117v144q13 0 40 1t41 1q55 0 82 -2v-144q0 -99 -7 -117t-50 -18v-51h317v51

<glyph glyph-name=".notdef" horiz-adv-x="2148" 
d="M1487 260q0 -132 -9.5 -200.5t-27 -91.5t-51.5 -23q-35 0 -53 24t-27 91.5t-10 199.5q0 133 9 202t27.5 93.5t53.5 24.5q33 0 51 -24.5t27.5 -94t9.5 -201.5zM1710 260q0 186 -73.5 278.5t-237.5 92.5q-167 0 -240.5 -91t-73.5 -280q0 -190 73.5 -280.5t240.5 -90.5
q165 0 238 92t73 279zM807 1040q-1 -132 -10.5 -200.5t-27 -91.5t-50.5 -23t-50.5 23t-27.5 92.5t-10 199.5q0 131 10 201t27.5 93.5t50.5 23.5t50.5 -23.5t27.5 -93.5t10 -201zM1024 1040q0 185 -72.5 277t-232.5 92q-161 0 -233 -91t-72 -278q0 -189 71.5 -279.5
t233.5 -90.5q161 0 233 92t72 278zM1976 647q0 -195 -18 -342t-60 -267.5t-109.5 -201.5t-169 -136.5t-236 -80.5t-312.5 -25t-311.5 23.5t-235 77.5t-168.5 134t-109 201t-59.5 269t-17.5 348t17.5 349t59.5 270t109 201t168.5 134t235 77.5t311.5 23.5t312.5 -25
t236 -80.5t169 -137t109.5 -202.5t60 -268t18 -342zM2050 649q0 209 -19.5 366.5t-65 287t-118.5 216.5t-183 146.5t-255.5 86t-337.5 26.5t-336 -25t-254 -82.5t-182.5 -143t-118.5 -215t-65 -289t-19 -374.5q0 -213 19 -372.5t65 -289t118.5 -215t182.5 -143t254 -83
t336 -25.5t337.5 26.5t255.5 86t183 146.5t118.5 216.5t65 286.5t19.5 366zM2109 649q0 -216 -21.5 -381.5t-71 -301.5t-128.5 -229t-195 -156.5t-269 -92.5t-353 -29t-352 27.5t-268.5 89.5t-194.5 153.5t-127 227.5t-70.5 303.5t-21.5 388.5q0 222 21.5 389.5t70.5 303.5
t127 227.5t194.5 153t268.5 89t352 27.5t353 -29t269 -92t195 -156t128.5 -229t71 -301.5t21.5 -382.5zM1110 874v-55t-3 -36t-6.5 -25t-14 -11.5t-21.5 -7t-33 -0.5v-51h328v51q-43 0 -50 18t-7 117v144q13 0 40 1t41 1q55 0 82 -2v-144q0 -99 -7 -117t-50 -18v-51h317v51
q-49 0 -57 18t-8 117v283v20q0 112 8.5 133t56.5 21v53h-317v-53q42 0 49.5 -21.5t7.5 -136.5v-16v-94h-163v94q0 130 7 151t34 23h16v53h-328v-53q58 0 68 -23.5t10 -150.5v-283zM725 -90v51q-88 13 -132 140t-44 294q0 33 -2 49l10 2q6 -13 43 -94.5t59 -118.5l181 -323
h180q-16 125 -16 321q0 170 17 246t60 80v51h-266v-51q141 -25 141 -385q0 -5 1 -22t1 -23l-8 -4q-17 28 -50.5 94.5t-51.5 97.5q-120 204 -123 293h-287v-51q46 0 54 -20t8 -127v-7v-108q0 -167 -14.5 -248.5t-49.5 -85.5v-51h289z" />
    <glyph glyph-name=".null" horiz-adv-x="0" 
 />
    <glyph glyph-name="nonmarkingreturn" horiz-adv-x="682" 
 />
    <glyph glyph-name="space" unicode=" " horiz-adv-x="382" 
 />
    <glyph glyph-name="comma" unicode="," horiz-adv-x="487" 
d="M31 -262v82q88 2 156.5 22.5t107.5 52.5t58.5 66.5t19.5 69.5q0 28 -27 28q-13 0 -59.5 -19.5t-91.5 -19.5q-80 0 -131.5 52t-51.5 149q0 104 59 170t171 66q111 0 172 -72.5t61 -218.5q0 -193 -110.5 -308.5t-333.5 -119.5z" />
    <glyph glyph-name="period" unicode="." horiz-adv-x="485" 
d="M244 457q105 0 168 -64t63 -172q0 -107 -63 -170t-168 -63q-106 0 -169 62.5t-63 170.5q0 110 63 173t169 63z" />
    <glyph glyph-name="zero" unicode="0" horiz-adv-x="1077" 
d="M1032 653q0 -359 -114.5 -517.5t-378.5 -158.5q-266 0 -379.5 156.5t-112.5 519.5q-1 356 112.5 509t379.5 153q265 0 379 -154.5t114 -507.5zM643 655q0 252 -12.5 381.5t-32.5 166t-59 36.5q-29 0 -46.5 -19t-32 -78.5t-20.5 -177.5t-6 -309q0 -252 12.5 -385
t33.5 -174t59 -41q28 0 46 21.5t32 84.5t20 183t6 311z" />
    <glyph glyph-name="one" unicode="1" horiz-adv-x="614" 
d="M604 0h-590v76q69 0 94 21t25 85v766q0 59 -19.5 86t-72.5 27h-33v74q92 5 163 17t131.5 35t93.5 62t34 92h74v-1159q0 -67 21.5 -86.5t78.5 -19.5v-76z" />
    <glyph glyph-name="two" unicode="2" horiz-adv-x="978" 
d="M240 313q74 0 117.5 -41.5t43.5 -119.5q0 -76 -50.5 -122t-133.5 -46q-98 0 -150.5 54.5t-52.5 151.5q0 76 30.5 140t78.5 110t106.5 89t117.5 86t107 91t78.5 114.5t30.5 146.5q0 124 -55 179.5t-164 55.5q-159 0 -229 -104l22 -15q51 54 129 54q80 0 122 -49.5
t42 -133.5q2 -77 -49 -130.5t-152 -53.5q-100 0 -152 59t-52 162q0 146 109.5 232t346.5 86q231 0 346 -81t115 -265q0 -88 -22.5 -156.5t-60 -112t-91.5 -77t-112.5 -52t-127 -36.5t-130 -32t-127.5 -37t-115 -52l8 -23q82 37 178 37q97 0 219.5 -21.5t181.5 -21.5
q70 0 96.5 42.5t22.5 160.5h66q12 -83 12 -199q0 -209 -43.5 -304t-142.5 -95q-53 0 -94 21t-67 54.5t-48.5 74.5t-45.5 81.5t-50 74t-70 54.5t-98 21q-119 0 -172 -78l20 -15q47 41 111 41z" />
    <glyph glyph-name="three" unicode="3" horiz-adv-x="991" 
d="M340 76q117 0 171 62.5t54 219.5q0 80 -12.5 130.5t-39.5 75t-57 32.5t-77 8q-81 0 -141 -8v88q82 -8 143 -8q72 0 107.5 18t53 73.5t17.5 168.5q0 152 -52.5 212t-160.5 60q-134 0 -205 -71l19 -23q47 33 110 33q78 0 120 -46t42 -126q0 -73 -49 -123.5t-145 -50.5
q-99 0 -150 57.5t-51 155.5q0 136 109.5 216.5t342.5 80.5q228 0 339.5 -80.5t111.5 -269.5q0 -86 -27.5 -145.5t-82 -92.5t-123 -48t-164.5 -18v-36q65 -2 115.5 -8t99.5 -18.5t83.5 -33.5t61.5 -52t40 -76t13 -103q0 -350 -469 -350q-240 0 -354.5 79t-114.5 215
q0 98 51.5 155.5t151.5 57.5q97 0 147 -52t48 -124q0 -80 -42 -126.5t-120 -45.5q-67 0 -113 35l-18 -24q77 -74 217 -74z" />
    <glyph glyph-name="four" unicode="4" horiz-adv-x="1060" 
d="M985 74v-74h-711v74q49 0 82 4.5t58 9.5t39.5 24.5t23.5 33t12 51.5t4 64t1 86v3h-484v74q128 96 180 308t29 558h430q-127 -713 -512 -831v-35h357v231q116 64 194.5 221.5t130.5 413.5h60v-858q75 28 98 201h55v-471h-55q-23 167 -98 192q0 -202 14 -241t92 -39z" />
    <glyph glyph-name="five" unicode="5" horiz-adv-x="985" 
d="M485 -23q-237 0 -352 78.5t-115 206.5q0 92 52.5 145.5t154.5 53.5q100 0 151.5 -48t51.5 -116q0 -75 -43 -119t-123 -43q-72 0 -121 35l-20 -23q76 -73 209 -73q124 0 178.5 66t54.5 241q0 149 -47.5 209.5t-153.5 60.5q-81 0 -141 -26.5t-92 -71.5h-68q3 142 -2.5 391
t-15.5 346h107q-2 -36 -11.5 -159t-15.5 -234h37q15 159 39 249.5t56 125.5t81 35q52 0 79.5 -41t59.5 -133q18 -53 34.5 -87.5t43 -69.5t65 -52t89.5 -17q97 0 145 51l-21 25q-57 -31 -118 -31q-67 0 -109.5 44.5t-42.5 125.5q0 89 50 137t130 48q97 0 149 -59.5t52 -160.5
q0 -116 -65.5 -180.5t-184.5 -64.5q-110 0 -241.5 16t-167.5 16q-71 0 -111.5 -56.5t-46.5 -196.5q48 57 147 94t250 37q103 1 179 -16.5t133.5 -58.5t86.5 -113t29 -175q0 -412 -465 -412z" />
    <glyph glyph-name="six" unicode="6" horiz-adv-x="1054" 
d="M438 348q0 -162 22.5 -226.5t78.5 -64.5q53 0 76.5 69.5t23.5 240.5q0 109 -24 147.5t-74 38.5q-33 0 -53.5 -14.5t-35 -61.5t-14.5 -129zM690 1217q-58 0 -100 -14.5t-76.5 -50.5t-55.5 -96.5t-32.5 -152t-11.5 -217.5q0 -21 -1 -80.5t-1 -99.5h20q19 111 86 162t191 51
q162 0 237.5 -85.5t75.5 -252.5q0 -406 -483 -406q-140 0 -237.5 43t-154 131t-81.5 208t-25 288q0 348 131 506t395 158q200 0 313 -79t113 -206q0 -95 -51.5 -151t-157.5 -56q-94 0 -151.5 45.5t-57.5 130.5q0 77 45.5 123.5t131.5 46.5q44 0 73 -10l13 23q-59 41 -148 41
z" />
    <glyph glyph-name="seven" unicode="7" horiz-adv-x="970" 
d="M678 186q0 -100 -60 -153t-157 -53q-120 0 -179 56.5t-59 149.5q0 160 109 289q-149 -4 -209 -12v90q4 0 41 -2.5t100.5 -5.5t128.5 -4q64 59 158 118.5t170 106t106 80.5l-12 14q-41 -25 -106 -39t-125 -14q-78 0 -197.5 16.5t-159.5 16.5q-23 0 -37.5 -2t-34 -12.5
t-30.5 -29.5t-18.5 -56t-6.5 -89h-65q3 119 -3.5 326t-13.5 313h103q0 -6 -4.5 -50t-9.5 -134t-9 -223h31q17 173 41.5 266t55.5 125.5t81 32.5q61 0 94.5 -48t67.5 -151q15 -52 31 -87t43.5 -70.5t70.5 -53.5t101 -18q57 0 94.5 22t69.5 70l-15 12q-32 -30 -60.5 -43.5
t-66.5 -13.5q-81 0 -127.5 47.5t-46.5 140.5q0 92 51.5 143.5t128.5 51.5q102 0 155.5 -66t53.5 -182q0 -78 -34 -153t-77 -125.5t-93 -118t-72 -123.5q70 3 172 16v-96q-80 3 -191 10q-4 -32 -4 -47q0 -42 12.5 -122.5t12.5 -115.5z" />
    <glyph glyph-name="eight" unicode="8" horiz-adv-x="1054" 
d="M526 649q-46 0 -68.5 -22.5t-32.5 -82t-11 -182.5q0 -172 23 -234t89 -62q67 0 91 62t22 234q0 122 -10 182t-33 82.5t-70 22.5zM526 735q66 0 90.5 53.5t24.5 196.5q-1 145 -25 195.5t-90 50.5q-64 0 -87 -50.5t-25 -195.5q0 -143 24 -196.5t88 -53.5zM526 -18
q-263 0 -377 94t-114 284q0 154 76 231t233 85v33q-156 13 -220.5 79.5t-64.5 194.5q0 159 110 242.5t357 83.5q248 0 358.5 -83t110.5 -241q0 -130 -65 -198t-219 -78v-35q158 -9 233.5 -87t75.5 -227q0 -190 -114.5 -284t-379.5 -94z" />
    <glyph glyph-name="nine" unicode="9" horiz-adv-x="1054" 
d="M625 946q0 155 -22.5 218t-78.5 63q-54 0 -77 -70t-23 -244q0 -128 24 -173.5t76 -45.5q33 0 53 17t34 74.5t14 160.5zM381 72q69 0 116.5 23.5t83.5 80.5t53 158t17 252q0 19 1 69t1 84h-20q-20 -112 -87.5 -162.5t-191.5 -50.5q-313 0 -313 340q0 76 13 138.5t46 120.5
t86.5 97.5t139 63t198.5 23.5q141 0 238 -42t154 -129t81.5 -205t24.5 -284q0 -354 -130.5 -514t-393.5 -160q-206 0 -316 75.5t-110 201.5q0 95 51.5 148t159.5 53q92 0 148 -43t56 -123q0 -72 -43 -115t-125 -43q-59 0 -102 18l-14 -22q71 -53 178 -53z" />
    <glyph glyph-name="A" unicode="A" horiz-adv-x="1112" 
d="M-27 76q56 29 132 234t129 439t53 353q0 64 -35.5 88t-128.5 24v76h659q-3 -35 72.5 -364.5t140.5 -589.5q35 -134 66 -189.5t78 -70.5v-76h-662v76q81 0 110 69t3 193l-31 149h-137h-123q-8 -99 -8 -178q0 -110 28 -159.5t87 -73.5v-76h-433v76zM422 559h123l-127 623
h-21q-70 -382 -92 -623h117z" />
    <glyph glyph-name="B" unicode="B" horiz-adv-x="1159" 
d="M670 0h-664v76q88 0 103.5 35t15.5 217v24v586q0 180 -8 216q-9 44 -42 54q-19 6 -69 6v76h651q254 0 350.5 -68t96.5 -249q0 -64 -10.5 -111.5t-34.5 -79.5t-53.5 -53t-76 -32.5t-93 -16t-113.5 -6.5v-37q85 -2 141 -9t109.5 -26t84 -52t48.5 -87.5t18 -132.5
q0 -189 -98.5 -259.5t-355.5 -70.5zM543 612h-35v-538h20q59 0 97.5 11t68 40.5t43 84t13.5 138.5q0 83 -12 136t-40 80.5t-63.5 37.5t-91.5 10zM530 1217h-22v-533h33q74 0 113 19.5t58 75t19 163.5q0 87 -10 140.5t-36 83.5t-61 40.5t-94 10.5z" />
    <glyph glyph-name="C" unicode="C" horiz-adv-x="1062" 
d="M924 1305h77q-6 -63 -8.5 -293t0.5 -293h-75q-39 122 -72 206.5t-73 159t-84 111.5t-93 37q-40 0 -66 -21t-46 -77.5t-29 -161.5t-9 -268q0 -203 28.5 -325t82 -172t139.5 -50q117 0 171 90.5t55 308.5h77q0 -116 -11 -201.5t-39.5 -160t-76.5 -121.5t-123 -73t-178 -26
q-92 0 -166 17t-143.5 63t-116 120t-74.5 194.5t-28 279.5q0 246 57.5 394t166 210t280.5 62q72 0 135.5 -17t109 -34t72.5 -17q49 0 60 58z" />
    <glyph glyph-name="D" unicode="D" horiz-adv-x="1200" 
d="M575 1214h-65v-1138h68q31 0 56 10.5t50.5 45t42.5 92t28 158.5t11 239q1 251 -17 377.5t-57 171t-117 44.5zM623 0h-617v76q88 0 103.5 35.5t15.5 222.5v12v598v12q0 187 -15.5 222.5t-103.5 35.5v76h582q309 0 440 -153.5t131 -493.5q0 -347 -121.5 -495t-414.5 -148z
" />
    <glyph glyph-name="E" unicode="E" horiz-adv-x="1103" 
d="M1022 0h-1008v76q88 0 103.5 36.5t15.5 226.5v13v586q0 180 -9 218q-9 43 -44 53q-19 5 -66 5v76h994q-2 -49 -2 -247t2 -257h-64q-62 216 -158 310t-270 121v-519q78 26 132.5 92t72.5 168h61q-2 -52 -2 -296q0 -193 2 -297h-61q-18 112 -71.5 178.5t-133.5 85.5v-555
q173 37 284.5 151.5t160.5 331.5h63q-2 -84 -2 -557z" />
    <glyph glyph-name="F" unicode="F" horiz-adv-x="1021" 
d="M694 0h-688v76q88 0 103.5 37t15.5 230v13v578q0 182 -9 221q-10 44 -44 53q-19 6 -66 6v76h983q-2 -40 -1.5 -267.5t3.5 -277.5h-63q-69 234 -162.5 339t-257.5 133v-617q90 28 155 98t87 181h59q-2 -111 -2 -316q0 -202 2 -311h-59q-22 120 -87.5 191t-154.5 87v-174
q0 -72 1.5 -113.5t10 -76.5t18 -50t34 -26t49.5 -12.5t73 -1.5v-76z" />
    <glyph glyph-name="G" unicode="G" horiz-adv-x="1193" 
d="M551 1315q83 0 157 -17.5t127 -35t85 -17.5q50 0 61 60h76q-4 -54 -5 -271.5t1 -273.5h-76q-81 210 -189.5 341.5t-205.5 131.5q-48 0 -76 -42t-44 -168.5t-16 -358.5q0 -220 16 -351t46.5 -186t79.5 -55q57 0 81 62t23 228v19v64t-2.5 47t-5 37t-10.5 23.5t-17 17.5
t-26.5 8t-35.5 5.5t-48 0.5v73h635v-73q-82 0 -96.5 -32.5t-14.5 -199.5v-12q0 -290 4 -340h-74q-16 129 -83 129q-28 0 -70.5 -24t-84.5 -53t-114.5 -53t-152.5 -24q-66 0 -125.5 16.5t-121 63t-106 119.5t-72.5 195t-28 280q0 185 32 314t97.5 206t157.5 111.5t221 34.5z
" />
    <glyph glyph-name="H" unicode="H" horiz-adv-x="1290" 
d="M780 324v299q-45 2 -135 2q-92 0 -137 -2v-299q0 -180 12.5 -214t83.5 -34v-76h-598v76q88 0 103.5 32.5t15.5 204.5v11v643v11q0 172 -15.5 204t-103.5 32v76h598v-76q-71 0 -83.5 -33.5t-12.5 -213.5v-269q45 -2 137 -2q90 0 135 2v269v14q0 170 -12 201.5t-82 31.5v76
h598v-76q-88 0 -103.5 -32t-15.5 -204v-11v-643v-11q0 -172 15.5 -204.5t103.5 -32.5v-76h-598v76q69 0 81.5 32t12.5 202v14z" />
    <glyph glyph-name="I" unicode="I" horiz-adv-x="634" 
d="M125 338v614q0 190 -15.5 226t-103.5 36v76h621v-76q-88 0 -103.5 -36t-15.5 -226v-614q0 -190 15.5 -226t103.5 -36v-76h-621v76q88 0 103.5 36t15.5 226z" />
    <glyph glyph-name="J" unicode="J" horiz-adv-x="620" 
d="M125 948v12q0 184 -15.5 219t-103.5 35v76h606v-76q-77 0 -90.5 -35t-13.5 -218v-887q2 -154 -69.5 -235t-209.5 -81q-134 0 -204 59t-70 167q0 86 43.5 133t120.5 47q83 0 122.5 -46.5t39.5 -117.5q0 -68 -28 -102.5t-65 -38.5q-20 -6 -20 -19q0 -16 25 -16
q60 0 106.5 48t46.5 144q0 195 -221 201v731z" />
    <glyph glyph-name="K" unicode="K" horiz-adv-x="1196" 
d="M821 733q102 0 158.5 -62.5t56.5 -211.5v-189q0 -66 8 -91t35 -25q21 0 29 30t8 113q0 21 -1 77t-1 91h66q4 -114 4 -156q0 -104 -10 -164.5t-38.5 -98t-72 -50t-117.5 -12.5q-145 0 -207.5 62t-62.5 208q0 48 1 142t1 143q0 92 -96 92q-15 0 -39 -1t-35 -1v-283
q0 -196 13 -233t85 -37v-76h-600v76q88 0 103.5 35.5t15.5 222.5v12v598v12q0 187 -15.5 222.5t-103.5 35.5v76h580v-76q-58 0 -68 -37t-10 -233v-209q90 82 150 193t59 202q0 39 -13.5 58.5t-48.5 25.5v76h510v-76q-112 -90 -575 -495l10 -25q157 39 221 39z" />
    <glyph glyph-name="L" unicode="L" horiz-adv-x="921" 
d="M887 0h-881v76q88 0 103.5 37t15.5 230v13v588v12q0 187 -15.5 222.5t-103.5 35.5v76h684v-76q-47 0 -71.5 -1.5t-48.5 -12t-33.5 -25t-17.5 -48.5t-9.5 -73.5t-1.5 -109.5v-870q115 50 190.5 204.5t128.5 438.5h62q-2 -117 -2 -717z" />
    <glyph glyph-name="M" unicode="M" horiz-adv-x="1519" 
d="M870 592l-211 -600h-51l-237 592q-91 229 -156 434h-4v-240q0 -190 14.5 -320t45.5 -210t74 -119.5t106 -52.5v-76h-445v76q42 31 68 93t43.5 213.5t17.5 395.5v174v11q0 181 -17 216t-112 35v76h567q1 -111 63 -314.5t146 -414.5q174 475 172 729h559v-73
q-87 0 -102.5 -36t-15.5 -223v-6v-606q0 -195 15.5 -232.5t102.5 -37.5v-76h-679l2 76q97 0 136.5 66t39.5 204v666h-4q-32 -110 -138 -420z" />
    <glyph glyph-name="N" unicode="N" horiz-adv-x="1153" 
d="M539 76v-76h-527v76q67 31 92 174.5t25 445.5v246q0 177 -9 215q-10 42 -45 52q-20 5 -69 5v76h514q3 -82 48.5 -198.5t176.5 -341.5q20 -36 195 -361l21 6q-7 79 -7 123q0 213 -26.5 359.5t-87 235t-156.5 101.5v76h459v-76q-110 -46 -117 -557q0 -412 31 -657h-312
l-337 598q-75 137 -197 412l-14 -4q4 -98 4 -142q0 -149 19 -280t57.5 -242t105.5 -182t156 -84z" />
    <glyph glyph-name="O" unicode="O" horiz-adv-x="1179" 
d="M1139 643q-1 -175 -31 -298.5t-96 -207t-170 -123t-252 -39.5q-295 0 -422 156.5t-127 511.5q0 356 127.5 514t421.5 158q292 0 420.5 -161.5t128.5 -510.5zM733 645q1 247 -15 378t-45 173.5t-83 42.5q-55 0 -84.5 -42.5t-45.5 -173t-16 -378.5q1 -247 17 -376.5
t45 -172.5t84 -43q54 0 82.5 42t44.5 172t16 378z" />
    <glyph glyph-name="P" unicode="P" 
d="M698 76v-76h-692v76q88 0 103.5 34.5t15.5 217.5v630q0 185 -16 220.5t-103 35.5v76h598q277 0 393.5 -103t116.5 -333q0 -238 -109 -343t-352 -105q-65 0 -143 4v-82q0 -67 1 -103t9 -68.5t17.5 -45t34.5 -22.5t50.5 -11.5t75.5 -1.5zM573 487q34 0 58.5 6.5t48 27.5
t37.5 58t22.5 100t8.5 152q0 103 -5.5 169.5t-17 110.5t-34 65.5t-50 29.5t-72.5 8h-59v-725q27 -2 63 -2z" />
    <glyph glyph-name="Q" unicode="Q" horiz-adv-x="1175" 
d="M668 236q0 72 -17.5 98t-52.5 26q-38 0 -56 -26.5t-18 -95.5q0 -73 14 -109.5t54 -36.5q76 0 76 144zM449 268h32q0 44 8.5 86t35 78.5t67.5 36.5q85 0 102 -137h29q8 125 8 313q0 149 -4 246t-12.5 168.5t-25.5 108.5t-41 54t-60 17q-59 0 -89 -50.5t-42 -174.5
t-11 -369q0 -224 3 -377zM928 -182q-68 0 -107.5 32t-62.5 110.5t-31 219.5h-27q-13 -203 -225 -203q-240 0 -337 158t-97 508q0 175 29 298.5t93.5 208.5t169 125t255.5 40q150 0 256.5 -40.5t169.5 -121t92 -189.5t29 -255q0 -208 -91.5 -313.5t-308.5 -129.5v-26
q81 -29 191 -29q46 0 75 8t43 26t18.5 38t4.5 53h66q7 -194 -10.5 -305.5t-64 -162t-130.5 -50.5z" />
    <glyph glyph-name="R" unicode="R" horiz-adv-x="1216" 
d="M543 1217h-35v-537h35q104 0 150 59.5t46 216.5q0 88 -7.5 137t-31.5 78t-59 37.5t-98 8.5zM961 -18q-140 0 -204 56.5t-67 188.5q0 70 -4 242q0 88 -33.5 113.5t-134.5 25.5h-10v-256q0 -173 9 -211q10 -46 48 -57q25 -8 92 -8v-76h-651v76q88 0 103.5 42t15.5 262v15
v496q0 212 -9 257q-10 49 -44 60q-19 6 -66 6v76h719q219 0 304 -68t85 -247q0 -66 -12 -115.5t-38 -82.5t-58.5 -54.5t-83 -33t-101 -16t-121.5 -5.5v-35q200 -1 279.5 -56.5t79.5 -187.5v-96q0 -80 7 -110.5t28 -30.5t30.5 33.5t10.5 131.5q0 87 -9 172h70q2 -59 2 -155
q0 -212 -46 -282t-191 -70z" />
    <glyph glyph-name="S" unicode="S" horiz-adv-x="1021" 
d="M666 184q0 79 -55 140.5t-181 126.5q-195 97 -288 211t-93 276q0 173 105.5 275t306.5 102q57 0 113 -14.5t92 -32.5t73.5 -32.5t61.5 -14.5q29 0 44.5 15.5t24.5 53.5h66q-3 -62 -3 -264t3 -262h-66q-176 469 -393 469q-57 0 -90 -34t-33 -95q0 -68 46.5 -125
t160.5 -115q106 -51 179 -100t130.5 -110t85 -135.5t27.5 -166.5q0 -192 -108 -284.5t-291 -92.5q-76 0 -148 17.5t-115.5 39t-84 39t-60.5 17.5q-27 0 -42 -20t-19 -68h-66q4 71 3.5 284.5t-3.5 284.5h66q82 -217 200 -363.5t230 -146.5q121 0 121 125z" />
    <glyph glyph-name="T" unicode="T" horiz-adv-x="1118" 
d="M369 1214q-61 -24 -116.5 -115.5t-93 -212.5t-55.5 -251h-67q3 92 2.5 332.5t-2.5 322.5h1044q-3 -74 -3.5 -322t3.5 -333h-69q-28 202 -101 373.5t-157 205.5v-831v-9v-95.5t3 -69.5t6 -54.5t13.5 -34.5t20.5 -25t32 -11t44 -7.5t59 -0.5v-76h-742v76h49t39 4.5t31 6.5
t22.5 14t16.5 18.5t11 30t7.5 38t3 52t1.5 63.5v80v831h-2z" />
    <glyph glyph-name="U" unicode="U" horiz-adv-x="1081" 
d="M883 434q0 242 -31 404t-81 243.5t-128 132.5v76h430v-76q-62 -34 -88.5 -138.5t-26.5 -315.5v-332q0 -115 -19.5 -195.5t-64.5 -138t-121.5 -85t-187.5 -27.5q-171 0 -270.5 46t-140.5 138t-41 248v553q0 163 -8 196q-9 40 -42 49q-20 5 -67 5v73h561v-73
q-44 -1 -51.5 -35.5t-7.5 -214.5v-518q0 -250 198 -250q97 0 142 58t45 177z" />
    <glyph glyph-name="V" unicode="V" horiz-adv-x="1114" 
d="M788 0h-458q3 36 -73.5 361.5t-141.5 578.5q-36 145 -65 202t-79 72v76h654v-76q-91 0 -113 -65t10 -213l164 -791h43q92 527 92 822q0 119 -29.5 173t-93.5 74v76h443v-78q-89 -49 -182 -362t-171 -850z" />
    <glyph glyph-name="W" unicode="W" horiz-adv-x="1761" 
d="M831 313q-28 -137 -38 -313h-482q4 37 -70 392t-128 569q-34 133 -63.5 185.5t-78.5 67.5v76h1313v-76q-86 -1 -103.5 -62.5t13.5 -197.5l160 -848h28q66 386 81 631t-7.5 345t-75.5 130v78h408v-78q-68 -34 -133 -242t-146 -657q-34 -161 -39 -313h-485q3 26 -33 206.5
t-73 336.5q-5 -27 -22 -105t-26 -125zM520 958l160 -849h31q109 551 77 809q-11 111 -53.5 198t-111.5 115q-77 -19 -102.5 -85t-0.5 -188z" />
    <glyph glyph-name="X" unicode="X" horiz-adv-x="1028" 
d="M369 76v-76h-383v76q105 83 313 553q-170 359 -222.5 459.5t-84.5 125.5v76h583v-71q-49 -10 -62 -59t24 -126l143 -329q56 180 46.5 327t-81.5 182v76h391v-76q-29 -18 -57.5 -54.5t-70.5 -121.5t-64.5 -134.5t-84.5 -190.5q-20 -45 -30 -68q152 -325 211.5 -431
t101.5 -138v-76h-604v76q55 8 68 53t-29 141l-125 301q-36 -119 -50.5 -208.5t0 -169t67.5 -117.5z" />
    <glyph glyph-name="Y" unicode="Y" horiz-adv-x="1087" 
d="M899 0h-692v76q113 0 133 44t20 271v6l-233 578q-46 125 -76.5 175t-79.5 64v76h639v-76q-73 0 -93.5 -65.5t15.5 -175.5l152 -467h12q49 165 69.5 295.5t12.5 212.5t-31.5 131t-62.5 69v76h430v-76q-147 -79 -369 -817q0 -232 20.5 -276.5t133.5 -44.5v-76z" />
    <glyph glyph-name="Z" unicode="Z" horiz-adv-x="1128" 
d="M84 618q3 83 3 335t-3 337h971v-88q-5 -10 -40 -69t-68 -118t-100.5 -190t-146.5 -295l-223 -454h39q63 0 115.5 18.5t95 58t77 89.5t67 127.5t58 155.5t56.5 188h64q-3 -88 -3 -356t3 -357h-1010v86q48 75 75.5 120.5t101.5 179t159 302.5l258 529h-78
q-134 0 -230.5 -151t-177.5 -448h-63z" />
    <glyph glyph-name="a" unicode="a" horiz-adv-x="1083" 
d="M72 879q0 125 96 191.5t309 66.5q179 0 280.5 -38t145 -119t43.5 -222q0 -60 -2 -245t-2 -239q0 -75 6 -99.5t25 -24.5q16 0 24 20t13.5 95t-0.5 222h57q4 -103 4.5 -180.5t-10.5 -133t-26 -92.5t-42 -58.5t-59.5 -30t-77.5 -8.5q-123 0 -171.5 58.5t-51.5 203.5h-19
q-50 -262 -290 -262q-166 0 -233.5 76.5t-67.5 240.5q0 163 75 241.5t234 84.5q84 2 132.5 12.5t72.5 36.5t30 55.5t6 85.5v41q0 107 -53 153t-158 46q-75 0 -135 -25l6 -20q34 6 60 6q76 0 120 -38t44 -112q0 -166 -191 -166q-91 0 -142.5 46t-51.5 131zM467 166
q52 0 79 38.5t27 129.5v287q-16 -14 -47 -32t-54.5 -34.5t-47.5 -43t-37.5 -70.5t-13.5 -103q0 -96 22.5 -134t71.5 -38z" />
    <glyph glyph-name="b" unicode="b" horiz-adv-x="1075" 
d="M598 -12q-74 0 -135 16t-93 35t-66.5 35t-61.5 16q-32 0 -53 -26t-21 -64h-74v1202q0 65 -20 88t-86 23v76q398 22 481 36q-2 -126 -16.5 -304.5t-16.5 -243.5h21q27 135 88.5 198.5t175.5 63.5q178 0 245 -128.5t62 -441.5q3 -312 -100.5 -446.5t-329.5 -134.5zM465 250
q0 -103 18 -143.5t74 -40.5q42 0 62.5 32t31.5 138t11 323q0 158 -11 241t-30.5 109.5t-55.5 26.5q-100 0 -100 -248v-438z" />
    <glyph glyph-name="c" unicode="c" horiz-adv-x="989" 
d="M434 610q0 -130 13.5 -214t42.5 -130.5t67.5 -64t97.5 -17.5q194 0 205 275h72q0 -120 -19 -205.5t-65 -149.5t-126 -95.5t-198 -31.5q-88 0 -157.5 16t-131 57t-102.5 107t-64.5 169t-23.5 239q0 160 30.5 272t93 178.5t149.5 96t208 29.5q213 0 310.5 -83t97.5 -229
q0 -109 -49.5 -171t-141.5 -62q-101 0 -144.5 52.5t-43.5 135.5q0 90 43.5 146.5t122.5 56.5q35 0 65 -12l11 24q-62 45 -146 45q-40 0 -69.5 -8t-59 -34.5t-47.5 -73t-29.5 -126.5t-11.5 -192z" />
    <glyph glyph-name="d" unicode="d" horiz-adv-x="1067" 
d="M510 164q61 0 78 100h-2l2 2q10 52 10 123v643q-27 10 -51 10q-28 0 -43.5 -3.5t-33 -18.5t-25.5 -44.5t-16 -83t-10.5 -132.5t-2.5 -193q0 -157 11 -246.5t30.5 -123t52.5 -33.5zM653 0q4 47 4 264h-24q-41 -280 -275 -280q-173 0 -244 130t-69 437q-1 158 24 269.5
t76.5 177t121.5 95t167 29.5q103 0 164 -22v106q0 66 -28 90.5t-115 24.5v74q75 0 267 10.5t247 19.5v-1241q0 -64 19 -86t81 -22v-76h-416z" />
    <glyph glyph-name="e" unicode="e" horiz-adv-x="1030" 
d="M428 618v-8h213q-1 147 -8.5 240t-23 139.5t-33.5 62t-46 15.5t-45 -15t-31 -61t-20 -136.5t-6 -236.5zM975 434q0 -87 -11.5 -154t-40 -125.5t-75.5 -96.5t-119.5 -59.5t-169.5 -21.5q-96 0 -169 14.5t-140.5 54t-110.5 104.5t-68.5 170t-25.5 247q0 310 117.5 443
t369.5 133q127 0 215.5 -34.5t138 -101t70.5 -150t21 -195.5q0 -22 -1 -63.5t-1 -61.5h-545q7 -203 63.5 -279t188.5 -76q109 0 164.5 59.5t54.5 192.5h74z" />
    <glyph glyph-name="f" unicode="f" horiz-adv-x="612" 
d="M240 1235q0 -115 61.5 -174.5t177.5 -59.5h107v-73h-107v-740q0 -63 26.5 -88.5t104.5 -25.5v-74q-57 2 -309.5 2t-310.5 -2v74q72 0 95.5 25.5t23.5 88.5v740h-97v73h219v25q-121 20 -179 71.5t-58 153.5q0 120 85 183t245 63q297 0 297 -242q0 -89 -38.5 -134.5
t-105.5 -45.5q-80 0 -117.5 47t-37.5 121q0 77 40.5 117.5t96.5 40.5q11 0 43 -4l6 16q-39 19 -88 19q-82 0 -131 -48t-49 -149z" />
    <glyph glyph-name="g" unicode="g" horiz-adv-x="1034" 
d="M614 727q0 147 -9 219t-29 96.5t-60 24.5q-39 0 -58 -25.5t-27.5 -96.5t-8.5 -218q0 -130 8.5 -194.5t28.5 -89.5t59 -25t58.5 24.5t28.5 90t9 194.5zM825 -119q0 64 -82 64q-85 0 -272 -4t-227 -4h-27q1 -27 6 -46t23.5 -39t50.5 -32t89.5 -19.5t137.5 -7.5
q100 0 164 6.5t92 20.5t36.5 27t8.5 34zM522 -268q-142 0 -235 8.5t-139.5 26t-63 37.5t-16.5 49q0 38 29 64t73 32l2 28q-79 19 -116.5 61t-37.5 132q0 94 61 152.5t171 58.5q69 0 112 -2v33q-165 17 -233 94t-68 246q-1 210 101 297.5t348 87.5q46 0 128.5 -5.5
t109.5 -5.5q24 0 24 19q0 20 -49 37q-43 14 -66.5 39t-23.5 77q0 60 43 97t129 37q184 0 184 -170q0 -86 -48.5 -133.5t-137.5 -47.5q-21 0 -72.5 5t-77.5 6v-33q96 -7 158 -29.5t98 -66.5t50 -103.5t14 -148.5q2 -200 -103 -284.5t-356 -84.5q-126 0 -192 -7.5t-86.5 -21
t-20.5 -37.5q0 -49 72 -49q11 0 195 7.5t268 7.5q130 0 199 -64t69 -174q0 -97 -39 -153.5t-149 -87.5t-308 -31z" />
    <glyph glyph-name="h" unicode="h" 
d="M532 74v-74h-536v74q59 0 78.5 23.5t19.5 84.5v1024q0 65 -18 87t-76 22v74q397 23 469 36q-3 -111 -21.5 -302.5t-21.5 -282.5h14q31 169 100.5 234t202.5 65q153 0 221 -85.5t68 -265.5v-606q0 -60 21 -84t77 -24v-74h-536v74q40 0 54 20.5t14 69.5v608q0 92 -21 128
t-70 36q-45 0 -75.5 -45.5t-30.5 -151.5v-575q0 -50 13.5 -70t53.5 -20z" />
    <glyph glyph-name="i" unicode="i" horiz-adv-x="559" 
d="M266 1468q230 0 230 -145q0 -74 -57.5 -107.5t-172.5 -33.5t-173 34t-58 107q0 145 231 145zM563 0h-567v74q59 0 78.5 24t19.5 86v746q0 63 -20.5 86.5t-85.5 23.5v76h477v-932q0 -62 19 -86t79 -24v-74z" />
    <glyph glyph-name="j" unicode="j" horiz-adv-x="565" 
d="M289 1468q229 0 229 -145q0 -74 -57 -107.5t-172 -33.5q-116 0 -174 33.5t-58 107.5q0 75 58 110t174 35zM487 45q0 -150 -70.5 -232.5t-195.5 -82.5q-135 0 -194.5 54.5t-59.5 158.5q0 79 38.5 123.5t107.5 44.5q72 0 106.5 -38t34.5 -102q0 -68 -39 -104.5t-90 -36.5
q-25 0 -41 4l-4 -27q27 -8 65 -8q78 0 129.5 47.5t51.5 145.5q0 96 -51 145.5t-158 52.5v738q0 63 -23.5 88.5t-95.5 25.5v74h489v-1071z" />
    <glyph glyph-name="k" unicode="k" horiz-adv-x="1146" 
d="M469 1425v-757q81 56 131.5 135.5t48.5 146.5q0 41 -20.5 62.5t-75.5 31.5v72h530v-72q-59 -41 -252 -180.5t-315 -224.5l8 -25q97 28 148.5 38t103.5 10q99 0 153 -48.5t54 -177.5v-143q0 -78 7.5 -106.5t29.5 -28.5q18 0 27.5 22.5t15 94t4.5 206.5h68
q3 -129 -5 -216.5t-25 -144t-50.5 -86.5t-74 -41t-103.5 -11q-140 0 -200.5 61t-60.5 205q0 34 2.5 114t2.5 125q0 78 -86 78q-48 0 -66 -2v-379q0 -61 23.5 -85.5t91.5 -24.5v-74h-598v74q66 0 87 24t21 86v1018q0 67 -20 90t-86 23v74q398 22 481 36z" />
    <glyph glyph-name="l" unicode="l" horiz-adv-x="561" 
d="M469 1425v-1241q0 -61 21 -85.5t83 -24.5v-74h-587v74q66 0 87 24t21 86v1018q0 67 -20 90t-86 23v74q398 22 481 36z" />
    <glyph glyph-name="m" unicode="m" horiz-adv-x="1693" 
d="M1032 743v-559q0 -60 13.5 -85t48.5 -25v-74h-500v74q40 0 54 24.5t14 85.5v586q0 93 -21 129.5t-70 36.5q-53 0 -79.5 -44t-26.5 -153v-555q0 -61 13.5 -85.5t53.5 -24.5v-74h-536v74q59 0 78.5 24t19.5 86v746q0 66 -20.5 89t-83.5 23v74h436q-2 -92 -2 -282h16
q14 90 40 151t66 94t86.5 46.5t110.5 13.5q130 0 185 -68t63 -237h17q13 88 39 148.5t66 94.5t87.5 48t112.5 14q151 0 218.5 -84t67.5 -260v-611q0 -60 21.5 -85t75.5 -25v-74h-533v74q39 0 52.5 24.5t13.5 85.5v586q0 93 -21 129.5t-69 36.5q-53 0 -80 -43t-27 -150z" />
    <glyph glyph-name="n" unicode="n" 
d="M532 74v-74h-536v74q60 0 79 23.5t19 84.5v752q0 65 -19.5 86.5t-84.5 21.5v74h436q-4 -176 -4 -280h20q30 174 99 238.5t202 64.5q153 0 221 -86t68 -267v-604q0 -59 21 -83.5t77 -24.5v-74h-536v74q40 0 54 20.5t14 69.5v608q0 92 -21 128t-70 36q-45 0 -75.5 -45.5
t-30.5 -151.5v-575q0 -50 13.5 -70t53.5 -20z" />
    <glyph glyph-name="o" unicode="o" horiz-adv-x="1052" 
d="M1008 567q0 -315 -111.5 -452.5t-370.5 -137.5q-260 0 -371 137t-110 453q0 312 110 442t371 130q259 0 370.5 -132t111.5 -440zM629 569q-1 215 -13.5 324.5t-32 139.5t-57.5 30t-57.5 -29.5t-32 -139t-12.5 -325.5t12 -330.5t32.5 -149t57.5 -34.5t57.5 35t33 149.5
t12.5 329.5z" />
    <glyph glyph-name="p" unicode="p" horiz-adv-x="1077" 
d="M662 569q0 156 -9.5 234.5t-28.5 105.5t-57 27q-33 0 -54.5 -23.5t-35.5 -95.5t-14 -196v-506q35 -21 82 -21q49 0 72 34t34 133.5t11 307.5zM610 -176v-74h-624v74q66 0 87 24t21 84v1000q0 66 -17.5 88t-74.5 22v74h426q-4 -82 -4 -248h14q36 150 102.5 210.5
t182.5 60.5q174 0 241.5 -126.5t65.5 -445.5q1 -213 -43.5 -341t-129 -180.5t-218.5 -51.5q-106 0 -176 47v-109q0 -60 29.5 -84t117.5 -24z" />
    <glyph glyph-name="q" unicode="q" horiz-adv-x="1081" 
d="M518 1049q-41 0 -61 -32t-31 -139.5t-12 -328.5q0 -159 11.5 -243t31 -110t55.5 -26q13 0 24 4t23 18.5t20 38.5t13.5 67.5t5.5 102.5v492q0 84 -17.5 120t-62.5 36zM625 -68q21 166 24 347h-20q-24 -161 -92.5 -229t-182.5 -68q-176 0 -243 130t-64 443q-1 310 103 444
t329 134q72 0 131 -15t90.5 -33.5t65.5 -33.5t61 -15q32 0 53 24t21 62h68v-1208q0 -52 20.5 -71t85.5 -19v-74h-600v74q62 0 92.5 11t40.5 31t17 66z" />
    <glyph glyph-name="r" unicode="r" horiz-adv-x="833" 
d="M623 76v-76h-629v76q61 0 81.5 25t20.5 81v752q0 59 -21 82.5t-83 23.5v76h436q-2 -98 -2 -330h14q21 183 75.5 265t141.5 82q156 0 156 -226q0 -112 -35 -183t-110 -71q-38 0 -66 20t-40.5 44.5t-28.5 44.5t-33 20q-35 0 -35 -84v-487q0 -82 30 -108.5t128 -26.5z" />
    <glyph glyph-name="s" unicode="s" horiz-adv-x="911" 
d="M549 143q0 66 -50 122.5t-161 119.5q-287 173 -287 424q0 158 91.5 246t273.5 88q59 0 116 -16.5t98.5 -33t63.5 -16.5q24 0 37 11.5t19 39.5h71q-3 -53 -3 -221t3 -219h-71q-139 383 -322 383q-45 0 -68.5 -25t-23.5 -67q0 -58 47.5 -111.5t144.5 -109.5
q76 -43 133.5 -88.5t105 -102t72.5 -124t25 -144.5q0 -165 -97 -243.5t-269 -78.5q-75 0 -145 19t-117 38t-68 19q-46 0 -49 -55h-74q4 48 4 222.5t-2 246.5h70q75 -191 164 -303.5t178 -112.5q90 0 90 92z" />
    <glyph glyph-name="t" unicode="t" horiz-adv-x="677" 
d="M465 1405v-289h184v-76h-184v-757q0 -78 9.5 -105.5t35.5 -27.5q17 0 28 17t18.5 76t8.5 167q0 69 -4 155h76q2 -41 2 -164q-1 -122 -12 -198t-40 -128t-77.5 -72.5t-126.5 -20.5q-73 0 -122.5 13t-88.5 46.5t-57.5 96.5t-18.5 159v743h-90v76q164 0 266 74t125 215h68z
" />
    <glyph glyph-name="u" unicode="u" 
d="M700 0q2 94 2 281h-22q-27 -173 -95.5 -236t-201.5 -63q-154 0 -221.5 85t-67.5 263v608q0 63 -19.5 83.5t-80.5 20.5v74h481q-2 -16 -6 -126t-4 -163v-497q0 -84 20.5 -117t67.5 -33q54 0 81.5 48.5t27.5 168.5v506q0 93 -18 116t-97 23v74h493q-8 -50 -8 -291v-645
q0 -63 19 -84.5t79 -21.5v-74h-430z" />
    <glyph glyph-name="v" unicode="v" horiz-adv-x="913" 
d="M676 0h-447q0 4 -37 199.5t-75 402.5t-41 234q-24 116 -43.5 157.5t-55.5 48.5v74h547v-74q-39 0 -55.5 -19.5t-16.5 -63.5t15 -128l121 -729h28q64 466 64 650q0 131 -15.5 197.5t-58.5 90.5v76h318v-76q-43 -23 -113.5 -325t-134.5 -715z" />
    <glyph glyph-name="w" unicode="w" horiz-adv-x="1515" 
d="M670 0h-443q1 5 -35.5 195.5t-74.5 393t-41 228.5q-22 120 -41 167t-60 58v74h1129v-74q-62 -25 -29 -225l121 -737h29q63 447 63 643q0 259 -119 317v76h361v-76q-43 -21 -113.5 -324.5t-132.5 -715.5h-434q0 12 -92 514q-66 -361 -88 -514zM465 815l121 -733h30
q53 297 70.5 443t1.5 237l-14 80q-15 89 -44.5 141t-82.5 82q-61 -30 -80.5 -86.5t-1.5 -163.5z" />
    <glyph glyph-name="x" unicode="x" horiz-adv-x="970" 
d="M328 76v-76h-344v76q50 41 126.5 169.5t149.5 305.5q-127 276 -181 371t-93 118v76h555v-72q-35 -14 -38.5 -54.5t25.5 -100.5l121 -285q49 153 44.5 275t-64.5 161v76h352v-76q-54 -33 -116 -145.5t-158 -331.5q126 -275 179.5 -366t98.5 -121v-76h-565v74q76 34 8 170
l-106 264q-37 -104 -50 -189t0.5 -148.5t55.5 -94.5z" />
    <glyph glyph-name="y" unicode="y" horiz-adv-x="909" 
d="M322 -270q-279 0 -279 184q0 76 54.5 120t156.5 44q203 0 203 -127q0 -46 -35.5 -77.5t-95.5 -43.5l4 -31q108 17 164.5 80.5t56.5 159.5q0 54 -24.5 74t-77.5 20h-232l-158 787q-19 73 -35 96.5t-47 25.5v74h531v-74q-35 -5 -46 -30.5t1 -102.5l129 -714h35
q31 211 41 371t0 256.5t-32 149.5t-56 68v76h352v-76q-50 -24 -85 -156.5t-112 -537.5q-32 -168 -51 -266q-36 -176 -122.5 -263t-239.5 -87z" />
    <glyph glyph-name="z" unicode="z" horiz-adv-x="1019" 
d="M72 528q4 75 4 294t-4 294h878v-80q-2 -3 -32 -54.5t-55 -97t-80.5 -154.5t-120.5 -245l-195 -409h20q63 0 111 21t85 59.5t69 107t57 148.5t55 200h70q-4 -75 -4 -306t4 -306h-895v78q133 212 297 553l201 413h-52q-118 0 -198 -124t-146 -392h-69z" />
    <glyph glyph-name="uni00A0" unicode="&#xa0;" horiz-adv-x="382" 
 />
  </font>
</defs>
</svg>
