<svg xmlns="http://www.w3.org/2000/svg">
<defs>
<font id="OhnoFatfaceVariable-None" horiz-adv-x="234" >
  <font-face 
    font-family="Ohno Fatface Variable"
    font-weight="400"
    font-stretch="normal"
    units-per-em="1000"
    panose-1="0 0 0 0 0 0 0 0 0 0"
    ascent="750"
    descent="-250"
    x-height="545"
    cap-height="630"
    bbox="-104 -240 614 925"
    underline-thickness="50"
    underline-position="-100"
    unicode-range="U+0020-FB02"
  />
<missing-glyph horiz-adv-x="546" 
d="M470 316q0 -132 -9.5 -224.5t-31.5 -151t-60.5 -85.5t-96.5 -27t-96 26t-60 83t-31.5 150.5t-9.5 228.5q0 136 9.5 229.5t31.5 150.5t60 83t96 26t96.5 -27t60.5 -85.5t31.5 -151.5t9.5 -225zM499 317q0 143 -11 243t-36.5 163t-69.5 92t-110 29t-110 -27.5t-69 -89
t-36 -162.5t-11 -248q0 -145 11 -246t36 -163t69 -90t110 -28t110 29.5t69.5 92t36.5 163t11 242.5zM526 317q0 -147 -13 -253t-42 -173t-78 -99t-121 -32t-120.5 30.5t-77.5 97t-41.5 172.5t-12.5 257q0 150 12.5 256t41.5 172.5t77.5 97.5t120.5 31t121 -32t78 -99
t42 -173t13 -253zM256 499q0 86 -13.5 131t-43.5 45q-31 0 -44.5 -44t-13.5 -132t13.5 -132t44.5 -44q30 0 43.5 45t13.5 131zM219 499q0 -60 -2.5 -91t-6.5 -42t-11 -11t-11.5 11t-7 42.5t-2.5 90.5q0 61 2.5 92.5t7 42.5t11.5 11t11 -11t6.5 -42.5t2.5 -92.5zM285 417
q0 -26 -0.5 -38t-3 -15t-9.5 -3v-37h60v37q-6 0 -8.5 3t-3 15t-0.5 38v66q5 0 9.5 0.5t8.5 0.5h9t8 -1v-66q0 -26 -0.5 -38t-2.5 -15t-9 -3v-37h60v37q-6 0 -9 3t-3.5 15t-0.5 38v160q0 27 0.5 38.5t3.5 14.5t9 3v38h-60v-38q7 0 9 -3t2.5 -14.5t0.5 -38.5v-64h-8.5h-8.5
h-8.5h-9.5v64q0 27 0.5 38.5t3 14.5t8.5 3v38h-60v-38q5 0 7.5 -1.5t4 -6.5t1.5 -16.5v-31.5v-160zM198 -41v37q-7 0 -12.5 17.5t-8.5 46.5t-4.5 65.5t-1.5 75.5v16.5v19.5h6q3 -27 6 -55.5t7 -50.5l35 -172h36q-1 29 -2 70.5t-1 89.5q0 74 3 111.5t13 37.5v37h-56v-37
q14 0 18.5 -53t4.5 -138v-15.5v-16.5l-6 -1q-4 29 -6 56t-7 52q-10 45 -14.5 73.5t-5.5 47t-2 32.5h-57v-37q6 0 8.5 -3.5t2.5 -15.5v-40v-43q0 -84 -2 -127t-9 -43v-37h55zM401 131q0 86 -13.5 131t-45.5 45q-31 0 -44.5 -44t-13.5 -132t13.5 -132t44.5 -44q32 0 45.5 45

<glyph glyph-name=".notdef" horiz-adv-x="546" 
d="M470 316q0 -132 -9.5 -224.5t-31.5 -151t-60.5 -85.5t-96.5 -27t-96 26t-60 83t-31.5 150.5t-9.5 228.5q0 136 9.5 229.5t31.5 150.5t60 83t96 26t96.5 -27t60.5 -85.5t31.5 -151.5t9.5 -225zM499 317q0 143 -11 243t-36.5 163t-69.5 92t-110 29t-110 -27.5t-69 -89
t-36 -162.5t-11 -248q0 -145 11 -246t36 -163t69 -90t110 -28t110 29.5t69.5 92t36.5 163t11 242.5zM526 317q0 -147 -13 -253t-42 -173t-78 -99t-121 -32t-120.5 30.5t-77.5 97t-41.5 172.5t-12.5 257q0 150 12.5 256t41.5 172.5t77.5 97.5t120.5 31t121 -32t78 -99
t42 -173t13 -253zM256 499q0 86 -13.5 131t-43.5 45q-31 0 -44.5 -44t-13.5 -132t13.5 -132t44.5 -44q30 0 43.5 45t13.5 131zM219 499q0 -60 -2.5 -91t-6.5 -42t-11 -11t-11.5 11t-7 42.5t-2.5 90.5q0 61 2.5 92.5t7 42.5t11.5 11t11 -11t6.5 -42.5t2.5 -92.5zM285 417
q0 -26 -0.5 -38t-3 -15t-9.5 -3v-37h60v37q-6 0 -8.5 3t-3 15t-0.5 38v66q5 0 9.5 0.5t8.5 0.5h9t8 -1v-66q0 -26 -0.5 -38t-2.5 -15t-9 -3v-37h60v37q-6 0 -9 3t-3.5 15t-0.5 38v160q0 27 0.5 38.5t3.5 14.5t9 3v38h-60v-38q7 0 9 -3t2.5 -14.5t0.5 -38.5v-64h-8.5h-8.5
h-8.5h-9.5v64q0 27 0.5 38.5t3 14.5t8.5 3v38h-60v-38q5 0 7.5 -1.5t4 -6.5t1.5 -16.5v-31.5v-160zM198 -41v37q-7 0 -12.5 17.5t-8.5 46.5t-4.5 65.5t-1.5 75.5v16.5v19.5h6q3 -27 6 -55.5t7 -50.5l35 -172h36q-1 29 -2 70.5t-1 89.5q0 74 3 111.5t13 37.5v37h-56v-37
q14 0 18.5 -53t4.5 -138v-15.5v-16.5l-6 -1q-4 29 -6 56t-7 52q-10 45 -14.5 73.5t-5.5 47t-2 32.5h-57v-37q6 0 8.5 -3.5t2.5 -15.5v-40v-43q0 -84 -2 -127t-9 -43v-37h55zM401 131q0 86 -13.5 131t-45.5 45q-31 0 -44.5 -44t-13.5 -132t13.5 -132t44.5 -44q32 0 45.5 45
t13.5 131zM363 131q0 -60 -2.5 -91t-7 -42t-11.5 -11q-6 0 -10.5 11t-7 42.5t-2.5 90.5q0 61 2.5 92.5t7 42.5t10.5 11q7 0 11.5 -11t7 -42.5t2.5 -92.5z" />
    <glyph glyph-name=".null" horiz-adv-x="0" 
 />
    <glyph glyph-name="nonmarkingreturn" horiz-adv-x="333" 
 />
    <glyph glyph-name="space" unicode=" " horiz-adv-x="90" 
 />
    <glyph glyph-name="exclam" unicode="!" horiz-adv-x="124" 
d="M61 100q23 0 36 -14t13 -38q0 -25 -13 -39t-36 -14q-22 0 -34.5 13.5t-12.5 39.5t12.5 39t34.5 13zM81 127h-38q1 29 1 41.5v33.5q0 34 -2.5 75.5t-6.5 85.5t-8.5 85t-7 76t-2.5 59q0 32 10.5 50t34.5 18t35 -18t11 -50q0 -24 -3 -59t-7 -76t-8 -85t-7 -85t-3 -76v-33.5
t1 -41.5z" />
    <glyph glyph-name="quotedbl" unicode="&#x22;" horiz-adv-x="172" 
d="M55 421h-21q1 13 1 25v18q0 16 -2.5 28.5t-6 24t-7.5 22t-6.5 22t-2.5 24.5q0 26 9.5 38.5t25.5 12.5t25.5 -12.5t9.5 -38.5q0 -13 -2.5 -24.5t-6.5 -22t-8 -21.5t-6.5 -24t-2.5 -29v-18t1 -25zM137 421h-21q1 13 1 25v18q0 16 -2.5 28.5t-6 24t-7.5 22t-6.5 22
t-2.5 24.5q0 26 9.5 38.5t25.5 12.5t25.5 -12.5t9.5 -38.5q0 -13 -2.5 -24.5t-6.5 -22t-8 -21.5t-6.5 -24t-2.5 -29v-18t1 -25z" />
    <glyph glyph-name="numbersign" unicode="#" horiz-adv-x="214" 
d="M129 -47h-22q5 71 8.5 143t8.5 142q4 50 6.5 98.5t6.5 95.5q5 77 9.5 146t8.5 134h25q-4 -54 -9 -116t-10 -126.5t-10 -128.5q-7 -100 -12 -196zM100 223h-46t-48 -1l6 76q21 -1 46.5 -0.5t46.5 0.5h47t47 1l-6 -76h-46.5h-46.5zM109 362h-46t-48 -1l5 76q21 0 46.5 -0.5
t46.5 -0.5q15 0 31 0.5l32 1t30 0.5l-4 -76h-46h-47zM63 -47h-24q6 77 11.5 156t10.5 157.5t10 155.5t10 150t9 140h24q-5 -64 -10.5 -133t-10.5 -147q-4 -47 -7 -96l-6 -98q-5 -71 -9 -144t-8 -141z" />
    <glyph glyph-name="dollar" unicode="$" horiz-adv-x="190" 
d="M65 272q-20 50 -38.5 105t-18.5 122q0 44 11 73t31.5 43.5t48.5 14.5q29 0 48 -12.5t28.5 -36.5t9.5 -60t-10.5 -55t-30.5 -19q-22 0 -30 16t-8 38q0 14 4 25.5t11.5 18t17.5 6.5q6 0 12.5 -2.5t12.5 -11.5l-23 4l21 14l2 -20q-7 27 -16.5 39.5t-26.5 12.5q-22 0 -32 -18
t-10 -47q0 -27 6 -53t15.5 -51.5t20.5 -52.5q15 -35 30 -71.5t24.5 -77t9.5 -85.5q0 -43 -9.5 -72t-29.5 -44t-51 -15t-51.5 12.5t-30.5 36.5t-10 59q0 37 10.5 56t31.5 19t29 -15.5t8 -37.5q0 -14 -4 -26t-11 -18.5t-18 -6.5q-6 0 -12.5 2.5t-12.5 11.5l23 -4l-21 -14
l-2 20q5 -27 18 -39.5t29 -12.5q21 0 31 14t10 43q0 30 -6.5 58t-17.5 56.5t-23 57.5zM71 614v43.5t-1 42.5h18q0 -19 -0.5 -42.5t-0.5 -43.5h-16zM70 -69q1 13 1 30.5v35.5v30h16q0 -12 0.5 -30t0.5 -35.5v-30.5h-18zM124 27v-30v-35.5v-30.5h-17v30.5v35.5v30h17zM107 700
h17v-42.5v-43.5h-17v43.5v42.5z" />
    <glyph glyph-name="percent" unicode="%" horiz-adv-x="291" 
d="M92 463q0 42 -1 68t-2.5 40t-4.5 19.5t-8 5.5q-4 0 -7.5 -5.5t-5 -19.5t-2.5 -40t-1 -68t1 -68.5t2.5 -42t5 -21.5t7.5 -6q5 0 8 6t4.5 21.5t2.5 42t1 68.5zM141 462q0 -62 -6.5 -102t-20.5 -59t-38 -19q-23 0 -37.5 19t-21 59t-6.5 102q0 94 15 134t50 40q36 0 50.5 -40
t14.5 -134zM16 20q3 8 11.5 27.5t20.5 47t25 59t25.5 63.5t22.5 61l18 -5q-6 -34 -13.5 -73t-15 -77.5t-13 -70.5t-8.5 -52h-73v20zM232 175q0 42 -1 68t-3 40t-5 19.5t-8 5.5q-4 0 -7 -5.5t-4.5 -19.5t-2.5 -40t-1 -68t1 -68.5t2.5 -42t4.5 -21.5t7 -6q5 0 8 6t5 21.5t3 42
t1 68.5zM280 174q0 -62 -6.5 -102t-20.5 -59t-38 -19q-23 0 -37 19t-20.5 59t-6.5 102q0 94 15 134t49 40q36 0 50.5 -40t14.5 -134zM276 615q-3 -8 -11.5 -28t-20.5 -48t-25 -60.5t-26 -65.5t-23 -63l-18 4q7 35 14.5 74.5t14.5 78t12.5 71t8.5 52.5h74v-15z" />
    <glyph glyph-name="ampersand" unicode="&#x26;" horiz-adv-x="264" 
d="M178 544q0 -39 -6 -68t-15.5 -50t-20 -36t-20.5 -26l-6 29q20 37 25.5 70.5t5.5 81.5q0 23 -4.5 33.5t-12.5 10.5t-13 -9.5t-5 -36.5q0 -70 8 -139t20.5 -130.5t26.5 -109t27 -74.5t20 -27q4 0 7 5.5t4.5 23t2 53t0.5 95.5h32q0 -98 -4 -151.5t-14 -73.5t-27 -20
q-20 0 -39.5 27t-38 73t-34 103t-27.5 117t-18.5 116.5t-6.5 99.5q0 48 19 76t52 28q24 0 37.5 -11.5t19 -32t5.5 -47.5zM78 62q11 0 25.5 17t37.5 72l15 -24q-15 -40 -27.5 -70t-27 -46t-34.5 -16q-34 0 -49.5 36.5t-15.5 112.5q0 92 16.5 147t52.5 83l5 -36
q-10 -16 -13.5 -45.5t-3.5 -68.5v-84q0 -25 2 -42.5t6.5 -26.5t10.5 -9zM149 172q20 71 29.5 115t9.5 71q0 14 -3 19t-16 8v50h92v-52q-11 -13 -24 -45t-26 -70.5t-25.5 -74.5t-22.5 -58z" />
    <glyph glyph-name="quotesingle" unicode="'" horiz-adv-x="90" 
d="M55 421h-21q1 13 1 25v18q0 16 -2.5 28.5t-6 24t-7.5 22t-6.5 22t-2.5 24.5q0 26 9.5 38.5t25.5 12.5t25.5 -12.5t9.5 -38.5q0 -13 -2.5 -24.5t-6.5 -22t-8 -21.5t-6.5 -24t-2.5 -29v-18t1 -25z" />
    <glyph glyph-name="parenleft" unicode="(" horiz-adv-x="105" 
d="M117 -15v-43q-20 3 -36.5 16t-29 39t-21.5 69t-13.5 105.5t-4.5 147.5q0 88 4.5 152.5t13.5 108.5t22 71t29 40t36 15v-43q-11 0 -18.5 -4t-11.5 -20t-5.5 -52.5t-2 -101t-0.5 -166.5q0 -101 0.5 -164.5t2 -98.5t5.5 -50t11.5 -18t18.5 -3z" />
    <glyph glyph-name="parenright" unicode=")" horiz-adv-x="102" 
d="M-15 -15v-43q20 3 36.5 16t29 39t21.5 69t13.5 105.5t4.5 147.5q0 88 -4.5 152.5t-13.5 108.5t-22 71t-29 40t-36 15v-43q11 0 18.5 -4t11.5 -20t5.5 -52.5t2 -101t0.5 -166.5q0 -101 -0.5 -164.5t-2 -98.5t-5.5 -50t-11.5 -18t-18.5 -3z" />
    <glyph glyph-name="asterisk" unicode="*" horiz-adv-x="228" 
d="M136 485q0 -4 4 -9t18 -5q8 0 14.5 0.5t14.5 0.5q15 0 25.5 -9.5t10.5 -26.5q0 -15 -9.5 -26t-26.5 -11q-12 0 -19 6t-11 15t-7 17.5t-7 14.5t-10 6q-10 0 -10 -13q0 -11 4.5 -20.5t11 -19.5t11 -20.5t4.5 -24.5q0 -15 -10 -27.5t-30 -12.5t-30 12.5t-10 27.5
q0 14 4.5 24.5t11 20.5t11 19.5t4.5 20.5q0 13 -10 13q-6 0 -10 -6t-7 -14.5t-7 -17.5t-11 -15t-19 -6q-16 0 -26 11t-10 26q0 17 10.5 26.5t25.5 9.5q8 0 14.5 -0.5t14.5 -0.5q14 0 18 5t4 9q0 5 -4 9.5t-18 4.5q-8 0 -14.5 -1t-14.5 -1q-15 0 -25.5 10t-10.5 26t10 26.5
t26 10.5q12 0 19 -6t11 -14.5t7 -17.5t7 -15t10 -6q10 0 10 14q0 11 -4.5 20.5t-11 19t-11 21t-4.5 24.5q0 15 10 27.5t30 12.5t30 -12.5t10 -27.5q0 -13 -4.5 -24.5t-11 -21t-11 -19t-4.5 -20.5q0 -14 10 -14q6 0 10 6t7 15t7 17.5t11 14.5t19 6q17 0 26.5 -10.5t9.5 -26.5
t-10.5 -26t-25.5 -10q-8 0 -14.5 1t-14.5 1q-14 0 -18 -4.5t-4 -9.5z" />
    <glyph glyph-name="plus" unicode="+" horiz-adv-x="189" 
d="M95 302h-40t-45 -1v48q16 -1 38 -1h47h46t38 1v-48q-22 1 -43.5 1h-40.5zM116 325v-61.5v-62.5h-43v62v62v61v61h43v-61v-61z" />
    <glyph glyph-name="comma" unicode="," horiz-adv-x="102" 
d="M1 -89v38q20 0 34.5 8.5t22.5 20.5t8 23q0 7 -6 7q-3 0 -6 -1t-6.5 -2t-9.5 -1q-14 0 -24.5 10t-10.5 32q0 23 11.5 38.5t36.5 15.5q23 0 36 -15.5t13 -49.5q0 -37 -10.5 -65t-32.5 -43.5t-56 -15.5z" />
    <glyph glyph-name="hyphen" unicode="-" horiz-adv-x="164" 
d="M83 259h-34.5t-38.5 -1v52q14 -1 32.5 -1h40.5h39t32 1v-52q-19 1 -37 1h-34z" />
    <glyph glyph-name="period" unicode="." horiz-adv-x="104" 
d="M51 100q23 0 36 -14t13 -38q0 -25 -13 -39t-36 -14q-22 0 -34.5 13.5t-12.5 39.5t12.5 39t34.5 13z" />
    <glyph glyph-name="slash" unicode="/" horiz-adv-x="99" 
d="M35 -131l-48 6q11 96 22 205t22 219.5t21 213.5t18 187l48 -3q-10 -84 -21 -188t-22.5 -216t-21.5 -221t-18 -203z" />
    <glyph glyph-name="zero" unicode="0" horiz-adv-x="220" 
d="M207 314q0 -126 -10 -195.5t-31.5 -97t-56.5 -27.5q-26 0 -44 14t-29.5 49.5t-17 98t-5.5 158.5t5.5 159t17 98.5t29.5 50t44 14.5q35 0 56.5 -28t31.5 -98t10 -196zM137 315q0 84 -1.5 136.5t-5 80.5t-9 38.5t-12.5 10.5t-12 -10.5t-8.5 -39t-5 -81t-1.5 -135.5
t1.5 -135t5 -80t8.5 -39t12 -11t12.5 10.5t9 38.5t5 80t1.5 136z" />
    <glyph glyph-name="one" unicode="1" horiz-adv-x="131" 
d="M124 0h-116v50q16 0 22 10t6 43v357q0 20 -4.5 31t-18.5 11h-3h-3v49q11 1 20 5.5t15.5 14t10 24t3.5 35.5h46v-527q0 -35 5.5 -44t16.5 -9v-50z" />
    <glyph glyph-name="two" unicode="2" horiz-adv-x="195" 
d="M48 76q11 0 18.5 -9.5t7.5 -27.5q0 -19 -9 -31t-24 -12q-18 0 -27.5 15.5t-9.5 40.5q0 27 6 53t15.5 52t21.5 53t23.5 55.5t21 60t15.5 66.5t6 75q0 60 -10.5 86.5t-33.5 26.5q-20 0 -33 -14.5t-18 -35.5v23l25 -23l-23 -4q6 11 14.5 15t15.5 4q12 0 20.5 -6t13 -18
t4.5 -30q0 -15 -5 -26.5t-14 -18t-22 -6.5q-21 0 -31 20t-10 63q0 34 10.5 59t30.5 39t46 14q49 0 70 -37.5t21 -129.5q0 -55 -10 -98t-26 -76t-35 -58.5t-37.5 -47.5t-33 -42.5t-21.5 -43.5l-1 13l16 -9l-10 -2q7 6 15 9.5t18 3.5q13 0 24.5 -2t23.5 -4t25 -2q12 0 19.5 10
t10.5 41.5t0 93.5h20q1 -19 1.5 -45.5t0.5 -53v-45.5q0 -59 -8.5 -86.5t-29.5 -27.5q-13 0 -21.5 7t-14.5 18t-11.5 24t-11.5 24t-14 18t-20 7q-13 0 -23.5 -11t-15.5 -28l-1 19l24 -15l-17 -11q4 13 11 20.5t17 7.5z" />
    <glyph glyph-name="three" unicode="3" horiz-adv-x="197" 
d="M73 49q16 0 25.5 12.5t14.5 40t5 71.5q0 53 -5.5 77.5t-15 31.5t-22.5 7q-10 0 -16 -0.5t-12 -1.5v52q7 -1 13.5 -1.5t14.5 -0.5q16 0 24.5 8.5t12.5 36.5t4 86q0 40 -5 64.5t-14.5 36t-25.5 11.5q-21 0 -34.5 -14.5t-18.5 -35.5v23l25 -23l-23 -4q6 11 14.5 15t15.5 4
q17 0 27.5 -14t10.5 -40q0 -15 -5 -26.5t-14 -18t-22 -6.5q-21 0 -31 20t-10 63q0 34 11 59t31 39t47 14q44 0 66 -39t22 -131q0 -55 -9.5 -84.5t-26 -42.5t-39.5 -19l6 11v-33l-6 10q17 -4 31.5 -11.5t25 -22t16 -39.5t5.5 -64q0 -94 -22.5 -134.5t-68.5 -40.5
q-27 0 -47 14t-31 39.5t-11 58.5q0 44 11 63.5t33 19.5q12 0 20.5 -6.5t13 -17.5t4.5 -27q0 -26 -10.5 -40t-27.5 -14q-7 0 -15.5 4.5t-14.5 14.5l23 -4l-25 -23v23q5 -22 19 -36.5t36 -14.5z" />
    <glyph glyph-name="four" unicode="4" horiz-adv-x="222" 
d="M170 168v45q11 1 16.5 6t7.5 24.5t4 63.5h17v-214h-17q-1 33 -3.5 48t-8.5 20t-16 7zM49 630h66q0 -78 -5 -139.5t-13 -108t-18.5 -79t-21.5 -52.5t-22 -29l3 8v-23l-4 5h116v-46h-147v43q11 25 19.5 55t15 75.5t9.5 115.5t2 175zM106 89v235q25 16 34 90.5t9 215.5h23
v-551q0 -10 0.5 -16.5t2 -9t6 -3.5t12.5 -1v-49h-129v49q16 0 24.5 1.5t12 6t4.5 12.5t1 20z" />
    <glyph glyph-name="five" unicode="5" horiz-adv-x="195" 
d="M95 -5q-27 0 -47 14t-31 39.5t-11 58.5q0 44 11 63.5t33 19.5q12 0 20.5 -6.5t13 -17.5t4.5 -27q0 -26 -10.5 -40t-27.5 -14q-7 0 -15.5 4.5t-14.5 14.5l23 -4l-25 -23v23q5 -22 18 -36.5t32 -14.5q18 0 29 16t16 55.5t5 108.5q0 37 -3.5 65.5t-12 44t-24.5 15.5
t-26 -15.5t-19 -49.5h-20v59t-0.5 75.5t-1 80t-1 72.5t-0.5 54h37q0 -29 -0.5 -46.5t-1 -31t-1 -30t-1.5 -44.5l-13 47h26l-3 -14q2 37 4 60.5t5 36.5t7 18.5t9 5.5q9 0 13.5 -11.5t8.5 -37.5q4 -19 8.5 -34.5t12 -24t18.5 -8.5q13 0 20.5 9t11.5 31l-1 -20l-22 14l20 7
q-6 -11 -12.5 -16t-14.5 -5q-11 0 -18.5 11.5t-7.5 34.5q0 26 9.5 38.5t22.5 12.5q19 0 28 -18.5t9 -47.5q0 -31 -11.5 -52t-36.5 -21q-11 0 -21 1.5t-18.5 2.5t-16.5 1q-9 0 -16 -4.5t-11.5 -20t-7 -47t-2.5 -85.5l-8 -16q5 21 13 38t22 27t34 10q21 0 36.5 -9.5t25.5 -30
t15 -54t5 -80.5q0 -81 -10 -132t-30 -75.5t-51 -24.5z" />
    <glyph glyph-name="six" unicode="6" horiz-adv-x="214" 
d="M83 182q0 -48 3 -74.5t8.5 -37t14.5 -10.5t15 10.5t9 37t3 74.5t-3.5 73t-9.5 34t-14 9t-14 -9t-9 -34t-3 -73zM134 583q-14 0 -24.5 -7.5t-17 -30.5t-9.5 -71t-3 -129q0 -12 -0.5 -28.5t-1.5 -36.5l-11 19h24l-7 -19q2 20 7.5 35.5t17 25t30.5 9.5q24 0 38 -18.5
t20.5 -55.5t6.5 -93q0 -34 -4.5 -67.5t-14.5 -60.5t-28.5 -43.5t-47.5 -16.5q-27 0 -45.5 16t-29.5 54.5t-16 105.5t-5 169q0 90 6 147.5t18.5 90t31.5 45t45 12.5q38 0 59.5 -30t21.5 -79q0 -43 -10 -63t-31 -20q-19 0 -30 14t-11 37q0 26 10.5 40t27.5 14q8 0 16 -4
t14 -15l-23 4l25 23v-23q-5 21 -18 35.5t-31 14.5z" />
    <glyph glyph-name="seven" unicode="7" horiz-adv-x="198" 
d="M56 545q1 19 2 33.5t3 25t4 17t5 9.5t7 3q9 0 14 -15.5t10 -40.5q4 -15 8.5 -28t12.5 -21t22 -8q13 0 21.5 9.5t18.5 31.5l1 -19l-27 18l21 4q-10 -16 -16.5 -20.5t-13.5 -4.5q-14 0 -22 11t-8 34q0 24 10.5 37t25.5 13q20 0 30 -19t11 -49q0 -25 -7.5 -55t-18 -65
t-21 -74t-18 -81.5t-7.5 -86.5q0 -35 2.5 -77t2.5 -74q0 -20 -4.5 -33t-12.5 -19.5t-19 -6.5q-20 0 -29.5 17.5t-9.5 41.5q0 58 6.5 110.5t17.5 98.5t24 85t25.5 70.5t22 54.5t14.5 37l4 -19l-22 17l19 5q-3 -6 -9 -10.5t-13 -7t-15 -2.5q-13 0 -27.5 5.5t-25.5 5.5
q-9 0 -14 -7t-7.5 -33t-2.5 -83h-41q1 26 0.5 61.5t-1 72t-1 68t-1.5 48.5h40v-11t-0.5 -20t-0.5 -29v-38l-13 16h26zM104 249h-21t-28.5 -0.5t-29.5 -1.5v54q9 0 19 -0.5t23.5 -1t33.5 -0.5q14 0 33.5 1t34.5 2v-55q-11 1 -24 1t-23.5 0.5t-17.5 0.5z" />
    <glyph glyph-name="eight" unicode="8" horiz-adv-x="216" 
d="M108 302q-12 0 -18.5 -10.5t-9 -37t-2.5 -73.5q0 -42 2.5 -68.5t9 -39t18.5 -12.5t18.5 12.5t9 39t2.5 68.5q0 47 -2.5 73.5t-9 37t-18.5 10.5zM108 370q12 0 18.5 11t9 34t2.5 57q0 35 -2.5 57t-9 32t-18.5 10q-11 0 -18 -10t-9.5 -32t-2.5 -57q0 -34 2.5 -57t9.5 -34
t18 -11zM108 -5q-36 0 -57.5 21.5t-31 62.5t-9.5 102q0 46 6.5 78t20.5 49.5t36 20.5l-2 -3v21l2 -5q-22 4 -34.5 21t-18 45t-5.5 67q0 50 9 86t29.5 55t54.5 19t54.5 -19t29.5 -54.5t9 -85.5q0 -38 -5.5 -67t-18 -46.5t-34.5 -21.5l2 5v-21l-2 3q22 -3 35.5 -20.5
t20.5 -49.5t7 -77q0 -61 -9.5 -102t-31 -62.5t-57.5 -21.5z" />
    <glyph glyph-name="nine" unicode="9" horiz-adv-x="214" 
d="M134 448q0 48 -2.5 74.5t-8.5 37t-15 10.5t-15 -12.5t-9 -44.5t-3 -90q0 -56 3.5 -84.5t9.5 -39t14 -10.5t14 12.5t9 46.5t3 100zM89 47q12 0 21 6t15.5 25t9.5 58.5t3 105.5q0 12 0.5 29t1.5 36l10 -19h-23l7 19q-2 -19 -8 -35t-17.5 -25.5t-30.5 -9.5q-23 0 -37.5 20.5
t-21 61.5t-6.5 103q0 38 4.5 76t14.5 69t29 49.5t47 18.5q27 0 45.5 -16t29.5 -54.5t16 -105.5t5 -169q0 -90 -6 -147.5t-18.5 -90t-31.5 -45t-45 -12.5q-37 0 -57.5 31t-20.5 81q0 44 11 63.5t33 19.5q17 0 27.5 -14t10.5 -37q0 -26 -10.5 -40t-27.5 -14q-7 0 -15.5 4.5
t-14.5 14.5l23 -4l-25 -23v23q5 -22 17.5 -37.5t34.5 -15.5z" />
    <glyph glyph-name="colon" unicode=":" horiz-adv-x="104" 
d="M51 100q23 0 36 -14t13 -38q0 -25 -13 -39t-36 -14q-22 0 -34.5 13.5t-12.5 39.5t12.5 39t34.5 13zM51 550q23 0 36 -14t13 -38q0 -25 -13 -39t-36 -14q-22 0 -34.5 13.5t-12.5 39.5t12.5 39t34.5 13z" />
    <glyph glyph-name="semicolon" unicode=";" horiz-adv-x="104" 
d="M51 550q23 0 36 -14t13 -38q0 -25 -13 -39t-36 -14q-22 0 -34.5 13.5t-12.5 39.5t12.5 39t34.5 13zM1 -89v38q20 0 34.5 8.5t22.5 20.5t8 23q0 7 -6 7q-3 0 -6 -1t-6.5 -2t-9.5 -1q-14 0 -24.5 10t-10.5 32q0 23 11.5 38.5t36.5 15.5q23 0 36 -15.5t13 -49.5
q0 -37 -10.5 -65t-32.5 -43.5t-56 -15.5z" />
    <glyph glyph-name="less" unicode="&#x3c;" horiz-adv-x="136" 
d="M7 320q17 21 34.5 45.5t35.5 50t35 47.5h10v-44q-19 -23 -41.5 -49t-45.5 -55v15q22 -22 44 -42.5t43 -40.5v-99h-10q-16 23 -34 48t-36 49.5t-35 44.5v30z" />
    <glyph glyph-name="equal" unicode="=" horiz-adv-x="189" 
d="M95 357h-40t-45 -1v48q16 -1 38 -1h47h46t38 1v-48q-22 1 -43.5 1h-40.5zM95 247h-40t-45 -1v48q16 -1 38 -1h47h46t38 1v-48q-22 1 -43.5 1h-40.5z" />
    <glyph glyph-name="greater" unicode="&#x3e;" horiz-adv-x="136" 
d="M129 291q-17 -21 -34.5 -45.5t-35.5 -50t-35 -47.5h-10v44q19 23 41.5 49t45.5 55v-15q-22 22 -44 42.5t-43 40.5v99h10q16 -23 34 -48t36 -49.5t35 -44.5v-30z" />
    <glyph glyph-name="question" unicode="?" horiz-adv-x="205" 
d="M97 100q23 0 36 -14t13 -38q0 -25 -13 -39t-36 -14q-22 0 -34.5 13.5t-12.5 39.5t12.5 39t34.5 13zM75 576q-19 0 -34 -11t-22 -27l-1 20l23 -33l-14 8q4 3 9.5 5.5t13.5 2.5q18 0 26 -14.5t8 -34.5q0 -28 -11 -42t-28 -14q-22 0 -31.5 19t-9.5 51q0 35 11.5 64t34.5 47
t57 18q29 0 47 -9t28.5 -26t14.5 -41t4 -54q0 -31 -6.5 -58.5t-16.5 -52t-21.5 -47.5t-22 -45.5t-17 -45.5t-6.5 -48q0 -14 2.5 -19.5t6.5 -5.5q5 0 7 6.5t2 19.5v11.5t-1 9.5h17v-13v-13q0 -34 -10 -54t-36 -20q-18 0 -29 10t-15.5 27.5t-4.5 37.5q0 34 7 67t17.5 65
t21 62.5t17.5 60t7 57.5q0 23 -6 36t-16 18t-23 5z" />
    <glyph glyph-name="at" unicode="@" horiz-adv-x="289" 
d="M176 477l-6 12h15l-5 -13l5 69h57l-30 -356q-2 -26 0 -41t12 -15t17.5 28.5t12 79.5t4.5 117q0 94 -10.5 154t-34 89t-61.5 29q-23 0 -44 -13t-38 -51t-26.5 -111t-9.5 -193q0 -70 7 -120t19.5 -81t30 -46t38.5 -15q26 0 40 11.5t22 28.5l17 -10q-6 -11 -16 -22.5
t-25.5 -19.5t-37.5 -8q-26 0 -47.5 16t-37 50.5t-24 88.5t-8.5 131q0 126 12 202.5t32 115.5t45 52.5t51 13.5q45 0 72.5 -29.5t40.5 -94t13 -170.5q0 -101 -8 -166.5t-24 -97.5t-40 -32q-20 0 -30 22t-13 59t-2 82l13 -71l-28 1l16 78q-5 -42 -11 -74t-13.5 -54t-16.5 -33
t-21 -11q-24 0 -35.5 43t-11.5 116q0 42 2.5 78.5t5.5 68.5q8 93 26 138.5t46 45.5q14 0 22 -7.5t12.5 -19t6.5 -23.5t2 -22zM166 408q3 35 0 57.5t-14 22.5q-9 0 -17.5 -37.5t-16.5 -128.5q-2 -27 -3.5 -54t-1.5 -51q0 -48 3 -66t10 -18q3 0 7 5t8.5 24.5t8.5 63.5z" />
    <glyph glyph-name="A" unicode="A" horiz-adv-x="256" 
d="M0 50q7 3 13.5 26.5t12.5 61.5t11 84.5t9.5 95.5t7.5 94t4.5 81.5t1.5 56.5q0 18 -6 24t-23 6v50h152q1 -16 4.5 -58t9 -99.5t12 -122t12.5 -128t11 -115.5q2 -18 5 -29.5t8 -17.5t11 -10v-50h-124v50q20 0 29 14.5t7 42.5l-42 495l25 -31h-46l14 31
q-11 -152 -18.5 -250.5t-11 -156.5t-3.5 -90q0 -16 3.5 -26t11 -16.5t18.5 -12.5v-50h-119v50zM58 219v48q15 -1 30.5 -1h30.5h26.5t25.5 1v-48q-13 1 -25.5 1h-26.5h-30.5t-30.5 -1z" />
    <glyph glyph-name="B" unicode="B" horiz-adv-x="228" 
d="M144 310q24 0 40.5 -9t25.5 -39t9 -96q0 -64 -8.5 -100.5t-29 -51t-55.5 -14.5h-123v50q10 0 15 1t7 3.5t2.5 9t0.5 16.5v470q0 11 -0.5 17t-2.5 8.5t-7 3.5t-15 1v50h119q35 0 55.5 -14t29 -48t8.5 -93q0 -67 -8.5 -98t-24 -39.5t-38.5 -9.5l11 20v-60zM106 291h-13v48
h12q17 0 26.5 7t13.5 32t4 77q0 54 -4 81t-14 35.5t-28 8.5h-14l5 45v-621l-29 46h37q17 0 28.5 10.5t17 37.5t5.5 77t-5 74.5t-15.5 33t-26.5 8.5z" />
    <glyph glyph-name="C" unicode="C" horiz-adv-x="215" 
d="M151 630h48v-136.5v-136.5h-49q-7 74 -13 118.5t-10.5 67t-9 30t-10.5 7.5q-5 0 -9.5 -8.5t-8 -35t-5.5 -79t-2 -140.5q0 -90 3 -143.5t8 -80t11.5 -35t14.5 -8.5q9 0 15 8.5t9.5 32.5t5 70t1.5 120h49q0 -78 -2.5 -132.5t-11 -88.5t-25.5 -49.5t-46 -15.5t-48.5 15
t-31.5 50.5t-17 98t-5 158.5t4 158t12.5 97t22.5 49t35 14q18 0 27 -10t14 -20.5t12 -10.5t9.5 7.5t2.5 28.5z" />
    <glyph glyph-name="D" unicode="D" horiz-adv-x="237" 
d="M85 50h29q9 0 17 9t14.5 34t10.5 73.5t4 128.5q1 91 -1.5 147t-8 86t-15 41t-23.5 11h-27l10 4v-543zM123 0h-120v50q10 0 15 1t7 5t2.5 12t0.5 22v450q0 14 -0.5 22t-2.5 12t-7 5t-15 1v50h113q30 0 51 -15t34 -50.5t19 -96.5t6 -154q-1 -93 -6.5 -153.5t-17.5 -96
t-31.5 -50t-47.5 -14.5z" />
    <glyph glyph-name="E" unicode="E" horiz-adv-x="241" 
d="M226 0h-223v50q10 0 15 1t7 3.5t2.5 9t0.5 16.5v470q0 11 -0.5 17t-2.5 8.5t-7 3.5t-15 1v50h220v-116.5v-117.5h-40q0 63 -3 100t-12 55t-27 23.5t-49 5.5l2 4v-536l-1 2q30 0 47.5 5.5t26.5 25.5t13 62.5t6 116.5h40v-130v-130zM92 303v42q16 1 23 10t9.5 32t2.5 67h34
q-1 -34 -1 -67.5v-63.5q0 -28 0.5 -61.5t1.5 -66.5h-35q-1 44 -2.5 67t-8.5 31.5t-24 9.5z" />
    <glyph glyph-name="F" unicode="F" horiz-adv-x="228" 
d="M92 255v42q13 3 20.5 10.5t11 33t3.5 82.5h30v-76.5v-71.5v-66v-72h-30q0 53 -2.5 77.5t-9.5 31.5t-23 9zM138 0h-135v50q10 0 15 1t7 4.5t2.5 11.5t0.5 22v451q0 14 -0.5 22t-2.5 12t-7 5t-15 1v50h216v-88v-88v-88h-38q-3 79 -6.5 122.5t-12.5 63t-26 24t-46 4.5l4 4
v-495q0 -14 1.5 -22t5.5 -11.5t13 -4.5t24 -1v-50z" />
    <glyph glyph-name="G" unicode="G" horiz-adv-x="241" 
d="M92 635q20 0 29.5 -10t15.5 -20.5t13 -10.5t9.5 7.5t2.5 28.5h48v-136.5v-136.5h-49q-5 74 -11 118t-12 67t-13 30.5t-13 7.5t-11.5 -8.5t-9.5 -35t-6.5 -79t-2.5 -140.5q0 -55 1.5 -97.5t4 -73t7 -50t10.5 -29t14 -9.5q9 0 14.5 9.5t8 31.5t2.5 61q0 34 -0.5 53.5
t-3.5 28.5t-10 11.5t-21 2.5v49h127v-49q-10 0 -15.5 -1t-7.5 -4t-2.5 -9t-0.5 -17v-74.5v-75v-75.5h-41q-1 20 -4.5 30t-11.5 10q-6 0 -12 -7t-12.5 -15.5t-15 -15.5t-21.5 -7q-18 0 -32.5 13.5t-25 48.5t-16.5 98t-6 162q0 96 5 158t15 97t25 49t35 14z" />
    <glyph glyph-name="H" unicode="H" horiz-adv-x="258" 
d="M163 90v450q0 14 -0.5 22t-2.5 12t-7 5t-14 1v50h116v-50q-10 0 -15 -1t-7 -5t-2.5 -12t-0.5 -22v-450q0 -14 0.5 -22t2.5 -12t7 -5t15 -1v-50h-116v50q9 0 14 1t7 5t2.5 12t0.5 22zM28 90v450q0 14 -0.5 22t-2.5 12t-7 5t-15 1v50h116v-50q-9 0 -14.5 -1t-7.5 -5
t-2.5 -12t-0.5 -22v-450q0 -14 0.5 -22t2.5 -12t7.5 -5t14.5 -1v-50h-116v50q10 0 15 1t7 5t2.5 12t0.5 22zM86 293v48q11 -1 22 -1h21h22t21 1v-48q-10 1 -21 1h-22h-21t-22 -1z" />
    <glyph glyph-name="I" unicode="I" horiz-adv-x="123" 
d="M28 90v450q0 14 -0.5 22t-2.5 12t-7.5 5t-14.5 1v50h116v-50q-9 0 -14 -1t-7.5 -5t-3 -12t-0.5 -22v-450q0 -14 0.5 -22t3 -12t7.5 -5t14 -1v-50h-116v50q9 0 14.5 1t7.5 5t2.5 12t0.5 22z" />
    <glyph glyph-name="J" unicode="J" horiz-adv-x="118" 
d="M28 554q0 9 -0.5 14.5t-2.5 8t-7 3t-15 0.5v50h112v-50q-8 0 -12.5 -0.5t-6 -3.5t-2 -8t-0.5 -14v-550q0 -34 -14 -52.5t-42 -18.5q-24 0 -40 14t-16 42q0 19 10 31.5t28 12.5q20 0 28 -12t8 -24q0 -11 -2.5 -17.5t-6.5 -9.5t-9 -4q-6 -1 -6 -7q0 -2 2 -4t6 -2
q8 0 14.5 5t10.5 15t4 24q0 23 -11 37t-30 17v503z" />
    <glyph glyph-name="K" unicode="K" horiz-adv-x="238" 
d="M28 86v460q0 12 -0.5 19t-2.5 10t-7 4t-15 1v50h109v-50q-7 0 -10.5 -1t-5 -4t-2 -10t-0.5 -19v-460q0 -13 0.5 -20t2 -10.5t5 -4.5t10.5 -1v-50h-109v50q10 0 15 1t7 4.5t2.5 10.5t0.5 20zM152 337q13 0 23 -6.5t16 -21.5t6 -42v-190q0 -13 1.5 -18.5t7.5 -5.5
q4 0 5.5 3t2.5 9t1 14q0 27 -0.5 56t-0.5 63h20q1 -26 0.5 -49.5t-0.5 -46.5q0 -31 -2 -51.5t-7.5 -32.5t-15 -17t-23.5 -5q-19 0 -30.5 8t-16 26.5t-4.5 48.5v56.5v59v63.5q0 16 -5.5 23.5t-17.5 7.5q-7 0 -13.5 -0.5t-11.5 -1.5v45q13 28 23.5 58.5t19 60.5t13 54.5
t4.5 39.5q0 14 -3 23t-11 12v50h101v-50q-10 -14 -23 -41.5t-29.5 -64t-35 -79.5t-39.5 -90l8 46l24 -38l-46 1q8 7 17.5 12t20.5 8t21 3z" />
    <glyph glyph-name="L" unicode="L" horiz-adv-x="209" 
d="M193 0h-190v50q10 0 15 1t7 5t2.5 12t0.5 22v450q0 14 -0.5 22t-2.5 12t-7 5t-15 1v50h125v-50q-12 0 -18.5 -1t-10 -5t-4.5 -12t-1 -22v-495v5q17 0 27.5 7.5t16.5 33.5t9 79.5t6 144.5h40v-104.5v-105v-105.5z" />
    <glyph glyph-name="M" unicode="M" horiz-adv-x="354" 
d="M70 592v-212q0 -120 5 -189t14.5 -101t24.5 -40v-50h-111v50q6 12 11 32t8.5 55.5t5.5 94t2 148.5v164q0 13 -0.5 20t-3 10.5t-8 4.5t-15.5 1v50h136q0 -33 3.5 -83.5t9 -109t13 -116t14.5 -103.5l-2 -4q9 56 17 114.5t14.5 115t10 104.5t4.5 82h128v-49q-9 0 -14.5 -1
t-8 -4.5t-3 -11t-0.5 -20.5v-456q0 -13 0.5 -21t3.5 -11.5t8 -4.5t14 -1v-50h-124v50q19 0 25.5 10.5t6.5 29.5v502l7 -24h-18l8 24q-4 -55 -8 -101t-9 -89.5t-12 -92.5l-43 -310h-28l-50 302q-13 78 -19.5 148.5t-13.5 142.5l8 -24h-17z" />
    <glyph glyph-name="N" unicode="N" horiz-adv-x="270" 
d="M201 115l-9 35l27 1l-6 -36q-4 27 -6.5 64t-4 74.5t-1.5 68.5q0 76 -2.5 125.5t-9 77.5t-16.5 40t-25 15v50h120v-50q-7 -4 -12 -10.5t-8 -18t-5 -28.5t-2 -42q0 -144 0.5 -269t5.5 -212h-74l-69 312q-9 41 -16 91t-12 101.5t-8 96.5l18 -31l-34 -2l5 35q2 -25 4.5 -67
t4.5 -91t2 -97q0 -68 1.5 -116.5t6 -81.5t13 -53.5t21 -31t31.5 -15.5v-50h-138v50q10 5 15.5 14t8 25.5t2.5 43.5v411q0 13 -0.5 20t-3 10.5t-7.5 4.5t-15 1v50h118q1 -19 2.5 -41.5t5.5 -53.5t12 -75t22 -106q14 -59 24 -123t14 -116z" />
    <glyph glyph-name="O" unicode="O" horiz-adv-x="237" 
d="M226 314q0 -126 -11 -195.5t-34.5 -97t-62.5 -27.5q-28 0 -48.5 14t-33.5 49.5t-18.5 98t-5.5 158.5t6 159t18.5 98.5t33 50t48.5 14.5q39 0 62.5 -28t34.5 -98t11 -196zM156 315q0 84 -2.5 136.5t-7 80.5t-11.5 38.5t-17 10.5q-9 0 -16 -10.5t-11.5 -39t-7 -81
t-2.5 -135.5t2.5 -135t7 -80t11.5 -39t16 -11q10 0 17 10.5t11.5 38.5t7 80t2.5 136z" />
    <glyph glyph-name="P" unicode="P" horiz-adv-x="229" 
d="M85 202v58h15.5h14.5q8 0 15.5 5t13.5 19.5t9.5 41.5t3.5 72q0 58 -2 94t-7 55t-14 26t-22 7h-27l10 30v-530q0 -10 1 -16.5t5 -9t13.5 -3.5t25.5 -1v-50h-137v50q9 0 14.5 1t7.5 3.5t2.5 9t0.5 16.5v460q0 14 -0.5 22t-3 12t-7.5 5t-14 1v50h113q39 0 62.5 -21.5
t33.5 -68t10 -123.5q1 -76 -9 -124t-31.5 -70.5t-58.5 -22.5q-12 0 -21.5 0.5t-16.5 1.5z" />
    <glyph glyph-name="Q" unicode="Q" horiz-adv-x="236" 
d="M137 82q0 17 -4 23.5t-12 6.5q-7 0 -11.5 -6t-4.5 -23q0 -14 2.5 -23t12.5 -9q9 0 13 8.5t4 22.5zM82 90h9q0 9 1.5 20t4.5 21t8.5 17t13.5 7q12 0 19.5 -14.5t8.5 -44.5l-7 17h24l-12 -17q1 6 1.5 33.5t1 63.5t0.5 69.5v52.5q0 76 -1.5 127.5t-5.5 82t-11 44t-19 13.5
q-11 0 -18.5 -13.5t-11.5 -44t-5.5 -82t-1.5 -127.5v-84.5v-85.5t1 -55zM147 71q0 -9 -2 -21.5t-8 -24.5t-17 -20.5t-29 -8.5q-32 0 -49.5 35t-24 105.5t-6.5 177.5q0 108 8.5 179.5t31.5 107t67 35.5t67 -34.5t31 -95t8 -138.5q0 -46 -3 -93.5t-11 -88.5t-22.5 -67.5
t-37.5 -30.5l8 5v-24l-8 16q3 -2 7 -5.5t11 -6t18 -2.5q8 0 11.5 5t5 15.5t1.5 25.5h20q0 -56 -3 -86.5t-10 -42.5t-20 -12q-12 0 -19.5 9t-11.5 28t-7 49l12 -1h-20z" />
    <glyph glyph-name="R" unicode="R" horiz-adv-x="246" 
d="M196 -4q-24 0 -36 14.5t-12 51.5v65.5v73.5q0 36 -3 55.5t-12 27t-26 6.5h-19v48h28q15 0 24.5 12t14 40t4.5 76q0 50 -4 74.5t-15.5 32t-35.5 7.5h-19l9 45v-545q0 -10 0.5 -16.5t3 -9t8.5 -3.5t16 -1v-50h-119v50q10 0 15 1t7 3.5t2.5 9t0.5 16.5v460q0 14 -0.5 22
t-2.5 12t-7 5t-15 1v50h133q33 0 52.5 -14t28 -48t8.5 -93q0 -66 -9 -97t-25.5 -39.5t-40.5 -9.5l5 5v-26l-5 3q22 1 35 -11t18.5 -38.5t5.5 -71.5v-116q0 -10 1.5 -15t5.5 -5t5.5 6.5t2 25.5t0.5 58v25.5t-1 28.5h20q1 -16 1 -29.5v-26.5q0 -56 -4 -88t-14.5 -45t-29.5 -13
z" />
    <glyph glyph-name="S" unicode="S" horiz-adv-x="213" 
d="M140 97q0 41 -9 75t-22.5 65.5t-29.5 61.5q-16 32 -31 65t-24.5 70.5t-9.5 81.5q0 40 8.5 66t23.5 39.5t36 13.5q20 0 29 -10t14.5 -20.5t12.5 -10.5t9.5 7.5t2.5 28.5h48v-121.5v-121.5h-40q-8 57 -14.5 94.5t-13 59t-13.5 30.5t-15 9q-13 0 -18.5 -14.5t-5.5 -40.5
q0 -43 16.5 -84.5t38.5 -85.5q17 -35 33.5 -73.5t27.5 -81t11 -92.5q0 -39 -9 -64t-23 -37t-31 -12t-29.5 7.5t-21.5 17t-15.5 17t-11.5 7.5q-7 0 -8.5 -10t-1.5 -34h-40v133v133h40q3 -41 7.5 -75t10 -60t12.5 -44t15.5 -27.5t18.5 -9.5q9 0 15.5 10t6.5 37z" />
    <glyph glyph-name="T" unicode="T" horiz-adv-x="241" 
d="M52 0v50q14 0 21 1.5t10.5 6t4 15t0.5 28.5v491h66v-491q0 -18 0.5 -28.5t4 -15t11 -6t20.5 -1.5v-50h-138zM90 580q-11 0 -18.5 -4.5t-12 -26t-7 -72.5t-4.5 -144h-40v148.5v148.5h225v-148.5v-148.5h-41q-2 94 -4.5 145t-7 72.5t-11.5 25.5t-17 4h-62z" />
    <glyph glyph-name="U" unicode="U" horiz-adv-x="238" 
d="M169 115q0 120 -1.5 200t-4.5 129t-8 76t-12 39.5t-17 19.5v51h109v-51q-7 -9 -12.5 -28t-9 -47.5t-3.5 -68.5v-161.5v-160.5q0 -39 -7.5 -65t-26 -39.5t-52.5 -13.5q-36 0 -57 12.5t-30 39t-9 68.5v429q0 13 -0.5 20t-2.5 10.5t-7 4.5t-15 1v50h105v-50q-5 0 -8 -1
t-4 -4.5t-1.5 -10.5t-0.5 -20v-431q0 -28 8.5 -43.5t30.5 -15.5t29 15t7 46z" />
    <glyph glyph-name="V" unicode="V" horiz-adv-x="262" 
d="M191 0h-114q-4 43 -9.5 100.5t-12 122t-13 130.5t-12.5 126q-3 33 -6.5 53t-9 31.5t-14.5 16.5v50h121v-50q-11 -2 -17.5 -10t-8 -29t2.5 -64l38 -428l-25 22h53l-22 -33q10 138 17.5 229.5t12 148.5t4.5 91q0 22 -0.5 35.5t-6.5 22.5t-22 15v50h115v-52q-7 -7 -14 -28.5
t-14 -63t-14 -106.5t-14 -159t-15 -221z" />
    <glyph glyph-name="W" unicode="W" horiz-adv-x="360" 
d="M172 331h10q-4 -37 -7 -81.5t-8 -97.5q-2 -34 -4.5 -71.5t-4.5 -80.5h-90q-6 68 -11.5 136t-11.5 136l-12 136l-12 136q-1 12 -3 19t-6.5 11t-11.5 6v50h248v-50q-10 0 -16 -3.5t-7.5 -14t-0.5 -30.5l37 -529l-21 56h43l-23 -56q10 151 15 252t7 162t0.5 94t-6 46.5
t-10.5 20.5v52h94v-52q-7 -7 -13 -27.5t-11.5 -65.5t-12.5 -125t-17 -208q-3 -34 -5 -71.5t-4 -80.5h-97q-4 55 -9 110.5t-9.5 110.5t-9.5 110zM117 595h19q-18 -4 -28.5 -11t-14.5 -17.5t-3 -24.5l41 -539l-23 56h48l-25 -56q9 110 14.5 185t9 124t4.5 82t1 60
q0 26 -1.5 47t-4.5 37t-8 27.5t-12 18.5t-17 11z" />
    <glyph glyph-name="X" unicode="X" horiz-adv-x="213" 
d="M126 352h13q16 -81 27.5 -134.5t18.5 -85.5t12 -48.5t8.5 -23t7.5 -10.5v-50h-110v50q7 2 10.5 6t4.5 11t-1 17l-32 196h-14q-20 99 -31.5 158t-18.5 88.5t-10.5 40.5t-7.5 13v50h104v-50q-8 -1 -11 -4t-3 -10.5t2 -20.5zM142 313l-21 42q8 53 13 92t6.5 66.5t-2 44
t-12.5 22.5v50h83v-50q-13 -12 -23 -49t-20.5 -92.5t-23.5 -125.5zM73 318l20 -39q-10 -52 -15.5 -90.5t-7 -65.5t2 -44.5t11.5 -28.5v-50h-84v50q11 15 22.5 52t24 92.5t26.5 123.5z" />
    <glyph glyph-name="Y" unicode="Y" 
d="M88 210h67q0 -56 0.5 -88.5t3.5 -48t10.5 -19.5t21.5 -4v-50h-139v50q14 0 21.5 4t10.5 19.5t3.5 48t0.5 88.5zM133 245l-18 24h33l-11 -23q10 106 14 169.5t3.5 97.5t-5 47.5t-13.5 19.5v50h98v-50q-11 -9 -20 -39.5t-18 -83t-19 -127t-23 -171.5h-64l-58 320
q-5 30 -9 50.5t-9 33t-14 16.5v51h115v-50q-13 0 -18 -27.5t2 -75.5z" />
    <glyph glyph-name="Z" unicode="Z" horiz-adv-x="237" 
d="M18 333v148.5v148.5h203v-60q-3 -12 -9 -32t-16 -53t-24 -84t-34 -127l-60 -231l-5 7h16.5h16.5q20 0 31 12t17.5 42t12 82.5t12.5 133.5h40v-160v-160h-211v60q7 17 14.5 40t17.5 57t23 82.5t31 116.5l62 241l5 -17h-22.5h-22.5t-18.5 -3t-12.5 -15t-8.5 -38t-8 -72.5
t-10.5 -118.5h-40z" />
    <glyph glyph-name="bracketleft" unicode="[" horiz-adv-x="122" 
d="M87 652v-667l-4 3q9 0 17 0.5t12 1.5v-61h-91v779h91v-61q-5 2 -12.5 2h-16.5z" />
    <glyph glyph-name="backslash" unicode="\" horiz-adv-x="99" 
d="M64 -131q-8 94 -18 203t-21.5 221t-22.5 216t-21 188l48 3q8 -84 18 -187t21 -213.5t22.5 -219.5t21.5 -205z" />
    <glyph glyph-name="bracketright" unicode="]" horiz-adv-x="122" 
d="M35 -15v667l4 -3q-9 0 -17 -0.5t-12 -1.5v61h91v-779h-91v61q5 -2 12.5 -2h16.5z" />
    <glyph glyph-name="asciicircum" unicode="^" horiz-adv-x="163" 
d="M89 471l71 -113l-10 -11l-73 52h9l-73 -52l-10 11l72 113h14z" />
    <glyph glyph-name="underscore" unicode="_" horiz-adv-x="152" 
d="M152 -51h-152v51h152v-51z" />
    <glyph glyph-name="grave" unicode="`" horiz-adv-x="120" 
d="M91 576l-81 98v26h79l21 -114z" />
    <glyph glyph-name="a" unicode="a" horiz-adv-x="221" 
d="M118 96l9 -30q-2 -17 -9.5 -33t-20 -26.5t-30.5 -10.5q-23 0 -36 21t-18.5 61.5t-5.5 96.5q0 57 7.5 91t23 52t38.5 26q15 5 24 11t12.5 13t4.5 17.5t1 24.5l5 -61q-7 -8 -14 -15t-12.5 -15t-10 -19t-7.5 -27t-4.5 -38.5t-1.5 -54.5q0 -47 1.5 -75.5t6.5 -41t15 -12.5
q7 0 12 5.5t7.5 15.5t2.5 24zM13 448q0 33 10.5 56t30 34.5t45.5 11.5q33 0 51.5 -11t26.5 -35.5t8 -66.5v-47v-81.5t-0.5 -94.5t-0.5 -86.5v-57.5q0 -7 0.5 -11.5t2 -6.5t4.5 -2t5.5 5.5t4 23.5t1.5 56t-2 103h17q5 -77 4 -125t-6.5 -73.5t-15 -34.5t-23.5 -9t-23 6t-14 18
t-5 31h-16v397q0 26 -9 39t-27 13q-14 0 -27.5 -5t-25.5 -15l11 21l12 -36l-23 7q9 4 15.5 5.5t13.5 1.5q11 0 18.5 -4.5t11.5 -14.5t4 -26q0 -14 -3.5 -26t-11.5 -19t-23 -7q-20 0 -30.5 16t-10.5 50z" />
    <glyph glyph-name="b" unicode="b" horiz-adv-x="222" 
d="M129 -5q26 0 44 28t27.5 90t8.5 165q1 97 -5 157t-20 87.5t-39 27.5q-18 0 -29.5 -12t-18 -31t-10.5 -41l19 31h-23l3 -28q0 25 2 52.5t3.5 63.5t1.5 87q-19 -1 -43.5 -2t-46.5 -2v-59q14 0 18 -6.5t4 -23.5v-579h40q0 14 3 22.5t8 8.5q4 0 8 -5.5t9 -12.5t14 -12.5
t22 -5.5zM116 47q-16 0 -20.5 28t-4.5 90v267q0 15 2 26t5 18.5t7.5 11.5t9.5 4q8 0 13 -8.5t8 -32t4.5 -67.5t1.5 -115q0 -69 -1.5 -112.5t-4 -67.5t-7.5 -33t-13 -9z" />
    <glyph glyph-name="c" unicode="c" horiz-adv-x="195" 
d="M83 283q0 -78 2 -125.5t5.5 -72t10 -33t15.5 -8.5t14.5 9.5t8.5 31.5t4.5 59.5t2.5 94.5h40q0 -84 -6 -138t-23.5 -80t-51.5 -26q-25 0 -43 14t-28.5 46t-15.5 86.5t-5 135.5t6 134.5t18.5 83.5t31.5 42.5t45 12.5t43.5 -13t26 -38t8.5 -62t-10.5 -56t-30.5 -19
q-14 0 -22.5 7t-12 19t-3.5 26q0 15 4 26.5t11.5 18.5t17.5 7q6 0 12.5 -2.5t12.5 -11.5l-23 4l21 14l-2 -20q-7 28 -15 41.5t-22 13.5q-12 0 -21 -7t-14.5 -28.5t-8.5 -66t-3 -120.5z" />
    <glyph glyph-name="d" unicode="d" horiz-adv-x="224" 
d="M142 63q-2 -11 -7 -22.5t-13.5 -21.5t-19.5 -16.5t-23 -6.5q-24 0 -38.5 23t-21 82.5t-6.5 170.5t10 170t29 81t46 22q11 0 19.5 -2.5t15.5 -6.5t13 -9l6 -53q-7 12 -17.5 19.5t-20.5 7.5q-9 0 -16 -5.5t-11 -26.5t-6 -67t-2 -128q0 -64 1.5 -107t4.5 -69t8.5 -37
t13.5 -11q7 0 12 5.5t8.5 16t3.5 25.5v493q0 19 -6 24t-30 5v49q17 1 34 1.5l34 1t34 0.5v-601q0 -11 4.5 -15.5t18.5 -4.5v-50h-73v32v32l6 -13h-27z" />
    <glyph glyph-name="e" unicode="e" horiz-adv-x="209" 
d="M82 284q0 -65 1.5 -109.5t5.5 -71t12 -38.5t20 -12q15 0 22 16t9.5 51.5t2.5 93.5h42q0 -67 -6 -116.5t-23.5 -76.5t-52.5 -27q-26 0 -45.5 12t-32 42.5t-18.5 86t-6 142.5q0 74 4.5 126t15.5 85t30 48t47 15q38 0 56.5 -31.5t24.5 -85t6 -121.5v-26v-27h-74h-75v42h46
h46l-2 -19q0 73 -2 117t-5.5 66t-9 29t-11.5 7q-7 0 -12.5 -7t-9 -29t-5 -65.5t-1.5 -116.5z" />
    <glyph glyph-name="f" unicode="f" horiz-adv-x="139" 
d="M4 496v49h118v-49h-118zM52 623q0 -36 11.5 -57t30.5 -21v-462q0 -18 6 -26t25 -8v-49h-122v49q16 0 20.5 8t4.5 26v459l18 3v7q-22 5 -33.5 24t-11.5 53q0 37 18.5 56.5t54.5 19.5q22 0 36 -9.5t21 -26.5t7 -40q0 -29 -9 -41.5t-26 -12.5q-20 0 -27.5 14t-7.5 32
t10 29.5t23 11.5q5 0 10.5 -1.5t10.5 -5.5l-14 -8l7 33l8 -16q-7 7 -15 9.5t-15 2.5q-19 0 -30 -12.5t-11 -40.5z" />
    <glyph glyph-name="g" unicode="g" horiz-adv-x="213" 
d="M132 341q0 48 -1.5 79.5t-4 49t-7.5 25t-13 7.5q-7 0 -11.5 -7.5t-7.5 -25.5t-4 -49.5t-1 -78.5q0 -39 1 -67.5t4 -47t8 -27t12 -8.5t12 8.5t7.5 26.5t4 46.5t1.5 68.5zM158 -24q0 23 -8.5 32.5t-22.5 9.5q-7 0 -16 -0.5t-19 -1.5t-18 -1.5t-13 -0.5h-5.5h-6.5v23
q-20 11 -30 24.5t-10 40.5q0 23 14 41.5t41 18.5h5.5h3.5v13q-23 8 -35 30.5t-16 61t-4 95.5q0 71 8.5 111t27.5 56t50 16q14 0 28 -3t22 -3t8 7q0 5 -3 8t-7 4q-16 5 -25 12.5t-9 25.5q0 15 9.5 26.5t30.5 11.5q23 0 33.5 -15.5t10.5 -42.5q0 -24 -10.5 -41t-29.5 -17h-8.5
t-9.5 1v-14q21 -4 32 -23t15 -57t4 -98q0 -67 -8.5 -108t-28.5 -60t-53 -19q-12 0 -20.5 -2.5t-13.5 -7t-7.5 -11.5t-2.5 -15q0 -33 24 -33h10t16 0.5t17 0.5h13q35 0 49.5 -21.5t14.5 -62.5q0 -22 -4.5 -41t-15 -33.5t-29.5 -23t-49 -8.5q-29 0 -47 6t-27.5 16.5t-13 23.5
t-3.5 28q0 29 13.5 48t22.5 22l10 -9q-1 -22 0.5 -39t7 -28t15.5 -17t26 -6t25.5 3.5t14 10.5t6 16t1.5 19z" />
    <glyph glyph-name="h" unicode="h" 
d="M82 478l-14 29h23l-7 -19q4 17 10.5 28.5t14.5 18.5t18 10.5t22 3.5q32 0 46.5 -23t14.5 -68v-379q0 -16 5 -23t16 -7v-49h-105v49q11 0 14 7t3 23v377q0 15 -2 24t-7 13t-14 4q-8 0 -15 -4.5t-10.5 -13.5t-3.5 -23v-377q0 -16 3.5 -23t14.5 -7v-49h-106v49q14 0 18 7
t4 23v510q0 17 -4 23.5t-18 6.5v49q23 1 45.5 2t44.5 2q0 -29 -2.5 -61.5t-5.5 -66t-3 -66.5z" />
    <glyph glyph-name="i" unicode="i" horiz-adv-x="116" 
d="M54 661q20 0 31.5 -12t11.5 -33q0 -22 -11.5 -33.5t-31.5 -11.5t-31 11.5t-11 33.5t11 33.5t31 11.5zM113 0h-110v49q14 0 18 5t4 15v397q0 16 -4 22.5t-18 6.5v50h88v-476q0 -10 4 -15t18 -5v-49z" />
    <glyph glyph-name="j" unicode="j" horiz-adv-x="118" 
d="M59 661q20 0 31.5 -12t11.5 -33q0 -22 -11.5 -33.5t-31.5 -11.5t-31 11.5t-11 33.5t11 33.5t31 11.5zM99 -47q0 -34 -14 -52.5t-42 -18.5q-16 0 -28.5 6t-20 18.5t-7.5 31.5t10 31.5t28 12.5q20 0 28 -12t8 -24q0 -16 -9 -23.5t-21 -7.5q-3 0 -11 2t-15 6l21 12l-5 -45
l-18 22q10 -6 18.5 -7.5t14.5 -1.5q11 0 19.5 5t13.5 14.5t5 23.5q0 23 -11 37t-31 17v458q0 20 -4.5 29t-21.5 9v49h93v-592z" />
    <glyph glyph-name="k" unicode="k" horiz-adv-x="236" 
d="M99 317l27 -33l-31 2q12 7 21.5 10.5t17 5.5t14.5 2q13 0 23 -6.5t16 -21.5t6 -41v-166q0 -8 2 -11.5t6 -3.5q3 0 5.5 5.5t3.5 21.5t1.5 47t0.5 83h20q2 -72 0 -115.5t-9 -65t-18 -28.5t-26 -7q-28 0 -39 17t-11 57q0 39 0.5 81t0.5 88q0 25 -18 25q-8 0 -14 -0.5
t-11 -0.5v40q17 39 28 73t16 59.5t5 38.5q0 10 -3.5 16t-17.5 8v48h108v-48q-15 -9 -35 -44t-43 -83.5t-47 -95.5zM93 671v-597q0 -13 4 -19t17 -6v-49h-111v49q14 0 18 6t4 19v515q0 17 -4 23.5t-18 6.5v49q23 1 45.5 1.5t44.5 1.5z" />
    <glyph glyph-name="l" unicode="l" horiz-adv-x="117" 
d="M93 671v-597q0 -13 4 -19t17 -6v-49h-111v49q14 0 18 6t4 19v515q0 17 -4 23.5t-18 6.5v49q23 1 45.5 1.5t44.5 1.5z" />
    <glyph glyph-name="m" unicode="m" horiz-adv-x="353" 
d="M210 455v-385q0 -11 3.5 -16t10.5 -5v-49h-98v49q11 0 14 5t3 15v386q0 15 -2.5 24.5t-7.5 13.5t-14 4t-15 -5t-9.5 -14t-3.5 -23v-386q0 -10 3.5 -15t14.5 -5v-49h-106v49q14 0 18 5t4 16v396q0 17 -4 23.5t-17 6.5v49h72v-31t-0.5 -16t-0.5 -22l-6 15h21l-7 -14
q3 21 9.5 35t15.5 22t19.5 11.5t21.5 3.5q13 0 22.5 -5t16 -14t10 -23t3.5 -31l-7 15h16l-7 -14q4 28 14 43.5t23 22t28 6.5q32 0 46 -23t14 -69v-387q0 -11 5 -16t16 -5v-49h-104v49q11 0 14 5t3 15v386q0 15 -2.5 24.5t-8 13.5t-13.5 4q-9 0 -15 -4.5t-9.5 -14t-3.5 -23.5
z" />
    <glyph glyph-name="n" unicode="n" 
d="M90 494l-6 -6q4 17 10.5 28.5t14.5 18.5t18 10.5t22 3.5q32 0 46.5 -23.5t14.5 -68.5v-378q0 -16 5 -23t16 -7v-49h-105v49q11 0 14 7t3 23v377q0 15 -2 24t-7 13t-14 4q-8 0 -15 -4.5t-10.5 -13.5t-3.5 -23v-377q0 -16 3.5 -23t14.5 -7v-49h-106v49q14 0 18 7t4 23v387
q0 17 -4 23.5t-17 6.5v49h72q0 -18 -0.5 -30.5t-0.5 -36.5l-15 16h30z" />
    <glyph glyph-name="o" unicode="o" horiz-adv-x="219" 
d="M206 277q0 -80 -5.5 -134.5t-17 -87t-29.5 -47t-44 -14.5t-44.5 14t-30.5 46t-17 87t-5 136t5.5 134.5t17.5 84t30 43t44 12.5t44 -13t29.5 -44t17 -84t5.5 -133zM137 278q0 72 -2 115.5t-5.5 65.5t-8.5 29.5t-11 7.5q-7 0 -12 -7.5t-8.5 -29.5t-5.5 -65.5t-2 -115.5
t2 -117t5.5 -69.5t8.5 -33.5t12 -9q6 0 11 9.5t8.5 34t5.5 69.5t2 116z" />
    <glyph glyph-name="p" unicode="p" horiz-adv-x="222" 
d="M143 278q0 75 -1 119.5t-4 65.5t-7.5 27.5t-11.5 6.5q-8 0 -14.5 -14.5t-10 -59t-3.5 -135.5v-320q0 -16 7 -23t30 -7v-50h-125v50q14 0 18 7t4 23v497q0 18 -4 24.5t-17 6.5v49h75v-54v-55l-10 58h27l-19 -46q4 26 11 45.5t16 31.5t19.5 18t22.5 6q18 0 30 -10.5t19 -39
t10.5 -82.5t3.5 -140t-5 -140.5t-14.5 -84t-23 -41t-31.5 -11.5q-19 0 -33.5 14t-22.5 27l1 31q7 -12 15 -18t20 -6q8 0 13.5 13t8.5 41t4.5 71.5t1.5 104.5z" />
    <glyph glyph-name="q" unicode="q" horiz-adv-x="228" 
d="M107 501q-7 0 -12.5 -9.5t-9 -35t-5 -72.5t-1.5 -122q0 -71 2 -113.5t5.5 -63.5t9.5 -28t13 -7t11.5 4.5t7.5 13t3 19.5v370q0 23 -5 33.5t-19 10.5zM140 -14q1 16 2 31t1.5 30.5t0.5 31.5l4 -28h-20l13 24q-2 -29 -12 -46.5t-23.5 -25.5t-27.5 -8q-25 0 -39 27.5
t-19.5 87.5t-5.5 157q0 103 9 164.5t27 89.5t44 28q17 0 27 -5.5t17 -12.5l12.5 -12.5t12.5 -5.5q8 0 11.5 9t3.5 23h20v-575q0 -19 4 -26t17 -7v-49h-110v49q13 0 19.5 4t8.5 15t3 30z" />
    <glyph glyph-name="r" unicode="r" horiz-adv-x="166" 
d="M81 459l-12 32h27l-13 -32q3 19 7.5 35t10 28.5t13.5 19.5t18 7q8 0 15 -5t11.5 -17.5t4.5 -35.5q0 -16 -3.5 -30t-10 -22t-17.5 -8q-8 0 -12.5 4.5t-8 10t-6 10t-6.5 4.5t-6 -7t-2 -24v-346q0 -13 3.5 -20t12.5 -10t27 -3v-50h-131v50q14 0 18 7.5t4 21.5v388
q0 15 -4 21.5t-17 6.5v50h77v-40.5v-45.5z" />
    <glyph glyph-name="s" unicode="s" horiz-adv-x="198" 
d="M123 90q0 34 -7.5 62.5t-19 55t-25.5 51.5q-14 27 -27.5 55.5t-21.5 61t-8 70.5q0 35 7.5 57.5t21 34t31.5 11.5q17 0 25.5 -8.5t13.5 -17.5t11 -9t8 6.5t2 24.5h44v-104.5v-105.5h-36q-9 65 -16 101.5t-14 51t-18 14.5t-15.5 -13t-4.5 -35q0 -37 14 -73t33 -74
q15 -30 30 -62t24.5 -68t9.5 -78q0 -36 -9.5 -59t-24.5 -33.5t-32 -10.5t-28 10.5t-18.5 21t-13.5 10.5t-7.5 -8.5t-1.5 -29.5h-36v115v115h36q3 -36 6.5 -65.5t8 -52.5t10 -39t12.5 -24t15 -8q10 0 15.5 10.5t5.5 38.5z" />
    <glyph glyph-name="t" unicode="t" horiz-adv-x="163" 
d="M92 654v-574q0 -11 1 -18t3.5 -10t6.5 -3q5 0 8 6.5t4.5 24t1.5 50.5q0 18 -0.5 35.5t-0.5 35.5t-1 37h41q0 -14 0.5 -27.5t1 -27.5t1 -27.5t0.5 -27.5q0 -34 -3 -59t-11 -41.5t-21.5 -25t-33.5 -8.5q-22 0 -36 9t-21 27.5t-7 48.5v462l10 -46h-32v50q14 0 24.5 6t17 29
t6.5 74h40zM82 495v50h76v-50h-76z" />
    <glyph glyph-name="u" unicode="u" 
d="M144 51l8 19q-3 -22 -9.5 -36.5t-15 -23t-19 -12t-23.5 -3.5q-31 0 -45.5 26.5t-14.5 75.5v369q0 20 -4 25t-18 5v49h90q-1 -26 -1.5 -53t-0.5 -53v-352q0 -14 2.5 -22.5t8 -12.5t13.5 -4q9 0 15.5 5.5t9.5 16t3 25.5v358q0 21 -1.5 30t-7.5 11t-21 2v49h99
q0 -19 -0.5 -38.5t-1 -38.5t-0.5 -39v-357q0 -13 4 -18t17 -5v-49h-72q0 14 0.5 30.5t0.5 40.5l6 -20h-22z" />
    <glyph glyph-name="v" unicode="v" horiz-adv-x="209" 
d="M156 0h-104q-5 58 -9.5 116.5t-9.5 116.5t-9.5 116.5t-9.5 116.5q-1 10 -2.5 16t-4.5 9t-7 5v49h98v-49q-7 0 -11 -2.5t-4.5 -8.5t0.5 -19l34 -463l-21 47h41l-19 -47q7 117 12 198.5t7.5 134.5t2.5 85q0 25 -3 39t-7.5 21.5t-10.5 13.5v50h90v-50q-6 -6 -10.5 -20.5
t-8.5 -45.5t-9 -85t-11 -138t-14 -206z" />
    <glyph glyph-name="w" unicode="w" horiz-adv-x="335" 
d="M139 0h-87l-8 102t-8.5 102.5t-8.5 102.5l-8 102q-2 29 -4.5 46.5t-5.5 27.5t-9 13v49h223v-49q-6 -6 -8.5 -26t0.5 -63l29 -404l-21 44h41l-17 -44q7 109 11 187t6 130t2 81q0 32 -2.5 50.5t-8 28.5t-13.5 15v50h93v-50q-6 -6 -10.5 -21t-9 -47t-9.5 -86.5t-11.5 -138
t-14.5 -202.5h-101q-4 52 -8.5 104t-8.5 104t-9 104h8q-4 -53 -9.5 -129.5t-12.5 -182.5zM106 507h11q-13 -8 -21 -20t-11 -30.5t-1 -49.5l29 -404l-17 44h41l-22 -45q9 110 16 191t10.5 135t-0.5 83l-2 17q-2 16 -4.5 28.5t-6.5 21.5t-9 16t-13 13z" />
    <glyph glyph-name="x" unicode="x" horiz-adv-x="211" 
d="M121 309h30q16 -89 25 -139t14.5 -74t10 -32.5t10.5 -13.5v-50h-111v50q6 2 8.5 5.5t3 10.5t-0.5 17l-19 154h-24q-18 90 -28 141.5t-16 75.5t-11 31.5t-13 9.5v50h107v-48q-7 -2 -8 -9.5t2 -27.5zM153 270l-26 29q9 54 13 89t3.5 56t-5.5 32.5t-15 18.5v50h88v-50
q-17 -17 -28.5 -76t-29.5 -149zM61 295l25 -55q-10 -55 -14.5 -90t-4.5 -54.5t4 -29.5t12 -16v-50h-83v50q9 13 19.5 48.5t21 86t20.5 110.5z" />
    <glyph glyph-name="y" unicode="y" horiz-adv-x="206" 
d="M47 -86q36 1 51 21.5t15 55.5q0 17 -6.5 23t-17.5 6h-35l-36 400q-3 32 -5.5 48t-5 21.5t-7.5 6.5v49h96v-49q-10 -3 -12.5 -11t-0.5 -37l30 -402l-12 29h35l-14 -30q6 110 9.5 185.5t4 124t-1.5 77t-6.5 42.5t-12.5 21v50h91v-50q-7 -9 -11 -25t-7.5 -48t-7.5 -86.5
t-10 -138t-15 -204.5q-4 -60 -26 -85.5t-58 -25.5q-39 0 -54 20.5t-15 45.5q0 23 11 37.5t33 14.5q20 0 28.5 -9.5t8.5 -26.5q0 -18 -12.5 -28.5t-31.5 -8.5l14 19l2 -38z" />
    <glyph glyph-name="z" unicode="z" horiz-adv-x="216" 
d="M20 291v127v127h173v-60q-3 -11 -7.5 -26.5t-12.5 -42.5t-19.5 -70t-27.5 -109l-52 -211l-12 24h22q19 0 29.5 5t16.5 25t11 66t12 128h40v-71.5v-102v-100.5h-180v59q7 22 16 49.5t22 74t32 125.5l49 205l2 -16h-15q-16 0 -25.5 -4.5t-15 -23.5t-9.5 -61t-9 -117h-40z
" />
    <glyph glyph-name="braceleft" unicode="{" horiz-adv-x="132" 
d="M64 338v-33l-11 16q26 -2 38.5 -24.5t12.5 -57.5q0 -47 -2.5 -84.5t-5 -73t-2.5 -77.5q0 -14 4.5 -20.5t13.5 -6.5h4.5t4.5 1v-41q-55 0 -78.5 22t-23.5 71q0 30 7.5 63t17 65t16.5 60.5t7 50.5q0 17 -5.5 25.5t-22.5 8.5h-12.5t-13.5 -2v41q9 -2 14 -2h12q17 0 22.5 9
t5.5 25q0 22 -7 50.5t-16.5 60.5t-17 65t-7.5 63q0 33 10.5 53.5t33 30t58.5 9.5v-41q-2 1 -4.5 1h-4.5q-9 0 -13.5 -6.5t-4.5 -20.5q0 -40 2.5 -74t5 -69.5t2.5 -80.5q0 -39 -12.5 -65t-38.5 -28z" />
    <glyph glyph-name="bar" unicode="|" horiz-adv-x="95" 
d="M70 -128h-44q2 96 2 206.5v225.5q0 107 -1 211t-2 185h44q0 -82 -0.5 -185t-0.5 -212q0 -113 0.5 -224.5t1.5 -206.5z" />
    <glyph glyph-name="braceright" unicode="}" horiz-adv-x="132" 
d="M68 310v33l11 -16q-26 2 -38.5 24.5t-12.5 57.5q0 47 2.5 84.5t5 73t2.5 77.5q0 14 -4.5 20.5t-13.5 6.5h-4.5t-4.5 -1v41q55 0 78.5 -22t23.5 -71q0 -30 -7.5 -63t-17 -65t-16.5 -60.5t-7 -50.5q0 -17 5.5 -25.5t22.5 -8.5h12.5t13.5 2v-41q-9 2 -14 2h-12
q-17 0 -22.5 -9t-5.5 -25q0 -22 7 -50.5t16.5 -60.5t17 -65t7.5 -63q0 -33 -10.5 -53.5t-33 -30t-58.5 -9.5v41q2 -1 4.5 -1h4.5q9 0 13.5 6.5t4.5 20.5q0 40 -2.5 74t-5 69.5t-2.5 80.5q0 39 12.5 65t38.5 28z" />
    <glyph glyph-name="asciitilde" unicode="~" horiz-adv-x="161" 
d="M137 440v11.5v11.5h16q1 -4 1 -10v-13q0 -34 -5 -53.5t-14 -27.5t-22 -8t-22 7t-15.5 17t-11.5 19.5t-10.5 16.5t-13.5 7q-10 0 -13.5 -10t-3.5 -27v-10.5t1 -9.5h-17v8.5v11.5q0 35 5 54.5t15 27t23 7.5q14 0 23.5 -6.5t15.5 -15.5t10.5 -18.5t9.5 -16t12 -6.5
q9 0 12.5 9.5t3.5 23.5z" />
    <glyph glyph-name="nbspace" unicode="&#xa0;" horiz-adv-x="90" 
 />
    <glyph glyph-name="exclamdown" unicode="&#xa1;" horiz-adv-x="124" 
d="M63 446q-23 0 -36 14t-13 38q0 25 13 39t36 14q22 0 34.5 -13.5t12.5 -39.5t-12.5 -39t-34.5 -13zM43 419h38q-1 -29 -1 -41.5v-33.5q0 -34 2.5 -75.5t6.5 -85.5t8.5 -85t7 -76t2.5 -59q0 -32 -10.5 -50t-34.5 -18t-35 18t-11 50q0 24 3 59t7 76t8 85t7 85t3 76v33.5
t-1 41.5z" />
    <glyph glyph-name="cent" unicode="&#xa2;" horiz-adv-x="203" 
d="M83 313q0 -69 2.5 -110.5t7.5 -63.5t12.5 -29.5t17.5 -7.5q11 0 18.5 8.5t12.5 26.5t7.5 47t2.5 70h20q0 -64 -5.5 -112.5t-22 -75t-51.5 -26.5q-26 0 -43.5 13.5t-28.5 44.5t-15.5 82.5t-4.5 126.5q0 68 7 115t20 75t30.5 40.5t38.5 12.5q26 0 42 -10.5t24 -30.5t8 -51
q0 -29 -8.5 -46.5t-25.5 -17.5q-12 0 -19 6.5t-10.5 18t-3.5 25.5q0 15 3.5 25.5t10.5 16t15 5.5q4 0 10 -2.5t12 -13.5l-21 -1l23 23l-2 -18q-10 17 -18.5 25.5t-19.5 8.5t-19.5 -9.5t-14.5 -32t-9 -61t-3 -97.5zM97 544v25.5v32.5v32v25h18q0 -10 -0.5 -25t-0.5 -32v-32.5
v-25.5h-17zM114 67v-30v-38v-38v-30h-18q0 12 0.5 30t0.5 38v38v30h17z" />
    <glyph glyph-name="sterling" unicode="&#xa3;" horiz-adv-x="214" 
d="M101 87v24q17 -1 32.5 -9t29.5 -8t18 10.5t4 26.5q0 14 -0.5 24.5t-1.5 25.5h21q1 -9 1.5 -20t0.5 -21.5v-19.5q0 -65 -7.5 -95.5t-29.5 -30.5q-12 0 -20 7t-13.5 18.5t-8.5 24.5q-3 15 -6 24t-7 13.5t-13 5.5zM140 580q-13 0 -21.5 -7.5t-13 -24.5t-4.5 -44q0 -32 1 -79
t2.5 -98.5t3 -100t2.5 -85.5t1 -54q0 -23 -4.5 -44.5t-16 -35t-34.5 -13.5q-18 0 -29.5 8t-16.5 21t-5 27q0 19 8.5 33t25 22t39.5 8v-25q-16 0 -26 -8.5t-10 -27.5q0 -9 3.5 -17t12.5 -8q7 0 11 9t4 31q0 37 -4.5 81.5t-11 92t-13.5 94t-11.5 88t-4.5 73.5q0 46 11 76.5
t32 46.5t50 16q31 0 49.5 -14t26.5 -39t8 -59q0 -43 -10 -63t-31 -20q-12 0 -21.5 6.5t-14.5 18t-5 26.5q0 18 4.5 30t13.5 18t20 6q8 0 16 -4t14 -15l-23 4l25 23v-23q-5 21 -20 35.5t-33 14.5zM64 278h-27t-28 -1v27q13 -1 28 -1.5t27 -0.5v-24zM103 278v24q11 0 28.5 0.5
t30.5 1.5v-27q-12 1 -30 1h-29z" />
    <glyph glyph-name="yen" unicode="&#xa5;" 
d="M95 159h-15.5h-20.5t-20.5 -0.5t-15.5 -0.5v28q6 0 15.5 -0.5t20.5 -0.5h20.5h15.5v-26zM149 159v26h22t26 0.5t22 0.5v-28q-9 1 -22 1h-26h-22zM95 217h-15.5h-20.5t-20.5 -0.5t-15.5 -0.5v28h15.5t20.5 -0.5t20.5 -0.5h15.5v-26zM149 217v26q9 0 22 0.5t26 0.5h22v-28
q-9 1 -22 1h-26h-22zM88 259h67q0 -74 0.5 -116.5t3.5 -62t10.5 -25t21.5 -5.5v-50h-139v50q14 0 21.5 5.5t10.5 25t3.5 62t0.5 116.5zM133 305l-18 20h33l-11 -19q10 87 14 139t3.5 80t-5 39.5t-13.5 15.5v50h98v-50q-14 -10 -26 -51t-24.5 -114.5t-29.5 -179.5h-64
l-58 262q-5 25 -9 42t-9 27t-14 13v51h115v-50q-13 0 -18 -22.5t2 -61.5z" />
    <glyph glyph-name="brokenbar" unicode="&#xa6;" horiz-adv-x="95" 
d="M27 241h40q0 -97 0.5 -192.5t1.5 -176.5h-44q1 81 1.5 176.5t0.5 192.5zM68 360h-41q-1 94 -1.5 181t-0.5 159h45q-1 -72 -1.5 -159t-0.5 -181z" />
    <glyph glyph-name="section" unicode="&#xa7;" horiz-adv-x="213" 
d="M118 601q-26 0 -36 -17.5t-10 -40.5q0 -24 8 -43.5t21 -35.5t27 -32q17 -18 32.5 -38.5t25.5 -47t10 -63.5q0 -31 -11.5 -61t-30.5 -50l-11 9q5 10 8.5 22.5t3.5 25.5q0 18 -6.5 33.5t-17.5 31t-24 30.5q-19 24 -39.5 51.5t-34.5 63.5t-14 84q0 31 9.5 56.5t28.5 41
t48 15.5t45.5 -12t24 -30.5t7.5 -40.5q0 -25 -10.5 -42t-31.5 -17q-18 0 -27.5 11t-9.5 31q0 18 9 30t21 12q11 0 18.5 -2.5t15.5 -7.5l-18 -6l20 39q3 -7 4 -13t-1 -13q-11 11 -23 18.5t-31 7.5zM91 -24q18 0 28.5 7t15 19.5t4.5 27.5q0 25 -8 44.5t-21.5 36t-28.5 32.5
q-17 18 -33 38.5t-26 46.5t-10 62q0 32 11.5 62t30.5 49l11 -9q-5 -10 -8.5 -22t-3.5 -26q0 -18 7 -34t19 -31t25 -31q20 -22 40.5 -48.5t34 -61t13.5 -80.5q0 -32 -9.5 -59.5t-27.5 -44.5t-46 -17q-30 0 -47.5 12t-25 31t-7.5 40q0 26 10.5 42.5t31.5 16.5q12 0 20.5 -5
t12.5 -14t4 -23q0 -18 -9 -30t-21 -12q-11 0 -18.5 3t-15.5 7l18 6l-13 -32l-5 11q10 -7 21 -10.5t26 -3.5z" />
    <glyph glyph-name="dieresis" unicode="&#xa8;" horiz-adv-x="148" 
d="M112 702q14 0 21.5 -15.5t7.5 -42.5q0 -26 -7.5 -41.5t-21.5 -15.5q-13 0 -20.5 15.5t-7.5 41.5q0 28 7.5 43t20.5 15zM35 702q14 0 21.5 -15.5t7.5 -42.5q0 -26 -7.5 -41.5t-21.5 -15.5q-13 0 -20.5 15.5t-7.5 41.5q0 28 7.5 43t20.5 15z" />
    <glyph glyph-name="copyright" unicode="&#xa9;" horiz-adv-x="350" 
d="M215 600h48v-121.5v-121.5h-49q-9 85 -15.5 126.5t-13 54t-14.5 12.5q-5 0 -9.5 -7.5t-8 -31t-5.5 -70t-2 -124.5q0 -80 3 -127.5t8 -71t11.5 -31t14.5 -7.5q12 0 18.5 14t9.5 57t3 130h49q0 -93 -5 -149.5t-23 -81.5t-57 -25q-29 0 -48.5 13.5t-31.5 46t-17 89t-5 143.5
t4 143t12.5 87.5t22.5 44.5t35 13q18 0 27 -10t14 -20.5t12 -10.5t9.5 7.5t2.5 28.5zM339 317q0 -92 -9 -162t-28.5 -117t-51 -71t-75.5 -24t-75 23t-50.5 69t-28.5 116.5t-9 165.5t9 165.5t28.5 117t50.5 69.5t75 23t75.5 -24t51 -71.5t28.5 -117.5t9 -162zM317 316
q0 91 -8 157.5t-25 110t-44 65t-65 21.5t-65 -20.5t-44 -63.5t-25 -110t-8 -160t8 -159.5t25 -109t44 -62.5t65 -20t65 21t44 64t25 109t8 157z" />
    <glyph glyph-name="registered" unicode="&#xae;" horiz-adv-x="350" 
d="M339 317q0 -92 -9 -162t-28.5 -117t-51 -71t-75.5 -24t-75 23t-50.5 69t-28.5 116.5t-9 165.5t9 165.5t28.5 117t50.5 69.5t75 23t75.5 -24t51 -71.5t28.5 -117.5t9 -162zM317 316q0 91 -8 157.5t-25 110t-44 65t-65 21.5t-65 -20.5t-44 -63.5t-25 -110t-8 -160t8 -159.5
t25 -109t44 -62.5t65 -20t65 21t44 64t25 109t8 157zM236 27q-24 0 -36 14.5t-12 51.5v50.5v57.5q0 36 -2 55t-8 26.5t-18 7.5h-19v48h28q15 0 24.5 10t14 33.5t4.5 64.5q0 50 -4 74.5t-15.5 32t-35.5 7.5h-19l9 45v-498q0 -10 0.5 -16.5t3 -9t8.5 -3.5t16 -1v-46h-119
l-3 46q11 0 17 1t8 3.5t2.5 9t0.5 16.5v413q0 14 -0.5 22t-2.5 12t-8 5t-17 1l7 50h129q33 0 52.5 -14t28 -48t8.5 -93q0 -57 -9 -83.5t-26 -34.5t-40 -8l5 5v-26l-5 3q17 0 27 -11.5t14.5 -38t4.5 -71.5v-85q0 -10 1.5 -15t5.5 -5t5.5 4t2 17t0.5 38v25.5t-1 28.5h20
q1 -16 1 -29.5v-26.5q0 -44 -4 -69t-14.5 -35.5t-29.5 -10.5z" />
    <glyph glyph-name="macron" unicode="&#xaf;" horiz-adv-x="132" 
d="M67 597h-19h-22t-19 -1v65q8 0 18.5 -1t22 -1.5t19.5 -0.5t19 0.5t21.5 1.5t18.5 1v-65q-8 1 -18.5 1h-21.5h-19z" />
    <glyph glyph-name="degree" unicode="&#xb0;" horiz-adv-x="162" 
d="M122 555q0 22 -10.5 35t-30.5 13t-31 -13t-11 -35t11 -35t31 -13t30.5 13t10.5 35zM7 555q0 36 19 57.5t55 21.5t55 -21.5t19 -57.5q0 -37 -19 -58.5t-55 -21.5t-55 21.5t-19 58.5z" />
    <glyph glyph-name="twosuperior" unicode="&#xb2;" horiz-adv-x="148" 
d="M46 389v-55l-7 11h96v-51h-121v54q17 22 31 48.5t23.5 55.5t14.5 58t5 56q0 33 -7 48.5t-24 15.5q-10 0 -19 -5.5t-17 -16.5l3 9l9 -14h-9q7 5 11 6.5t7 1.5q13 0 18.5 -10t5.5 -27q0 -14 -5.5 -26t-19.5 -12q-13 0 -19.5 13.5t-6.5 35.5q0 36 15 62t45 26t45 -24.5
t15 -76.5q0 -56 -10.5 -92.5t-26.5 -61t-33 -42.5t-31 -37z" />
    <glyph glyph-name="threesuperior" unicode="&#xb3;" horiz-adv-x="151" 
d="M57 328q18 0 25.5 17.5t7.5 55.5q0 28 -3 43t-9.5 21t-17.5 6h-8.5t-11.5 -1v32q7 -1 11.5 -1h8.5q12 0 18 6.5t8 21t2 38.5q0 33 -7 48.5t-24 15.5q-10 0 -19 -5.5t-17 -16.5l3 9l9 -14h-9q7 5 11 6.5t7 1.5q13 0 18.5 -10t5.5 -27q0 -14 -5.5 -26t-19.5 -12
q-13 0 -19.5 13.5t-6.5 35.5q0 36 15 62t45 26t45 -23.5t15 -69.5q0 -28 -5 -45.5t-16.5 -27.5t-30.5 -16l9 22v-51l-13 16q24 -1 37 -10.5t18 -28.5t5 -49q0 -49 -16 -74.5t-49 -25.5q-32 0 -47.5 25t-15.5 61q0 22 6.5 35.5t20.5 13.5t19 -12t5 -26q0 -16 -5.5 -26.5
t-18.5 -10.5q-3 0 -7 1.5t-11 6.5h9l-9 -14l-3 9q8 -13 19 -19.5t21 -6.5z" />
    <glyph glyph-name="acute" unicode="&#xb4;" horiz-adv-x="120" 
d="M29 576l81 98v26h-79l-21 -114z" />
    <glyph glyph-name="paragraph" unicode="&#xb6;" horiz-adv-x="236" 
d="M115 630h118v-60q-9 0 -14.5 -3t-7.5 -13t-2.5 -32.5t-0.5 -61.5v-439q0 -32 -4.5 -61.5t-16 -51.5t-31 -35t-48.5 -13q-32 0 -52.5 13.5t-29.5 38t-9 56.5t10.5 50.5t29.5 18.5q14 0 22 -7t11.5 -19.5t3.5 -27.5t-4 -26.5t-10.5 -18t-15.5 -6.5q-7 0 -14 4t-15 14l24 10
l-9 -62l-15 42q11 -16 24 -23.5t29 -7.5q11 1 20 7.5t14 26t5 57.5v268l43 -155q-13 -1 -27.5 -1.5t-28.5 -0.5q-55 0 -80.5 67.5t-25.5 194.5q0 137 28.5 197t78.5 60z" />
    <glyph glyph-name="periodcentered" unicode="&#xb7;" horiz-adv-x="124" 
d="M61 333q23 0 36 -14t13 -38q0 -25 -13 -39t-36 -14q-22 0 -34.5 13.5t-12.5 39.5t12.5 39t34.5 13z" />
    <glyph glyph-name="cedilla" unicode="&#xb8;" horiz-adv-x="112" 
d="M35 -51l-17 -9q12 14 24.5 23t27.5 9q32 0 32 -42q0 -36 -24.5 -52t-70.5 -16v24q29 8 41.5 18.5t12.5 23.5t-11 13q-4 0 -9 -3t-8 -8l-17 5l11 101l18 -2z" />
    <glyph glyph-name="onesuperior" unicode="&#xb9;" horiz-adv-x="98" 
d="M90 295h-78v51q10 0 13.5 10t3.5 43v152q0 20 -2.5 31t-9.5 11h-3h-3v49q11 2 21.5 5.5t17.5 10.5t7 20h17v-279q0 -35 4 -44t12 -9v-51z" />
    <glyph glyph-name="onequarter" unicode="&#xbc;" horiz-adv-x="302" 
d="M11 20q3 8 11.5 27.5t20.5 47t25 59t25.5 63.5t22.5 61l18 -5q-6 -34 -13.5 -73t-15 -77.5t-13 -70.5t-8.5 -52h-73v20zM271 615q-3 -8 -11.5 -28t-20.5 -48t-25 -60.5t-26 -65.5t-23 -63l-18 4q7 35 14.5 74.5t14.5 78t12.5 71t8.5 52.5h74v-15zM112 295h-78v51
q10 0 13.5 10t3.5 43v152q0 20 -2.5 31t-9.5 11h-3h-3v49q11 2 21.5 5.5t17.5 10.5t7 20h17v-279q0 -35 4 -44t12 -9v-51zM257 43v41q17 0 22.5 6t6.5 31h12v-105h-12q-1 18 -6 22.5t-23 4.5zM165 308h52q-3 -67 -12 -112.5t-21 -71.5t-24 -36l3 8v-17l-4 5h69l-9 -41h-70
v41q5 21 9 58.5t6.5 81.5t0.5 84zM216 45v104q14 25 23 61t9 98h13v-213q0 -39 0.5 -61.5t2 -33t6 -13.5t12.5 -3v-51h-90v51q12 0 17 5t6 18t1 38z" />
    <glyph glyph-name="onehalf" unicode="&#xbd;" horiz-adv-x="289" 
d="M11 20q3 8 11.5 27.5t20.5 47t25 59t25.5 63.5t22.5 61l18 -5q-6 -34 -13.5 -73t-15 -77.5t-13 -70.5t-8.5 -52h-73v20zM271 615q-3 -8 -11.5 -28t-20.5 -48t-25 -60.5t-26 -65.5t-23 -63l-18 4q7 35 14.5 74.5t14.5 78t12.5 71t8.5 52.5h74v-15zM112 295h-78v51
q10 0 13.5 10t3.5 43v152q0 20 -2.5 31t-9.5 11h-3h-3v49q11 2 21.5 5.5t17.5 10.5t7 20h17v-279q0 -35 4 -44t12 -9v-51zM187 29v-55l-7 11h96v-51h-121v54q17 22 31 48.5t23.5 55.5t14.5 58t5 56q0 33 -7 48.5t-24 15.5q-10 0 -19 -5.5t-17 -16.5l3 9l9 -14h-9q7 5 11 6.5
t7 1.5q13 0 18.5 -10t5.5 -27q0 -14 -5.5 -26t-19.5 -12q-13 0 -19.5 13.5t-6.5 35.5q0 36 15 62t45 26t45 -24.5t15 -76.5q0 -56 -10.5 -92.5t-26.5 -61t-33 -42.5t-31 -37z" />
    <glyph glyph-name="threequarters" unicode="&#xbe;" horiz-adv-x="321" 
d="M22 20q3 8 11.5 27.5t20.5 47t25 59t25.5 63.5t22.5 61l18 -5q-6 -34 -13.5 -73t-15 -77.5t-13 -70.5t-8.5 -52h-73v20zM282 615q-3 -8 -11.5 -28t-20.5 -48t-25 -60.5t-26 -65.5t-23 -63l-18 4q7 35 14.5 74.5t14.5 78t12.5 71t8.5 52.5h74v-15zM276 44v41q17 0 22.5 6
t6.5 31h12v-105h-12q-1 18 -6 22.5t-23 4.5zM184 309h52q-3 -67 -12 -112.5t-21 -71.5t-24 -36l3 8v-17l-4 5h69l-9 -41h-70v41q5 21 9 58.5t6.5 81.5t0.5 84zM235 46v104q14 25 23 61t9 98h13v-213q0 -39 0.5 -61.5t2 -33t6 -13.5t12.5 -3v-51h-90v51q12 0 17 5t6 18t1 38z
M49 328q18 0 25.5 17.5t7.5 55.5q0 28 -3 43t-9.5 21t-17.5 6h-8.5t-11.5 -1v32q7 -1 11.5 -1h8.5q12 0 18 6.5t8 21t2 38.5q0 33 -7 48.5t-24 15.5q-10 0 -19 -5.5t-17 -16.5l3 9l9 -14h-9q7 5 11 6.5t7 1.5q13 0 18.5 -10t5.5 -27q0 -14 -5.5 -26t-19.5 -12
q-13 0 -19.5 13.5t-6.5 35.5q0 36 15 62t45 26t45 -23.5t15 -69.5q0 -28 -5 -45.5t-16.5 -27.5t-30.5 -16l9 22v-51l-13 16q24 -1 37 -10.5t18 -28.5t5 -49q0 -49 -16 -74.5t-49 -25.5q-32 0 -47.5 25t-15.5 61q0 22 6.5 35.5t20.5 13.5t19 -12t5 -26q0 -16 -5.5 -26.5
t-18.5 -10.5q-3 0 -7 1.5t-11 6.5h9l-9 -14l-3 9q8 -13 19 -19.5t21 -6.5z" />
    <glyph glyph-name="questiondown" unicode="&#xbf;" horiz-adv-x="205" 
d="M108 449q-23 0 -36 14t-13 38q0 25 13 39t36 14q22 0 34.5 -13.5t12.5 -39.5t-12.5 -39t-34.5 -13zM130 -27q19 0 34 11t22 27l1 -20l-23 33l14 -8q-4 -3 -9.5 -5.5t-13.5 -2.5q-18 0 -26 14.5t-8 34.5q0 28 11 42t28 14q22 0 31.5 -19t9.5 -51q0 -35 -11.5 -64
t-34.5 -47t-57 -18q-29 0 -47 9t-28.5 26t-14.5 41t-4 54q0 31 6.5 58.5t16.5 52t21.5 47.5t22 45.5t17 45.5t6.5 48q0 14 -2.5 19.5t-6.5 5.5q-5 0 -7 -6.5t-2 -19.5v-11.5t1 -9.5h-17v13v13q0 34 10 54t36 20q18 0 29 -10t15.5 -27.5t4.5 -37.5q0 -34 -7 -67t-17.5 -65
t-21 -62.5t-17.5 -60t-7 -57.5q0 -23 6 -36t16 -18t23 -5z" />
    <glyph glyph-name="Agrave" unicode="&#xc0;" horiz-adv-x="256" 
d="M0 50q7 3 13.5 26.5t12.5 61.5t11 84.5t9.5 95.5t7.5 94t4.5 81.5t1.5 56.5q0 18 -6 24t-23 6v50h152q1 -16 4.5 -58t9 -99.5t12 -122t12.5 -128t11 -115.5q2 -18 5 -29.5t8 -17.5t11 -10v-50h-124v50q20 0 29 14.5t7 42.5l-42 495l25 -31h-46l14 31
q-11 -152 -18.5 -250.5t-11 -156.5t-3.5 -90q0 -16 3.5 -26t11 -16.5t18.5 -12.5v-50h-119v50zM58 219v48q15 -1 30.5 -1h30.5h26.5t25.5 1v-48q-13 1 -25.5 1h-26.5h-30.5t-30.5 -1zM143 657l-81 98v26h79l21 -114z" />
    <glyph glyph-name="Aacute" unicode="&#xc1;" horiz-adv-x="256" 
d="M0 50q7 3 13.5 26.5t12.5 61.5t11 84.5t9.5 95.5t7.5 94t4.5 81.5t1.5 56.5q0 18 -6 24t-23 6v50h152q1 -16 4.5 -58t9 -99.5t12 -122t12.5 -128t11 -115.5q2 -18 5 -29.5t8 -17.5t11 -10v-50h-124v50q20 0 29 14.5t7 42.5l-42 495l25 -31h-46l14 31
q-11 -152 -18.5 -250.5t-11 -156.5t-3.5 -90q0 -16 3.5 -26t11 -16.5t18.5 -12.5v-50h-119v50zM58 219v48q15 -1 30.5 -1h30.5h26.5t25.5 1v-48q-13 1 -25.5 1h-26.5h-30.5t-30.5 -1zM107 657l81 98v26h-79l-21 -114z" />
    <glyph glyph-name="Acircumflex" unicode="&#xc2;" horiz-adv-x="256" 
d="M0 50q7 3 13.5 26.5t12.5 61.5t11 84.5t9.5 95.5t7.5 94t4.5 81.5t1.5 56.5q0 18 -6 24t-23 6v50h152q1 -16 4.5 -58t9 -99.5t12 -122t12.5 -128t11 -115.5q2 -18 5 -29.5t8 -17.5t11 -10v-50h-124v50q20 0 29 14.5t7 42.5l-42 495l25 -31h-46l14 31
q-11 -152 -18.5 -250.5t-11 -156.5t-3.5 -90q0 -16 3.5 -26t11 -16.5t18.5 -12.5v-50h-119v50zM58 219v48q15 -1 30.5 -1h30.5h26.5t25.5 1v-48q-13 1 -25.5 1h-26.5h-30.5t-30.5 -1zM129 791l68 -122l-10 -11l-72 53h13l-70 -53l-10 11l69 122h12z" />
    <glyph glyph-name="Atilde" unicode="&#xc3;" horiz-adv-x="256" 
d="M0 50q7 3 13.5 26.5t12.5 61.5t11 84.5t9.5 95.5t7.5 94t4.5 81.5t1.5 56.5q0 18 -6 24t-23 6v50h152q1 -16 4.5 -58t9 -99.5t12 -122t12.5 -128t11 -115.5q2 -18 5 -29.5t8 -17.5t11 -10v-50h-124v50q20 0 29 14.5t7 42.5l-42 495l25 -31h-46l14 31
q-11 -152 -18.5 -250.5t-11 -156.5t-3.5 -90q0 -16 3.5 -26t11 -16.5t18.5 -12.5v-50h-119v50zM58 219v48q15 -1 30.5 -1h30.5h26.5t25.5 1v-48q-13 1 -25.5 1h-26.5h-30.5t-30.5 -1zM169 743v16.5t-1 16.5h17q1 -10 1 -16.5v-16.5q0 -47 -9.5 -64t-25.5 -17q-14 0 -23.5 10
t-15.5 23.5t-11.5 23.5t-12.5 10q-6 0 -9 -8t-3 -21v-15t1 -17h-17q-1 11 -1 18v14q0 47 10 64t29 17q14 0 23 -9.5t15 -22.5t11 -22.5t11 -9.5t8.5 7.5t2.5 18.5z" />
    <glyph glyph-name="Adieresis" unicode="&#xc4;" horiz-adv-x="256" 
d="M0 50q7 3 13.5 26.5t12.5 61.5t11 84.5t9.5 95.5t7.5 94t4.5 81.5t1.5 56.5q0 18 -6 24t-23 6v50h152q1 -16 4.5 -58t9 -99.5t12 -122t12.5 -128t11 -115.5q2 -18 5 -29.5t8 -17.5t11 -10v-50h-124v50q20 0 29 14.5t7 42.5l-42 495l25 -31h-46l14 31
q-11 -152 -18.5 -250.5t-11 -156.5t-3.5 -90q0 -16 3.5 -26t11 -16.5t18.5 -12.5v-50h-119v50zM58 219v48q15 -1 30.5 -1h30.5h26.5t25.5 1v-48q-13 1 -25.5 1h-26.5h-30.5t-30.5 -1zM160 783q14 0 21.5 -15.5t7.5 -42.5q0 -26 -7.5 -41.5t-21.5 -15.5q-13 0 -20.5 15.5
t-7.5 41.5q0 28 7.5 43t20.5 15zM83 783q14 0 21.5 -15.5t7.5 -42.5q0 -26 -7.5 -41.5t-21.5 -15.5q-13 0 -20.5 15.5t-7.5 41.5q0 28 7.5 43t20.5 15z" />
    <glyph glyph-name="Aring" unicode="&#xc5;" horiz-adv-x="256" 
d="M0 50q7 3 13.5 26.5t12.5 61.5t11 84.5t9.5 95.5t7.5 94t4.5 81.5t1.5 56.5q0 18 -6 24t-23 6v50h152q1 -16 4.5 -58t9 -99.5t12 -122t12.5 -128t11 -115.5q2 -18 5 -29.5t8 -17.5t11 -10v-50h-124v50q20 0 29 14.5t7 42.5l-42 495l25 -31h-46l14 31
q-11 -152 -18.5 -250.5t-11 -156.5t-3.5 -90q0 -16 3.5 -26t11 -16.5t18.5 -12.5v-50h-119v50zM58 219v48q15 -1 30.5 -1h30.5h26.5t25.5 1v-48q-13 1 -25.5 1h-26.5h-30.5t-30.5 -1zM188 732q0 -31 -19.5 -50.5t-48.5 -19.5q-28 0 -46 19.5t-18 50.5t18 50t46 19
q29 0 48.5 -19t19.5 -50zM80 732q0 -21 12 -33.5t28 -12.5q18 0 30.5 12.5t12.5 33.5q0 20 -12.5 32.5t-30.5 12.5q-16 0 -28 -12.5t-12 -32.5z" />
    <glyph glyph-name="AE" unicode="&#xc6;" horiz-adv-x="368" 
d="M219 303v42q16 1 23 10t9.5 32t2.5 67h34q-1 -34 -1 -67.5v-63.5q0 -28 0.5 -61.5t1.5 -66.5h-35q0 44 -2 66.5t-9 31.5t-24 10zM57 219v48q15 -1 30.5 -1h30.5h26.5t25.5 1v-48q-13 1 -25.5 1h-26.5h-30.5t-30.5 -1zM-1 0v50q7 3 14 30t14.5 70t14 94t12.5 103t10 97
t6.5 75t2.5 38q0 14 -6 18.5t-23 4.5v50h306v-116.5v-117.5h-40q0 63 -3 100t-12 55t-27 23.5t-49 5.5l2 4v-536v2q30 0 47.5 5.5t26.5 26t12.5 63t5.5 115.5h40v-130v-130h-223v50q10 0 15 1t7 3.5t2.5 9t0.5 16.5v524l23 -24h-74l28 22q-5 -50 -11 -111t-12.5 -123.5
t-11.5 -118.5t-8.5 -98t-3.5 -60q0 -13 7 -24.5t26 -16.5v-50h-119z" />
    <glyph glyph-name="Ccedilla" unicode="&#xc7;" horiz-adv-x="215" 
d="M151 630h48v-136.5v-136.5h-49q-7 74 -13 118.5t-10.5 67t-9 30t-10.5 7.5q-5 0 -9.5 -8.5t-8 -35t-5.5 -79t-2 -140.5q0 -90 3 -143.5t8 -80t11.5 -35t14.5 -8.5q9 0 15 8.5t9.5 32.5t5 70t1.5 120h49q0 -78 -2.5 -132.5t-11 -88.5t-25.5 -49.5t-46 -15.5t-48.5 15
t-31.5 50.5t-17 98t-5 158.5t4 158t12.5 97t22.5 49t35 14q18 0 27 -10t14 -20.5t12 -10.5t9.5 7.5t2.5 28.5zM96 -51l-17 -9q12 14 24.5 23t27.5 9q32 0 32 -42q0 -36 -24.5 -52t-70.5 -16v24q29 8 41.5 18.5t12.5 23.5t-11 13q-4 0 -9 -3t-8 -8l-17 5l11 101l18 -2z" />
    <glyph glyph-name="Egrave" unicode="&#xc8;" horiz-adv-x="241" 
d="M226 0h-223v50q10 0 15 1t7 3.5t2.5 9t0.5 16.5v470q0 11 -0.5 17t-2.5 8.5t-7 3.5t-15 1v50h220v-116.5v-117.5h-40q0 63 -3 100t-12 55t-27 23.5t-49 5.5l2 4v-536l-1 2q30 0 47.5 5.5t26.5 25.5t13 62.5t6 116.5h40v-130v-130zM92 303v42q16 1 23 10t9.5 32t2.5 67h34
q-1 -34 -1 -67.5v-63.5q0 -28 0.5 -61.5t1.5 -66.5h-35q-1 44 -2.5 67t-8.5 31.5t-24 9.5zM144 657l-81 98v26h79l21 -114z" />
    <glyph glyph-name="Eacute" unicode="&#xc9;" horiz-adv-x="241" 
d="M226 0h-223v50q10 0 15 1t7 3.5t2.5 9t0.5 16.5v470q0 11 -0.5 17t-2.5 8.5t-7 3.5t-15 1v50h220v-116.5v-117.5h-40q0 63 -3 100t-12 55t-27 23.5t-49 5.5l2 4v-536l-1 2q30 0 47.5 5.5t26.5 25.5t13 62.5t6 116.5h40v-130v-130zM92 303v42q16 1 23 10t9.5 32t2.5 67h34
q-1 -34 -1 -67.5v-63.5q0 -28 0.5 -61.5t1.5 -66.5h-35q-1 44 -2.5 67t-8.5 31.5t-24 9.5zM99 657l81 98v26h-79l-21 -114z" />
    <glyph glyph-name="Ecircumflex" unicode="&#xca;" horiz-adv-x="241" 
d="M226 0h-223v50q10 0 15 1t7 3.5t2.5 9t0.5 16.5v470q0 11 -0.5 17t-2.5 8.5t-7 3.5t-15 1v50h220v-116.5v-117.5h-40q0 63 -3 100t-12 55t-27 23.5t-49 5.5l2 4v-536l-1 2q30 0 47.5 5.5t26.5 25.5t13 62.5t6 116.5h40v-130v-130zM92 303v42q16 1 23 10t9.5 32t2.5 67h34
q-1 -34 -1 -67.5v-63.5q0 -28 0.5 -61.5t1.5 -66.5h-35q-1 44 -2.5 67t-8.5 31.5t-24 9.5zM130 791l68 -122l-10 -11l-72 53h13l-70 -53l-10 11l69 122h12z" />
    <glyph glyph-name="Edieresis" unicode="&#xcb;" horiz-adv-x="241" 
d="M226 0h-223v50q10 0 15 1t7 3.5t2.5 9t0.5 16.5v470q0 11 -0.5 17t-2.5 8.5t-7 3.5t-15 1v50h220v-116.5v-117.5h-40q0 63 -3 100t-12 55t-27 23.5t-49 5.5l2 4v-536l-1 2q30 0 47.5 5.5t26.5 25.5t13 62.5t6 116.5h40v-130v-130zM92 303v42q16 1 23 10t9.5 32t2.5 67h34
q-1 -34 -1 -67.5v-63.5q0 -28 0.5 -61.5t1.5 -66.5h-35q-1 44 -2.5 67t-8.5 31.5t-24 9.5zM161 783q14 0 21.5 -15.5t7.5 -42.5q0 -26 -7.5 -41.5t-21.5 -15.5q-13 0 -20.5 15.5t-7.5 41.5q0 28 7.5 43t20.5 15zM84 783q14 0 21.5 -15.5t7.5 -42.5q0 -26 -7.5 -41.5
t-21.5 -15.5q-13 0 -20.5 15.5t-7.5 41.5q0 28 7.5 43t20.5 15z" />
    <glyph glyph-name="Igrave" unicode="&#xcc;" horiz-adv-x="123" 
d="M28 90v450q0 14 -0.5 22t-2.5 12t-7.5 5t-14.5 1v50h116v-50q-9 0 -14 -1t-7.5 -5t-3 -12t-0.5 -22v-450q0 -14 0.5 -22t3 -12t7.5 -5t14 -1v-50h-116v50q9 0 14.5 1t7.5 5t2.5 12t0.5 22zM66 657l-65 98v26h63l21 -114z" />
    <glyph glyph-name="Iacute" unicode="&#xcd;" horiz-adv-x="123" 
d="M28 90v450q0 14 -0.5 22t-2.5 12t-7.5 5t-14.5 1v50h116v-50q-9 0 -14 -1t-7.5 -5t-3 -12t-0.5 -22v-450q0 -14 0.5 -22t3 -12t7.5 -5t14 -1v-50h-116v50q9 0 14.5 1t7.5 5t2.5 12t0.5 22zM52 657l-19 10l21 114h63v-26z" />
    <glyph glyph-name="Icircumflex" unicode="&#xce;" horiz-adv-x="123" 
d="M28 90v450q0 14 -0.5 22t-2.5 12t-7.5 5t-14.5 1v50h116v-50q-9 0 -14 -1t-7.5 -5t-3 -12t-0.5 -22v-450q0 -14 0.5 -22t3 -12t7.5 -5t14 -1v-50h-116v50q9 0 14.5 1t7.5 5t2.5 12t0.5 22zM68 791l48 -124l-12 -9l-50 53h13l-48 -53l-12 9l49 124h12z" />
    <glyph glyph-name="Idieresis" unicode="&#xcf;" horiz-adv-x="123" 
d="M28 90v450q0 14 -0.5 22t-2.5 12t-7.5 5t-14.5 1v50h116v-50q-9 0 -14 -1t-7.5 -5t-3 -12t-0.5 -22v-450q0 -14 0.5 -22t3 -12t7.5 -5t14 -1v-50h-116v50q9 0 14.5 1t7.5 5t2.5 12t0.5 22zM92 783q13 0 20 -15.5t7 -42.5q0 -26 -7 -41.5t-20 -15.5q-11 0 -18 15.5
t-7 41.5q0 28 7 43t18 15zM30 783q12 0 19 -15.5t7 -42.5q0 -26 -7 -41.5t-19 -15.5t-19 15.5t-7 41.5q0 28 7 43t19 15z" />
    <glyph glyph-name="Eth" unicode="&#xd0;" horiz-adv-x="245" 
d="M75 294h-35h-35v48q17 -1 35.5 -1h34.5h36.5t34.5 1v-48h-35h-36zM93 50h29q9 0 17 9t14.5 34t10.5 73.5t4 128.5q1 91 -1.5 147t-8 86t-15 41t-23.5 11h-27l10 4v-543zM131 0h-120v50q10 0 15 1t7 5t2.5 12t0.5 22v450q0 14 -0.5 22t-2.5 12t-7 5t-15 1v50h113
q30 0 51 -15t34 -50.5t19 -96.5t6 -154q-1 -93 -6.5 -153.5t-17.5 -96t-31.5 -50t-47.5 -14.5z" />
    <glyph glyph-name="Ntilde" unicode="&#xd1;" horiz-adv-x="270" 
d="M201 115l-9 35l27 1l-6 -36q-4 27 -6.5 64t-4 74.5t-1.5 68.5q0 76 -2.5 125.5t-9 77.5t-16.5 40t-25 15v50h120v-50q-7 -4 -12 -10.5t-8 -18t-5 -28.5t-2 -42q0 -144 0.5 -269t5.5 -212h-74l-69 312q-9 41 -16 91t-12 101.5t-8 96.5l18 -31l-34 -2l5 35q2 -25 4.5 -67
t4.5 -91t2 -97q0 -68 1.5 -116.5t6 -81.5t13 -53.5t21 -31t31.5 -15.5v-50h-138v50q10 5 15.5 14t8 25.5t2.5 43.5v411q0 13 -0.5 20t-3 10.5t-7.5 4.5t-15 1v50h118q1 -19 2.5 -41.5t5.5 -53.5t12 -75t22 -106q14 -59 24 -123t14 -116zM182 743v16.5t-1 16.5h17
q1 -10 1 -16.5v-16.5q0 -47 -9.5 -64t-25.5 -17q-14 0 -23.5 10t-15.5 23.5t-11.5 23.5t-12.5 10q-6 0 -9 -8t-3 -21v-15t1 -17h-17q-1 11 -1 18v14q0 47 10 64t29 17q14 0 23 -9.5t15 -22.5t11 -22.5t11 -9.5t8.5 7.5t2.5 18.5z" />
    <glyph glyph-name="Ograve" unicode="&#xd2;" horiz-adv-x="237" 
d="M226 314q0 -126 -11 -195.5t-34.5 -97t-62.5 -27.5q-28 0 -48.5 14t-33.5 49.5t-18.5 98t-5.5 158.5t6 159t18.5 98.5t33 50t48.5 14.5q39 0 62.5 -28t34.5 -98t11 -196zM156 315q0 84 -2.5 136.5t-7 80.5t-11.5 38.5t-17 10.5q-9 0 -16 -10.5t-11.5 -39t-7 -81
t-2.5 -135.5t2.5 -135t7 -80t11.5 -39t16 -11q10 0 17 10.5t11.5 38.5t7 80t2.5 136zM140 663l-81 98v26h79l21 -114z" />
    <glyph glyph-name="Oacute" unicode="&#xd3;" horiz-adv-x="237" 
d="M226 314q0 -126 -11 -195.5t-34.5 -97t-62.5 -27.5q-28 0 -48.5 14t-33.5 49.5t-18.5 98t-5.5 158.5t6 159t18.5 98.5t33 50t48.5 14.5q39 0 62.5 -28t34.5 -98t11 -196zM156 315q0 84 -2.5 136.5t-7 80.5t-11.5 38.5t-17 10.5q-9 0 -16 -10.5t-11.5 -39t-7 -81
t-2.5 -135.5t2.5 -135t7 -80t11.5 -39t16 -11q10 0 17 10.5t11.5 38.5t7 80t2.5 136zM95 663l81 98v26h-79l-21 -114z" />
    <glyph glyph-name="Ocircumflex" unicode="&#xd4;" horiz-adv-x="237" 
d="M226 314q0 -126 -11 -195.5t-34.5 -97t-62.5 -27.5q-28 0 -48.5 14t-33.5 49.5t-18.5 98t-5.5 158.5t6 159t18.5 98.5t33 50t48.5 14.5q39 0 62.5 -28t34.5 -98t11 -196zM156 315q0 84 -2.5 136.5t-7 80.5t-11.5 38.5t-17 10.5q-9 0 -16 -10.5t-11.5 -39t-7 -81
t-2.5 -135.5t2.5 -135t7 -80t11.5 -39t16 -11q10 0 17 10.5t11.5 38.5t7 80t2.5 136zM125 797l68 -122l-10 -11l-72 53h13l-70 -53l-10 11l69 122h12z" />
    <glyph glyph-name="Otilde" unicode="&#xd5;" horiz-adv-x="237" 
d="M226 314q0 -126 -11 -195.5t-34.5 -97t-62.5 -27.5q-28 0 -48.5 14t-33.5 49.5t-18.5 98t-5.5 158.5t6 159t18.5 98.5t33 50t48.5 14.5q39 0 62.5 -28t34.5 -98t11 -196zM156 315q0 84 -2.5 136.5t-7 80.5t-11.5 38.5t-17 10.5q-9 0 -16 -10.5t-11.5 -39t-7 -81
t-2.5 -135.5t2.5 -135t7 -80t11.5 -39t16 -11q10 0 17 10.5t11.5 38.5t7 80t2.5 136zM165 749v16.5t-1 16.5h17q1 -10 1 -16.5v-16.5q0 -47 -9.5 -64t-25.5 -17q-14 0 -23.5 10t-15.5 23.5t-11.5 23.5t-12.5 10q-6 0 -9 -8t-3 -21v-15t1 -17h-17q-1 11 -1 18v14q0 47 10 64
t29 17q14 0 23 -9.5t15 -22.5t11 -22.5t11 -9.5t8.5 7.5t2.5 18.5z" />
    <glyph glyph-name="Odieresis" unicode="&#xd6;" horiz-adv-x="237" 
d="M226 314q0 -126 -11 -195.5t-34.5 -97t-62.5 -27.5q-28 0 -48.5 14t-33.5 49.5t-18.5 98t-5.5 158.5t6 159t18.5 98.5t33 50t48.5 14.5q39 0 62.5 -28t34.5 -98t11 -196zM156 315q0 84 -2.5 136.5t-7 80.5t-11.5 38.5t-17 10.5q-9 0 -16 -10.5t-11.5 -39t-7 -81
t-2.5 -135.5t2.5 -135t7 -80t11.5 -39t16 -11q10 0 17 10.5t11.5 38.5t7 80t2.5 136zM157 789q14 0 21.5 -15.5t7.5 -42.5q0 -26 -7.5 -41.5t-21.5 -15.5q-13 0 -20.5 15.5t-7.5 41.5q0 28 7.5 43t20.5 15zM80 789q14 0 21.5 -15.5t7.5 -42.5q0 -26 -7.5 -41.5t-21.5 -15.5
q-13 0 -20.5 15.5t-7.5 41.5q0 28 7.5 43t20.5 15z" />
    <glyph glyph-name="multiply" unicode="&#xd7;" horiz-adv-x="201" 
d="M52 455q8 -17 17.5 -38t19 -41t17.5 -37l15 -10q9 -16 20 -38.5t23.5 -46t22.5 -43.5l-37 -19q-8 18 -17.5 39.5t-19 42.5t-18.5 38l-16 12q-6 12 -13.5 26.5t-16 31t-17.5 33t-17 31.5zM149 455l37 -19q-11 -19 -22.5 -41.5t-22.5 -43.5t-19 -37l-16 -11q-8 -17 -18 -38
t-19.5 -43t-17.5 -41l-37 19q10 20 22 43.5t24 46.5t20 39l16 12q6 12 13 26.5t14 30t13.5 30t12.5 27.5z" />
    <glyph glyph-name="Oslash" unicode="&#xd8;" horiz-adv-x="237" 
d="M4 -1q4 11 10.5 31t14.5 44.5t14 48.5l16 6q11 41 22.5 87.5t24.5 96.5t25.5 99.5t24.5 95.5l14 17q11 33 22 64.5t15 48.5q5 -1 12.5 -3t13.5 -4q-6 -18 -17.5 -51.5t-24.5 -73.5l-21 -27q-11 -43 -23.5 -90.5t-25.5 -97t-25 -97.5t-22 -91l-17 -3q-8 -30 -17.5 -60.5
t-12.5 -46.5q-7 2 -12.5 3.5t-10.5 2.5zM226 314q0 -126 -11 -195.5t-34.5 -97t-62.5 -27.5q-28 0 -48.5 14t-33.5 49.5t-18.5 98t-5.5 158.5t6 159t18.5 98.5t33 50t48.5 14.5q39 0 62.5 -28t34.5 -98t11 -196zM158 315q0 84 -2.5 136t-7.5 80.5t-12.5 39t-17.5 10.5
t-17.5 -10.5t-12 -39t-7 -81t-2.5 -135.5q0 -82 2.5 -134.5t7 -80.5t12 -39t17.5 -11t17.5 10.5t12.5 38.5t7.5 80t2.5 136z" />
    <glyph glyph-name="Ugrave" unicode="&#xd9;" horiz-adv-x="238" 
d="M169 115q0 120 -1.5 200t-4.5 129t-8 76t-12 39.5t-17 19.5v51h109v-51q-7 -9 -12.5 -28t-9 -47.5t-3.5 -68.5v-161.5v-160.5q0 -39 -7.5 -65t-26 -39.5t-52.5 -13.5q-36 0 -57 12.5t-30 39t-9 68.5v429q0 13 -0.5 20t-2.5 10.5t-7 4.5t-15 1v50h105v-50q-5 0 -8 -1
t-4 -4.5t-1.5 -10.5t-0.5 -20v-431q0 -28 8.5 -43.5t30.5 -15.5t29 15t7 46zM148 657l-81 98v26h79l21 -114z" />
    <glyph glyph-name="Uacute" unicode="&#xda;" horiz-adv-x="238" 
d="M169 115q0 120 -1.5 200t-4.5 129t-8 76t-12 39.5t-17 19.5v51h109v-51q-7 -9 -12.5 -28t-9 -47.5t-3.5 -68.5v-161.5v-160.5q0 -39 -7.5 -65t-26 -39.5t-52.5 -13.5q-36 0 -57 12.5t-30 39t-9 68.5v429q0 13 -0.5 20t-2.5 10.5t-7 4.5t-15 1v50h105v-50q-5 0 -8 -1
t-4 -4.5t-1.5 -10.5t-0.5 -20v-431q0 -28 8.5 -43.5t30.5 -15.5t29 15t7 46zM103 657l81 98v26h-79l-21 -114z" />
    <glyph glyph-name="Ucircumflex" unicode="&#xdb;" horiz-adv-x="238" 
d="M169 115q0 120 -1.5 200t-4.5 129t-8 76t-12 39.5t-17 19.5v51h109v-51q-7 -9 -12.5 -28t-9 -47.5t-3.5 -68.5v-161.5v-160.5q0 -39 -7.5 -65t-26 -39.5t-52.5 -13.5q-36 0 -57 12.5t-30 39t-9 68.5v429q0 13 -0.5 20t-2.5 10.5t-7 4.5t-15 1v50h105v-50q-5 0 -8 -1
t-4 -4.5t-1.5 -10.5t-0.5 -20v-431q0 -28 8.5 -43.5t30.5 -15.5t29 15t7 46zM134 791l68 -122l-10 -11l-72 53h13l-70 -53l-10 11l69 122h12z" />
    <glyph glyph-name="Udieresis" unicode="&#xdc;" horiz-adv-x="238" 
d="M169 115q0 120 -1.5 200t-4.5 129t-8 76t-12 39.5t-17 19.5v51h109v-51q-7 -9 -12.5 -28t-9 -47.5t-3.5 -68.5v-161.5v-160.5q0 -39 -7.5 -65t-26 -39.5t-52.5 -13.5q-36 0 -57 12.5t-30 39t-9 68.5v429q0 13 -0.5 20t-2.5 10.5t-7 4.5t-15 1v50h105v-50q-5 0 -8 -1
t-4 -4.5t-1.5 -10.5t-0.5 -20v-431q0 -28 8.5 -43.5t30.5 -15.5t29 15t7 46zM165 783q14 0 21.5 -15.5t7.5 -42.5q0 -26 -7.5 -41.5t-21.5 -15.5q-13 0 -20.5 15.5t-7.5 41.5q0 28 7.5 43t20.5 15zM88 783q14 0 21.5 -15.5t7.5 -42.5q0 -26 -7.5 -41.5t-21.5 -15.5
q-13 0 -20.5 15.5t-7.5 41.5q0 28 7.5 43t20.5 15z" />
    <glyph glyph-name="Yacute" unicode="&#xdd;" 
d="M88 210h67q0 -56 0.5 -88.5t3.5 -48t10.5 -19.5t21.5 -4v-50h-139v50q14 0 21.5 4t10.5 19.5t3.5 48t0.5 88.5zM133 245l-18 24h33l-11 -23q10 106 14 169.5t3.5 97.5t-5 47.5t-13.5 19.5v50h98v-50q-11 -9 -20 -39.5t-18 -83t-19 -127t-23 -171.5h-64l-58 320
q-5 30 -9 50.5t-9 33t-14 16.5v51h115v-50q-13 0 -18 -27.5t2 -75.5zM96 657l81 98v26h-79l-21 -114z" />
    <glyph glyph-name="Thorn" unicode="&#xde;" horiz-adv-x="233" 
d="M157 313q0 54 -2 88t-7 52.5t-14 25.5t-22 7h-27v50h38q39 0 60.5 -21.5t30 -69t8.5 -125.5q0 -75 -9.5 -120t-31 -65t-58.5 -20q-12 0 -21.5 0.5t-16.5 1.5v49h15.5h14.5q8 0 15.5 5t13.5 20.5t9.5 44.5t3.5 77zM28 90v450q0 14 -0.5 22t-2.5 12t-7.5 5t-14.5 1v50h116
v-50q-9 0 -14 -1t-7.5 -5t-3 -12t-0.5 -22v-450q0 -14 0.5 -22t3 -12t7.5 -5t14 -1v-50h-116v50q9 0 14.5 1t7.5 5t2.5 12t0.5 22z" />
    <glyph glyph-name="germandbls" unicode="&#xdf;" horiz-adv-x="243" 
d="M93 0h-90v49q14 0 18 6.5t4 29.5v459q0 44 9.5 73.5t30 44t52.5 14.5q36 0 56 -18.5t28.5 -53.5t8.5 -87q0 -49 -9.5 -79t-24 -45t-29.5 -19l8 32v-70l-8 28q30 -1 48 -21t26.5 -60t8.5 -102q0 -55 -4.5 -97t-17 -65.5t-38.5 -23.5q-25 0 -37 13.5t-16 43.5t-4 78v31.5
v29.5h23q-1 -13 -1 -28.5v-31.5q0 -45 3.5 -54.5t9.5 -9.5q4 0 6.5 8t4 38t1.5 95q0 50 -4.5 74t-12.5 31.5t-19 7.5h-6h-5v59h5.5h5.5q7 0 10.5 11t5.5 37t2 70q0 56 -3 82t-8 33.5t-13 7.5t-13.5 -5.5t-8.5 -22t-3 -48.5v-545z" />
    <glyph glyph-name="agrave" unicode="&#xe0;" horiz-adv-x="221" 
d="M118 96l9 -30q-2 -17 -9.5 -33t-20 -26.5t-30.5 -10.5q-23 0 -36 21t-18.5 61.5t-5.5 96.5q0 57 7.5 91t23 52t38.5 26q15 5 24 11t12.5 13t4.5 17.5t1 24.5l5 -61q-7 -8 -14 -15t-12.5 -15t-10 -19t-7.5 -27t-4.5 -38.5t-1.5 -54.5q0 -47 1.5 -75.5t6.5 -41t15 -12.5
q7 0 12 5.5t7.5 15.5t2.5 24zM13 448q0 33 10.5 56t30 34.5t45.5 11.5q33 0 51.5 -11t26.5 -35.5t8 -66.5v-47v-81.5t-0.5 -94.5t-0.5 -86.5v-57.5q0 -7 0.5 -11.5t2 -6.5t4.5 -2t5.5 5.5t4 23.5t1.5 56t-2 103h17q5 -77 4 -125t-6.5 -73.5t-15 -34.5t-23.5 -9t-23 6t-14 18
t-5 31h-16v397q0 26 -9 39t-27 13q-14 0 -27.5 -5t-25.5 -15l11 21l12 -36l-23 7q9 4 15.5 5.5t13.5 1.5q11 0 18.5 -4.5t11.5 -14.5t4 -26q0 -14 -3.5 -26t-11.5 -19t-23 -7q-20 0 -30.5 16t-10.5 50zM126 576l-81 98v26h79l21 -114z" />
    <glyph glyph-name="aacute" unicode="&#xe1;" horiz-adv-x="221" 
d="M118 96l9 -30q-2 -17 -9.5 -33t-20 -26.5t-30.5 -10.5q-23 0 -36 21t-18.5 61.5t-5.5 96.5q0 57 7.5 91t23 52t38.5 26q15 5 24 11t12.5 13t4.5 17.5t1 24.5l5 -61q-7 -8 -14 -15t-12.5 -15t-10 -19t-7.5 -27t-4.5 -38.5t-1.5 -54.5q0 -47 1.5 -75.5t6.5 -41t15 -12.5
q7 0 12 5.5t7.5 15.5t2.5 24zM13 448q0 33 10.5 56t30 34.5t45.5 11.5q33 0 51.5 -11t26.5 -35.5t8 -66.5v-47v-81.5t-0.5 -94.5t-0.5 -86.5v-57.5q0 -7 0.5 -11.5t2 -6.5t4.5 -2t5.5 5.5t4 23.5t1.5 56t-2 103h17q5 -77 4 -125t-6.5 -73.5t-15 -34.5t-23.5 -9t-23 6t-14 18
t-5 31h-16v397q0 26 -9 39t-27 13q-14 0 -27.5 -5t-25.5 -15l11 21l12 -36l-23 7q9 4 15.5 5.5t13.5 1.5q11 0 18.5 -4.5t11.5 -14.5t4 -26q0 -14 -3.5 -26t-11.5 -19t-23 -7q-20 0 -30.5 16t-10.5 50zM81 576l81 98v26h-79l-21 -114z" />
    <glyph glyph-name="acircumflex" unicode="&#xe2;" horiz-adv-x="221" 
d="M118 96l9 -30q-2 -17 -9.5 -33t-20 -26.5t-30.5 -10.5q-23 0 -36 21t-18.5 61.5t-5.5 96.5q0 57 7.5 91t23 52t38.5 26q15 5 24 11t12.5 13t4.5 17.5t1 24.5l5 -61q-7 -8 -14 -15t-12.5 -15t-10 -19t-7.5 -27t-4.5 -38.5t-1.5 -54.5q0 -47 1.5 -75.5t6.5 -41t15 -12.5
q7 0 12 5.5t7.5 15.5t2.5 24zM13 448q0 33 10.5 56t30 34.5t45.5 11.5q33 0 51.5 -11t26.5 -35.5t8 -66.5v-47v-81.5t-0.5 -94.5t-0.5 -86.5v-57.5q0 -7 0.5 -11.5t2 -6.5t4.5 -2t5.5 5.5t4 23.5t1.5 56t-2 103h17q5 -77 4 -125t-6.5 -73.5t-15 -34.5t-23.5 -9t-23 6t-14 18
t-5 31h-16v397q0 26 -9 39t-27 13q-14 0 -27.5 -5t-25.5 -15l11 21l12 -36l-23 7q9 4 15.5 5.5t13.5 1.5q11 0 18.5 -4.5t11.5 -14.5t4 -26q0 -14 -3.5 -26t-11.5 -19t-23 -7q-20 0 -30.5 16t-10.5 50zM112 710l68 -122l-10 -11l-72 53h13l-70 -53l-10 11l69 122h12z" />
    <glyph glyph-name="atilde" unicode="&#xe3;" horiz-adv-x="221" 
d="M118 96l9 -30q-2 -17 -9.5 -33t-20 -26.5t-30.5 -10.5q-23 0 -36 21t-18.5 61.5t-5.5 96.5q0 57 7.5 91t23 52t38.5 26q15 5 24 11t12.5 13t4.5 17.5t1 24.5l5 -61q-7 -8 -14 -15t-12.5 -15t-10 -19t-7.5 -27t-4.5 -38.5t-1.5 -54.5q0 -47 1.5 -75.5t6.5 -41t15 -12.5
q7 0 12 5.5t7.5 15.5t2.5 24zM13 448q0 33 10.5 56t30 34.5t45.5 11.5q33 0 51.5 -11t26.5 -35.5t8 -66.5v-47v-81.5t-0.5 -94.5t-0.5 -86.5v-57.5q0 -7 0.5 -11.5t2 -6.5t4.5 -2t5.5 5.5t4 23.5t1.5 56t-2 103h17q5 -77 4 -125t-6.5 -73.5t-15 -34.5t-23.5 -9t-23 6t-14 18
t-5 31h-16v397q0 26 -9 39t-27 13q-14 0 -27.5 -5t-25.5 -15l11 21l12 -36l-23 7q9 4 15.5 5.5t13.5 1.5q11 0 18.5 -4.5t11.5 -14.5t4 -26q0 -14 -3.5 -26t-11.5 -19t-23 -7q-20 0 -30.5 16t-10.5 50zM152 662v16.5t-1 16.5h17q1 -10 1 -16.5v-16.5q0 -47 -9.5 -64
t-25.5 -17q-14 0 -23.5 10t-15.5 23.5t-11.5 23.5t-12.5 10q-6 0 -9 -8t-3 -21v-15t1 -17h-17q-1 11 -1 18v14q0 47 10 64t29 17q14 0 23 -9.5t15 -22.5t11 -22.5t11 -9.5t8.5 7.5t2.5 18.5z" />
    <glyph glyph-name="adieresis" unicode="&#xe4;" horiz-adv-x="221" 
d="M118 96l9 -30q-2 -17 -9.5 -33t-20 -26.5t-30.5 -10.5q-23 0 -36 21t-18.5 61.5t-5.5 96.5q0 57 7.5 91t23 52t38.5 26q15 5 24 11t12.5 13t4.5 17.5t1 24.5l5 -61q-7 -8 -14 -15t-12.5 -15t-10 -19t-7.5 -27t-4.5 -38.5t-1.5 -54.5q0 -47 1.5 -75.5t6.5 -41t15 -12.5
q7 0 12 5.5t7.5 15.5t2.5 24zM13 448q0 33 10.5 56t30 34.5t45.5 11.5q33 0 51.5 -11t26.5 -35.5t8 -66.5v-47v-81.5t-0.5 -94.5t-0.5 -86.5v-57.5q0 -7 0.5 -11.5t2 -6.5t4.5 -2t5.5 5.5t4 23.5t1.5 56t-2 103h17q5 -77 4 -125t-6.5 -73.5t-15 -34.5t-23.5 -9t-23 6t-14 18
t-5 31h-16v397q0 26 -9 39t-27 13q-14 0 -27.5 -5t-25.5 -15l11 21l12 -36l-23 7q9 4 15.5 5.5t13.5 1.5q11 0 18.5 -4.5t11.5 -14.5t4 -26q0 -14 -3.5 -26t-11.5 -19t-23 -7q-20 0 -30.5 16t-10.5 50zM143 702q14 0 21.5 -15.5t7.5 -42.5q0 -26 -7.5 -41.5t-21.5 -15.5
q-13 0 -20.5 15.5t-7.5 41.5q0 28 7.5 43t20.5 15zM66 702q14 0 21.5 -15.5t7.5 -42.5q0 -26 -7.5 -41.5t-21.5 -15.5q-13 0 -20.5 15.5t-7.5 41.5q0 28 7.5 43t20.5 15z" />
    <glyph glyph-name="aring" unicode="&#xe5;" horiz-adv-x="221" 
d="M118 96l9 -30q-2 -17 -9.5 -33t-20 -26.5t-30.5 -10.5q-23 0 -36 21t-18.5 61.5t-5.5 96.5q0 57 7.5 91t23 52t38.5 26q15 5 24 11t12.5 13t4.5 17.5t1 24.5l5 -61q-7 -8 -14 -15t-12.5 -15t-10 -19t-7.5 -27t-4.5 -38.5t-1.5 -54.5q0 -47 1.5 -75.5t6.5 -41t15 -12.5
q7 0 12 5.5t7.5 15.5t2.5 24zM13 448q0 33 10.5 56t30 34.5t45.5 11.5q33 0 51.5 -11t26.5 -35.5t8 -66.5v-47v-81.5t-0.5 -94.5t-0.5 -86.5v-57.5q0 -7 0.5 -11.5t2 -6.5t4.5 -2t5.5 5.5t4 23.5t1.5 56t-2 103h17q5 -77 4 -125t-6.5 -73.5t-15 -34.5t-23.5 -9t-23 6t-14 18
t-5 31h-16v397q0 26 -9 39t-27 13q-14 0 -27.5 -5t-25.5 -15l11 21l12 -36l-23 7q9 4 15.5 5.5t13.5 1.5q11 0 18.5 -4.5t11.5 -14.5t4 -26q0 -14 -3.5 -26t-11.5 -19t-23 -7q-20 0 -30.5 16t-10.5 50zM171 651q0 -31 -19.5 -50.5t-48.5 -19.5q-28 0 -46 19.5t-18 50.5
t18 50t46 19q29 0 48.5 -19t19.5 -50zM63 651q0 -21 12 -33.5t28 -12.5q18 0 30.5 12.5t12.5 33.5q0 20 -12.5 32.5t-30.5 12.5q-16 0 -28 -12.5t-12 -32.5z" />
    <glyph glyph-name="ae" unicode="&#xe6;" horiz-adv-x="314" 
d="M118 100l9 -30q-3 -25 -10.5 -41.5t-19 -24.5t-27.5 -8q-24 0 -38 21t-19.5 61.5t-5.5 96.5q0 57 7.5 91t23 52t38.5 26q15 5 24 11t12.5 13t4.5 17.5t1 24.5l5 -61q-7 -8 -14 -15t-12.5 -15t-10 -19t-7.5 -27t-4.5 -38.5t-1.5 -54.5q0 -45 1.5 -72.5t6.5 -40t15 -12.5
q7 0 12 5.5t7.5 15.5t2.5 24zM151 68h-33v380q0 26 -9 39t-27 13q-14 0 -27.5 -5t-25.5 -15l11 21l12 -36l-23 7q9 4 15.5 5.5t13.5 1.5q11 0 18.5 -4.5t11.5 -14.5t4 -26q0 -14 -3.5 -26t-11.5 -19t-23 -7q-20 0 -30.5 16t-10.5 50q0 33 10 56t28 34.5t42 11.5
q27 0 42.5 -11t22 -37t6.5 -70l-14 1q4 42 12 68t23.5 38t41.5 12q32 0 48 -31.5t21.5 -85t5.5 -121.5v-26v-27h-74h-75v42h46h46l-2 -19q0 73 -2 117t-5.5 66t-9 29t-11.5 7q-7 0 -12.5 -7t-9 -29t-5 -65.5t-1.5 -116.5q0 -65 1.5 -109.5t5.5 -71t12 -38.5t20 -12
q15 0 22 16t9.5 51.5t2.5 93.5h42q0 -67 -6 -116.5t-23.5 -76.5t-52.5 -27q-18 0 -33 5.5t-27 19t-20 36.5t-13 59z" />
    <glyph glyph-name="ccedilla" unicode="&#xe7;" horiz-adv-x="195" 
d="M83 283q0 -78 2 -125.5t5.5 -72t10 -33t15.5 -8.5t14.5 9.5t8.5 31.5t4.5 59.5t2.5 94.5h40q0 -84 -6 -138t-23.5 -80t-51.5 -26q-25 0 -43 14t-28.5 46t-15.5 86.5t-5 135.5t6 134.5t18.5 83.5t31.5 42.5t45 12.5t43.5 -13t26 -38t8.5 -62t-10.5 -56t-30.5 -19
q-14 0 -22.5 7t-12 19t-3.5 26q0 15 4 26.5t11.5 18.5t17.5 7q6 0 12.5 -2.5t12.5 -11.5l-23 4l21 14l-2 -20q-7 28 -15 41.5t-22 13.5q-12 0 -21 -7t-14.5 -28.5t-8.5 -66t-3 -120.5zM78 -51l-17 -9q12 14 24.5 23t27.5 9q32 0 32 -42q0 -36 -24.5 -52t-70.5 -16v24
q29 8 41.5 18.5t12.5 23.5t-11 13q-4 0 -9 -3t-8 -8l-17 5l11 101l18 -2z" />
    <glyph glyph-name="egrave" unicode="&#xe8;" horiz-adv-x="209" 
d="M82 284q0 -65 1.5 -109.5t5.5 -71t12 -38.5t20 -12q15 0 22 16t9.5 51.5t2.5 93.5h42q0 -67 -6 -116.5t-23.5 -76.5t-52.5 -27q-26 0 -45.5 12t-32 42.5t-18.5 86t-6 142.5q0 74 4.5 126t15.5 85t30 48t47 15q38 0 56.5 -31.5t24.5 -85t6 -121.5v-26v-27h-74h-75v42h46
h46l-2 -19q0 73 -2 117t-5.5 66t-9 29t-11.5 7q-7 0 -12.5 -7t-9 -29t-5 -65.5t-1.5 -116.5zM132 576l-81 98v26h79l21 -114z" />
    <glyph glyph-name="eacute" unicode="&#xe9;" horiz-adv-x="209" 
d="M82 284q0 -65 1.5 -109.5t5.5 -71t12 -38.5t20 -12q15 0 22 16t9.5 51.5t2.5 93.5h42q0 -67 -6 -116.5t-23.5 -76.5t-52.5 -27q-26 0 -45.5 12t-32 42.5t-18.5 86t-6 142.5q0 74 4.5 126t15.5 85t30 48t47 15q38 0 56.5 -31.5t24.5 -85t6 -121.5v-26v-27h-74h-75v42h46
h46l-2 -19q0 73 -2 117t-5.5 66t-9 29t-11.5 7q-7 0 -12.5 -7t-9 -29t-5 -65.5t-1.5 -116.5zM87 576l81 98v26h-79l-21 -114z" />
    <glyph glyph-name="ecircumflex" unicode="&#xea;" horiz-adv-x="209" 
d="M82 284q0 -65 1.5 -109.5t5.5 -71t12 -38.5t20 -12q15 0 22 16t9.5 51.5t2.5 93.5h42q0 -67 -6 -116.5t-23.5 -76.5t-52.5 -27q-26 0 -45.5 12t-32 42.5t-18.5 86t-6 142.5q0 74 4.5 126t15.5 85t30 48t47 15q38 0 56.5 -31.5t24.5 -85t6 -121.5v-26v-27h-74h-75v42h46
h46l-2 -19q0 73 -2 117t-5.5 66t-9 29t-11.5 7q-7 0 -12.5 -7t-9 -29t-5 -65.5t-1.5 -116.5zM118 710l68 -122l-10 -11l-72 53h13l-70 -53l-10 11l69 122h12z" />
    <glyph glyph-name="edieresis" unicode="&#xeb;" horiz-adv-x="209" 
d="M82 284q0 -65 1.5 -109.5t5.5 -71t12 -38.5t20 -12q15 0 22 16t9.5 51.5t2.5 93.5h42q0 -67 -6 -116.5t-23.5 -76.5t-52.5 -27q-26 0 -45.5 12t-32 42.5t-18.5 86t-6 142.5q0 74 4.5 126t15.5 85t30 48t47 15q38 0 56.5 -31.5t24.5 -85t6 -121.5v-26v-27h-74h-75v42h46
h46l-2 -19q0 73 -2 117t-5.5 66t-9 29t-11.5 7q-7 0 -12.5 -7t-9 -29t-5 -65.5t-1.5 -116.5zM149 702q14 0 21.5 -15.5t7.5 -42.5q0 -26 -7.5 -41.5t-21.5 -15.5q-13 0 -20.5 15.5t-7.5 41.5q0 28 7.5 43t20.5 15zM72 702q14 0 21.5 -15.5t7.5 -42.5q0 -26 -7.5 -41.5
t-21.5 -15.5q-13 0 -20.5 15.5t-7.5 41.5q0 28 7.5 43t20.5 15z" />
    <glyph glyph-name="igrave" unicode="&#xec;" horiz-adv-x="116" 
d="M113 0h-110v49q14 0 18 5t4 15v397q0 16 -4 22.5t-18 6.5v50h88v-476q0 -10 4 -15t18 -5v-49zM63 576l-65 98v26h63l21 -114z" />
    <glyph glyph-name="iacute" unicode="&#xed;" horiz-adv-x="116" 
d="M113 0h-110v49q14 0 18 5t4 15v397q0 16 -4 22.5t-18 6.5v50h88v-476q0 -10 4 -15t18 -5v-49zM49 576l-19 10l21 114h63v-26z" />
    <glyph glyph-name="icircumflex" unicode="&#xee;" horiz-adv-x="116" 
d="M113 0h-110v49q14 0 18 5t4 15v397q0 16 -4 22.5t-18 6.5v50h88v-476q0 -10 4 -15t18 -5v-49zM65 710l48 -124l-12 -9l-50 53h13l-48 -53l-12 9l49 124h12z" />
    <glyph glyph-name="idieresis" unicode="&#xef;" horiz-adv-x="116" 
d="M113 0h-110v49q14 0 18 5t4 15v397q0 16 -4 22.5t-18 6.5v50h88v-476q0 -10 4 -15t18 -5v-49zM89 702q13 0 20 -15.5t7 -42.5q0 -26 -7 -41.5t-20 -15.5q-11 0 -18 15.5t-7 41.5q0 28 7 43t18 15zM27 702q12 0 19 -15.5t7 -42.5q0 -26 -7 -41.5t-19 -15.5t-19 15.5
t-7 41.5q0 28 7 43t19 15z" />
    <glyph glyph-name="eth" unicode="&#xf0;" horiz-adv-x="218" 
d="M134 261q0 71 -2.5 116.5t-7 71t-9 35.5t-9.5 10q-6 0 -10.5 -7.5t-7.5 -30.5t-4.5 -70t-1.5 -126q0 -88 3 -133.5t9 -61.5t14 -16q6 0 10.5 8.5t8 31t5.5 64.5t2 108zM32 679l7 32q33 -12 63 -40.5t53 -76.5t36.5 -119.5t13.5 -168.5q0 -77 -4.5 -135.5t-15 -97.5
t-29 -59t-47.5 -20q-38 0 -59 32t-28.5 92t-7.5 143q0 102 9.5 165.5t26.5 93t40 29.5q18 0 28.5 -21.5t14.5 -56.5l-15 40l30 18l-8 -61q-6 59 -23 100.5t-39.5 68.5t-45.5 42zM193 645q-24 -12 -50 -24.5t-52 -24.5t-51 -25l-14 34q23 8 49.5 19.5t53.5 25t51 27.5z" />
    <glyph glyph-name="ntilde" unicode="&#xf1;" 
d="M90 494l-6 -6q4 17 10.5 28.5t14.5 18.5t18 10.5t22 3.5q32 0 46.5 -23.5t14.5 -68.5v-378q0 -16 5 -23t16 -7v-49h-105v49q11 0 14 7t3 23v377q0 15 -2 24t-7 13t-14 4q-8 0 -15 -4.5t-10.5 -13.5t-3.5 -23v-377q0 -16 3.5 -23t14.5 -7v-49h-106v49q14 0 18 7t4 23v387
q0 17 -4 23.5t-17 6.5v49h72q0 -18 -0.5 -30.5t-0.5 -36.5l-15 16h30zM164 662v16.5t-1 16.5h17q1 -10 1 -16.5v-16.5q0 -47 -9.5 -64t-25.5 -17q-14 0 -23.5 10t-15.5 23.5t-11.5 23.5t-12.5 10q-6 0 -9 -8t-3 -21v-15t1 -17h-17q-1 11 -1 18v14q0 47 10 64t29 17
q14 0 23 -9.5t15 -22.5t11 -22.5t11 -9.5t8.5 7.5t2.5 18.5z" />
    <glyph glyph-name="ograve" unicode="&#xf2;" horiz-adv-x="219" 
d="M206 277q0 -80 -5.5 -134.5t-17 -87t-29.5 -47t-44 -14.5t-44.5 14t-30.5 46t-17 87t-5 136t5.5 134.5t17.5 84t30 43t44 12.5t44 -13t29.5 -44t17 -84t5.5 -133zM137 278q0 72 -2 115.5t-5.5 65.5t-8.5 29.5t-11 7.5q-7 0 -12 -7.5t-8.5 -29.5t-5.5 -65.5t-2 -115.5
t2 -117t5.5 -69.5t8.5 -33.5t12 -9q6 0 11 9.5t8.5 34t5.5 69.5t2 116zM131 576l-81 98v26h79l21 -114z" />
    <glyph glyph-name="oacute" unicode="&#xf3;" horiz-adv-x="219" 
d="M206 277q0 -80 -5.5 -134.5t-17 -87t-29.5 -47t-44 -14.5t-44.5 14t-30.5 46t-17 87t-5 136t5.5 134.5t17.5 84t30 43t44 12.5t44 -13t29.5 -44t17 -84t5.5 -133zM137 278q0 72 -2 115.5t-5.5 65.5t-8.5 29.5t-11 7.5q-7 0 -12 -7.5t-8.5 -29.5t-5.5 -65.5t-2 -115.5
t2 -117t5.5 -69.5t8.5 -33.5t12 -9q6 0 11 9.5t8.5 34t5.5 69.5t2 116zM85 576l81 98v26h-79l-21 -114z" />
    <glyph glyph-name="ocircumflex" unicode="&#xf4;" horiz-adv-x="219" 
d="M206 277q0 -80 -5.5 -134.5t-17 -87t-29.5 -47t-44 -14.5t-44.5 14t-30.5 46t-17 87t-5 136t5.5 134.5t17.5 84t30 43t44 12.5t44 -13t29.5 -44t17 -84t5.5 -133zM137 278q0 72 -2 115.5t-5.5 65.5t-8.5 29.5t-11 7.5q-7 0 -12 -7.5t-8.5 -29.5t-5.5 -65.5t-2 -115.5
t2 -117t5.5 -69.5t8.5 -33.5t12 -9q6 0 11 9.5t8.5 34t5.5 69.5t2 116zM116 710l68 -122l-10 -11l-72 53h13l-70 -53l-10 11l69 122h12z" />
    <glyph glyph-name="otilde" unicode="&#xf5;" horiz-adv-x="219" 
d="M206 277q0 -80 -5.5 -134.5t-17 -87t-29.5 -47t-44 -14.5t-44.5 14t-30.5 46t-17 87t-5 136t5.5 134.5t17.5 84t30 43t44 12.5t44 -13t29.5 -44t17 -84t5.5 -133zM137 278q0 72 -2 115.5t-5.5 65.5t-8.5 29.5t-11 7.5q-7 0 -12 -7.5t-8.5 -29.5t-5.5 -65.5t-2 -115.5
t2 -117t5.5 -69.5t8.5 -33.5t12 -9q6 0 11 9.5t8.5 34t5.5 69.5t2 116zM156 662v16.5t-1 16.5h17q1 -10 1 -16.5v-16.5q0 -47 -9.5 -64t-25.5 -17q-14 0 -23.5 10t-15.5 23.5t-11.5 23.5t-12.5 10q-6 0 -9 -8t-3 -21v-15t1 -17h-17q-1 11 -1 18v14q0 47 10 64t29 17
q14 0 23 -9.5t15 -22.5t11 -22.5t11 -9.5t8.5 7.5t2.5 18.5z" />
    <glyph glyph-name="odieresis" unicode="&#xf6;" horiz-adv-x="219" 
d="M206 277q0 -80 -5.5 -134.5t-17 -87t-29.5 -47t-44 -14.5t-44.5 14t-30.5 46t-17 87t-5 136t5.5 134.5t17.5 84t30 43t44 12.5t44 -13t29.5 -44t17 -84t5.5 -133zM137 278q0 72 -2 115.5t-5.5 65.5t-8.5 29.5t-11 7.5q-7 0 -12 -7.5t-8.5 -29.5t-5.5 -65.5t-2 -115.5
t2 -117t5.5 -69.5t8.5 -33.5t12 -9q6 0 11 9.5t8.5 34t5.5 69.5t2 116zM147 702q14 0 21.5 -15.5t7.5 -42.5q0 -26 -7.5 -41.5t-21.5 -15.5q-13 0 -20.5 15.5t-7.5 41.5q0 28 7.5 43t20.5 15zM70 702q14 0 21.5 -15.5t7.5 -42.5q0 -26 -7.5 -41.5t-21.5 -15.5
q-13 0 -20.5 15.5t-7.5 41.5q0 28 7.5 43t20.5 15z" />
    <glyph glyph-name="divide" unicode="&#xf7;" horiz-adv-x="189" 
d="M92 448q14 0 22.5 -8t8.5 -22t-7.5 -21.5t-23.5 -7.5q-15 0 -22 7.5t-7 21.5t8 22t21 8zM92 259q14 0 22.5 -7.5t8.5 -21.5q0 -13 -7.5 -21.5t-23.5 -8.5q-15 0 -22 8.5t-7 21.5q0 14 8 21.5t21 7.5zM95 302h-40t-45 -1v48q16 -1 38 -1h47h46t38 1v-48q-22 1 -43.5 1
h-40.5z" />
    <glyph glyph-name="oslash" unicode="&#xf8;" horiz-adv-x="219" 
d="M4 -1q4 11 10.5 31t14.5 44.5t14 48.5l18 6q8 33 18 70.5t20 77.5t20.5 79.5t20.5 76.5l9 7q11 33 22 64.5t15 48.5q5 -1 12.5 -3t13.5 -4q-6 -18 -17.5 -51.5t-24.5 -73.5l-16 -17q-9 -34 -19 -72.5t-20.5 -78t-20.5 -77.5t-18 -73l-19 -3q-8 -30 -17.5 -60.5
t-12.5 -46.5q-7 2 -12.5 3.5t-10.5 2.5zM206 277q0 -80 -5.5 -134.5t-17 -87t-29.5 -47t-44 -14.5t-44.5 14t-30.5 46t-17 87t-5 136t5.5 134.5t17.5 84t30 43t44 12.5t44 -13t29.5 -44t17 -84t5.5 -133zM141 278q0 72 -2 115.5t-6 65.5t-10 29.5t-13 7.5q-8 0 -14 -7.5
t-10 -29.5t-6 -65.5t-2 -115.5t2 -117t6 -69.5t10 -33.5t14 -9q7 0 13 9.5t10 34t6 69.5t2 116z" />
    <glyph glyph-name="ugrave" unicode="&#xf9;" 
d="M144 51l8 19q-3 -22 -9.5 -36.5t-15 -23t-19 -12t-23.5 -3.5q-31 0 -45.5 26.5t-14.5 75.5v369q0 20 -4 25t-18 5v49h90q-1 -26 -1.5 -53t-0.5 -53v-352q0 -14 2.5 -22.5t8 -12.5t13.5 -4q9 0 15.5 5.5t9.5 16t3 25.5v358q0 21 -1.5 30t-7.5 11t-21 2v49h99
q0 -19 -0.5 -38.5t-1 -38.5t-0.5 -39v-357q0 -13 4 -18t17 -5v-49h-72q0 14 0.5 30.5t0.5 40.5l6 -20h-22zM138 576l-81 98v26h79l21 -114z" />
    <glyph glyph-name="uacute" unicode="&#xfa;" 
d="M144 51l8 19q-3 -22 -9.5 -36.5t-15 -23t-19 -12t-23.5 -3.5q-31 0 -45.5 26.5t-14.5 75.5v369q0 20 -4 25t-18 5v49h90q-1 -26 -1.5 -53t-0.5 -53v-352q0 -14 2.5 -22.5t8 -12.5t13.5 -4q9 0 15.5 5.5t9.5 16t3 25.5v358q0 21 -1.5 30t-7.5 11t-21 2v49h99
q0 -19 -0.5 -38.5t-1 -38.5t-0.5 -39v-357q0 -13 4 -18t17 -5v-49h-72q0 14 0.5 30.5t0.5 40.5l6 -20h-22zM93 576l81 98v26h-79l-21 -114z" />
    <glyph glyph-name="ucircumflex" unicode="&#xfb;" 
d="M144 51l8 19q-3 -22 -9.5 -36.5t-15 -23t-19 -12t-23.5 -3.5q-31 0 -45.5 26.5t-14.5 75.5v369q0 20 -4 25t-18 5v49h90q-1 -26 -1.5 -53t-0.5 -53v-352q0 -14 2.5 -22.5t8 -12.5t13.5 -4q9 0 15.5 5.5t9.5 16t3 25.5v358q0 21 -1.5 30t-7.5 11t-21 2v49h99
q0 -19 -0.5 -38.5t-1 -38.5t-0.5 -39v-357q0 -13 4 -18t17 -5v-49h-72q0 14 0.5 30.5t0.5 40.5l6 -20h-22zM124 710l68 -122l-10 -11l-72 53h13l-70 -53l-10 11l69 122h12z" />
    <glyph glyph-name="udieresis" unicode="&#xfc;" 
d="M144 51l8 19q-3 -22 -9.5 -36.5t-15 -23t-19 -12t-23.5 -3.5q-31 0 -45.5 26.5t-14.5 75.5v369q0 20 -4 25t-18 5v49h90q-1 -26 -1.5 -53t-0.5 -53v-352q0 -14 2.5 -22.5t8 -12.5t13.5 -4q9 0 15.5 5.5t9.5 16t3 25.5v358q0 21 -1.5 30t-7.5 11t-21 2v49h99
q0 -19 -0.5 -38.5t-1 -38.5t-0.5 -39v-357q0 -13 4 -18t17 -5v-49h-72q0 14 0.5 30.5t0.5 40.5l6 -20h-22zM155 702q14 0 21.5 -15.5t7.5 -42.5q0 -26 -7.5 -41.5t-21.5 -15.5q-13 0 -20.5 15.5t-7.5 41.5q0 28 7.5 43t20.5 15zM78 702q14 0 21.5 -15.5t7.5 -42.5
q0 -26 -7.5 -41.5t-21.5 -15.5q-13 0 -20.5 15.5t-7.5 41.5q0 28 7.5 43t20.5 15z" />
    <glyph glyph-name="yacute" unicode="&#xfd;" horiz-adv-x="206" 
d="M47 -86q36 1 51 21.5t15 55.5q0 17 -6.5 23t-17.5 6h-35l-36 400q-3 32 -5.5 48t-5 21.5t-7.5 6.5v49h96v-49q-10 -3 -12.5 -11t-0.5 -37l30 -402l-12 29h35l-14 -30q6 110 9.5 185.5t4 124t-1.5 77t-6.5 42.5t-12.5 21v50h91v-50q-7 -9 -11 -25t-7.5 -48t-7.5 -86.5
t-10 -138t-15 -204.5q-4 -60 -26 -85.5t-58 -25.5q-39 0 -54 20.5t-15 45.5q0 23 11 37.5t33 14.5q20 0 28.5 -9.5t8.5 -26.5q0 -18 -12.5 -28.5t-31.5 -8.5l14 19l2 -38zM86 576l81 98v26h-79l-21 -114z" />
    <glyph glyph-name="thorn" unicode="&#xfe;" horiz-adv-x="222" 
d="M79 436l-10 58h27l-19 -46q5 26 11.5 45t15.5 31.5t19.5 18.5t22.5 6q18 0 30 -10.5t19 -39t10.5 -82.5t3.5 -140t-5 -140.5t-14.5 -84t-23 -41t-31.5 -11.5q-19 0 -33.5 14t-22.5 27l1 31q7 -12 15 -18t20 -6q8 0 13.5 13t8.5 41t4.5 71.5t1.5 104.5q0 75 -1 119.5
t-4 65.5t-7.5 27.5t-11.5 6.5q-8 0 -14.5 -14.5t-10 -59t-3.5 -135.5v-320q0 -16 7 -23t30 -7v-50h-125v50q14 0 18 7t4 23v621q0 17 -4 23.5t-18 6.5v49q23 1 45.5 2t44.5 2q0 -52 -3 -90.5t-6 -72.5t-5 -73z" />
    <glyph glyph-name="ydieresis" unicode="&#xff;" horiz-adv-x="206" 
d="M47 -86q36 1 51 21.5t15 55.5q0 17 -6.5 23t-17.5 6h-35l-36 400q-3 32 -5.5 48t-5 21.5t-7.5 6.5v49h96v-49q-10 -3 -12.5 -11t-0.5 -37l30 -402l-12 29h35l-14 -30q6 110 9.5 185.5t4 124t-1.5 77t-6.5 42.5t-12.5 21v50h91v-50q-7 -9 -11 -25t-7.5 -48t-7.5 -86.5
t-10 -138t-15 -204.5q-4 -60 -26 -85.5t-58 -25.5q-39 0 -54 20.5t-15 45.5q0 23 11 37.5t33 14.5q20 0 28.5 -9.5t8.5 -26.5q0 -18 -12.5 -28.5t-31.5 -8.5l14 19l2 -38zM148 702q14 0 21.5 -15.5t7.5 -42.5q0 -26 -7.5 -41.5t-21.5 -15.5q-13 0 -20.5 15.5t-7.5 41.5
q0 28 7.5 43t20.5 15zM71 702q14 0 21.5 -15.5t7.5 -42.5q0 -26 -7.5 -41.5t-21.5 -15.5q-13 0 -20.5 15.5t-7.5 41.5q0 28 7.5 43t20.5 15z" />
    <glyph glyph-name="Amacron" unicode="&#x100;" horiz-adv-x="256" 
d="M0 50q7 3 13.5 26.5t12.5 61.5t11 84.5t9.5 95.5t7.5 94t4.5 81.5t1.5 56.5q0 18 -6 24t-23 6v50h152q1 -16 4.5 -58t9 -99.5t12 -122t12.5 -128t11 -115.5q2 -18 5 -29.5t8 -17.5t11 -10v-50h-124v50q20 0 29 14.5t7 42.5l-42 495l25 -31h-46l14 31
q-11 -152 -18.5 -250.5t-11 -156.5t-3.5 -90q0 -16 3.5 -26t11 -16.5t18.5 -12.5v-50h-119v50zM58 219v48q15 -1 30.5 -1h30.5h26.5t25.5 1v-48q-13 1 -25.5 1h-26.5h-30.5t-30.5 -1zM123 678h-19h-22t-19 -1v65q8 0 18.5 -1t22 -1.5t19.5 -0.5t19 0.5t21.5 1.5t18.5 1v-65
q-8 1 -18.5 1h-21.5h-19z" />
    <glyph glyph-name="amacron" unicode="&#x101;" horiz-adv-x="221" 
d="M118 96l9 -30q-2 -17 -9.5 -33t-20 -26.5t-30.5 -10.5q-23 0 -36 21t-18.5 61.5t-5.5 96.5q0 57 7.5 91t23 52t38.5 26q15 5 24 11t12.5 13t4.5 17.5t1 24.5l5 -61q-7 -8 -14 -15t-12.5 -15t-10 -19t-7.5 -27t-4.5 -38.5t-1.5 -54.5q0 -47 1.5 -75.5t6.5 -41t15 -12.5
q7 0 12 5.5t7.5 15.5t2.5 24zM13 448q0 33 10.5 56t30 34.5t45.5 11.5q33 0 51.5 -11t26.5 -35.5t8 -66.5v-47v-81.5t-0.5 -94.5t-0.5 -86.5v-57.5q0 -7 0.5 -11.5t2 -6.5t4.5 -2t5.5 5.5t4 23.5t1.5 56t-2 103h17q5 -77 4 -125t-6.5 -73.5t-15 -34.5t-23.5 -9t-23 6t-14 18
t-5 31h-16v397q0 26 -9 39t-27 13q-14 0 -27.5 -5t-25.5 -15l11 21l12 -36l-23 7q9 4 15.5 5.5t13.5 1.5q11 0 18.5 -4.5t11.5 -14.5t4 -26q0 -14 -3.5 -26t-11.5 -19t-23 -7q-20 0 -30.5 16t-10.5 50zM106 597h-19h-22t-19 -1v65q8 0 18.5 -1t22 -1.5t19.5 -0.5t19 0.5
t21.5 1.5t18.5 1v-65q-8 1 -18.5 1h-21.5h-19z" />
    <glyph glyph-name="Abreve" unicode="&#x102;" horiz-adv-x="256" 
d="M0 50q7 3 13.5 26.5t12.5 61.5t11 84.5t9.5 95.5t7.5 94t4.5 81.5t1.5 56.5q0 18 -6 24t-23 6v50h152q1 -16 4.5 -58t9 -99.5t12 -122t12.5 -128t11 -115.5q2 -18 5 -29.5t8 -17.5t11 -10v-50h-124v50q20 0 29 14.5t7 42.5l-42 495l25 -31h-46l14 31
q-11 -152 -18.5 -250.5t-11 -156.5t-3.5 -90q0 -16 3.5 -26t11 -16.5t18.5 -12.5v-50h-119v50zM58 219v48q15 -1 30.5 -1h30.5h26.5t25.5 1v-48q-13 1 -25.5 1h-26.5h-30.5t-30.5 -1zM122 738q18 0 27 4t11.5 11.5t2.5 18.5v5.5v3.5h19q0 -44 -7.5 -68.5t-20.5 -33.5t-32 -9
t-32.5 9t-20.5 33.5t-7 68.5h19q-1 -2 -1 -3.5v-5.5q0 -11 3 -18.5t12 -11.5t27 -4z" />
    <glyph glyph-name="abreve" unicode="&#x103;" horiz-adv-x="221" 
d="M118 96l9 -30q-2 -17 -9.5 -33t-20 -26.5t-30.5 -10.5q-23 0 -36 21t-18.5 61.5t-5.5 96.5q0 57 7.5 91t23 52t38.5 26q15 5 24 11t12.5 13t4.5 17.5t1 24.5l5 -61q-7 -8 -14 -15t-12.5 -15t-10 -19t-7.5 -27t-4.5 -38.5t-1.5 -54.5q0 -47 1.5 -75.5t6.5 -41t15 -12.5
q7 0 12 5.5t7.5 15.5t2.5 24zM13 448q0 33 10.5 56t30 34.5t45.5 11.5q33 0 51.5 -11t26.5 -35.5t8 -66.5v-47v-81.5t-0.5 -94.5t-0.5 -86.5v-57.5q0 -7 0.5 -11.5t2 -6.5t4.5 -2t5.5 5.5t4 23.5t1.5 56t-2 103h17q5 -77 4 -125t-6.5 -73.5t-15 -34.5t-23.5 -9t-23 6t-14 18
t-5 31h-16v397q0 26 -9 39t-27 13q-14 0 -27.5 -5t-25.5 -15l11 21l12 -36l-23 7q9 4 15.5 5.5t13.5 1.5q11 0 18.5 -4.5t11.5 -14.5t4 -26q0 -14 -3.5 -26t-11.5 -19t-23 -7q-20 0 -30.5 16t-10.5 50zM105 657q18 0 27 4t11.5 11.5t2.5 18.5v5.5v3.5h19q0 -44 -7.5 -68.5
t-20.5 -33.5t-32 -9t-32.5 9t-20.5 33.5t-7 68.5h19q-1 -2 -1 -3.5v-5.5q0 -11 3 -18.5t12 -11.5t27 -4z" />
    <glyph glyph-name="Aogonek" unicode="&#x104;" horiz-adv-x="256" 
d="M0 50q7 3 13.5 26.5t12.5 61.5t11 84.5t9.5 95.5t7.5 94t4.5 81.5t1.5 56.5q0 18 -6 24t-23 6v50h152q1 -16 4.5 -58t9 -99.5t12 -122t12.5 -128t11 -115.5q2 -18 5 -29.5t8 -17.5t11 -10v-50h-124v50q20 0 29 14.5t7 42.5l-42 495l25 -31h-46l14 31
q-11 -152 -18.5 -250.5t-11 -156.5t-3.5 -90q0 -16 3.5 -26t11 -16.5t18.5 -12.5v-50h-119v50zM58 219v48q15 -1 30.5 -1h30.5h26.5t25.5 1v-48q-13 1 -25.5 1h-26.5h-30.5t-30.5 -1zM242 -59l15 -4q-1 -24 -6 -41t-15 -26t-27 -9q-41 0 -41 54q0 27 12.5 46t31.5 30.5
t40 14.5l2 -6q-24 -6 -38 -22.5t-14 -39.5q0 -24 16 -24q10 0 15 6.5t9 20.5z" />
    <glyph glyph-name="aogonek" unicode="&#x105;" horiz-adv-x="221" 
d="M118 96l9 -30q-2 -16 -9.5 -32.5t-20 -27t-30.5 -10.5q-23 0 -36 21t-18.5 61.5t-5.5 96.5q0 57 7.5 91t23 52t38.5 26q15 5 24 11t12.5 13t4.5 17.5t1 24.5l5 -61q-7 -8 -14 -15t-12.5 -15t-10 -19t-7.5 -27t-4.5 -38.5t-1.5 -54.5q0 -47 1.5 -75.5t6.5 -41t15 -12.5
q7 0 12 5.5t7.5 15.5t2.5 24zM222 -63q-1 -24 -6 -41t-15 -26t-27 -9q-20 0 -30.5 12.5t-10.5 31.5q0 20 7 34.5t17 26t20.5 23t17.5 26.5l-10 -28l-10 14l22 3q-6 -5 -10.5 -6.5t-10.5 -1.5q-14 0 -23 6t-13.5 18.5t-5.5 30.5h-16v397q0 26 -9 39t-27 13q-14 0 -27.5 -5
t-25.5 -15l11 21l12 -36l-23 7q9 4 15.5 5.5t13.5 1.5q11 0 18.5 -4.5t11.5 -14.5t4 -26q0 -14 -3.5 -26t-11.5 -19t-23 -7q-20 0 -30.5 16t-10.5 50q0 33 10.5 56t30 34.5t45.5 11.5q33 0 51.5 -11t26.5 -35.5t8 -66.5v-47v-81.5t-0.5 -94.5t-0.5 -86.5v-57.5
q0 -10 1.5 -15t5.5 -5q3 0 5.5 5t4 21.5t1.5 50.5q0 20 -0.5 47.5t-1.5 63.5h17q2 -31 3 -56.5t1 -47.5q0 -48 -5.5 -78.5t-13.5 -49t-16 -29.5t-13.5 -20.5t-5.5 -22.5q0 -8 4 -14t12 -6q10 0 15 7t9 20z" />
    <glyph glyph-name="Cacute" unicode="&#x106;" horiz-adv-x="215" 
d="M151 630h48v-136.5v-136.5h-49q-7 74 -13 118.5t-10.5 67t-9 30t-10.5 7.5q-5 0 -9.5 -8.5t-8 -35t-5.5 -79t-2 -140.5q0 -90 3 -143.5t8 -80t11.5 -35t14.5 -8.5q9 0 15 8.5t9.5 32.5t5 70t1.5 120h49q0 -78 -2.5 -132.5t-11 -88.5t-25.5 -49.5t-46 -15.5t-48.5 15
t-31.5 50.5t-17 98t-5 158.5t4 158t12.5 97t22.5 49t35 14q18 0 27 -10t14 -20.5t12 -10.5t9.5 7.5t2.5 28.5zM94 662l81 98v26h-79l-21 -114z" />
    <glyph glyph-name="cacute" unicode="&#x107;" horiz-adv-x="195" 
d="M83 283q0 -78 2 -125.5t5.5 -72t10 -33t15.5 -8.5t14.5 9.5t8.5 31.5t4.5 59.5t2.5 94.5h40q0 -84 -6 -138t-23.5 -80t-51.5 -26q-25 0 -43 14t-28.5 46t-15.5 86.5t-5 135.5t6 134.5t18.5 83.5t31.5 42.5t45 12.5t43.5 -13t26 -38t8.5 -62t-10.5 -56t-30.5 -19
q-14 0 -22.5 7t-12 19t-3.5 26q0 15 4 26.5t11.5 18.5t17.5 7q6 0 12.5 -2.5t12.5 -11.5l-23 4l21 14l-2 -20q-7 28 -15 41.5t-22 13.5q-12 0 -21 -7t-14.5 -28.5t-8.5 -66t-3 -120.5zM76 576l81 98v26h-79l-21 -114z" />
    <glyph glyph-name="Ccircumflex" unicode="&#x108;" horiz-adv-x="215" 
d="M151 630h48v-136.5v-136.5h-49q-7 74 -13 118.5t-10.5 67t-9 30t-10.5 7.5q-5 0 -9.5 -8.5t-8 -35t-5.5 -79t-2 -140.5q0 -90 3 -143.5t8 -80t11.5 -35t14.5 -8.5q9 0 15 8.5t9.5 32.5t5 70t1.5 120h49q0 -78 -2.5 -132.5t-11 -88.5t-25.5 -49.5t-46 -15.5t-48.5 15
t-31.5 50.5t-17 98t-5 158.5t4 158t12.5 97t22.5 49t35 14q18 0 27 -10t14 -20.5t12 -10.5t9.5 7.5t2.5 28.5zM125 796l68 -122l-10 -11l-72 53h13l-70 -53l-10 11l69 122h12z" />
    <glyph glyph-name="ccircumflex" unicode="&#x109;" horiz-adv-x="195" 
d="M83 283q0 -78 2 -125.5t5.5 -72t10 -33t15.5 -8.5t14.5 9.5t8.5 31.5t4.5 59.5t2.5 94.5h40q0 -84 -6 -138t-23.5 -80t-51.5 -26q-25 0 -43 14t-28.5 46t-15.5 86.5t-5 135.5t6 134.5t18.5 83.5t31.5 42.5t45 12.5t43.5 -13t26 -38t8.5 -62t-10.5 -56t-30.5 -19
q-14 0 -22.5 7t-12 19t-3.5 26q0 15 4 26.5t11.5 18.5t17.5 7q6 0 12.5 -2.5t12.5 -11.5l-23 4l21 14l-2 -20q-7 28 -15 41.5t-22 13.5q-12 0 -21 -7t-14.5 -28.5t-8.5 -66t-3 -120.5zM107 710l68 -122l-10 -11l-72 53h13l-70 -53l-10 11l69 122h12z" />
    <glyph glyph-name="Cdotaccent" unicode="&#x10a;" horiz-adv-x="215" 
d="M151 630h48v-136.5v-136.5h-49q-7 74 -13 118.5t-10.5 67t-9 30t-10.5 7.5q-5 0 -9.5 -8.5t-8 -35t-5.5 -79t-2 -140.5q0 -90 3 -143.5t8 -80t11.5 -35t14.5 -8.5q9 0 15 8.5t9.5 32.5t5 70t1.5 120h49q0 -78 -2.5 -132.5t-11 -88.5t-25.5 -49.5t-46 -15.5t-48.5 15
t-31.5 50.5t-17 98t-5 158.5t4 158t12.5 97t22.5 49t35 14q18 0 27 -10t14 -20.5t12 -10.5t9.5 7.5t2.5 28.5zM118 788q14 0 21.5 -15.5t7.5 -42.5q0 -26 -7.5 -41.5t-21.5 -15.5q-13 0 -20.5 15.5t-7.5 41.5q0 28 7.5 43t20.5 15z" />
    <glyph glyph-name="cdotaccent" unicode="&#x10b;" horiz-adv-x="195" 
d="M83 283q0 -78 2 -125.5t5.5 -72t10 -33t15.5 -8.5t14.5 9.5t8.5 31.5t4.5 59.5t2.5 94.5h40q0 -84 -6 -138t-23.5 -80t-51.5 -26q-25 0 -43 14t-28.5 46t-15.5 86.5t-5 135.5t6 134.5t18.5 83.5t31.5 42.5t45 12.5t43.5 -13t26 -38t8.5 -62t-10.5 -56t-30.5 -19
q-14 0 -22.5 7t-12 19t-3.5 26q0 15 4 26.5t11.5 18.5t17.5 7q6 0 12.5 -2.5t12.5 -11.5l-23 4l21 14l-2 -20q-7 28 -15 41.5t-22 13.5q-12 0 -21 -7t-14.5 -28.5t-8.5 -66t-3 -120.5zM100 702q14 0 21.5 -15.5t7.5 -42.5q0 -26 -7.5 -41.5t-21.5 -15.5q-13 0 -20.5 15.5
t-7.5 41.5q0 28 7.5 43t20.5 15z" />
    <glyph glyph-name="Ccaron" unicode="&#x10c;" horiz-adv-x="215" 
d="M151 630h48v-136.5v-136.5h-49q-7 74 -13 118.5t-10.5 67t-9 30t-10.5 7.5q-5 0 -9.5 -8.5t-8 -35t-5.5 -79t-2 -140.5q0 -90 3 -143.5t8 -80t11.5 -35t14.5 -8.5q9 0 15 8.5t9.5 32.5t5 70t1.5 120h49q0 -78 -2.5 -132.5t-11 -88.5t-25.5 -49.5t-46 -15.5t-48.5 15
t-31.5 50.5t-17 98t-5 158.5t4 158t12.5 97t22.5 49t35 14q18 0 27 -10t14 -20.5t12 -10.5t9.5 7.5t2.5 28.5zM112 662l-68 122l10 11l72 -53h-13l70 53l10 -11l-69 -122h-12z" />
    <glyph glyph-name="ccaron" unicode="&#x10d;" horiz-adv-x="195" 
d="M83 283q0 -78 2 -125.5t5.5 -72t10 -33t15.5 -8.5t14.5 9.5t8.5 31.5t4.5 59.5t2.5 94.5h40q0 -84 -6 -138t-23.5 -80t-51.5 -26q-25 0 -43 14t-28.5 46t-15.5 86.5t-5 135.5t6 134.5t18.5 83.5t31.5 42.5t45 12.5t43.5 -13t26 -38t8.5 -62t-10.5 -56t-30.5 -19
q-14 0 -22.5 7t-12 19t-3.5 26q0 15 4 26.5t11.5 18.5t17.5 7q6 0 12.5 -2.5t12.5 -11.5l-23 4l21 14l-2 -20q-7 28 -15 41.5t-22 13.5q-12 0 -21 -7t-14.5 -28.5t-8.5 -66t-3 -120.5zM94 576l-68 122l10 11l72 -53h-13l70 53l10 -11l-69 -122h-12z" />
    <glyph glyph-name="Dcaron" unicode="&#x10e;" horiz-adv-x="237" 
d="M85 50h29q9 0 17 9t14.5 34t10.5 73.5t4 128.5q1 91 -1.5 147t-8 86t-15 41t-23.5 11h-27l10 4v-543zM123 0h-120v50q10 0 15 1t7 5t2.5 12t0.5 22v450q0 14 -0.5 22t-2.5 12t-7 5t-15 1v50h113q30 0 51 -15t34 -50.5t19 -96.5t6 -154q-1 -93 -6.5 -153.5t-17.5 -96
t-31.5 -50t-47.5 -14.5zM108 657l-68 122l10 11l72 -53h-13l70 53l10 -11l-69 -122h-12z" />
    <glyph glyph-name="dcaron" unicode="&#x10f;" horiz-adv-x="263" 
d="M142 63q-2 -11 -7 -22.5t-13.5 -21.5t-19.5 -16.5t-23 -6.5q-24 0 -38.5 23t-21 82.5t-6.5 170.5t10 170t29 81t46 22q11 0 19.5 -2.5t15.5 -6.5t13 -9l6 -53q-7 12 -17.5 19.5t-20.5 7.5q-9 0 -16 -5.5t-11 -26.5t-6 -67t-2 -128q0 -64 1.5 -107t4.5 -69t8.5 -37
t13.5 -11q7 0 12 5.5t8.5 16t3.5 25.5v493q0 19 -6 24t-30 5v49q17 1 34 1.5l34 1t34 0.5v-601q0 -11 4.5 -15.5t18.5 -4.5v-50h-73v32v32l6 -13h-27zM223 420l-17 11q10 22 15 39t7.5 31.5t2.5 29.5q0 19 -4 34t-9.5 27.5t-9.5 24.5t-4 25q0 16 6.5 24t16.5 8
q17 0 24 -21.5t7 -74.5q0 -41 -5.5 -72t-13.5 -52t-16 -34z" />
    <glyph glyph-name="Dcroat" unicode="&#x110;" horiz-adv-x="245" 
d="M75 294h-35h-35v48q17 -1 35.5 -1h34.5h36.5t34.5 1v-48h-35h-36zM93 50h29q9 0 17 9t14.5 34t10.5 73.5t4 128.5q1 91 -1.5 147t-8 86t-15 41t-23.5 11h-27l10 4v-543zM131 0h-120v50q10 0 15 1t7 5t2.5 12t0.5 22v450q0 14 -0.5 22t-2.5 12t-7 5t-15 1v50h113
q30 0 51 -15t34 -50.5t19 -96.5t6 -154q-1 -93 -6.5 -153.5t-17.5 -96t-31.5 -50t-47.5 -14.5z" />
    <glyph glyph-name="dcroat" unicode="&#x111;" horiz-adv-x="224" 
d="M157 543h-35h-35v38q17 -1 35.5 -1h34.5h36.5t34.5 1v-38h-35h-36zM81 -4q-24 0 -39 22.5t-22 81t-7 167.5q0 99 9.5 151.5t28 72t43.5 19.5q12 0 21 -2t17 -6t14 -10l6 -53q-7 13 -19 20t-23 7q-8 0 -14 -4.5t-9.5 -23t-5.5 -58.5t-2 -111t1.5 -114.5t5 -66t9.5 -30.5
t14 -8q6 0 11 5.5t8 16t3 25.5v493q0 19 -6 24t-30 5v49q17 1 34 1.5l34 1t34 0.5v-601q0 -11 4.5 -15.5t18.5 -4.5v-50h-73v32v32l6 -13h-27l16 12q-1 -11 -6.5 -22.5t-14 -21.5t-19 -16.5t-21.5 -6.5z" />
    <glyph glyph-name="Emacron" unicode="&#x112;" horiz-adv-x="241" 
d="M226 0h-223v50q10 0 15 1t7 3.5t2.5 9t0.5 16.5v470q0 11 -0.5 17t-2.5 8.5t-7 3.5t-15 1v50h220v-116.5v-117.5h-40q0 63 -3 100t-12 55t-27 23.5t-49 5.5l2 4v-536l-1 2q30 0 47.5 5.5t26.5 25.5t13 62.5t6 116.5h40v-130v-130zM92 303v42q16 1 23 10t9.5 32t2.5 67h34
q-1 -34 -1 -67.5v-63.5q0 -28 0.5 -61.5t1.5 -66.5h-35q-1 44 -2.5 67t-8.5 31.5t-24 9.5zM124 678h-19h-22t-19 -1v65q8 0 18.5 -1t22 -1.5t19.5 -0.5t19 0.5t21.5 1.5t18.5 1v-65q-8 1 -18.5 1h-21.5h-19z" />
    <glyph glyph-name="emacron" unicode="&#x113;" horiz-adv-x="209" 
d="M82 284q0 -65 1.5 -109.5t5.5 -71t12 -38.5t20 -12q15 0 22 16t9.5 51.5t2.5 93.5h42q0 -67 -6 -116.5t-23.5 -76.5t-52.5 -27q-26 0 -45.5 12t-32 42.5t-18.5 86t-6 142.5q0 74 4.5 126t15.5 85t30 48t47 15q38 0 56.5 -31.5t24.5 -85t6 -121.5v-26v-27h-74h-75v42h46
h46l-2 -19q0 73 -2 117t-5.5 66t-9 29t-11.5 7q-7 0 -12.5 -7t-9 -29t-5 -65.5t-1.5 -116.5zM112 597h-19h-22t-19 -1v65q8 0 18.5 -1t22 -1.5t19.5 -0.5t19 0.5t21.5 1.5t18.5 1v-65q-8 1 -18.5 1h-21.5h-19z" />
    <glyph glyph-name="Ebreve" unicode="&#x114;" horiz-adv-x="241" 
d="M226 0h-223v50q10 0 15 1t7 3.5t2.5 9t0.5 16.5v470q0 11 -0.5 17t-2.5 8.5t-7 3.5t-15 1v50h220v-116.5v-117.5h-40q0 63 -3 100t-12 55t-27 23.5t-49 5.5l2 4v-536l-1 2q30 0 47.5 5.5t26.5 25.5t13 62.5t6 116.5h40v-130v-130zM92 303v42q16 1 23 10t9.5 32t2.5 67h34
q-1 -34 -1 -67.5v-63.5q0 -28 0.5 -61.5t1.5 -66.5h-35q-1 44 -2.5 67t-8.5 31.5t-24 9.5zM123 738q18 0 27 4t11.5 11.5t2.5 18.5v5.5v3.5h19q0 -44 -7.5 -68.5t-20.5 -33.5t-32 -9t-32.5 9t-20.5 33.5t-7 68.5h19q-1 -2 -1 -3.5v-5.5q0 -11 3 -18.5t12 -11.5t27 -4z" />
    <glyph glyph-name="ebreve" unicode="&#x115;" horiz-adv-x="209" 
d="M82 284q0 -65 1.5 -109.5t5.5 -71t12 -38.5t20 -12q15 0 22 16t9.5 51.5t2.5 93.5h42q0 -67 -6 -116.5t-23.5 -76.5t-52.5 -27q-26 0 -45.5 12t-32 42.5t-18.5 86t-6 142.5q0 74 4.5 126t15.5 85t30 48t47 15q38 0 56.5 -31.5t24.5 -85t6 -121.5v-26v-27h-74h-75v42h46
h46l-2 -19q0 73 -2 117t-5.5 66t-9 29t-11.5 7q-7 0 -12.5 -7t-9 -29t-5 -65.5t-1.5 -116.5zM111 657q18 0 27 4t11.5 11.5t2.5 18.5v5.5v3.5h19q0 -44 -7.5 -68.5t-20.5 -33.5t-32 -9t-32.5 9t-20.5 33.5t-7 68.5h19q-1 -2 -1 -3.5v-5.5q0 -11 3 -18.5t12 -11.5t27 -4z" />
    <glyph glyph-name="Edotaccent" unicode="&#x116;" horiz-adv-x="241" 
d="M226 0h-223v50q10 0 15 1t7 3.5t2.5 9t0.5 16.5v470q0 11 -0.5 17t-2.5 8.5t-7 3.5t-15 1v50h220v-116.5v-117.5h-40q0 63 -3 100t-12 55t-27 23.5t-49 5.5l2 4v-536l-1 2q30 0 47.5 5.5t26.5 25.5t13 62.5t6 116.5h40v-130v-130zM92 303v42q16 1 23 10t9.5 32t2.5 67h34
q-1 -34 -1 -67.5v-63.5q0 -28 0.5 -61.5t1.5 -66.5h-35q-1 44 -2.5 67t-8.5 31.5t-24 9.5zM123 783q14 0 21.5 -15.5t7.5 -42.5q0 -26 -7.5 -41.5t-21.5 -15.5q-13 0 -20.5 15.5t-7.5 41.5q0 28 7.5 43t20.5 15z" />
    <glyph glyph-name="edotaccent" unicode="&#x117;" horiz-adv-x="209" 
d="M82 284q0 -65 1.5 -109.5t5.5 -71t12 -38.5t20 -12q15 0 22 16t9.5 51.5t2.5 93.5h42q0 -67 -6 -116.5t-23.5 -76.5t-52.5 -27q-26 0 -45.5 12t-32 42.5t-18.5 86t-6 142.5q0 74 4.5 126t15.5 85t30 48t47 15q38 0 56.5 -31.5t24.5 -85t6 -121.5v-26v-27h-74h-75v42h46
h46l-2 -19q0 73 -2 117t-5.5 66t-9 29t-11.5 7q-7 0 -12.5 -7t-9 -29t-5 -65.5t-1.5 -116.5zM111 702q14 0 21.5 -15.5t7.5 -42.5q0 -26 -7.5 -41.5t-21.5 -15.5q-13 0 -20.5 15.5t-7.5 41.5q0 28 7.5 43t20.5 15z" />
    <glyph glyph-name="Eogonek" unicode="&#x118;" horiz-adv-x="241" 
d="M226 0h-223v50q10 0 15 1t7 3.5t2.5 9t0.5 16.5v470q0 11 -0.5 17t-2.5 8.5t-7 3.5t-15 1v50h220v-116.5v-117.5h-40q0 63 -3 100t-12 55t-27 23.5t-49 5.5l2 4v-536l-1 2q30 0 47.5 5.5t26.5 25.5t13 62.5t6 116.5h40v-130v-130zM92 303v42q16 1 23 10t9.5 32t2.5 67h34
q-1 -34 -1 -67.5v-63.5q0 -28 0.5 -61.5t1.5 -66.5h-35q-1 44 -2.5 67t-8.5 31.5t-24 9.5zM214 -59l15 -4q-1 -24 -6 -41t-15 -26t-27 -9q-41 0 -41 54q0 27 12.5 46t31.5 30.5t40 14.5l2 -6q-24 -6 -38 -22.5t-14 -39.5q0 -24 16 -24q10 0 15 6.5t9 20.5z" />
    <glyph glyph-name="eogonek" unicode="&#x119;" horiz-adv-x="209" 
d="M150 -139q-20 0 -30.5 12.5t-10.5 31.5q0 16 4.5 28.5t12.5 25.5t18 30t20 44l-9 -32l-19 15l30 13q-17 -23 -28.5 -29t-23.5 -7q-26 0 -45 12t-31.5 43t-18.5 86.5t-6 142.5q0 74 4.5 126t15.5 85t30 48t47 15q38 0 56.5 -31.5t24.5 -85t6 -121.5v-26v-27h-74h-75v42h46
h46l-2 -19q0 73 -2 117t-5.5 66t-9 29t-11.5 7q-7 0 -12.5 -7t-9 -29t-5 -65.5t-1.5 -116.5q0 -65 1.5 -109.5t5.5 -71t12 -38.5t20 -12q15 0 22 16t9.5 51.5t2.5 93.5h42q0 -64 -5.5 -107t-13.5 -70t-16 -44t-13.5 -29t-5.5 -26q0 -24 16 -24q10 0 15 7t9 20l15 -4
q-1 -24 -6 -41t-15 -26t-27 -9z" />
    <glyph glyph-name="Ecaron" unicode="&#x11a;" horiz-adv-x="241" 
d="M226 0h-223v50q10 0 15 1t7 3.5t2.5 9t0.5 16.5v470q0 11 -0.5 17t-2.5 8.5t-7 3.5t-15 1v50h220v-116.5v-117.5h-40q0 63 -3 100t-12 55t-27 23.5t-49 5.5l2 4v-536l-1 2q30 0 47.5 5.5t26.5 25.5t13 62.5t6 116.5h40v-130v-130zM92 303v42q16 1 23 10t9.5 32t2.5 67h34
q-1 -34 -1 -67.5v-63.5q0 -28 0.5 -61.5t1.5 -66.5h-35q-1 44 -2.5 67t-8.5 31.5t-24 9.5zM117 657l-68 122l10 11l72 -53h-13l70 53l10 -11l-69 -122h-12z" />
    <glyph glyph-name="ecaron" unicode="&#x11b;" horiz-adv-x="209" 
d="M82 284q0 -65 1.5 -109.5t5.5 -71t12 -38.5t20 -12q15 0 22 16t9.5 51.5t2.5 93.5h42q0 -67 -6 -116.5t-23.5 -76.5t-52.5 -27q-26 0 -45.5 12t-32 42.5t-18.5 86t-6 142.5q0 74 4.5 126t15.5 85t30 48t47 15q38 0 56.5 -31.5t24.5 -85t6 -121.5v-26v-27h-74h-75v42h46
h46l-2 -19q0 73 -2 117t-5.5 66t-9 29t-11.5 7q-7 0 -12.5 -7t-9 -29t-5 -65.5t-1.5 -116.5zM105 576l-68 122l10 11l72 -53h-13l70 53l10 -11l-69 -122h-12z" />
    <glyph glyph-name="Gcircumflex" unicode="&#x11c;" horiz-adv-x="241" 
d="M92 635q20 0 29.5 -10t15.5 -20.5t13 -10.5t9.5 7.5t2.5 28.5h48v-136.5v-136.5h-49q-5 74 -11 118t-12 67t-13 30.5t-13 7.5t-11.5 -8.5t-9.5 -35t-6.5 -79t-2.5 -140.5q0 -55 1.5 -97.5t4 -73t7 -50t10.5 -29t14 -9.5q9 0 14.5 9.5t8 31.5t2.5 61q0 34 -0.5 53.5
t-3.5 28.5t-10 11.5t-21 2.5v49h127v-49q-10 0 -15.5 -1t-7.5 -4t-2.5 -9t-0.5 -17v-74.5v-75v-75.5h-41q-1 20 -4.5 30t-11.5 10q-6 0 -12 -7t-12.5 -15.5t-15 -15.5t-21.5 -7q-18 0 -32.5 13.5t-25 48.5t-16.5 98t-6 162q0 96 5 158t15 97t25 49t35 14zM127 796l68 -122
l-10 -11l-72 53h13l-70 -53l-10 11l69 122h12z" />
    <glyph glyph-name="gcircumflex" unicode="&#x11d;" horiz-adv-x="213" 
d="M132 341q0 48 -1.5 79.5t-4 49t-7.5 25t-13 7.5q-7 0 -11.5 -7.5t-7.5 -25.5t-4 -49.5t-1 -78.5q0 -39 1 -67.5t4 -47t8 -27t12 -8.5t12 8.5t7.5 26.5t4 46.5t1.5 68.5zM195 359q0 -83 -8.5 -131t-28.5 -68t-53 -20q-12 0 -20.5 -2.5t-13.5 -7t-7.5 -11.5t-2.5 -15
q0 -33 24 -33h10t16 0.5t17 0.5h13q35 0 49.5 -21.5t14.5 -62.5q0 -22 -4.5 -41t-15 -33.5t-29.5 -23t-49 -8.5q-29 0 -47 6t-27.5 16.5t-13 23.5t-3.5 28q0 29 13.5 48t22.5 22l10 -9q-1 -22 0.5 -39t7 -28t15.5 -17t26 -6t25.5 3.5t14 10.5t6 16t1.5 19q0 23 -8.5 32.5
t-22.5 9.5q-7 0 -16 -0.5t-19 -1.5t-18 -1.5t-13 -0.5h-5.5h-6.5v23q-20 11 -30 24.5t-10 40.5q0 23 14 41.5t41 18.5h5.5h3.5v13q-23 8 -35 30.5t-16 61t-4 95.5q0 71 8.5 112t28.5 58t52 17t51.5 -17.5t28 -58.5t8.5 -114zM114 710l68 -122l-10 -11l-72 53h13l-70 -53
l-10 11l69 122h12z" />
    <glyph glyph-name="Gbreve" unicode="&#x11e;" horiz-adv-x="241" 
d="M92 635q20 0 29.5 -10t15.5 -20.5t13 -10.5t9.5 7.5t2.5 28.5h48v-136.5v-136.5h-49q-5 74 -11 118t-12 67t-13 30.5t-13 7.5t-11.5 -8.5t-9.5 -35t-6.5 -79t-2.5 -140.5q0 -55 1.5 -97.5t4 -73t7 -50t10.5 -29t14 -9.5q9 0 14.5 9.5t8 31.5t2.5 61q0 34 -0.5 53.5
t-3.5 28.5t-10 11.5t-21 2.5v49h127v-49q-10 0 -15.5 -1t-7.5 -4t-2.5 -9t-0.5 -17v-74.5v-75v-75.5h-41q-1 20 -4.5 30t-11.5 10q-6 0 -12 -7t-12.5 -15.5t-15 -15.5t-21.5 -7q-18 0 -32.5 13.5t-25 48.5t-16.5 98t-6 162q0 96 5 158t15 97t25 49t35 14zM120 743q18 0 27 4
t11.5 11.5t2.5 18.5v5.5v3.5h19q0 -44 -7.5 -68.5t-20.5 -33.5t-32 -9t-32.5 9t-20.5 33.5t-7 68.5h19q-1 -2 -1 -3.5v-5.5q0 -11 3 -18.5t12 -11.5t27 -4z" />
    <glyph glyph-name="gbreve" unicode="&#x11f;" horiz-adv-x="213" 
d="M132 341q0 48 -1.5 79.5t-4 49t-7.5 25t-13 7.5q-7 0 -11.5 -7.5t-7.5 -25.5t-4 -49.5t-1 -78.5q0 -39 1 -67.5t4 -47t8 -27t12 -8.5t12 8.5t7.5 26.5t4 46.5t1.5 68.5zM195 359q0 -83 -8.5 -131t-28.5 -68t-53 -20q-12 0 -20.5 -2.5t-13.5 -7t-7.5 -11.5t-2.5 -15
q0 -33 24 -33h10t16 0.5t17 0.5h13q35 0 49.5 -21.5t14.5 -62.5q0 -22 -4.5 -41t-15 -33.5t-29.5 -23t-49 -8.5q-29 0 -47 6t-27.5 16.5t-13 23.5t-3.5 28q0 29 13.5 48t22.5 22l10 -9q-1 -22 0.5 -39t7 -28t15.5 -17t26 -6t25.5 3.5t14 10.5t6 16t1.5 19q0 23 -8.5 32.5
t-22.5 9.5q-7 0 -16 -0.5t-19 -1.5t-18 -1.5t-13 -0.5h-5.5h-6.5v23q-20 11 -30 24.5t-10 40.5q0 23 14 41.5t41 18.5h5.5h3.5v13q-23 8 -35 30.5t-16 61t-4 95.5q0 71 8.5 112t28.5 58t52 17t51.5 -17.5t28 -58.5t8.5 -114zM107 657q18 0 27 4t11.5 11.5t2.5 18.5v5.5v3.5
h19q0 -44 -7.5 -68.5t-20.5 -33.5t-32 -9t-32.5 9t-20.5 33.5t-7 68.5h19q-1 -2 -1 -3.5v-5.5q0 -11 3 -18.5t12 -11.5t27 -4z" />
    <glyph glyph-name="Gdotaccent" unicode="&#x120;" horiz-adv-x="241" 
d="M92 635q20 0 29.5 -10t15.5 -20.5t13 -10.5t9.5 7.5t2.5 28.5h48v-136.5v-136.5h-49q-5 74 -11 118t-12 67t-13 30.5t-13 7.5t-11.5 -8.5t-9.5 -35t-6.5 -79t-2.5 -140.5q0 -55 1.5 -97.5t4 -73t7 -50t10.5 -29t14 -9.5q9 0 14.5 9.5t8 31.5t2.5 61q0 34 -0.5 53.5
t-3.5 28.5t-10 11.5t-21 2.5v49h127v-49q-10 0 -15.5 -1t-7.5 -4t-2.5 -9t-0.5 -17v-74.5v-75v-75.5h-41q-1 20 -4.5 30t-11.5 10q-6 0 -12 -7t-12.5 -15.5t-15 -15.5t-21.5 -7q-18 0 -32.5 13.5t-25 48.5t-16.5 98t-6 162q0 96 5 158t15 97t25 49t35 14zM120 788
q14 0 21.5 -15.5t7.5 -42.5q0 -26 -7.5 -41.5t-21.5 -15.5q-13 0 -20.5 15.5t-7.5 41.5q0 28 7.5 43t20.5 15z" />
    <glyph glyph-name="gdotaccent" unicode="&#x121;" horiz-adv-x="213" 
d="M132 341q0 48 -1.5 79.5t-4 49t-7.5 25t-13 7.5q-7 0 -11.5 -7.5t-7.5 -25.5t-4 -49.5t-1 -78.5q0 -39 1 -67.5t4 -47t8 -27t12 -8.5t12 8.5t7.5 26.5t4 46.5t1.5 68.5zM195 359q0 -83 -8.5 -131t-28.5 -68t-53 -20q-12 0 -20.5 -2.5t-13.5 -7t-7.5 -11.5t-2.5 -15
q0 -33 24 -33h10t16 0.5t17 0.5h13q35 0 49.5 -21.5t14.5 -62.5q0 -22 -4.5 -41t-15 -33.5t-29.5 -23t-49 -8.5q-29 0 -47 6t-27.5 16.5t-13 23.5t-3.5 28q0 29 13.5 48t22.5 22l10 -9q-1 -22 0.5 -39t7 -28t15.5 -17t26 -6t25.5 3.5t14 10.5t6 16t1.5 19q0 23 -8.5 32.5
t-22.5 9.5q-7 0 -16 -0.5t-19 -1.5t-18 -1.5t-13 -0.5h-5.5h-6.5v23q-20 11 -30 24.5t-10 40.5q0 23 14 41.5t41 18.5h5.5h3.5v13q-23 8 -35 30.5t-16 61t-4 95.5q0 71 8.5 112t28.5 58t52 17t51.5 -17.5t28 -58.5t8.5 -114zM107 702q13 0 21 -15.5t8 -42.5q0 -26 -8 -41.5
t-21 -15.5t-20.5 15.5t-7.5 41.5q0 28 7.5 43t20.5 15z" />
    <glyph glyph-name="Hcircumflex" unicode="&#x124;" horiz-adv-x="258" 
d="M163 90v450q0 14 -0.5 22t-2.5 12t-7 5t-14 1v50h116v-50q-10 0 -15 -1t-7 -5t-2.5 -12t-0.5 -22v-450q0 -14 0.5 -22t2.5 -12t7 -5t15 -1v-50h-116v50q9 0 14 1t7 5t2.5 12t0.5 22zM28 90v450q0 14 -0.5 22t-2.5 12t-7 5t-15 1v50h116v-50q-9 0 -14.5 -1t-7.5 -5
t-2.5 -12t-0.5 -22v-450q0 -14 0.5 -22t2.5 -12t7.5 -5t14.5 -1v-50h-116v50q10 0 15 1t7 5t2.5 12t0.5 22zM86 293v48q11 -1 22 -1h21h22t21 1v-48q-10 1 -21 1h-22h-21t-22 -1zM136 791l68 -122l-10 -11l-72 53h13l-70 -53l-10 11l69 122h12z" />
    <glyph glyph-name="hcircumflex" unicode="&#x125;" 
d="M82 478l-14 29h23l-7 -19q4 17 10.5 28.5t14.5 18.5t18 10.5t22 3.5q32 0 46.5 -23t14.5 -68v-379q0 -16 5 -23t16 -7v-49h-105v49q11 0 14 7t3 23v377q0 15 -2 24t-7 13t-14 4q-8 0 -15 -4.5t-10.5 -13.5t-3.5 -23v-377q0 -16 3.5 -23t14.5 -7v-49h-106v49q14 0 18 7
t4 23v510q0 17 -4 23.5t-18 6.5v49q23 1 45.5 2t44.5 2q0 -29 -2.5 -61.5t-5.5 -66t-3 -66.5zM54 805l68 -122l-10 -11l-72 53h13l-70 -53l-10 11l69 122h12z" />
    <glyph glyph-name="Hbar" unicode="&#x126;" horiz-adv-x="258" 
d="M129 437h-41h-43.5t-41.5 -1v48q20 0 41.5 -0.5l43 -1t41.5 -0.5q19 0 41 0.5t44.5 1t40.5 0.5v-48q-19 1 -41 1h-44h-41zM163 90v450q0 14 -0.5 22t-2.5 12t-7 5t-14 1v50h116v-50q-10 0 -15 -1t-7 -5t-2.5 -12t-0.5 -22v-450q0 -14 0.5 -22t2.5 -12t7 -5t15 -1v-50
h-116v50q9 0 14 1t7 5t2.5 12t0.5 22zM28 90v450q0 14 -0.5 22t-2.5 12t-7 5t-15 1v50h116v-50q-9 0 -14.5 -1t-7.5 -5t-2.5 -12t-0.5 -22v-450q0 -14 0.5 -22t2.5 -12t7.5 -5t14.5 -1v-50h-116v50q10 0 15 1t7 5t2.5 12t0.5 22zM86 293v48q11 -1 22 -1h21h22t21 1v-48
q-10 1 -21 1h-22h-21t-22 -1z" />
    <glyph glyph-name="hbar" unicode="&#x127;" 
d="M70 543h-35h-35v37h35.5h34.5h36.5h34.5v-37h-35h-36zM82 450l-14 29h23l-7 -19q4 17 10 28.5t14.5 18.5t18.5 10.5t22 3.5q32 0 46.5 -23t14.5 -68v-351q0 -16 5 -23t16 -7v-49h-105v49q11 0 14 7t3 23v349q0 15 -2 24t-7 13t-14 4q-8 0 -15 -4.5t-10.5 -13.5t-3.5 -23
v-349q0 -16 3.5 -23t14.5 -7v-49h-106v49q14 0 18 7t4 23v510q0 17 -4 23.5t-18 6.5v49q23 1 45.5 2t44.5 2q0 -24 -1.5 -51t-4 -56t-4 -58.5t-1.5 -56.5z" />
    <glyph glyph-name="Itilde" unicode="&#x128;" horiz-adv-x="123" 
d="M28 90v450q0 14 -0.5 22t-2.5 12t-7.5 5t-14.5 1v50h116v-50q-9 0 -14 -1t-7.5 -5t-3 -12t-0.5 -22v-450q0 -14 0.5 -22t3 -12t7.5 -5t14 -1v-50h-116v50q9 0 14.5 1t7.5 5t2.5 12t0.5 22zM108 743v16.5t-1 16.5h17q1 -10 1 -16.5v-16.5q0 -47 -9.5 -64t-25.5 -17
q-14 0 -23.5 10t-15.5 23.5t-11.5 23.5t-12.5 10q-6 0 -9 -8t-3 -21v-15t1 -17h-17q-1 11 -1 18v14q0 47 10 64t29 17q14 0 23 -9.5t15 -22.5t11 -22.5t11 -9.5t8.5 7.5t2.5 18.5z" />
    <glyph glyph-name="itilde" unicode="&#x129;" horiz-adv-x="116" 
d="M113 0h-110v49q14 0 18 5t4 15v397q0 16 -4 22.5t-18 6.5v50h88v-476q0 -10 4 -15t18 -5v-49zM95 655v20t-1 20h17q1 -11 1 -18v-18q0 -45 -8 -61.5t-22 -16.5q-11 0 -18.5 10t-12.5 23.5t-9.5 23.5t-10.5 10q-4 0 -6.5 -6.5t-2.5 -16.5v-17.5t1 -20.5h-17q-1 13 -1 21.5
v16.5q0 44 8.5 59.5t23.5 15.5q11 0 18 -9.5t12 -22.5t9 -22.5t10 -9.5q5 0 7 5.5t2 13.5z" />
    <glyph glyph-name="Imacron" unicode="&#x12a;" horiz-adv-x="123" 
d="M28 90v450q0 14 -0.5 22t-2.5 12t-7.5 5t-14.5 1v50h116v-50q-9 0 -14 -1t-7.5 -5t-3 -12t-0.5 -22v-450q0 -14 0.5 -22t3 -12t7.5 -5t14 -1v-50h-116v50q9 0 14.5 1t7.5 5t2.5 12t0.5 22zM62 688h-23.5t-22.5 -1v65q8 -1 22 -2t24 -1q6 0 14 0.5t16.5 1.5t14.5 1v-65
q-10 1 -23 1h-22z" />
    <glyph glyph-name="imacron" unicode="&#x12b;" horiz-adv-x="116" 
d="M113 0h-110v49q14 0 18 5t4 15v397q0 16 -4 22.5t-18 6.5v50h88v-476q0 -10 4 -15t18 -5v-49zM59 607h-23.5t-22.5 -1v65q8 -1 22 -2t24 -1q6 0 14 0.5t16.5 1.5t14.5 1v-65q-10 1 -23 1h-22z" />
    <glyph glyph-name="Ibreve" unicode="&#x12c;" horiz-adv-x="123" 
d="M28 90v450q0 14 -0.5 22t-2.5 12t-7.5 5t-14.5 1v50h116v-50q-9 0 -14 -1t-7.5 -5t-3 -12t-0.5 -22v-450q0 -14 0.5 -22t3 -12t7.5 -5t14 -1v-50h-116v50q9 0 14.5 1t7.5 5t2.5 12t0.5 22zM61 738q11 0 16 4t7 11.5t2 18.5v5.5v3.5h19q0 -44 -5.5 -68.5t-15 -33.5
t-23.5 -9t-23.5 9t-15 33.5t-5.5 68.5h19q-1 -2 -1 -3.5v-5.5q0 -11 2 -18.5t7.5 -11.5t16.5 -4z" />
    <glyph glyph-name="ibreve" unicode="&#x12d;" horiz-adv-x="116" 
d="M113 0h-110v49q14 0 18 5t4 15v397q0 16 -4 22.5t-18 6.5v50h88v-476q0 -10 4 -15t18 -5v-49zM58 657q11 0 16 4t7 11.5t2 18.5v5.5v3.5h19q0 -44 -5.5 -68.5t-15 -33.5t-23.5 -9t-23.5 9t-15 33.5t-5.5 68.5h19q-1 -2 -1 -3.5v-5.5q0 -11 2 -18.5t7.5 -11.5t16.5 -4z
" />
    <glyph glyph-name="Iogonek" unicode="&#x12e;" horiz-adv-x="123" 
d="M28 90v450q0 14 -0.5 22t-2.5 12t-7.5 5t-14.5 1v50h116v-50q-9 0 -14 -1t-7.5 -5t-3 -12t-0.5 -22v-450q0 -14 0.5 -22t3 -12t7.5 -5t14 -1v-50h-116v50q9 0 14.5 1t7.5 5t2.5 12t0.5 22zM107 -59l15 -4q-1 -24 -6 -41t-15 -26t-27 -9q-41 0 -41 54q0 27 12.5 46
t31.5 30.5t40 14.5l2 -6q-24 -6 -38 -22.5t-14 -39.5q0 -24 16 -24q10 0 15 6.5t9 20.5z" />
    <glyph glyph-name="iogonek" unicode="&#x12f;" horiz-adv-x="116" 
d="M54 661q20 0 31.5 -12t11.5 -33q0 -22 -11.5 -33.5t-31.5 -11.5t-31 11.5t-11 33.5t11 33.5t31 11.5zM113 0h-110v49q14 0 18 5t4 15v397q0 16 -4 22.5t-18 6.5v50h88v-476q0 -10 4 -15t18 -5v-49zM101 -59l15 -4q-1 -24 -6 -41t-15 -26t-27 -9q-41 0 -41 54
q0 27 12.5 46t31.5 30.5t40 14.5l2 -6q-24 -6 -38 -22.5t-14 -39.5q0 -24 16 -24q10 0 15 6.5t9 20.5z" />
    <glyph glyph-name="Idotaccent" unicode="&#x130;" horiz-adv-x="123" 
d="M28 90v450q0 14 -0.5 22t-2.5 12t-7.5 5t-14.5 1v50h116v-50q-9 0 -14 -1t-7.5 -5t-3 -12t-0.5 -22v-450q0 -14 0.5 -22t3 -12t7.5 -5t14 -1v-50h-116v50q9 0 14.5 1t7.5 5t2.5 12t0.5 22zM61 783q14 0 21.5 -15.5t7.5 -42.5q0 -26 -7.5 -41.5t-21.5 -15.5
q-13 0 -20.5 15.5t-7.5 41.5q0 28 7.5 43t20.5 15z" />
    <glyph glyph-name="dotlessi" unicode="&#x131;" horiz-adv-x="116" 
d="M113 0h-110v49q14 0 18 5t4 15v397q0 16 -4 22.5t-18 6.5v50h88v-476q0 -10 4 -15t18 -5v-49z" />
    <glyph glyph-name="IJ" unicode="&#x132;" horiz-adv-x="241" 
d="M28 90v450q0 14 -0.5 22t-2.5 12t-7.5 5t-14.5 1v50h116v-50q-9 0 -14 -1t-7.5 -5t-3 -12t-0.5 -22v-450q0 -14 0.5 -22t2 -12t5.5 -5t11 -1v-50h-110v50q9 0 14.5 1t7.5 5t2.5 12t0.5 22zM151 554q0 9 -0.5 14.5t-2.5 8t-7 3t-15 0.5v50h112v-50q-8 0 -12.5 -0.5
t-6 -3.5t-2 -8t-0.5 -14v-550q0 -34 -13 -52.5t-34 -18.5q-25 0 -38.5 14t-13.5 42q0 19 8.5 31.5t23.5 12.5q17 0 23 -12t6 -24q0 -11 -2.5 -17.5t-6.5 -9.5t-9 -4q-6 -1 -6 -7q0 -2 2 -4t6 -2q8 0 14.5 5t10.5 15t4 24q0 23 -11 37t-30 17v503z" />
    <glyph glyph-name="ij" unicode="&#x133;" 
d="M54 661q20 0 31.5 -12t11.5 -33q0 -22 -11.5 -33.5t-31.5 -11.5t-31 11.5t-11 33.5t11 33.5t31 11.5zM113 0h-110v49q14 0 18 5t4 15v397q0 16 -4 22.5t-18 6.5v50h88v-476q0 -10 4 -15t18 -5v-49zM175 661q20 0 31.5 -12t11.5 -33q0 -22 -11.5 -33.5t-31.5 -11.5
t-31 11.5t-11 33.5t11 33.5t31 11.5zM215 -47q0 -34 -14 -52.5t-42 -18.5q-16 0 -28.5 6t-20 18.5t-7.5 31.5t10 31.5t28 12.5q20 0 28 -12t8 -24q0 -16 -9 -23.5t-21 -7.5q-3 0 -11 2t-15 6l21 12l-5 -45l-18 22q10 -6 18.5 -7.5t14.5 -1.5q11 0 19.5 5t13.5 14.5t5 23.5
q0 23 -11 37t-31 17v458q0 20 -4.5 29t-21.5 9v49h93v-592z" />
    <glyph glyph-name="Jcircumflex" unicode="&#x134;" horiz-adv-x="118" 
d="M28 554q0 9 -0.5 14.5t-2.5 8t-7 3t-15 0.5v50h112v-50q-8 0 -12.5 -0.5t-6 -3.5t-2 -8t-0.5 -14v-550q0 -34 -14 -52.5t-42 -18.5q-24 0 -40 14t-16 42q0 19 10 31.5t28 12.5q20 0 28 -12t8 -24q0 -11 -2.5 -17.5t-6.5 -9.5t-9 -4q-6 -1 -6 -7q0 -2 2 -4t6 -2
q8 0 14.5 5t10.5 15t4 24q0 23 -11 37t-30 17v503zM67 791l48 -124l-12 -9l-50 53h13l-48 -53l-12 9l49 124h12z" />
    <glyph glyph-name="jcircumflex" unicode="&#x135;" horiz-adv-x="118" 
d="M99 -47q0 -34 -14 -52.5t-42 -18.5q-16 0 -28.5 6t-20 18.5t-7.5 31.5t10 31.5t28 12.5q20 0 28 -12t8 -24q0 -16 -9 -23.5t-21 -7.5q-3 0 -11 2t-15 6l21 12l-5 -45l-18 22q10 -6 18.5 -7.5t14.5 -1.5q11 0 19.5 5t13.5 14.5t5 23.5q0 23 -11 37t-31 17v458
q0 20 -4.5 29t-21.5 9v49h93v-592zM66 710l48 -124l-12 -9l-50 53h13l-48 -53l-12 9l49 124h12z" />
    <glyph glyph-name="Lacute" unicode="&#x139;" horiz-adv-x="209" 
d="M193 0h-190v50q10 0 15 1t7 5t2.5 12t0.5 22v450q0 14 -0.5 22t-2.5 12t-7 5t-15 1v50h125v-50q-12 0 -18.5 -1t-10 -5t-4.5 -12t-1 -22v-495v5q17 0 27.5 7.5t16.5 33.5t9 79.5t6 144.5h40v-104.5v-105v-105.5zM45 657l81 98v26h-79l-21 -114z" />
    <glyph glyph-name="lacute" unicode="&#x13a;" horiz-adv-x="117" 
d="M93 671v-597q0 -13 4 -19t17 -6v-49h-111v49q14 0 18 6t4 19v515q0 17 -4 23.5t-18 6.5v49q23 1 45.5 1.5t44.5 1.5zM35 688l81 98v26h-79l-21 -114z" />
    <glyph glyph-name="Lcaron" unicode="&#x13d;" horiz-adv-x="209" 
d="M164 378l-17 11q14 33 19.5 55.5t5.5 44.5q0 19 -4 34t-9.5 27.5t-9.5 24.5t-4 25q0 16 6.5 24t16.5 8q17 0 24 -21.5t7 -74.5q0 -41 -5.5 -72t-13.5 -52t-16 -34zM193 0h-190v50q10 0 15 1t7 5t2.5 12t0.5 22v450q0 14 -0.5 22t-2.5 12t-7 5t-15 1v50h125v-50
q-12 0 -18.5 -1t-10 -5t-4.5 -12t-1 -22v-495v5q17 0 27.5 8t16.5 33.5t9 79t6 144.5h40v-104.5v-105v-105.5z" />
    <glyph glyph-name="lcaron" unicode="&#x13e;" horiz-adv-x="167" 
d="M93 671v-597q0 -13 4 -19t17 -6v-49h-111v49q14 0 18 6t4 19v515q0 17 -4 23.5t-18 6.5v49q23 1 45.5 1.5t44.5 1.5zM127 420l-17 11q10 22 15 39t7.5 31.5t2.5 29.5q0 19 -4 34t-9.5 27.5t-9.5 24.5t-4 25q0 16 6.5 24t16.5 8q17 0 24 -21.5t7 -74.5q0 -41 -5.5 -72
t-13.5 -52t-16 -34z" />
    <glyph glyph-name="Ldot" unicode="&#x13f;" horiz-adv-x="209" 
d="M193 0h-190v50q10 0 15 1t7 5t2.5 12t0.5 22v450q0 14 -0.5 22t-2.5 12t-7 5t-15 1v50h125v-50q-12 0 -18.5 -1t-10 -5t-4.5 -12t-1 -22v-495v5q17 0 27.5 7.5t16.5 33.5t9 79.5t6 144.5h40v-104.5v-105v-105.5zM147 471q14 0 21.5 -15.5t7.5 -42.5q0 -26 -7.5 -41.5
t-21.5 -15.5q-13 0 -20.5 15.5t-7.5 41.5q0 28 7.5 43t20.5 15z" />
    <glyph glyph-name="ldot" unicode="&#x140;" horiz-adv-x="164" 
d="M93 671v-597q0 -13 4 -19t17 -6v-49h-111v49q14 0 18 6t4 19v515q0 17 -4 23.5t-18 6.5v49q23 1 45.5 1.5t44.5 1.5zM129 350q14 0 21.5 -15.5t7.5 -42.5q0 -26 -7.5 -41.5t-21.5 -15.5q-13 0 -20.5 15.5t-7.5 41.5q0 28 7.5 43t20.5 15z" />
    <glyph glyph-name="Lslash" unicode="&#x141;" horiz-adv-x="224" 
d="M167 396q-23 -18 -51.5 -39.5t-56 -43t-49.5 -40.5l-12 41q22 16 49.5 37t55.5 43.5t51 41.5zM208 0h-190v50q10 0 15 1t7 5t2.5 12t0.5 22v450q0 14 -0.5 22t-2.5 12t-7 5t-15 1v50h125v-50q-12 0 -18.5 -1t-10 -5t-4.5 -12t-1 -22v-495v5q17 0 27.5 7.5t16.5 33.5
t9 79.5t6 144.5h40v-104.5v-105v-105.5z" />
    <glyph glyph-name="lslash" unicode="&#x142;" horiz-adv-x="145" 
d="M145 371q-19 -18 -44 -46.5t-49.5 -58t-39.5 -50.5l-11 51q17 17 42 45t49.5 58t39.5 51zM107 671v-597q0 -13 4 -19t17 -6v-49h-111v49q14 0 18 6t4 19v515q0 17 -4 23.5t-18 6.5v49q23 1 45.5 1.5t44.5 1.5z" />
    <glyph glyph-name="Nacute" unicode="&#x143;" horiz-adv-x="270" 
d="M201 115l-9 35l27 1l-6 -36q-4 27 -6.5 64t-4 74.5t-1.5 68.5q0 76 -2.5 125.5t-9 77.5t-16.5 40t-25 15v50h120v-50q-7 -4 -12 -10.5t-8 -18t-5 -28.5t-2 -42q0 -144 0.5 -269t5.5 -212h-74l-69 312q-9 41 -16 91t-12 101.5t-8 96.5l18 -31l-34 -2l5 35q2 -25 4.5 -67
t4.5 -91t2 -97q0 -68 1.5 -116.5t6 -81.5t13 -53.5t21 -31t31.5 -15.5v-50h-138v50q10 5 15.5 14t8 25.5t2.5 43.5v411q0 13 -0.5 20t-3 10.5t-7.5 4.5t-15 1v50h118q1 -19 2.5 -41.5t5.5 -53.5t12 -75t22 -106q14 -59 24 -123t14 -116zM112 657l81 98v26h-79l-21 -114z" />
    <glyph glyph-name="nacute" unicode="&#x144;" 
d="M90 494l-6 -6q4 17 10.5 28.5t14.5 18.5t18 10.5t22 3.5q32 0 46.5 -23.5t14.5 -68.5v-378q0 -16 5 -23t16 -7v-49h-105v49q11 0 14 7t3 23v377q0 15 -2 24t-7 13t-14 4q-8 0 -15 -4.5t-10.5 -13.5t-3.5 -23v-377q0 -16 3.5 -23t14.5 -7v-49h-106v49q14 0 18 7t4 23v387
q0 17 -4 23.5t-17 6.5v49h72q0 -18 -0.5 -30.5t-0.5 -36.5l-15 16h30zM93 576l81 98v26h-79l-21 -114z" />
    <glyph glyph-name="Ncaron" unicode="&#x147;" horiz-adv-x="270" 
d="M201 115l-9 35l27 1l-6 -36q-4 27 -6.5 64t-4 74.5t-1.5 68.5q0 76 -2.5 125.5t-9 77.5t-16.5 40t-25 15v50h120v-50q-7 -4 -12 -10.5t-8 -18t-5 -28.5t-2 -42q0 -144 0.5 -269t5.5 -212h-74l-69 312q-9 41 -16 91t-12 101.5t-8 96.5l18 -31l-34 -2l5 35q2 -25 4.5 -67
t4.5 -91t2 -97q0 -68 1.5 -116.5t6 -81.5t13 -53.5t21 -31t31.5 -15.5v-50h-138v50q10 5 15.5 14t8 25.5t2.5 43.5v411q0 13 -0.5 20t-3 10.5t-7.5 4.5t-15 1v50h118q1 -19 2.5 -41.5t5.5 -53.5t12 -75t22 -106q14 -59 24 -123t14 -116zM129 657l-68 122l10 11l72 -53h-13
l70 53l10 -11l-69 -122h-12z" />
    <glyph glyph-name="ncaron" unicode="&#x148;" 
d="M90 494l-6 -6q4 17 10.5 28.5t14.5 18.5t18 10.5t22 3.5q32 0 46.5 -23.5t14.5 -68.5v-378q0 -16 5 -23t16 -7v-49h-105v49q11 0 14 7t3 23v377q0 15 -2 24t-7 13t-14 4q-8 0 -15 -4.5t-10.5 -13.5t-3.5 -23v-377q0 -16 3.5 -23t14.5 -7v-49h-106v49q14 0 18 7t4 23v387
q0 17 -4 23.5t-17 6.5v49h72q0 -18 -0.5 -30.5t-0.5 -36.5l-15 16h30zM111 576l-68 122l10 11l72 -53h-13l70 53l10 -11l-69 -122h-12z" />
    <glyph glyph-name="napostrophe" unicode="&#x149;" horiz-adv-x="336" 
d="M192 494l-6 -6q4 17 10.5 28.5t14.5 18.5t18 10.5t22 3.5q32 0 46.5 -23.5t14.5 -68.5v-378q0 -16 5 -23t16 -7v-49h-105v49q11 0 14 7t3 23v377q0 15 -2 24t-7 13t-14 4q-8 0 -15 -4.5t-10.5 -13.5t-3.5 -23v-377q0 -16 3.5 -23t14.5 -7v-49h-106v49q14 0 18 7t4 23v387
q0 17 -4 23.5t-17 6.5v49h72q0 -18 -0.5 -30.5t-0.5 -36.5l-15 16h30zM4 445v38q20 0 34.5 8.5t22.5 20.5t8 23q0 7 -6 7q-3 0 -6 -1t-6.5 -2t-9.5 -1q-14 0 -24.5 10t-10.5 32q0 23 11.5 38.5t36.5 15.5q23 0 36 -15.5t13 -49.5q0 -37 -10.5 -65t-32.5 -43.5t-56 -15.5z
" />
    <glyph glyph-name="Eng" unicode="&#x14a;" horiz-adv-x="270" 
d="M162 53l-58 259q-9 41 -16 91t-11.5 102t-8.5 96l18 -31l-34 -2l5 35q2 -25 4.5 -67t4.5 -91t2 -97q0 -85 2 -141t7.5 -88.5t17 -48t29.5 -20.5v-50h-121v50q10 5 15.5 14t8 25.5t2.5 43.5v411q0 13 -0.5 20t-3 10.5t-7.5 4.5t-15 1v50h118q1 -19 2.5 -41.5t5.5 -53.5
t12 -75t22 -106q14 -59 24 -123t14 -116l-9 35l27 1l-6 -36q-4 28 -6.5 64.5t-4 74t-1.5 68.5q0 77 -2.5 126t-9 77t-16.5 40t-25 15v50h120v-50q-6 -4 -11 -10.5t-8.5 -18t-5.5 -28.5t-2 -42q0 -143 3 -267t3 -210q0 -34 -14 -52.5t-42 -18.5q-24 0 -40 14t-16 42
q0 19 10 31.5t28 12.5q20 0 28 -12t8 -24q0 -11 -2.5 -17.5t-6.5 -9.5t-9 -4q-6 -1 -6 -7q0 -2 2 -4t6 -2q8 0 14.5 5t10.5 15t4 24q0 15 -5.5 28t-18.5 20.5t-36 7.5z" />
    <glyph glyph-name="eng" unicode="&#x14b;" 
d="M143 0v456q0 15 -2 24t-7 13t-14 4q-8 0 -15 -4.5t-10.5 -13.5t-3.5 -23v-377q0 -16 3.5 -23t14.5 -7v-49h-106v49q14 0 18 7t4 23v387q0 17 -4 23.5t-17 6.5v49h72q0 -17 -0.5 -30t-0.5 -37l-15 16h30l-6 -6q4 17 10 28.5t14.5 18.5t18.5 10.5t22 3.5q32 0 46.5 -23.5
t14.5 -68.5v-504q0 -34 -14 -52.5t-42 -18.5q-24 0 -40 14t-16 42q0 19 10 31.5t28 12.5q20 0 28 -12t8 -24q0 -16 -9 -23.5t-21 -7.5q-3 0 -11 2t-15 6l21 12l-5 -45l-18 22q10 -6 18.5 -7.5t14.5 -1.5q11 0 19.5 5t13.5 14.5t5 23.5q0 16 -5 27t-14.5 18t-22.5 9z" />
    <glyph glyph-name="Omacron" unicode="&#x14c;" horiz-adv-x="237" 
d="M226 314q0 -126 -11 -195.5t-34.5 -97t-62.5 -27.5q-28 0 -48.5 14t-33.5 49.5t-18.5 98t-5.5 158.5t6 159t18.5 98.5t33 50t48.5 14.5q39 0 62.5 -28t34.5 -98t11 -196zM156 315q0 84 -2.5 136.5t-7 80.5t-11.5 38.5t-17 10.5q-9 0 -16 -10.5t-11.5 -39t-7 -81
t-2.5 -135.5t2.5 -135t7 -80t11.5 -39t16 -11q10 0 17 10.5t11.5 38.5t7 80t2.5 136zM119 684h-19h-22t-19 -1v65q8 0 18.5 -1t22 -1.5t19.5 -0.5t19 0.5t21.5 1.5t18.5 1v-65q-8 1 -18.5 1h-21.5h-19z" />
    <glyph glyph-name="omacron" unicode="&#x14d;" horiz-adv-x="219" 
d="M206 277q0 -80 -5.5 -134.5t-17 -87t-29.5 -47t-44 -14.5t-44.5 14t-30.5 46t-17 87t-5 136t5.5 134.5t17.5 84t30 43t44 12.5t44 -13t29.5 -44t17 -84t5.5 -133zM137 278q0 72 -2 115.5t-5.5 65.5t-8.5 29.5t-11 7.5q-7 0 -12 -7.5t-8.5 -29.5t-5.5 -65.5t-2 -115.5
t2 -117t5.5 -69.5t8.5 -33.5t12 -9q6 0 11 9.5t8.5 34t5.5 69.5t2 116zM110 597h-19h-22t-19 -1v65q8 0 18.5 -1t22 -1.5t19.5 -0.5t19 0.5t21.5 1.5t18.5 1v-65q-8 1 -18.5 1h-21.5h-19z" />
    <glyph glyph-name="Obreve" unicode="&#x14e;" horiz-adv-x="237" 
d="M226 314q0 -126 -11 -195.5t-34.5 -97t-62.5 -27.5q-28 0 -48.5 14t-33.5 49.5t-18.5 98t-5.5 158.5t6 159t18.5 98.5t33 50t48.5 14.5q39 0 62.5 -28t34.5 -98t11 -196zM156 315q0 84 -2.5 136.5t-7 80.5t-11.5 38.5t-17 10.5q-9 0 -16 -10.5t-11.5 -39t-7 -81
t-2.5 -135.5t2.5 -135t7 -80t11.5 -39t16 -11q10 0 17 10.5t11.5 38.5t7 80t2.5 136zM119 744q18 0 27 4t11.5 11.5t2.5 18.5v5.5v3.5h19q0 -44 -7.5 -68.5t-20.5 -33.5t-32 -9t-32.5 9t-20.5 33.5t-7 68.5h19q-1 -2 -1 -3.5v-5.5q0 -11 3 -18.5t12 -11.5t27 -4z" />
    <glyph glyph-name="obreve" unicode="&#x14f;" horiz-adv-x="219" 
d="M206 277q0 -80 -5.5 -134.5t-17 -87t-29.5 -47t-44 -14.5t-44.5 14t-30.5 46t-17 87t-5 136t5.5 134.5t17.5 84t30 43t44 12.5t44 -13t29.5 -44t17 -84t5.5 -133zM137 278q0 72 -2 115.5t-5.5 65.5t-8.5 29.5t-11 7.5q-7 0 -12 -7.5t-8.5 -29.5t-5.5 -65.5t-2 -115.5
t2 -117t5.5 -69.5t8.5 -33.5t12 -9q6 0 11 9.5t8.5 34t5.5 69.5t2 116zM109 657q18 0 27 4t11.5 11.5t2.5 18.5v5.5v3.5h19q0 -44 -7.5 -68.5t-20.5 -33.5t-32 -9t-32.5 9t-20.5 33.5t-7 68.5h19q-1 -2 -1 -3.5v-5.5q0 -11 3 -18.5t12 -11.5t27 -4z" />
    <glyph glyph-name="Ohungarumlaut" unicode="&#x150;" horiz-adv-x="237" 
d="M226 314q0 -126 -11 -195.5t-34.5 -97t-62.5 -27.5q-28 0 -48.5 14t-33.5 49.5t-18.5 98t-5.5 158.5t6 159t18.5 98.5t33 50t48.5 14.5q39 0 62.5 -28t34.5 -98t11 -196zM156 315q0 84 -2.5 136.5t-7 80.5t-11.5 38.5t-17 10.5q-9 0 -16 -10.5t-11.5 -39t-7 -81
t-2.5 -135.5t2.5 -135t7 -80t11.5 -39t16 -11q10 0 17 10.5t11.5 38.5t7 80t2.5 136zM111 664l-15 5l15 118h46v-26zM173 664l-16 5l16 118h46v-26z" />
    <glyph glyph-name="ohungarumlaut" unicode="&#x151;" horiz-adv-x="219" 
d="M206 277q0 -80 -5.5 -134.5t-17 -87t-29.5 -47t-44 -14.5t-44.5 14t-30.5 46t-17 87t-5 136t5.5 134.5t17.5 84t30 43t44 12.5t44 -13t29.5 -44t17 -84t5.5 -133zM137 278q0 72 -2 115.5t-5.5 65.5t-8.5 29.5t-11 7.5q-7 0 -12 -7.5t-8.5 -29.5t-5.5 -65.5t-2 -115.5
t2 -117t5.5 -69.5t8.5 -33.5t12 -9q6 0 11 9.5t8.5 34t5.5 69.5t2 116zM101 577l-15 5l15 118h46v-26zM163 577l-16 5l16 118h46v-26z" />
    <glyph glyph-name="OE" unicode="&#x152;" horiz-adv-x="359" 
d="M245 195q0 44 -2 66.5t-9 31.5t-24 10v42q16 1 23 10t9.5 32t2.5 67h34q-1 -34 -1 -67.5v-63.5q0 -28 0.5 -61.5t1.5 -66.5h-35zM121 50q9 0 14 1t7.5 3.5t3 9t0.5 16.5v470q0 11 -0.5 17t-3 8.5t-7.5 3.5t-14 1h-3q-9 0 -16 -10.5t-11.5 -39t-7 -80.5t-2.5 -135
q0 -82 2.5 -134.5t7 -80.5t11.5 -39t16 -11h3zM121 0q-29 0 -49.5 14t-34 48.5t-19.5 95.5t-6 156t6.5 156.5t19.5 96.5t33.5 49t49.5 14h220v-116.5v-117.5h-40q0 63 -3 100t-12 55t-27 23.5t-49 5.5l2 4v-536v2q30 0 47.5 5.5t26.5 26t12.5 63t5.5 115.5h40v-128.5v-131.5
h-223z" />
    <glyph glyph-name="oe" unicode="&#x153;" horiz-adv-x="333" 
d="M186 277q0 -80 -5 -134.5t-15 -87t-26 -47t-39 -14.5t-40 14t-28 46t-15.5 87t-4.5 136t5.5 134.5t16 84t28 43t41.5 12.5q22 0 37.5 -13t25.5 -44t14.5 -84t4.5 -133zM137 278q0 72 -2 115.5t-5.5 65.5t-8.5 29.5t-11 7.5q-7 0 -12 -7.5t-8.5 -29.5t-5.5 -65.5
t-2 -115.5t2 -117t5.5 -69.5t8.5 -33.5t12 -9q6 0 11 9.5t8.5 34t5.5 69.5t2 116zM206 284q0 -65 1.5 -109.5t5.5 -71t12 -38.5t20 -12q15 0 22 16t9.5 51.5t2.5 93.5h42q0 -67 -5.5 -116.5t-22 -76.5t-48.5 -27q-21 0 -37 12t-26 42.5t-15 86t-5 142.5q0 74 4 126t13 85
t24.5 48t38.5 15q35 0 51.5 -31.5t22 -85t5.5 -121.5v-26v-27h-74h-75v42h46h46l-2 -19q0 73 -2 117t-5.5 66t-9 29t-11.5 7q-7 0 -12.5 -7t-9 -29t-5 -65.5t-1.5 -116.5z" />
    <glyph glyph-name="Racute" unicode="&#x154;" horiz-adv-x="246" 
d="M196 -4q-24 0 -36 14.5t-12 51.5v65.5v73.5q0 36 -3 55.5t-12 27t-26 6.5h-19v48h28q15 0 24.5 12t14 40t4.5 76q0 50 -4 74.5t-15.5 32t-35.5 7.5h-19l9 45v-545q0 -10 0.5 -16.5t3 -9t8.5 -3.5t16 -1v-50h-119v50q10 0 15 1t7 3.5t2.5 9t0.5 16.5v460q0 14 -0.5 22
t-2.5 12t-7 5t-15 1v50h133q33 0 52.5 -14t28 -48t8.5 -93q0 -66 -9 -97t-25.5 -39.5t-40.5 -9.5l5 5v-26l-5 3q22 1 35 -11t18.5 -38.5t5.5 -71.5v-116q0 -10 1.5 -15t5.5 -5t5.5 6.5t2 25.5t0.5 58v25.5t-1 28.5h20q1 -16 1 -29.5v-26.5q0 -56 -4 -88t-14.5 -45t-29.5 -13
zM100 657l81 98v26h-79l-21 -114z" />
    <glyph glyph-name="racute" unicode="&#x155;" horiz-adv-x="166" 
d="M81 459l-12 32h27l-13 -32q3 19 7.5 35t10 28.5t13.5 19.5t18 7q8 0 15 -5t11.5 -17.5t4.5 -35.5q0 -16 -3.5 -30t-10 -22t-17.5 -8q-8 0 -12.5 4.5t-8 10t-6 10t-6.5 4.5t-6 -7t-2 -24v-346q0 -13 3.5 -20t12.5 -10t27 -3v-50h-131v50q14 0 18 7.5t4 21.5v388
q0 15 -4 21.5t-17 6.5v50h77v-40.5v-45.5zM57 576l81 98v26h-79l-21 -114z" />
    <glyph glyph-name="Rcaron" unicode="&#x158;" horiz-adv-x="246" 
d="M196 -4q-24 0 -36 14.5t-12 51.5v65.5v73.5q0 36 -3 55.5t-12 27t-26 6.5h-19v48h28q15 0 24.5 12t14 40t4.5 76q0 50 -4 74.5t-15.5 32t-35.5 7.5h-19l9 45v-545q0 -10 0.5 -16.5t3 -9t8.5 -3.5t16 -1v-50h-119v50q10 0 15 1t7 3.5t2.5 9t0.5 16.5v460q0 14 -0.5 22
t-2.5 12t-7 5t-15 1v50h133q33 0 52.5 -14t28 -48t8.5 -93q0 -66 -9 -97t-25.5 -39.5t-40.5 -9.5l5 5v-26l-5 3q22 1 35 -11t18.5 -38.5t5.5 -71.5v-116q0 -10 1.5 -15t5.5 -5t5.5 6.5t2 25.5t0.5 58v25.5t-1 28.5h20q1 -16 1 -29.5v-26.5q0 -56 -4 -88t-14.5 -45t-29.5 -13
zM117 657l-68 122l10 11l72 -53h-13l70 53l10 -11l-69 -122h-12z" />
    <glyph glyph-name="rcaron" unicode="&#x159;" horiz-adv-x="166" 
d="M81 459l-12 32h27l-13 -32q3 19 7.5 35t10 28.5t13.5 19.5t18 7q8 0 15 -5t11.5 -17.5t4.5 -35.5q0 -16 -3.5 -30t-10 -22t-17.5 -8q-8 0 -12.5 4.5t-8 10t-6 10t-6.5 4.5t-6 -7t-2 -24v-346q0 -13 3.5 -20t12.5 -10t27 -3v-50h-131v50q14 0 18 7.5t4 21.5v388
q0 15 -4 21.5t-17 6.5v50h77v-40.5v-45.5zM75 576l-68 122l10 11l72 -53h-13l70 53l10 -11l-69 -122h-12z" />
    <glyph glyph-name="Sacute" unicode="&#x15a;" horiz-adv-x="213" 
d="M140 97q0 41 -9 75t-22.5 65.5t-29.5 61.5q-16 32 -31 65t-24.5 70.5t-9.5 81.5q0 40 8.5 66t23.5 39.5t36 13.5q20 0 29 -10t14.5 -20.5t12.5 -10.5t9.5 7.5t2.5 28.5h48v-121.5v-121.5h-40q-8 57 -14.5 94.5t-13 59t-13.5 30.5t-15 9q-13 0 -18.5 -14.5t-5.5 -40.5
q0 -43 16.5 -84.5t38.5 -85.5q17 -35 33.5 -73.5t27.5 -81t11 -92.5q0 -39 -9 -64t-23 -37t-31 -12t-29.5 7.5t-21.5 17t-15.5 17t-11.5 7.5q-7 0 -8.5 -10t-1.5 -34h-40v133v133h40q3 -41 7.5 -75t10 -60t12.5 -44t15.5 -27.5t18.5 -9.5q9 0 15.5 10t6.5 37zM86 662l81 98
v26h-79l-21 -114z" />
    <glyph glyph-name="sacute" unicode="&#x15b;" horiz-adv-x="198" 
d="M123 90q0 34 -7.5 62.5t-19 55t-25.5 51.5q-14 27 -27.5 55.5t-21.5 61t-8 70.5q0 35 7.5 57.5t21 34t31.5 11.5q17 0 25.5 -8.5t13.5 -17.5t11 -9t8 6.5t2 24.5h44v-104.5v-105.5h-36q-9 65 -16 101.5t-14 51t-18 14.5t-15.5 -13t-4.5 -35q0 -37 14 -73t33 -74
q15 -30 30 -62t24.5 -68t9.5 -78q0 -36 -9.5 -59t-24.5 -33.5t-32 -10.5t-28 10.5t-18.5 21t-13.5 10.5t-7.5 -8.5t-1.5 -29.5h-36v115v115h36q3 -36 6.5 -65.5t8 -52.5t10 -39t12.5 -24t15 -8q10 0 15.5 10.5t5.5 38.5zM76 576l81 98v26h-79l-21 -114z" />
    <glyph glyph-name="Scircumflex" unicode="&#x15c;" horiz-adv-x="213" 
d="M140 97q0 41 -9 75t-22.5 65.5t-29.5 61.5q-16 32 -31 65t-24.5 70.5t-9.5 81.5q0 40 8.5 66t23.5 39.5t36 13.5q20 0 29 -10t14.5 -20.5t12.5 -10.5t9.5 7.5t2.5 28.5h48v-121.5v-121.5h-40q-8 57 -14.5 94.5t-13 59t-13.5 30.5t-15 9q-13 0 -18.5 -14.5t-5.5 -40.5
q0 -43 16.5 -84.5t38.5 -85.5q17 -35 33.5 -73.5t27.5 -81t11 -92.5q0 -39 -9 -64t-23 -37t-31 -12t-29.5 7.5t-21.5 17t-15.5 17t-11.5 7.5q-7 0 -8.5 -10t-1.5 -34h-40v133v133h40q3 -41 7.5 -75t10 -60t12.5 -44t15.5 -27.5t18.5 -9.5q9 0 15.5 10t6.5 37zM116 796
l68 -122l-10 -11l-72 53h13l-70 -53l-10 11l69 122h12z" />
    <glyph glyph-name="scircumflex" unicode="&#x15d;" horiz-adv-x="198" 
d="M123 90q0 34 -7.5 62.5t-19 55t-25.5 51.5q-14 27 -27.5 55.5t-21.5 61t-8 70.5q0 35 7.5 57.5t21 34t31.5 11.5q17 0 25.5 -8.5t13.5 -17.5t11 -9t8 6.5t2 24.5h44v-104.5v-105.5h-36q-9 65 -16 101.5t-14 51t-18 14.5t-15.5 -13t-4.5 -35q0 -37 14 -73t33 -74
q15 -30 30 -62t24.5 -68t9.5 -78q0 -36 -9.5 -59t-24.5 -33.5t-32 -10.5t-28 10.5t-18.5 21t-13.5 10.5t-7.5 -8.5t-1.5 -29.5h-36v115v115h36q3 -36 6.5 -65.5t8 -52.5t10 -39t12.5 -24t15 -8q10 0 15.5 10.5t5.5 38.5zM106 710l68 -122l-10 -11l-72 53h13l-70 -53l-10 11
l69 122h12z" />
    <glyph glyph-name="Scedilla" unicode="&#x15e;" horiz-adv-x="213" 
d="M140 97q0 41 -9 75t-22.5 65.5t-29.5 61.5q-16 32 -31 65t-24.5 70.5t-9.5 81.5q0 40 8.5 66t23.5 39.5t36 13.5q20 0 29 -10t14.5 -20.5t12.5 -10.5t9.5 7.5t2.5 28.5h48v-121.5v-121.5h-40q-8 57 -14.5 94.5t-13 59t-13.5 30.5t-15 9q-13 0 -18.5 -14.5t-5.5 -40.5
q0 -43 16.5 -84.5t38.5 -85.5q17 -35 33.5 -73.5t27.5 -81t11 -92.5q0 -39 -9 -64t-23 -37t-31 -12t-29.5 7.5t-21.5 17t-15.5 17t-11.5 7.5q-7 0 -8.5 -10t-1.5 -34h-40v133v133h40q3 -41 7.5 -75t10 -60t12.5 -44t15.5 -27.5t18.5 -9.5q9 0 15.5 10t6.5 37zM88 -51l-17 -9
q12 14 24.5 23t27.5 9q32 0 32 -42q0 -36 -24.5 -52t-70.5 -16v24q29 8 41.5 18.5t12.5 23.5t-11 13q-4 0 -9 -3t-8 -8l-17 5l11 101l18 -2z" />
    <glyph glyph-name="scedilla" unicode="&#x15f;" horiz-adv-x="198" 
d="M123 90q0 34 -7.5 62.5t-19 55t-25.5 51.5q-14 27 -27.5 55.5t-21.5 61t-8 70.5q0 35 7.5 57.5t21 34t31.5 11.5q17 0 25.5 -8.5t13.5 -17.5t11 -9t8 6.5t2 24.5h44v-104.5v-105.5h-36q-9 65 -16 101.5t-14 51t-18 14.5t-15.5 -13t-4.5 -35q0 -37 14 -73t33 -74
q15 -30 30 -62t24.5 -68t9.5 -78q0 -36 -9.5 -59t-24.5 -33.5t-32 -10.5t-28 10.5t-18.5 21t-13.5 10.5t-7.5 -8.5t-1.5 -29.5h-36v115v115h36q3 -36 6.5 -65.5t8 -52.5t10 -39t12.5 -24t15 -8q10 0 15.5 10.5t5.5 38.5zM78 -51l-17 -9q12 14 24.5 23t27.5 9q32 0 32 -42
q0 -36 -24.5 -52t-70.5 -16v24q29 8 41.5 18.5t12.5 23.5t-11 13q-4 0 -9 -3t-8 -8l-17 5l11 101l18 -2z" />
    <glyph glyph-name="Scaron" unicode="&#x160;" horiz-adv-x="213" 
d="M140 97q0 41 -9 75t-22.5 65.5t-29.5 61.5q-16 32 -31 65t-24.5 70.5t-9.5 81.5q0 40 8.5 66t23.5 39.5t36 13.5q20 0 29 -10t14.5 -20.5t12.5 -10.5t9.5 7.5t2.5 28.5h48v-121.5v-121.5h-40q-8 57 -14.5 94.5t-13 59t-13.5 30.5t-15 9q-13 0 -18.5 -14.5t-5.5 -40.5
q0 -43 16.5 -84.5t38.5 -85.5q17 -35 33.5 -73.5t27.5 -81t11 -92.5q0 -39 -9 -64t-23 -37t-31 -12t-29.5 7.5t-21.5 17t-15.5 17t-11.5 7.5q-7 0 -8.5 -10t-1.5 -34h-40v133v133h40q3 -41 7.5 -75t10 -60t12.5 -44t15.5 -27.5t18.5 -9.5q9 0 15.5 10t6.5 37zM103 662
l-68 122l10 11l72 -53h-13l70 53l10 -11l-69 -122h-12z" />
    <glyph glyph-name="scaron" unicode="&#x161;" horiz-adv-x="198" 
d="M123 90q0 34 -7.5 62.5t-19 55t-25.5 51.5q-14 27 -27.5 55.5t-21.5 61t-8 70.5q0 35 7.5 57.5t21 34t31.5 11.5q17 0 25.5 -8.5t13.5 -17.5t11 -9t8 6.5t2 24.5h44v-104.5v-105.5h-36q-9 65 -16 101.5t-14 51t-18 14.5t-15.5 -13t-4.5 -35q0 -37 14 -73t33 -74
q15 -30 30 -62t24.5 -68t9.5 -78q0 -36 -9.5 -59t-24.5 -33.5t-32 -10.5t-28 10.5t-18.5 21t-13.5 10.5t-7.5 -8.5t-1.5 -29.5h-36v115v115h36q3 -36 6.5 -65.5t8 -52.5t10 -39t12.5 -24t15 -8q10 0 15.5 10.5t5.5 38.5zM93 576l-68 122l10 11l72 -53h-13l70 53l10 -11
l-69 -122h-12z" />
    <glyph glyph-name="Tcaron" unicode="&#x164;" horiz-adv-x="241" 
d="M52 0v50q14 0 21 1.5t10.5 6t4 15t0.5 28.5v491h66v-491q0 -18 0.5 -28.5t4 -15t11 -6t20.5 -1.5v-50h-138zM90 580q-11 0 -18.5 -4.5t-12 -26t-7 -72.5t-4.5 -144h-40v148.5v148.5h225v-148.5v-148.5h-41q-2 94 -4.5 145t-7 72.5t-11.5 25.5t-17 4h-62zM114 657l-68 122
l10 11l72 -53h-13l70 53l10 -11l-69 -122h-12z" />
    <glyph glyph-name="tcaron" unicode="&#x165;" horiz-adv-x="176" 
d="M146 560l-17 11q9 21 11.5 35.5t2.5 28.5q0 15 -4 27t-9.5 22t-9.5 19.5t-4 20.5q0 16 6.5 24t16.5 8q17 0 24 -18.5t7 -64.5q0 -29 -3.5 -51t-9 -37t-11.5 -25zM92 654v-574q0 -11 1 -18t3.5 -10t6.5 -3q5 0 8 6.5t4.5 24t1.5 50.5q0 18 -0.5 35.5t-0.5 35.5t-1 37h41
q0 -14 0.5 -27.5t1 -27.5t1 -27.5t0.5 -27.5q0 -34 -3 -59t-11 -41.5t-21.5 -25t-33.5 -8.5q-22 0 -36 9t-21 27.5t-7 48.5v462l10 -46h-32v50q14 0 24.5 6t17 29t6.5 74h40zM82 495v50h76v-50h-76z" />
    <glyph glyph-name="Tbar" unicode="&#x166;" horiz-adv-x="241" 
d="M90 580q-11 0 -18.5 -4t-12 -24t-7 -67t-4.5 -132h-40v138.5v138.5h225v-138.5v-138.5h-41q-1 86 -4 133t-7.5 66.5t-11.5 23.5t-17 4h-62zM52 0v50q14 0 21 1.5t10.5 6t4 15t0.5 28.5v491h66v-491q0 -18 0.5 -28.5t4 -15t11 -6t20.5 -1.5v-50h-138zM120 276h-40h-40v48
q19 -1 40 -1h40h41.5t39.5 1v-48h-40.5h-40.5z" />
    <glyph glyph-name="tbar" unicode="&#x167;" horiz-adv-x="163" 
d="M78 307h-37h-38v48q18 -1 38 -1h37h39.5t37.5 1v-48h-38.5h-38.5zM92 654v-574q0 -11 1 -18t3.5 -10t6.5 -3q5 0 8 6.5t4.5 24t1.5 50.5q0 14 -0.5 29t-0.5 30t-1 30h41q0 -15 1 -30.5t1.5 -30.5t0.5 -30q0 -45 -6 -74.5t-21 -44.5t-42 -15q-22 0 -36 9t-21 27.5t-7 48.5
v462l10 -46h-32v50q14 0 24.5 6t17 29t6.5 74h40zM82 495v50h76v-50h-76z" />
    <glyph glyph-name="Utilde" unicode="&#x168;" horiz-adv-x="238" 
d="M169 115q0 120 -1.5 200t-4.5 129t-8 76t-12 39.5t-17 19.5v51h109v-51q-7 -9 -12.5 -28t-9 -47.5t-3.5 -68.5v-161.5v-160.5q0 -39 -7.5 -65t-26 -39.5t-52.5 -13.5q-36 0 -57 12.5t-30 39t-9 68.5v429q0 13 -0.5 20t-2.5 10.5t-7 4.5t-15 1v50h105v-50q-5 0 -8 -1
t-4 -4.5t-1.5 -10.5t-0.5 -20v-431q0 -28 8.5 -43.5t30.5 -15.5t29 15t7 46zM174 743v16.5t-1 16.5h17q1 -10 1 -16.5v-16.5q0 -47 -9.5 -64t-25.5 -17q-14 0 -23.5 10t-15.5 23.5t-11.5 23.5t-12.5 10q-6 0 -9 -8t-3 -21v-15t1 -17h-17q-1 11 -1 18v14q0 47 10 64t29 17
q14 0 23 -9.5t15 -22.5t11 -22.5t11 -9.5t8.5 7.5t2.5 18.5z" />
    <glyph glyph-name="utilde" unicode="&#x169;" 
d="M144 51l8 19q-3 -22 -9.5 -36.5t-15 -23t-19 -12t-23.5 -3.5q-31 0 -45.5 26.5t-14.5 75.5v369q0 20 -4 25t-18 5v49h90q-1 -26 -1.5 -53t-0.5 -53v-352q0 -14 2.5 -22.5t8 -12.5t13.5 -4q9 0 15.5 5.5t9.5 16t3 25.5v358q0 21 -1.5 30t-7.5 11t-21 2v49h99
q0 -19 -0.5 -38.5t-1 -38.5t-0.5 -39v-357q0 -13 4 -18t17 -5v-49h-72q0 14 0.5 30.5t0.5 40.5l6 -20h-22zM164 662v16.5t-1 16.5h17q1 -10 1 -16.5v-16.5q0 -47 -9.5 -64t-25.5 -17q-14 0 -23.5 10t-15.5 23.5t-11.5 23.5t-12.5 10q-6 0 -9 -8t-3 -21v-15t1 -17h-17
q-1 11 -1 18v14q0 47 10 64t29 17q14 0 23 -9.5t15 -22.5t11 -22.5t11 -9.5t8.5 7.5t2.5 18.5z" />
    <glyph glyph-name="Umacron" unicode="&#x16a;" horiz-adv-x="238" 
d="M169 115q0 120 -1.5 200t-4.5 129t-8 76t-12 39.5t-17 19.5v51h109v-51q-7 -9 -12.5 -28t-9 -47.5t-3.5 -68.5v-161.5v-160.5q0 -39 -7.5 -65t-26 -39.5t-52.5 -13.5q-36 0 -57 12.5t-30 39t-9 68.5v429q0 13 -0.5 20t-2.5 10.5t-7 4.5t-15 1v50h105v-50q-5 0 -8 -1
t-4 -4.5t-1.5 -10.5t-0.5 -20v-431q0 -28 8.5 -43.5t30.5 -15.5t29 15t7 46zM128 678h-19h-22t-19 -1v65q8 0 18.5 -1t22 -1.5t19.5 -0.5t19 0.5t21.5 1.5t18.5 1v-65q-8 1 -18.5 1h-21.5h-19z" />
    <glyph glyph-name="umacron" unicode="&#x16b;" 
d="M144 51l8 19q-3 -22 -9.5 -36.5t-15 -23t-19 -12t-23.5 -3.5q-31 0 -45.5 26.5t-14.5 75.5v369q0 20 -4 25t-18 5v49h90q-1 -26 -1.5 -53t-0.5 -53v-352q0 -14 2.5 -22.5t8 -12.5t13.5 -4q9 0 15.5 5.5t9.5 16t3 25.5v358q0 21 -1.5 30t-7.5 11t-21 2v49h99
q0 -19 -0.5 -38.5t-1 -38.5t-0.5 -39v-357q0 -13 4 -18t17 -5v-49h-72q0 14 0.5 30.5t0.5 40.5l6 -20h-22zM118 597h-19h-22t-19 -1v65q8 0 18.5 -1t22 -1.5t19.5 -0.5t19 0.5t21.5 1.5t18.5 1v-65q-8 1 -18.5 1h-21.5h-19z" />
    <glyph glyph-name="Ubreve" unicode="&#x16c;" horiz-adv-x="238" 
d="M169 115q0 120 -1.5 200t-4.5 129t-8 76t-12 39.5t-17 19.5v51h109v-51q-7 -9 -12.5 -28t-9 -47.5t-3.5 -68.5v-161.5v-160.5q0 -39 -7.5 -65t-26 -39.5t-52.5 -13.5q-36 0 -57 12.5t-30 39t-9 68.5v429q0 13 -0.5 20t-2.5 10.5t-7 4.5t-15 1v50h105v-50q-5 0 -8 -1
t-4 -4.5t-1.5 -10.5t-0.5 -20v-431q0 -28 8.5 -43.5t30.5 -15.5t29 15t7 46zM127 738q18 0 27 4t11.5 11.5t2.5 18.5v5.5v3.5h19q0 -44 -7.5 -68.5t-20.5 -33.5t-32 -9t-32.5 9t-20.5 33.5t-7 68.5h19q-1 -2 -1 -3.5v-5.5q0 -11 3 -18.5t12 -11.5t27 -4z" />
    <glyph glyph-name="ubreve" unicode="&#x16d;" 
d="M144 51l8 19q-3 -22 -9.5 -36.5t-15 -23t-19 -12t-23.5 -3.5q-31 0 -45.5 26.5t-14.5 75.5v369q0 20 -4 25t-18 5v49h90q-1 -26 -1.5 -53t-0.5 -53v-352q0 -14 2.5 -22.5t8 -12.5t13.5 -4q9 0 15.5 5.5t9.5 16t3 25.5v358q0 21 -1.5 30t-7.5 11t-21 2v49h99
q0 -19 -0.5 -38.5t-1 -38.5t-0.5 -39v-357q0 -13 4 -18t17 -5v-49h-72q0 14 0.5 30.5t0.5 40.5l6 -20h-22zM117 657q18 0 27 4t11.5 11.5t2.5 18.5v5.5v3.5h19q0 -44 -7.5 -68.5t-20.5 -33.5t-32 -9t-32.5 9t-20.5 33.5t-7 68.5h19q-1 -2 -1 -3.5v-5.5q0 -11 3 -18.5
t12 -11.5t27 -4z" />
    <glyph glyph-name="Uring" unicode="&#x16e;" horiz-adv-x="238" 
d="M169 115q0 120 -1.5 200t-4.5 129t-8 76t-12 39.5t-17 19.5v51h109v-51q-7 -9 -12.5 -28t-9 -47.5t-3.5 -68.5v-161.5v-160.5q0 -39 -7.5 -65t-26 -39.5t-52.5 -13.5q-36 0 -57 12.5t-30 39t-9 68.5v429q0 13 -0.5 20t-2.5 10.5t-7 4.5t-15 1v50h105v-50q-5 0 -8 -1
t-4 -4.5t-1.5 -10.5t-0.5 -20v-431q0 -28 8.5 -43.5t30.5 -15.5t29 15t7 46zM193 732q0 -31 -19.5 -50.5t-48.5 -19.5q-28 0 -46 19.5t-18 50.5t18 50t46 19q29 0 48.5 -19t19.5 -50zM85 732q0 -21 12 -33.5t28 -12.5q18 0 30.5 12.5t12.5 33.5q0 20 -12.5 32.5t-30.5 12.5
q-16 0 -28 -12.5t-12 -32.5z" />
    <glyph glyph-name="uring" unicode="&#x16f;" 
d="M144 51l8 19q-3 -22 -9.5 -36.5t-15 -23t-19 -12t-23.5 -3.5q-31 0 -45.5 26.5t-14.5 75.5v369q0 20 -4 25t-18 5v49h90q-1 -26 -1.5 -53t-0.5 -53v-352q0 -14 2.5 -22.5t8 -12.5t13.5 -4q9 0 15.5 5.5t9.5 16t3 25.5v358q0 21 -1.5 30t-7.5 11t-21 2v49h99
q0 -19 -0.5 -38.5t-1 -38.5t-0.5 -39v-357q0 -13 4 -18t17 -5v-49h-72q0 14 0.5 30.5t0.5 40.5l6 -20h-22zM183 651q0 -31 -19.5 -50.5t-48.5 -19.5q-28 0 -46 19.5t-18 50.5t18 50t46 19q29 0 48.5 -19t19.5 -50zM75 651q0 -21 12 -33.5t28 -12.5q18 0 30.5 12.5t12.5 33.5
q0 20 -12.5 32.5t-30.5 12.5q-16 0 -28 -12.5t-12 -32.5z" />
    <glyph glyph-name="Uhungarumlaut" unicode="&#x170;" horiz-adv-x="238" 
d="M169 115q0 120 -1.5 200t-4.5 129t-8 76t-12 39.5t-17 19.5v51h109v-51q-7 -9 -12.5 -28t-9 -47.5t-3.5 -68.5v-161.5v-160.5q0 -39 -7.5 -65t-26 -39.5t-52.5 -13.5q-36 0 -57 12.5t-30 39t-9 68.5v429q0 13 -0.5 20t-2.5 10.5t-7 4.5t-15 1v50h105v-50q-5 0 -8 -1
t-4 -4.5t-1.5 -10.5t-0.5 -20v-431q0 -28 8.5 -43.5t30.5 -15.5t29 15t7 46zM119 658l-15 5l15 118h46v-26zM181 658l-16 5l16 118h46v-26z" />
    <glyph glyph-name="uhungarumlaut" unicode="&#x171;" 
d="M144 51l8 19q-3 -22 -9.5 -36.5t-15 -23t-19 -12t-23.5 -3.5q-31 0 -45.5 26.5t-14.5 75.5v369q0 20 -4 25t-18 5v49h90q-1 -26 -1.5 -53t-0.5 -53v-352q0 -14 2.5 -22.5t8 -12.5t13.5 -4q9 0 15.5 5.5t9.5 16t3 25.5v358q0 21 -1.5 30t-7.5 11t-21 2v49h99
q0 -19 -0.5 -38.5t-1 -38.5t-0.5 -39v-357q0 -13 4 -18t17 -5v-49h-72q0 14 0.5 30.5t0.5 40.5l6 -20h-22zM109 577l-15 5l15 118h46v-26zM171 577l-16 5l16 118h46v-26z" />
    <glyph glyph-name="Uogonek" unicode="&#x172;" horiz-adv-x="238" 
d="M154 -59l15 -4q-1 -24 -6 -41t-15 -26t-27 -9q-20 0 -30.5 13.5t-10.5 40.5q0 20 6.5 35.5t17 27.5t22.5 20.5t23 15.5l3 -6q-22 -12 -30 -29.5t-8 -40.5q0 -24 16 -24q10 0 15 7t9 20zM169 115q0 120 -1.5 200t-4.5 129t-8 76t-12 39.5t-17 19.5v51h109v-51
q-7 -9 -12.5 -28t-9 -47.5t-3.5 -68.5v-161.5v-160.5q0 -39 -7.5 -65t-26 -39.5t-52.5 -13.5q-36 0 -57 12.5t-30 39t-9 68.5v429q0 13 -0.5 20t-2.5 10.5t-7 4.5t-15 1v50h105v-50q-5 0 -8 -1t-4 -4.5t-1.5 -10.5t-0.5 -20v-431q0 -28 8.5 -43.5t30.5 -15.5t29 15t7 46z
" />
    <glyph glyph-name="uogonek" unicode="&#x173;" 
d="M144 51l8 19q-3 -22 -9.5 -36.5t-15 -23t-19 -12t-23.5 -3.5q-31 0 -45.5 26.5t-14.5 75.5v369q0 20 -4 25t-18 5v49h90q-1 -26 -1.5 -53t-0.5 -53v-352q0 -14 2.5 -22.5t8 -12.5t13.5 -4q9 0 15.5 5.5t9.5 16t3 25.5v358q0 21 -1.5 30t-7.5 11t-21 2v49h99
q0 -19 -0.5 -38.5t-1 -38.5t-0.5 -39v-357q0 -13 4 -18t17 -5v-49h-72q0 14 0.5 30.5t0.5 40.5l6 -20h-22zM219 -59l15 -4q-1 -24 -6 -41t-15 -26t-27 -9q-41 0 -41 54q0 27 12.5 46t31.5 30.5t40 14.5l2 -6q-24 -6 -38 -22.5t-14 -39.5q0 -24 16 -24q10 0 15 6.5t9 20.5z
" />
    <glyph glyph-name="Wcircumflex" unicode="&#x174;" horiz-adv-x="360" 
d="M172 331h10q-4 -37 -7 -81.5t-8 -97.5q-2 -34 -4.5 -71.5t-4.5 -80.5h-90q-6 68 -11.5 136t-11.5 136l-12 136l-12 136q-1 12 -3 19t-6.5 11t-11.5 6v50h248v-50q-10 0 -16 -3.5t-7.5 -14t-0.5 -30.5l37 -529l-21 56h43l-23 -56q10 151 15 252t7 162t0.5 94t-6 46.5
t-10.5 20.5v52h94v-52q-7 -7 -13 -27.5t-11.5 -65.5t-12.5 -125t-17 -208q-3 -34 -5 -71.5t-4 -80.5h-97q-4 55 -9 110.5t-9.5 110.5t-9.5 110zM117 595h19q-18 -4 -28.5 -11t-14.5 -17.5t-3 -24.5l41 -539l-23 56h48l-25 -56q9 110 14.5 185t9 124t4.5 82t1 60
q0 26 -1.5 47t-4.5 37t-8 27.5t-12 18.5t-17 11zM187 791l68 -122l-10 -11l-72 53h13l-70 -53l-10 11l69 122h12z" />
    <glyph glyph-name="wcircumflex" unicode="&#x175;" horiz-adv-x="335" 
d="M139 0h-87l-8 102t-8.5 102.5t-8.5 102.5l-8 102q-2 29 -4.5 46.5t-5.5 27.5t-9 13v49h223v-49q-6 -6 -8.5 -26t0.5 -63l29 -404l-21 44h41l-17 -44q7 109 11 187t6 130t2 81q0 32 -2.5 50.5t-8 28.5t-13.5 15v50h93v-50q-6 -6 -10.5 -21t-9 -47t-9.5 -86.5t-11.5 -138
t-14.5 -202.5h-101q-4 52 -8.5 104t-8.5 104t-9 104h8q-4 -53 -9.5 -129.5t-12.5 -182.5zM106 507h11q-13 -8 -21 -20t-11 -30.5t-1 -49.5l29 -404l-17 44h41l-22 -45q9 110 16 191t10.5 135t-0.5 83l-2 17q-2 16 -4.5 28.5t-6.5 21.5t-9 16t-13 13zM189 710l68 -122
l-10 -11l-72 53h13l-70 -53l-10 11l69 122h12z" />
    <glyph glyph-name="Ycircumflex" unicode="&#x176;" 
d="M88 210h67q0 -56 0.5 -88.5t3.5 -48t10.5 -19.5t21.5 -4v-50h-139v50q14 0 21.5 4t10.5 19.5t3.5 48t0.5 88.5zM133 245l-18 24h33l-11 -23q10 106 14 169.5t3.5 97.5t-5 47.5t-13.5 19.5v50h98v-50q-11 -9 -20 -39.5t-18 -83t-19 -127t-23 -171.5h-64l-58 320
q-5 30 -9 50.5t-9 33t-14 16.5v51h115v-50q-13 0 -18 -27.5t2 -75.5zM131 791l68 -122l-10 -11l-72 53h13l-70 -53l-10 11l69 122h12z" />
    <glyph glyph-name="ycircumflex" unicode="&#x177;" horiz-adv-x="206" 
d="M47 -86q36 1 51 21.5t15 55.5q0 17 -6.5 23t-17.5 6h-35l-36 400q-3 32 -5.5 48t-5 21.5t-7.5 6.5v49h96v-49q-10 -3 -12.5 -11t-0.5 -37l30 -402l-12 29h35l-14 -30q6 110 9.5 185.5t4 124t-1.5 77t-6.5 42.5t-12.5 21v50h91v-50q-7 -9 -11 -25t-7.5 -48t-7.5 -86.5
t-10 -138t-15 -204.5q-4 -60 -26 -85.5t-58 -25.5q-39 0 -54 20.5t-15 45.5q0 23 11 37.5t33 14.5q20 0 28.5 -9.5t8.5 -26.5q0 -18 -12.5 -28.5t-31.5 -8.5l14 19l2 -38zM117 710l68 -122l-10 -11l-72 53h13l-70 -53l-10 11l69 122h12z" />
    <glyph glyph-name="Ydieresis" unicode="&#x178;" 
d="M88 210h67q0 -56 0.5 -88.5t3.5 -48t10.5 -19.5t21.5 -4v-50h-139v50q14 0 21.5 4t10.5 19.5t3.5 48t0.5 88.5zM133 245l-18 24h33l-11 -23q10 106 14 169.5t3.5 97.5t-5 47.5t-13.5 19.5v50h98v-50q-11 -9 -20 -39.5t-18 -83t-19 -127t-23 -171.5h-64l-58 320
q-5 30 -9 50.5t-9 33t-14 16.5v51h115v-50q-13 0 -18 -27.5t2 -75.5zM162 783q14 0 21.5 -15.5t7.5 -42.5q0 -26 -7.5 -41.5t-21.5 -15.5q-13 0 -20.5 15.5t-7.5 41.5q0 28 7.5 43t20.5 15zM85 783q14 0 21.5 -15.5t7.5 -42.5q0 -26 -7.5 -41.5t-21.5 -15.5
q-13 0 -20.5 15.5t-7.5 41.5q0 28 7.5 43t20.5 15z" />
    <glyph glyph-name="Zacute" unicode="&#x179;" horiz-adv-x="237" 
d="M18 333v148.5v148.5h203v-60q-3 -12 -9 -32t-16 -53t-24 -84t-34 -127l-60 -231l-5 7h16.5h16.5q20 0 31 12t17.5 42t12 82.5t12.5 133.5h40v-160v-160h-211v60q7 17 14.5 40t17.5 57t23 82.5t31 116.5l62 241l5 -17h-22.5h-22.5t-18.5 -3t-12.5 -15t-8.5 -38t-8 -72.5
t-10.5 -118.5h-40zM98 657l81 98v26h-79l-21 -114z" />
    <glyph glyph-name="zacute" unicode="&#x17a;" horiz-adv-x="216" 
d="M20 291v127v127h173v-60q-3 -11 -7.5 -26.5t-12.5 -42.5t-19.5 -70t-27.5 -109l-52 -211l-12 24h22q19 0 29.5 5t16.5 25t11 66t12 128h40v-71.5v-102v-100.5h-180v59q7 22 16 49.5t22 74t32 125.5l49 205l2 -16h-15q-16 0 -25.5 -4.5t-15 -23.5t-9.5 -61t-9 -117h-40z
M79 576l81 98v26h-79l-21 -114z" />
    <glyph glyph-name="Zdotaccent" unicode="&#x17b;" horiz-adv-x="237" 
d="M18 333v148.5v148.5h203v-60q-3 -12 -9 -32t-16 -53t-24 -84t-34 -127l-60 -231l-5 7h16.5h16.5q20 0 31 12t17.5 42t12 82.5t12.5 133.5h40v-160v-160h-211v60q7 17 14.5 40t17.5 57t23 82.5t31 116.5l62 241l5 -17h-22.5h-22.5t-18.5 -3t-12.5 -15t-8.5 -38t-8 -72.5
t-10.5 -118.5h-40zM122 783q14 0 21.5 -15.5t7.5 -42.5q0 -26 -7.5 -41.5t-21.5 -15.5q-13 0 -20.5 15.5t-7.5 41.5q0 28 7.5 43t20.5 15z" />
    <glyph glyph-name="zdotaccent" unicode="&#x17c;" horiz-adv-x="216" 
d="M20 291v127v127h173v-60q-3 -11 -7.5 -26.5t-12.5 -42.5t-19.5 -70t-27.5 -109l-52 -211l-12 24h22q19 0 29.5 5t16.5 25t11 66t12 128h40v-71.5v-102v-100.5h-180v59q7 22 16 49.5t22 74t32 125.5l49 205l2 -16h-15q-16 0 -25.5 -4.5t-15 -23.5t-9.5 -61t-9 -117h-40z
M103 702q14 0 21.5 -15.5t7.5 -42.5q0 -26 -7.5 -41.5t-21.5 -15.5q-13 0 -20.5 15.5t-7.5 41.5q0 28 7.5 43t20.5 15z" />
    <glyph glyph-name="Zcaron" unicode="&#x17d;" horiz-adv-x="237" 
d="M18 333v148.5v148.5h203v-60q-3 -12 -9 -32t-16 -53t-24 -84t-34 -127l-60 -231l-5 7h16.5h16.5q20 0 31 12t17.5 42t12 82.5t12.5 133.5h40v-160v-160h-211v60q7 17 14.5 40t17.5 57t23 82.5t31 116.5l62 241l5 -17h-22.5h-22.5t-18.5 -3t-12.5 -15t-8.5 -38t-8 -72.5
t-10.5 -118.5h-40zM116 657l-68 122l10 11l72 -53h-13l70 53l10 -11l-69 -122h-12z" />
    <glyph glyph-name="zcaron" unicode="&#x17e;" horiz-adv-x="216" 
d="M20 291v127v127h173v-60q-3 -11 -7.5 -26.5t-12.5 -42.5t-19.5 -70t-27.5 -109l-52 -211l-12 24h22q19 0 29.5 5t16.5 25t11 66t12 128h40v-71.5v-102v-100.5h-180v59q7 22 16 49.5t22 74t32 125.5l49 205l2 -16h-15q-16 0 -25.5 -4.5t-15 -23.5t-9.5 -61t-9 -117h-40z
M97 576l-68 122l10 11l72 -53h-13l70 53l10 -11l-69 -122h-12z" />
    <glyph glyph-name="Aringacute" unicode="&#x1fa;" horiz-adv-x="256" 
d="M0 50q7 3 13.5 26.5t12.5 61.5t11 84.5t9.5 95.5t7.5 94t4.5 81.5t1.5 56.5q0 18 -6 24t-23 6v50h152q1 -16 4.5 -58t9 -99.5t12 -122t12.5 -128t11 -115.5q2 -18 5 -29.5t8 -17.5t11 -10v-50h-124v50q20 0 29 14.5t7 42.5l-42 495l25 -31h-46l14 31
q-11 -152 -18.5 -250.5t-11 -156.5t-3.5 -90q0 -16 3.5 -26t11 -16.5t18.5 -12.5v-50h-119v50zM58 219v48q15 -1 30.5 -1h30.5h26.5t25.5 1v-48q-13 1 -25.5 1h-26.5h-30.5t-30.5 -1zM188 718q0 -31 -19.5 -50.5t-48.5 -19.5q-28 0 -46 19.5t-18 50.5t18 50t46 19
q29 0 48.5 -19t19.5 -50zM80 718q0 -21 12 -33.5t28 -12.5q18 0 30.5 12.5t12.5 33.5q0 20 -12.5 32.5t-30.5 12.5q-16 0 -28 -12.5t-12 -32.5zM98 801l81 98v26h-79l-21 -114z" />
    <glyph glyph-name="aringacute" unicode="&#x1fb;" horiz-adv-x="221" 
d="M118 96l9 -30q-2 -17 -9.5 -33t-20 -26.5t-30.5 -10.5q-23 0 -36 21t-18.5 61.5t-5.5 96.5q0 57 7.5 91t23 52t38.5 26q15 5 24 11t12.5 13t4.5 17.5t1 24.5l5 -61q-7 -8 -14 -15t-12.5 -15t-10 -19t-7.5 -27t-4.5 -38.5t-1.5 -54.5q0 -47 1.5 -75.5t6.5 -41t15 -12.5
q7 0 12 5.5t7.5 15.5t2.5 24zM13 448q0 33 10.5 56t30 34.5t45.5 11.5q33 0 51.5 -11t26.5 -35.5t8 -66.5v-47v-81.5t-0.5 -94.5t-0.5 -86.5v-57.5q0 -7 0.5 -11.5t2 -6.5t4.5 -2t5.5 5.5t4 23.5t1.5 56t-2 103h17q5 -77 4 -125t-6.5 -73.5t-15 -34.5t-23.5 -9t-23 6t-14 18
t-5 31h-16v397q0 26 -9 39t-27 13q-14 0 -27.5 -5t-25.5 -15l11 21l12 -36l-23 7q9 4 15.5 5.5t13.5 1.5q11 0 18.5 -4.5t11.5 -14.5t4 -26q0 -14 -3.5 -26t-11.5 -19t-23 -7q-20 0 -30.5 16t-10.5 50zM171 635q0 -31 -19.5 -50.5t-48.5 -19.5q-28 0 -46 19.5t-18 50.5
t18 50t46 19q29 0 48.5 -19t19.5 -50zM63 635q0 -21 12 -33.5t28 -12.5q18 0 30.5 12.5t12.5 33.5q0 20 -12.5 32.5t-30.5 12.5q-16 0 -28 -12.5t-12 -32.5zM81 720l81 98v26h-79l-21 -114z" />
    <glyph glyph-name="AEacute" unicode="&#x1fc;" horiz-adv-x="368" 
d="M219 303v42q16 1 23 10t9.5 32t2.5 67h34q-1 -34 -1 -67.5v-63.5q0 -28 0.5 -61.5t1.5 -66.5h-35q0 44 -2 66.5t-9 31.5t-24 10zM57 219v48q15 -1 30.5 -1h30.5h26.5t25.5 1v-48q-13 1 -25.5 1h-26.5h-30.5t-30.5 -1zM-1 0v50q7 3 14 30t14.5 70t14 94t12.5 103t10 97
t6.5 75t2.5 38q0 14 -6 18.5t-23 4.5v50h306v-116.5v-117.5h-40q0 63 -3 100t-12 55t-27 23.5t-49 5.5l2 4v-536v2q30 0 47.5 5.5t26.5 26t12.5 63t5.5 115.5h40v-130v-130h-223v50q10 0 15 1t7 3.5t2.5 9t0.5 16.5v524l23 -24h-74l28 22q-5 -50 -11 -111t-12.5 -123.5
t-11.5 -118.5t-8.5 -98t-3.5 -60q0 -13 7 -24.5t26 -16.5v-50h-119zM189 657l81 98v26h-79l-21 -114z" />
    <glyph glyph-name="aeacute" unicode="&#x1fd;" horiz-adv-x="314" 
d="M118 100l9 -30q-3 -25 -10.5 -41.5t-19 -24.5t-27.5 -8q-24 0 -38 21t-19.5 61.5t-5.5 96.5q0 57 7.5 91t23 52t38.5 26q15 5 24 11t12.5 13t4.5 17.5t1 24.5l5 -61q-7 -8 -14 -15t-12.5 -15t-10 -19t-7.5 -27t-4.5 -38.5t-1.5 -54.5q0 -45 1.5 -72.5t6.5 -40t15 -12.5
q7 0 12 5.5t7.5 15.5t2.5 24zM151 68h-33v380q0 26 -9 39t-27 13q-14 0 -27.5 -5t-25.5 -15l11 21l12 -36l-23 7q9 4 15.5 5.5t13.5 1.5q11 0 18.5 -4.5t11.5 -14.5t4 -26q0 -14 -3.5 -26t-11.5 -19t-23 -7q-20 0 -30.5 16t-10.5 50q0 33 10 56t28 34.5t42 11.5
q27 0 42.5 -11t22 -37t6.5 -70l-14 1q4 42 12 68t23.5 38t41.5 12q32 0 48 -31.5t21.5 -85t5.5 -121.5v-26v-27h-74h-75v42h46h46l-2 -19q0 73 -2 117t-5.5 66t-9 29t-11.5 7q-7 0 -12.5 -7t-9 -29t-5 -65.5t-1.5 -116.5q0 -65 1.5 -109.5t5.5 -71t12 -38.5t20 -12
q15 0 22 16t9.5 51.5t2.5 93.5h42q0 -67 -6 -116.5t-23.5 -76.5t-52.5 -27q-18 0 -33 5.5t-27 19t-20 36.5t-13 59zM156 576l81 98v26h-79l-21 -114z" />
    <glyph glyph-name="Oslashacute" unicode="&#x1fe;" horiz-adv-x="244" 
d="M4 -1q4 11 10.5 31t14.5 44.5t14 48.5l16 6q11 41 22.5 87.5t24.5 96.5t25.5 99.5t24.5 95.5l14 17q11 33 22 64.5t15 48.5q5 -1 12.5 -3t13.5 -4q-6 -18 -17.5 -51.5t-24.5 -73.5l-21 -27q-11 -43 -23.5 -90.5t-25.5 -97t-25 -97.5t-22 -91l-17 -3q-8 -30 -17.5 -60.5
t-12.5 -46.5q-7 2 -12.5 3.5t-10.5 2.5zM226 314q0 -126 -11 -195.5t-34.5 -97t-62.5 -27.5q-28 0 -48.5 14t-33.5 49.5t-18.5 98t-5.5 158.5t6 159t18.5 98.5t33 50t48.5 14.5q39 0 62.5 -28t34.5 -98t11 -196zM158 315q0 84 -2.5 136t-7.5 80.5t-12.5 39t-17.5 10.5
t-17.5 -10.5t-12 -39t-7 -81t-2.5 -135.5q0 -82 2.5 -134.5t7 -80.5t12 -39t17.5 -11t17.5 10.5t12.5 38.5t7.5 80t2.5 136zM107 657l81 98v26h-79l-21 -114z" />
    <glyph glyph-name="oslashacute" unicode="&#x1ff;" horiz-adv-x="225" 
d="M4 -1q4 11 10.5 31t14.5 44.5t14 48.5l18 6q8 33 18 70.5t20 77.5t20.5 79.5t20.5 76.5l9 7q11 33 22 64.5t15 48.5q5 -1 12.5 -3t13.5 -4q-6 -18 -17.5 -51.5t-24.5 -73.5l-16 -17q-9 -34 -19 -72.5t-20.5 -78t-20.5 -77.5t-18 -73l-19 -3q-8 -30 -17.5 -60.5
t-12.5 -46.5q-7 2 -12.5 3.5t-10.5 2.5zM206 277q0 -80 -5.5 -134.5t-17 -87t-29.5 -47t-44 -14.5t-44.5 14t-30.5 46t-17 87t-5 136t5.5 134.5t17.5 84t30 43t44 12.5t44 -13t29.5 -44t17 -84t5.5 -133zM141 278q0 72 -2 115.5t-6 65.5t-10 29.5t-13 7.5q-8 0 -14 -7.5
t-10 -29.5t-6 -65.5t-2 -115.5t2 -117t6 -69.5t10 -33.5t14 -9q7 0 13 9.5t10 34t6 69.5t2 116zM95 576l81 98v26h-79l-21 -114z" />
    <glyph glyph-name="Scommaaccent" unicode="&#x218;" horiz-adv-x="213" 
d="M140 97q0 41 -9 75t-22.5 65.5t-29.5 61.5q-16 32 -31 65t-24.5 70.5t-9.5 81.5q0 40 8.5 66t23.5 39.5t36 13.5q20 0 29 -10t14.5 -20.5t12.5 -10.5t9.5 7.5t2.5 28.5h48v-121.5v-121.5h-40q-8 57 -14.5 94.5t-13 59t-13.5 30.5t-15 9q-13 0 -18.5 -14.5t-5.5 -40.5
q0 -43 16.5 -84.5t38.5 -85.5q17 -35 33.5 -73.5t27.5 -81t11 -92.5q0 -39 -9 -64t-23 -37t-31 -12t-29.5 7.5t-21.5 17t-15.5 17t-11.5 7.5q-7 0 -8.5 -10t-1.5 -34h-40v133v133h40q3 -41 7.5 -75t10 -60t12.5 -44t15.5 -27.5t18.5 -9.5q9 0 15.5 10t6.5 37zM70 -152v27
q25 0 39 12t14 23q0 7 -7 7q-4 0 -7 -2.5t-11 -2.5q-10 0 -18.5 8t-8.5 24q0 17 9.5 27t29.5 10q19 0 29 -11.5t10 -37.5q0 -38 -19 -61t-60 -23z" />
    <glyph glyph-name="scommaaccent" unicode="&#x219;" horiz-adv-x="198" 
d="M123 90q0 34 -7.5 62.5t-19 55t-25.5 51.5q-14 27 -27.5 55.5t-21.5 61t-8 70.5q0 35 7.5 57.5t21 34t31.5 11.5q17 0 25.5 -8.5t13.5 -17.5t11 -9t8 6.5t2 24.5h44v-104.5v-105.5h-36q-9 65 -16 101.5t-14 51t-18 14.5t-15.5 -13t-4.5 -35q0 -37 14 -73t33 -74
q15 -30 30 -62t24.5 -68t9.5 -78q0 -36 -9.5 -59t-24.5 -33.5t-32 -10.5t-28 10.5t-18.5 21t-13.5 10.5t-7.5 -8.5t-1.5 -29.5h-36v115v115h36q3 -36 6.5 -65.5t8 -52.5t10 -39t12.5 -24t15 -8q10 0 15.5 10.5t5.5 38.5zM60 -152v27q25 0 39 12t14 23q0 7 -7 7q-4 0 -7 -2.5
t-11 -2.5q-10 0 -18.5 8t-8.5 24q0 17 9.5 27t29.5 10q19 0 29 -11.5t10 -37.5q0 -38 -19 -61t-60 -23z" />
    <glyph glyph-name="uni021A" unicode="&#x21a;" horiz-adv-x="241" 
d="M52 0v50q14 0 21 1.5t10.5 6t4 15t0.5 28.5v491h66v-491q0 -18 0.5 -28.5t4 -15t11 -6t20.5 -1.5v-50h-138zM90 580q-11 0 -18.5 -4.5t-12 -26t-7 -72.5t-4.5 -144h-40v148.5v148.5h225v-148.5v-148.5h-41q-2 94 -4.5 145t-7 72.5t-11.5 25.5t-17 4h-62zM81 -152v27
q25 0 39 12t14 23q0 7 -7 7q-4 0 -7 -2.5t-11 -2.5q-10 0 -18.5 8t-8.5 24q0 17 9.5 27t29.5 10q19 0 29 -11.5t10 -37.5q0 -38 -19 -61t-60 -23z" />
    <glyph glyph-name="uni021B" unicode="&#x21b;" horiz-adv-x="163" 
d="M92 654v-574q0 -11 1 -18t3.5 -10t6.5 -3q5 0 8 6.5t4.5 24t1.5 50.5q0 18 -0.5 35.5t-0.5 35.5t-1 37h41q0 -14 0.5 -27.5t1 -27.5t1 -27.5t0.5 -27.5q0 -34 -3 -59t-11 -41.5t-21.5 -25t-33.5 -8.5q-22 0 -36 9t-21 27.5t-7 48.5v462l10 -46h-32v50q14 0 24.5 6t17 29
t6.5 74h40zM82 495v50h76v-50h-76zM48 -152v27q25 0 39 12t14 23q0 7 -7 7q-4 0 -7 -2.5t-11 -2.5q-10 0 -18.5 8t-8.5 24q0 17 9.5 27t29.5 10q19 0 29 -11.5t10 -37.5q0 -38 -19 -61t-60 -23z" />
    <glyph glyph-name="circumflex" unicode="&#x2c6;" horiz-adv-x="155" 
d="M84 710l68 -122l-10 -11l-72 53h13l-70 -53l-10 11l69 122h12z" />
    <glyph glyph-name="caron" unicode="&#x2c7;" horiz-adv-x="155" 
d="M71 576l-68 122l10 11l72 -53h-13l70 53l10 -11l-69 -122h-12z" />
    <glyph glyph-name="breve" unicode="&#x2d8;" horiz-adv-x="134" 
d="M67 657q18 0 27 4t11.5 11.5t2.5 18.5v5.5v3.5h19q0 -44 -7.5 -68.5t-20.5 -33.5t-32 -9t-32.5 9t-20.5 33.5t-7 68.5h19q-1 -2 -1 -3.5v-5.5q0 -11 3 -18.5t12 -11.5t27 -4z" />
    <glyph glyph-name="dotaccent" unicode="&#x2d9;" horiz-adv-x="69" 
d="M34 702q14 0 21.5 -15.5t7.5 -42.5q0 -26 -7.5 -41.5t-21.5 -15.5q-13 0 -20.5 15.5t-7.5 41.5q0 28 7.5 43t20.5 15z" />
    <glyph glyph-name="ring" unicode="&#x2da;" horiz-adv-x="146" 
d="M139 651q0 -31 -19.5 -50.5t-48.5 -19.5q-28 0 -46 19.5t-18 50.5t18 50t46 19q29 0 48.5 -19t19.5 -50zM31 651q0 -21 12 -33.5t28 -12.5q18 0 30.5 12.5t12.5 33.5q0 20 -12.5 32.5t-30.5 12.5q-16 0 -28 -12.5t-12 -32.5z" />
    <glyph glyph-name="ogonek" unicode="&#x2db;" horiz-adv-x="98" 
d="M77 -59l15 -4q-1 -24 -6 -41t-15 -26t-27 -9q-41 0 -41 54q0 27 12.5 46t31.5 30.5t40 14.5l2 -6q-24 -6 -38 -22.5t-14 -39.5q0 -24 16 -24q10 0 15 6.5t9 20.5z" />
    <glyph glyph-name="tilde" unicode="&#x2dc;" horiz-adv-x="140" 
d="M116 662v16.5t-1 16.5h17q1 -10 1 -16.5v-16.5q0 -47 -9.5 -64t-25.5 -17q-14 0 -23.5 10t-15.5 23.5t-11.5 23.5t-12.5 10q-6 0 -9 -8t-3 -21v-15t1 -17h-17q-1 11 -1 18v14q0 47 10 64t29 17q14 0 23 -9.5t15 -22.5t11 -22.5t11 -9.5t8.5 7.5t2.5 18.5z" />
    <glyph glyph-name="hungarumlaut" unicode="&#x2dd;" horiz-adv-x="134" 
d="M20 577l-15 5l15 118h46v-26zM82 577l-16 5l16 118h46v-26z" />
    <glyph glyph-name="Wgrave" unicode="&#x1e80;" horiz-adv-x="360" 
d="M172 331h10q-4 -37 -7 -81.5t-8 -97.5q-2 -34 -4.5 -71.5t-4.5 -80.5h-90q-6 68 -11.5 136t-11.5 136l-12 136l-12 136q-1 12 -3 19t-6.5 11t-11.5 6v50h248v-50q-10 0 -16 -3.5t-7.5 -14t-0.5 -30.5l37 -529l-21 56h43l-23 -56q10 151 15 252t7 162t0.5 94t-6 46.5
t-10.5 20.5v52h94v-52q-7 -7 -13 -27.5t-11.5 -65.5t-12.5 -125t-17 -208q-3 -34 -5 -71.5t-4 -80.5h-97q-4 55 -9 110.5t-9.5 110.5t-9.5 110zM117 595h19q-18 -4 -28.5 -11t-14.5 -17.5t-3 -24.5l41 -539l-23 56h48l-25 -56q9 110 14.5 185t9 124t4.5 82t1 60
q0 26 -1.5 47t-4.5 37t-8 27.5t-12 18.5t-17 11zM201 657l-81 98v26h79l21 -114z" />
    <glyph glyph-name="wgrave" unicode="&#x1e81;" horiz-adv-x="335" 
d="M139 0h-87l-8 102t-8.5 102.5t-8.5 102.5l-8 102q-2 29 -4.5 46.5t-5.5 27.5t-9 13v49h223v-49q-6 -6 -8.5 -26t0.5 -63l29 -404l-21 44h41l-17 -44q7 109 11 187t6 130t2 81q0 32 -2.5 50.5t-8 28.5t-13.5 15v50h93v-50q-6 -6 -10.5 -21t-9 -47t-9.5 -86.5t-11.5 -138
t-14.5 -202.5h-101q-4 52 -8.5 104t-8.5 104t-9 104h8q-4 -53 -9.5 -129.5t-12.5 -182.5zM106 507h11q-13 -8 -21 -20t-11 -30.5t-1 -49.5l29 -404l-17 44h41l-22 -45q9 110 16 191t10.5 135t-0.5 83l-2 17q-2 16 -4.5 28.5t-6.5 21.5t-9 16t-13 13zM203 576l-81 98v26h79
l21 -114z" />
    <glyph glyph-name="Wacute" unicode="&#x1e82;" horiz-adv-x="360" 
d="M172 331h10q-4 -37 -7 -81.5t-8 -97.5q-2 -34 -4.5 -71.5t-4.5 -80.5h-90q-6 68 -11.5 136t-11.5 136l-12 136l-12 136q-1 12 -3 19t-6.5 11t-11.5 6v50h248v-50q-10 0 -16 -3.5t-7.5 -14t-0.5 -30.5l37 -529l-21 56h43l-23 -56q10 151 15 252t7 162t0.5 94t-6 46.5
t-10.5 20.5v52h94v-52q-7 -7 -13 -27.5t-11.5 -65.5t-12.5 -125t-17 -208q-3 -34 -5 -71.5t-4 -80.5h-97q-4 55 -9 110.5t-9.5 110.5t-9.5 110zM117 595h19q-18 -4 -28.5 -11t-14.5 -17.5t-3 -24.5l41 -539l-23 56h48l-25 -56q9 110 14.5 185t9 124t4.5 82t1 60
q0 26 -1.5 47t-4.5 37t-8 27.5t-12 18.5t-17 11zM156 657l81 98v26h-79l-21 -114z" />
    <glyph glyph-name="wacute" unicode="&#x1e83;" horiz-adv-x="335" 
d="M139 0h-87l-8 102t-8.5 102.5t-8.5 102.5l-8 102q-2 29 -4.5 46.5t-5.5 27.5t-9 13v49h223v-49q-6 -6 -8.5 -26t0.5 -63l29 -404l-21 44h41l-17 -44q7 109 11 187t6 130t2 81q0 32 -2.5 50.5t-8 28.5t-13.5 15v50h93v-50q-6 -6 -10.5 -21t-9 -47t-9.5 -86.5t-11.5 -138
t-14.5 -202.5h-101q-4 52 -8.5 104t-8.5 104t-9 104h8q-4 -53 -9.5 -129.5t-12.5 -182.5zM106 507h11q-13 -8 -21 -20t-11 -30.5t-1 -49.5l29 -404l-17 44h41l-22 -45q9 110 16 191t10.5 135t-0.5 83l-2 17q-2 16 -4.5 28.5t-6.5 21.5t-9 16t-13 13zM158 576l81 98v26h-79
l-21 -114z" />
    <glyph glyph-name="Wdieresis" unicode="&#x1e84;" horiz-adv-x="360" 
d="M172 331h10q-4 -37 -7 -81.5t-8 -97.5q-2 -34 -4.5 -71.5t-4.5 -80.5h-90q-6 68 -11.5 136t-11.5 136l-12 136l-12 136q-1 12 -3 19t-6.5 11t-11.5 6v50h248v-50q-10 0 -16 -3.5t-7.5 -14t-0.5 -30.5l37 -529l-21 56h43l-23 -56q10 151 15 252t7 162t0.5 94t-6 46.5
t-10.5 20.5v52h94v-52q-7 -7 -13 -27.5t-11.5 -65.5t-12.5 -125t-17 -208q-3 -34 -5 -71.5t-4 -80.5h-97q-4 55 -9 110.5t-9.5 110.5t-9.5 110zM117 595h19q-18 -4 -28.5 -11t-14.5 -17.5t-3 -24.5l41 -539l-23 56h48l-25 -56q9 110 14.5 185t9 124t4.5 82t1 60
q0 26 -1.5 47t-4.5 37t-8 27.5t-12 18.5t-17 11zM218 783q14 0 21.5 -15.5t7.5 -42.5q0 -26 -7.5 -41.5t-21.5 -15.5q-13 0 -20.5 15.5t-7.5 41.5q0 28 7.5 43t20.5 15zM141 783q14 0 21.5 -15.5t7.5 -42.5q0 -26 -7.5 -41.5t-21.5 -15.5q-13 0 -20.5 15.5t-7.5 41.5
q0 28 7.5 43t20.5 15z" />
    <glyph glyph-name="wdieresis" unicode="&#x1e85;" horiz-adv-x="335" 
d="M139 0h-87l-8 102t-8.5 102.5t-8.5 102.5l-8 102q-2 29 -4.5 46.5t-5.5 27.5t-9 13v49h223v-49q-6 -6 -8.5 -26t0.5 -63l29 -404l-21 44h41l-17 -44q7 109 11 187t6 130t2 81q0 32 -2.5 50.5t-8 28.5t-13.5 15v50h93v-50q-6 -6 -10.5 -21t-9 -47t-9.5 -86.5t-11.5 -138
t-14.5 -202.5h-101q-4 52 -8.5 104t-8.5 104t-9 104h8q-4 -53 -9.5 -129.5t-12.5 -182.5zM106 507h11q-13 -8 -21 -20t-11 -30.5t-1 -49.5l29 -404l-17 44h41l-22 -45q9 110 16 191t10.5 135t-0.5 83l-2 17q-2 16 -4.5 28.5t-6.5 21.5t-9 16t-13 13zM220 702
q14 0 21.5 -15.5t7.5 -42.5q0 -26 -7.5 -41.5t-21.5 -15.5q-13 0 -20.5 15.5t-7.5 41.5q0 28 7.5 43t20.5 15zM143 702q14 0 21.5 -15.5t7.5 -42.5q0 -26 -7.5 -41.5t-21.5 -15.5q-13 0 -20.5 15.5t-7.5 41.5q0 28 7.5 43t20.5 15z" />
    <glyph glyph-name="thinspace" unicode="&#x2009;" horiz-adv-x="45" 
 />
    <glyph glyph-name="endash" unicode="&#x2013;" horiz-adv-x="229" 
d="M115 259h-47.5t-47.5 -1v52q15 0 31 -0.5t32.5 -1t31.5 -0.5q21 0 47 0.5t47 1.5v-52q-22 1 -47.5 1h-46.5z" />
    <glyph glyph-name="emdash" unicode="&#x2014;" horiz-adv-x="312" 
d="M157 259h-44.5h-47.5t-45 -1v52q21 0 44.5 -0.5t47.5 -1t45 -0.5q20 0 43.5 0.5t47.5 1t44 0.5v-52q-21 0 -44.5 0.5t-47 0.5h-43.5z" />
    <glyph glyph-name="quoteleft" unicode="&#x2018;" horiz-adv-x="109" 
d="M105 632v-38q-20 0 -34.5 -8.5t-22.5 -20.5t-8 -23q0 -7 6 -7q4 0 6.5 1t6 2t9.5 1q14 0 24.5 -10t10.5 -32q0 -23 -11.5 -38.5t-36.5 -15.5q-23 0 -36 15.5t-13 49.5q0 38 10.5 65.5t32.5 43t56 15.5z" />
    <glyph glyph-name="quoteright" unicode="&#x2019;" horiz-adv-x="109" 
d="M4 446v38q20 0 34.5 8.5t22.5 20.5t8 23q0 7 -6 7q-3 0 -6 -1t-6.5 -2t-9.5 -1q-14 0 -24.5 10t-10.5 32q0 23 11.5 38.5t36.5 15.5q23 0 36 -15.5t13 -49.5q0 -37 -10.5 -65t-32.5 -43.5t-56 -15.5z" />
    <glyph glyph-name="quotesinglbase" unicode="&#x201a;" horiz-adv-x="109" 
d="M4 -94v38q20 0 34.5 8.5t22.5 20.5t8 23q0 7 -6 7q-3 0 -6 -1t-6.5 -2t-9.5 -1q-14 0 -24.5 10t-10.5 32q0 23 11.5 38.5t36.5 15.5q23 0 36 -15.5t13 -49.5q0 -37 -10.5 -65t-32.5 -43.5t-56 -15.5z" />
    <glyph glyph-name="quotedblleft" unicode="&#x201c;" horiz-adv-x="220" 
d="M105 632v-38q-20 0 -34.5 -8.5t-22.5 -20.5t-8 -23q0 -7 6 -7q4 0 6.5 1t6 2t9.5 1q14 0 24.5 -10t10.5 -32q0 -23 -11.5 -38.5t-36.5 -15.5q-23 0 -36 15.5t-13 49.5q0 38 10.5 65.5t32.5 43t56 15.5zM216 632v-38q-20 0 -34.5 -8.5t-22.5 -20.5t-8 -23q0 -7 6 -7
q4 0 6.5 1t6 2t9.5 1q14 0 24.5 -10t10.5 -32q0 -23 -11.5 -38.5t-36.5 -15.5q-23 0 -36 15.5t-13 49.5q0 38 10.5 65.5t32.5 43t56 15.5z" />
    <glyph glyph-name="quotedblright" unicode="&#x201d;" horiz-adv-x="220" 
d="M4 446v38q20 0 34.5 8.5t22.5 20.5t8 23q0 7 -6 7q-3 0 -6 -1t-6.5 -2t-9.5 -1q-14 0 -24.5 10t-10.5 32q0 23 11.5 38.5t36.5 15.5q23 0 36 -15.5t13 -49.5q0 -37 -10.5 -65t-32.5 -43.5t-56 -15.5zM115 446v38q20 0 34.5 8.5t22.5 20.5t8 23q0 7 -6 7q-3 0 -6 -1
t-6.5 -2t-9.5 -1q-14 0 -24.5 10t-10.5 32q0 23 11.5 38.5t36.5 15.5q23 0 36 -15.5t13 -49.5q0 -37 -10.5 -65t-32.5 -43.5t-56 -15.5z" />
    <glyph glyph-name="quotedblbase" unicode="&#x201e;" horiz-adv-x="220" 
d="M4 -94v38q20 0 34.5 8.5t22.5 20.5t8 23q0 7 -6 7q-3 0 -6 -1t-6.5 -2t-9.5 -1q-14 0 -24.5 10t-10.5 32q0 23 11.5 38.5t36.5 15.5q23 0 36 -15.5t13 -49.5q0 -37 -10.5 -65t-32.5 -43.5t-56 -15.5zM115 -94v38q20 0 34.5 8.5t22.5 20.5t8 23q0 7 -6 7q-3 0 -6 -1
t-6.5 -2t-9.5 -1q-14 0 -24.5 10t-10.5 32q0 23 11.5 38.5t36.5 15.5q23 0 36 -15.5t13 -49.5q0 -37 -10.5 -65t-32.5 -43.5t-56 -15.5z" />
    <glyph glyph-name="dagger" unicode="&#x2020;" horiz-adv-x="213" 
d="M118 -58h-23q1 19 1.5 56.5t1 79t0.5 75v44.5q0 27 -2.5 46.5t-6 35t-7.5 29t-6.5 29t-2.5 34.5q0 8 2.5 17.5t6.5 19.5t7.5 20.5t6 20t2.5 17.5q0 7 -6 7t-10.5 -4t-9.5 -8.5t-13 -8.5t-20 -4q-15 0 -23 10.5t-8 27.5q0 18 8 28t23 10q9 0 15 -3t11 -8t9 -9.5t8.5 -7.5
t9.5 -3q6 0 6 7q0 13 -3 28.5t-7.5 33l-9 35t-7.5 33t-3 27.5q0 26 10 39.5t29 13.5t29 -13.5t10 -39.5q0 -12 -3 -27.5t-7.5 -33t-9.5 -35t-8 -33t-3 -28.5q0 -7 5 -7q6 0 10.5 3t8.5 8t9 9.5t11.5 7.5t15.5 3q15 0 22.5 -10t7.5 -28q0 -17 -7.5 -27.5t-22.5 -10.5
q-12 0 -20 4t-13.5 8.5t-10.5 8.5t-11 4q-5 0 -5 -7q0 -8 2.5 -17.5t6 -20t7.5 -20.5t6.5 -19.5t2.5 -17.5q0 -19 -2.5 -34.5t-6 -29t-7.5 -29t-6.5 -35t-2.5 -46.5q0 -11 0.5 -44.5t0.5 -75t0.5 -79t1.5 -56.5z" />
    <glyph glyph-name="daggerdbl" unicode="&#x2021;" horiz-adv-x="222" 
d="M73 331q0 17 4 31.5t8.5 27t8.5 24t4 22.5q0 7 -6 7t-10.5 -4t-9.5 -8.5t-13 -8.5t-20 -4q-15 0 -23 10.5t-8 27.5q0 18 8 28t23 10q11 0 18 -4.5t12.5 -11t10.5 -11t12 -4.5q6 0 6 7q0 15 -3 34t-7.5 39.5t-9 41.5t-7.5 39.5t-3 32.5q0 26 10 39.5t29 13.5t29 -13.5
t10 -39.5q0 -14 -3 -32.5t-7.5 -39.5t-9.5 -41.5t-8 -39.5t-3 -34q0 -7 5 -7q7 0 12.5 4.5t11 11t13 11t18.5 4.5q15 0 22.5 -10t7.5 -28q0 -17 -7.5 -27.5t-22.5 -10.5q-12 0 -20 4t-13.5 8.5t-10.5 8.5t-11 4q-5 0 -5 -7q0 -11 4 -22.5t8.5 -24t8.5 -27t4 -31.5t-4 -31.5
t-8.5 -27t-8.5 -24t-4 -22.5q0 -7 6 -7t10.5 4t9.5 8.5t13 8.5t20 4q15 0 23 -10.5t8 -27.5q0 -18 -8 -28t-23 -10q-11 0 -18 4.5t-12.5 11t-10.5 11t-12 4.5q-6 0 -6 -7q0 -15 3 -34t7.5 -39.5t9 -41.5t7.5 -39.5t3 -32.5q0 -25 -9.5 -39t-29.5 -14q-19 0 -29 14t-10 39
q0 14 3 32.5t8 39.5t9.5 41.5t7.5 39.5t3 34q0 7 -5 7q-7 0 -12.5 -4.5t-11 -11t-13 -11t-18.5 -4.5q-15 0 -22.5 10t-7.5 28q0 17 7.5 27.5t22.5 10.5q12 0 20 -4t13.5 -8.5t10.5 -8.5t11 -4q5 0 5 7q0 11 -4 22.5t-8.5 24t-8.5 27t-4 31.5z" />
    <glyph glyph-name="bullet" unicode="&#x2022;" horiz-adv-x="140" 
d="M70 372q26 0 41 -23.5t15 -64.5t-14 -65t-42 -24q-31 0 -43.5 23.5t-12.5 65.5q0 41 15 64.5t41 23.5z" />
    <glyph glyph-name="ellipsis" unicode="&#x2026;" horiz-adv-x="332" 
d="M51 100q23 0 36 -14t13 -38q0 -25 -13 -39t-36 -14q-22 0 -34.5 13.5t-12.5 39.5t12.5 39t34.5 13zM166.234 98.498q22.6543 0 35.459 -13.7891q12.8047 -13.79 12.8047 -37.4297q0 -24.625 -12.8047 -38.4141q-12.8047 -13.79 -35.459 -13.79
q-21.6699 0 -33.9824 13.2969q-12.3125 13.2979 -12.3125 38.9072t12.3125 38.4141t33.9824 12.8047zM280.241 96.5518q22.207 0 34.7588 -13.5176q12.5518 -13.5166 12.5518 -36.6895q0 -24.1377 -12.5518 -37.6553q-12.5518 -13.5166 -34.7588 -13.5166
q-21.2412 0 -33.3105 13.0342q-12.0684 13.0342 -12.0684 38.1377t12.0684 37.6553q12.0693 12.5518 33.3105 12.5518z" />
    <glyph glyph-name="perthousand" unicode="&#x2030;" horiz-adv-x="438" 
d="M379 175q0 42 -1 68t-3 40t-5 19.5t-8 5.5q-4 0 -7 -5.5t-4.5 -19.5t-2.5 -40t-1 -68t1 -68.5t2.5 -42t4.5 -21.5t7 -6q5 0 8 6t5 21.5t3 42t1 68.5zM427 174q0 -62 -6.5 -102t-20.5 -59t-38 -19q-23 0 -37 19t-20.5 59t-6.5 102q0 94 15 134t49 40q36 0 50.5 -40
t14.5 -134zM92 463q0 42 -1 68t-2.5 40t-4.5 19.5t-8 5.5q-4 0 -7.5 -5.5t-5 -19.5t-2.5 -40t-1 -68t1 -68.5t2.5 -42t5 -21.5t7.5 -6q5 0 8 6t4.5 21.5t2.5 42t1 68.5zM141 462q0 -62 -6.5 -102t-20.5 -59t-38 -19q-23 0 -37.5 19t-21 59t-6.5 102q0 94 15 134t50 40
q36 0 50.5 -40t14.5 -134zM16 20q3 8 11.5 27.5t20.5 47t25 59t25.5 63.5t22.5 61l18 -5q-6 -34 -13.5 -73t-15 -77.5t-13 -70.5t-8.5 -52h-73v20zM232 175q0 42 -1 68t-3 40t-5 19.5t-8 5.5q-4 0 -7 -5.5t-4.5 -19.5t-2.5 -40t-1 -68t1 -68.5t2.5 -42t4.5 -21.5t7 -6
q5 0 8 6t5 21.5t3 42t1 68.5zM280 174q0 -62 -6.5 -102t-20.5 -59t-38 -19q-23 0 -37 19t-20.5 59t-6.5 102q0 94 15 134t49 40q36 0 50.5 -40t14.5 -134zM276 615q-3 -8 -11.5 -28t-20.5 -48t-25 -60.5t-26 -65.5t-23 -63l-18 4q7 35 14.5 74.5t14.5 78t12.5 71t8.5 52.5
h74v-15z" />
    <glyph glyph-name="guilsinglleft" unicode="&#x2039;" horiz-adv-x="133" 
d="M114 177l-15 -3q-13 34 -34 63t-51 50v23q20 14 35.5 31.5t28 38.5t21.5 43l15 -3q0 -15 -3.5 -35.5t-10.5 -40.5t-16.5 -34.5t-20.5 -17.5l9 15v-17l-9 15q11 -4 20.5 -18.5t16.5 -34t10.5 -40t3.5 -35.5z" />
    <glyph glyph-name="guilsinglright" unicode="&#x203a;" horiz-adv-x="133" 
d="M19 420l15 3q13 -34 34 -63t51 -50v-23q-20 -14 -35.5 -31.5t-28 -38.5t-21.5 -43l-15 3q0 15 3.5 35.5t10.5 40.5t16.5 34.5t20.5 17.5l-9 -15v17l9 -15q-11 4 -20.5 18.5t-16.5 34t-10.5 40t-3.5 35.5z" />
    <glyph glyph-name="fraction" unicode="&#x2044;" horiz-adv-x="50" 
d="M-104 20q3 8 11.5 27.5t20.5 47t25 59t25.5 63.5t22.5 61l18 -5q-6 -34 -13.5 -73t-15 -77.5t-13 -70.5t-8.5 -52h-73v20zM156 615q-3 -8 -11.5 -28t-20.5 -48t-25 -60.5t-26 -65.5t-23 -63l-18 4q7 35 14.5 74.5t14.5 78t12.5 71t8.5 52.5h74v-15z" />
    <glyph glyph-name="Euro" unicode="&#x20ac;" horiz-adv-x="239" 
d="M74 234h-15.5t-20.5 -0.5t-20 -1t-15 -0.5v54q6 0 15.5 -0.5t20 -1t20 -0.5h15.5v-50zM3 342v54q6 0 15.5 -0.5t20 -1t20 -0.5h15.5v-50h-15.5t-20.5 -0.5t-20 -1t-15 -0.5zM146 232q-7 1 -17 1t-20.5 0.5t-17.5 0.5v50q7 0 17 0.5t20.5 1t17.5 0.5v-54zM91 344v50
q7 0 17 0.5t20.5 1t17.5 0.5v-54q-7 1 -17 1t-20.5 0.5t-17.5 0.5zM137 635q31 0 49.5 -14t26.5 -39t8 -59q0 -43 -10 -63t-31 -20q-12 0 -21.5 6.5t-14.5 18t-5 26.5q0 18 4.5 30t13.5 18t20 6q8 0 16 -4t14 -15l-23 4l25 23v-23q-5 21 -20 35.5t-33 14.5q-11 0 -21 -9
t-17.5 -35.5t-11.5 -79t-4 -139.5q0 -90 3 -143.5t8 -80t11.5 -35t14.5 -8.5q9 0 15 8.5t9.5 32.5t5 69.5t1.5 120.5h49q0 -78 -2.5 -132.5t-11 -88.5t-25.5 -49.5t-46 -15.5t-48.5 15t-31.5 50.5t-17 98t-5 158.5t5.5 158t18 97t32.5 49t49 14z" />
    <glyph glyph-name="trademark" unicode="&#x2122;" horiz-adv-x="405" 
d="M31 261v50q10 0 15 3t7.5 13.5t3 33t0.5 61.5v180h50v-180q0 -39 0.5 -61.5t2.5 -33t7.5 -13.5t15.5 -3v-50h-102zM55 586q-7 0 -12.5 -20.5t-9.5 -50.5t-5 -59h-18v87.5v86.5h142v-86.5v-87.5h-18q-1 29 -4.5 59t-9 50.5t-12.5 20.5h-53zM212 582v-193q0 -21 2 -37.5
t6.5 -26.5t10.5 -14v-50h-66v50q7 7 12.5 17t9.5 25t4 36v65q0 60 -0.5 86.5t-4.5 33t-15 6.5v50h90q1 -22 4.5 -57.5t8.5 -75t11 -76.5l-5 14q6 35 10 72t6.5 69.5t3.5 53.5h92v-49q-12 0 -17 -6.5t-6.5 -33.5t-1.5 -87v-43q0 -47 1.5 -68.5t6.5 -26.5t17 -5v-50h-93v50
q11 0 13 25.5t2 74.5v171l7 -15h-15l7 26q-4 -39 -8 -72.5t-8.5 -66t-9.5 -67t-10 -74.5l-7 -53h-9l-7 42q-13 78 -22 151t-19 135l9 -22h-17z" />
    <glyph glyph-name="arrowleft" unicode="&#x2190;" horiz-adv-x="294" 
d="M274 377q-1 -15 -1.5 -32t-0.5 -34q0 -15 1 -30t1 -27q-12 2 -31.5 4t-42 4t-45 3t-42.5 1v99q20 0 42.5 1t45 2.5t42 3.5t31.5 5zM129 78q-3 32 -12 67.5t-23.5 67.5t-33 55t-40.5 30v34q22 7 40.5 30t33 55t23.5 67.5t12 67.5h34q-3 -76 -4 -158t0 -163t4 -153h-34z
" />
    <glyph glyph-name="arrowup" unicode="&#x2191;" horiz-adv-x="274" 
d="M182 0q-10 1 -22 1h-24h-23t-21 -1q3 28 5 76.5t4 107t3 118t1 110.5h64q0 -51 1 -110.5t3 -118t4 -107t5 -76.5zM20 336q19 21 34 46t26.5 61t21 88.5t18.5 128.5h34q8 -76 17.5 -128.5t21.5 -88.5t27 -61t34 -46v-34q-37 2 -77.5 3t-80.5 0.5t-76 -3.5v34z" />
    <glyph glyph-name="arrowright" unicode="&#x2192;" horiz-adv-x="294" 
d="M20 253q1 15 1.5 32t0.5 34q0 15 -1 30t-1 27q12 -2 31.5 -4t42 -4t45 -3t42.5 -1v-99q-20 0 -42.5 -1t-45 -2.5t-42 -3.5t-31.5 -5zM165 552q3 -32 12 -67.5t23.5 -67.5t33 -55t40.5 -30v-34q-22 -7 -40.5 -30t-33 -55t-23.5 -67.5t-12 -67.5h-34q3 76 4 158t0 163
t-4 153h34z" />
    <glyph glyph-name="arrowdown" unicode="&#x2193;" horiz-adv-x="274" 
d="M92 630q10 -1 22 -1h24h23t21 1q-3 -28 -5 -76.5t-4 -107t-3 -118t-1 -110.5h-64q0 51 -1 110.5t-3 118t-4 107t-5 76.5zM254 294q-19 -21 -34 -46t-26.5 -61t-21 -88.5t-18.5 -128.5h-34q-8 76 -17.5 128.5t-21.5 88.5t-27 61t-34 46v34q37 -2 77.5 -3t80.5 -0.5t76 3.5
v-34z" />
    <glyph glyph-name="minus" unicode="&#x2212;" horiz-adv-x="189" 
d="M95 302h-40t-45 -1v48q16 -1 38 -1h47h46t38 1v-48q-22 1 -43.5 1h-40.5z" />
    <glyph glyph-name="uni261E" unicode="&#x261e;" horiz-adv-x="645" 
d="M194 180q-9 0 -23.5 0.5t-31.5 1.5t-31.5 2.5t-22.5 2.5q-12 2 -21.5 7t-15.5 18t-9.5 37.5t-3.5 64.5q0 22 1.5 39.5t5.5 32.5q8 30 20 43t34 13q37 0 58.5 -2t32.5 -6.5t15 -12.5q67 26 107.5 42.5t58.5 16.5q8 0 19 -0.5t31 -2.5t55 -7t90 -15q24 -4 37.5 -17
t13.5 -39q0 -19 -15 -36.5t-44 -17.5q-6 0 -19.5 1t-35.5 4q0 -10 -5 -17.5t-11 -11.5q3 -12 -1 -23.5t-12.5 -20t-18.5 -12.5q-1 -10 -7 -18.5t-15 -14t-19 -7.5q-7 -16 -22 -28t-29 -12q-7 0 -15 3.5t-15 9t-12 11.5q-13 -5 -27.5 -8.5t-28.5 -3.5q-13 0 -25.5 1.5
t-24.5 3.5q-2 -10 -6 -16t-12 -6zM336 247q-4 5 -9 10.5t-12 12.5l1 1q20 7 33.5 -9t11.5 -42l-1 -1l-1 1.5t-4 4.5q-3 -1 -7.5 -3.5t-9.5 -4.5l6 -4t7 -3t7 -1q6 0 13 3.5t11.5 9t4.5 12.5q0 5 -5 23t-25 37q-8 8 -14 12.5t-14 4.5q-3 0 -6.5 -0.5t-7.5 -1.5l-1 2
q6 8 14 13t13 5q9 0 16.5 -5.5t17.5 -15.5q8 -7 15 -17.5t13 -20.5t9 -19q6 2 10.5 6t4.5 8q0 11 -10 27.5t-26 34.5q-12 13 -22.5 22t-22.5 9q-2 0 -7 -0.5t-14 -4.5l-1 2q5 11 15 17.5t18 6.5q13 0 26 -10.5t29 -27.5q12 -13 21.5 -26.5t14.5 -24.5q5 2 7.5 6t2.5 8
q0 13 -9 27t-25 31q-17 19 -27.5 26.5t-16.5 9.5t-11 2q-4 0 -13 -1.5t-18 -5.5l-2 2q13 13 25.5 18t18.5 5q11 0 22.5 -4.5t33.5 -25.5q50 -6 79.5 -7t39.5 -1q11 0 18 5.5t7 13.5q0 9 -4.5 14.5t-12.5 6.5q-57 10 -92 15.5t-55 7.5t-30 2.5t-18 0.5q-16 0 -57 -15.5
t-109 -43.5q-7 -7 -9 -27.5t-2 -39.5q0 -30 2 -52t3 -35q16 -3 35 -3t38 2t36.5 6t30.5 9zM174 215q-4 9 -7 32.5t-3 72.5q0 30 3 54.5t10 33.5q-16 2 -37 3t-42 1q-9 0 -13 -7t-8 -20q-4 -17 -5.5 -34.5t-1.5 -35.5q0 -39 2 -59t6 -26.5t9 -7.5q26 -4 50 -5.5t37 -1.5z
M469 354q1 -1 2 -2.5t2 -3.5q2 2 2 3v2h-2.5t-3.5 1zM121 251q-7 0 -13 5t-6 15q0 8 4.5 12.5t11.5 4.5q9 0 14.5 -4.5t5.5 -13.5q0 -19 -17 -19z" />
    <glyph glyph-name="apple" unicode="&#xf8ff;" horiz-adv-x="546" 
d="M470 316q0 -132 -9.5 -224.5t-31.5 -151t-60.5 -85.5t-96.5 -27t-96 26t-60 83t-31.5 150.5t-9.5 228.5q0 136 9.5 229.5t31.5 150.5t60 83t96 26t96.5 -27t60.5 -85.5t31.5 -151.5t9.5 -225zM499 317q0 143 -11 243t-36.5 163t-69.5 92t-110 29t-110 -27.5t-69 -89
t-36 -162.5t-11 -248q0 -145 11 -246t36 -163t69 -90t110 -28t110 29.5t69.5 92t36.5 163t11 242.5zM526 317q0 -147 -13 -253t-42 -173t-78 -99t-121 -32t-120.5 30.5t-77.5 97t-41.5 172.5t-12.5 257q0 150 12.5 256t41.5 172.5t77.5 97.5t120.5 31t121 -32t78 -99
t42 -173t13 -253zM256 499q0 86 -13.5 131t-43.5 45q-31 0 -44.5 -44t-13.5 -132t13.5 -132t44.5 -44q30 0 43.5 45t13.5 131zM219 499q0 -60 -2.5 -91t-6.5 -42t-11 -11t-11.5 11t-7 42.5t-2.5 90.5q0 61 2.5 92.5t7 42.5t11.5 11t11 -11t6.5 -42.5t2.5 -92.5zM285 417
q0 -26 -0.5 -38t-3 -15t-9.5 -3v-37h60v37q-6 0 -8.5 3t-3 15t-0.5 38v66q5 0 9.5 0.5t8.5 0.5h9t8 -1v-66q0 -26 -0.5 -38t-2.5 -15t-9 -3v-37h60v37q-6 0 -9 3t-3.5 15t-0.5 38v160q0 27 0.5 38.5t3.5 14.5t9 3v38h-60v-38q7 0 9 -3t2.5 -14.5t0.5 -38.5v-64h-8.5h-8.5
h-8.5h-9.5v64q0 27 0.5 38.5t3 14.5t8.5 3v38h-60v-38q5 0 7.5 -1.5t4 -6.5t1.5 -16.5v-31.5v-160zM198 -41v37q-7 0 -12.5 17.5t-8.5 46.5t-4.5 65.5t-1.5 75.5v16.5v19.5h6q3 -27 6 -55.5t7 -50.5l35 -172h36q-1 29 -2 70.5t-1 89.5q0 74 3 111.5t13 37.5v37h-56v-37
q14 0 18.5 -53t4.5 -138v-15.5v-16.5l-6 -1q-4 29 -6 56t-7 52q-10 45 -14.5 73.5t-5.5 47t-2 32.5h-57v-37q6 0 8.5 -3.5t2.5 -15.5v-40v-43q0 -84 -2 -127t-9 -43v-37h55zM401 131q0 86 -13.5 131t-45.5 45q-31 0 -44.5 -44t-13.5 -132t13.5 -132t44.5 -44q32 0 45.5 45
t13.5 131zM363 131q0 -60 -2.5 -91t-7 -42t-11.5 -11q-6 0 -10.5 11t-7 42.5t-2.5 90.5q0 61 2.5 92.5t7 42.5t10.5 11q7 0 11.5 -11t7 -42.5t2.5 -92.5z" />
    <glyph glyph-name="fi" unicode="&#xfb01;" horiz-adv-x="255" 
d="M4 496v49h118v-49h-118zM52 623q0 -36 11.5 -57t30.5 -21v-462q0 -18 6 -26t25 -8v-49h-122v49q16 0 20.5 8t4.5 26v459l18 3v7q-22 5 -33.5 24t-11.5 53q0 37 18.5 56.5t54.5 19.5q22 0 36 -9.5t21 -26.5t7 -40q0 -29 -9 -41.5t-26 -12.5q-20 0 -27.5 14t-7.5 32
t10 29.5t23 11.5q5 0 10.5 -1.5t10.5 -5.5l-14 -8l7 33l8 -16q-7 7 -15 9.5t-15 2.5q-19 0 -30 -12.5t-11 -40.5zM193 661q20 0 31.5 -12t11.5 -33q0 -22 -11.5 -33.5t-31.5 -11.5t-31 11.5t-11 33.5t11 33.5t31 11.5zM252 0h-110v49q14 0 18 5t4 15v397q0 16 -4 22.5
t-18 6.5v50h88v-476q0 -10 4 -15t18 -5v-49z" />
    <glyph glyph-name="fl" unicode="&#xfb02;" horiz-adv-x="256" 
d="M4 496v49h118v-49h-118zM52 623q0 -36 11.5 -57t30.5 -21v-462q0 -18 6 -26t25 -8v-49h-122v49q16 0 20.5 8t4.5 26v459l18 3v7q-22 5 -33.5 24t-11.5 53q0 37 18.5 56.5t54.5 19.5q22 0 36 -9.5t21 -26.5t7 -40q0 -29 -9 -41.5t-26 -12.5q-20 0 -27.5 14t-7.5 32
t10 29.5t23 11.5q5 0 10.5 -1.5t10.5 -5.5l-14 -8l7 33l8 -16q-7 7 -15 9.5t-15 2.5q-19 0 -30 -12.5t-11 -40.5zM232 671v-597q0 -13 4 -19t17 -6v-49h-111v49q14 0 18 6t4 19v515q0 17 -4 23.5t-18 6.5v49q23 1 45.5 1.5t44.5 1.5z" />
    <glyph glyph-name="Gcommaaccent" horiz-adv-x="241" 
d="M92 635q20 0 29.5 -10t15.5 -20.5t13 -10.5t9.5 7.5t2.5 28.5h48v-136.5v-136.5h-49q-5 74 -11 118t-12 67t-13 30.5t-13 7.5t-11.5 -8.5t-9.5 -35t-6.5 -79t-2.5 -140.5q0 -55 1.5 -97.5t4 -73t7 -50t10.5 -29t14 -9.5q9 0 14.5 9.5t8 31.5t2.5 61q0 34 -0.5 53.5
t-3.5 28.5t-10 11.5t-21 2.5v49h127v-49q-10 0 -15.5 -1t-7.5 -4t-2.5 -9t-0.5 -17v-74.5v-75v-75.5h-41q-1 20 -4.5 30t-11.5 10q-6 0 -12 -7t-12.5 -15.5t-15 -15.5t-21.5 -7q-18 0 -32.5 13.5t-25 48.5t-16.5 98t-6 162q0 96 5 158t15 97t25 49t35 14zM80 -152v27
q25 0 39 12t14 23q0 7 -7 7q-4 0 -7 -2.5t-11 -2.5q-10 0 -18.5 8t-8.5 24q0 17 9.5 27t29.5 10q19 0 29 -11.5t10 -37.5q0 -38 -19 -61t-60 -23z" />
    <glyph glyph-name="gcommaaccent" horiz-adv-x="213" 
d="M132 341q0 48 -1.5 79.5t-4 49t-7.5 25t-13 7.5q-7 0 -11.5 -7.5t-7.5 -25.5t-4 -49.5t-1 -78.5q0 -39 1 -67.5t4 -47t8 -27t12 -8.5t12 8.5t7.5 26.5t4 46.5t1.5 68.5zM195 359q0 -83 -8.5 -131t-28.5 -68t-53 -20q-12 0 -20.5 -2.5t-13.5 -7t-7.5 -11.5t-2.5 -15
q0 -33 24 -33h10t16 0.5t17 0.5h13q35 0 49.5 -21.5t14.5 -62.5q0 -22 -4.5 -41t-15 -33.5t-29.5 -23t-49 -8.5q-29 0 -47 6t-27.5 16.5t-13 23.5t-3.5 28q0 29 13.5 48t22.5 22l10 -9q-1 -22 0.5 -39t7 -28t15.5 -17t26 -6t25.5 3.5t14 10.5t6 16t1.5 19q0 23 -8.5 32.5
t-22.5 9.5q-7 0 -16 -0.5t-19 -1.5t-18 -1.5t-13 -0.5h-5.5h-6.5v23q-20 11 -30 24.5t-10 40.5q0 23 14 41.5t41 18.5h5.5h3.5v13q-23 8 -35 30.5t-16 61t-4 95.5q0 71 8.5 112t28.5 58t52 17t51.5 -17.5t28 -58.5t8.5 -114zM146 718v-27q-25 0 -39 -12t-14 -23q0 -7 7 -7
q4 0 7.5 2.5t10.5 2.5q11 0 19 -7.5t8 -24.5q0 -16 -9.5 -26.5t-29.5 -10.5q-19 0 -29 12t-10 37q0 38 19 61t60 23z" />
    <glyph glyph-name="Kcommaaccent" horiz-adv-x="238" 
d="M28 86v460q0 12 -0.5 19t-2.5 10t-7 4t-15 1v50h109v-50q-7 0 -10.5 -1t-5 -4t-2 -10t-0.5 -19v-460q0 -13 0.5 -20t2 -10.5t5 -4.5t10.5 -1v-50h-109v50q10 0 15 1t7 4.5t2.5 10.5t0.5 20zM152 337q13 0 23 -6.5t16 -21.5t6 -42v-190q0 -13 1.5 -18.5t7.5 -5.5
q4 0 5.5 3t2.5 9t1 14q0 27 -0.5 56t-0.5 63h20q1 -26 0.5 -49.5t-0.5 -46.5q0 -31 -2 -51.5t-7.5 -32.5t-15 -17t-23.5 -5q-19 0 -30.5 8t-16 26.5t-4.5 48.5v56.5v59v63.5q0 16 -5.5 23.5t-17.5 7.5q-7 0 -13.5 -0.5t-11.5 -1.5v45q13 28 23.5 58.5t19 60.5t13 54.5
t4.5 39.5q0 14 -3 23t-11 12v50h101v-50q-10 -14 -23 -41.5t-29.5 -64t-35 -79.5t-39.5 -90l8 46l24 -38l-46 1q8 7 17.5 12t20.5 8t21 3zM79 -152v27q25 0 39 12t14 23q0 7 -7 7q-4 0 -7 -2.5t-11 -2.5q-10 0 -18.5 8t-8.5 24q0 17 9.5 27t29.5 10q19 0 29 -11.5t10 -37.5
q0 -38 -19 -61t-60 -23z" />
    <glyph glyph-name="kcommaaccent" horiz-adv-x="236" 
d="M99 317l27 -33l-31 2q12 7 21.5 10.5t17 5.5t14.5 2q13 0 23 -6.5t16 -21.5t6 -41v-166q0 -8 2 -11.5t6 -3.5q3 0 5.5 5.5t3.5 21.5t1.5 47t0.5 83h20q2 -72 0 -115.5t-9 -65t-18 -28.5t-26 -7q-28 0 -39 17t-11 57q0 39 0.5 81t0.5 88q0 25 -18 25q-8 0 -14 -0.5
t-11 -0.5v40q17 39 28 73t16 59.5t5 38.5q0 10 -3.5 16t-17.5 8v48h108v-48q-15 -9 -35 -44t-43 -83.5t-47 -95.5zM93 671v-597q0 -13 4 -19t17 -6v-49h-111v49q14 0 18 6t4 19v515q0 17 -4 23.5t-18 6.5v49q23 1 45.5 1.5t44.5 1.5zM78 -152v27q25 0 39 12t14 23q0 7 -7 7
q-4 0 -7 -2.5t-11 -2.5q-10 0 -18.5 8t-8.5 24q0 17 9.5 27t29.5 10q19 0 29 -11.5t10 -37.5q0 -38 -19 -61t-60 -23z" />
    <glyph glyph-name="kgreenlandic" horiz-adv-x="236" 
d="M99 317l27 -33l-31 2q12 7 21.5 10.5t17 5.5t14.5 2q13 0 23 -6.5t16 -21.5t6 -41v-166q0 -8 2 -11.5t6 -3.5q3 0 5.5 5.5t3.5 21.5t1.5 47t0.5 83h20q2 -72 0 -115.5t-9 -65t-18 -28.5t-26 -7q-28 0 -39 17t-11 57q0 39 0.5 81t0.5 88q0 25 -18 25q-8 0 -14 -0.5
t-11 -0.5v40q17 40 28 74t16 59t5 38q0 10 -3.5 16t-17.5 8v48h108v-48q-15 -8 -35 -43.5t-42.5 -84t-47.5 -95.5zM93 545v-471q0 -13 4 -19t17 -6v-49h-111v49q14 0 18 6t4 19v392q0 17 -4 23.5t-17 6.5v49h89z" />
    <glyph glyph-name="Lcommaaccent" horiz-adv-x="209" 
d="M193 0h-190v50q10 0 15 1t7 5t2.5 12t0.5 22v450q0 14 -0.5 22t-2.5 12t-7 5t-15 1v50h125v-50q-12 0 -18.5 -1t-10 -5t-4.5 -12t-1 -22v-495v5q17 0 27.5 7.5t16.5 33.5t9 79.5t6 144.5h40v-104.5v-105v-105.5zM69 -152v27q25 0 39 12t14 23q0 7 -7 7q-4 0 -7 -2.5
t-11 -2.5q-10 0 -18.5 8t-8.5 24q0 17 9.5 27t29.5 10q19 0 29 -11.5t10 -37.5q0 -38 -19 -61t-60 -23z" />
    <glyph glyph-name="lcommaaccent" horiz-adv-x="117" 
d="M93 671v-597q0 -13 4 -19t17 -6v-49h-111v49q14 0 18 6t4 19v515q0 17 -4 23.5t-18 6.5v49q23 1 45.5 1.5t44.5 1.5zM19 -152v27q25 0 39 12t14 23q0 7 -7 7q-4 0 -7 -2.5t-11 -2.5q-10 0 -18.5 8t-8.5 24q0 17 9.5 27t29.5 10q19 0 29 -11.5t10 -37.5q0 -38 -19 -61
t-60 -23z" />
    <glyph glyph-name="Ncommaaccent" horiz-adv-x="270" 
d="M201 115l-9 35l27 1l-6 -36q-4 27 -6.5 64t-4 74.5t-1.5 68.5q0 76 -2.5 125.5t-9 77.5t-16.5 40t-25 15v50h120v-50q-7 -4 -12 -10.5t-8 -18t-5 -28.5t-2 -42q0 -144 0.5 -269t5.5 -212h-74l-69 312q-9 41 -16 91t-12 101.5t-8 96.5l18 -31l-34 -2l5 35q2 -25 4.5 -67
t4.5 -91t2 -97q0 -68 1.5 -116.5t6 -81.5t13 -53.5t21 -31t31.5 -15.5v-50h-138v50q10 5 15.5 14t8 25.5t2.5 43.5v411q0 13 -0.5 20t-3 10.5t-7.5 4.5t-15 1v50h118q1 -19 2.5 -41.5t5.5 -53.5t12 -75t22 -106q14 -59 24 -123t14 -116zM96 -152v27q25 0 39 12t14 23
q0 7 -7 7q-4 0 -7 -2.5t-11 -2.5q-10 0 -18.5 8t-8.5 24q0 17 9.5 27t29.5 10q19 0 29 -11.5t10 -37.5q0 -38 -19 -61t-60 -23z" />
    <glyph glyph-name="ncommaaccent" 
d="M90 494l-6 -6q4 17 10.5 28.5t14.5 18.5t18 10.5t22 3.5q32 0 46.5 -23.5t14.5 -68.5v-378q0 -16 5 -23t16 -7v-49h-105v49q11 0 14 7t3 23v377q0 15 -2 24t-7 13t-14 4q-8 0 -15 -4.5t-10.5 -13.5t-3.5 -23v-377q0 -16 3.5 -23t14.5 -7v-49h-106v49q14 0 18 7t4 23v387
q0 17 -4 23.5t-17 6.5v49h72q0 -18 -0.5 -30.5t-0.5 -36.5l-15 16h30zM77 -152v27q25 0 39 12t14 23q0 7 -7 7q-4 0 -7 -2.5t-11 -2.5q-10 0 -18.5 8t-8.5 24q0 17 9.5 27t29.5 10q19 0 29 -11.5t10 -37.5q0 -38 -19 -61t-60 -23z" />
    <glyph glyph-name="Rcommaaccent" horiz-adv-x="246" 
d="M196 -4q-24 0 -36 14.5t-12 51.5v65.5v73.5q0 36 -3 55.5t-12 27t-26 6.5h-19v48h28q15 0 24.5 12t14 40t4.5 76q0 50 -4 74.5t-15.5 32t-35.5 7.5h-19l9 45v-545q0 -10 0.5 -16.5t3 -9t8.5 -3.5t16 -1v-50h-119v50q10 0 15 1t7 3.5t2.5 9t0.5 16.5v460q0 14 -0.5 22
t-2.5 12t-7 5t-15 1v50h133q33 0 52.5 -14t28 -48t8.5 -93q0 -66 -9 -97t-25.5 -39.5t-40.5 -9.5l5 5v-26l-5 3q22 1 35 -11t18.5 -38.5t5.5 -71.5v-116q0 -10 1.5 -15t5.5 -5t5.5 6.5t2 25.5t0.5 58v25.5t-1 28.5h20q1 -16 1 -29.5v-26.5q0 -56 -4 -88t-14.5 -45t-29.5 -13
zM84 -152v27q25 0 39 12t14 23q0 7 -7 7q-4 0 -7 -2.5t-11 -2.5q-10 0 -18.5 8t-8.5 24q0 17 9.5 27t29.5 10q19 0 29 -11.5t10 -37.5q0 -38 -19 -61t-60 -23z" />
    <glyph glyph-name="rcommaaccent" horiz-adv-x="166" 
d="M81 459l-12 32h27l-13 -32q3 19 7.5 35t10 28.5t13.5 19.5t18 7q8 0 15 -5t11.5 -17.5t4.5 -35.5q0 -16 -3.5 -30t-10 -22t-17.5 -8q-8 0 -12.5 4.5t-8 10t-6 10t-6.5 4.5t-6 -7t-2 -24v-346q0 -13 3.5 -20t12.5 -10t27 -3v-50h-131v50q14 0 18 7.5t4 21.5v388
q0 15 -4 21.5t-17 6.5v50h77v-40.5v-45.5zM41 -152v27q25 0 39 12t14 23q0 7 -7 7q-4 0 -7 -2.5t-11 -2.5q-10 0 -18.5 8t-8.5 24q0 17 9.5 27t29.5 10q19 0 29 -11.5t10 -37.5q0 -38 -19 -61t-60 -23z" />
    <glyph glyph-name="Tcommaaccent" horiz-adv-x="241" 
d="M52 0v50q14 0 21 1.5t10.5 6t4 15t0.5 28.5v491h66v-491q0 -18 0.5 -28.5t4 -15t11 -6t20.5 -1.5v-50h-138zM90 580q-11 0 -18.5 -4.5t-12 -26t-7 -72.5t-4.5 -144h-40v148.5v148.5h225v-148.5v-148.5h-41q-2 94 -4.5 145t-7 72.5t-11.5 25.5t-17 4h-62zM99 -51l-17 -9
q12 14 24.5 23t27.5 9q32 0 32 -42q0 -36 -24.5 -52t-70.5 -16v24q29 8 41.5 18.5t12.5 23.5t-11 13q-4 0 -9 -3t-8 -8l-17 5l11 101l18 -2z" />
    <glyph glyph-name="tcommaaccent" horiz-adv-x="163" 
d="M92 654v-574q0 -11 1 -18t3.5 -10t6.5 -3q5 0 8 6.5t4.5 24t1.5 50.5q0 18 -0.5 35.5t-0.5 35.5t-1 37h41q0 -14 0.5 -27.5t1 -27.5t1 -27.5t0.5 -27.5q0 -34 -3 -59t-11 -41.5t-21.5 -25t-33.5 -8.5q-22 0 -36 9t-21 27.5t-7 48.5v462l10 -46h-32v50q14 0 24.5 6t17 29
t6.5 74h40zM82 495v50h76v-50h-76zM66 -51l-17 -9q12 14 24.5 23t27.5 9q32 0 32 -42q0 -36 -24.5 -52t-70.5 -16v24q29 8 41.5 18.5t12.5 23.5t-11 13q-4 0 -9 -3t-8 -8l-17 5l11 101l18 -2z" />
    <glyph glyph-name="uni1E9E" horiz-adv-x="426" 
d="M140 97q0 41 -9 75t-22.5 65.5t-29.5 61.5q-16 32 -31 65t-24.5 70.5t-9.5 81.5q0 40 8.5 66t23.5 39.5t36 13.5q20 0 29 -10t14.5 -20.5t12.5 -10.5t9.5 7.5t2.5 28.5h48v-121.5v-121.5h-40q-8 57 -14.5 94.5t-13 59t-13.5 30.5t-15 9q-13 0 -18.5 -14.5t-5.5 -40.5
q0 -43 16.5 -84.5t38.5 -85.5q17 -35 33.5 -73.5t27.5 -81t11 -92.5q0 -39 -9 -64t-23 -37t-31 -12t-29.5 7.5t-21.5 17t-15.5 17t-11.5 7.5q-7 0 -8.5 -10t-1.5 -34h-40v133v133h40q3 -41 7.5 -75t10 -60t12.5 -44t15.5 -27.5t18.5 -9.5q9 0 15.5 10t6.5 37zM353 97
q0 41 -9 75t-22.5 65.5t-29.5 61.5q-16 32 -31 65t-24.5 70.5t-9.5 81.5q0 40 8.5 66t23.5 39.5t36 13.5q20 0 29 -10t14.5 -20.5t12.5 -10.5t9.5 7.5t2.5 28.5h48v-121.5v-121.5h-40q-8 57 -14.5 94.5t-13 59t-13.5 30.5t-15 9q-13 0 -18.5 -14.5t-5.5 -40.5
q0 -43 16.5 -84.5t38.5 -85.5q17 -35 33.5 -73.5t27.5 -81t11 -92.5q0 -39 -9 -64t-23 -37t-31 -12t-29.5 7.5t-21.5 17t-15.5 17t-11.5 7.5q-7 0 -8.5 -10t-1.5 -34h-40v133v133h40q3 -41 7.5 -75t10 -60t12.5 -44t15.5 -27.5t18.5 -9.5q9 0 15.5 10t6.5 37z" />
    <glyph glyph-name="guillemotleft" horiz-adv-x="226" 
d="M114 177l-15 -3q-13 34 -34 63t-51 50v23q20 14 35.5 31.5t28 38.5t21.5 43l15 -3q0 -15 -3.5 -35.5t-10.5 -40.5t-16.5 -34.5t-20.5 -17.5l9 15v-17l-9 15q11 -4 20.5 -18.5t16.5 -34t10.5 -40t3.5 -35.5zM207 177l-15 -3q-13 34 -34 63t-51 50v23q20 14 35.5 31.5
t28 38.5t21.5 43l15 -3q0 -15 -3.5 -35.5t-10.5 -40.5t-16.5 -34.5t-20.5 -17.5l9 15v-17l-9 15q11 -4 20.5 -18.5t16.5 -34t10.5 -40t3.5 -35.5z" />
    <glyph glyph-name="guillemotright" horiz-adv-x="228" 
d="M19 420l15 3q13 -34 34 -63t51 -50v-23q-20 -14 -35.5 -31.5t-28 -38.5t-21.5 -43l-15 3q0 15 3.5 35.5t10.5 40.5t16.5 34.5t20.5 17.5l-9 -15v17l9 -15q-11 4 -20.5 18.5t-16.5 34t-10.5 40t-3.5 35.5zM114 420l15 3q13 -34 34 -63t51 -50v-23q-20 -14 -35.5 -31.5
t-28 -38.5t-21.5 -43l-15 3q0 15 3.5 35.5t10.5 40.5t16.5 34.5t20.5 17.5l-9 -15v17l9 -15q-11 4 -20.5 18.5t-16.5 34t-10.5 40t-3.5 35.5z" />
    <glyph glyph-name="acute.alt" horiz-adv-x="98" 
d="M25 576l-19 10l21 114h63v-26z" />
    <glyph glyph-name="caron.alt" horiz-adv-x="60" 
d="M22 450l-17 11q10 22 15 39t7.5 31.5t2.5 29.5q0 19 -4 34t-9.5 27.5t-9.5 24.5t-4 25q0 16 6.5 24t16.5 8q17 0 24 -21.5t7 -74.5q0 -41 -5.5 -72t-13.5 -52t-16 -34z" />
    <glyph glyph-name="grave.alt" horiz-adv-x="98" 
d="M75 576l-65 98v26h63l21 -114z" />
    <glyph glyph-name="circumflex.alt" horiz-adv-x="115" 
d="M64 710l48 -124l-12 -9l-50 53h13l-48 -53l-12 9l49 124h12z" />
    <glyph glyph-name="breve.alt" horiz-adv-x="102" 
d="M51 657q11 0 16 4t7 11.5t2 18.5v5.5v3.5h19q0 -44 -5.5 -68.5t-15 -33.5t-23.5 -9t-23.5 9t-15 33.5t-5.5 68.5h19q-1 -2 -1 -3.5v-5.5q0 -11 2 -18.5t7.5 -11.5t16.5 -4z" />
    <glyph glyph-name="tilde.alt" horiz-adv-x="119" 
d="M96 655v20t-1 20h17q1 -11 1 -18v-18q0 -45 -8 -61.5t-22 -16.5q-11 0 -18.5 10t-12.5 23.5t-9.5 23.5t-10.5 10q-4 0 -6.5 -6.5t-2.5 -16.5v-17.5t1 -20.5h-17q-1 13 -1 21.5v16.5q0 44 8.5 59.5t23.5 15.5q11 0 18 -9.5t12 -22.5t9 -22.5t10 -9.5q5 0 7 5.5t2 13.5z
" />
    <glyph glyph-name="macron.alt" horiz-adv-x="105" 
d="M53 607h-23.5t-22.5 -1v65q8 -1 22 -2t24 -1q6 0 14 0.5t16.5 1.5t14.5 1v-65q-10 1 -23 1h-22z" />
    <glyph glyph-name="dieresis.alt" horiz-adv-x="129" 
d="M95 702q13 0 20 -15.5t7 -42.5q0 -26 -7 -41.5t-20 -15.5q-11 0 -18 15.5t-7 41.5q0 28 7 43t18 15zM33 702q12 0 19 -15.5t7 -42.5q0 -26 -7 -41.5t-19 -15.5t-19 15.5t-7 41.5q0 28 7 43t19 15z" />
    <glyph glyph-name="commaaccent" horiz-adv-x="102" 
d="M11 -152v27q25 0 39 12t14 23q0 7 -7 7q-4 0 -7 -2.5t-11 -2.5q-10 0 -18.5 8t-8.5 24q0 17 9.5 27t29.5 10q19 0 29 -11.5t10 -37.5q0 -38 -19 -61t-60 -23z" />
    <glyph glyph-name="afii61352" horiz-adv-x="489" 
d="M407 383q0 -65 -2 -106t-5.5 -63.5t-8.5 -31t-11 -8.5q-7 0 -12 8.5t-8.5 30.5t-5.5 63.5t-2 106.5q0 66 2 105.5t5.5 59.5t8.5 26.5t12 6.5q6 0 11 -6.5t8.5 -27t5.5 -60t2 -104.5zM476 382q0 99 -10 154.5t-31 77.5t-55 22t-55.5 -21.5t-31.5 -76.5t-10 -156
t9.5 -158.5t31.5 -81t56 -23.5t55 24.5t31 82t10 156.5zM378 29h-43.5t-43.5 -1v53q20 -1 43.5 -1.5t43.5 -0.5q19 0 43 0.5t43 1.5v-53q-20 1 -43.5 1h-42.5zM201 115l-9 35l27 1l-6 -36q-4 27 -6.5 64t-4 74.5t-1.5 68.5q0 76 -2.5 125.5t-9 77.5t-16.5 40t-25 15v50h120
v-50q-7 -4 -12 -10.5t-8 -18t-5 -28.5t-2 -42q0 -144 0.5 -269t5.5 -212h-74l-69 312q-9 41 -16 91t-12 101.5t-8 96.5l18 -31l-34 -2l5 35q2 -25 4.5 -67t4.5 -91t2 -97q0 -68 1.5 -116.5t6 -81.5t13 -53.5t21 -31t31.5 -15.5v-50h-138v50q10 5 15.5 14t8 25.5t2.5 43.5
v411q0 13 -0.5 20t-3 10.5t-7.5 4.5t-15 1v50h118q1 -19 2.5 -41.5t5.5 -53.5t12 -75t22 -106q14 -59 24 -123t14 -116z" />
    <glyph glyph-name="zero.numr" horiz-adv-x="148" 
d="M74 673q24 0 38 -19t20 -62t6 -114q0 -70 -6 -111.5t-20 -59t-38 -17.5q-23 0 -37.5 17t-20.5 58t-6 113q0 73 6 115.5t20.5 61t37.5 18.5zM74 331q5 0 8.5 4t5.5 18.5t3.5 43.5t1.5 80q0 67 -2 100t-6 44t-11 11q-6 0 -10.5 -11.5t-6.5 -45t-2 -98.5q0 -49 1.5 -78.5
t3.5 -44t6 -19t8 -4.5z" />
    <glyph glyph-name="one.numr" horiz-adv-x="98" 
d="M90 295h-78v51q10 0 13.5 10t3.5 43v152q0 20 -2.5 31t-9.5 11h-3h-3v49q11 2 21.5 5.5t17.5 10.5t7 20h17v-279q0 -35 4 -44t12 -9v-51z" />
    <glyph glyph-name="two.numr" horiz-adv-x="148" 
d="M46 389v-55l-7 11h96v-51h-121v54q17 22 31 48.5t23.5 55.5t14.5 58t5 56q0 33 -7 48.5t-24 15.5q-10 0 -19 -5.5t-17 -16.5l3 9l9 -14h-9q7 5 11 6.5t7 1.5q13 0 18.5 -10t5.5 -27q0 -14 -5.5 -26t-19.5 -12q-13 0 -19.5 13.5t-6.5 35.5q0 36 15 62t45 26t45 -24.5
t15 -76.5q0 -56 -10.5 -92.5t-26.5 -61t-33 -42.5t-31 -37z" />
    <glyph glyph-name="three.numr" horiz-adv-x="151" 
d="M57 328q18 0 25.5 17.5t7.5 55.5q0 28 -3 43t-9.5 21t-17.5 6h-8.5t-11.5 -1v32q7 -1 11.5 -1h8.5q12 0 18 6.5t8 21t2 38.5q0 33 -7 48.5t-24 15.5q-10 0 -19 -5.5t-17 -16.5l3 9l9 -14h-9q7 5 11 6.5t7 1.5q13 0 18.5 -10t5.5 -27q0 -14 -5.5 -26t-19.5 -12
q-13 0 -19.5 13.5t-6.5 35.5q0 36 15 62t45 26t45 -23.5t15 -69.5q0 -28 -5 -45.5t-16.5 -27.5t-30.5 -16l9 22v-51l-13 16q24 -1 37 -10.5t18 -28.5t5 -49q0 -49 -16 -74.5t-49 -25.5q-32 0 -47.5 25t-15.5 61q0 22 6.5 35.5t20.5 13.5t19 -12t5 -26q0 -16 -5.5 -26.5
t-18.5 -10.5q-3 0 -7 1.5t-11 6.5h9l-9 -14l-3 9q8 -13 19 -19.5t21 -6.5z" />
    <glyph glyph-name="four.numr" horiz-adv-x="159" 
d="M114 405v41q17 0 22.5 6t6.5 31h12v-105h-12q-1 18 -6 22.5t-23 4.5zM22 670h52q-3 -67 -12 -112.5t-21 -71.5t-24 -36l3 8v-17l-4 5h69l-9 -41h-70v41q5 21 9 58.5t6.5 81.5t0.5 84zM73 407v104q14 25 23 61t9 98h13v-213q0 -39 0.5 -61.5t2 -33t6 -13.5t12.5 -3v-51
h-90v51q12 0 17 5t6 18t1 38z" />
    <glyph glyph-name="five.numr" horiz-adv-x="158" 
d="M141 413q0 -59 -16.5 -90.5t-51.5 -31.5q-32 0 -47 25t-15 61q0 22 6.5 35.5t20.5 13.5t19 -12t5 -26q0 -16 -5.5 -26.5t-18.5 -10.5q-3 0 -7 1.5t-11 6.5l10 -1l-11 -13l-2 9q8 -15 19 -21.5t21 -6.5q19 0 27 20.5t8 64.5q0 31 -3 50.5t-10 29t-18 9.5q-8 0 -14 -5.5
t-11 -13.5l-13 5v184h108v-51h-106l20 11v-130l-11 -3q9 18 23 28t31 10q21 0 32.5 -14.5t16 -42t4.5 -65.5z" />
    <glyph glyph-name="six.numr" horiz-adv-x="151" 
d="M61 404q0 -36 5 -54.5t14 -18.5q8 0 11.5 16t3.5 49q0 26 -1.5 42t-4.5 24t-9 8q-5 0 -9.5 -8t-7 -23t-2.5 -35zM95 635q-15 0 -24 -15t-13.5 -46t-4.5 -79q0 -19 -0.5 -39.5t-0.5 -50.5l-2 56h12l-7 -13q3 21 9.5 35.5t15 22t19.5 7.5q17 0 26 -14.5t13 -38t4 -50.5
q0 -35 -6.5 -61.5t-20.5 -41.5t-38 -15q-25 0 -40 23.5t-21 66t-6 99.5q0 66 8 108.5t24.5 63t40.5 20.5q19 0 30.5 -11.5t17 -31t5.5 -43.5q0 -22 -6.5 -35.5t-20.5 -13.5q-13 0 -18.5 12t-5.5 26q0 17 5.5 27t18.5 10q3 0 7 -1.5t11 -6.5l-10 1l11 13l2 -9q-7 13 -16.5 19
t-18.5 6z" />
    <glyph glyph-name="seven.numr" horiz-adv-x="145" 
d="M92 290h-52q0 64 6.5 115t17.5 91t24.5 71t28.5 56l-9 -28v23l13 -4h-108v51h119v-64q-12 -25 -20.5 -59.5t-14 -93.5t-5.5 -158z" />
    <glyph glyph-name="eight.numr" horiz-adv-x="161" 
d="M80 466q-5 0 -10 -5t-8 -17.5t-3 -37.5q0 -37 5.5 -53t15.5 -16q11 0 16 16t5 53q0 25 -2.5 37.5t-7.5 17.5t-11 5zM80 509q8 0 14 16t6 47q0 34 -6 46t-14 12t-13.5 -12t-5.5 -46q0 -31 5.5 -47t13.5 -16zM80 291q-37 0 -52.5 27t-15.5 76q0 42 11.5 60.5t35.5 28.5
l-2 -8v27l2 -9q-25 11 -34.5 29.5t-9.5 56.5q0 44 14.5 70t50.5 26t51 -26t15 -70q0 -38 -9.5 -56.5t-35.5 -29.5l2 9v-27l-2 8q25 -10 36.5 -28.5t11.5 -60.5q0 -49 -15.5 -76t-53.5 -27z" />
    <glyph glyph-name="nine.numr" horiz-adv-x="151" 
d="M90 566q0 36 -4 53.5t-12 17.5q-10 0 -14 -19t-4 -59q0 -38 3.5 -56t11.5 -18q6 0 10 10t6.5 28t2.5 43zM56 327q15 0 24.5 15t13.5 46t4 79q0 19 0.5 39.5t0.5 50.5l2 -66h-12l7 13q-3 -19 -9.5 -33t-15 -21.5t-19.5 -7.5q-16 0 -25.5 16t-13.5 42t-4 55q0 36 6 63
t20.5 42.5t37.5 15.5q26 0 41 -20.5t21 -63.5t6 -111q0 -67 -8 -110.5t-24 -64t-41 -20.5q-18 0 -30 11.5t-17.5 31t-5.5 41.5q0 20 6.5 33t20.5 13t19 -11t5 -25q0 -15 -5.5 -24.5t-18.5 -9.5q-3 0 -7 1t-11 6l10 -1l-11 -12l-2 8q7 -11 16.5 -16t18.5 -5z" />
    <glyph glyph-name="zero.dnom" horiz-adv-x="148" 
d="M74 313q24 0 38 -19t20 -62t6 -114q0 -70 -6 -111.5t-20 -59t-38 -17.5q-23 0 -37.5 17t-20.5 58t-6 113q0 73 6 115.5t20.5 61t37.5 18.5zM74 -29q5 0 8.5 4t5.5 18.5t3.5 43.5t1.5 80q0 67 -2 100t-6 44t-11 11q-6 0 -10.5 -11.5t-6.5 -45t-2 -98.5q0 -49 1.5 -78.5
t3.5 -44t6 -19t8 -4.5z" />
    <glyph glyph-name="one.dnom" horiz-adv-x="98" 
d="M90 -66h-78v51q10 0 13.5 10t3.5 43v152q0 20 -2.5 31t-9.5 11h-3h-3v49q11 2 21.5 5.5t17.5 10.5t7 20h17v-279q0 -35 4 -44t12 -9v-51z" />
    <glyph glyph-name="two.dnom" horiz-adv-x="148" 
d="M46 29v-55l-7 11h96v-51h-121v54q17 22 31 48.5t23.5 55.5t14.5 58t5 56q0 33 -7 48.5t-24 15.5q-10 0 -19 -5.5t-17 -16.5l3 9l9 -14h-9q7 5 11 6.5t7 1.5q13 0 18.5 -10t5.5 -27q0 -14 -5.5 -26t-19.5 -12q-13 0 -19.5 13.5t-6.5 35.5q0 36 15 62t45 26t45 -24.5
t15 -76.5q0 -56 -10.5 -92.5t-26.5 -61t-33 -42.5t-31 -37z" />
    <glyph glyph-name="three.dnom" horiz-adv-x="151" 
d="M57 -33q18 0 25.5 17.5t7.5 55.5q0 28 -3 43t-9.5 21t-17.5 6h-8.5t-11.5 -1v32q7 -1 11.5 -1h8.5q12 0 18 6.5t8 21t2 38.5q0 33 -7 48.5t-24 15.5q-10 0 -19 -5.5t-17 -16.5l3 9l9 -14h-9q7 5 11 6.5t7 1.5q13 0 18.5 -10t5.5 -27q0 -14 -5.5 -26t-19.5 -12
q-13 0 -19.5 13.5t-6.5 35.5q0 36 15 62t45 26t45 -23.5t15 -69.5q0 -28 -5 -45.5t-16.5 -27.5t-30.5 -16l9 22v-51l-13 16q24 -1 37 -10.5t18 -28.5t5 -49q0 -49 -16 -74.5t-49 -25.5q-32 0 -47.5 25t-15.5 61q0 22 6.5 35.5t20.5 13.5t19 -12t5 -26q0 -16 -5.5 -26.5
t-18.5 -10.5q-3 0 -7 1.5t-11 6.5h9l-9 -14l-3 9q8 -13 19 -19.5t21 -6.5z" />
    <glyph glyph-name="four.dnom" horiz-adv-x="159" 
d="M114 44v41q17 0 22.5 6t6.5 31h12v-105h-12q-1 18 -6 22.5t-23 4.5zM22 309h52q-3 -67 -12 -112.5t-21 -71.5t-24 -36l3 8v-17l-4 5h69l-9 -41h-70v41q5 21 9 58.5t6.5 81.5t0.5 84zM73 46v104q14 25 23 61t9 98h13v-213q0 -39 0.5 -61.5t2 -33t6 -13.5t12.5 -3v-51h-90
v51q12 0 17 5t6 18t1 38z" />
    <glyph glyph-name="five.dnom" horiz-adv-x="158" 
d="M141 52q0 -59 -16.5 -90.5t-51.5 -31.5q-32 0 -47 25t-15 61q0 22 6.5 35.5t20.5 13.5t19 -12t5 -26q0 -16 -5.5 -26.5t-18.5 -10.5q-3 0 -7 1.5t-11 6.5l10 -1l-11 -13l-2 9q8 -15 19 -21.5t21 -6.5q19 0 27 20.5t8 64.5q0 31 -3 50.5t-10 29t-18 9.5q-8 0 -14 -5.5
t-11 -13.5l-13 5v184h108v-51h-106l20 11v-130l-11 -3q9 18 23 28t31 10q21 0 32.5 -14.5t16 -42t4.5 -65.5z" />
    <glyph glyph-name="six.dnom" horiz-adv-x="151" 
d="M61 43q0 -36 5 -54.5t14 -18.5q8 0 11.5 16t3.5 49q0 26 -1.5 42t-4.5 24t-9 8q-5 0 -9.5 -8t-7 -23t-2.5 -35zM95 274q-15 0 -24 -15t-13.5 -46t-4.5 -79q0 -19 -0.5 -39.5t-0.5 -50.5l-2 56h12l-7 -13q3 21 9.5 35.5t15 22t19.5 7.5q17 0 26 -14.5t13 -38t4 -50.5
q0 -35 -6.5 -61.5t-20.5 -41.5t-38 -15q-25 0 -40 23.5t-21 66t-6 99.5q0 66 8 108.5t24.5 63t40.5 20.5q19 0 30.5 -11.5t17 -31t5.5 -43.5q0 -22 -6.5 -35.5t-20.5 -13.5q-13 0 -18.5 12t-5.5 26q0 17 5.5 27t18.5 10q3 0 7 -1.5t11 -6.5l-10 1l11 13l2 -9q-7 13 -16.5 19
t-18.5 6z" />
    <glyph glyph-name="seven.dnom" horiz-adv-x="145" 
d="M92 -66h-52q0 64 6.5 115t17.5 91t24.5 71t28.5 56l-9 -28v23l13 -4h-108v51h119v-64q-12 -25 -20.5 -59.5t-14 -93.5t-5.5 -158z" />
    <glyph glyph-name="eight.dnom" horiz-adv-x="161" 
d="M80 105q-5 0 -10 -5t-8 -17.5t-3 -37.5q0 -37 5.5 -53t15.5 -16q11 0 16 16t5 53q0 25 -2.5 37.5t-7.5 17.5t-11 5zM80 148q8 0 14 16t6 47q0 34 -6 46t-14 12t-13.5 -12t-5.5 -46q0 -31 5.5 -47t13.5 -16zM80 -70q-37 0 -52.5 27t-15.5 76q0 42 11.5 60.5t35.5 28.5
l-2 -8v27l2 -9q-25 11 -34.5 29.5t-9.5 56.5q0 44 14.5 70t50.5 26t51 -26t15 -70q0 -38 -9.5 -56.5t-35.5 -29.5l2 9v-27l-2 8q25 -10 36.5 -28.5t11.5 -60.5q0 -49 -15.5 -76t-53.5 -27z" />
    <glyph glyph-name="nine.dnom" horiz-adv-x="151" 
d="M90 205q0 36 -4 53.5t-12 17.5q-10 0 -14 -19t-4 -59q0 -38 3.5 -56t11.5 -18q6 0 10 10t6.5 28t2.5 43zM56 -34q15 0 24.5 15t13.5 46t4 79q0 19 0.5 39.5t0.5 50.5l2 -66h-12l7 13q-3 -19 -9.5 -33t-15 -21.5t-19.5 -7.5q-16 0 -25.5 16t-13.5 42t-4 55q0 36 6 63
t20.5 42.5t37.5 15.5q26 0 41 -20.5t21 -63.5t6 -111q0 -67 -8 -110.5t-24 -64t-41 -20.5q-18 0 -30 11.5t-17.5 31t-5.5 41.5q0 20 6.5 33t20.5 13t19 -11t5 -25q0 -15 -5.5 -24.5t-18.5 -9.5q-3 0 -7 1t-11 6l10 -1l-11 -12l-2 8q7 -11 16.5 -16t18.5 -5z" />
    <glyph glyph-name="zero.osf" horiz-adv-x="220" 
d="M207 280q0 -113 -10 -175t-31.5 -86.5t-56.5 -24.5q-26 0 -44 12.5t-29.5 44t-17 87.5t-5.5 142q0 114 9.5 176t31 86t55.5 24q35 0 56.5 -25t31.5 -87t10 -174zM137 281q0 72 -1.5 117.5t-5 70t-9 33.5t-12.5 9t-12 -9t-8.5 -33.5t-5 -70t-1.5 -117.5t1.5 -117.5t5 -70
t8.5 -34t12 -9.5t12.5 9t9 33.5t5 70t1.5 118.5z" />
    <glyph glyph-name="one.osf" horiz-adv-x="131" 
d="M124 0h-116v50q16 0 22 10t6 43v287q0 20 -4.5 31t-18.5 11h-3h-3v49q11 1 20 5.5t15.5 14t10 24t3.5 35.5h46v-457q0 -35 5.5 -44t16.5 -9v-50z" />
    <glyph glyph-name="two.osf" horiz-adv-x="195" 
d="M48 76q11 0 18.5 -9.5t7.5 -27.5q0 -19 -9 -31t-24 -12q-18 0 -27.5 15.5t-9.5 40.5q0 29 8 56.5t20.5 55.5t26 57.5t26 62t20.5 69t8 79.5q0 44 -10.5 63.5t-33.5 19.5q-20 0 -33 -14.5t-18 -35.5v23l25 -23l-23 -4q6 11 14.5 15t15.5 4q17 0 27.5 -14t10.5 -40
q0 -23 -11 -37t-30 -14q-21 0 -31 20t-10 63q0 34 10.5 59t30.5 39t46 14q49 0 70 -31t21 -106q0 -50 -10 -88.5t-26.5 -68t-35.5 -53t-37.5 -43.5t-33 -38.5t-20.5 -39.5l-1 13l16 -9l-10 -2q7 6 15 9.5t18 3.5q13 0 25 -2t23.5 -4t24.5 -2q12 0 19.5 10t10.5 41.5t0 93.5
h20q1 -19 1.5 -45.5t0.5 -53v-45.5q0 -59 -8.5 -86.5t-29.5 -27.5q-13 0 -21.5 7t-14.5 18t-11.5 24t-11.5 24t-14 18t-20 7q-13 0 -23.5 -11t-15.5 -28l-1 19l24 -15l-17 -11q4 13 11 20.5t17 7.5z" />
    </font>
</defs>
</svg>
