<svg xmlns="http://www.w3.org/2000/svg">
<defs>
<font id="OhnoFatfaceDemo-12PtNarrow" horiz-adv-x="1124" >
  <font-face 
    font-family="Ohno Fatface Demo 12 Pt Narrow"
    font-weight="510"
    font-stretch="semi-condensed"
    units-per-em="2048"
    panose-1="2 15 10 6 1 2 5 9 4 4"
    ascent="1518"
    descent="-530"
    x-height="1116"
    cap-height="1290"
    bbox="-45 -610 2243 1909"
    underline-thickness="102"
    underline-position="-204"
    unicode-range="U+0020-00A0"
  />
<missing-glyph horiz-adv-x="2283" 
d="M1571 252q0 -116 -12 -178t-33 -82.5t-60 -20.5q-37 0 -58 21.5t-32.5 83.5t-11.5 176q0 117 11.5 180t32.5 84t58 21q39 0 60 -21t33 -84t12 -180zM1763 252q0 179 -71 269.5t-226 90.5q-154 0 -224.5 -88.5t-70.5 -271.5q0 -184 70 -272.5t225 -88.5t226 90t71 271z
M881 1040q0 -116 -12 -178t-32 -82t-57 -20t-58 21t-32.5 82.5t-11.5 176.5q0 117 11.5 179.5t32 83t58.5 20.5q37 0 57.5 -20.5t32 -83.5t11.5 -179zM1069 1040q0 179 -69.5 270t-219.5 91q-153 0 -222 -89t-69 -272q0 -184 69 -272t222 -88q151 0 220 89.5t69 270.5z
M2050 647q0 -196 -18 -343.5t-60.5 -269t-110 -203t-169.5 -137.5t-237 -81t-314 -25t-313.5 23.5t-237 77.5t-170.5 134.5t-110.5 202t-60.5 271t-18 350.5t18 351t60.5 272t110.5 202t170.5 134.5t237 78t313.5 23.5t314 -25t237 -81t169.5 -138t110 -203.5t60.5 -269.5
t18 -344zM2152 649q0 216 -20 379.5t-67 297t-122.5 223.5t-189 151.5t-263.5 89t-349 27.5q-200 0 -349 -26t-263.5 -85t-189.5 -147.5t-122.5 -222.5t-67.5 -299.5t-20 -387.5q0 -221 20 -385.5t67.5 -298.5t123 -222.5t189.5 -148.5t263.5 -86t348.5 -26t349 27.5
t263.5 89t189 151.5t122.5 224t67 296.5t20 378.5zM2243 649q0 -227 -23.5 -402.5t-77 -318.5t-138 -242t-207.5 -166.5t-284.5 -98.5t-371.5 -31t-371 30t-284.5 95.5t-207.5 163.5t-137 241t-76.5 320t-23.5 409t23.5 409t76.5 320.5t137 241.5t207.5 163.5t284.5 95.5
t371 30t371.5 -31t284.5 -98.5t207.5 -166.5t138 -242.5t77 -319t23.5 -402.5zM1178 883q0 -82 -9 -98.5t-57 -16.5v-76h301v76q-46 0 -53.5 16t-7.5 99v121q16 0 46 1t44 1q61 0 90 -2v-121q0 -83 -8 -99t-56 -16v-76h306v76q-50 0 -59 16.5t-9 98.5v299q0 83 9 98.5

<glyph glyph-name=".notdef" horiz-adv-x="2283" 
d="M1571 252q0 -116 -12 -178t-33 -82.5t-60 -20.5q-37 0 -58 21.5t-32.5 83.5t-11.5 176q0 117 11.5 180t32.5 84t58 21q39 0 60 -21t33 -84t12 -180zM1763 252q0 179 -71 269.5t-226 90.5q-154 0 -224.5 -88.5t-70.5 -271.5q0 -184 70 -272.5t225 -88.5t226 90t71 271z
M881 1040q0 -116 -12 -178t-32 -82t-57 -20t-58 21t-32.5 82.5t-11.5 176.5q0 117 11.5 179.5t32 83t58.5 20.5q37 0 57.5 -20.5t32 -83.5t11.5 -179zM1069 1040q0 179 -69.5 270t-219.5 91q-153 0 -222 -89t-69 -272q0 -184 69 -272t222 -88q151 0 220 89.5t69 270.5z
M2050 647q0 -196 -18 -343.5t-60.5 -269t-110 -203t-169.5 -137.5t-237 -81t-314 -25t-313.5 23.5t-237 77.5t-170.5 134.5t-110.5 202t-60.5 271t-18 350.5t18 351t60.5 272t110.5 202t170.5 134.5t237 78t313.5 23.5t314 -25t237 -81t169.5 -138t110 -203.5t60.5 -269.5
t18 -344zM2152 649q0 216 -20 379.5t-67 297t-122.5 223.5t-189 151.5t-263.5 89t-349 27.5q-200 0 -349 -26t-263.5 -85t-189.5 -147.5t-122.5 -222.5t-67.5 -299.5t-20 -387.5q0 -221 20 -385.5t67.5 -298.5t123 -222.5t189.5 -148.5t263.5 -86t348.5 -26t349 27.5
t263.5 89t189 151.5t122.5 224t67 296.5t20 378.5zM2243 649q0 -227 -23.5 -402.5t-77 -318.5t-138 -242t-207.5 -166.5t-284.5 -98.5t-371.5 -31t-371 30t-284.5 95.5t-207.5 163.5t-137 241t-76.5 320t-23.5 409t23.5 409t76.5 320.5t137 241.5t207.5 163.5t284.5 95.5
t371 30t371.5 -31t284.5 -98.5t207.5 -166.5t138 -242.5t77 -319t23.5 -402.5zM1178 883q0 -82 -9 -98.5t-57 -16.5v-76h301v76q-46 0 -53.5 16t-7.5 99v121q16 0 46 1t44 1q61 0 90 -2v-121q0 -83 -8 -99t-56 -16v-76h306v76q-50 0 -59 16.5t-9 98.5v299q0 83 9 98.5
t59 15.5v78h-306v-78q48 0 56 -15t8 -99v-117h-180v117q0 84 7.5 99t53.5 15v78h-301v-78q49 0 57.5 -15.5t8.5 -98.5v-299zM791 -86v76q-37 0 -64 32.5t-42.5 89.5t-22.5 124t-7 145q0 47 -2 74l13 2q9 -22 26.5 -67.5t31.5 -79t28 -58.5l174 -338h166q-19 120 -19 313
q0 153 16 222t60 69v76h-256v-76q64 0 89.5 -90.5t25.5 -259.5v-66l-9 -4q-10 22 -39.5 92t-48.5 105q-44 81 -69 144t-31 91t-10 64h-287v-76q51 0 59.5 -16.5t8.5 -104.5v-73q0 -177 -14 -255.5t-54 -78.5v-76h277z" />
    <glyph glyph-name=".null" horiz-adv-x="0" 
 />
    <glyph glyph-name="nonmarkingreturn" horiz-adv-x="682" 
 />
    <glyph glyph-name="space" unicode=" " horiz-adv-x="436" 
 />
    <glyph glyph-name="comma" unicode="," horiz-adv-x="458" 
d="M27 -276v114q140 0 209 54t69 131q0 24 -24 24q-16 0 -48 -10t-63 -10q-68 0 -111 43t-43 127q0 94 54 154.5t155 60.5q105 0 161 -65.5t56 -196.5q0 -94 -24 -171t-73 -135.5t-130 -89.5t-188 -30z" />
    <glyph glyph-name="period" unicode="." horiz-adv-x="460" 
d="M231 412q97 0 155 -57.5t58 -155.5q0 -97 -58 -154t-155 -57q-99 0 -157 56.5t-58 154.5q0 99 58 156t157 57z" />
    <glyph glyph-name="zero" unicode="0" horiz-adv-x="1110" 
d="M1044 651q-2 -349 -117.5 -513.5t-371.5 -164.5q-257 0 -372 162.5t-115 515.5q0 348 114.5 507t372.5 159t373.5 -159t115.5 -507zM692 653q0 174 -8.5 284t-27.5 166.5t-42 75.5t-59 19t-59 -19t-42 -75.5t-27.5 -166.5t-8.5 -284q0 -228 17 -353t44.5 -165.5
t75.5 -40.5t75.5 40.5t44.5 165.5t17 353z" />
    <glyph glyph-name="one" unicode="1" horiz-adv-x="661" 
d="M627 0h-586v117q82 0 111.5 21t29.5 87v662q0 60 -24.5 88.5t-89.5 28.5h-35v114q178 6 272.5 54t95.5 153h115v-1100q0 -68 24.5 -88t86.5 -20v-117z" />
    <glyph glyph-name="two" unicode="2" horiz-adv-x="985" 
d="M252 270q54 0 88.5 -35t34.5 -98q0 -70 -46 -111.5t-122 -41.5q-89 0 -138 52.5t-49 141.5q0 82 32 150t82.5 115.5t112 90t123 84t112 86.5t82.5 109t32 141q0 118 -54 170t-167 52q-163 0 -234 -105l29 -16q41 39 100 39q61 0 98.5 -42t37.5 -114q2 -68 -44.5 -115
t-138.5 -47t-142 57.5t-50 157.5q0 145 109 231.5t341 86.5q226 0 336.5 -82t110.5 -269q0 -116 -37.5 -198.5t-95 -125t-140 -74.5t-159.5 -47.5t-167.5 -43t-150.5 -61.5l10 -29q67 29 131 29q90 0 209 -33t181 -33q64 0 89.5 41.5t22.5 151.5h101q10 -75 10 -170
q0 -199 -44 -290t-143 -91q-50 0 -90.5 19.5t-67 50.5t-49.5 69t-45.5 76t-48 69t-62.5 50.5t-83 19.5q-133 0 -176 -100l27 -13q42 45 102 45z" />
    <glyph glyph-name="three" unicode="3" horiz-adv-x="997" 
d="M346 102q129 0 190.5 61t61.5 208q0 71 -15 115.5t-47.5 65.5t-67 27.5t-89.5 6.5q-80 0 -139 -11v132q71 -11 141 -11q84 0 125 16t61.5 66.5t20.5 151.5q0 141 -52.5 197.5t-158.5 56.5q-122 0 -195 -58l23 -34q37 18 74 18q59 0 95 -38.5t36 -106.5q2 -66 -43 -111
t-134 -45t-136.5 55t-47.5 152q0 134 109.5 215.5t333.5 81.5q220 0 327 -83.5t107 -277.5q0 -81 -23.5 -136t-71.5 -85.5t-107.5 -44.5t-145.5 -18v-58q69 -3 121.5 -11t100.5 -27t78.5 -49t48 -77t17.5 -110q0 -182 -117.5 -271.5t-339.5 -89.5q-233 0 -348.5 79.5
t-115.5 211.5q0 98 48 152.5t138 54.5q88 0 132 -45t42 -111q0 -68 -36 -106.5t-95 -38.5q-36 0 -74 21l-22 -35q74 -56 190 -56z" />
    <glyph glyph-name="four" unicode="4" 
d="M1004 115v-115h-654v115q81 0 122.5 7t62 38.5t23.5 63.5t3 115v5h-545v113q90 57 142.5 151t77 261.5t14.5 420.5h334q0 -162 -33.5 -303.5t-89 -239t-125 -159.5t-143.5 -80v-49h368v289q120 32 177 161t71 381h88v-829q53 5 76.5 41.5t30.5 126.5h86v-439h-86
q-7 84 -31.5 118t-75.5 40q0 -167 14.5 -200t92.5 -33z" />
    <glyph glyph-name="five" unicode="5" horiz-adv-x="985" 
d="M487 -25q-230 0 -347 77t-117 194q0 86 50 134t144 48t141 -39.5t45 -95.5q0 -59 -37.5 -93t-99.5 -34q-41 0 -80 16l-26 -32q66 -54 172 -54q139 0 202.5 62t63.5 221q0 122 -45.5 184t-149.5 62q-153 0 -237 -95h-100q3 125 -4 380t-15 380h125q-11 -209 -14 -319h45
q17 176 56 254t103 78q49 0 74 -35.5t53 -116.5q34 -102 83 -154.5t133 -52.5q86 0 129 51l-29 33q-41 -24 -92 -24q-59 0 -95 37t-36 108q0 75 44.5 116.5t114.5 41.5q93 0 142 -61t49 -163t-61 -166.5t-171 -64.5q-81 0 -206.5 18.5t-171.5 18.5q-76 0 -116 -61t-44 -207
q116 116 364 116q216 0 315 -82.5t99 -275.5q0 -404 -453 -404z" />
    <glyph glyph-name="six" unicode="6" horiz-adv-x="1083" 
d="M418 389q0 -151 32 -219t103 -68q135 0 135 271q0 97 -35 136.5t-102 39.5q-65 0 -99 -36.5t-34 -123.5zM684 1194q-50 0 -90.5 -13t-79 -48t-64.5 -91t-41.5 -147.5t-15.5 -212.5v-131h29q64 166 280 166q176 0 252 -84t76 -262q0 -60 -12.5 -113.5t-46 -106.5
t-85.5 -91t-137.5 -61.5t-195.5 -23.5q-138 0 -232.5 43t-150.5 132.5t-80 213.5t-24 300q0 338 132 491.5t398 153.5q187 0 293 -77t106 -204q0 -96 -45 -150.5t-139 -54.5q-86 0 -138 42.5t-52 119.5q0 67 36 106t107 39q25 0 37 -4l18 33q-53 35 -135 35z" />
    <glyph glyph-name="seven" unicode="7" horiz-adv-x="993" 
d="M653 176q0 -99 -49 -150t-135 -51q-98 0 -147.5 56.5t-49.5 144.5q0 154 86 289q-164 -4 -229 -12v129q128 -13 315 -15q58 59 143.5 120.5t155.5 111.5t101 88l-19 20q-88 -51 -211 -51q-76 0 -188.5 18.5t-151.5 18.5q-29 0 -47 -4.5t-39 -20.5t-30 -55.5t-8 -101.5
h-101q3 109 -3 296.5t-13 282.5h125q0 -10 -2 -33.5t-6 -94t-7 -179.5h47q15 169 52 245.5t102 76.5q53 0 82.5 -42.5t62.5 -136.5q31 -88 82 -135t156 -47q61 0 99 23t69 73l-21 17q-60 -51 -116 -51q-74 0 -116 36.5t-42 108.5q0 74 45 115t113 41q104 0 156.5 -65
t54.5 -183q0 -61 -21.5 -117.5t-57.5 -104t-73.5 -89t-79 -90.5t-65.5 -89q83 0 182 15v-133q-28 2 -106.5 6t-116.5 6q-4 -28 -4 -45q0 -39 13 -123.5t13 -118.5z" />
    <glyph glyph-name="eight" unicode="8" horiz-adv-x="1091" 
d="M547 623q-91 0 -122.5 -52t-31.5 -202q0 -138 33 -197t121 -59q87 0 120 59t31 197q0 151 -31 202.5t-120 51.5zM547 756q85 0 118 50.5t33 164.5q0 116 -32.5 164.5t-118.5 48.5t-120 -49t-34 -164q0 -114 34 -164.5t120 -50.5zM547 -18q-267 0 -382.5 96t-115.5 289
q0 142 76 216t233 83v47q-155 14 -218.5 79t-63.5 185q0 162 111 247t360 85q247 0 358 -84.5t111 -245.5q0 -122 -64.5 -189t-216.5 -77v-49q307 -20 307 -297q0 -193 -115 -289t-380 -96z" />
    <glyph glyph-name="nine" unicode="9" horiz-adv-x="1083" 
d="M678 915q0 136 -32 201.5t-101 65.5q-135 0 -135 -275q0 -129 34.5 -179t102.5 -50q65 0 98 51.5t33 185.5zM416 90q289 0 289 488v96h-31q-65 -164 -281 -164q-173 0 -250 87.5t-77 262.5q0 73 12.5 135t46 121.5t86 101t138 66.5t196.5 25q137 0 231 -42t150 -130
t80 -209.5t24 -292.5q0 -348 -132 -504t-398 -156q-185 0 -290.5 75.5t-105.5 195.5q0 89 45 139.5t140 50.5q86 0 137 -38.5t51 -110.5q0 -62 -36 -98.5t-107 -36.5q-18 0 -39 6l-16 -31q56 -37 137 -37z" />
    <glyph glyph-name="A" unicode="A" horiz-adv-x="1167" 
d="M0 117q59 20 137 219t130 417.5t52 315.5q0 59 -35 82t-124 23v116h635l231 -991q24 -92 52.5 -130.5t88.5 -51.5v-117h-620v117q82 0 121 49t18 137l-37 170h-155h-142q-20 -137 -20 -207q0 -63 23.5 -92t86.5 -57v-117h-442v117zM494 582h133l-121 573h-31
q-28 -150 -65 -357t-39 -216h123z" />
    <glyph glyph-name="B" unicode="B" horiz-adv-x="1150" 
d="M670 0h-654v117q94 0 110.5 27t16.5 167v17v635v17v79t-5 51.5t-10.5 36t-22.5 17t-35.5 10t-53.5 0.5v116h639q245 0 338.5 -68t93.5 -249q0 -71 -13.5 -121t-36.5 -81t-63 -49t-83 -25t-107 -9v-59q67 -2 114 -9t89.5 -25.5t68 -50t40 -82.5t14.5 -122q0 -196 -95 -268
t-345 -72zM535 588h-58v-471h37q139 0 200.5 51t61.5 190q0 73 -14 119t-46 70t-73.5 32.5t-107.5 8.5zM522 1174h-45v-472h53q68 0 108.5 9t68.5 35t38.5 70t10.5 116q0 78 -11 124.5t-40.5 73t-71 35.5t-111.5 9z" />
    <glyph glyph-name="C" unicode="C" horiz-adv-x="1087" 
d="M891 1290h117l-7 -545h-116q-49 213 -116.5 327t-164.5 114q-39 0 -66 -11t-52.5 -43.5t-40.5 -90.5t-24 -154t-9 -232q0 -202 26.5 -320.5t76.5 -166t132 -47.5q85 0 136 35.5t78 126.5t26 247h119q0 -111 -11 -193t-39.5 -153t-76.5 -115t-124 -69t-180 -25
q-90 0 -163 17.5t-140.5 63.5t-113 120.5t-72.5 194.5t-27 278q0 182 32.5 312t95 207t146 112t193.5 35q69 0 130.5 -21.5t104.5 -43t68 -21.5q51 0 62 61z" />
    <glyph glyph-name="D" unicode="D" horiz-adv-x="1200" 
d="M567 1174h-88v-1057h99q39 0 69.5 9.5t62 40.5t52.5 83t34.5 142t14.5 212q1 242 -22 363.5t-73 164t-149 42.5zM623 0h-607v117h34.5t27.5 3t21.5 4t16 9.5l12 12t7.5 19.5t5 24t2 33.5t1 40.5v51v18v626q0 139 -8 168q-10 35 -46 43q-21 5 -73 5v116h572
q300 0 427.5 -154t127.5 -493q-1 -174 -28.5 -293.5t-89.5 -199t-160 -115t-242 -35.5z" />
    <glyph glyph-name="E" unicode="E" 
d="M1038 0h-1022v117q94 0 110.5 27t16.5 167v17v635v17v79t-5 51.5t-10.5 36t-22.5 17t-35.5 10t-53.5 0.5v116h1008v-479h-96q-20 111 -50.5 179t-84.5 110.5t-127.5 58t-188.5 15.5v-461q94 9 150 71.5t59 169.5h92q-2 -102 -2 -292q0 -191 4 -291h-94q-3 113 -56.5 175
t-152.5 68v-497q108 0 185 18t139 63t97 128t44 206h96v-532z" />
    <glyph glyph-name="F" unicode="F" horiz-adv-x="1048" 
d="M651 0h-635v117h34.5t27.5 3t21.5 4t16 9.5l12 12t7.5 19.5t5 24t2 33.5t1 40.5v51v18v626q0 139 -8 168q-10 35 -46 43q-21 5 -73 5v116h992v-540h-97q-24 129 -54 207t-81 128t-120 68.5t-179 20.5v-560q102 9 162 72t61 180h93q-2 -53 -2 -303q0 -245 2 -297h-93
q-1 120 -59 182t-164 68v-184q0 -55 1.5 -87t9 -58.5t16.5 -38.5t32 -20t47 -9.5t68 -1.5v-117z" />
    <glyph glyph-name="G" unicode="G" horiz-adv-x="1218" 
d="M530 1315q77 0 145.5 -21.5t116.5 -43t76 -21.5q49 0 60 61h116v-514h-116q-53 181 -158 295.5t-199 114.5q-40 0 -66 -18.5t-49 -72.5t-33.5 -162.5t-10.5 -277.5q0 -280 46 -405t144 -125q67 0 96.5 45t28.5 158v11v56.5t-3 41t-6 32.5t-13 20.5t-20.5 15t-32 7
t-43 4.5h-58.5v117h623v-117h-37.5t-27.5 -3.5t-20.5 -5.5t-13 -12.5t-8.5 -16.5t-4 -26t-2 -34v-46v-7v-365h-111q-20 102 -82 102q-27 0 -65.5 -20t-75.5 -43.5t-103.5 -43.5t-142.5 -20q-49 0 -95 12.5t-95 40.5t-89.5 79.5t-73 123t-51 179t-18.5 239.5q0 181 33 311.5
t96.5 207.5t147.5 112t194 35z" />
    <glyph glyph-name="H" unicode="H" horiz-adv-x="1304" 
d="M825 317v277h-172q-28 0 -87 -1t-89 -1v-275q0 -129 9 -157q10 -33 49 -40q20 -3 65 -3v-117h-584v117h34.5t27.5 3t21.5 4t16 9t12 12t7.5 19t5 23.5t2 32.5t1 39v50v8v656v8q0 139 -17 166t-110 27v116h584v-116h-33.5t-26.5 -3t-21 -4t-15.5 -9t-11 -12t-7.5 -19.5
t-5 -24t-2 -32.5t-1 -39v-49v-9v-266q59 -2 176 -2h172v268q0 130 -9 158q-11 33 -51 40q-19 3 -63 3v116h586v-116h-34.5t-27.5 -3t-21.5 -4t-16 -9t-12 -12t-7.5 -19.5t-5 -24t-2 -32.5t-1 -39v-50v-8v-656v-8v-50t1 -39t2 -32.5t5 -23.5t7.5 -19t12 -12t16 -9t21.5 -4
t27.5 -3h34.5v-117h-586v117h33.5t26.5 3t21 4t15.5 9t11 12t7.5 19t5 23.5t2 32.5t1 39v49v9z" />
    <glyph glyph-name="I" unicode="I" horiz-adv-x="620" 
d="M143 317v656v51.5t-1 41t-2.5 34t-5.5 25t-7.5 19.5t-11.5 13t-16 9.5t-22 4.5t-27 3h-34v116h588v-116h-34t-27 -3t-22 -4.5t-16 -9.5t-11.5 -13t-7.5 -19.5t-5.5 -25t-2.5 -34t-1 -41v-51.5v-656v-63t2.5 -47t4.5 -36.5t9.5 -23.5t15 -16.5t23 -8t31 -5t41.5 -0.5v-117
h-588v117q26 0 41.5 0.5t31 5t23 8t15 16.5t9.5 23.5t4.5 36.5t2.5 47v63z" />
    <glyph glyph-name="J" unicode="J" horiz-adv-x="595" 
d="M143 981v8q0 132 -17 158.5t-110 26.5v116h564v-116q-28 0 -43.5 -1t-28.5 -9t-18 -15.5t-8.5 -32.5t-4 -46t-0.5 -69v-933q0 -152 -65.5 -232t-186.5 -80q-125 0 -197.5 57.5t-72.5 161.5q0 79 43.5 128t118.5 49q77 0 113 -42.5t36 -105.5q0 -99 -57 -113
q-27 -6 -27 -24q0 -23 33 -23q58 0 95.5 44t37.5 135q0 181 -205 190v768z" />
    <glyph glyph-name="K" unicode="K" horiz-adv-x="1204" 
d="M786 700q211 0 211 -268v-143q0 -76 9.5 -107.5t40.5 -31.5q40 0 40 98q0 27 -2.5 84.5t-3.5 73.5h103q2 -47 2 -130q0 -171 -46 -231.5t-179 -60.5q-157 0 -217 59.5t-60 210.5v221q0 105 -104 105q-30 0 -103 -5v-260q0 -136 8 -162q9 -29 42 -34q14 -2 40 -2v-117
h-551v117h34.5t27.5 3t21.5 4t16 9t12 11.5t7.5 18.5t5 23.5t2 32.5t1 39v49v8v660v8v49t-1 39t-2 32.5t-5 23.5t-8 19l-12 12t-15.5 9t-21.5 4t-27.5 3h-34.5v116h551v-116q-66 0 -78 -26.5t-12 -160.5v-12v-254q123 115 194.5 207.5t71.5 163.5q0 36 -15.5 56t-55.5 26
v116h479v-116q-32 -24 -74.5 -58.5t-78 -64.5t-95.5 -83t-92 -81.5t-105 -94.5t-100 -90l17 -28q104 26 163 26z" />
    <glyph glyph-name="L" unicode="L" horiz-adv-x="911" 
d="M870 0h-854v117h34.5t27.5 3t21.5 4t16 10t12 13t7.5 20t5 25t2 35t1 42.5v53.5v9v626v9v53.5t-1 42.5t-2 35t-5 25.5t-7.5 20.5t-12 12.5t-16 10t-21.5 4.5t-27.5 3h-34.5v116h631v-116q-44 0 -67.5 -1.5t-45.5 -10t-31 -20t-16 -39t-8.5 -58.5t-1.5 -87v-841
q131 2 197.5 119t101.5 409h94v-645z" />
    <glyph glyph-name="M" unicode="M" horiz-adv-x="1593" 
d="M973 633l-217 -635h-74l-244 618q-88 224 -162 482h-2v-320q0 -236 23.5 -377.5t68 -204.5t119.5 -79v-117h-469v117q34 27 57 64.5t44.5 108.5t32 193t10.5 295v189q0 130 -10 159q-11 36 -54 44q-23 4 -80 4v116h578q5 -112 72.5 -326.5t154.5 -435.5q81 217 137 428.5
t62 333.5h555v-114q-26 0 -41 -0.5t-30.5 -5t-23 -8.5t-15 -17t-10 -24.5t-5 -38t-2.5 -49.5v-66v-635q0 -57 1 -87t6 -58t11.5 -39t23 -20t34.5 -10t51 -1v-117h-602v117q80 0 110.5 52.5t30.5 162.5v762q-40 -163 -141 -461z" />
    <glyph glyph-name="N" unicode="N" horiz-adv-x="1189" 
d="M539 117v-117h-523v117q77 4 103 124.5t26 397.5v328q0 133 -9 162q-11 34 -50 41q-21 4 -70 4v116h512q4 -49 10.5 -87t26.5 -105t63.5 -160t110.5 -213q102 -190 179 -377l24 6q-10 105 -10 189q0 126 -6 220t-21 173.5t-40.5 130t-64 78.5t-91.5 29v116h471v-116
q-77 -4 -106.5 -116t-29.5 -356q0 -438 31 -702h-287l-348 639q-65 128 -176 426l-16 -4q8 -152 8 -227q0 -160 14 -283t45 -222.5t87.5 -153.5t136.5 -58z" />
    <glyph glyph-name="O" unicode="O" horiz-adv-x="1200" 
d="M1143 643q-2 -348 -130 -509t-415 -161t-414 158t-125 512q0 355 126.5 513.5t412.5 158.5q287 0 416 -162t129 -510zM791 645q0 226 -22 348t-61.5 162.5t-109.5 40.5q-68 0 -106.5 -40.5t-60 -162.5t-21.5 -348q0 -224 21.5 -346t60 -163.5t106.5 -41.5q70 0 109.5 40
t61.5 162t22 349z" />
    <glyph glyph-name="P" unicode="P" horiz-adv-x="1134" 
d="M567 1174h-88v-642h101q46 0 80.5 10.5t67 39t50 87t17.5 146.5q1 153 -20.5 229t-68 103t-139.5 27zM659 117v-117h-643v117h34t27 3t21.5 4.5t16 9.5t12 13.5t7.5 20.5t5 26t2.5 36t1.5 43.5v54.5v630q0 59 -0.5 87.5t-5.5 58t-11 39.5t-22.5 19.5t-35 10.5t-52.5 1
v116h572q289 0 412.5 -105.5t123.5 -330.5q2 -233 -112.5 -338.5t-386.5 -105.5q-107 0 -146 2v-84q0 -58 0.5 -85.5t8 -56.5t16 -39t32 -19t49 -10t74.5 -1z" />
    <glyph glyph-name="Q" unicode="Q" horiz-adv-x="1191" 
d="M692 264q0 81 -19.5 110t-60.5 29q-42 0 -63 -29.5t-21 -103.5q0 -73 17 -112t61 -39t65 39t21 106zM414 274h49q0 40 6 80.5t20.5 82.5t43 68.5t67.5 26.5q104 0 133 -139h43q6 114 6 252q0 324 -35.5 437.5t-148.5 113.5q-39 0 -67.5 -11t-49.5 -38.5t-34.5 -68
t-22 -104.5t-11.5 -142t-3 -187q0 -252 4 -371zM948 -182q-79 0 -118 81.5t-56 284.5h-33q-23 -207 -258 -207q-103 0 -176.5 27t-122 78t-76.5 135t-39.5 185t-11.5 241q0 347 124 509.5t417 162.5q535 0 535 -561q0 -73 -8 -130.5t-30 -113t-59 -96t-96.5 -71
t-140.5 -44.5v-45q56 -29 143 -29q52 0 71 24t19 75h101q11 -282 -30 -394t-155 -112z" />
    <glyph glyph-name="R" unicode="R" horiz-adv-x="1218" 
d="M543 1174h-66v-474h74q113 0 166 57t53 197q0 76 -7 116.5t-34 65.5t-67.5 31.5t-118.5 6.5zM973 -16q-138 0 -199 50.5t-67 172.5q-1 27 -3.5 93t-3.5 112q-1 75 -16.5 110.5t-55.5 50t-122 13.5h-29v-258v-8v-64.5t2.5 -47.5t5 -37t10.5 -23.5t16 -17.5t25.5 -8t35 -5
h46.5v-117h-602v117q94 0 110.5 38t16.5 234v12v482v12q0 201 -16.5 240t-110.5 39v116h691q223 0 309 -68.5t86 -248.5q0 -77 -16 -130.5t-43 -86t-74 -50.5t-96.5 -24.5t-124.5 -7.5v-51q152 -1 212 -54.5t60 -179.5v-100q0 -77 7 -107t30 -30q25 0 33 32t8 111
q0 44 -4 158h100q2 -30 2 -162q0 -179 -46 -243t-177 -64z" />
    <glyph glyph-name="S" unicode="S" horiz-adv-x="1079" 
d="M733 254q0 83 -54.5 134t-195.5 110q-228 91 -320.5 191.5t-92.5 258.5q0 167 106.5 267t294.5 100q61 0 117.5 -15.5t90 -33.5t68 -33.5t56.5 -15.5q29 0 42.5 15.5t24.5 57.5h101v-483h-101q-68 193 -158.5 287t-213.5 94q-72 0 -114 -41t-42 -111q0 -69 51.5 -121.5
t177.5 -101.5q240 -88 345.5 -192.5t105.5 -276.5q0 -184 -107 -276.5t-276 -92.5q-79 0 -153 20t-118.5 44.5t-84 44.5t-58.5 20q-25 0 -38 -23t-17 -81h-102v530h96q169 -424 416 -424q153 0 153 148z" />
    <glyph glyph-name="T" unicode="T" horiz-adv-x="1163" 
d="M412 1174q-103 0 -169.5 -134.5t-80.5 -357.5h-105v608h1049v-608h-107q-18 224 -82 358t-159 134h-6v-760q0 -178 10 -221q12 -51 53 -66q31 -10 119 -10v-117h-701v117q52 0 78.5 1t51 15t32.5 25.5t15 55t7.5 79.5t0.5 121v760h-6z" />
    <glyph glyph-name="U" unicode="U" horiz-adv-x="1144" 
d="M883 416q0 119 -5 214t-13.5 164.5t-24 124.5t-30.5 91t-40 67t-46 50.5t-54 43.5v119h458v-119q-69 -35 -100 -133t-31 -280v-350q0 -112 -18.5 -188.5t-63.5 -131.5t-123.5 -80.5t-195.5 -25.5q-252 0 -353.5 100t-99.5 330v549v9v53.5t-1 42t-2 34.5t-5 25t-7.5 20
t-12 12.5t-16 9.5t-21.5 4t-27.5 3h-34.5v116h531v-116q-52 0 -61 -29t-9 -184v-517q0 -119 56.5 -182t154.5 -63q102 0 148.5 52t46.5 165z" />
    <glyph glyph-name="V" unicode="V" horiz-adv-x="1171" 
d="M813 0h-438l-236 967q-27 109 -52.5 151t-86.5 56v116h604v-116q-52 -1 -81 -9t-43.5 -32t-13 -63.5t16.5 -106.5l170 -770h64q63 352 87.5 525t24.5 265q0 87 -25 129t-93 62v116h460v-121q-64 -24 -119 -129.5t-116 -363t-123 -676.5z" />
    <glyph glyph-name="W" unicode="W" horiz-adv-x="1796" 
d="M846 311q-8 -42 -45 -311h-455l-211 1004q-23 88 -49 123.5t-86 46.5v116h1253v-116q-96 0 -114 -34t8 -147l160 -858h45q28 179 46.5 299.5t33 229.5t21.5 174t9 123t-0.5 87.5t-12 55.5t-21 38.5t-31.5 26.5v121h399v-121q-33 -12 -57 -40t-47.5 -80.5t-48.5 -153
t-53 -234.5t-68 -350q-20 -102 -45 -311h-463l-121 559q-5 -24 -14 -72t-17.5 -91.5t-15.5 -84.5zM477 999l162 -864h49q71 363 95 526.5t24 268.5q0 122 -39.5 185t-138.5 87q-99 -14 -136.5 -58.5t-15.5 -144.5z" />
    <glyph glyph-name="X" unicode="X" horiz-adv-x="1075" 
d="M387 117v-117h-387v117q136 75 344 487q-202 398 -248.5 480t-79.5 90v116h553v-114q-27 -3 -45.5 -22.5t-21 -56.5t29.5 -91l117 -254q141 328 15 422v116h395v-116q-21 -8 -40 -20.5t-38 -33.5t-34.5 -39.5t-35 -51.5t-33 -56t-35.5 -67.5t-34.5 -71t-38 -81
t-39.5 -83.5q117 -238 184.5 -357t96 -150t63.5 -46v-117h-592v117q60 9 75 52t-26 120l-106 239q-74 -170 -89 -234q-30 -128 50 -177z" />
    <glyph glyph-name="Y" unicode="Y" horiz-adv-x="1126" 
d="M920 0h-701v117q134 0 158 39t24 237l-241 574q-48 113 -68 143q-35 49 -92 61v119h580v-116q-69 0 -91.5 -56.5t11.5 -154.5l145 -412h19q66 204 86 333t3.5 192t-65.5 98v116h438v-116q-95 -35 -181 -215.5t-208 -565.5q0 -198 24.5 -237t158.5 -39v-117z" />
    <glyph glyph-name="Z" unicode="Z" horiz-adv-x="1198" 
d="M104 682v608h990v-137q-13 -25 -51.5 -84t-123.5 -194t-190 -314l-258 -444h64q60 0 105.5 5t85 19t67.5 32t53.5 52t43.5 69t37.5 94t34.5 117t35 146h95v-651h-1026v135q61 83 88 120.5t112 170.5t185 303l258 445h-123q-63 0 -106 -9.5t-86 -38.5t-74.5 -83.5
t-61.5 -143t-57 -217.5h-97z" />
    <glyph glyph-name="a" unicode="a" horiz-adv-x="1118" 
d="M88 883q0 250 397 250q174 0 271.5 -38.5t139.5 -122t42 -231.5q0 -52 -4 -242.5t-4 -242.5q0 -55 7.5 -74.5t31.5 -19.5q18 0 28.5 23t15.5 96.5t1 205.5h86q12 -194 -8 -305.5t-68.5 -154.5t-134.5 -43q-105 0 -155.5 52t-55.5 161h-23q-41 -91 -119.5 -152t-197.5 -61
q-165 0 -234 80.5t-69 240.5q0 154 74 233t229 89q72 3 121.5 13.5t76.5 25t41 40.5t17.5 49t3.5 62v37q0 93 -50 134.5t-151 41.5q-73 0 -137 -24l8 -31q14 4 37 4q144 0 144 -121q0 -135 -173 -135q-89 0 -138.5 41t-49.5 119zM455 168q70 0 106.5 38.5t36.5 108.5v267
q-23 -13 -64 -27t-73 -26.5t-64.5 -34t-50.5 -59.5t-18 -93q0 -89 31 -131.5t96 -42.5z" />
    <glyph glyph-name="b" unicode="b" 
d="M653 -16q-80 0 -143.5 16t-93.5 36t-59.5 36t-51.5 16q-30 0 -48.5 -24.5t-18.5 -63.5h-113v1174q0 63 -21 84.5t-88 21.5v121l453 24q0 -129 -15 -284t-16 -164h39q97 158 256 158q186 0 256.5 -129t67.5 -437q3 -310 -99 -447.5t-305 -137.5zM461 338q0 -130 24 -182
t99 -52q55 0 84 35.5t43 131.5t14 280q0 151 -14 230.5t-40 105.5t-73 26q-57 0 -97 -53.5t-40 -144.5v-377z" />
    <glyph glyph-name="c" unicode="c" horiz-adv-x="1024" 
d="M418 580q0 -167 25 -259.5t69.5 -124.5t120.5 -32q97 0 145.5 63.5t52.5 202.5h111q0 -113 -19.5 -193t-65.5 -141t-127 -91t-200 -30q-105 0 -186 30t-144.5 97t-97.5 184t-34 281q0 155 34 268t97 179t145 96.5t186 30.5q408 0 408 -314q0 -99 -49.5 -156t-134.5 -57
q-174 0 -174 162q0 79 39 126.5t102 47.5q18 0 39 -6l12 33q-58 41 -133 41q-40 0 -69 -8t-59.5 -34.5t-49.5 -73t-31 -128t-12 -194.5z" />
    <glyph glyph-name="d" unicode="d" horiz-adv-x="1110" 
d="M522 174q57 0 88 55.5t31 153.5v608q-43 13 -68 13q-36 0 -56.5 -3t-43 -16.5t-33.5 -40t-21.5 -74t-14 -118t-3.5 -172.5q0 -222 28.5 -314t92.5 -92zM721 0v197h-37q-37 -85 -113 -149t-174 -64q-178 0 -254.5 134t-76.5 433q0 158 27.5 268.5t82 175t128 93
t173.5 28.5q87 0 164 -18v90q0 59 -28.5 81.5t-116.5 22.5v117l479 16v-1208q0 -59 22.5 -79.5t94.5 -20.5v-117h-371z" />
    <glyph glyph-name="e" unicode="e" horiz-adv-x="1079" 
d="M553 1026q-47 0 -74 -28t-44 -117.5t-19 -253.5h280q-1 124 -11 204t-29.5 122t-43 57.5t-59.5 15.5zM997 387q0 -99 -19.5 -171t-65.5 -129t-128.5 -85.5t-201.5 -28.5q-95 0 -168 14.5t-140.5 54.5t-111 105.5t-69 171t-25.5 248.5q0 300 124.5 438t362.5 138
q126 0 214.5 -37.5t137 -108t69.5 -157t21 -199.5q0 -84 -2 -127h-577q6 -199 63 -277.5t193 -78.5q104 0 157 54.5t54 174.5h112z" />
    <glyph glyph-name="f" unicode="f" horiz-adv-x="653" 
d="M248 1231q0 -116 61.5 -177t167.5 -61h115v-114h-115v-656q0 -60 31 -84t123 -24v-115h-615v115q76 0 101.5 24t25.5 84v656h-102v114h147v33q-90 26 -137 76.5t-47 146.5q0 121 86.5 184.5t251.5 63.5q151 0 228 -64t77 -171q0 -86 -39 -129t-108 -43q-81 0 -117.5 40.5
t-36.5 106.5q0 62 38.5 97.5t92.5 35.5q29 0 45 -4l6 20q-53 27 -110 27q-76 0 -123 -45t-47 -137z" />
    <glyph glyph-name="g" unicode="g" horiz-adv-x="1077" 
d="M543 -176q92 0 151 7t87 22.5t37 32t9 42.5q0 74 -77 74q-78 0 -258 -4t-218 -4q1 -44 11.5 -73t38.5 -52.5t82 -34t137 -10.5zM668 758q0 160 -28 218t-103 58q-73 0 -99 -58t-26 -218q0 -131 27 -186.5t100 -55.5q72 0 100.5 55.5t28.5 186.5zM1036 16
q0 -72 -21 -121.5t-74.5 -88.5t-152.5 -57.5t-247 -18.5q-108 0 -187.5 8.5t-127 22t-76 34.5t-38.5 42.5t-10 49.5q0 46 30 79t71 38v45q-80 20 -119 64t-39 135q0 87 64 145t170 58h26v45q-117 26 -164 95t-47 210q0 184 98.5 263t333.5 79q52 0 143 -7.5t122 -7.5
q28 0 28 23q0 24 -53 41q-51 16 -76.5 41.5t-25.5 81.5q0 57 41.5 92t121.5 35q92 0 138.5 -47.5t46.5 -134.5q0 -89 -50 -140t-139 -51q-40 0 -94 8v-45q148 -17 202 -83t54 -220q0 -178 -103 -254t-352 -76q-165 0 -224.5 -18t-59.5 -59q0 -66 86 -66q12 0 187 6t253 6
q129 0 196.5 -68.5t67.5 -183.5z" />
    <glyph glyph-name="h" unicode="h" horiz-adv-x="1185" 
d="M549 115v-115h-533v115q66 0 87.5 23.5t21.5 82.5v959q0 63 -21 84.5t-88 21.5v115l453 24q0 -121 -23.5 -304.5t-25.5 -209.5h14q52 118 128 170t192 52q159 0 233 -88.5t74 -264.5v-559q0 -56 25 -81t83 -25v-115h-530v115q51 0 68.5 17t17.5 58v562q0 86 -29.5 124.5
t-95.5 38.5q-53 0 -96 -44.5t-43 -120.5v-560q0 -42 18 -58.5t70 -16.5z" />
    <glyph glyph-name="i" unicode="i" horiz-adv-x="585" 
d="M274 1470q211 0 211 -135q0 -133 -211 -133t-211 133q0 70 53 102.5t158 32.5zM569 0h-553v115q66 0 87.5 22t21.5 78v680q0 59 -20.5 81.5t-86.5 22.5v117h443v-901q0 -56 21 -78t87 -22v-115z" />
    <glyph glyph-name="j" unicode="j" horiz-adv-x="595" 
d="M311 1470q211 0 211 -135q0 -133 -211 -133t-211 133q0 70 53 102.5t158 32.5zM500 39q0 -148 -73 -229.5t-196 -81.5q-233 0 -233 198q0 70 37.5 112t105.5 42q127 0 127 -113q0 -49 -33.5 -77.5t-76.5 -28.5q-11 0 -43 4l-6 -35q33 -8 77 -8q68 0 117 44t49 134
q0 88 -46 134t-142 50v707q0 61 -26.5 85.5t-106.5 24.5v115h469v-1077z" />
    <glyph glyph-name="k" unicode="k" horiz-adv-x="1193" 
d="M469 1425v-753q213 163 213 256q0 33 -21.5 51t-80.5 25v112h514v-112q-45 -25 -115 -70.5t-129.5 -86.5t-162 -112t-161.5 -112l11 -29q154 37 239 37q203 0 203 -205v-137q0 -75 8.5 -103t34.5 -28q30 0 41 57t10 217h103q4 -118 -7 -200.5t-31.5 -131t-58 -75.5
t-76.5 -35t-98 -8q-144 0 -199 59.5t-55 206.5q0 28 2 92t2 102q0 78 -90 78q-21 0 -52.5 -1t-43.5 -1v-299q0 -58 22.5 -81t86.5 -23v-115h-562v115q66 0 87.5 23t21.5 81v961q0 63 -21 84.5t-88 21.5v115z" />
    <glyph glyph-name="l" unicode="l" horiz-adv-x="593" 
d="M469 1425v-1206q0 -58 22.5 -81t86.5 -23v-115h-562v115q66 0 87.5 23t21.5 81v961q0 63 -21 84.5t-88 21.5v115z" />
    <glyph glyph-name="m" unicode="m" horiz-adv-x="1783" 
d="M1061 748v-531q0 -54 17 -78t57 -24v-115h-496v115q51 0 68.5 22.5t17.5 77.5v533q0 88 -29 127.5t-94 39.5q-68 0 -104.5 -43t-36.5 -124v-533q0 -55 18 -77.5t70 -22.5v-115h-533v115q66 0 87.5 22.5t21.5 79.5v678q0 62 -21.5 84t-85.5 22v115h398q0 -45 -4 -213h22
q78 230 320 230q121 0 183.5 -57.5t74.5 -172.5h22q78 230 320 230q157 0 231 -88.5t74 -264.5v-563q0 -54 25.5 -78t82.5 -24v-115h-528v115q50 0 67 22.5t17 77.5v533q0 88 -29 127.5t-92 39.5q-68 0 -104.5 -42.5t-36.5 -124.5z" />
    <glyph glyph-name="n" unicode="n" horiz-adv-x="1185" 
d="M549 115v-115h-533v115q66 0 87.5 23.5t21.5 82.5v674q0 63 -20.5 84.5t-86.5 21.5v115h398q0 -39 -4 -211h20q52 121 128 174.5t194 53.5q159 0 233 -88.5t74 -264.5v-559q0 -56 25 -81t83 -25v-115h-530v115q51 0 68.5 17t17.5 58v562q0 86 -29.5 124.5t-95.5 38.5
q-53 0 -96 -44.5t-43 -120.5v-560q0 -42 18 -58.5t70 -16.5z" />
    <glyph glyph-name="o" unicode="o" horiz-adv-x="1107" 
d="M1042 567q0 -302 -116 -448t-371 -146q-257 0 -373 144.5t-114 449.5q2 304 115.5 440t371.5 136q256 0 371.5 -138t115.5 -438zM692 569q0 146 -8.5 239t-28 139t-42 61.5t-58.5 15.5q-37 0 -60 -15t-42.5 -61.5t-28 -139t-8.5 -239.5t8.5 -242t27.5 -145.5t43 -69
t60 -18.5q47 0 74.5 34.5t45 141.5t17.5 299z" />
    <glyph glyph-name="p" unicode="p" 
d="M725 569q0 146 -11.5 218.5t-36.5 99t-75 26.5q-69 0 -106 -74t-37 -249v-418q52 -25 121 -25q58 0 88.5 39t43.5 128t13 255zM612 -137v-117h-596v117q66 0 87.5 23t21.5 83v924q0 64 -20 86t-85 22v115h392v-162h39q56 93 124.5 136t161.5 43q123 0 192 -53.5
t99.5 -175t30.5 -337.5q0 -160 -24.5 -271.5t-73.5 -176t-116 -92.5t-159 -27q-120 0 -227 66v-97q0 -60 30.5 -83t122.5 -23z" />
    <glyph glyph-name="q" unicode="q" horiz-adv-x="1132" 
d="M539 1001q-53 0 -81 -35t-42.5 -136t-14.5 -293q0 -151 14.5 -231.5t40 -106t72.5 -25.5q113 0 113 213v434q0 97 -22.5 138.5t-79.5 41.5zM684 -37q18 128 21 234h-29q-41 -110 -115.5 -162.5t-167.5 -52.5q-186 0 -256 128.5t-67 436.5q-1 158 25 271t79 182t127 101
t174 32q76 0 135.5 -16.5t88.5 -37t57.5 -37t50.5 -16.5q32 0 51 25t19 65h100v-1186q0 -39 20.5 -53t85.5 -14v-117h-553v117q65 0 95.5 9t42 28t16.5 63z" />
    <glyph glyph-name="r" unicode="r" horiz-adv-x="837" 
d="M633 117v-117h-617v117q65 0 87 24.5t22 79.5v674q0 58 -21 81t-84 23v117h400q-1 -31 -2 -96t-2 -98h35q35 100 84.5 155.5t121.5 55.5q70 0 114 -48.5t44 -160.5q0 -97 -37 -159.5t-108 -62.5q-30 0 -54 12.5t-38 30t-26 34.5t-25 29.5t-27 12.5q-22 0 -30.5 -23
t-8.5 -81v-488q0 -67 33 -89.5t139 -22.5z" />
    <glyph glyph-name="s" unicode="s" horiz-adv-x="966" 
d="M616 203q0 74 -55.5 126t-195.5 109q-289 120 -289 365q0 159 91 248.5t255 89.5q54 0 99.5 -12t70.5 -26t51 -26t45 -12q23 0 34 11t19 40h113v-395h-111q-55 154 -127.5 230.5t-169.5 76.5q-57 0 -86.5 -31.5t-29.5 -85.5q0 -62 48.5 -111t156.5 -91
q180 -68 272 -167.5t92 -242.5q0 -164 -95 -244t-253 -80q-77 0 -147 21t-115.5 42t-63.5 21q-23 0 -34.5 -13t-12.5 -46h-110v430h106q126 -342 334 -342q108 0 108 115z" />
    <glyph glyph-name="t" unicode="t" horiz-adv-x="749" 
d="M465 1399v-283h242v-117h-242v-729q0 -72 11 -100.5t42 -28.5q21 0 34 17.5t21.5 72t8.5 150.5v106h112q4 -82 4 -120q0 -204 -56.5 -294.5t-207.5 -90.5q-80 0 -133 13t-93 47t-58.5 95.5t-18.5 155.5v706h-108v117q128 0 218.5 74t114.5 209h109z" />
    <glyph glyph-name="u" unicode="u" horiz-adv-x="1185" 
d="M768 0q0 16 2.5 89t3.5 122h-35q-45 -129 -118.5 -179t-190.5 -50q-157 0 -231 90t-74 270v553q0 69 -20.5 87.5t-88.5 18.5v115h455l-10 -276v-498q0 -73 29 -106t92 -33q68 0 105.5 47t37.5 135v449q0 45 -1 68.5t-7.5 45.5t-14 30t-28.5 14.5t-42 7.5t-63 1v115h502
l-10 -282v-617q0 -60 21 -81t87 -21v-115h-401z" />
    <glyph glyph-name="v" unicode="v" horiz-adv-x="978" 
d="M711 0h-447l-168 854q-18 77 -36.5 107.5t-59.5 39.5v115h518v-115q-67 0 -80.5 -30t6.5 -119l129 -735h41q54 352 73.5 500.5t19.5 230.5q0 72 -16.5 103.5t-53.5 47.5v117h342v-117q-19 -8 -33.5 -20t-29.5 -38.5t-27.5 -58.5t-28 -91.5t-29.5 -125t-34 -171
t-39.5 -218t-46.5 -276.5z" />
    <glyph glyph-name="w" unicode="w" horiz-adv-x="1599" 
d="M700 0h-436l-166 823q-21 96 -38.5 132t-59.5 46v115h1108v-115q-68 -26 -41 -182l127 -704h41q88 544 88 692q0 95 -27.5 135.5t-93.5 56.5v117h397v-117q-25 -10 -43.5 -29.5t-39 -67.5t-37.5 -111t-41 -181t-48 -255.5t-61 -354.5h-424l-108 541q-33 -164 -97 -541z
M444 819l127 -704h47q24 121 35.5 178.5t27.5 144.5t22 130t12 96.5t5.5 87.5t-5.5 61l-10 49q-13 66 -46.5 106t-95.5 70q-83 -35 -109.5 -80t-9.5 -139z" />
    <glyph glyph-name="x" unicode="x" horiz-adv-x="1024" 
d="M354 117v-117h-354v117q70 40 151 148.5t152 266.5q-101 202 -157 300t-84.5 129t-59.5 38v117h537v-112q-74 -38 -2 -166l90 -205q45 106 64 170.5t13.5 116t-45.5 79.5v117h363v-117q-77 -31 -140.5 -126t-160.5 -293q100 -200 154.5 -295t82.5 -124t66 -44v-117h-549
v117q22 17 31 34.5t1 55t-40 94.5l-68 174q-33 -69 -50 -109t-31.5 -84t-13.5 -71t12.5 -51.5t37.5 -42.5z" />
    <glyph glyph-name="y" unicode="y" horiz-adv-x="978" 
d="M342 -272q-149 0 -211.5 53.5t-62.5 150.5q0 78 49 124t141 46q170 0 170 -122q0 -40 -28.5 -67t-77.5 -38l4 -45q112 20 166.5 80.5t54.5 150.5q0 57 -26 80t-79 23h-176l-174 682q-28 100 -43.5 126t-48.5 29v115h483v-115q-19 -4 -30 -10t-19.5 -19.5t-8 -38
t10.5 -61.5l137 -596h48q37 214 50.5 354t2.5 214.5t-32 106.5t-60 48v117h397v-117q-20 -10 -35.5 -23t-31.5 -40.5t-28 -54.5t-28 -85.5t-29 -113t-33.5 -156.5t-39 -196.5t-47.5 -251.5q-73 -350 -365 -350z" />
    <glyph glyph-name="z" unicode="z" horiz-adv-x="1091" 
d="M100 596v520h879v-123q-9 -17 -45 -70.5t-105.5 -166.5t-158.5 -271l-209 -368h26q69 0 113 5t82.5 25.5t60.5 46t45.5 82t39.5 118t40 167.5h109v-561h-909v121q10 16 62 89.5t116.5 175t146.5 245.5l211 373h-80q-57 0 -92.5 -7.5t-70 -30t-59 -68t-47.5 -118
t-46 -184.5h-109z" />
    <glyph glyph-name="uni00A0" unicode="&#xa0;" horiz-adv-x="436" 
 />
  </font>
</defs>
</svg>
