<svg xmlns="http://www.w3.org/2000/svg">
<defs>
<font id="OhnoFatfaceDemo-14PtCompressed" horiz-adv-x="770" >
  <font-face 
    font-family="Ohno Fatface Demo 14 Pt Compressed"
    font-weight="320"
    font-stretch="extra-condensed"
    units-per-em="2048"
    panose-1="2 15 10 4 2 2 5 9 4 4"
    ascent="1518"
    descent="-530"
    x-height="1116"
    cap-height="1290"
    bbox="-39 -510 1530 1808"
    underline-thickness="102"
    underline-position="-204"
    unicode-range="U+0020-00A0"
  />
<missing-glyph horiz-adv-x="1566" 
d="M1069 264q0 -125 -7.5 -191.5t-20.5 -89t-37 -22.5q-23 0 -36 22.5t-20.5 90t-7.5 190.5q0 125 7.5 193t20.5 90t36 22q24 0 37 -22.5t20.5 -89.5t7.5 -193zM1206 264q0 182 -48 272.5t-154 90.5t-153.5 -89t-47.5 -274q0 -186 47.5 -275t153.5 -89t154 90.5t48 273.5z
M606 1030q0 -125 -7 -192t-20 -89t-36 -22q-24 0 -37.5 23t-21 90t-7.5 190q0 125 7.5 192t21 90t37.5 23q23 0 36 -23t20 -90t7 -192zM739 1030q0 181 -47 272t-149 91q-104 0 -151.5 -89.5t-47.5 -273.5q0 -185 47.5 -273.5t151.5 -88.5q102 0 149 90t47 272zM1401 647
q0 -226 -18 -387.5t-60.5 -286t-114.5 -198t-176 -110t-250 -36.5q-147 0 -250 34.5t-175.5 106t-114.5 195t-60 287t-18 395.5q0 233 18 396.5t60 287t114.5 195.5t175.5 106.5t250 34.5q146 0 250 -37t176 -110.5t114.5 -198.5t60.5 -286.5t18 -387.5zM1470 649
q0 244 -20.5 418.5t-67.5 308.5t-127 213.5t-195.5 118.5t-277.5 39q-135 0 -236.5 -24.5t-179 -80t-128.5 -139t-83 -209t-45.5 -281t-13.5 -364.5q0 -207 13.5 -362t45.5 -281t83 -209.5t128.5 -140t179 -81t236.5 -24.5q162 0 277.5 39.5t195.5 119t127 213.5t67.5 308
t20.5 418zM1530 649q0 -210 -16 -371.5t-52 -293.5t-93 -223t-141 -152.5t-193.5 -90t-252.5 -28.5q-144 0 -253 27t-193 87t-140 150t-92 222t-51.5 295t-15.5 378t15.5 378t51.5 295t92 222t140 150t193 87t253 27q143 0 252.5 -28.5t193.5 -90t141 -152.5t93 -223
t52 -293.5t16 -371.5zM811 864q0 -90 -6 -107.5t-41 -17.5v-63h209v63q-30 0 -34.5 16.5t-4.5 108.5v137q9 0 28.5 1.5t28.5 1.5q31 0 58 -3v-137q0 -91 -5 -108t-36 -17v-63h206v63q-33 0 -39 17.5t-6 107.5v316q0 95 6 113t39 18v65h-206v-65q31 0 36 -17t5 -114v-123

<glyph glyph-name=".notdef" horiz-adv-x="1566" 
d="M1069 264q0 -125 -7.5 -191.5t-20.5 -89t-37 -22.5q-23 0 -36 22.5t-20.5 90t-7.5 190.5q0 125 7.5 193t20.5 90t36 22q24 0 37 -22.5t20.5 -89.5t7.5 -193zM1206 264q0 182 -48 272.5t-154 90.5t-153.5 -89t-47.5 -274q0 -186 47.5 -275t153.5 -89t154 90.5t48 273.5z
M606 1030q0 -125 -7 -192t-20 -89t-36 -22q-24 0 -37.5 23t-21 90t-7.5 190q0 125 7.5 192t21 90t37.5 23q23 0 36 -23t20 -90t7 -192zM739 1030q0 181 -47 272t-149 91q-104 0 -151.5 -89.5t-47.5 -273.5q0 -185 47.5 -273.5t151.5 -88.5q102 0 149 90t47 272zM1401 647
q0 -226 -18 -387.5t-60.5 -286t-114.5 -198t-176 -110t-250 -36.5q-147 0 -250 34.5t-175.5 106t-114.5 195t-60 287t-18 395.5q0 233 18 396.5t60 287t114.5 195.5t175.5 106.5t250 34.5q146 0 250 -37t176 -110.5t114.5 -198.5t60.5 -286.5t18 -387.5zM1470 649
q0 244 -20.5 418.5t-67.5 308.5t-127 213.5t-195.5 118.5t-277.5 39q-135 0 -236.5 -24.5t-179 -80t-128.5 -139t-83 -209t-45.5 -281t-13.5 -364.5q0 -207 13.5 -362t45.5 -281t83 -209.5t128.5 -140t179 -81t236.5 -24.5q162 0 277.5 39.5t195.5 119t127 213.5t67.5 308
t20.5 418zM1530 649q0 -210 -16 -371.5t-52 -293.5t-93 -223t-141 -152.5t-193.5 -90t-252.5 -28.5q-144 0 -253 27t-193 87t-140 150t-92 222t-51.5 295t-15.5 378t15.5 378t51.5 295t92 222t140 150t193 87t253 27q143 0 252.5 -28.5t193.5 -90t141 -152.5t93 -223
t52 -293.5t16 -371.5zM811 864q0 -90 -6 -107.5t-41 -17.5v-63h209v63q-30 0 -34.5 16.5t-4.5 108.5v137q9 0 28.5 1.5t28.5 1.5q31 0 58 -3v-137q0 -91 -5 -108t-36 -17v-63h206v63q-33 0 -39 17.5t-6 107.5v316q0 95 6 113t39 18v65h-206v-65q31 0 36 -17t5 -114v-123
h-115v123q0 97 4.5 114t34.5 17v65h-209v-65q35 0 41 -18t6 -113v-316zM547 -86v63q-36 3 -60 68.5t-33.5 156t-9.5 199.5q0 41 -2 64l11 2q6 -24 17.5 -71t21.5 -82t20 -62l117 -338h119q-13 127 -13 324q0 167 11 239.5t42 73.5v65h-178v-65q84 -11 84 -385v-55l-10 -5
q-6 21 -16.5 64t-20.5 78t-20 65q-74 200 -78 303h-191v-65q30 0 35.5 -16t5.5 -103v-16v-97q0 -176 -8.5 -257.5t-32.5 -84.5v-63h189z" />
    <glyph glyph-name=".null" horiz-adv-x="0" 
 />
    <glyph glyph-name="nonmarkingreturn" horiz-adv-x="682" 
 />
    <glyph glyph-name="space" unicode=" " horiz-adv-x="284" 
 />
    <glyph glyph-name="comma" unicode="," horiz-adv-x="323" 
d="M14 -219v82q102 1 157.5 47t55.5 102q0 21 -18 21q-10 0 -35 -9.5t-49 -9.5q-50 0 -82.5 35t-32.5 101q0 73 38.5 118t111.5 45q155 0 155 -200q0 -153 -75 -242t-226 -90z" />
    <glyph glyph-name="period" unicode="." horiz-adv-x="325" 
d="M162 313q71 0 112 -43t41 -118q0 -76 -41 -119t-112 -43q-70 0 -111 42.5t-41 119.5t41 119t111 42z" />
    <glyph glyph-name="zero" unicode="0" horiz-adv-x="731" 
d="M692 647q-1 -250 -34 -393.5t-103 -206.5t-190 -63t-189.5 61t-103 205.5t-33.5 396.5q0 251 33.5 395t103.5 205.5t189 61.5q120 0 190.5 -63t103.5 -207t33 -392zM446 649q0 238 -9.5 362.5t-25.5 162.5t-46 38t-46.5 -38t-26 -162.5t-9.5 -362.5q0 -179 5 -292
t16 -173t25 -81t36 -21q30 0 46 39t25.5 164.5t9.5 363.5z" />
    <glyph glyph-name="one" unicode="1" horiz-adv-x="430" 
d="M414 0h-394v90q51 0 70 21.5t19 85.5v751q0 48 -15.5 71t-54.5 23h-23v91q112 7 175.5 48t64.5 132h86v-1116q0 -66 16 -86.5t56 -20.5v-90z" />
    <glyph glyph-name="two" unicode="2" horiz-adv-x="653" 
d="M164 219q41 0 67.5 -29t26.5 -81q0 -55 -32.5 -88t-86.5 -33q-61 0 -94 41.5t-33 113.5q0 74 27.5 145t68.5 125t89.5 118t89.5 123.5t68.5 141.5t27.5 171q0 118 -36 171.5t-111 53.5q-105 0 -154 -84l18 -14q35 28 74 28q51 0 81 -36.5t30 -100.5q2 -59 -32 -97
t-99 -38q-66 0 -101 47.5t-35 138.5q0 123 75 196t224 73q157 0 230.5 -79.5t73.5 -260.5q0 -111 -28.5 -198.5t-71.5 -141t-103 -100.5t-114.5 -76.5t-113.5 -68.5t-94 -77l10 -14q45 28 109 28q55 0 134 -16t120 -16q35 0 54.5 19t28.5 76.5t5 162.5h57q7 -79 7 -254
q0 -157 -29 -229t-96 -72q-47 0 -80.5 28.5t-54 69t-40.5 81t-53.5 69t-79.5 28.5q-80 0 -118 -69l20 -11q30 35 74 35z" />
    <glyph glyph-name="three" unicode="3" horiz-adv-x="661" 
d="M231 92q80 0 118 61.5t38 208.5q0 77 -9 125.5t-29 72t-41.5 31t-55.5 7.5q-50 0 -94 -6v98q43 -6 96 -6q52 0 77.5 17t38.5 71.5t13 165.5q0 142 -35 200t-110 58q-94 0 -142 -66l19 -22q29 20 63 20q50 0 79.5 -35.5t29.5 -97.5q0 -58 -33.5 -94.5t-95.5 -36.5
q-131 0 -131 183q0 118 74.5 188t222.5 70q150 0 223.5 -81t73.5 -268q0 -159 -61.5 -223.5t-186.5 -75.5v-36q62 -5 106 -19t80 -44t54 -84.5t18 -133.5q0 -184 -78 -270t-229 -86q-153 0 -230.5 70t-77.5 188q0 182 136 182q60 0 92 -37t30 -94q0 -64 -28 -98.5t-78 -34.5
q-34 0 -64 18l-18 -22q55 -64 145 -64z" />
    <glyph glyph-name="four" unicode="4" horiz-adv-x="731" 
d="M350 274v72h-342v82q88 104 124.5 297t25.5 565h252q-9 -182 -38 -330.5t-71 -247t-89.5 -160.5t-100.5 -89v-31h239v236q78 46 120.5 197t61.5 425h56v-856q36 7 51.5 47t24.5 150h47v-453h-47q-7 91 -24 126.5t-52 43.5v-67v-7q0 -133 9.5 -158.5t61.5 -25.5v-90h-454
v90q37 0 61 2t41 12.5t25 19.5t12.5 36t5 47t0.5 67z" />
    <glyph glyph-name="five" unicode="5" horiz-adv-x="655" 
d="M324 -16q-152 0 -230 68.5t-78 180.5q0 175 140 175q62 0 95.5 -35t31.5 -88q0 -61 -29.5 -94t-81.5 -33q-35 0 -68 20l-18 -22q50 -66 135 -66q60 0 95 29t53 103.5t18 205.5q0 136 -31 200t-102 64q-101 0 -156 -117h-55q1 120 -3 364.5t-9 350.5h88q-1 -40 -13 -284
h29q13 165 37.5 228.5t67.5 63.5q33 0 49.5 -29.5t36.5 -101.5q22 -81 53 -124.5t88 -43.5q65 0 94 45l-20 21q-26 -23 -68 -23q-41 0 -66.5 32t-25.5 93q0 64 32 98.5t81 34.5q63 0 96 -46t33 -124q0 -87 -42 -138.5t-120 -51.5q-56 0 -136.5 11.5t-105.5 11.5
q-38 0 -60 -19.5t-36.5 -84.5t-16.5 -185q71 121 244 121q142 0 210.5 -84t68.5 -283q0 -229 -76 -336.5t-229 -107.5z" />
    <glyph glyph-name="six" unicode="6" horiz-adv-x="712" 
d="M283 365q0 -153 18.5 -213t60.5 -60t61 60.5t19 212.5q0 125 -19 170t-58 45q-41 0 -61.5 -45t-20.5 -170zM455 1202q-38 0 -65 -11.5t-51 -43.5t-38.5 -88.5t-22.5 -147t-8 -217.5q0 -14 -1 -55.5t-1 -69.5h19q37 150 182 150q113 0 163 -84t50 -258q0 -63 -8.5 -117
t-30.5 -106t-57.5 -88.5t-92.5 -59t-131 -22.5q-183 0 -254 155.5t-71 536.5q0 236 40 376t114 196.5t194 56.5q129 0 201.5 -68.5t72.5 -181.5q0 -183 -135 -183q-59 0 -96 36t-37 98q0 63 29.5 98t83.5 35q30 0 49 -11l18 21q-47 53 -116 53z" />
    <glyph glyph-name="seven" unicode="7" horiz-adv-x="655" 
d="M442 143q0 -79 -35 -119t-96 -40q-72 0 -108.5 45t-36.5 118q0 181 76 353q-119 -5 -158 -8v100q7 0 74 -3.5t127 -4.5q41 73 96.5 146.5t103.5 132t66 89.5l-14 13q-56 -37 -131 -37q-44 0 -117.5 14t-100.5 14q-21 0 -33.5 -6t-25.5 -26t-19 -66t-6 -119h-75
q4 162 -11 551h91q0 -8 -1.5 -34.5t-3.5 -86.5t-4 -139h27q12 152 35 211t63 59q36 0 56.5 -34.5t42.5 -110.5q21 -78 53.5 -119t101.5 -41q38 0 63.5 16.5t47.5 53.5l-15 12q-39 -39 -79 -39q-51 0 -79 32t-28 95q0 65 33 101.5t82 36.5q67 0 102 -49.5t37 -135.5
q0 -75 -37 -162t-89 -189.5t-73 -180.5q53 0 121 10v-107q-22 1 -69 4.5t-70 4.5q-4 -40 -4 -64q0 -50 10 -151t10 -140z" />
    <glyph glyph-name="eight" unicode="8" horiz-adv-x="714" 
d="M356 633q-53 0 -70.5 -52t-17.5 -214q0 -152 18 -210.5t70 -58.5q53 0 72.5 59t17.5 210q0 111 -8 166.5t-26.5 77.5t-55.5 22zM356 748q52 0 71 50t19 177t-19 175t-71 48q-51 0 -69.5 -48t-18.5 -175q0 -126 19 -176.5t69 -50.5zM356 -12q-176 0 -251.5 94t-75.5 285
q0 150 51.5 224.5t157.5 82.5v31q-104 13 -148.5 79t-44.5 193q0 160 73 243t238 83q166 0 240 -82.5t74 -241.5q0 -128 -45 -196t-148 -78v-33q209 -18 209 -305q0 -191 -76.5 -285t-253.5 -94z" />
    <glyph glyph-name="nine" unicode="9" horiz-adv-x="712" 
d="M434 928q0 151 -18 209.5t-60 58.5q-41 0 -60.5 -67.5t-19.5 -233.5q0 -148 19.5 -200t60.5 -52q27 0 42.5 20.5t25.5 85t10 179.5zM272 86q44 0 74.5 18t55.5 66.5t37 141t12 233.5q0 13 1 48t1 58h-21q-37 -147 -182 -147q-112 0 -162.5 88.5t-50.5 269.5
q0 443 319 443q183 0 254.5 -155.5t71.5 -531.5q0 -239 -40.5 -380.5t-114.5 -197.5t-193 -56q-129 0 -200 67.5t-71 179.5q0 179 138 179q59 0 94 -34.5t35 -94.5t-28.5 -93.5t-82.5 -33.5q-26 0 -53 10l-16 -21q47 -57 122 -57z" />
    <glyph glyph-name="A" unicode="A" horiz-adv-x="784" 
d="M-8 92q41 21 92.5 237.5t84 451.5t32.5 339q0 45 -23 62.5t-82 17.5v90h453q0 -30 151 -1011q19 -96 38.5 -136t54.5 -53v-90h-426v90q57 0 81 50t11 141l-25 188q-16 1 -34 1t-39 -0.5t-33 -0.5h-88q-11 -126 -11 -209q0 -78 20 -114t66 -56v-90h-323v92zM328 555h94
l-84 616h-25q-38 -309 -67 -616h82z" />
    <glyph glyph-name="B" unicode="B" horiz-adv-x="768" 
d="M438 0h-430v90q60 0 71 22.5t11 140.5v11v762v11q0 118 -11 140.5t-71 22.5v90h420q169 0 234 -68t65 -249q0 -93 -14 -151.5t-45 -89.5t-68.5 -42.5t-97.5 -13.5v-39q63 -2 102.5 -14t73 -43t48.5 -91t15 -153q0 -193 -65.5 -264.5t-237.5 -71.5zM358 604h-32v-514h20
q87 0 124.5 55t37.5 209q0 104 -17.5 159.5t-48 73t-84.5 17.5zM350 1200h-24v-508h30q56 0 83.5 17t42 69.5t14.5 157.5q0 112 -14.5 169t-44 76t-87.5 19z" />
    <glyph glyph-name="C" unicode="C" horiz-adv-x="710" 
d="M573 1296h89q0 -10 -1 -156.5t-2 -256.5t0 -156h-90q-44 261 -84 370t-98 109q-35 0 -55 -34.5t-33.5 -154.5t-13.5 -343q0 -171 9.5 -281.5t29.5 -169t45.5 -80.5t64.5 -22q49 0 77.5 36t44 133.5t15.5 272.5h91q0 -127 -6.5 -213.5t-24 -160.5t-49 -116.5t-81.5 -65.5
t-122 -23q-67 0 -117.5 17.5t-94.5 62t-72 119t-44 191.5t-16 275q0 253 35 399t99 202.5t169 56.5q48 0 86.5 -19t64.5 -38t43 -19q36 0 41 65z" />
    <glyph glyph-name="D" unicode="D" horiz-adv-x="796" 
d="M379 1200h-51v-1108h55q24 0 42.5 10t38 43t32.5 88t21 151.5t9 227.5q0 250 -14 375t-43.5 169t-89.5 44zM414 0h-406v90q60 0 71 22.5t11 140.5v11v762v11q0 118 -11 140.5t-71 22.5v90h383q138 0 218.5 -62t117.5 -202t37 -383q0 -245 -35 -384t-109.5 -199
t-205.5 -60z" />
    <glyph glyph-name="E" unicode="E" horiz-adv-x="757" 
d="M705 0h-695v90q60 0 71 22.5t11 140.5v11v762v11q0 118 -11 140.5t-71 22.5v90h684v-491h-73q-19 164 -50.5 246t-85.5 115t-157 40v-495q61 12 92.5 67.5t38.5 173.5h67q-2 -50 -2 -284q0 -183 2 -281h-67q-7 123 -38 179t-93 65v-535q101 11 158.5 49.5t94 135
t50.5 270.5h74v-545z" />
    <glyph glyph-name="F" unicode="F" horiz-adv-x="708" 
d="M455 0h-447v90q60 0 71 24t11 148v12v742q0 128 -8 152q-9 27 -42 31q-11 1 -32 1v90h676q-2 -20 -2 -268.5t2 -273.5h-74q-23 187 -54 278.5t-82 128.5t-148 45v-594q65 17 100.5 75t42.5 191h63q-2 -109 -2 -309q0 -193 2 -297h-63q-7 137 -41 194t-102 66v-252
q0 -47 1 -74.5t7 -50.5t12.5 -33t23.5 -17t34.5 -8t50.5 -1v-90z" />
    <glyph glyph-name="G" unicode="G" horiz-adv-x="802" 
d="M346 1307q55 0 99.5 -19.5t74.5 -39t49 -19.5q20 0 30 15t13 52h88v-548h-90q-40 233 -102 345.5t-127 112.5q-19 0 -32.5 -11.5t-26.5 -45.5t-20.5 -94t-12 -160t-4.5 -240q0 -307 26 -432t84 -125q42 0 60.5 53t17.5 193q0 136 -7 163q-9 33 -42 40q-18 4 -59 4v88h421
v-88q-58 0 -67.5 -21t-9.5 -133v-397h-80q-6 53 -19 75.5t-37 22.5q-18 0 -43.5 -18t-49.5 -39t-66.5 -39t-91.5 -18q-37 0 -69.5 12t-66 39.5t-60 78t-47.5 121.5t-32.5 176.5t-11.5 237.5q0 190 20 319t61 203t96 105t134 31z" />
    <glyph glyph-name="H" unicode="H" horiz-adv-x="862" 
d="M535 242v368q-33 2 -103 2q-18 0 -53 -1t-53 -1v-368q0 -110 9.5 -131t65.5 -21v-90h-393v90q61 0 71.5 20.5t10.5 131.5v807q0 106 -8 125q-9 23 -46 25q-10 1 -28 1v90h393v-90q-56 0 -65.5 -20.5t-9.5 -130.5v-353h106h103v353q0 108 -7 127q-9 22 -43 24h-22v90h393
v-90h-27t-20 -3.5t-15 -5.5t-9.5 -12t-6 -16t-3 -26t-1.5 -33.5v-44.5v-10v-807q0 -111 10.5 -131.5t71.5 -20.5v-90h-393v90q54 0 63 20.5t9 131.5z" />
    <glyph glyph-name="I" unicode="I" horiz-adv-x="417" 
d="M90 260v770v53.5t-1.5 40t-3 31t-6.5 20.5t-10 14t-14.5 6.5t-19.5 4t-27 0.5v90h400v-90q-17 0 -27 -0.5t-19.5 -4t-14.5 -6.5t-10 -14t-6.5 -20.5t-3 -31t-1.5 -40v-53.5v-770v-53.5t1.5 -40t3 -31t6.5 -20.5t10 -14t14.5 -6.5t19.5 -4t27 -0.5v-90h-400v90
q17 0 27 0.5t19.5 4t14.5 6.5t10 14t6.5 20.5t3 31t1.5 40v53.5z" />
    <glyph glyph-name="J" unicode="J" horiz-adv-x="403" 
d="M90 1036v10v48.5t-1.5 36t-3 28.5t-6 18t-9.5 13l-15 6t-20 4h-27v90h387v-90q-51 0 -60 -22t-9 -134v-1003q0 -109 -46.5 -166t-134.5 -57q-87 0 -135.5 42t-48.5 120q0 61 31 96t86 35q57 0 83.5 -32t26.5 -79q0 -84 -59 -96q-16 -3 -16 -17t20 -14q41 0 72 34.5
t31 100.5q0 67 -37.5 105.5t-108.5 42.5v880z" />
    <glyph glyph-name="K" unicode="K" horiz-adv-x="796" 
d="M528 709q148 0 148 -211v-283q0 -47 5.5 -65.5t23.5 -18.5q28 0 28 96q0 28 -2 95.5t-2 109.5h57q2 -63 2 -174q0 -160 -31.5 -215t-125.5 -55q-99 0 -138.5 49t-39.5 166v325q0 80 -72 80q-11 0 -29 -1t-26 -1v-342q0 -126 8.5 -150t54.5 -24v-90h-381v90q60 0 71 22.5
t11 140.5v11v764v11q0 116 -11 138.5t-71 22.5v90h375v-92q-42 0 -49.5 -23t-7.5 -147v-305q69 101 114.5 212t44.5 185q0 36 -9 54t-34 24v92h336v-92q-84 -86 -379 -493l13 -21q70 25 116 25z" />
    <glyph glyph-name="L" unicode="L" horiz-adv-x="634" 
d="M604 0h-596v90q60 0 71 24t11 148v12v752v11q0 118 -11 140.5t-71 22.5v90h434v-90q-36 0 -53.5 -3t-32.5 -10.5t-20 -29t-7.5 -49.5t-2.5 -82v-936q62 16 99 72.5t61.5 176t43.5 339.5h74v-678z" />
    <glyph glyph-name="M" unicode="M" horiz-adv-x="1073" 
d="M649 614l-143 -618h-55l-162 606q-45 172 -107 488h-4v-312q0 -245 17.5 -392.5t49.5 -213t85 -82.5v-90h-322v90q44 54 66 198.5t22 489.5v256q0 121 -11 143.5t-77 22.5v90h402q1 -115 43 -338t96 -434q126 503 129 772h387v-90q-23 0 -34.5 -0.5t-22 -8t-14.5 -14.5
t-7 -30.5t-3.5 -45t-0.5 -67.5v-772q0 -46 0.5 -69.5t3.5 -46.5t7.5 -31.5t15 -15.5t22 -8t33.5 -1v-90h-426v90q60 0 83 42t23 132v823h-2q-26 -163 -94 -473z" />
    <glyph glyph-name="N" unicode="N" horiz-adv-x="813" 
d="M395 90v-90h-385v90q48 22 65 114t17 292v528q0 127 -11 151.5t-73 24.5v90h357q4 -93 31.5 -212.5t111.5 -342.5q63 -163 125 -387l20 4q-12 114 -12 234q0 316 -39.5 460t-134.5 154v90h338v-90q-81 -37 -84 -389q0 -565 20 -811h-215l-227 621q-56 162 -125 464
l-14 -2q10 -215 10 -292q0 -336 49.5 -509.5t175.5 -191.5z" />
    <glyph glyph-name="O" unicode="O" horiz-adv-x="790" 
d="M758 643q-1 -248 -38 -391.5t-115 -206.5t-210 -63t-209.5 60.5t-114.5 205t-36 395.5q0 252 37 396.5t114 206t209 61.5t210.5 -64t115.5 -208.5t37 -391.5zM508 645q0 236 -13 360.5t-35.5 164.5t-64.5 40t-64.5 -40t-35 -164t-12.5 -361q0 -235 12.5 -359t35 -165
t64.5 -41t64.5 39.5t35.5 164t13 361.5z" />
    <glyph glyph-name="P" unicode="P" horiz-adv-x="757" 
d="M459 90v-90h-451v90q22 0 34 0.5t22.5 7.5t14.5 13.5t7 27t3.5 39.5t0.5 60v804q0 44 -0.5 64.5t-3.5 42.5t-7 29t-14.5 14t-22 7.5t-34.5 0.5v90h387q190 0 270 -102.5t80 -333.5q0 -238 -74.5 -342t-248.5 -104q-67 0 -94 2v-172q0 -40 0.5 -60t6 -39.5t12 -27
t23.5 -13.5t35.5 -7t53.5 -1zM383 510q30 0 51.5 11.5t40.5 42.5t29 96t10 163q0 163 -13 242.5t-40.5 106t-83.5 26.5h-49v-686q25 -2 55 -2z" />
    <glyph glyph-name="Q" unicode="Q" horiz-adv-x="788" 
d="M453 207q0 55 -12.5 76.5t-37.5 21.5q-53 0 -53 -94q0 -55 10 -82t39 -27q54 0 54 105zM287 231h26q0 26 4 52.5t12.5 54t26 44.5t41.5 17q63 0 80 -106h23q6 138 6 352q0 175 -4.5 278t-17 171.5t-33.5 93t-56 24.5q-23 0 -39.5 -10.5t-29.5 -37.5t-20.5 -68
t-12.5 -106.5t-7 -147.5t-1 -197q0 -371 2 -414zM629 -109q-61 0 -88.5 59.5t-38.5 205.5h-21q-3 -32 -11.5 -59.5t-26.5 -53.5t-50.5 -41.5t-77.5 -15.5q-160 0 -221 153.5t-61 503.5q0 351 80.5 507.5t281.5 156.5q81 0 142.5 -26.5t102.5 -74.5t66.5 -120.5t36.5 -158
t11 -194.5q0 -100 -11.5 -180t-38 -149.5t-75 -114t-117.5 -58.5v-26q44 -23 109 -23q46 0 60.5 25.5t14.5 83.5h58q4 -226 -23 -313t-102 -87z" />
    <glyph glyph-name="R" unicode="R" horiz-adv-x="813" 
d="M358 1200h-32v-510h45q73 0 106 58.5t33 207.5q0 83 -5.5 128.5t-24 73t-45.5 35t-77 7.5zM645 -12q-89 0 -130 42t-42 140q0 49 -1 135.5t-1 136.5q-2 99 -26 130t-99 30h-20v-338v-55.5t1.5 -40.5t3.5 -31.5t7.5 -20t11 -15t17 -7t23.5 -4.5h32v-90h-414v90
q60 0 71 26.5t11 161.5v13v698q0 148 -8 176q-9 29 -39 33q-12 2 -35 2v90h463q153 0 212.5 -68t59.5 -247q0 -97 -16 -157.5t-52 -91t-77.5 -40.5t-108.5 -12v-37q115 -1 161 -55.5t46 -182.5v-184q0 -45 5.5 -63.5t19.5 -18.5q8 0 13 6.5t8 25.5t4.5 52t1.5 86
q0 13 -5 146h58q2 -55 2 -144q0 -188 -32 -252.5t-126 -64.5z" />
    <glyph glyph-name="S" unicode="S" horiz-adv-x="700" 
d="M463 211q0 92 -41.5 165.5t-128.5 155.5q-128 111 -190 218t-62 247q0 146 68 228t194 82q40 0 75.5 -13.5t55.5 -29.5t41.5 -29.5t36.5 -13.5q21 0 31 15t14 54h82q0 -7 -0.5 -91t-0.5 -169v-164t1 -92h-74q-52 231 -106 331.5t-125 100.5q-44 0 -68 -33.5t-24 -95.5
q0 -145 153 -286q136 -113 206.5 -228.5t70.5 -265.5q0 -157 -70 -235t-182 -78q-51 0 -98.5 16t-75 36t-53.5 36t-39 16q-19 0 -27.5 -19.5t-9.5 -68.5h-76v561h74q104 -475 260 -475q88 0 88 125z" />
    <glyph glyph-name="T" unicode="T" 
d="M268 1200q-47 -8 -78.5 -58.5t-53 -164.5t-30.5 -299h-77v612h712q-1 -26 -1 -303.5t1 -308.5h-77q-13 271 -52.5 391t-105.5 131v-909v-9v-49.5t1 -39t2 -32.5t4.5 -24t7 -19t11 -12t15 -9t20.5 -4t25.5 -3h32.5v-90h-478v90h33t26 3t20.5 4.5t15 9.5t11.5 12.5t7.5 20
t4.5 24.5t2 34t1 41v52v909z" />
    <glyph glyph-name="U" unicode="U" horiz-adv-x="751" 
d="M582 322q0 243 -9.5 404t-31 255t-46.5 140t-65 77v92h315v-92q-81 -60 -81 -379v-504q0 -171 -60 -250t-211 -79q-170 0 -238.5 75t-68.5 250v744v9v55.5t-3 36t-7 25.5t-14.5 11.5t-22.5 7t-35 0.5v90h363v-90q-32 0 -37.5 -20t-5.5 -125v-727q0 -176 133 -176
q68 0 96.5 41t28.5 129z" />
    <glyph glyph-name="V" unicode="V" horiz-adv-x="790" 
d="M561 0h-321q0 15 -66.5 431.5t-85.5 529.5q-21 126 -39.5 174.5t-56.5 64.5v90h416v-90q-62 -5 -77 -54.5t5 -187.5l113 -804h32q78 665 78 847q0 98 -17 140t-69 59v90h326v-94q-128 -85 -238 -1196z" />
    <glyph glyph-name="W" unicode="W" horiz-adv-x="1187" 
d="M559 311q-20 -132 -29 -311h-311q1 17 -62 479.5t-79 554.5q-15 85 -33 120.5t-53 45.5v90h848v-90q-57 -3 -70 -41.5t4 -138.5l109 -905h20q45 431 57.5 659t0 312t-51.5 110v94h287v-94q-49 -31 -86.5 -211t-97.5 -674q-16 -127 -29 -311h-317q0 27 -76 551
q-20 -136 -31 -240zM326 1032l112 -913h27q74 595 65 805q-7 250 -114 297q-60 -17 -81.5 -62.5t-8.5 -126.5z" />
    <glyph glyph-name="X" unicode="X" horiz-adv-x="700" 
d="M260 90v-90h-264v90q81 81 219 522q-119 375 -153.5 472.5t-57.5 115.5v90h369v-90q-33 -6 -41.5 -37.5t14.5 -93.5l90 -332q90 401 -8 463v90h268v-90q-12 -8 -23 -21.5t-23 -35.5t-21.5 -42.5t-22 -54.5t-21.5 -61t-23 -72.5t-23.5 -77t-26 -87t-27.5 -91.5
q77 -237 119 -355t61 -156t40 -56v-90h-388v90q76 20 31 137l-82 316q-30 -126 -42.5 -205.5t-5.5 -146.5t42 -101z" />
    <glyph glyph-name="Y" unicode="Y" horiz-adv-x="747" 
d="M614 0h-464v90q30 0 45.5 1.5t30 13.5t20.5 26.5t10.5 52.5t5 78t0.5 117l-166 598q-38 143 -57 176q-19 35 -47 45v92h399v-90q-46 -2 -59 -62.5t10 -164.5l100 -443h17q42 247 51.5 391t-5 201t-52.5 78v90h303v-92q-57 -36 -115 -232t-139 -589q0 -206 15 -246.5
t97 -40.5v-90z" />
    <glyph glyph-name="Z" unicode="Z" horiz-adv-x="776" 
d="M61 659v631h658v-108q-7 -20 -36.5 -88.5t-85.5 -210.5t-126 -336l-170 -457h49q34 0 61.5 7t51 25.5t41 40t34 62t29 78.5t26 102.5t24.5 122t26 146.5h74q-1 -37 -1 -337t1 -337h-686v106q90 173 252 605l178 489h-80q-65 0 -106.5 -46.5t-73.5 -160.5t-66 -334h-74z
" />
    <glyph glyph-name="a" unicode="a" horiz-adv-x="733" 
d="M49 901q0 111 69 170t206 59q170 0 236.5 -66t66.5 -230q0 -52 -3 -310t-3 -323q0 -41 5 -56.5t19 -15.5q13 0 19 21t10 100.5t0 236.5h47q6 -154 4.5 -251t-21.5 -152t-48 -75.5t-74 -20.5q-75 0 -108.5 41.5t-35.5 130.5h-20q-22 -78 -71 -125t-126 -47q-111 0 -156 85
t-45 263q0 170 50 248.5t161 93.5q56 6 88.5 17t47.5 33t18.5 43.5t3.5 64.5v59q0 74 -32.5 107.5t-98.5 33.5q-61 0 -106 -22l8 -25q14 4 37 4q54 0 80 -26.5t26 -85.5q0 -127 -123 -127q-62 0 -96.5 37.5t-34.5 109.5zM311 135q78 0 78 123v408q-11 -13 -35 -33t-41 -38
t-35.5 -47.5t-28 -77t-9.5 -110.5q0 -125 16 -175t55 -50z" />
    <glyph glyph-name="b" unicode="b" horiz-adv-x="733" 
d="M418 -12q-48 0 -86.5 14t-58 30t-39.5 30t-35 14q-20 0 -32.5 -21.5t-12.5 -54.5h-80v1192q0 51 -13.5 68.5t-58.5 17.5v100q24 0 160 8.5t149 12.5q-1 -115 -10 -261t-10 -167h18q25 77 65.5 118t108.5 41q122 0 168 -126.5t43 -434.5q1 -309 -66.5 -445t-209.5 -136z
M307 295q0 -119 14.5 -166t59.5 -47q24 0 38.5 17t24.5 69t14 143t5 244q0 174 -8.5 264.5t-24 119t-45.5 28.5q-35 0 -56.5 -45t-21.5 -142v-485z" />
    <glyph glyph-name="c" unicode="c" horiz-adv-x="663" 
d="M283 590q0 -191 15.5 -291.5t42.5 -132t77 -31.5q63 0 92 74t33 266h80q0 -263 -57.5 -377t-215.5 -114q-78 0 -133 27t-96.5 91.5t-61.5 179t-20 283.5q-1 164 19 275.5t62.5 175.5t100 90.5t139.5 26.5q137 0 203 -70.5t66 -198.5q0 -90 -33.5 -139t-95.5 -49
q-123 0 -123 141q0 66 28 108t78 42q18 0 39 -9l13 21q-43 55 -103 55q-37 0 -61 -14t-46 -57.5t-32 -135.5t-10 -237z" />
    <glyph glyph-name="d" unicode="d" horiz-adv-x="729" 
d="M346 137q33 0 52.5 38t19.5 108v737q-23 10 -45 10q-32 0 -48 -10t-30.5 -55t-19.5 -139.5t-5 -260.5q0 -167 8 -261t24 -130.5t44 -36.5zM463 0q2 12 2 164h-23q-20 -76 -69 -126t-119 -50q-82 0 -128 53t-67.5 175t-21.5 337q0 162 17.5 273.5t53.5 174.5t84 90t115 27
q59 0 111 -18v102q0 55 -19 72.5t-84 17.5v88q24 0 171 7t163 10v-1231q0 -44 15 -60t61 -16v-90h-262z" />
    <glyph glyph-name="e" unicode="e" horiz-adv-x="698" 
d="M360 1044q-29 0 -45 -27t-26 -123t-10 -280h167q-1 111 -5 190t-11 125.5t-18.5 72.5t-23 34t-28.5 8zM655 436q0 -87 -7 -152.5t-25 -124t-48.5 -95.5t-79.5 -58.5t-116 -21.5q-68 0 -117.5 14.5t-93.5 52.5t-71 103t-42.5 168t-15.5 245q0 308 76 438t247 130
q70 0 122.5 -23.5t84.5 -64t51.5 -104t27 -133t7.5 -161.5v-117h-376q4 -225 38 -308t121 -83q70 0 102.5 67.5t32.5 227.5h82z" />
    <glyph glyph-name="f" unicode="f" horiz-adv-x="432" 
d="M166 1255q0 -91 40 -140.5t111 -49.5h80v-90h-80v-793q0 -51 20 -71.5t77 -20.5v-90h-410v90q49 0 65.5 20t16.5 72v793h-70v90h131v18q-74 18 -110.5 62t-36.5 127q0 95 58 144.5t169 49.5q104 0 154.5 -50.5t50.5 -141.5q0 -141 -102 -141q-56 0 -81.5 35.5t-25.5 91.5
q0 53 27.5 82.5t68.5 29.5q19 0 29 -2l6 19q-28 14 -65 14q-57 0 -90 -36t-33 -112z" />
    <glyph glyph-name="g" unicode="g" horiz-adv-x="702" 
d="M428 709q0 141 -7.5 213.5t-23.5 98.5t-47 26q-30 0 -45 -27.5t-22 -99t-7 -211.5q0 -179 16 -245.5t60 -66.5q43 0 59.5 66t16.5 246zM545 -80q0 72 -68 72q-49 0 -161 -4t-136 -4h-6q-1 -40 5 -66t24.5 -48.5t56.5 -33t98 -10.5q61 0 100 7t57 21t24 28.5t6 37.5z
M684 -12q0 -58 -14.5 -99.5t-50.5 -74.5t-102 -49.5t-163 -16.5q-75 0 -129.5 7t-87 19t-52 30t-26 37t-6.5 44q0 44 26 77t56 38v29q-58 20 -85 54.5t-27 104.5q0 67 44 113.5t119 46.5h45v31q-101 20 -140.5 103t-39.5 259q0 216 66 300.5t229 84.5q32 0 89 -5t75 -5
q20 0 20 17q0 18 -34 28q-39 14 -57.5 34t-18.5 62q0 44 30 71.5t89 27.5q65 0 97 -36.5t32 -102.5t-34 -106t-93 -40q-13 0 -43 3t-37 3v-30q111 -13 150.5 -94.5t39.5 -268.5q0 -205 -68.5 -291t-234.5 -86q-107 0 -144.5 -16.5t-37.5 -52.5q0 -58 59 -58q9 0 117 4t154 4
q94 0 141 -52.5t47 -147.5z" />
    <glyph glyph-name="h" unicode="h" 
d="M360 88v-88h-356v88q42 0 56 18.5t14 65.5v1032q0 51 -13.5 67.5t-56.5 16.5v90q20 0 157.5 9t149.5 12q-1 -86 -14.5 -237t-15.5 -204h12q29 92 77 131t128 39q104 0 151 -63.5t47 -196.5v-696q0 -45 16 -64.5t54 -19.5v-88h-354v88q30 0 40.5 17t10.5 57v696
q0 61 -17 88t-55 27q-35 0 -59.5 -31t-24.5 -92v-688q0 -40 11 -57t42 -17z" />
    <glyph glyph-name="i" unicode="i" horiz-adv-x="380" 
d="M180 1405q71 0 109.5 -29.5t38.5 -85.5q0 -112 -148 -112q-147 0 -147 112q0 115 147 115zM377 0h-373v90q42 0 56 17t14 59v772q0 50 -14 69t-58 19v90h305v-950q0 -42 14 -59t56 -17v-90z" />
    <glyph glyph-name="j" unicode="j" horiz-adv-x="387" 
d="M199 1405q145 0 145 -115q0 -112 -145 -112q-148 0 -148 112q0 115 148 115zM330 -31q0 -105 -49 -163t-136 -58q-85 0 -127.5 40t-42.5 114q0 58 28.5 90.5t80.5 32.5t76 -27.5t24 -71.5t-27 -68t-63 -24q-14 0 -24 2l-7 -24q23 -7 48 -7q52 0 87 34t35 100
q0 138 -139 147v844q0 54 -16 75t-66 21v90h318v-1147z" />
    <glyph glyph-name="k" unicode="k" horiz-adv-x="780" 
d="M311 1397v-738q61 83 97 163.5t36 133.5q0 33 -13.5 49.5t-51.5 22.5v88h352v-88q-32 -23 -80 -71.5t-84.5 -89t-108 -123t-104.5 -119.5l8 -17q92 31 148 31q141 0 141 -172v-256q0 -43 6 -59.5t21 -16.5q10 0 16 11.5t10.5 45.5t6 97.5t0.5 165.5h57q4 -152 -4 -245.5
t-32 -142t-55.5 -64t-84.5 -15.5q-94 0 -132 45t-38 155q0 43 2 140.5t2 154.5q0 66 -59 66q-42 0 -56 -2v-375q0 -44 15.5 -63t58.5 -19v-90h-383v90q44 0 58 18.5t14 63.5v1028q0 52 -13.5 70t-58.5 18v90q20 0 157.5 8t151.5 11z" />
    <glyph glyph-name="l" unicode="l" horiz-adv-x="385" 
d="M311 1397v-1225q0 -44 15.5 -63t56.5 -19v-90h-381v90q43 0 57.5 18.5t14.5 63.5v1028q0 52 -13.5 70t-58.5 18v90q20 0 157.5 8t151.5 11z" />
    <glyph glyph-name="m" unicode="m" horiz-adv-x="1159" 
d="M696 850v-682q0 -42 10 -60t35 -18v-90h-329v90q30 0 40.5 17.5t10.5 58.5v688q0 64 -17 91.5t-55 27.5q-84 0 -84 -123v-684q0 -42 11 -59t42 -17v-90h-356v90q42 0 56 17t14 61v770q0 52 -14 70t-56 18v90h270q-4 -152 -4 -176h21q23 105 75 146.5t132 41.5
q81 0 120.5 -44.5t47.5 -143.5h16q23 103 75.5 145.5t131.5 42.5q102 0 149 -62t47 -189v-709q0 -41 15.5 -59.5t52.5 -18.5v-90h-352v90q31 0 41 17t10 59v688q0 64 -17.5 91.5t-54.5 27.5q-84 0 -84 -123z" />
    <glyph glyph-name="n" unicode="n" 
d="M360 90v-90h-356v90q42 0 56 18.5t14 63.5v772q0 50 -13 66t-55 16v90h268q-4 -118 -4 -174h19q29 102 77.5 144t131.5 42q104 0 151 -63.5t47 -196.5v-696q0 -43 16 -62.5t54 -19.5v-90h-354v90q30 0 40.5 16t10.5 56v696q0 61 -17 88t-55 27q-35 0 -59.5 -31t-24.5 -92
v-688q0 -40 11 -56t42 -16z" />
    <glyph glyph-name="o" unicode="o" horiz-adv-x="720" 
d="M682 567q0 -215 -33.5 -342t-103 -184t-185.5 -57q-117 0 -186.5 55.5t-102.5 183t-32 344.5q0 217 33.5 340.5t101.5 174.5t186 51q117 0 186 -52.5t102.5 -176t33.5 -337.5zM440 569q0 123 -3.5 209t-9.5 136.5t-17 77.5t-22 35.5t-28 8.5q-22 0 -35.5 -14.5t-24.5 -61
t-16 -141.5t-5 -250q0 -203 10 -312.5t26 -143t45 -33.5q16 0 28 11t22.5 41.5t17 84.5t10 141.5t2.5 210.5z" />
    <glyph glyph-name="p" unicode="p" horiz-adv-x="733" 
d="M463 569q0 136 -3 214t-12.5 121t-22.5 55t-36 12q-27 0 -43.5 -26t-27.5 -109.5t-11 -231.5v-483q27 -21 68 -21q27 0 43.5 21t26.5 76.5t14 142.5t4 229zM414 -147v-91h-412v91q43 0 57.5 19t14.5 65v1005q0 50 -12.5 67t-53.5 17v90h268q-2 -51 -2 -153h21
q32 86 78 125.5t112 39.5q82 0 125.5 -48t63.5 -168t20 -345q1 -166 -15 -278t-49.5 -175.5t-78.5 -89.5t-109 -26q-71 0 -135 49v-110q0 -46 21.5 -65t85.5 -19z" />
    <glyph glyph-name="q" unicode="q" horiz-adv-x="741" 
d="M352 1034q-32 0 -48 -34.5t-25 -141t-9 -315.5q0 -174 9.5 -264.5t25.5 -116t45 -25.5q68 0 68 144v624q0 69 -15 99t-51 30zM442 -43q13 184 15 213h-19q-42 -182 -188 -182q-121 0 -166.5 127.5t-42.5 435.5q-3 307 65.5 442t210.5 135q49 0 88 -13t59 -29t42 -29
t39 -13q23 0 36 20.5t13 53.5h57v-1188q0 -45 14 -61t58 -16v-91h-383v91q62 0 79.5 20t22.5 84z" />
    <glyph glyph-name="r" unicode="r" horiz-adv-x="555" 
d="M430 90v-90h-426v90q42 0 56 20t14 64v770q0 45 -13.5 63.5t-54.5 18.5v90h273q0 -28 -1.5 -94t-1.5 -102h17q42 208 145 208q105 0 105 -165q0 -79 -24.5 -130t-74.5 -51q-25 0 -43.5 14t-27 30t-19.5 30t-22 14q-25 0 -25 -73v-604q0 -61 24 -82t99 -21z" />
    <glyph glyph-name="s" unicode="s" horiz-adv-x="632" 
d="M393 170q0 82 -38.5 150.5t-118.5 140.5q-193 186 -193 399q0 129 59 199.5t168 70.5q44 0 79.5 -16.5t58.5 -32.5t38 -16q19 0 26.5 11.5t12.5 43.5h82q-1 -23 -1 -216t1 -216h-75q-43 193 -87 276t-104 83q-36 0 -54 -26.5t-18 -72.5q0 -126 140 -260
q106 -98 165.5 -201t59.5 -231q0 -138 -64 -204t-170 -66q-39 0 -76.5 12t-60 26.5t-43.5 26.5t-33 12q-17 0 -24.5 -14.5t-7.5 -50.5h-76q1 25 1 234.5t-1 234.5h74q88 -397 209 -397q71 0 71 100z" />
    <glyph glyph-name="t" unicode="t" horiz-adv-x="491" 
d="M309 1366v-250h160v-90h-160v-811q0 -51 6.5 -70.5t26.5 -19.5q15 0 23 15t13 63t5 137q0 119 -2 180h82q0 -31 2 -94t2 -92q0 -194 -40 -271t-151 -77q-103 0 -150.5 51.5t-47.5 185.5v803h-68v90q98 0 154 56.5t67 193.5h78z" />
    <glyph glyph-name="u" unicode="u" 
d="M498 0q0 24 1 80t1 94h-23q-25 -105 -74 -146.5t-131 -41.5q-104 0 -151 67t-47 205v690q0 50 -13 64t-57 14v90h309l-3 -114q-3 -115 -3 -132v-622q0 -56 16.5 -79.5t55.5 -23.5q84 0 84 144v626q0 78 -13.5 94.5t-76.5 16.5v90h329q0 -1 -3 -120t-3 -136v-696
q0 -43 14 -58.5t56 -15.5v-90h-268z" />
    <glyph glyph-name="v" unicode="v" horiz-adv-x="649" 
d="M477 0h-309q0 6 -27 212.5t-55 426.5t-31 250q-12 73 -24.5 101.5t-36.5 35.5v90h350v-90q-41 0 -49 -30.5t4 -108.5l90 -766h21q55 551 55 700q0 94 -13 137.5t-42 67.5v90h245v-92q-42 -30 -79.5 -248t-98.5 -776z" />
    <glyph glyph-name="w" unicode="w" horiz-adv-x="1058" 
d="M459 0h-293q1 6 -24.5 196t-53 394.5t-29.5 232.5q-15 111 -27 152t-40 51v90h745v-90q-41 -26 -22 -205l84 -727h24q51 510 51 682q0 116 -19.5 173.5t-63.5 76.5v90h274v-90q-43 -29 -82 -254.5t-96 -771.5h-301q1 3 -68 524q-39 -293 -59 -524zM297 821l84 -725h27
q42 328 56 476.5t3 228.5l-8 55q-19 142 -90 191q-50 -28 -66 -79t-6 -147z" />
    <glyph glyph-name="x" unicode="x" horiz-adv-x="675" 
d="M242 90v-90h-246v90q38 40 89.5 165t102.5 302q-65 205 -98 297t-52 126t-42 46v90h360v-88q-45 -17 -8 -123l72 -287h8q40 180 38.5 277.5t-46.5 130.5v90h256v-90q-41 -31 -78 -125t-102 -301q-6 -19 -9 -29q88 -289 121.5 -371.5t67.5 -109.5v-90h-369v90q25 13 28 40
t-20 91l-61 279h-2q-50 -189 -52.5 -279.5t42.5 -130.5z" />
    <glyph glyph-name="y" unicode="y" horiz-adv-x="643" 
d="M223 -252q-196 0 -196 158q0 61 35.5 96t103.5 35q125 0 125 -96q0 -36 -23 -60t-61 -33l2 -30q81 12 121.5 61.5t40.5 126.5q0 44 -18.5 61t-57.5 17h-131l-113 803q-15 87 -25 112.5t-32 26.5v90h334v-90q-27 -7 -34 -26t1 -89l90 -737h31q42 474 32.5 645.5
t-63.5 206.5v90h264v-90q-38 -29 -59 -145t-68 -499q-28 -224 -45 -362q-20 -138 -82.5 -205t-171.5 -67z" />
    <glyph glyph-name="z" unicode="z" horiz-adv-x="704" 
d="M59 565v551h582v-102q-2 -5 -30 -70t-72 -178.5t-103 -280.5l-139 -395h14q41 0 69 7.5t52 31t39.5 54.5t31.5 92.5t27.5 129t28.5 179.5h78q-1 -34 -1 -292t1 -292h-600v100q1 3 24 53.5t35 79t37.5 90t54 138t62.5 170.5l139 397h-37q-62 0 -98.5 -37t-63.5 -135
t-53 -291h-78z" />
    <glyph glyph-name="uni00A0" unicode="&#xa0;" horiz-adv-x="284" 
 />
  </font>
</defs>
</svg>
