<svg xmlns="http://www.w3.org/2000/svg" width="100%" height="1658" viewBox="0 0 1272 1658" fill="none">
  <path d="M1265.24 701.824C1270.88 632.491 1185.31 607.581 1181.28 544.896C1176.95 477.738 1258.97 436.639 1259.14 371.623C1259.3 312.141 1161.25 258.544 1185.87 183.57C1196.91 149.904 1307.19 55.8515 1239.4 20.4274C1163.86 -19.0353 1115.2 112.008 1046.45 100.049C1000.05 91.9895 999.375 30.0886 940.466 41.3164C883.514 52.1786 872.676 141.322 793.031 117.369C723.898 96.5851 698.616 -5.10928 611.777 10.8882C554.192 21.4894 527.03 136.048 451.989 93.1557C408.272 68.1761 381.647 -16.5285 316.178 20.706C284.124 38.9316 282.187 74.0773 236.705 75.1217C172.943 76.584 133.504 -14.283 67.1912 1.94079C-44.3349 29.2356 78.7006 114.863 78.7965 154.221C78.8732 190.794 -6.60324 223.05 45.5151 265.368C71.1235 286.17 119.31 285.908 123.28 326.625C129.534 390.44 43.5202 416.116 39.1466 473.491C33.3344 549.736 132.545 583.663 117.104 671.17C107.8 723.984 22.8417 783.222 22.6307 843.869C22.458 898.233 111.253 934.318 116.24 981.945C121.247 1029.82 41.0649 1056.73 39.2234 1107.73C36.7489 1176.73 151.248 1223.56 105.479 1294.44C88.8864 1320.14 40.4894 1336.67 39.0124 1371.42C37.2668 1412.48 117.794 1419.88 104.002 1475.52C90.4977 1530.28 -24.577 1559.65 4.77194 1626.09C31.7807 1687.24 109.085 1619.04 136.305 1598.92C163.889 1578.53 185.009 1561.89 224.985 1572.65C240.465 1576.83 277.18 1623.93 295.998 1634.74C359.069 1670.98 391.66 1570.14 453.984 1576.79C498.026 1581.49 537.542 1657.62 588.126 1658C638.901 1658.38 666.869 1599.91 702.682 1579.42C790.902 1528.94 860.361 1703.5 942.231 1635.21C984.528 1599.94 975.532 1534.49 1060.26 1562.8C1101.85 1576.69 1176.06 1661.67 1219.8 1603.91C1259.78 1551.1 1186.13 1499.35 1163.81 1458.42C1119.4 1377.02 1203.88 1365.43 1233.9 1307.43C1282.58 1213.39 1176.66 1191.76 1181.72 1128.5C1184.58 1092.9 1239.58 1060.78 1258.59 1030.7C1300.04 965.129 1234.7 933.065 1207.12 881.452C1162.87 798.662 1259.72 769.4 1265.22 701.824L1265.24 701.824Z" fill="#FFC619"/>
</svg>