<svg width="100%" height="100%" viewBox="0 0 1372 2014" fill="none" xmlns="http://www.w3.org/2000/svg">
<path d="M7.28901 1161.11C1.20612 1245.3 93.5057 1275.55 97.8507 1351.67C102.527 1433.22 14.0547 1483.13 13.8686 1562.08C13.7031 1634.31 119.451 1699.39 92.9058 1790.44C80.9881 1831.32 -37.9609 1945.53 35.1589 1988.54C116.637 2036.46 169.129 1877.33 243.283 1891.86C293.333 1901.64 294.057 1976.81 357.598 1963.18C419.027 1949.99 430.717 1841.74 516.624 1870.82C591.192 1896.06 618.462 2019.55 712.127 2000.13C774.239 1987.25 803.537 1848.14 884.478 1900.23C931.631 1930.56 960.349 2033.42 1030.97 1988.2C1065.54 1966.07 1067.63 1923.39 1116.69 1922.13C1185.46 1920.35 1228 2030.69 1299.53 2010.99C1419.82 1977.85 1287.11 1873.87 1287.01 1826.07C1286.93 1781.66 1379.12 1742.49 1322.91 1691.11C1295.28 1665.85 1243.31 1666.16 1239.03 1616.72C1232.28 1539.23 1325.06 1508.05 1329.78 1438.38C1336.04 1345.79 1229.03 1304.59 1245.69 1198.33C1255.72 1134.2 1347.36 1062.26 1347.59 988.618C1347.78 922.603 1252 878.784 1246.62 820.949C1241.22 762.819 1327.71 730.139 1329.69 668.204C1332.36 584.412 1208.86 527.55 1258.23 441.475C1276.13 410.275 1328.33 390.194 1329.92 348.002C1331.8 298.137 1244.95 289.153 1259.82 221.595C1274.39 155.094 1398.51 119.434 1366.85 38.7487C1337.72 -35.51 1254.34 47.3097 1224.98 71.7456C1195.23 96.4985 1172.45 116.707 1129.33 103.643C1112.63 98.57 1073.03 41.3699 1052.73 28.243C984.702 -15.7669 949.549 106.687 882.326 98.6123C834.821 92.905 792.199 0.46729 737.638 0.00224529C682.871 -0.462799 652.704 70.5407 614.075 95.4204C518.92 156.721 444.001 -55.2532 355.694 27.6722C310.072 70.4984 319.776 149.978 228.386 115.607C183.53 98.7391 103.479 -4.45796 56.3046 65.6788C13.1859 129.812 92.6162 192.656 116.7 242.353C164.598 341.195 73.4775 355.273 41.097 425.706C-11.4151 539.895 102.837 566.17 97.3749 642.986C94.292 686.214 34.9727 725.214 14.4686 761.741C-30.2433 841.369 40.2281 880.306 69.9808 942.981C117.713 1043.51 13.2479 1079.05 7.30976 1161.11L7.28901 1161.11Z" fill="#FFC619"/>
</svg>
