<svg xmlns="http://www.w3.org/2000/svg" width="100%" height="100%" viewBox="0 0 1332 998" fill="none">
<path d="M768.17 992.698C823.871 997.123 843.883 929.984 894.242 926.823C948.196 923.422 981.214 987.777 1033.45 987.912C1081.23 988.032 1124.29 911.11 1184.52 930.42C1211.57 939.089 1287.13 1025.61 1315.59 972.425C1347.29 913.157 1242.02 874.975 1251.62 821.034C1258.1 784.628 1307.83 784.101 1298.81 737.882C1290.08 693.197 1218.46 684.694 1237.71 622.205C1254.41 567.964 1336.1 548.128 1323.25 479.995C1314.74 434.814 1222.7 413.503 1257.16 354.626C1277.23 320.327 1345.28 299.437 1315.37 248.07C1300.72 222.921 1272.49 221.401 1271.65 185.717C1270.47 135.69 1343.47 104.746 1330.44 52.7176C1308.51 -34.7847 1239.72 61.7478 1208.1 61.8231C1178.72 61.8833 1152.81 -5.18079 1118.81 35.7108C1102.1 55.8029 1102.31 93.6093 1069.6 96.7247C1018.33 101.631 997.702 34.1456 951.608 30.7141C890.355 26.1539 863.098 103.994 792.797 91.8785C750.367 84.5791 702.777 17.9214 654.054 17.7558C610.38 17.6204 581.39 87.2881 543.127 91.2012C504.669 95.1293 483.049 32.2192 442.074 30.7743C386.638 28.8328 349.019 118.668 292.073 82.758C271.432 69.7395 258.146 31.7676 230.232 30.6088C197.242 29.2392 191.299 92.4203 146.604 81.5991C102.608 71.0037 79.0154 -19.2829 25.6356 3.74403C-23.4929 24.9348 31.2994 85.5875 47.4658 106.944C63.8419 128.586 77.2113 145.156 68.5687 176.521C65.2124 188.667 27.3697 217.473 18.6851 232.237C-10.4311 281.723 70.5826 307.293 65.2404 356.192C61.4645 390.747 0.309169 421.751 0.00150416 461.438C-0.30616 501.276 46.6686 523.22 63.1287 551.318C103.684 620.535 -36.5546 675.032 18.3075 739.266C46.6407 772.452 99.2233 765.394 76.4841 831.871C65.3243 864.5 -2.94928 922.729 43.4521 957.044C85.8819 988.409 127.459 930.631 160.337 913.112C225.729 878.271 235.043 944.552 281.64 968.106C357.186 1006.3 374.569 923.196 425.39 927.169C453.989 929.412 479.79 972.561 503.956 987.476C556.637 1020 582.396 968.738 623.861 947.096C690.373 912.375 713.881 988.363 768.17 992.683V992.698Z" fill="#FFC619"/>
</svg>
